<svg xmlns="http://www.w3.org/2000/svg" viewBox="0 0 178.71 249.6"><defs><style>.cls-1{fill:#fff;stroke:#000;stroke-width:1px;}</style></defs><title>2c</title><g id="Layer_2" data-name="Layer 2"><g id="svg11376"><g id="_2c" data-name="2c"><g id="layer1-33-1-8-0-7"><path id="rect6355-6-85-4-0-5" class="cls-1" d="M9,.5H169.74A8.47,8.47,0,0,1,178.21,9V240.63a8.47,8.47,0,0,1-8.47,8.47H9A8.47,8.47,0,0,1,.5,240.63V9A8.4,8.4,0,0,1,9,.5Z"/></g><path id="path147-0-8-1-6-7-2-1-6-3" d="M89.32,26.86c-7.8.2-11.3,9-5.5,15.8.8,1,.9,1.6-.6.6-3.9-2.6-11.4-.9-11.8,7.1-.5,9.8,13.3,12.7,15.8,2.2.1-1.1,1-1.1.8.5a32.78,32.78,0,0,1-3.4,12.1h9.3a34.21,34.21,0,0,1-3.4-12.1c-.2-1.6.7-1.6.8-.5,2.6,10.4,16.3,7.6,15.8-2.2-.4-8-7.9-9.7-11.8-7.1-1.5,1-1.5.4-.6-.6,5.9-6.8,2.4-15.6-5.4-15.8Z"/><path id="path147-0-8-1-6-1-4-5-4-2" d="M89.32,223.36c-7.8-.2-11.3-9-5.5-15.8.8-1,.9-1.6-.6-.6-3.9,2.6-11.4.9-11.8-7.1-.5-9.8,13.3-12.7,15.8-2.2.1,1.1,1,1.1.8-.5a32.78,32.78,0,0,0-3.4-12.1h9.3a34.21,34.21,0,0,0-3.4,12.1c-.2,1.6.7,1.6.8.5,2.6-10.4,16.3-7.6,15.8,2.2-.4,8-7.9,9.7-11.8,7.1-1.5-1-1.5-.4-.6.6,5.9,6.9,2.4,15.7-5.4,15.8Z"/><path id="path147-6-9-8-7-0-5-4-9-1" d="M164.52,209.26c3.1-.1,4.5-3.7,2.2-6.6-.3-.4-.4-.7.2-.3,1.6,1.1,4.6.4,4.7-2.9.2-4.1-5.3-5.3-6.3-.9-.1.5-.4.4-.3-.2a12.48,12.48,0,0,1,1.4-5h-3.7a15,15,0,0,1,1.4,5c.1.7-.3.7-.3.2-1-4.4-6.5-3.2-6.3.9.2,3.3,3.1,4,4.7,2.9.6-.4.6-.2.2.3-2.4,2.9-1,6.6,2.1,6.6Z"/><path id="path147-6-9-8-7-4-5-9-2-7" d="M14.12,40.36c-3.1.1-4.5,3.7-2.2,6.6.3.4.4.7-.2.3-1.6-1.1-4.6-.4-4.7,2.9-.2,4.1,5.3,5.3,6.3.9.1-.5.4-.4.3.2a12.48,12.48,0,0,1-1.4,5h3.7a15,15,0,0,1-1.4-5c-.1-.7.3-.7.3-.2,1,4.4,6.5,3.2,6.3-.9-.2-3.3-3.1-4-4.7-2.9-.6.4-.6.2-.2-.3,2.5-2.9,1.1-6.6-2.1-6.6Z"/><path id="path15-9-1-0-1" d="M6.22,37.76l.1-1.6c.4-5,1.5-6.7,7.6-11.9,3-2.5,3.9-3.8,4.1-5.2.4-3.4-2.6-4.5-4.6-4.5-2.6,0-5.4,1.5-4.1,5.2l-2.9.9c-.6-3.4,0-6.5,2.7-7.9,3.6-1.8,8.2-1.1,10.5,1.8a6.85,6.85,0,0,1,1.1,6.7c-2.4,5.4-10.7,7.7-11.4,13.9h9.2v-3.5h2.7v6.4l-15-.3Z"/><path id="path15-5-7-4-9-4" d="M172,211.86l-.1,1.6c-.4,5-1.5,6.7-7.6,11.9-3,2.5-3.9,3.8-4.1,5.2-.4,3.4,2.6,4.5,4.6,4.5,2.6,0,5.4-1.5,4.1-5.2l2.9-.9c.6,3.4,0,6.5-2.7,7.9-3.6,1.8-8.2,1.1-10.5-1.8a6.85,6.85,0,0,1-1.1-6.7c2.4-5.4,10.7-7.7,11.4-13.9h-9.2V218H157v-6.4l15,.3Z"/></g></g></g></svg>