<svg xmlns="http://www.w3.org/2000/svg" viewBox="0 0 178.7 249.6"><defs><style>.cls-1{fill:#fff;stroke:#000;stroke-width:1px;}.cls-2{fill:#d40000;}</style></defs><title>2d</title><g id="Layer_2" data-name="Layer 2"><g id="svg11376"><g id="_2d" data-name="2d"><path id="rect6486-8" class="cls-1" d="M9,.5H169.74A8.46,8.46,0,0,1,178.2,9V240.63a8.45,8.45,0,0,1-8.46,8.47H9A8.45,8.45,0,0,1,.5,240.63V9A8.46,8.46,0,0,1,9,.5Z"/><path id="path6516-8" class="cls-2" d="M89.3,64.89C85.22,58,80.84,51.44,75.36,45.76c5.48-5.69,9.76-12.27,13.94-19.14,4.08,6.87,8.46,13.45,13.94,19.14C97.86,51.34,93.48,58,89.3,64.89Z"/><path id="path6518-2" class="cls-2" d="M14.14,56.32a42,42,0,0,0-5.77-8,42.38,42.38,0,0,0,5.77-8,41.94,41.94,0,0,0,5.77,8A47.86,47.86,0,0,0,14.14,56.32Z"/><path id="path6522-0" class="cls-2" d="M164.56,209.33a41.56,41.56,0,0,0-5.77-8,41.94,41.94,0,0,0,5.77-8,42.43,42.43,0,0,0,5.78,8A39.08,39.08,0,0,0,164.56,209.33Z"/><path id="path6538-6" class="cls-2" d="M89.3,223.09c-4.08-6.88-8.46-13.46-13.94-19.14,5.48-5.68,9.76-12.26,13.94-19.14,4.08,6.88,8.46,13.46,13.94,19.14C97.86,209.63,93.48,216.21,89.3,223.09Z"/><path id="path15-34-1-4-2" class="cls-2" d="M6.67,37.78l.1-1.59c.4-5,1.5-6.68,7.57-12,3-2.49,4-3.78,4.08-5.28.4-3.39-2.69-4.48-4.58-4.48-2.59,0-5.48,1.49-4.08,5.18l-2.89.9c-.6-3.39,0-6.58,2.69-8,3.58-1.79,8.16-1.09,10.45,1.8A6.82,6.82,0,0,1,21.11,21c-2.49,5.39-10.75,7.68-11.45,14h9.16V31.5h2.69v6.38l-14.84-.1Z"/><path id="path15-5-4-6-4" class="cls-2" d="M172,211.82l-.1,1.6c-.4,5-1.49,6.68-7.56,12-3,2.49-4,3.79-4.09,5.28-.39,3.39,2.69,4.49,4.58,4.49,2.59,0,5.48-1.5,4.08-5.19l2.89-.89c.6,3.39,0,6.58-2.69,8-3.58,1.8-8.16,1.1-10.45-1.79a6.84,6.84,0,0,1-1.09-6.68c2.48-5.38,10.75-7.68,11.44-14h-9.15v3.49H157.2v-6.38l14.83.1Z"/></g></g></g></svg>