<svg xmlns="http://www.w3.org/2000/svg" viewBox="0 0 178.71 249.6"><defs><style>.cls-1{fill:#fff;stroke:#000;stroke-width:1px;}.cls-2{fill:#d40000;}</style></defs><title>2h</title><g id="Layer_2" data-name="Layer 2"><g id="svg11376"><g id="_2h" data-name="2h"><g id="g9732-9-3"><path id="rect9734-4-5" class="cls-1" d="M9,.5H169.74A8.47,8.47,0,0,1,178.21,9V240.63a8.47,8.47,0,0,1-8.47,8.47H9A8.47,8.47,0,0,1,.5,240.63V9A8.4,8.4,0,0,1,9,.5Z"/></g><path id="path9766-0-8" class="cls-2" d="M14.14,56.3S12.35,53.71,10,50.71c-1.59-2-2.89-4.18-3-6.08-.1-2.09,1.2-4.28,3.49-4.38s3.28,1.59,3.68,3.09c.4-1.4,1.3-3.19,3.69-3.09s3.58,2.29,3.48,4.38c-.1,1.9-1.39,4-3,6.08C15.93,53.8,14.14,56.3,14.14,56.3Z"/><path id="path9768-3-3" class="cls-2" d="M164.47,193.36s-1.79,2.59-4.18,5.58c-1.6,2-2.89,4.19-3,6.08-.1,2.09,1.2,4.29,3.48,4.39s3.29-1.6,3.69-3.09c.4,1.39,1.29,3.19,3.68,3.09s3.59-2.3,3.49-4.39c-.1-1.89-1.4-4-3-6.08C166.26,195.85,164.47,193.36,164.47,193.36Z"/><path id="path9772-1-7" class="cls-2" d="M89.31,64.87s-3.69-6.08-8.77-13.26c-3.38-4.78-6.07-10-6.27-14.45-.3-5.09,2.39-10.27,7.37-10.47s6.87,4,7.67,7.38c.79-3.49,2.78-7.68,7.66-7.38s7.57,5.38,7.37,10.47c-.3,4.48-2.89,9.67-6.27,14.45C93.09,58.79,89.31,64.87,89.31,64.87Z"/><path id="path9786-2-1" class="cls-2" d="M89.31,184.78s-3.69,6.09-8.77,13.26c-3.38,4.79-6.07,10-6.27,14.46-.3,5.08,2.39,10.26,7.37,10.46s6.87-4,7.67-7.37c.79,3.48,2.78,7.67,7.66,7.37s7.57-5.38,7.37-10.46c-.3-4.49-2.89-9.67-6.27-14.46C93.09,190.87,89.31,184.78,89.31,184.78Z"/><path id="path15-34-0-0-4" class="cls-2" d="M6.68,37.76l.1-1.6c.39-5,1.49-6.68,7.56-12,3-2.49,4-3.79,4.08-5.28.4-3.39-2.69-4.49-4.58-4.49-2.59,0-5.47,1.5-4.08,5.18l-2.89.9c-.59-3.39,0-6.58,2.69-8,3.59-1.8,8.17-1.1,10.46,1.79A6.84,6.84,0,0,1,21.11,21c-2.49,5.38-10.75,7.68-11.45,14h9.16V31.48h2.69v6.38l-14.83-.1Z"/><path id="path15-5-4-5-2-7" class="cls-2" d="M171.93,211.9l-.09,1.59c-.4,5-1.5,6.68-7.57,12-3,2.5-4,3.79-4.08,5.29-.4,3.39,2.69,4.48,4.58,4.48,2.59,0,5.47-1.49,4.08-5.18l2.89-.9c.59,3.39,0,6.58-2.69,8-3.59,1.79-8.17,1.09-10.46-1.8a6.83,6.83,0,0,1-1.09-6.68C160,223.26,168.25,221,169,214.69h-9.26v3.49H157V211.8l14.93.1Z"/></g></g></g></svg>