<svg xmlns="http://www.w3.org/2000/svg" viewBox="0 0 178.71 249.6"><defs><style>.cls-1{fill:#fff;stroke:#000;stroke-width:1px;}</style></defs><title>2s</title><g id="Layer_2" data-name="Layer 2"><g id="svg11376"><g id="_2s" data-name="2s"><path id="rect6716-2-0" class="cls-1" d="M9,.5H169.74A8.47,8.47,0,0,1,178.21,9V240.63a8.47,8.47,0,0,1-8.47,8.47H9A8.47,8.47,0,0,1,.5,240.63V9A8.34,8.34,0,0,1,9,.5Z"/><path id="path6748-4-0" d="M14.14,40.37C10.76,44.76,7.07,47.25,7,50.64A3.46,3.46,0,0,0,9.76,54a2.94,2.94,0,0,0,3.29-2.79c0-.4.49-.4.49.2A10.06,10.06,0,0,1,12,56.32h4.48a11.24,11.24,0,0,1-1.59-4.88c0-.5.5-.6.5-.2A2.88,2.88,0,0,0,18.62,54a3.39,3.39,0,0,0,2.79-3.39c-.2-3.39-3.88-5.88-7.27-10.27Z"/><path id="path6752-9-1" d="M164.47,209.33c-3.39-4.39-7.07-6.88-7.17-10.27a3.47,3.47,0,0,1,2.79-3.39,2.93,2.93,0,0,1,3.28,2.8c0,.39.5.39.5-.2a10.2,10.2,0,0,0-1.59-4.89h4.48a11.29,11.29,0,0,0-1.6,4.89c0,.49.5.59.5.2a2.89,2.89,0,0,1,3.29-2.8,3.39,3.39,0,0,1,2.78,3.39c-.09,3.39-3.78,5.88-7.26,10.27Z"/><path id="path6760-2-4" d="M89.3,26.62C81.94,37.08,74.07,43.16,74,51.34c0,2.69,1.4,7.17,5.88,8,2.88.6,6.87-1.79,7-6.58,0-1,1-.89,1,.4a25.68,25.68,0,0,1-3.38,11.76h9.65A28.39,28.39,0,0,1,90.7,53.13c0-1.29,1-1.29,1-.4.1,4.79,4.09,7.18,7,6.58,4.48-.9,5.88-5.38,5.88-8,0-8.18-7.87-14.26-15.24-24.72Z"/><path id="path6774-6-2" d="M89.3,223.09C81.94,212.62,74.07,206.54,74,198.37c0-2.7,1.4-7.18,5.88-8,2.88-.6,6.87,1.8,7,6.58,0,1,1,.9,1-.4a25.72,25.72,0,0,0-3.38-11.76h9.65a28.43,28.43,0,0,0-3.38,11.76c0,1.3,1,1.3,1,.4.1-4.78,4.09-7.18,7-6.58,4.48.9,5.88,5.38,5.88,8,0,8.17-7.87,14.25-15.24,24.72Z"/><path id="path15-3-8-9" d="M6.67,37.78l.1-1.59c.4-5,1.5-6.68,7.57-12,3-2.49,4-3.78,4.08-5.28.4-3.39-2.69-4.48-4.58-4.48-2.59,0-5.47,1.49-4.08,5.18l-2.89.9c-.59-3.39,0-6.58,2.69-8,3.59-1.79,8.17-1.09,10.45,1.8A6.79,6.79,0,0,1,21.11,21c-2.49,5.39-10.75,7.68-11.45,14h9.16V31.5h2.69v6.38l-14.84-.1Z"/><path id="path15-3-5-1-4" d="M171.93,211.92l-.1,1.6c-.39,5-1.49,6.68-7.56,12-3,2.49-4,3.79-4.08,5.28-.4,3.39,2.68,4.49,4.58,4.49,2.58,0,5.47-1.5,4.08-5.19l2.88-.89c.6,3.39,0,6.58-2.68,8-3.59,1.8-8.17,1.1-10.46-1.79a6.84,6.84,0,0,1-1.09-6.68c2.49-5.38,10.75-7.68,11.45-14h-9.16v3.49H157.1v-6.38l14.83.1Z"/></g></g></g></svg>