<svg xmlns="http://www.w3.org/2000/svg" viewBox="0 0 178.71 249.6"><defs><style>.cls-1{fill:#fff;stroke:#000;stroke-width:1px;}</style></defs><title>3c</title><g id="Layer_2" data-name="Layer 2"><g id="svg11376"><g id="_3c" data-name="3c"><g id="layer1-33-1-4-5-7"><path id="rect6355-6-85-2-7-5" class="cls-1" d="M9,.5H169.74A8.47,8.47,0,0,1,178.21,9V240.63a8.47,8.47,0,0,1-8.47,8.47H9A8.47,8.47,0,0,1,.5,240.63V9A8.4,8.4,0,0,1,9,.5Z"/></g><path id="path147-0-8-1-6-7-2-5-9-2" d="M89.36,26.86c-7.8.2-11.3,9-5.5,15.8.8,1,.9,1.6-.6.6-3.9-2.6-11.4-.9-11.8,7.1-.5,9.8,13.3,12.7,15.8,2.2.1-1.1,1-1.1.8.5a32.78,32.78,0,0,1-3.4,12.1H94a34.21,34.21,0,0,1-3.4-12.1c-.2-1.6.7-1.6.8-.5,2.6,10.4,16.3,7.6,15.8-2.2-.4-8-7.9-9.7-11.8-7.1-1.5,1-1.5.4-.6-.6,5.9-6.8,2.4-15.6-5.4-15.8Z"/><path id="path147-0-8-1-6-1-4-3-4-3" d="M89.36,223.36c-7.8-.2-11.3-9-5.5-15.8.8-1,.9-1.6-.6-.6-3.9,2.6-11.4.9-11.8-7.1-.5-9.8,13.3-12.7,15.8-2.2.1,1.1,1,1.1.8-.5a32.78,32.78,0,0,0-3.4-12.1H94a34.21,34.21,0,0,0-3.4,12.1c-.2,1.6.7,1.6.8.5,2.6-10.4,16.3-7.6,15.8,2.2-.4,8-7.9,9.7-11.8,7.1-1.5-1-1.5-.4-.6.6,5.9,6.9,2.4,15.7-5.4,15.8Z"/><path id="path147-0-8-1-6-1-1-0-4-8-8" d="M89.36,106c-7.8.2-11.3,9-5.5,15.8.8,1,.9,1.6-.6.6-3.9-2.6-11.4-.9-11.8,7.1-.5,9.8,13.3,12.7,15.8,2.2.1-1.1,1-1.1.8.5a32.78,32.78,0,0,1-3.4,12.1H94a34.21,34.21,0,0,1-3.4-12.1c-.2-1.6.7-1.6.8-.5,2.6,10.4,16.3,7.6,15.8-2.2-.4-8-7.9-9.7-11.8-7.1-1.5,1-1.5.4-.6-.6,5.9-6.8,2.4-15.6-5.4-15.8Z"/><path id="path147-6-9-8-7-0-5-5-1-4" d="M164.56,209.26c3.1-.1,4.5-3.7,2.2-6.6-.3-.4-.4-.7.2-.3,1.6,1.1,4.6.4,4.7-2.9.2-4.1-5.3-5.3-6.3-.9-.1.5-.4.4-.3-.2a12.48,12.48,0,0,1,1.4-5h-3.7a15,15,0,0,1,1.4,5c.1.7-.3.7-.3.2-1-4.4-6.5-3.2-6.3.9.2,3.3,3.1,4,4.7,2.9.6-.4.6-.2.2.3-2.5,2.9-1.1,6.6,2.1,6.6Z"/><path id="path147-6-9-8-7-4-5-8-2-3" d="M14.16,40.36c-3.1.1-4.5,3.7-2.2,6.6.3.4.4.7-.2.3-1.6-1.1-4.6-.4-4.7,2.9-.2,4.1,5.3,5.3,6.3.9.1-.5.4-.4.3.2a12.48,12.48,0,0,1-1.4,5H16a15,15,0,0,1-1.4-5c-.1-.7.3-.7.3-.2,1,4.4,6.5,3.2,6.3-.9-.2-3.3-3.1-4-4.7-2.9-.6.4-.6.2-.2-.3,2.4-2.9,1-6.6-2.1-6.6Z"/><path id="path17-9-7-6-4" d="M5.66,32.06l2-1.5c1.8,2.9,3.7,4.7,6.7,4.4,4.5-.3,6.4-5,5.4-8.6a5.21,5.21,0,0,0-7.6-3.1,7.55,7.55,0,0,1-1.5.7c-.3,0-1-1.4-.9-1.8a97.29,97.29,0,0,1,6.8-8H9v3.4H6.06v-6.1h14.8v2.1s-4,4.1-5.3,6.4a7.12,7.12,0,0,1,6.7,5.4,15.09,15.09,0,0,1-.4,7.3,9,9,0,0,1-7.4,5.2c-4.9.3-7.5-3.2-8.8-5.8Z"/><path id="path17-5-0-1-5-7" d="M173.06,217.56l-2,1.5c-1.8-2.9-3.7-4.7-6.7-4.4-4.5.3-6.4,5-5.4,8.6a5.21,5.21,0,0,0,7.6,3.1,7.55,7.55,0,0,1,1.5-.7c.3,0,1,1.4.9,1.8a97.29,97.29,0,0,1-6.8,8h7.6v-3.4h2.9v6.1h-14.8v-2.1s4-4.1,5.3-6.4a7.12,7.12,0,0,1-6.7-5.4,15.09,15.09,0,0,1,.4-7.3,9,9,0,0,1,7.4-5.2c4.8-.3,7.5,3.2,8.8,5.8Z"/></g></g></g></svg>