<svg xmlns="http://www.w3.org/2000/svg" viewBox="0 0 178.7 249.6"><defs><style>.cls-1{fill:#fff;stroke:#000;stroke-width:1px;}.cls-2{fill:#d40000;}</style></defs><title>3d</title><g id="Layer_2" data-name="Layer 2"><g id="svg11376"><g id="_3d" data-name="3d"><path id="rect6554-0" class="cls-1" d="M9,.5H169.74A8.46,8.46,0,0,1,178.2,9V240.63a8.45,8.45,0,0,1-8.46,8.47H9A8.45,8.45,0,0,1,.5,240.63V9A8.46,8.46,0,0,1,9,.5Z"/><path id="path6584-3" class="cls-2" d="M89.4,64.89C85.32,58,80.94,51.44,75.46,45.76c5.48-5.69,9.76-12.27,13.94-19.14,4.08,6.87,8.46,13.45,13.94,19.14C97.86,51.34,93.48,58,89.4,64.89Z"/><path id="path6586-2" class="cls-2" d="M14.24,56.32a41.61,41.61,0,0,0-5.78-8,42,42,0,0,0,5.78-8,41.94,41.94,0,0,0,5.77,8A38.67,38.67,0,0,0,14.24,56.32Z"/><path id="path6590-7" class="cls-2" d="M164.56,209.33a41.56,41.56,0,0,0-5.77-8,41.94,41.94,0,0,0,5.77-8,42.43,42.43,0,0,0,5.78,8A43.27,43.27,0,0,0,164.56,209.33Z"/><path id="path6600-5" class="cls-2" d="M89.4,143.94c-4.08-6.88-8.46-13.46-13.94-19.14,5.48-5.68,9.76-12.26,13.94-19.14,4.08,6.88,8.46,13.46,13.94,19.14C97.86,130.48,93.48,137.16,89.4,143.94Z"/><path id="path6606-3" class="cls-2" d="M89.4,223.09c-4.08-6.88-8.46-13.46-13.94-19.14,5.48-5.68,9.76-12.26,13.94-19.14,4.08,6.88,8.46,13.46,13.94,19.14C97.86,209.63,93.48,216.21,89.4,223.09Z"/><path id="path17-2-9-4-8" class="cls-2" d="M5.68,32.1l2-1.5c1.79,2.89,3.68,4.79,6.77,4.39,4.48-.3,6.37-5.08,5.47-8.57a5.2,5.2,0,0,0-7.56-3.09,7.25,7.25,0,0,1-1.5.69c-.29,0-1-1.39-.89-1.79a91.3,91.3,0,0,1,6.87-8H9.06v3.39H6.17V11.47H21v2.09a47.2,47.2,0,0,0-5.28,6.38,7.29,7.29,0,0,1,6.77,5.38,15,15,0,0,1-.4,7.28,9.1,9.1,0,0,1-7.36,5.18c-5.08.4-7.77-3.09-9.06-5.68Z"/><path id="path17-5-3-3-8" class="cls-2" d="M173.13,217.6l-2,1.5c-1.79-2.89-3.68-4.79-6.76-4.39-4.48.3-6.38,5.09-5.48,8.58a5.22,5.22,0,0,0,7.57,3.09,7.32,7.32,0,0,1,1.49-.7c.3,0,1,1.39.9,1.79a93.82,93.82,0,0,1-6.87,8h7.56v-3.39h2.89v6.18H157.7v-2.1s4-4.08,5.27-6.37a7.32,7.32,0,0,1-6.77-5.39,15,15,0,0,1,.4-7.27,9.1,9.1,0,0,1,7.37-5.19c5.17-.4,7.76,3.09,9.16,5.68Z"/></g></g></g></svg>