<svg xmlns="http://www.w3.org/2000/svg" viewBox="0 0 178.71 249.6"><defs><style>.cls-1{fill:#fff;stroke:#000;stroke-width:1px;}.cls-2{fill:#d40000;}</style></defs><title>3h</title><g id="Layer_2" data-name="Layer 2"><g id="svg11376"><g id="_3h" data-name="3h"><g id="g9800-8-2"><path id="rect9802-4-3" class="cls-1" d="M9,.5H169.74A8.47,8.47,0,0,1,178.21,9V240.63a8.47,8.47,0,0,1-8.47,8.47H9A8.47,8.47,0,0,1,.5,240.63V9A8.4,8.4,0,0,1,9,.5Z"/></g><path id="path9834-5-2" class="cls-2" d="M14.2,56.3S12.4,53.71,10,50.71c-1.59-2-2.88-4.18-3-6.08-.1-2.09,1.19-4.28,3.48-4.38s3.29,1.59,3.69,3.09c.39-1.4,1.29-3.19,3.68-3.09s3.58,2.29,3.48,4.38c-.1,1.9-1.39,4-3,6.08C15.89,53.8,14.2,56.3,14.2,56.3Z"/><path id="path9836-5-8" class="cls-2" d="M164.52,193.36s-1.79,2.59-4.18,5.58c-1.59,2-2.89,4.19-3,6.08-.1,2.09,1.2,4.29,3.49,4.39s3.28-1.6,3.68-3.09c.4,1.39,1.3,3.19,3.69,3.09s3.58-2.3,3.48-4.39c-.1-1.89-1.39-4-3-6.08C166.31,195.85,164.52,193.36,164.52,193.36Z"/><path id="path9840-3-6" class="cls-2" d="M89.36,64.87s-3.68-6.08-8.76-13.26c-3.39-4.78-6.07-10-6.27-14.45-.3-5.09,2.39-10.27,7.36-10.47s6.87,4,7.67,7.38c.8-3.49,2.79-7.68,7.66-7.38s7.57,5.38,7.37,10.47c-.3,4.48-2.89,9.67-6.27,14.45C93,58.79,89.36,64.87,89.36,64.87Z"/><path id="path9850-2-3" class="cls-2" d="M89.36,143.92s-3.68-6.08-8.76-13.26c-3.39-4.79-6.07-10-6.27-14.46-.3-5.08,2.39-10.26,7.36-10.46s6.87,4,7.67,7.37c.8-3.48,2.79-7.67,7.66-7.37s7.57,5.38,7.37,10.46c-.3,4.49-2.89,9.67-6.27,14.46C93,137.84,89.36,143.92,89.36,143.92Z"/><path id="path9854-8-0" class="cls-2" d="M89.36,184.78S85.68,190.87,80.6,198c-3.39,4.79-6.07,10-6.27,14.46-.3,5.08,2.39,10.26,7.36,10.46s6.87-4,7.67-7.37c.8,3.48,2.79,7.67,7.66,7.37s7.57-5.38,7.37-10.46c-.3-4.49-2.89-9.67-6.27-14.46C93,190.87,89.36,184.78,89.36,184.78Z"/><path id="path17-2-9-8-4" class="cls-2" d="M5.63,32.07l2-1.49c1.79,2.89,3.68,4.78,6.76,4.39,4.48-.3,6.38-5.09,5.48-8.58A5.22,5.22,0,0,0,12.3,23.3a7.32,7.32,0,0,1-1.49.7c-.3,0-1-1.39-.9-1.79a93.82,93.82,0,0,1,6.87-8H9.22v3.39H6.33V11.54H21.06v2.09A46.6,46.6,0,0,0,15.79,20a7.32,7.32,0,0,1,6.77,5.39,15,15,0,0,1-.4,7.27,9.12,9.12,0,0,1-7.37,5.19c-5.17.3-7.86-3.19-9.16-5.79Z"/><path id="path17-5-3-9-1-3" class="cls-2" d="M173.08,217.58l-2,1.49c-1.79-2.89-3.68-4.78-6.77-4.38-4.48.3-6.37,5.08-5.47,8.57a5.2,5.2,0,0,0,7.56,3.09,7.55,7.55,0,0,1,1.5-.7c.3,0,1,1.4.89,1.8a91.3,91.3,0,0,1-6.87,8h7.57V232h2.89v6.08H157.75V236a47.2,47.2,0,0,0,5.28-6.38,7.29,7.29,0,0,1-6.77-5.38,15,15,0,0,1,.4-7.28A9.1,9.1,0,0,1,164,211.8c5.08-.3,7.67,3.19,9.06,5.78Z"/></g></g></g></svg>