<svg xmlns="http://www.w3.org/2000/svg" viewBox="0 0 178.71 249.6"><defs><style>.cls-1{fill:#fff;stroke:#000;stroke-width:1px;}</style></defs><title>3s</title><g id="Layer_2" data-name="Layer 2"><g id="svg11376"><g id="_3s" data-name="3s"><path id="rect6784-5-9" class="cls-1" d="M9,.5H169.74A8.47,8.47,0,0,1,178.21,9V240.63a8.47,8.47,0,0,1-8.47,8.47H9A8.47,8.47,0,0,1,.5,240.63V9A8.4,8.4,0,0,1,9,.5Z"/><path id="path6816-2-4" d="M14.14,40.37C10.76,44.76,7.07,47.25,7,50.64A3.46,3.46,0,0,0,9.76,54a2.94,2.94,0,0,0,3.29-2.79c0-.4.49-.4.49.2A10.06,10.06,0,0,1,12,56.32h4.48a11.24,11.24,0,0,1-1.59-4.88c0-.5.5-.6.5-.2A2.88,2.88,0,0,0,18.62,54a3.39,3.39,0,0,0,2.79-3.39c-.2-3.39-3.78-5.88-7.27-10.27Z"/><path id="path6820-0-2" d="M164.47,209.33c-3.39-4.39-7.07-6.88-7.17-10.27a3.47,3.47,0,0,1,2.79-3.39,2.93,2.93,0,0,1,3.28,2.8c0,.39.5.39.5-.2a10.2,10.2,0,0,0-1.59-4.89h4.48a11.29,11.29,0,0,0-1.6,4.89c0,.49.5.59.5.2a2.89,2.89,0,0,1,3.29-2.8,3.39,3.39,0,0,1,2.78,3.39c-.09,3.39-3.78,5.88-7.26,10.27Z"/><path id="path6828-8-3" d="M89.3,26.62C81.94,37.08,74.07,43.16,74,51.34c0,2.69,1.4,7.17,5.88,8,2.88.6,6.87-1.79,7-6.58,0-1,1-.89,1,.4a25.68,25.68,0,0,1-3.38,11.76h9.65A28.39,28.39,0,0,1,90.7,53.13c0-1.29,1-1.29,1-.4.1,4.79,4.09,7.18,7,6.58,4.48-.9,5.88-5.38,5.88-8,0-8.18-7.87-14.26-15.24-24.72Z"/><path id="path6842-0-7" d="M89.3,223.09C81.94,212.62,74.07,206.54,74,198.37c0-2.7,1.4-7.18,5.88-8,2.88-.6,6.87,1.8,7,6.58,0,1,1,.9,1-.4a25.72,25.72,0,0,0-3.38-11.76h9.65a28.43,28.43,0,0,0-3.38,11.76c0,1.3,1,1.3,1,.4.1-4.78,4.09-7.18,7-6.58,4.48.9,5.88,5.38,5.88,8,0,8.17-7.87,14.25-15.24,24.72Z"/><path id="path6844-7-0" d="M89.3,105.76C81.94,116.23,74.07,122.31,74,130.48c0,2.69,1.4,7.18,5.88,8,2.88.6,6.87-1.8,7-6.58,0-1,1-.9,1,.4A25.72,25.72,0,0,1,84.43,144h9.65a28.43,28.43,0,0,1-3.38-11.76c0-1.3,1-1.3,1-.4.1,4.78,4.09,7.18,7,6.58,4.48-.9,5.88-5.39,5.88-8,0-8.27-7.87-14.25-15.24-24.72Z"/><path id="path17-9-11-4" d="M5.58,32.1l2-1.5c1.79,2.89,3.68,4.79,6.77,4.39,4.48-.3,6.37-5.08,5.48-8.57a5.21,5.21,0,0,0-7.57-3.09,7.28,7.28,0,0,1-1.49.69c-.3,0-1-1.39-.9-1.79a91.3,91.3,0,0,1,6.87-8H9.16v3.39H6.28V11.56H21v2.1A47.2,47.2,0,0,0,15.73,20a7.29,7.29,0,0,1,6.77,5.38,15.14,15.14,0,0,1-.39,7.28,9.12,9.12,0,0,1-7.37,5.18c-5.18.3-7.77-3.19-9.16-5.78Z"/><path id="path17-9-1-0-8" d="M173,217.6l-2,1.5c-1.79-2.89-3.69-4.79-6.77-4.39-4.48.3-6.37,5.09-5.48,8.58a5.22,5.22,0,0,0,7.57,3.09,7.58,7.58,0,0,1,1.49-.7c.3,0,1,1.39.9,1.79a92,92,0,0,1-6.87,8h7.56v-3.39h2.89v6.08H157.6V236s4-4.08,5.27-6.38a7.3,7.3,0,0,1-6.77-5.38,15.22,15.22,0,0,1,.4-7.27,9.11,9.11,0,0,1,7.37-5.19c5.18-.3,7.86,3.19,9.16,5.78Z"/></g></g></g></svg>