<svg xmlns="http://www.w3.org/2000/svg" viewBox="0 0 178.71 249.6"><defs><style>.cls-1{fill:#fff;stroke:#000;stroke-width:1px;}.cls-2{fill:#d40000;}</style></defs><title>4d</title><g id="Layer_2" data-name="Layer 2"><g id="svg11376"><g id="_4d" data-name="4d"><path id="rect6622-5" class="cls-1" d="M9,.5H169.74A8.47,8.47,0,0,1,178.21,9V240.63a8.46,8.46,0,0,1-8.47,8.47H9A8.46,8.46,0,0,1,.5,240.63V9A8.4,8.4,0,0,1,9,.5Z"/><path id="path6654-0" class="cls-2" d="M14.14,56.32a41.56,41.56,0,0,0-5.77-8,41.94,41.94,0,0,0,5.77-8,42,42,0,0,0,5.78,8A42.36,42.36,0,0,0,14.14,56.32Z"/><path id="path6656-6" class="cls-2" d="M130.52,64.89c-4.08-6.87-8.46-13.45-13.94-19.13,5.48-5.69,9.76-12.27,13.94-19.14,4.08,6.87,8.46,13.45,13.94,19.14C139.08,51.34,134.7,58,130.52,64.89Z"/><path id="path6658-8" class="cls-2" d="M164.57,209.33a42,42,0,0,0-5.78-8,42.43,42.43,0,0,0,5.78-8,41.94,41.94,0,0,0,5.77,8A38.67,38.67,0,0,0,164.57,209.33Z"/><path id="path6660-7" class="cls-2" d="M48.09,64.89C44,58,39.63,51.44,34.15,45.76c5.48-5.69,9.76-12.27,13.94-19.14C52.17,33.49,56.55,40.07,62,45.76,56.55,51.34,52.27,58,48.09,64.89Z"/><path id="path6676-4" class="cls-2" d="M48.09,223.09C44,216.21,39.63,209.63,34.15,204c5.48-5.68,9.76-12.26,13.94-19.14C52.17,191.69,56.55,198.27,62,204,56.55,209.63,52.27,216.21,48.09,223.09Z"/><path id="path6678-8" class="cls-2" d="M130.52,223.09c-4.08-6.88-8.46-13.46-13.94-19.14,5.48-5.68,9.76-12.26,13.94-19.14,4.08,6.88,8.46,13.46,13.94,19.14C139.08,209.63,134.7,216.31,130.52,223.09Z"/><path id="path19-3-1-9-0" class="cls-2" d="M14.34,37.88V35.59h2.09V31.8H6V29.11L17.33,11.66h1.89V29.11H22.4V31.8H19.22l-.1,3.79h1.79v2.29Zm2.09-19.94L9.26,29h7.17Z"/><path id="path19-4-46-7-7" class="cls-2" d="M164.37,211.82v2.3h-2.09v3.78h10.45v2.69L161.38,238h-1.89V220.59H156.3V217.9h3.19l.1-3.78H157.8v-2.3Zm-2.09,19.94,7.16-11.07h-7.16Z"/></g></g></g></svg>