<svg xmlns="http://www.w3.org/2000/svg" viewBox="0 0 178.7 249.6"><defs><style>.cls-1{fill:#fff;stroke:#000;stroke-width:1px;}.cls-2{fill:#d40000;}</style></defs><title>4h</title><g id="Layer_2" data-name="Layer 2"><g id="svg11376"><g id="_4h" data-name="4h"><g id="g9868-8-1"><path id="rect9870-7-0" class="cls-1" d="M9,.5H169.74A8.46,8.46,0,0,1,178.2,9V240.63a8.46,8.46,0,0,1-8.46,8.47H9A8.46,8.46,0,0,1,.5,240.63V9A8.46,8.46,0,0,1,9,.5Z"/></g><path id="path9902-6-7" class="cls-2" d="M14.15,56.3S12.36,53.71,10,50.71c-1.6-2-2.89-4.18-3-6.08-.1-2.09,1.19-4.28,3.48-4.38s3.29,1.59,3.69,3.09c.4-1.4,1.29-3.19,3.68-3.09s3.59,2.29,3.49,4.38c-.1,1.9-1.4,4-3,6.08C15.94,53.8,14.15,56.3,14.15,56.3Z"/><path id="path9904-6-0" class="cls-2" d="M164.57,193.36s-1.79,2.59-4.18,5.58c-1.59,2-2.88,4.19-3,6.08-.1,2.09,1.19,4.29,3.48,4.39s3.29-1.6,3.68-3.09c.4,1.39,1.3,3.19,3.69,3.09s3.58-2.3,3.48-4.39c-.1-1.89-1.39-4-3-6.08C166.27,195.85,164.57,193.36,164.57,193.36Z"/><path id="path9910-2-6" class="cls-2" d="M48.1,64.87s-3.69-6.08-8.77-13.26c-3.38-4.78-6.07-10-6.27-14.45-.3-5.09,2.39-10.27,7.37-10.47s6.87,4,7.67,7.38c.79-3.49,2.78-7.68,7.66-7.38s7.57,5.38,7.37,10.47c-.3,4.48-2.89,9.67-6.27,14.45C51.88,58.79,48.1,64.87,48.1,64.87Z"/><path id="path9916-8-0" class="cls-2" d="M130.63,64.87s-3.69-6.08-8.77-13.26c-3.38-4.78-6.07-10-6.27-14.45-.3-5.09,2.39-10.27,7.37-10.47s6.87,4,7.67,7.38c.79-3.49,2.78-7.68,7.66-7.38s7.57,5.38,7.37,10.47c-.3,4.48-2.89,9.67-6.27,14.45C134.31,58.79,130.63,64.87,130.63,64.87Z"/><path id="path9930-7-9" class="cls-2" d="M130.63,184.78s-3.69,6.09-8.77,13.26c-3.38,4.79-6.07,10-6.27,14.46-.3,5.08,2.39,10.26,7.37,10.46s6.87-4,7.67-7.37c.79,3.48,2.78,7.67,7.66,7.37s7.57-5.38,7.37-10.46c-.3-4.49-2.89-9.67-6.27-14.46C134.31,190.87,130.63,184.78,130.63,184.78Z"/><path id="path9932-9-8" class="cls-2" d="M48.1,184.78s-3.69,6.09-8.77,13.26c-3.38,4.79-6.07,10-6.27,14.46-.3,5.08,2.39,10.26,7.37,10.46s6.87-4,7.67-7.37c.79,3.48,2.78,7.67,7.66,7.37s7.57-5.38,7.37-10.46c-.3-4.49-2.89-9.67-6.27-14.46C51.88,190.87,48.1,184.78,48.1,184.78Z"/><path id="path19-3-8-2-9" class="cls-2" d="M14.35,37.86v-2.3h2.09V31.78H6v-2.7L17.33,11.64h1.9V29.08h3.18v2.7H19.23l-.1,3.78h1.79v2.3Zm2.09-19.94L9.27,29h7.17Z"/><path id="path19-4-46-0-1-9" class="cls-2" d="M164.37,211.8v2.29h-2.09v3.79h10.46v2.69L161.39,238H159.5V220.57h-3.19v-2.69h3.19l.1-3.79h-1.8V211.8Zm-2.09,19.93,7.17-11.06h-7.17Z"/></g></g></g></svg>