<svg xmlns="http://www.w3.org/2000/svg" viewBox="0 0 178.7 249.6"><defs><style>.cls-1{fill:#fff;stroke:#000;stroke-width:1px;}</style></defs><title>4s</title><g id="Layer_2" data-name="Layer 2"><g id="svg11376"><g id="_4s" data-name="4s"><g id="g8473-4-9"><path id="rect6852-0-4" class="cls-1" d="M9,.5H169.74A8.46,8.46,0,0,1,178.2,9V240.63a8.46,8.46,0,0,1-8.46,8.47H9A8.46,8.46,0,0,1,.5,240.63V9A8.46,8.46,0,0,1,9,.5Z"/><path id="path6882-1-0" d="M48.09,26.62C40.72,37.08,32.86,43.16,32.76,51.34c0,2.69,1.39,7.17,5.87,8,2.89.6,6.87-1.79,7-6.58,0-1,1-.89,1,.4a25.68,25.68,0,0,1-3.38,11.76h9.66a28.26,28.26,0,0,1-3.39-11.76c0-1.29,1-1.29,1-.4.1,4.79,4.08,7.18,7,6.58,4.47-.9,5.87-5.38,5.87-8,0-8.18-7.87-14.26-15.23-24.72Z"/><path id="path6884-6-5" d="M14.14,40.37C10.75,44.76,7.07,47.25,7,50.64A3.46,3.46,0,0,0,9.76,54,2.93,2.93,0,0,0,13,51.24c0-.4.5-.4.5.2A10.17,10.17,0,0,1,12,56.32h4.48a11.24,11.24,0,0,1-1.59-4.88c0-.5.49-.6.49-.2A2.89,2.89,0,0,0,18.62,54a3.39,3.39,0,0,0,2.79-3.39c-.1-3.39-3.79-5.88-7.27-10.27Z"/><path id="path6888-1-5" d="M164.56,209.33c-3.38-4.39-7.06-6.88-7.16-10.27a3.46,3.46,0,0,1,2.78-3.39,2.93,2.93,0,0,1,3.29,2.8c0,.39.5.39.5-.2a10.11,10.11,0,0,0-1.6-4.89h4.48a11.41,11.41,0,0,0-1.59,4.89c0,.49.5.59.5.2a2.89,2.89,0,0,1,3.29-2.8,3.39,3.39,0,0,1,2.78,3.39c-.2,3.39-3.88,5.88-7.27,10.27Z"/><path id="path6890-4-9" d="M130.62,26.62c-7.37,10.46-15.23,16.54-15.33,24.72,0,2.69,1.39,7.17,5.87,8,2.89.6,6.87-1.79,7-6.58,0-1,1-.89,1,.4a25.68,25.68,0,0,1-3.38,11.76h9.66A28.26,28.26,0,0,1,132,53.13c0-1.29,1-1.29,1-.4.1,4.79,4.08,7.18,7,6.58,4.48-.9,5.88-5.38,5.88-8-.1-8.18-8-14.26-15.23-24.72Z"/><path id="path6902-7-5" d="M48.09,223.09c-7.37-10.47-15.23-16.55-15.33-24.72,0-2.7,1.39-7.18,5.87-8,2.89-.6,6.87,1.8,7,6.58,0,1,1,.9,1-.4a25.72,25.72,0,0,0-3.38-11.76h9.66a28.3,28.3,0,0,0-3.39,11.76c0,1.3,1,1.3,1,.4.1-4.78,4.08-7.18,7-6.58,4.47.9,5.87,5.38,5.87,8,0,8.17-7.87,14.25-15.23,24.72Z"/><path id="path6904-9-7" d="M130.62,223.09c-7.37-10.47-15.23-16.55-15.33-24.72,0-2.7,1.39-7.18,5.87-8,2.89-.6,6.87,1.8,7,6.58,0,1,1,.9,1-.4a25.72,25.72,0,0,0-3.38-11.76h9.66A28.3,28.3,0,0,0,132,196.57c0,1.3,1,1.3,1,.4.1-4.78,4.08-7.18,7-6.58,4.48.9,5.88,5.38,5.88,8-.1,8.17-8,14.25-15.23,24.72Z"/><path id="path19-08-0-9" d="M14.34,37.88V35.59h2.09V31.8H6V29.11L17.32,11.66h1.9V29.11H22.4V31.8H19.22l-.1,3.79h1.79v2.29Zm2.09-19.94L9.26,29h7.17Z"/><path id="path19-08-1-1-4" d="M164.37,211.82v2.29h-2.09v3.79h10.45v2.69L161.38,238h-1.89V220.59H156.3V217.9h3.19l.1-3.79H157.8v-2.29Zm-2.09,19.94,7.16-11.07h-7.16Z"/></g></g></g></g></svg>