<svg xmlns="http://www.w3.org/2000/svg" viewBox="0 0 178.7 249.6"><defs><style>.cls-1{fill:#fff;stroke:#000;stroke-width:1px;}</style></defs><title>5c</title><g id="Layer_2" data-name="Layer 2"><g id="svg11376"><g id="_5c" data-name="5c"><g id="layer1-33-1-41-1-2-6"><path id="rect6355-6-85-3-7-9-4" class="cls-1" d="M9,.5H169.74A8.46,8.46,0,0,1,178.2,9V240.63a8.46,8.46,0,0,1-8.46,8.47H9A8.46,8.46,0,0,1,.5,240.63V9A8.46,8.46,0,0,1,9,.5Z"/></g><path id="path147-0-8-1-6-13-2-8-2-5" d="M130.63,26.86c-7.8.2-11.3,9-5.5,15.8.8,1,.9,1.6-.6.6-3.9-2.6-11.4-.9-11.8,7.1-.5,9.8,13.3,12.7,15.8,2.2.1-1.1,1-1.1.8.5a32.78,32.78,0,0,1-3.4,12.1h9.3a34.21,34.21,0,0,1-3.4-12.1c-.2-1.6.7-1.6.8-.5,2.6,10.4,16.31,7.6,15.81-2.2-.41-8-7.91-9.7-11.81-7.1-1.5,1-1.5.4-.6-.6,5.9-6.8,2.4-15.6-5.4-15.8Z"/><path id="path147-0-8-1-6-75-2-83-7-6-4" d="M48.13,26.86c-7.8.2-11.3,9-5.5,15.8.8,1,.9,1.6-.6.6-3.9-2.6-11.4-.9-11.8,7.1-.5,9.8,13.3,12.7,15.8,2.2.1-1.1,1-1.1.8.5a32.78,32.78,0,0,1-3.4,12.1h9.3a34.21,34.21,0,0,1-3.4-12.1c-.2-1.6.7-1.6.8-.5,2.6,10.4,16.31,7.6,15.81-2.2-.41-8-7.91-9.7-11.81-7.1-1.5,1-1.5.4-.6-.6,5.9-6.8,2.4-15.6-5.4-15.8Z"/><path id="path147-0-8-1-6-7-5-5-7-6-8-5" d="M130.63,223.36c-7.8-.2-11.3-9-5.5-15.8.8-1,.9-1.6-.6-.6-3.9,2.6-11.4.9-11.8-7.1-.5-9.8,13.3-12.7,15.8-2.2.1,1.1,1,1.1.8-.5a32.78,32.78,0,0,0-3.4-12.1h9.3a34.21,34.21,0,0,0-3.4,12.1c-.2,1.6.7,1.6.8.5,2.6-10.4,16.31-7.6,15.81,2.2-.41,8-7.91,9.7-11.81,7.1-1.5-1-1.5-.4-.6.6,5.9,6.9,2.4,15.7-5.4,15.8Z"/><path id="path147-0-8-1-6-75-6-1-2-4-9-5" d="M48.13,223.36c-7.8-.2-11.3-9-5.5-15.8.8-1,.9-1.6-.6-.6-3.9,2.6-11.4.9-11.8-7.1-.5-9.8,13.3-12.7,15.8-2.2.1,1.1,1,1.1.8-.5a32.78,32.78,0,0,0-3.4-12.1h9.3a34.21,34.21,0,0,0-3.4,12.1c-.2,1.6.7,1.6.8.5,2.6-10.4,16.31-7.6,15.81,2.2-.41,8-7.91,9.7-11.81,7.1-1.5-1-1.5-.4-.6.6,5.9,6.9,2.4,15.7-5.4,15.8Z"/><path id="path147-0-8-1-6-1-1-0-5-6-4-0" d="M89.33,106c-7.8.2-11.3,9-5.5,15.8.8,1,.9,1.6-.6.6-3.9-2.6-11.4-.9-11.8,7.1-.5,9.8,13.3,12.7,15.8,2.2.1-1.1,1-1.1.8.5a32.4,32.4,0,0,1-3.4,12.1h9.31a34.23,34.23,0,0,1-3.41-12.1c-.19-1.6.7-1.6.81-.5,2.6,10.4,16.3,7.6,15.8-2.2-.4-8-7.9-9.7-11.8-7.1-1.5,1-1.5.4-.6-.6,6-6.8,2.49-15.6-5.41-15.8Z"/><path id="path147-6-9-8-7-0-5-6-7-4-6" d="M164.53,209.26c3.1-.1,4.5-3.7,2.2-6.6-.3-.4-.4-.7.2-.3,1.6,1.1,4.6.4,4.7-2.9.2-4.1-5.3-5.3-6.3-.9-.1.5-.4.4-.3-.2a12.48,12.48,0,0,1,1.4-5h-3.7a15,15,0,0,1,1.4,5c.1.7-.3.7-.3.2-1-4.4-6.5-3.2-6.3.9.2,3.3,3.1,4,4.7,2.9.6-.4.6-.2.2.3-2.4,2.9-1,6.6,2.1,6.6Z"/><path id="path147-6-9-8-7-4-5-62-2-3-8" d="M14.23,40.36c-3.1.1-4.5,3.7-2.2,6.6.3.4.4.7-.2.3-1.6-1.1-4.6-.4-4.7,2.9-.19,4.1,5.31,5.3,6.31.9.09-.5.4-.4.3.2a12.48,12.48,0,0,1-1.4,5H16a15.21,15.21,0,0,1-1.4-5c-.1-.7.31-.7.31-.2,1,4.4,6.5,3.2,6.3-.9-.2-3.3-3.1-4-4.7-2.9-.6.4-.6.2-.2-.3,2.39-2.9,1-6.6-2.11-6.6Z"/><path id="path21-39-8-1" d="M5.93,31.06h2.6a5.54,5.54,0,0,0,3.1,3.7c4.2,1,6.9-1.4,7.7-4.1,1.1-3.3,0-8-2.9-9.7-2.4-1.4-5.9-.2-7.5,2.7l-1.8-1.1,1-11h11.8v2.6h-9.6l-.2,4.6a7.35,7.35,0,0,1,7.3-.4c3.9,1.9,5.7,6.2,4.9,11.3-1,5-3.4,7.9-8.6,8.3-5.8-.1-7.8-4.1-7.8-6.9Z"/><path id="path21-3-4-1-8" d="M172.83,218.56h-2.6a5.54,5.54,0,0,0-3.1-3.7c-4.19-1-6.9,1.4-7.69,4.1-1.1,3.3,0,8,2.9,9.7,2.4,1.4,5.9.2,7.5-2.7l1.8,1.1-1,11h-11.8v-2.6h9.6l.19-4.6a7.35,7.35,0,0,1-7.3.4c-3.9-1.9-5.7-6.2-4.9-11.3,1-5,3.4-7.9,8.6-8.3,5.8.1,7.8,4.1,7.8,6.9Z"/></g></g></g></svg>