<svg xmlns="http://www.w3.org/2000/svg" viewBox="0 0 178.7 249.6"><defs><style>.cls-1{fill:#fff;stroke:#000;stroke-width:1px;}.cls-2{fill:#d40000;}</style></defs><title>5d</title><g id="Layer_2" data-name="Layer 2"><g id="svg11376"><g id="_5d" data-name="5d"><path id="rect6690-8" class="cls-1" d="M9,.5H169.74A8.46,8.46,0,0,1,178.2,9V240.63a8.45,8.45,0,0,1-8.46,8.47H9A8.45,8.45,0,0,1,.5,240.63V9A8.46,8.46,0,0,1,9,.5Z"/><path id="path6722-9" class="cls-2" d="M14.24,56.32a41.61,41.61,0,0,0-5.78-8,42,42,0,0,0,5.78-8,41.94,41.94,0,0,0,5.77,8A38.67,38.67,0,0,0,14.24,56.32Z"/><path id="path6724-6" class="cls-2" d="M130.62,64.89a102.72,102.72,0,0,0-13.94-19.13c5.47-5.69,9.76-12.27,13.94-19.14,4.08,6.87,8.46,13.45,13.93,19.14C139.08,51.34,134.7,58,130.62,64.89Z"/><path id="path6726-3" class="cls-2" d="M164.56,209.33a41.56,41.56,0,0,0-5.77-8,41.94,41.94,0,0,0,5.77-8,42.43,42.43,0,0,0,5.78,8A39.08,39.08,0,0,0,164.56,209.33Z"/><path id="path6728-7" class="cls-2" d="M48.19,64.89C44.1,58,39.72,51.44,34.25,45.76,39.72,40.07,44,33.49,48.19,26.62c4.08,6.87,8.46,13.45,13.93,19.14C56.65,51.34,52.27,58,48.19,64.89Z"/><path id="path6736-0" class="cls-2" d="M89.4,143.94c-4.08-6.88-8.46-13.46-13.94-19.14,5.48-5.68,9.76-12.26,13.94-19.14,4.08,6.88,8.46,13.46,13.94,19.14C97.86,130.48,93.48,137.16,89.4,143.94Z"/><path id="path6744-9" class="cls-2" d="M48.19,223.09c-4.09-6.88-8.47-13.46-13.94-19.14,5.47-5.68,9.76-12.26,13.94-19.14,4.08,6.88,8.46,13.46,13.93,19.14C56.65,209.63,52.27,216.21,48.19,223.09Z"/><path id="path6746-2" class="cls-2" d="M130.62,223.09A102.46,102.46,0,0,0,116.68,204c5.47-5.68,9.76-12.26,13.94-19.14,4.08,6.88,8.46,13.46,13.93,19.14C139.08,209.63,134.7,216.31,130.62,223.09Z"/><path id="path21-9-8-2-7" class="cls-2" d="M5.88,31H8.46a5.54,5.54,0,0,0,3.09,3.69,6.21,6.21,0,0,0,7.77-4.09c1.09-3.29,0-8-2.89-9.67-2.39-1.39-5.87-.19-7.57,2.7l-1.79-1.1,1-11H19.81v2.6H10.26l-.2,4.58a7.32,7.32,0,0,1,7.26-.4c3.89,1.9,5.68,6.18,5,11.27-1.09,5.08-3.38,7.87-8.56,8.27C8,37.88,5.88,33.79,5.88,31Z"/><path id="path21-3-0-8-6" class="cls-2" d="M172.83,218.6h-2.59a5.54,5.54,0,0,0-3.09-3.69,6.21,6.21,0,0,0-7.76,4.09c-1.1,3.29,0,8,2.88,9.67,2.39,1.39,5.88.2,7.57-2.69l1.79,1.09-1,11H158.89v-2.59h9.56l.2-4.59a7.29,7.29,0,0,1-7.27.4c-3.88-1.89-5.68-6.18-5-11.26,1.1-5.09,3.39-7.88,8.56-8.28,5.88,0,7.87,4.09,7.87,6.88Z"/></g></g></g></svg>