<svg xmlns="http://www.w3.org/2000/svg" viewBox="0 0 178.7 249.6"><defs><style>.cls-1{fill:#fff;stroke:#000;stroke-width:1px;}.cls-2{fill:#d40000;}</style></defs><title>5h</title><g id="Layer_2" data-name="Layer 2"><g id="svg11376"><g id="_5h" data-name="5h"><g id="g9936-1-0"><path id="rect9938-9-5" class="cls-1" d="M9,.5H169.74A8.46,8.46,0,0,1,178.2,9V240.63a8.46,8.46,0,0,1-8.46,8.47H9A8.46,8.46,0,0,1,.5,240.63V9A8.46,8.46,0,0,1,9,.5Z"/></g><path id="path9970-5-6" class="cls-2" d="M14.2,56.3S12.41,53.71,10,50.71c-1.59-2-2.89-4.18-3-6.08-.1-2.09,1.2-4.28,3.49-4.38s3.28,1.59,3.68,3.09c.4-1.4,1.3-3.19,3.68-3.09s3.59,2.29,3.49,4.38c-.1,1.9-1.39,4-3,6.08C16,53.8,14.2,56.3,14.2,56.3Z"/><path id="path9972-9-9" class="cls-2" d="M164.53,193.36s-1.79,2.59-4.18,5.58c-1.6,2-2.89,4.19-3,6.08-.1,2.09,1.19,4.29,3.48,4.39s3.29-1.6,3.69-3.09c.4,1.39,1.29,3.19,3.68,3.09s3.58-2.3,3.49-4.39c-.1-1.89-1.4-4-3-6.08C166.32,195.85,164.53,193.36,164.53,193.36Z"/><path id="path9978-0-4" class="cls-2" d="M48.15,64.87s-3.68-6.08-8.76-13.26c-3.39-4.78-6.07-10-6.27-14.45-.3-5.09,2.39-10.27,7.36-10.47s6.87,4,7.67,7.38c.8-3.49,2.79-7.68,7.66-7.38s7.57,5.38,7.37,10.47c-.3,4.48-2.89,9.67-6.27,14.45C51.83,58.79,48.15,64.87,48.15,64.87Z"/><path id="path9984-9-5" class="cls-2" d="M130.58,64.87s-3.68-6.08-8.76-13.26c-3.39-4.78-6.07-10-6.27-14.45-.3-5.09,2.39-10.27,7.36-10.47s6.87,4,7.67,7.38c.8-3.49,2.79-7.68,7.67-7.38s7.56,5.38,7.36,10.47c-.3,4.48-2.88,9.67-6.27,14.45C134.36,58.79,130.58,64.87,130.58,64.87Z"/><path id="path9986-7-3" class="cls-2" d="M89.36,143.92s-3.68-6.08-8.76-13.26c-3.38-4.79-6.07-10-6.27-14.46-.3-5.08,2.39-10.26,7.37-10.46s6.87,4,7.66,7.37c.8-3.48,2.79-7.67,7.67-7.37s7.57,5.38,7.37,10.46c-.3,4.49-2.89,9.67-6.27,14.46C93.05,137.84,89.36,143.92,89.36,143.92Z"/><path id="path9998-0-9" class="cls-2" d="M130.58,184.78s-3.68,6.09-8.76,13.26c-3.39,4.79-6.07,10-6.27,14.46-.3,5.08,2.39,10.26,7.36,10.46s6.87-4,7.67-7.37c.8,3.48,2.79,7.67,7.67,7.37s7.56-5.38,7.36-10.46c-.3-4.49-2.88-9.67-6.27-14.46C134.36,190.87,130.58,184.78,130.58,184.78Z"/><path id="path10000-8-2" class="cls-2" d="M48.15,184.78s-3.68,6.09-8.76,13.26c-3.39,4.79-6.07,10-6.27,14.46-.3,5.08,2.39,10.26,7.36,10.46s6.87-4,7.67-7.37c.8,3.48,2.79,7.67,7.66,7.37s7.57-5.38,7.37-10.46c-.3-4.49-2.89-9.67-6.27-14.46C51.83,190.87,48.15,184.78,48.15,184.78Z"/><path id="path21-9-5-1-8" class="cls-2" d="M5.94,31.08H8.53a5.52,5.52,0,0,0,3.08,3.69,6.23,6.23,0,0,0,7.77-4.09c1.09-3.29,0-8-2.89-9.67-2.39-1.4-5.87-.2-7.56,2.69l-1.8-1.09,1-11H19.88v2.59H10.32l-.2,4.59a7.29,7.29,0,0,1,7.27-.4c3.88,1.89,5.67,6.18,5,11.26C21.27,34.77,19,37.56,13.8,38c-5.87-.1-8-4.09-7.86-6.88Z"/><path id="path21-3-0-6-3-8" class="cls-2" d="M172.79,218.58H170.2a5.53,5.53,0,0,0-3.08-3.69,6.21,6.21,0,0,0-7.77,4.09c-1.09,3.28,0,8,2.89,9.66,2.39,1.4,5.87.2,7.56-2.69l1.8,1.1-1,11H158.85v-2.59h9.56l.2-4.58a7.34,7.34,0,0,1-7.27.4c-3.88-1.9-5.67-6.18-5-11.27,1.1-5.08,3.39-7.87,8.57-8.27,5.87.1,8,4.09,7.86,6.88Z"/></g></g></g></svg>