<svg xmlns="http://www.w3.org/2000/svg" viewBox="0 0 178.71 249.6"><defs><style>.cls-1{fill:#fff;stroke:#000;stroke-width:1px;}</style></defs><title>5s</title><g id="Layer_2" data-name="Layer 2"><g id="svg11376"><g id="_5s" data-name="5s"><g id="g8459-0-4"><path id="rect6920-5-5" class="cls-1" d="M169.74,249.1H9A8.46,8.46,0,0,1,.5,240.63V9A8.46,8.46,0,0,1,9,.5H169.74A8.46,8.46,0,0,1,178.2,9V240.63A8.4,8.4,0,0,1,169.74,249.1Z"/><path id="path6950-9-9" d="M130.62,223c7.36-10.47,15.23-16.55,15.33-24.72,0-2.7-1.4-7.18-5.88-8-2.88-.6-6.86,1.8-7,6.58,0,1-1,.9-1-.4a25.61,25.61,0,0,1,3.39-11.76h-9.66a28.43,28.43,0,0,1,3.38,11.76c0,1.3-1,1.3-1,.4-.1-4.78-4.08-7.18-7-6.58-4.48.9-5.87,5.38-5.87,8,0,8.17,7.86,14.25,15.23,24.72Z"/><path id="path6952-6-0" d="M164.56,209.23c3.39-4.39,7.07-6.88,7.17-10.27a3.46,3.46,0,0,0-2.78-3.39,2.94,2.94,0,0,0-3.29,2.8c0,.39-.5.39-.5-.2a10.2,10.2,0,0,1,1.59-4.89h-4.47a11.41,11.41,0,0,1,1.59,4.89c0,.49-.5.59-.5.2a2.89,2.89,0,0,0-3.29-2.8A3.39,3.39,0,0,0,157.3,199c.2,3.39,3.88,5.88,7.26,10.27Z"/><path id="path6956-5-0" d="M14.24,40.27c3.38,4.39,7.07,6.88,7.17,10.27a3.46,3.46,0,0,1-2.79,3.39,2.94,2.94,0,0,1-3.29-2.79c0-.4-.49-.4-.49.2a10.06,10.06,0,0,0,1.59,4.88H12a11.37,11.37,0,0,0,1.59-4.88c0-.5-.5-.6-.5-.2a2.88,2.88,0,0,1-3.28,2.79A3.39,3.39,0,0,1,7,50.54c.1-3.39,3.78-5.88,7.27-10.27Z"/><path id="path6958-4-1" d="M48.19,223c7.36-10.47,15.23-16.55,15.33-24.72,0-2.7-1.4-7.18-5.88-8-2.88-.6-6.86,1.8-7,6.58,0,1-1,.9-1-.4a25.72,25.72,0,0,1,3.38-11.76H43.41a28.43,28.43,0,0,1,3.38,11.76c0,1.3-1,1.3-1,.4-.1-4.78-4.08-7.18-7-6.58-4.48.9-5.88,5.38-5.88,8,0,8.17,7.87,14.25,15.24,24.72Z"/><path id="path6970-5-5" d="M130.62,26.52C138,37,145.85,43.06,146,51.24c0,2.69-1.4,7.17-5.88,8-2.88.6-6.86-1.79-7-6.58,0-1-1-.89-1,.4a25.58,25.58,0,0,0,3.39,11.76h-9.66A28.39,28.39,0,0,0,129.22,53c0-1.29-1-1.29-1-.4-.1,4.79-4.08,7.18-7,6.58-4.48-.9-5.87-5.38-5.87-8,0-8.18,7.86-14.26,15.23-24.72Z"/><path id="path6972-5-8" d="M48.19,26.52C55.55,37,63.42,43.06,63.52,51.24c0,2.69-1.4,7.17-5.88,8-2.88.6-6.86-1.79-7-6.58,0-1-1-.89-1,.4a25.68,25.68,0,0,0,3.38,11.76H43.41A28.39,28.39,0,0,0,46.79,53c0-1.29-1-1.29-1-.4-.1,4.79-4.08,7.18-7,6.58-4.48-.9-5.88-5.38-5.88-8C33,43.06,40.82,37,48.19,26.52Z"/><path id="path6980-6-3" d="M89.4,143.94c7.37-10.47,15.23-16.55,15.33-24.72,0-2.69-1.39-7.18-5.87-8-2.89-.59-6.87,1.8-7,6.58,0,1-1,.9-1-.39a25.64,25.64,0,0,1,3.38-11.77H84.62A28.49,28.49,0,0,1,88,117.43c0,1.29-1,1.29-1,.39-.1-4.78-4.08-7.17-7-6.58-4.48.9-5.87,5.39-5.87,8,0,8.17,7.86,14.15,15.23,24.72Z"/><path id="path21-4-5-5" d="M172.83,218.5h-2.59a5.54,5.54,0,0,0-3.09-3.69,6.21,6.21,0,0,0-7.76,4.09c-1.1,3.29,0,8,2.89,9.67,2.38,1.39,5.87.2,7.56-2.69l1.79,1.09-1,11H158.89v-2.59h9.56l.2-4.59a7.29,7.29,0,0,1-7.27.4c-3.88-1.89-5.68-6.18-5-11.26,1.1-5.09,3.39-7.88,8.56-8.28,5.88.1,7.87,4.09,7.87,6.88Z"/><path id="path21-4-9-2-8" d="M5.88,31H8.46a5.54,5.54,0,0,0,3.09,3.69,6.22,6.22,0,0,0,7.77-4.09c1.09-3.29,0-8-2.89-9.67-2.39-1.39-5.87-.19-7.57,2.7l-1.79-1.1,1-11H19.81v2.6H10.26l-.2,4.58a7.34,7.34,0,0,1,7.27-.4c3.88,1.9,5.67,6.18,5,11.27-1.09,5.08-3.38,7.87-8.56,8.27C8,37.88,5.88,33.79,5.88,31Z"/></g></g></g></g></svg>