<svg xmlns="http://www.w3.org/2000/svg" viewBox="0 0 178.8 249.6"><defs><style>.cls-1{fill:#fff;stroke:#000;stroke-width:1px;}</style></defs><title>6c</title><g id="Layer_2" data-name="Layer 2"><g id="svg11376"><g id="_6c" data-name="6c"><path id="rect6355-6-85-3-2-3-6" class="cls-1" d="M9,.5H169.8A8.49,8.49,0,0,1,178.3,9V240.6a8.49,8.49,0,0,1-8.5,8.5H9a8.49,8.49,0,0,1-8.5-8.5V9A8.49,8.49,0,0,1,9,.5Z"/><path id="path147-0-8-1-6-13-2-5-7-1" d="M130.6,26.9c-7.8.2-11.3,9-5.5,15.8.8,1,.9,1.6-.6.6-3.9-2.6-11.4-.9-11.8,7.1-.5,9.8,13.3,12.7,15.8,2.2.1-1.1,1-1.1.8.5a32.78,32.78,0,0,1-3.4,12.1h9.3a34.21,34.21,0,0,1-3.4-12.1c-.2-1.6.7-1.6.8-.5,2.6,10.4,16.3,7.6,15.8-2.2-.4-8-7.9-9.7-11.8-7.1-1.5,1-1.5.4-.6-.6,6-6.8,2.5-15.6-5.4-15.8Z"/><path id="path147-0-8-1-6-75-2-83-8-8-7" d="M48.2,26.9c-7.8.2-11.3,9-5.5,15.8.8,1,.9,1.6-.6.6-3.9-2.6-11.4-.9-11.8,7.1-.5,9.8,13.3,12.7,15.8,2.2.1-1.1,1-1.1.8.5a32.78,32.78,0,0,1-3.4,12.1h9.3a34.21,34.21,0,0,1-3.4-12.1c-.2-1.6.7-1.6.8-.5C52.8,63,66.5,60.2,66,50.4c-.4-8-7.9-9.7-11.8-7.1-1.5,1-1.5.4-.6-.6,5.9-6.8,2.4-15.6-5.4-15.8Z"/><path id="path147-0-8-1-6-7-5-5-7-8-7-8" d="M130.6,223.4c-7.8-.2-11.3-9-5.5-15.8.8-1,.9-1.6-.6-.6-3.9,2.6-11.4.9-11.8-7.1-.5-9.8,13.3-12.7,15.8-2.2.1,1.1,1,1.1.8-.5a32.78,32.78,0,0,0-3.4-12.1h9.3a34.21,34.21,0,0,0-3.4,12.1c-.2,1.6.7,1.6.8.5,2.6-10.4,16.3-7.6,15.8,2.2-.4,8-7.9,9.7-11.8,7.1-1.5-1-1.5-.4-.6.6,6,6.9,2.5,15.7-5.4,15.8Z"/><path id="path147-0-8-1-6-75-6-1-2-0-6-8" d="M48.2,223.4c-7.8-.2-11.3-9-5.5-15.8.8-1,.9-1.6-.6-.6-3.9,2.6-11.4.9-11.8-7.1-.5-9.8,13.3-12.7,15.8-2.2.1,1.1,1,1.1.8-.5a32.78,32.78,0,0,0-3.4-12.1h9.3a34.21,34.21,0,0,0-3.4,12.1c-.2,1.6.7,1.6.8.5,2.6-10.4,16.3-7.6,15.8,2.2-.4,8-7.9,9.7-11.8,7.1-1.5-1-1.5-.4-.6.6,5.9,6.9,2.4,15.7-5.4,15.8Z"/><path id="path147-0-8-1-6-7-5-7-3-0-9-6-4" d="M130.6,106c-7.8.2-11.3,9-5.5,15.8.8,1,.9,1.6-.6.6-3.9-2.6-11.4-.9-11.8,7.1-.5,9.8,13.3,12.7,15.8,2.2.1-1.1,1-1.1.8.5a32.78,32.78,0,0,1-3.4,12.1h9.3a34.21,34.21,0,0,1-3.4-12.1c-.2-1.6.7-1.6.8-.5,2.6,10.4,16.3,7.6,15.8-2.2-.4-8-7.9-9.7-11.8-7.1-1.5,1-1.5.4-.6-.6,6-6.8,2.5-15.6-5.4-15.8Z"/><path id="path147-0-8-1-6-75-6-6-5-3-0-0-2" d="M48.2,106c-7.8.2-11.3,9-5.5,15.8.8,1,.9,1.6-.6.6-3.9-2.6-11.4-.9-11.8,7.1-.5,9.8,13.3,12.7,15.8,2.2.1-1.1,1-1.1.8.5a32.78,32.78,0,0,1-3.4,12.1h9.3a34.21,34.21,0,0,1-3.4-12.1c-.2-1.6.7-1.6.8-.5,2.6,10.4,16.3,7.6,15.8-2.2-.4-8-7.9-9.7-11.8-7.1-1.5,1-1.5.4-.6-.6,5.9-6.8,2.4-15.6-5.4-15.8Z"/><path id="path147-6-9-8-7-0-5-6-4-2-8" d="M164.6,209.3c3.1-.1,4.5-3.7,2.2-6.6-.3-.4-.4-.7.2-.3,1.6,1.1,4.6.4,4.7-2.9.2-4.1-5.3-5.3-6.3-.9-.1.5-.4.4-.3-.2a12.48,12.48,0,0,1,1.4-5h-3.7a15,15,0,0,1,1.4,5c.1.7-.3.7-.3.2-1-4.4-6.5-3.2-6.3.9.2,3.3,3.1,4,4.7,2.9.6-.4.6-.2.2.3-2.4,2.9-1,6.5,2.1,6.6Z"/><path id="path147-6-9-8-7-4-5-62-0-2-9" d="M14.2,40.4c-3.1.1-4.5,3.7-2.2,6.6.3.4.4.7-.2.3-1.6-1.1-4.6-.4-4.7,2.9-.2,4.1,5.3,5.3,6.3.9.1-.5.4-.4.3.2a12.48,12.48,0,0,1-1.4,5H16a15,15,0,0,1-1.4-5c-.1-.7.3-.7.3-.2,1,4.4,6.5,3.2,6.3-.9-.2-3.3-3.1-4-4.7-2.9-.6.4-.6.2-.2-.3,2.5-2.9,1.1-6.6-2.1-6.6Z"/><path id="path23-8-1-4" d="M6.5,29.8a62.09,62.09,0,0,1-.1-9.6c.8-5.2,2.8-7.6,6.1-8.3s7.7.1,8.7,4.4l-2.7.1c-1.5-2.9-5.1-2.1-7.2-.9-1.7,1-2.4,5.3-2.1,5.5,0,0,3.1-2.3,5.6-2.2,5.3.6,7.5,5.1,7.3,9.5-.2,5.2-1.8,9.4-7.4,9.6-5.2-.2-7.7-3.1-8.2-8.1Zm13.1-1.4c0-3.6-1.6-6.3-4.7-6.6s-6.2,2.7-6,6.4S10.5,35,14.3,35c4.1,0,5.3-4,5.3-6.6Z"/><path id="path23-6-8-9-6" d="M172.3,219.9a62.09,62.09,0,0,1,.1,9.6c-.8,5.2-2.8,7.6-6.1,8.3s-7.7-.1-8.7-4.4l2.7-.1c1.5,2.9,5.1,2.1,7.2.9,1.7-1,2.4-5.3,2.1-5.5,0,0-3.1,2.3-5.6,2.2-5.3-.6-7.5-5.1-7.3-9.5.2-5.2,1.8-9.4,7.4-9.6,5.3.2,7.7,3.1,8.2,8.1Zm-13.1,1.4c0,3.6,1.6,6.3,4.7,6.6s6.2-2.7,6-6.4-1.6-6.8-5.4-6.8c-4,0-5.3,4-5.3,6.6Z"/></g></g></g></svg>