<svg xmlns="http://www.w3.org/2000/svg" viewBox="0 0 178.71 249.6"><defs><style>.cls-1{fill:#fff;stroke:#000;stroke-width:1px;}.cls-2{fill:#d40000;}</style></defs><title>6d</title><g id="Layer_2" data-name="Layer 2"><g id="svg11376"><g id="_6d" data-name="6d"><path id="rect6758-6" class="cls-1" d="M9,.5H169.74A8.47,8.47,0,0,1,178.21,9V240.63a8.46,8.46,0,0,1-8.47,8.47H9A8.46,8.46,0,0,1,.5,240.63V9A8.4,8.4,0,0,1,9,.5Z"/><path id="path6790-5" class="cls-2" d="M14.14,56.32a41.56,41.56,0,0,0-5.77-8,41.94,41.94,0,0,0,5.77-8,42,42,0,0,0,5.78,8A38.71,38.71,0,0,0,14.14,56.32Z"/><path id="path6792-5" class="cls-2" d="M130.52,64.89c-4.08-6.87-8.46-13.45-13.94-19.13,5.48-5.69,9.76-12.27,13.94-19.14,4.08,6.87,8.46,13.45,13.94,19.14C139,51.34,134.7,58,130.52,64.89Z"/><path id="path6794-1" class="cls-2" d="M164.47,209.33a42,42,0,0,0-5.78-8,42.43,42.43,0,0,0,5.78-8,41.94,41.94,0,0,0,5.77,8A47.86,47.86,0,0,0,164.47,209.33Z"/><path id="path6796-2" class="cls-2" d="M48.09,64.89C44,58,39.63,51.44,34.15,45.76c5.48-5.69,9.76-12.27,13.94-19.14C52.17,33.49,56.55,40.07,62,45.76,56.55,51.34,52.27,58,48.09,64.89Z"/><path id="path6806-6" class="cls-2" d="M48.09,143.94c-4.08-6.88-8.46-13.46-13.94-19.14,5.48-5.68,9.76-12.26,13.94-19.14,4.08,6.88,8.46,13.46,13.94,19.14C56.55,130.48,52.27,137.06,48.09,143.94Z"/><path id="path6808-6" class="cls-2" d="M130.52,143.94c-4.08-6.88-8.46-13.46-13.94-19.14,5.48-5.68,9.76-12.26,13.94-19.14,4.08,6.88,8.46,13.46,13.94,19.14C139,130.48,134.7,137.16,130.52,143.94Z"/><path id="path6812-0" class="cls-2" d="M48.09,223.09C44,216.21,39.63,209.63,34.15,204c5.48-5.68,9.76-12.26,13.94-19.14C52.17,191.69,56.55,198.27,62,204,56.55,209.63,52.27,216.21,48.09,223.09Z"/><path id="path6814-4" class="cls-2" d="M130.52,223.09c-4.08-6.88-8.46-13.46-13.94-19.14,5.48-5.68,9.76-12.26,13.94-19.14,4.08,6.88,8.46,13.46,13.94,19.14C139,209.63,134.7,216.31,130.52,223.09Z"/><path id="path23-5-3-5-5" class="cls-2" d="M6.38,29.71A63,63,0,0,1,6.28,20c.79-5.19,2.78-7.58,6.07-8.38s7.76.1,8.76,4.39l-2.69.1c-1.49-2.89-5.17-2.19-7.17-.9-1.69,1-2.39,5.29-2.09,5.49,0,0,3.09-2.3,5.58-2.2C20,19.14,22.21,23.63,22,28c-.2,5.19-1.8,9.37-7.37,9.67-5.28,0-7.67-2.89-8.26-8Zm13.14-1.3c0-3.59-1.6-6.28-4.68-6.58s-6.17,2.69-6,6.38S10.56,35,14.24,35c4,0,5.28-4.09,5.28-6.58Z"/><path id="path23-6-5-6-6" class="cls-2" d="M172.23,219.9a63,63,0,0,1,.1,9.67c-.8,5.18-2.79,7.57-6.07,8.37s-7.77-.1-8.76-4.39l2.69-.1c1.49,2.89,5.17,2.2,7.16.9,1.7-1,2.39-5.28,2.09-5.48,0,0-3.08,2.29-5.57,2.19-5.28-.6-7.47-5.08-7.27-9.47.2-5.18,1.79-9.37,7.37-9.67,5.28.1,7.76,3,8.26,8Zm-13.14,1.39c0,3.59,1.59,6.28,4.68,6.58s6.17-2.69,6-6.38-1.69-6.78-5.37-6.78c-4,0-5.28,4-5.28,6.58Z"/></g></g></g></svg>