<svg xmlns="http://www.w3.org/2000/svg" viewBox="0 0 178.7 249.6"><defs><style>.cls-1{fill:#fff;stroke:#000;stroke-width:1px;}.cls-2{fill:#d40000;}</style></defs><title>6h</title><g id="Layer_2" data-name="Layer 2"><g id="svg11376"><g id="_6h" data-name="6h"><g id="g10004-9-9"><path id="rect10006-6-1" class="cls-1" d="M9,.5H169.74A8.46,8.46,0,0,1,178.2,9V240.63a8.46,8.46,0,0,1-8.46,8.47H9A8.46,8.46,0,0,1,.5,240.63V9A8.46,8.46,0,0,1,9,.5Z"/></g><path id="path10038-5-0" class="cls-2" d="M14.26,56.3s-1.8-2.59-4.19-5.59c-1.59-2-2.88-4.18-3-6.08-.1-2.09,1.19-4.28,3.48-4.38s3.29,1.59,3.69,3.09c.39-1.4,1.29-3.19,3.68-3.09s3.58,2.29,3.48,4.38c-.1,1.9-1.39,4-3,6.08C16,53.8,14.26,56.3,14.26,56.3Z"/><path id="path10040-7-6" class="cls-2" d="M164.58,193.36s-1.79,2.59-4.18,5.58c-1.59,2-2.89,4.19-3,6.08-.1,2.09,1.2,4.29,3.49,4.39s3.28-1.6,3.68-3.09c.4,1.39,1.3,3.19,3.68,3.09s3.59-2.3,3.49-4.39c-.1-1.89-1.39-4-3-6.08C166.37,195.85,164.58,193.36,164.58,193.36Z"/><path id="path10046-1-1" class="cls-2" d="M48.2,64.87s-3.68-6.08-8.76-13.26c-3.38-4.78-6.07-10-6.27-14.45-.3-5.09,2.39-10.27,7.37-10.47s6.87,4,7.66,7.38c.8-3.49,2.79-7.68,7.67-7.38s7.56,5.38,7.37,10.47c-.3,4.48-2.89,9.67-6.28,14.45C51.89,58.79,48.2,64.87,48.2,64.87Z"/><path id="path10048-2-0" class="cls-2" d="M130.63,143.92s-3.68-6.08-8.76-13.26c-3.38-4.79-6.07-10-6.27-14.46-.3-5.08,2.39-10.26,7.37-10.46s6.87,4,7.66,7.37c.8-3.48,2.79-7.67,7.67-7.37s7.56,5.38,7.37,10.46c-.3,4.49-2.89,9.67-6.28,14.46C134.32,137.84,130.63,143.92,130.63,143.92Z"/><path id="path10052-3-1" class="cls-2" d="M130.63,64.87s-3.68-6.08-8.76-13.26c-3.38-4.78-6.07-10-6.27-14.45-.3-5.09,2.39-10.27,7.37-10.47s6.87,4,7.66,7.38c.8-3.49,2.79-7.68,7.67-7.38s7.56,5.38,7.37,10.47c-.3,4.48-2.89,9.67-6.28,14.45C134.32,58.79,130.63,64.87,130.63,64.87Z"/><path id="path10056-4-2" class="cls-2" d="M48.2,143.92s-3.68-6.08-8.76-13.26c-3.38-4.79-6.07-10-6.27-14.46-.3-5.08,2.39-10.26,7.37-10.46s6.87,4,7.66,7.37c.8-3.48,2.79-7.67,7.67-7.37s7.56,5.38,7.37,10.46c-.3,4.49-2.89,9.67-6.28,14.46C51.89,137.84,48.2,143.92,48.2,143.92Z"/><path id="path10066-9-2" class="cls-2" d="M130.63,184.78S127,190.87,121.87,198c-3.38,4.79-6.07,10-6.27,14.46-.3,5.08,2.39,10.26,7.37,10.46s6.87-4,7.66-7.37c.8,3.48,2.79,7.67,7.67,7.37s7.56-5.38,7.37-10.46c-.3-4.49-2.89-9.67-6.28-14.46C134.32,190.87,130.63,184.78,130.63,184.78Z"/><path id="path10068-1-2" class="cls-2" d="M48.2,184.78s-3.68,6.09-8.76,13.26c-3.38,4.79-6.07,10-6.27,14.46-.3,5.08,2.39,10.26,7.37,10.46s6.87-4,7.66-7.37c.8,3.48,2.79,7.67,7.67,7.37s7.56-5.38,7.37-10.46C62.94,208,60.35,202.83,57,198,51.89,190.87,48.2,184.78,48.2,184.78Z"/><path id="path23-5-2-7-3" class="cls-2" d="M6.49,29.78a63,63,0,0,1-.1-9.67c.8-5.18,2.79-7.57,6.07-8.37s7.77.1,8.76,4.39l-2.68.1c-1.5-2.9-5.18-2.2-7.17-.9-1.69,1-2.39,5.28-2.09,5.48,0,0,3.08-2.29,5.57-2.19,5.28.6,7.47,5.08,7.27,9.47-.2,5.18-1.79,9.37-7.37,9.67-5.27-.1-7.76-3-8.26-8Zm13.14-1.39c0-3.59-1.59-6.28-4.68-6.58S8.78,24.5,9,28.19,10.67,35,14.35,35c4,0,5.28-4,5.28-6.58Z"/><path id="path23-6-5-1-7-1" class="cls-2" d="M172.25,219.87a63,63,0,0,1,.1,9.67c-.8,5.18-2.79,7.58-6.08,8.37s-7.76-.1-8.76-4.38l2.69-.1c1.49,2.89,5.18,2.19,7.17.9,1.69-1,2.39-5.29,2.09-5.49,0,0-3.09,2.3-5.58,2.2-5.27-.6-7.46-5.09-7.26-9.47.2-5.19,1.79-9.37,7.36-9.67,5.38.1,7.77,3,8.27,8Zm-13,1.4c0,3.59,1.59,6.28,4.67,6.58s6.18-2.69,6-6.38-1.69-6.78-5.38-6.78c-4,0-5.27,4-5.27,6.58Z"/></g></g></g></svg>