<svg xmlns="http://www.w3.org/2000/svg" viewBox="0 0 178.7 249.6"><defs><style>.cls-1{fill:#fff;stroke:#000;stroke-width:1px;}</style></defs><title>6s</title><g id="Layer_2" data-name="Layer 2"><g id="svg11376"><g id="_6s" data-name="6s"><path id="rect6988-1-0" class="cls-1" d="M9,.5H169.74A8.46,8.46,0,0,1,178.2,9V240.63a8.46,8.46,0,0,1-8.46,8.47H9A8.46,8.46,0,0,1,.5,240.63V9A8.46,8.46,0,0,1,9,.5Z"/><path id="path7018-7-4" d="M48.19,26.62C40.82,37.08,33,43.16,32.86,51.34c0,2.69,1.39,7.17,5.87,8,2.89.6,6.87-1.79,7-6.58,0-1,1-.89,1,.4a25.68,25.68,0,0,1-3.38,11.76H53a28.26,28.26,0,0,1-3.39-11.76c0-1.29,1-1.29,1-.4.1,4.79,4.08,7.18,7,6.58,4.48-.9,5.88-5.38,5.88-8,0-8.18-7.87-14.26-15.23-24.72Z"/><path id="path7020-0-8" d="M14.24,40.37c-3.39,4.39-7.07,6.88-7.17,10.27A3.46,3.46,0,0,0,9.86,54a2.93,2.93,0,0,0,3.28-2.79c0-.4.5-.4.5.2a10.17,10.17,0,0,1-1.59,4.88h4.48a11.24,11.24,0,0,1-1.59-4.88c0-.5.49-.6.49-.2A2.89,2.89,0,0,0,18.72,54a3.39,3.39,0,0,0,2.79-3.39c-.2-3.39-3.89-5.88-7.27-10.27Z"/><path id="path7024-7-1" d="M164.56,209.33c-3.38-4.39-7.06-6.88-7.16-10.27a3.46,3.46,0,0,1,2.78-3.39,2.93,2.93,0,0,1,3.29,2.8c0,.39.5.39.5-.2a10.11,10.11,0,0,0-1.6-4.89h4.48a11.41,11.41,0,0,0-1.59,4.89c0,.49.5.59.5.2a2.89,2.89,0,0,1,3.29-2.8,3.39,3.39,0,0,1,2.78,3.39c-.1,3.39-3.78,5.88-7.27,10.27Z"/><path id="path7026-2-6" d="M130.62,26.62c-7.37,10.46-15.23,16.54-15.33,24.72,0,2.69,1.39,7.17,5.87,8,2.89.6,6.87-1.79,7-6.58,0-1,1-.89,1,.4a25.68,25.68,0,0,1-3.38,11.76h9.66A28.26,28.26,0,0,1,132,53.13c0-1.29,1-1.29,1-.4.1,4.79,4.08,7.18,7,6.58,4.48-.9,5.88-5.38,5.88-8C145.85,43.16,138,37.08,130.62,26.62Z"/><path id="path7036-9-6" d="M48.19,105.76C40.82,116.23,33,122.31,32.86,130.48c0,2.69,1.39,7.18,5.87,8,2.89.6,6.87-1.8,7-6.58,0-1,1-.9,1,.4A25.72,25.72,0,0,1,43.31,144H53a28.3,28.3,0,0,1-3.39-11.76c0-1.3,1-1.3,1-.4.1,4.78,4.08,7.18,7,6.58,4.48-.9,5.88-5.39,5.88-8,0-8.27-7.87-14.25-15.23-24.72Z"/><path id="path7038-9-6" d="M48.19,223.09C40.82,212.62,33,206.54,32.86,198.37c0-2.7,1.39-7.18,5.87-8,2.89-.6,6.87,1.8,7,6.58,0,1,1,.9,1-.4a25.72,25.72,0,0,0-3.38-11.76H53a28.3,28.3,0,0,0-3.39,11.76c0,1.3,1,1.3,1,.4.1-4.78,4.08-7.18,7-6.58,4.48.9,5.88,5.38,5.88,8,0,8.17-7.87,14.25-15.23,24.72Z"/><path id="path7040-0-9" d="M130.62,223.09c-7.37-10.47-15.23-16.55-15.33-24.72,0-2.7,1.39-7.18,5.87-8,2.89-.6,6.87,1.8,7,6.58,0,1,1,.9,1-.4a25.72,25.72,0,0,0-3.38-11.76h9.66A28.3,28.3,0,0,0,132,196.57c0,1.3,1,1.3,1,.4.1-4.78,4.08-7.18,7-6.58,4.48.9,5.88,5.38,5.88,8,0,8.17-7.87,14.25-15.23,24.72Z"/><path id="path7050-2-9" d="M130.62,105.76c-7.37,10.47-15.23,16.55-15.33,24.72,0,2.69,1.39,7.18,5.87,8,2.89.6,6.87-1.8,7-6.58,0-1,1-.9,1,.4A25.72,25.72,0,0,1,125.74,144h9.66A28.3,28.3,0,0,1,132,132.28c0-1.3,1-1.3,1-.4.1,4.78,4.08,7.18,7,6.58,4.48-.9,5.88-5.39,5.88-8C145.85,122.21,138,116.23,130.62,105.76Z"/><path id="path23-1-9-8" d="M6.47,29.81a63,63,0,0,1-.1-9.67c.8-5.19,2.79-7.58,6.08-8.38s7.76.1,8.76,4.39l-2.69.1c-1.49-2.89-5.18-2.19-7.17-.9-1.69,1-2.39,5.29-2.09,5.49,0,0,3.09-2.3,5.58-2.2,5.27.6,7.46,5.09,7.26,9.47-.2,5.19-1.79,9.37-7.36,9.67-5.28-.1-7.77-3-8.27-8Zm13.14-1.4c0-3.59-1.59-6.28-4.67-6.58s-6.18,2.69-6,6.38S10.65,35,14.34,35c4,0,5.27-4,5.27-6.58Z"/><path id="path23-1-5-6-4" d="M172.33,219.9a63,63,0,0,1,.1,9.67c-.8,5.18-2.79,7.57-6.07,8.37s-7.77-.1-8.76-4.39l2.68-.1c1.5,2.89,5.18,2.2,7.17.9,1.69-1,2.39-5.28,2.09-5.48,0,0-3.08,2.29-5.57,2.19-5.28-.6-7.47-5.08-7.27-9.47.2-5.18,1.79-9.37,7.37-9.67,5.27.1,7.76,3,8.26,8Zm-13.14,1.39c0,3.59,1.59,6.28,4.68,6.58s6.17-2.69,6-6.38-1.69-6.78-5.37-6.78c-4,0-5.28,4-5.28,6.58Z"/></g></g></g></svg>