<svg xmlns="http://www.w3.org/2000/svg" viewBox="0 0 178.8 249.6"><defs><style>.cls-1{fill:#fff;stroke:#000;stroke-width:1px;}</style></defs><title>7c</title><g id="Layer_2" data-name="Layer 2"><g id="svg11376"><g id="_7c" data-name="7c"><path id="rect6355-6-85-3-1-8-1" class="cls-1" d="M9,.5H169.8A8.49,8.49,0,0,1,178.3,9V240.6a8.49,8.49,0,0,1-8.5,8.5H9a8.49,8.49,0,0,1-8.5-8.5V9A8.49,8.49,0,0,1,9,.5Z"/><path id="path147-0-8-1-6-13-2-0-1-5" d="M130.6,26.9c-7.8.2-11.3,9-5.5,15.8.8,1,.9,1.6-.6.6-3.9-2.6-11.4-.9-11.8,7.1-.5,9.8,13.3,12.7,15.8,2.2.1-1.1,1-1.1.8.5a32.78,32.78,0,0,1-3.4,12.1h9.3a34.21,34.21,0,0,1-3.4-12.1c-.2-1.6.7-1.6.8-.5,2.6,10.4,16.3,7.6,15.8-2.2-.4-8-7.9-9.7-11.8-7.1-1.5,1-1.5.4-.6-.6,6-6.8,2.4-15.6-5.4-15.8Z"/><path id="path147-0-8-1-6-75-2-83-2-0-7" d="M48.2,26.9c-7.8.2-11.3,9-5.5,15.8.8,1,.9,1.6-.6.6-3.9-2.6-11.4-.9-11.8,7.1-.5,9.8,13.3,12.7,15.8,2.2.1-1.1,1-1.1.8.5a32.78,32.78,0,0,1-3.4,12.1h9.3a34.21,34.21,0,0,1-3.4-12.1c-.2-1.6.7-1.6.8-.5C52.8,63,66.5,60.2,66,50.4c-.4-8-7.9-9.7-11.8-7.1-1.5,1-1.5.4-.6-.6,5.9-6.8,2.4-15.6-5.4-15.8Z"/><path id="path147-0-8-1-6-7-5-5-7-7-7-6" d="M130.6,223.4c-7.8-.2-11.3-9-5.5-15.8.8-1,.9-1.6-.6-.6-3.9,2.6-11.4.9-11.8-7.1-.5-9.8,13.3-12.7,15.8-2.2.1,1.1,1,1.1.8-.5a32.78,32.78,0,0,0-3.4-12.1h9.3a34.21,34.21,0,0,0-3.4,12.1c-.2,1.6.7,1.6.8.5,2.6-10.4,16.3-7.6,15.8,2.2-.4,8-7.9,9.7-11.8,7.1-1.5-1-1.5-.4-.6.6,6,6.9,2.4,15.7-5.4,15.8Z"/><path id="path147-0-8-1-6-75-6-1-2-9-1-9" d="M48.2,223.4c-7.8-.2-11.3-9-5.5-15.8.8-1,.9-1.6-.6-.6-3.9,2.6-11.4.9-11.8-7.1-.5-9.8,13.3-12.7,15.8-2.2.1,1.1,1,1.1.8-.5a32.78,32.78,0,0,0-3.4-12.1h9.3a34.21,34.21,0,0,0-3.4,12.1c-.2,1.6.7,1.6.8.5,2.6-10.4,16.3-7.6,15.8,2.2-.4,8-7.9,9.7-11.8,7.1-1.5-1-1.5-.4-.6.6,5.9,6.9,2.4,15.7-5.4,15.8Z"/><path id="path147-0-8-1-6-2-00-7-2-3-4" d="M89.4,66.5c-7.8.2-11.3,9-5.5,15.8.8,1,.9,1.6-.6.6C79.4,80.3,71.9,82,71.5,90c-.5,9.8,13.3,12.7,15.8,2.2.1-1.1,1-1.1.8.5a32.78,32.78,0,0,1-3.4,12.1H94a34.21,34.21,0,0,1-3.4-12.1c-.2-1.6.7-1.6.8-.5,2.6,10.4,16.3,7.6,15.8-2.2-.4-8-7.9-9.7-11.8-7.1-1.5,1-1.5.4-.6-.6,5.9-6.8,2.4-15.7-5.4-15.8Z"/><path id="path147-0-8-1-6-7-5-7-3-0-1-7-4" d="M130.6,106c-7.8.2-11.3,9-5.5,15.8.8,1,.9,1.6-.6.6-3.9-2.6-11.4-.9-11.8,7.1-.5,9.8,13.3,12.7,15.8,2.2.1-1.1,1-1.1.8.5a32.78,32.78,0,0,1-3.4,12.1h9.3a34.21,34.21,0,0,1-3.4-12.1c-.2-1.6.7-1.6.8-.5,2.6,10.4,16.3,7.6,15.8-2.2-.4-8-7.9-9.7-11.8-7.1-1.5,1-1.5.4-.6-.6,6-6.8,2.4-15.6-5.4-15.8Z"/><path id="path147-0-8-1-6-75-6-6-5-3-9-6-0" d="M48.2,106c-7.8.2-11.3,9-5.5,15.8.8,1,.9,1.6-.6.6-3.9-2.6-11.4-.9-11.8,7.1-.5,9.8,13.3,12.7,15.8,2.2.1-1.1,1-1.1.8.5a32.78,32.78,0,0,1-3.4,12.1h9.3a34.21,34.21,0,0,1-3.4-12.1c-.2-1.6.7-1.6.8-.5,2.6,10.4,16.3,7.6,15.8-2.2-.4-8-7.9-9.7-11.8-7.1-1.5,1-1.5.4-.6-.6,5.9-6.8,2.4-15.6-5.4-15.8Z"/><path id="path147-6-9-8-7-0-5-6-8-4-3" d="M164.6,209.3c3.1-.1,4.5-3.7,2.2-6.6-.3-.4-.4-.7.2-.3,1.6,1.1,4.6.4,4.7-2.9.2-4.1-5.3-5.3-6.3-.9-.1.5-.4.4-.3-.2a12.48,12.48,0,0,1,1.4-5h-3.7a15,15,0,0,1,1.4,5c.1.7-.3.7-.3.2-1-4.4-6.5-3.2-6.3.9.2,3.3,3.1,4,4.7,2.9.6-.4.6-.2.2.3-2.5,2.9-1.1,6.5,2.1,6.6Z"/><path id="path147-6-9-8-7-4-5-62-5-2-9" d="M14.2,40.4c-3.1.1-4.5,3.7-2.2,6.6.3.4.4.7-.2.3-1.6-1.1-4.6-.4-4.7,2.9-.2,4.1,5.3,5.3,6.3.9.1-.5.4-.4.3.2a12.48,12.48,0,0,1-1.4,5H16a15,15,0,0,1-1.4-5c-.1-.7.3-.7.3-.2,1,4.4,6.5,3.2,6.3-.9-.2-3.3-3.1-4-4.7-2.9-.6.4-.6.2-.2-.3,2.4-2.9,1-6.6-2.1-6.6Z"/><path id="path25-6-8-8" d="M10.2,37.9c1.7-9.1,3.6-16,8.4-23.5H8.8v3.2H6.2v-6H20.6l1.8,2.8c-5.1,5.6-9.8,23.7-9,23.5Z"/><path id="path25-7-7-3-9" d="M168.6,211.8c-1.7,9.1-3.6,16-8.4,23.5H170v-3.2h2.6v6H158.2l-1.8-2.8c5.1-5.6,9.8-23.7,9-23.5Z"/></g></g></g></svg>