<svg xmlns="http://www.w3.org/2000/svg" viewBox="0 0 178.7 249.6"><defs><style>.cls-1{fill:#fff;stroke:#000;stroke-width:1px;}.cls-2{fill:#d40000;}</style></defs><title>7d</title><g id="Layer_2" data-name="Layer 2"><g id="svg11376"><g id="_7d" data-name="7d"><path id="rect6826-9" class="cls-1" d="M9,.5H169.74A8.46,8.46,0,0,1,178.2,9V240.63a8.45,8.45,0,0,1-8.46,8.47H9A8.45,8.45,0,0,1,.5,240.63V9A8.46,8.46,0,0,1,9,.5Z"/><path id="path6858-4" class="cls-2" d="M14.14,56.32a41.61,41.61,0,0,0-5.78-8,42,42,0,0,0,5.78-8,41.94,41.94,0,0,0,5.77,8A47.86,47.86,0,0,0,14.14,56.32Z"/><path id="path6860-1" class="cls-2" d="M130.62,64.89c-4.09-6.87-8.47-13.45-13.94-19.13,5.47-5.69,9.76-12.27,13.94-19.14,4.08,6.87,8.46,13.45,13.93,19.14C139.08,51.34,134.7,58,130.62,64.89Z"/><path id="path6862-0" class="cls-2" d="M164.56,209.33a41.56,41.56,0,0,0-5.77-8,41.94,41.94,0,0,0,5.77-8,42.43,42.43,0,0,0,5.78,8A39.08,39.08,0,0,0,164.56,209.33Z"/><path id="path6864-5" class="cls-2" d="M48.09,64.89A102.72,102.72,0,0,0,34.15,45.76c5.47-5.69,9.76-12.27,13.94-19.14C52.17,33.49,56.55,40.07,62,45.76,56.65,51.34,52.27,58,48.09,64.89Z"/><path id="path6870-5" class="cls-2" d="M89.4,104.37c-4.08-6.88-8.46-13.46-13.94-19.14C80.94,79.55,85.22,73,89.4,66.09c4.08,6.88,8.46,13.46,13.94,19.14C97.86,90.91,93.48,97.59,89.4,104.37Z"/><path id="path6874-1" class="cls-2" d="M48.09,143.94A102.46,102.46,0,0,0,34.15,124.8c5.47-5.68,9.76-12.26,13.94-19.14,4.08,6.88,8.46,13.46,13.93,19.14C56.65,130.48,52.27,137.06,48.09,143.94Z"/><path id="path6876-6" class="cls-2" d="M130.62,143.94c-4.09-6.88-8.47-13.46-13.94-19.14,5.47-5.68,9.76-12.26,13.94-19.14,4.08,6.88,8.46,13.46,13.93,19.14C139.08,130.48,134.7,137.16,130.62,143.94Z"/><path id="path6880-5" class="cls-2" d="M48.09,223.09A102.46,102.46,0,0,0,34.15,204c5.47-5.68,9.76-12.26,13.94-19.14C52.17,191.69,56.55,198.27,62,204,56.65,209.63,52.27,216.21,48.09,223.09Z"/><path id="path6882-9" class="cls-2" d="M130.62,223.09c-4.09-6.88-8.47-13.46-13.94-19.14,5.47-5.68,9.76-12.26,13.94-19.14,4.08,6.88,8.46,13.46,13.93,19.14C139.08,209.63,134.7,216.31,130.62,223.09Z"/><path id="path25-43-4-8-8" class="cls-2" d="M10.16,37.88c1.69-9.17,3.58-16.05,8.36-23.42H8.66v3.19H6.08V11.56H20.41l1.79,2.8c-5.17,5.58-9.85,23.72-9,23.42C13.24,37.88,10.16,37.88,10.16,37.88Z"/><path id="path25-7-0-7-6" class="cls-2" d="M168.55,211.82c-1.7,9.17-3.59,16.05-8.37,23.43H170v-3.19h2.59v6.08H158.29l-1.79-2.79c5.18-5.58,9.86-23.73,9-23.43h3.09Z"/></g></g></g></svg>