<svg xmlns="http://www.w3.org/2000/svg" viewBox="0 0 178.71 249.6"><defs><style>.cls-1{fill:#fff;stroke:#000;stroke-width:1px;}.cls-2{fill:#d40000;}</style></defs><title>7h</title><g id="Layer_2" data-name="Layer 2"><g id="svg11376"><g id="_7h" data-name="7h"><path id="rect10074-2-8" class="cls-1" d="M9,.5H169.74A8.47,8.47,0,0,1,178.21,9V240.63a8.47,8.47,0,0,1-8.47,8.47H9A8.47,8.47,0,0,1,.5,240.63V9.07A8.42,8.42,0,0,1,9,.5Z"/><path id="path10106-2-3" class="cls-2" d="M14.14,56.32S12.35,53.73,10,50.74c-1.59-2-2.89-4.19-3-6.08-.1-2.09,1.2-4.29,3.49-4.39s3.28,1.6,3.68,3.09c.4-1.39,1.3-3.19,3.68-3.09s3.59,2.3,3.49,4.39c-.1,1.89-1.39,4-3,6.08C15.93,53.83,14.14,56.32,14.14,56.32Z"/><path id="path10108-3-1" class="cls-2" d="M164.57,193.38s-1.8,2.59-4.18,5.58c-1.6,2-2.89,4.19-3,6.08-.1,2.1,1.19,4.29,3.48,4.39s3.29-1.6,3.69-3.09c.39,1.4,1.29,3.19,3.68,3.09s3.58-2.29,3.48-4.39c-.09-1.89-1.39-4-3-6.08C166.26,195.87,164.57,193.38,164.57,193.38Z"/><path id="path10110-3-5" class="cls-2" d="M89.3,104.47s-3.68-6.08-8.76-13.26c-3.38-4.79-6.07-10-6.27-14.45-.3-5.09,2.39-10.27,7.37-10.47s6.87,4,7.66,7.38c.8-3.49,2.79-7.68,7.67-7.38s7.57,5.38,7.37,10.47c-.3,4.48-2.89,9.66-6.28,14.45C93.09,98.29,89.3,104.47,89.3,104.47Z"/><path id="path10114-8-3" class="cls-2" d="M48.09,64.89s-3.68-6.08-8.76-13.25c-3.39-4.79-6.07-10-6.27-14.46-.3-5.08,2.39-10.26,7.36-10.46s6.87,4,7.67,7.37c.8-3.49,2.79-7.67,7.66-7.37s7.57,5.38,7.37,10.46c-.3,4.49-2.89,9.67-6.27,14.46C51.87,58.81,48.09,64.89,48.09,64.89Z"/><path id="path10116-2-5" class="cls-2" d="M130.62,143.94s-3.68-6.08-8.76-13.26c-3.39-4.78-6.07-10-6.27-14.45-.3-5.08,2.39-10.27,7.36-10.47s6.87,4,7.67,7.38c.8-3.49,2.79-7.68,7.66-7.38s7.57,5.39,7.37,10.47c-.3,4.48-2.89,9.67-6.27,14.45C134.3,137.86,130.62,143.94,130.62,143.94Z"/><path id="path10120-6-5" class="cls-2" d="M130.62,64.89s-3.68-6.08-8.76-13.25c-3.39-4.79-6.07-10-6.27-14.46-.3-5.08,2.39-10.26,7.36-10.46s6.87,4,7.67,7.37c.8-3.49,2.79-7.67,7.66-7.37s7.57,5.38,7.37,10.46c-.3,4.49-2.89,9.67-6.27,14.46C134.3,58.81,130.62,64.89,130.62,64.89Z"/><path id="path10124-1-1" class="cls-2" d="M48.09,143.94s-3.68-6.08-8.76-13.26c-3.39-4.78-6.07-10-6.27-14.45-.3-5.08,2.39-10.27,7.36-10.47s6.87,4,7.67,7.38c.8-3.49,2.79-7.68,7.66-7.38s7.57,5.39,7.37,10.47c-.3,4.48-2.89,9.67-6.27,14.45C51.87,137.86,48.09,143.94,48.09,143.94Z"/><path id="path10134-7-3" class="cls-2" d="M130.62,184.81s-3.68,6.08-8.76,13.26c-3.39,4.78-6.07,10-6.27,14.45-.3,5.08,2.39,10.27,7.36,10.47s6.87-4,7.67-7.38c.8,3.49,2.79,7.68,7.66,7.38s7.57-5.39,7.37-10.47c-.3-4.49-2.89-9.67-6.27-14.45C134.3,190.89,130.62,184.81,130.62,184.81Z"/><path id="path10136-5-7" class="cls-2" d="M48.09,184.81s-3.68,6.08-8.76,13.26c-3.39,4.78-6.07,10-6.27,14.45-.3,5.08,2.39,10.27,7.36,10.47s6.87-4,7.67-7.38c.8,3.49,2.79,7.68,7.66,7.38s7.57-5.39,7.37-10.47c-.3-4.49-2.89-9.67-6.27-14.45C51.87,190.89,48.09,184.81,48.09,184.81Z"/><path id="path25-43-2-3-9" class="cls-2" d="M10.16,37.88c1.69-9.17,3.58-16.05,8.36-23.42H8.67v3.19H6.08V11.56H20.41l1.79,2.8C17,19.94,12.35,38.08,13.25,37.78H10.16Z"/><path id="path25-7-0-2-8-2" class="cls-2" d="M168.55,211.82c-1.69,9.17-3.59,16.05-8.36,23.43H170v-3.19h2.59v6.08H158.29l-1.79-2.79c5.18-5.59,9.86-23.73,9-23.43h3.09Z"/></g></g></g></svg>