<svg xmlns="http://www.w3.org/2000/svg" viewBox="0 0 178.71 249.6"><defs><style>.cls-1{fill:#fff;stroke:#000;stroke-width:1px;}</style></defs><title>7s</title><g id="Layer_2" data-name="Layer 2"><g id="svg11376"><g id="_7s" data-name="7s"><path id="rect7056-4-2" class="cls-1" d="M9,.5H169.74A8.47,8.47,0,0,1,178.21,9V240.63a8.47,8.47,0,0,1-8.47,8.47H9A8.47,8.47,0,0,1,.5,240.63V9A8.4,8.4,0,0,1,9,.5Z"/><path id="path7086-8-0" d="M48.09,26.62C40.72,37.08,32.86,43.16,32.76,51.34c0,2.69,1.39,7.17,5.87,8,2.89.6,6.87-1.79,7-6.58,0-1,1-.89,1,.4a25.7,25.7,0,0,1-3.39,11.76h9.66a28.4,28.4,0,0,1-3.39-11.76c0-1.29,1-1.29,1-.4.1,4.79,4.08,7.18,7,6.58,4.48-.9,5.87-5.38,5.87-8C63.32,43.16,55.46,37.08,48.09,26.62Z"/><path id="path7088-9-3" d="M14.14,40.37C10.76,44.76,7.07,47.25,7,50.64A3.46,3.46,0,0,0,9.76,54a2.94,2.94,0,0,0,3.29-2.79c0-.4.49-.4.49.2A10.06,10.06,0,0,1,12,56.32h4.48a11.37,11.37,0,0,1-1.59-4.88c0-.5.5-.6.5-.2A2.88,2.88,0,0,0,18.62,54a3.39,3.39,0,0,0,2.79-3.39c-.2-3.39-3.78-5.88-7.27-10.27Z"/><path id="path7092-7-0" d="M164.47,209.33c-3.39-4.39-7.07-6.88-7.17-10.27a3.47,3.47,0,0,1,2.79-3.39,2.93,2.93,0,0,1,3.28,2.8c0,.39.5.39.5-.2a10.2,10.2,0,0,0-1.59-4.89h4.48a11.29,11.29,0,0,0-1.6,4.89c0,.49.5.59.5.2a2.89,2.89,0,0,1,3.29-2.8,3.4,3.4,0,0,1,2.79,3.39c-.1,3.39-3.79,5.88-7.27,10.27Z"/><path id="path7094-3-5" d="M130.52,26.62c-7.37,10.46-15.23,16.54-15.33,24.72,0,2.69,1.39,7.17,5.87,8,2.89.6,6.87-1.79,7-6.58,0-1,1-.89,1,.4a25.7,25.7,0,0,1-3.39,11.76h9.66a28.4,28.4,0,0,1-3.39-11.76c0-1.29,1-1.29,1-.4.1,4.79,4.08,7.18,7,6.58,4.48-.9,5.87-5.38,5.87-8C145.75,43.16,137.89,37.08,130.52,26.62Z"/><path id="path7098-7-3" d="M89.3,66.19C81.94,76.66,74.07,82.74,74,90.91c0,2.69,1.4,7.18,5.88,8,2.88.6,6.87-1.79,7-6.57,0-1,1-.9,1,.39a25.76,25.76,0,0,1-3.38,11.77h9.65A28.47,28.47,0,0,1,90.7,92.7c0-1.29,1-1.29,1-.39.1,4.78,4.09,7.17,7,6.57,4.48-.89,5.88-5.38,5.88-8C104.54,82.74,96.67,76.66,89.3,66.19Z"/><path id="path7105-0-7" d="M48.09,105.76c-7.37,10.47-15.23,16.55-15.33,24.72,0,2.69,1.39,7.18,5.87,8,2.89.6,6.87-1.8,7-6.58,0-1,1-.9,1,.4A25.73,25.73,0,0,1,43.21,144h9.66a28.45,28.45,0,0,1-3.39-11.76c0-1.3,1-1.3,1-.4.1,4.78,4.08,7.18,7,6.58,4.48-.9,5.87-5.39,5.87-8C63.32,122.21,55.46,116.23,48.09,105.76Z"/><path id="path7107-6-3" d="M48.09,223.09c-7.37-10.47-15.23-16.55-15.33-24.72,0-2.7,1.39-7.18,5.87-8,2.89-.6,6.87,1.8,7,6.58,0,1,1,.9,1-.4a25.73,25.73,0,0,0-3.39-11.76h9.66a28.45,28.45,0,0,0-3.39,11.76c0,1.3,1,1.3,1,.4.1-4.78,4.08-7.18,7-6.58,4.48.9,5.87,5.38,5.87,8,0,8.17-7.86,14.25-15.23,24.72Z"/><path id="path7109-5-0" d="M130.52,223.09c-7.37-10.47-15.23-16.55-15.33-24.72,0-2.7,1.39-7.18,5.87-8,2.89-.6,6.87,1.8,7,6.58,0,1,1,.9,1-.4a25.73,25.73,0,0,0-3.39-11.76h9.66a28.45,28.45,0,0,0-3.39,11.76c0,1.3,1,1.3,1,.4.1-4.78,4.08-7.18,7-6.58,4.48.9,5.87,5.38,5.87,8,0,8.17-7.86,14.25-15.23,24.72Z"/><path id="path7119-1-9" d="M130.52,105.76c-7.37,10.47-15.23,16.55-15.33,24.72,0,2.69,1.39,7.18,5.87,8,2.89.6,6.87-1.8,7-6.58,0-1,1-.9,1,.4A25.73,25.73,0,0,1,125.64,144h9.66a28.45,28.45,0,0,1-3.39-11.76c0-1.3,1-1.3,1-.4.1,4.78,4.08,7.18,7,6.58,4.48-.9,5.87-5.39,5.87-8C145.75,122.21,137.89,116.23,130.52,105.76Z"/><path id="path25-4-6-4" d="M10.06,37.88c1.69-9.17,3.58-16.05,8.36-23.42H8.57v3.19H6V11.56H20.31l1.8,2.8c-5.18,5.58-9.86,23.72-9,23.42H10.06Z"/><path id="path25-4-1-9-1" d="M168.55,211.82c-1.69,9.17-3.58,16.05-8.36,23.43H170v-3.19h2.59v6.08H158.29l-1.79-2.79c5.18-5.59,9.86-23.73,9-23.43h3.09Z"/></g></g></g></svg>