<svg xmlns="http://www.w3.org/2000/svg" viewBox="0 0 178.8 249.6"><defs><style>.cls-1{fill:#fff;stroke:#000;stroke-width:1px;}</style></defs><title>8c</title><g id="Layer_2" data-name="Layer 2"><g id="svg11376"><g id="_8c" data-name="8c"><path id="rect6355-6-85-3-3-4-3" class="cls-1" d="M9,.5H169.8A8.49,8.49,0,0,1,178.3,9V240.6a8.49,8.49,0,0,1-8.5,8.5H9a8.49,8.49,0,0,1-8.5-8.5V9A8.49,8.49,0,0,1,9,.5Z"/><path id="path147-0-8-1-6-13-2-2-3-8" d="M130.6,26.9c-7.8.2-11.3,9-5.5,15.8.8,1,.9,1.6-.6.6-3.9-2.6-11.4-.9-11.8,7.1-.5,9.8,13.3,12.7,15.8,2.2.1-1.1,1-1.1.8.5a32.78,32.78,0,0,1-3.4,12.1h9.3a34.21,34.21,0,0,1-3.4-12.1c-.2-1.6.7-1.6.8-.5,2.6,10.4,16.3,7.6,15.8-2.2-.4-8-7.9-9.7-11.8-7.1-1.5,1-1.5.4-.6-.6,5.9-6.8,2.4-15.6-5.4-15.8Z"/><path id="path147-0-8-1-6-75-2-83-9-8-9" d="M48.1,26.9c-7.8.2-11.3,9-5.5,15.8.8,1,.9,1.6-.6.6-3.9-2.6-11.4-.9-11.8,7.1-.5,9.8,13.3,12.7,15.8,2.2.1-1.1,1-1.1.8.5a32.78,32.78,0,0,1-3.4,12.1h9.3a34.21,34.21,0,0,1-3.4-12.1c-.2-1.6.7-1.6.8-.5,2.6,10.4,16.3,7.6,15.8-2.2-.4-8-7.9-9.7-11.8-7.1-1.5,1-1.5.4-.6-.6,6-6.8,2.5-15.6-5.4-15.8Z"/><path id="path147-0-8-1-6-7-5-5-7-62-3-0" d="M130.6,223.4c-7.8-.2-11.3-9-5.5-15.8.8-1,.9-1.6-.6-.6-3.9,2.6-11.4.9-11.8-7.1-.5-9.8,13.3-12.7,15.8-2.2.1,1.1,1,1.1.8-.5a32.78,32.78,0,0,0-3.4-12.1h9.3a34.21,34.21,0,0,0-3.4,12.1c-.2,1.6.7,1.6.8.5,2.6-10.4,16.3-7.6,15.8,2.2-.4,8-7.9,9.7-11.8,7.1-1.5-1-1.5-.4-.6.6,5.9,6.9,2.4,15.7-5.4,15.8Z"/><path id="path147-0-8-1-6-75-6-1-2-41-4-5" d="M48.1,223.4c-7.8-.2-11.3-9-5.5-15.8.8-1,.9-1.6-.6-.6-3.9,2.6-11.4.9-11.8-7.1-.5-9.8,13.3-12.7,15.8-2.2.1,1.1,1,1.1.8-.5a32.78,32.78,0,0,0-3.4-12.1h9.3a34.21,34.21,0,0,0-3.4,12.1c-.2,1.6.7,1.6.8.5,2.6-10.4,16.3-7.6,15.8,2.2-.4,8-7.9,9.7-11.8,7.1-1.5-1-1.5-.4-.6.6,6,6.9,2.5,15.7-5.4,15.8Z"/><path id="path147-0-8-1-6-2-00-7-5-5-3" d="M89.4,66.5c-7.8.2-11.3,9-5.5,15.8.8,1,.9,1.6-.6.6C79.4,80.3,71.9,82,71.5,90c-.5,9.8,13.3,12.7,15.8,2.2.1-1.1,1-1.1.8.5a32.78,32.78,0,0,1-3.4,12.1H94a34.21,34.21,0,0,1-3.4-12.1c-.2-1.6.7-1.6.8-.5,2.6,10.4,16.3,7.6,15.8-2.2-.4-8-7.9-9.7-11.8-7.1-1.5,1-1.5.4-.6-.6,5.9-6.8,2.4-15.7-5.4-15.8Z"/><path id="path147-0-8-1-6-7-5-7-3-0-4-4-6" d="M130.6,106c-7.8.2-11.3,9-5.5,15.8.8,1,.9,1.6-.6.6-3.9-2.6-11.4-.9-11.8,7.1-.5,9.8,13.3,12.7,15.8,2.2.1-1.1,1-1.1.8.5a32.78,32.78,0,0,1-3.4,12.1h9.3a34.21,34.21,0,0,1-3.4-12.1c-.2-1.6.7-1.6.8-.5,2.6,10.4,16.3,7.6,15.8-2.2-.4-8-7.9-9.7-11.8-7.1-1.5,1-1.5.4-.6-.6,5.9-6.8,2.4-15.6-5.4-15.8Z"/><path id="path147-0-8-1-6-75-6-6-5-3-2-4-8" d="M48.1,106c-7.8.2-11.3,9-5.5,15.8.8,1,.9,1.6-.6.6-3.9-2.6-11.4-.9-11.8,7.1-.5,9.8,13.3,12.7,15.8,2.2.1-1.1,1-1.1.8.5a32.78,32.78,0,0,1-3.4,12.1h9.3a34.21,34.21,0,0,1-3.4-12.1c-.2-1.6.7-1.6.8-.5,2.6,10.4,16.3,7.6,15.8-2.2-.4-8-7.9-9.7-11.8-7.1-1.5,1-1.5.4-.6-.6,6-6.8,2.5-15.6-5.4-15.8Z"/><path id="path147-0-8-1-6-2-0-8-6-42-9-6" d="M89.4,183.9c-7.8-.2-11.3-9-5.5-15.8.8-1,.9-1.6-.6-.6-3.9,2.6-11.4.9-11.8-7.1-.5-9.8,13.3-12.7,15.8-2.2.1,1.1,1,1.1.8-.5a32.78,32.78,0,0,0-3.4-12.1H94a34.21,34.21,0,0,0-3.4,12.1c-.2,1.6.7,1.6.8.5,2.6-10.4,16.3-7.6,15.8,2.2-.4,8-7.9,9.7-11.8,7.1-1.5-1-1.5-.4-.6.6,5.9,6.8,2.4,15.6-5.4,15.8Z"/><path id="path147-6-9-8-7-0-5-6-1-6-9" d="M164.6,209.3c3.1-.1,4.5-3.7,2.2-6.6-.3-.4-.4-.7.2-.3,1.6,1.1,4.6.4,4.7-2.9.2-4.1-5.3-5.3-6.3-.9-.1.5-.4.4-.3-.2a12.48,12.48,0,0,1,1.4-5h-3.7a15,15,0,0,1,1.4,5c.1.7-.3.7-.3.2-1-4.4-6.5-3.2-6.3.9.2,3.3,3.1,4,4.7,2.9.6-.4.6-.2.2.3-2.5,2.9-1.1,6.5,2.1,6.6Z"/><path id="path147-6-9-8-7-4-5-62-4-0-0" d="M14.2,40.4c-3.1.1-4.5,3.7-2.2,6.6.3.4.4.7-.2.3-1.6-1.1-4.6-.4-4.7,2.9-.2,4.1,5.3,5.3,6.3.9.1-.5.4-.4.3.2a12.48,12.48,0,0,1-1.4,5H16a15,15,0,0,1-1.4-5c-.1-.7.3-.7.3-.2,1,4.4,6.5,3.2,6.3-.9-.2-3.3-3.1-4-4.7-2.9-.6.4-.6.2-.2-.3,2.4-2.9,1-6.6-2.1-6.6Z"/><path id="path27-3-3-2" d="M5.7,30.2c.1-3.5,1.4-4.9,3.9-6.7a6.26,6.26,0,0,1-2.7-5.4c.4-4.4,3.8-6.6,7.5-6.5s6.9,3,7.1,6.2a5.47,5.47,0,0,1-2.6,5.6c2.3,2,3.8,3.3,3.8,6.8a8.14,8.14,0,0,1-8.2,7.7c-5.1.1-9-4.2-8.8-7.7Zm14.3,0c.2-3.2-2.6-5.4-5.8-5.4s-5.9,2.6-5.9,5.5c0,3.1,3.6,4.8,5.9,4.8,2.9,0,5.6-2.2,5.8-4.9ZM19,18.7c.1-2.7-2.4-4.6-5-4.5-2.3.1-4.7,1.8-4.7,4.1,0,2.8,2.7,4.2,5.1,4.3,2.2,0,4.6-1.8,4.6-3.9Z"/><path id="path27-0-0-5-0" d="M156,219.5c.1,3.5,1.4,4.9,3.9,6.7a6.26,6.26,0,0,0-2.7,5.4c.4,4.4,3.8,6.6,7.5,6.5s6.9-3,7.1-6.2a5.47,5.47,0,0,0-2.6-5.6c2.3-2,3.8-3.3,3.8-6.8a8.14,8.14,0,0,0-8.2-7.7c-5-.1-8.9,4.2-8.8,7.7Zm14.4,0c.2,3.2-2.6,5.4-5.8,5.4s-5.9-2.6-5.9-5.5c0-3.1,3.6-4.8,5.9-4.8,2.9,0,5.6,2.2,5.8,4.9Zm-1,11.5c.1,2.7-2.4,4.6-5,4.5-2.3-.1-4.7-1.8-4.7-4.1,0-2.8,2.7-4.2,5.1-4.3,2.1,0,4.5,1.8,4.6,3.9Z"/></g></g></g></svg>