<svg xmlns="http://www.w3.org/2000/svg" viewBox="0 0 178.71 249.6"><defs><style>.cls-1{fill:#fff;stroke:#000;stroke-width:1px;}.cls-2{fill:#d40000;}</style></defs><title>8d</title><g id="Layer_2" data-name="Layer 2"><g id="svg11376"><g id="_8d" data-name="8d"><path id="rect6894-2" class="cls-1" d="M9,.5H169.74A8.47,8.47,0,0,1,178.21,9V240.63a8.46,8.46,0,0,1-8.47,8.47H9A8.46,8.46,0,0,1,.5,240.63V9A8.34,8.34,0,0,1,9,.5Z"/><path id="path6926-2" class="cls-2" d="M14.14,56.32a41.56,41.56,0,0,0-5.77-8,41.94,41.94,0,0,0,5.77-8,42,42,0,0,0,5.78,8A38.71,38.71,0,0,0,14.14,56.32Z"/><path id="path6928-9" class="cls-2" d="M130.52,64.89c-4.08-6.87-8.46-13.45-13.94-19.13,5.48-5.69,9.76-12.27,13.94-19.14,4.08,6.87,8.46,13.45,13.94,19.14C139,51.34,134.7,58,130.52,64.89Z"/><path id="path6930-6" class="cls-2" d="M164.47,209.33a42,42,0,0,0-5.78-8,42.43,42.43,0,0,0,5.78-8,41.94,41.94,0,0,0,5.77,8A47.86,47.86,0,0,0,164.47,209.33Z"/><path id="path6932-2" class="cls-2" d="M48.09,64.89C44,58,39.63,51.44,34.15,45.76c5.48-5.69,9.76-12.27,13.94-19.14C52.17,33.49,56.55,40.07,62,45.76,56.55,51.34,52.17,58,48.09,64.89Z"/><path id="path6938-4" class="cls-2" d="M89.3,104.37c-4.08-6.88-8.46-13.46-13.93-19.14C80.84,79.55,85.12,73,89.3,66.09c4.09,6.88,8.47,13.46,13.94,19.14C97.77,90.91,93.49,97.59,89.3,104.37Z"/><path id="path6942-4" class="cls-2" d="M48.09,143.94c-4.08-6.88-8.46-13.46-13.94-19.14,5.48-5.68,9.76-12.26,13.94-19.14,4.08,6.88,8.46,13.46,13.94,19.14C56.55,130.48,52.17,137.06,48.09,143.94Z"/><path id="path6944-9" class="cls-2" d="M130.52,143.94c-4.08-6.88-8.46-13.46-13.94-19.14,5.48-5.68,9.76-12.26,13.94-19.14,4.08,6.88,8.46,13.46,13.94,19.14C139,130.48,134.7,137.16,130.52,143.94Z"/><path id="path6948-4" class="cls-2" d="M48.09,223.09C44,216.21,39.63,209.63,34.15,204c5.48-5.68,9.76-12.26,13.94-19.14C52.17,191.69,56.55,198.27,62,204,56.55,209.63,52.17,216.21,48.09,223.09Z"/><path id="path6950-4" class="cls-2" d="M130.52,223.09c-4.08-6.88-8.46-13.46-13.94-19.14,5.48-5.68,9.76-12.26,13.94-19.14,4.08,6.88,8.46,13.46,13.94,19.14C139,209.63,134.7,216.31,130.52,223.09Z"/><path id="path6956-4" class="cls-2" d="M89.3,183.51c-4.08-6.87-8.46-13.45-13.93-19.14,5.47-5.68,9.75-12.26,13.93-19.13,4.09,6.87,8.47,13.45,13.94,19.13C97.77,170.06,93.49,176.64,89.3,183.51Z"/><path id="path27-00-7-8-6" class="cls-2" d="M5.58,30.11c.1-3.49,1.39-4.89,3.88-6.68A6.15,6.15,0,0,1,6.77,18c.4-4.38,3.79-6.57,7.47-6.48s6.87,3,7.17,6.28c.2,2.8-.6,4.09-2.59,5.59,2.29,2,3.78,3.29,3.78,6.78A8.25,8.25,0,0,1,14.44,38c-5.08,0-9-4.29-8.86-7.87Zm14.43.1c.2-3.19-2.58-5.39-5.77-5.39A5.88,5.88,0,0,0,8.37,30.3c0,3.09,3.58,4.79,6,4.79,2.79-.1,5.48-2.19,5.67-4.88ZM18.92,18.74c.1-2.69-2.39-4.58-5-4.58-2.29.1-4.68,1.79-4.68,4.08,0,2.79,2.79,4.19,5.08,4.29s4.58-1.79,4.58-3.79Z"/><path id="path27-0-1-9-8" class="cls-2" d="M155.91,219.5c.09,3.49,1.39,4.88,3.88,6.68a6.1,6.1,0,0,0-2.69,5.38c.4,4.39,3.78,6.58,7.47,6.48s6.87-3,7.16-6.28a5.44,5.44,0,0,0-2.58-5.58c2.29-2,3.78-3.29,3.78-6.78a8.26,8.26,0,0,0-8.16-7.78c-5.08.1-9,4.39-8.86,7.88Zm14.43,0c.2,3.19-2.59,5.38-5.77,5.38s-5.88-2.59-5.88-5.48c0-3.09,3.59-4.79,6-4.79a5.63,5.63,0,0,1,5.67,4.89Zm-1,11.46c.09,2.69-2.39,4.59-5,4.59-2.29-.1-4.68-1.8-4.68-4.09,0-2.79,2.79-4.19,5.08-4.29,2.09-.1,4.48,1.7,4.58,3.79Z"/></g></g></g></svg>