<svg xmlns="http://www.w3.org/2000/svg" viewBox="0 0 178.71 249.6"><defs><style>.cls-1{fill:#fff;stroke:#000;stroke-width:1px;}.cls-2{fill:#d40000;}</style></defs><title>8h</title><g id="Layer_2" data-name="Layer 2"><g id="svg11376"><g id="_8h" data-name="8h"><g id="g10140-6-7"><path id="rect10142-4-2" class="cls-1" d="M9,.5H169.74A8.47,8.47,0,0,1,178.21,9V240.63a8.47,8.47,0,0,1-8.47,8.47H9A8.47,8.47,0,0,1,.5,240.63V9A8.4,8.4,0,0,1,9,.5Z"/></g><path id="path10174-9-0" class="cls-2" d="M14.16,56.3S12.37,53.71,10,50.71c-1.59-2-2.88-4.18-3-6.08-.1-2.09,1.19-4.28,3.48-4.38s3.29,1.59,3.68,3.09c.4-1.4,1.3-3.19,3.69-3.09s3.58,2.29,3.48,4.38c-.1,1.9-1.39,4-3,6.08C16,53.8,14.16,56.3,14.16,56.3Z"/><path id="path10176-9-9" class="cls-2" d="M164.49,193.36s-1.79,2.59-4.18,5.58c-1.59,2-2.89,4.19-3,6.08-.1,2.09,1.2,4.29,3.49,4.39s3.28-1.6,3.68-3.09c.4,1.39,1.3,3.19,3.68,3.09s3.59-2.3,3.49-4.39c-.1-1.89-1.39-4-3-6.08C166.28,195.85,164.49,193.36,164.49,193.36Z"/><path id="path10178-8-4" class="cls-2" d="M89.33,104.44s-3.69-6.08-8.76-13.25c-3.39-4.79-6.08-10-6.27-14.46-.3-5.08,2.38-10.27,7.36-10.46s6.87,4,7.67,7.37c.79-3.49,2.79-7.67,7.66-7.37s7.57,5.38,7.37,10.46c-.3,4.49-2.89,9.67-6.27,14.46C93,98.26,89.33,104.44,89.33,104.44Z"/><path id="path10182-1-9" class="cls-2" d="M48.11,64.87s-3.68-6.08-8.76-13.26c-3.38-4.78-6.07-10-6.27-14.45-.3-5.09,2.39-10.27,7.37-10.47s6.87,4,7.66,7.38c.8-3.49,2.79-7.68,7.67-7.38s7.56,5.38,7.37,10.47c-.3,4.48-2.89,9.67-6.28,14.45C51.8,58.79,48.11,64.87,48.11,64.87Z"/><path id="path10184-9-1" class="cls-2" d="M130.54,143.92s-3.68-6.08-8.76-13.26c-3.38-4.79-6.07-10-6.27-14.46-.3-5.08,2.39-10.26,7.37-10.46s6.87,4,7.66,7.37c.8-3.48,2.79-7.67,7.67-7.37s7.56,5.38,7.37,10.46c-.3,4.49-2.89,9.67-6.28,14.46C134.33,137.84,130.54,143.92,130.54,143.92Z"/><path id="path10188-5-4" class="cls-2" d="M130.54,64.87s-3.68-6.08-8.76-13.26c-3.38-4.78-6.07-10-6.27-14.45-.3-5.09,2.39-10.27,7.37-10.47s6.87,4,7.66,7.38c.8-3.49,2.79-7.68,7.67-7.38s7.56,5.38,7.37,10.47c-.3,4.48-2.89,9.67-6.28,14.45C134.33,58.79,130.54,64.87,130.54,64.87Z"/><path id="path10192-3-6" class="cls-2" d="M48.11,143.92s-3.68-6.08-8.76-13.26c-3.38-4.79-6.07-10-6.27-14.46-.3-5.08,2.39-10.26,7.37-10.46s6.87,4,7.66,7.37c.8-3.48,2.79-7.67,7.67-7.37s7.56,5.38,7.37,10.46c-.3,4.49-2.89,9.67-6.28,14.46C51.8,137.84,48.11,143.92,48.11,143.92Z"/><path id="path10196-7-3" class="cls-2" d="M89.33,145.21s-3.69,6.08-8.76,13.26c-3.39,4.78-6.08,10-6.27,14.45-.3,5.09,2.38,10.27,7.36,10.47s6.87-4,7.67-7.38c.79,3.49,2.79,7.68,7.66,7.38s7.57-5.38,7.37-10.47c-.3-4.48-2.89-9.67-6.27-14.45-5.08-7.08-8.76-13.26-8.76-13.26Z"/><path id="path10202-2-8" class="cls-2" d="M130.54,184.78s-3.68,6.09-8.76,13.26c-3.38,4.79-6.07,10-6.27,14.46-.3,5.08,2.39,10.26,7.37,10.46s6.87-4,7.66-7.37c.8,3.48,2.79,7.67,7.67,7.37s7.56-5.38,7.37-10.46c-.3-4.49-2.89-9.67-6.28-14.46C134.33,190.87,130.54,184.78,130.54,184.78Z"/><path id="path10204-9-4" class="cls-2" d="M48.11,184.78s-3.68,6.09-8.76,13.26c-3.38,4.79-6.07,10-6.27,14.46-.3,5.08,2.39,10.26,7.37,10.46s6.87-4,7.66-7.37c.8,3.48,2.79,7.67,7.67,7.37s7.56-5.38,7.37-10.46c-.3-4.49-2.89-9.67-6.28-14.46C51.8,190.87,48.11,184.78,48.11,184.78Z"/><path id="path27-00-0-7-4" class="cls-2" d="M5.6,30.18C5.7,26.69,7,25.3,9.49,23.5A6.09,6.09,0,0,1,6.8,18.12c.4-4.39,3.78-6.58,7.46-6.48a7.4,7.4,0,0,1,7.17,6.28,5.43,5.43,0,0,1-2.59,5.58c2.29,2,3.79,3.29,3.79,6.78a8.27,8.27,0,0,1-8.17,7.78c-5.07-.1-9-4.39-8.86-7.88Zm14.44,0c.2-3.19-2.59-5.38-5.78-5.38s-5.87,2.59-5.87,5.48c0,3.09,3.58,4.79,6,4.79A5.72,5.72,0,0,0,20,30.18Zm-1.1-11.46c.1-2.69-2.39-4.59-5-4.59-2.29.1-4.68,1.8-4.68,4.09,0,2.79,2.78,4.19,5.07,4.29s4.58-1.8,4.58-3.79Z"/><path id="path27-0-1-0-8-9" class="cls-2" d="M155.93,219.47c.1,3.49,1.39,4.89,3.88,6.68a6.15,6.15,0,0,0-2.69,5.38c.4,4.39,3.79,6.58,7.47,6.48s6.87-3,7.17-6.28c.2-2.79-.6-4.08-2.59-5.58,2.29-2,3.78-3.29,3.78-6.78a8.25,8.25,0,0,0-8.16-7.77c-5.08.1-9,4.38-8.86,7.87Zm14.43,0c.2,3.19-2.58,5.39-5.77,5.39a5.89,5.89,0,0,1-5.87-5.49c0-3.09,3.58-4.78,6-4.78,2.79,0,5.48,2.19,5.67,4.88Zm-1,11.47c.1,2.69-2.39,4.58-5,4.58-2.29-.1-4.68-1.79-4.68-4.08,0-2.8,2.79-4.19,5.08-4.29,2.09-.1,4.48,1.79,4.58,3.79Z"/></g></g></g></svg>