<svg xmlns="http://www.w3.org/2000/svg" viewBox="0 0 178.7 249.6"><defs><style>.cls-1{fill:#fff;stroke:#000;stroke-width:1px;}</style></defs><title>8s</title><g id="Layer_2" data-name="Layer 2"><g id="svg11376"><g id="_8s" data-name="8s"><path id="rect7125-2-7" class="cls-1" d="M9,.5H169.74A8.46,8.46,0,0,1,178.2,9V240.63a8.46,8.46,0,0,1-8.46,8.47H9A8.46,8.46,0,0,1,.5,240.63V9A8.46,8.46,0,0,1,9,.5Z"/><path id="path7155-4-0" d="M48.09,26.62C40.72,37.08,32.86,43.16,32.76,51.34c0,2.69,1.39,7.17,5.87,8,2.89.6,6.87-1.79,7-6.58,0-1,1-.89,1,.4a25.68,25.68,0,0,1-3.38,11.76h9.66a28.26,28.26,0,0,1-3.39-11.76c0-1.29,1-1.29,1-.4.1,4.79,4.08,7.18,7,6.58,4.48-.9,5.87-5.38,5.87-8C63.32,43.16,55.45,37.08,48.09,26.62Z"/><path id="path7157-2-9" d="M14.14,40.37C10.75,44.76,7.07,47.25,7,50.64A3.46,3.46,0,0,0,9.76,54,2.93,2.93,0,0,0,13,51.24c0-.4.5-.4.5.2A10.17,10.17,0,0,1,12,56.32h4.48a11.24,11.24,0,0,1-1.59-4.88c0-.5.49-.6.49-.2A2.89,2.89,0,0,0,18.62,54a3.39,3.39,0,0,0,2.79-3.39c-.1-3.39-3.79-5.88-7.27-10.27Z"/><path id="path7162-7-0" d="M164.56,209.33c-3.38-4.39-7.06-6.88-7.16-10.27a3.46,3.46,0,0,1,2.78-3.39,2.93,2.93,0,0,1,3.29,2.8c0,.39.5.39.5-.2a10.11,10.11,0,0,0-1.6-4.89h4.48a11.41,11.41,0,0,0-1.59,4.89c0,.49.5.59.5.2a2.88,2.88,0,0,1,3.28-2.8,3.39,3.39,0,0,1,2.79,3.39c-.2,3.39-3.88,5.88-7.27,10.27Z"/><path id="path7164-8-3" d="M130.62,26.62c-7.37,10.46-15.23,16.54-15.33,24.72,0,2.69,1.39,7.17,5.87,8,2.89.6,6.87-1.79,7-6.58,0-1,1-.89,1,.4a25.68,25.68,0,0,1-3.38,11.76h9.66A28.26,28.26,0,0,1,132,53.13c0-1.29,1-1.29,1-.4.1,4.79,4.08,7.18,7,6.58,4.48-.9,5.87-5.38,5.87-8C145.75,43.16,137.88,37.08,130.62,26.62Z"/><path id="path7168-3-2" d="M89.3,66.19C81.94,76.66,74.07,82.74,74,90.91c0,2.69,1.39,7.18,5.87,8,2.89.6,6.87-1.79,7-6.57,0-1,1-.9,1,.39a25.77,25.77,0,0,1-3.39,11.77h9.66A28.47,28.47,0,0,1,90.7,92.7c0-1.29,1-1.29,1-.39.1,4.78,4.08,7.17,7,6.57,4.48-.89,5.87-5.38,5.87-8C104.53,82.74,96.67,76.66,89.3,66.19Z"/><path id="path7174-5-0" d="M48.09,105.76c-7.37,10.47-15.23,16.55-15.33,24.72,0,2.69,1.39,7.18,5.87,8,2.89.6,6.87-1.8,7-6.58,0-1,1-.9,1,.4A25.72,25.72,0,0,1,43.21,144h9.66a28.3,28.3,0,0,1-3.39-11.76c0-1.3,1-1.3,1-.4.1,4.78,4.08,7.18,7,6.58,4.48-.9,5.87-5.39,5.87-8C63.32,122.21,55.45,116.23,48.09,105.76Z"/><path id="path7176-7-0" d="M48.09,223.09c-7.37-10.47-15.23-16.55-15.33-24.72,0-2.7,1.39-7.18,5.87-8,2.89-.6,6.87,1.8,7,6.58,0,1,1,.9,1-.4a25.72,25.72,0,0,0-3.38-11.76h9.66a28.3,28.3,0,0,0-3.39,11.76c0,1.3,1,1.3,1,.4.1-4.78,4.08-7.18,7-6.58,4.48.9,5.87,5.38,5.87,8,0,8.17-7.87,14.25-15.23,24.72Z"/><path id="path7178-9-4" d="M130.62,223.09c-7.37-10.47-15.23-16.55-15.33-24.72,0-2.7,1.39-7.18,5.87-8,2.89-.6,6.87,1.8,7,6.58,0,1,1,.9,1-.4a25.72,25.72,0,0,0-3.38-11.76h9.66A28.3,28.3,0,0,0,132,196.57c0,1.3,1,1.3,1,.4.1-4.78,4.08-7.18,7-6.58,4.48.9,5.87,5.38,5.87,8-.1,8.17-8,14.25-15.23,24.72Z"/><path id="path7180-5-1" d="M89.3,183.51C81.94,173.05,74.07,167,74,158.79c0-2.69,1.39-7.17,5.87-8,2.89-.6,6.87,1.79,7,6.58,0,1,1,.89,1-.4a25.7,25.7,0,0,0-3.39-11.76h9.66A28.39,28.39,0,0,0,90.7,157c0,1.29,1,1.29,1,.4.1-4.79,4.08-7.18,7-6.58,4.48.9,5.87,5.38,5.87,8C104.53,167.07,96.67,173.05,89.3,183.51Z"/><path id="path7189-7-7" d="M130.62,105.76c-7.37,10.47-15.23,16.55-15.33,24.72,0,2.69,1.39,7.18,5.87,8,2.89.6,6.87-1.8,7-6.58,0-1,1-.9,1,.4A25.72,25.72,0,0,1,125.74,144h9.66A28.3,28.3,0,0,1,132,132.28c0-1.3,1-1.3,1-.4.1,4.78,4.08,7.18,7,6.58,4.48-.9,5.87-5.39,5.87-8C145.75,122.21,137.88,116.23,130.62,105.76Z"/><path id="path27-43-30-7" d="M5.58,30.21c.1-3.49,1.39-4.89,3.88-6.68a6.13,6.13,0,0,1-2.69-5.39c.4-4.38,3.79-6.58,7.47-6.48s6.87,3,7.17,6.28c.2,2.8-.6,4.09-2.59,5.59,2.29,2,3.78,3.29,3.78,6.77a8.26,8.26,0,0,1-8.16,7.78c-5.08-.1-9-4.39-8.86-7.87Zm14.43,0c.2-3.19-2.59-5.39-5.77-5.39A5.88,5.88,0,0,0,8.37,30.3c0,3.09,3.58,4.79,6,4.79A5.7,5.7,0,0,0,20,30.21ZM19,18.74c.1-2.69-2.39-4.58-5-4.58-2.29.1-4.68,1.79-4.68,4.08,0,2.79,2.79,4.19,5.08,4.29,2.09.1,4.48-1.79,4.58-3.79Z"/><path id="path27-43-3-4-8" d="M156,219.5c.1,3.49,1.4,4.88,3.89,6.68a6.08,6.08,0,0,0-2.69,5.38c.4,4.38,3.78,6.58,7.46,6.48a7.4,7.4,0,0,0,7.17-6.28,5.43,5.43,0,0,0-2.59-5.58c2.29-2,3.79-3.29,3.79-6.78a8.19,8.19,0,0,0-8.17-7.78c-5.07.1-9,4.39-8.86,7.88Zm14.34,0c.2,3.19-2.59,5.38-5.78,5.38s-5.87-2.59-5.87-5.48c0-3.09,3.59-4.79,6-4.79a5.72,5.72,0,0,1,5.68,4.89Zm-1,11.46c.1,2.69-2.39,4.59-5,4.59-2.29-.1-4.68-1.8-4.68-4.09,0-2.79,2.78-4.19,5.07-4.29,2.09,0,4.58,1.8,4.58,3.79Z"/></g></g></g></svg>