<svg xmlns="http://www.w3.org/2000/svg" viewBox="0 0 178.8 249.6"><defs><style>.cls-1{fill:#fff;stroke:#000;stroke-width:1px;}</style></defs><title>9c</title><g id="Layer_2" data-name="Layer 2"><g id="svg11376"><g id="_9c" data-name="9c"><path id="rect6355-6-85-3-78-4-6" class="cls-1" d="M9,.5H169.8A8.49,8.49,0,0,1,178.3,9V240.6a8.49,8.49,0,0,1-8.5,8.5H9a8.49,8.49,0,0,1-8.5-8.5V9A8.49,8.49,0,0,1,9,.5Z"/><path id="path147-0-8-1-6-13-2-9-8-8" d="M130.6,26.9c-7.8.2-11.3,9-5.5,15.8.8,1,.9,1.6-.6.6-3.9-2.6-11.4-.9-11.8,7.1-.5,9.8,13.3,12.7,15.8,2.2.1-1.1,1-1.1.8.5a32.78,32.78,0,0,1-3.4,12.1h9.3a34.21,34.21,0,0,1-3.4-12.1c-.2-1.6.7-1.6.8-.5,2.6,10.4,16.3,7.6,15.8-2.2-.4-8-7.9-9.7-11.8-7.1-1.5,1-1.5.4-.6-.6,5.9-6.8,2.4-15.6-5.4-15.8Z"/><path id="path147-0-8-1-6-75-2-83-3-5-0" d="M48.1,26.9c-7.8.2-11.3,9-5.5,15.8.8,1,.9,1.6-.6.6-3.9-2.6-11.4-.9-11.8,7.1-.5,9.8,13.3,12.7,15.8,2.2.1-1.1,1-1.1.8.5a32.78,32.78,0,0,1-3.4,12.1h9.3a34.21,34.21,0,0,1-3.4-12.1c-.2-1.6.7-1.6.8-.5,2.6,10.4,16.3,7.6,15.8-2.2-.4-8-7.9-9.7-11.8-7.1-1.5,1-1.5.4-.6-.6,6-6.8,2.4-15.6-5.4-15.8Z"/><path id="path147-0-8-1-6-7-5-5-7-63-0-4" d="M130.6,223.4c-7.8-.2-11.3-9-5.5-15.8.8-1,.9-1.6-.6-.6-3.9,2.6-11.4.9-11.8-7.1-.5-9.8,13.3-12.7,15.8-2.2.1,1.1,1,1.1.8-.5a32.78,32.78,0,0,0-3.4-12.1h9.3a34.21,34.21,0,0,0-3.4,12.1c-.2,1.6.7,1.6.8.5,2.6-10.4,16.3-7.6,15.8,2.2-.4,8-7.9,9.7-11.8,7.1-1.5-1-1.5-.4-.6.6,5.9,6.9,2.4,15.7-5.4,15.8Z"/><path id="path147-0-8-1-6-75-6-1-2-46-5-0" d="M48.1,223.4c-7.8-.2-11.3-9-5.5-15.8.8-1,.9-1.6-.6-.6-3.9,2.6-11.4.9-11.8-7.1-.5-9.8,13.3-12.7,15.8-2.2.1,1.1,1,1.1.8-.5a32.78,32.78,0,0,0-3.4-12.1h9.3a34.21,34.21,0,0,0-3.4,12.1c-.2,1.6.7,1.6.8.5,2.6-10.4,16.3-7.6,15.8,2.2-.4,8-7.9,9.7-11.8,7.1-1.5-1-1.5-.4-.6.6,6,6.9,2.4,15.7-5.4,15.8Z"/><path id="path147-0-8-1-6-1-1-0-5-61-2-0" d="M89.3,106c-7.8.2-11.3,9-5.5,15.8.8,1,.9,1.6-.6.6-3.9-2.6-11.4-.9-11.8,7.1-.5,9.8,13.3,12.7,15.8,2.2.1-1.1,1-1.1.8.5a32.78,32.78,0,0,1-3.4,12.1h9.3a34.21,34.21,0,0,1-3.4-12.1c-.2-1.6.7-1.6.8-.5,2.6,10.4,16.3,7.6,15.8-2.2-.4-8-7.9-9.7-11.8-7.1-1.5,1-1.5.4-.6-.6,6-6.8,2.5-15.6-5.4-15.8Z"/><path id="path147-6-9-8-7-0-5-6-5-2-8" d="M164.5,209.3c3.1-.1,4.5-3.7,2.2-6.6-.3-.4-.4-.7.2-.3,1.6,1.1,4.6.4,4.7-2.9.2-4.1-5.3-5.3-6.3-.9-.1.5-.4.4-.3-.2a12.48,12.48,0,0,1,1.4-5h-3.7a15,15,0,0,1,1.4,5c.1.7-.3.7-.3.2-1-4.4-6.5-3.2-6.3.9.2,3.3,3.1,4,4.7,2.9.6-.4.6-.2.2.3-2.4,2.9-1,6.5,2.1,6.6Z"/><path id="path147-0-8-1-6-75-2-9-77-4-4-2" d="M48.1,79.7c-7.8.2-11.3,9-5.5,15.8.8,1,.9,1.6-.6.6-3.9-2.6-11.4-.9-11.8,7.1-.5,9.8,13.3,12.7,15.8,2.2.1-1.1,1-1.1.8.5A32.78,32.78,0,0,1,43.4,118h9.3a34.21,34.21,0,0,1-3.4-12.1c-.2-1.6.7-1.6.8-.5,2.6,10.4,16.3,7.6,15.8-2.2-.4-8-7.9-9.7-11.8-7.1-1.5,1-1.5.4-.6-.6,6-6.9,2.4-15.7-5.4-15.8Z"/><path id="path147-0-8-1-6-75-2-8-0-6-4-4" d="M48.1,170.7c-7.8-.2-11.3-9-5.5-15.8.8-1,.9-1.6-.6-.6-3.9,2.6-11.4.9-11.8-7.1-.5-9.8,13.3-12.7,15.8-2.2.1,1.1,1,1.1.8-.5a32.78,32.78,0,0,0-3.4-12.1h9.3a34.21,34.21,0,0,0-3.4,12.1c-.2,1.6.7,1.6.8.5,2.6-10.4,16.3-7.6,15.8,2.2-.4,8-7.9,9.7-11.8,7.1-1.5-1-1.5-.4-.6.6,6,6.8,2.4,15.6-5.4,15.8Z"/><path id="path147-0-8-1-6-75-2-9-7-1-36-2-4" d="M130.6,79.7c-7.8.2-11.3,9-5.5,15.8.8,1,.9,1.6-.6.6-3.9-2.6-11.4-.9-11.8,7.1-.5,9.8,13.3,12.7,15.8,2.2.1-1.1,1-1.1.8.5a32.78,32.78,0,0,1-3.4,12.1h9.3a34.21,34.21,0,0,1-3.4-12.1c-.2-1.6.7-1.6.8-.5,2.6,10.4,16.3,7.6,15.8-2.2-.4-8-7.9-9.7-11.8-7.1-1.5,1-1.5.4-.6-.6,5.9-6.9,2.4-15.7-5.4-15.8Z"/><path id="path147-0-8-1-6-75-2-8-5-1-55-5-4" d="M130.6,170.7c-7.8-.2-11.3-9-5.5-15.8.8-1,.9-1.6-.6-.6-3.9,2.6-11.4.9-11.8-7.1-.5-9.8,13.3-12.7,15.8-2.2.1,1.1,1,1.1.8-.5a32.78,32.78,0,0,0-3.4-12.1h9.3a34.21,34.21,0,0,0-3.4,12.1c-.2,1.6.7,1.6.8.5,2.6-10.4,16.3-7.6,15.8,2.2-.4,8-7.9,9.7-11.8,7.1-1.5-1-1.5-.4-.6.6,5.9,6.8,2.4,15.6-5.4,15.8Z"/><path id="path147-6-9-8-7-4-5-62-7-8-4" d="M14.2,40.4c-3.1.1-4.5,3.7-2.2,6.6.3.4.4.7-.2.3-1.6-1.1-4.6-.4-4.7,2.9-.2,4.1,5.3,5.3,6.3.9.1-.5.4-.4.3.2a12.48,12.48,0,0,1-1.4,5H16a15,15,0,0,1-1.4-5c-.1-.7.3-.7.3-.2,1,4.4,6.5,3.2,6.3-.9-.2-3.3-3.1-4-4.7-2.9-.6.4-.6.2-.2-.3,2.4-2.9,1-6.6-2.1-6.6Z"/><path id="path29-2-3-4" d="M6.8,32.8,9.2,32a4.34,4.34,0,0,0,4.7,3c3.5-.3,4.6-4.2,4.9-7.6a7,7,0,0,1-5.1,2.1c-5.5-.3-7-4.7-7-9.4-.2-3.9,1.5-6.8,4.2-8.1a9.1,9.1,0,0,1,6.3.1c3.4,1.8,4.7,4.9,4.4,12.3,0,6.1-1.3,13.2-7.8,13.3a6.21,6.21,0,0,1-7-4.9Zm9.5-6.7a5.86,5.86,0,0,0,2.3-2.4,4.25,4.25,0,0,0,.4-3c-.3-4.4-2.6-6.9-6-6.4-1.9.3-2.9,1.3-3.5,3.3-1.1,3.6.3,7.8,2.9,8.8a5.22,5.22,0,0,0,3.9-.3Z"/><path id="path29-6-1-3-7" d="M171.9,216.9l-2.4.8a4.34,4.34,0,0,0-4.7-3c-3.5.3-4.6,4.2-4.9,7.6a7,7,0,0,1,5.1-2.1c5.5.3,7,4.7,7,9.4.2,3.9-1.5,6.8-4.2,8.1a9.1,9.1,0,0,1-6.3-.1c-3.4-1.8-4.7-4.9-4.4-12.3,0-6.1,1.3-13.2,7.8-13.3a6.21,6.21,0,0,1,7,4.9Zm-9.5,6.7a5.86,5.86,0,0,0-2.3,2.4,4.25,4.25,0,0,0-.4,3c.3,4.4,2.6,6.9,6,6.4,1.9-.3,2.9-1.3,3.5-3.3,1.1-3.6-.3-7.8-2.9-8.8a5.22,5.22,0,0,0-3.9.3Z"/></g></g></g></svg>