<svg xmlns="http://www.w3.org/2000/svg" viewBox="0 0 178.7 249.6"><defs><style>.cls-1{fill:#fff;stroke:#000;stroke-width:1px;}.cls-2{fill:#d40000;}</style></defs><title>9d</title><g id="Layer_2" data-name="Layer 2"><g id="svg11376"><g id="_9d" data-name="9d"><path id="rect6962-4" class="cls-1" d="M9,.5H169.74A8.46,8.46,0,0,1,178.2,9V240.63a8.45,8.45,0,0,1-8.46,8.47H9A8.45,8.45,0,0,1,.5,240.63V9A8.46,8.46,0,0,1,9,.5Z"/><path id="path6994-9" class="cls-2" d="M14.14,56.32a41.61,41.61,0,0,0-5.78-8,42,42,0,0,0,5.78-8,41.94,41.94,0,0,0,5.77,8A47.86,47.86,0,0,0,14.14,56.32Z"/><path id="path6996-5" class="cls-2" d="M130.62,64.89c-4.09-6.87-8.47-13.45-13.94-19.13,5.47-5.69,9.76-12.27,13.94-19.14,4.08,6.87,8.46,13.45,13.93,19.14C139.08,51.34,134.7,58,130.62,64.89Z"/><path id="path6998-7" class="cls-2" d="M164.56,209.33a41.56,41.56,0,0,0-5.77-8,41.94,41.94,0,0,0,5.77-8,42.43,42.43,0,0,0,5.78,8A39.08,39.08,0,0,0,164.56,209.33Z"/><path id="path7000-7" class="cls-2" d="M48.09,64.89A102.72,102.72,0,0,0,34.15,45.76c5.47-5.69,9.76-12.27,13.94-19.14C52.17,33.49,56.55,40.07,62,45.76,56.55,51.34,52.27,58,48.09,64.89Z"/><path id="path7002-0" class="cls-2" d="M130.62,117.62c-4.09-6.87-8.47-13.45-13.94-19.13,5.47-5.69,9.76-12.26,13.94-19.14a102.74,102.74,0,0,0,13.93,19.14C139.08,104.17,134.7,110.75,130.62,117.62Z"/><path id="path7004-0" class="cls-2" d="M48.09,117.62A102.72,102.72,0,0,0,34.15,98.49c5.47-5.69,9.76-12.26,13.94-19.14A102.74,102.74,0,0,0,62,98.49C56.55,104.17,52.27,110.75,48.09,117.62Z"/><path id="path7008-2" class="cls-2" d="M89.3,143.94c-4.08-6.88-8.46-13.46-13.94-19.14,5.48-5.68,9.76-12.26,13.94-19.14,4.08,6.88,8.46,13.46,13.94,19.14C97.86,130.48,93.48,137.16,89.3,143.94Z"/><path id="path7016-2" class="cls-2" d="M48.09,223.09A102.46,102.46,0,0,0,34.15,204c5.47-5.68,9.76-12.26,13.94-19.14C52.17,191.69,56.55,198.27,62,204,56.55,209.63,52.27,216.21,48.09,223.09Z"/><path id="path7018-0" class="cls-2" d="M130.62,223.09c-4.09-6.88-8.47-13.46-13.94-19.14,5.47-5.68,9.76-12.26,13.94-19.14,4.08,6.88,8.46,13.46,13.93,19.14C139.08,209.63,134.7,216.31,130.62,223.09Z"/><path id="path7020-7" class="cls-2" d="M130.62,170.36c-4.09-6.88-8.47-13.46-13.94-19.14,5.47-5.68,9.76-12.26,13.94-19.14,4.08,6.88,8.46,13.46,13.93,19.14C139.08,156.9,134.7,163.48,130.62,170.36Z"/><path id="path7022-4" class="cls-2" d="M48.09,170.36a102.46,102.46,0,0,0-13.94-19.14c5.47-5.68,9.76-12.26,13.94-19.14C52.17,139,56.55,145.54,62,151.22,56.55,156.8,52.27,163.48,48.09,170.36Z"/><path id="path29-5-3-7-8" class="cls-2" d="M6.87,32.8,9.26,32a4.28,4.28,0,0,0,4.68,3c3.48-.3,4.68-4.19,4.88-7.58a7.06,7.06,0,0,1-5.18,2.1c-5.57-.3-7-4.79-7.07-9.37-.2-3.89,1.5-6.78,4.28-8.08a9.42,9.42,0,0,1,6.37.1c3.39,1.8,4.68,4.89,4.48,12.26,0,6.08-1.29,13.16-7.86,13.36a6.21,6.21,0,0,1-7-5Zm9.36-6.68a5.93,5.93,0,0,0,2.29-2.39,4.23,4.23,0,0,0,.4-3c-.3-4.39-2.59-6.88-6-6.38-1.89.29-2.88,1.29-3.48,3.29-1.1,3.58.3,7.77,2.89,8.77a5.14,5.14,0,0,0,3.88-.3Z"/><path id="path29-6-2-9-2" class="cls-2" d="M171.83,216.91l-2.39.79a4.27,4.27,0,0,0-4.68-3c-3.48.3-4.68,4.19-4.87,7.58a7,7,0,0,1,5.17-2.09c5.58.29,7,4.78,7.07,9.37.2,3.88-1.49,6.77-4.28,8.07a9.3,9.3,0,0,1-6.37-.1c-3.39-1.79-4.68-4.88-4.48-12.26,0-6.08,1.29-13.16,7.86-13.36a6.13,6.13,0,0,1,7,5Zm-9.36,6.67a5.89,5.89,0,0,0-2.29,2.4,4.27,4.27,0,0,0-.39,3c.29,4.38,2.58,6.88,6,6.38,1.89-.3,2.89-1.3,3.48-3.29,1.1-3.59-.3-7.78-2.88-8.77a5.2,5.2,0,0,0-3.89.29Z"/></g></g></g></svg>