<svg xmlns="http://www.w3.org/2000/svg" viewBox="0 0 178.7 249.6"><defs><style>.cls-1{fill:#fff;stroke:#000;stroke-width:1px;}.cls-2{fill:#d40000;}</style></defs><title>9h</title><g id="Layer_2" data-name="Layer 2"><g id="svg11376"><g id="_9h" data-name="9h"><g id="g10208-4-1"><path id="rect10210-5-4" class="cls-1" d="M9,.5H169.74A8.46,8.46,0,0,1,178.2,9V240.63a8.46,8.46,0,0,1-8.46,8.47H9A8.46,8.46,0,0,1,.5,240.63V9A8.46,8.46,0,0,1,9,.5Z"/></g><path id="path10240-7-9" class="cls-2" d="M48.16,117.6s-3.68-6.08-8.76-13.26c-3.38-4.78-6.07-10-6.27-14.45-.3-5.08,2.39-10.27,7.37-10.47s6.87,4,7.66,7.38c.8-3.49,2.79-7.68,7.67-7.38s7.57,5.39,7.37,10.47c-.3,4.48-2.89,9.67-6.28,14.45C51.85,111.52,48.16,117.6,48.16,117.6Z"/><path id="path10242-3-8" class="cls-2" d="M14.22,56.3s-1.8-2.59-4.18-5.59c-1.6-2-2.89-4.18-3-6.08-.1-2.09,1.19-4.28,3.48-4.38s3.29,1.59,3.69,3.09c.39-1.4,1.29-3.19,3.68-3.09s3.58,2.29,3.48,4.38c-.1,1.9-1.39,4-3,6.08C15.91,53.8,14.22,56.3,14.22,56.3Z"/><path id="path10244-4-5" class="cls-2" d="M164.54,193.36s-1.79,2.59-4.18,5.58c-1.59,2-2.89,4.19-3,6.08-.1,2.09,1.19,4.29,3.48,4.39s3.28-1.6,3.68-3.09c.4,1.39,1.3,3.19,3.69,3.09s3.58-2.3,3.48-4.39c-.1-1.89-1.39-4-3-6.08C166.33,195.85,164.54,193.36,164.54,193.36Z"/><path id="path10250-9-0" class="cls-2" d="M48.16,64.87s-3.68-6.08-8.76-13.26c-3.38-4.78-6.07-10-6.27-14.45-.3-5.09,2.39-10.27,7.37-10.47s6.87,4,7.66,7.38c.8-3.49,2.79-7.68,7.67-7.38s7.57,5.38,7.37,10.47c-.3,4.48-2.89,9.67-6.28,14.45C51.85,58.79,48.16,64.87,48.16,64.87Z"/><path id="path10254-7-3" class="cls-2" d="M130.6,117.6s-3.69-6.08-8.77-13.26c-3.38-4.78-6.07-10-6.27-14.45-.3-5.08,2.39-10.27,7.37-10.47s6.87,4,7.66,7.38c.8-3.49,2.79-7.68,7.67-7.38s7.57,5.39,7.37,10.47c-.3,4.48-2.89,9.67-6.27,14.45C134.28,111.52,130.6,117.6,130.6,117.6Z"/><path id="path10256-4-7" class="cls-2" d="M130.6,64.87s-3.69-6.08-8.77-13.26c-3.38-4.78-6.07-10-6.27-14.45-.3-5.09,2.39-10.27,7.37-10.47s6.87,4,7.66,7.38c.8-3.49,2.79-7.68,7.67-7.38s7.57,5.38,7.37,10.47c-.3,4.48-2.89,9.67-6.27,14.45C134.28,58.79,130.6,64.87,130.6,64.87Z"/><path id="path10258-5-9" class="cls-2" d="M89.38,143.92s-3.68-6.08-8.76-13.26c-3.39-4.79-6.07-10-6.27-14.46-.3-5.08,2.39-10.26,7.36-10.46s6.87,4,7.67,7.37c.8-3.48,2.79-7.67,7.67-7.37s7.56,5.38,7.36,10.46c-.3,4.49-2.88,9.67-6.27,14.46C93.06,137.84,89.38,143.92,89.38,143.92Z"/><path id="path10266-8-9" class="cls-2" d="M130.6,132.05s-3.69,6.08-8.77,13.26c-3.38,4.79-6.07,10-6.27,14.45-.3,5.09,2.39,10.27,7.37,10.47s6.87-4,7.66-7.38c.8,3.49,2.79,7.68,7.67,7.38s7.57-5.38,7.37-10.47c-.3-4.48-2.89-9.66-6.27-14.45C134.28,138.13,130.6,132.05,130.6,132.05Z"/><path id="path10268-2-7" class="cls-2" d="M48.16,132.05s-3.68,6.08-8.76,13.26c-3.38,4.79-6.07,10-6.27,14.45-.3,5.09,2.39,10.27,7.37,10.47s6.87-4,7.66-7.38c.8,3.49,2.79,7.68,7.67,7.38s7.57-5.38,7.37-10.47c-.3-4.48-2.89-9.66-6.28-14.45C51.85,138.13,48.16,132.05,48.16,132.05Z"/><path id="path10270-1-4" class="cls-2" d="M130.6,184.78s-3.69,6.09-8.77,13.26c-3.38,4.79-6.07,10-6.27,14.46-.3,5.08,2.39,10.26,7.37,10.46s6.87-4,7.66-7.37c.8,3.48,2.79,7.67,7.67,7.37s7.57-5.38,7.37-10.46c-.3-4.49-2.89-9.67-6.27-14.46C134.28,190.87,130.6,184.78,130.6,184.78Z"/><path id="path10272-0-7" class="cls-2" d="M48.16,184.78S44.48,190.87,39.4,198c-3.38,4.79-6.07,10-6.27,14.46-.3,5.08,2.39,10.26,7.37,10.46s6.87-4,7.66-7.37c.8,3.48,2.79,7.67,7.67,7.37s7.57-5.38,7.37-10.46c-.3-4.49-2.89-9.67-6.28-14.46C51.85,190.87,48.16,184.78,48.16,184.78Z"/><path id="path29-5-8-5-4" class="cls-2" d="M6.85,32.77,9.24,32a4.28,4.28,0,0,0,4.68,3c3.48-.3,4.68-4.19,4.88-7.58a7.05,7.05,0,0,1-5.18,2.09c-5.58-.3-7-4.78-7.07-9.37C6.35,16.23,8,13.33,10.83,12a9.3,9.3,0,0,1,6.37.1c3.39,1.79,4.68,4.88,4.48,12.26,0,6.08-1.29,13.16-7.86,13.36a6.21,6.21,0,0,1-7-5Zm9.46-6.68A5.81,5.81,0,0,0,18.6,23.7a4.27,4.27,0,0,0,.4-3c-.3-4.38-2.59-6.88-6-6.38-1.89.3-2.89,1.3-3.48,3.29-1.1,3.59.3,7.78,2.88,8.77a5.24,5.24,0,0,0,3.89-.3Z"/><path id="path29-6-2-3-6-6" class="cls-2" d="M171.91,216.88l-2.39.8a4.28,4.28,0,0,0-4.68-3c-3.48.3-4.68,4.19-4.88,7.57a7.09,7.09,0,0,1,5.18-2.09c5.58.3,7,4.79,7.07,9.37.2,3.89-1.49,6.78-4.28,8.08a9.42,9.42,0,0,1-6.37-.1c-3.39-1.8-4.68-4.89-4.48-12.27,0-6.08,1.29-13.15,7.86-13.35a6.26,6.26,0,0,1,7,5Zm-9.46,6.68a5.93,5.93,0,0,0-2.29,2.39,4.29,4.29,0,0,0-.4,3c.3,4.39,2.59,6.88,6,6.38,1.89-.3,2.88-1.29,3.48-3.29,1.1-3.59-.3-7.77-2.89-8.77a5.14,5.14,0,0,0-3.88.3Z"/></g></g></g></svg>