<svg xmlns="http://www.w3.org/2000/svg" viewBox="0 0 178.7 249.6"><defs><style>.cls-1{fill:#fff;stroke:#000;stroke-width:1px;}</style></defs><title>9s</title><g id="Layer_2" data-name="Layer 2"><g id="svg11376"><g id="_9s" data-name="9s"><path id="rect7195-8-7" class="cls-1" d="M9,.5H169.74A8.46,8.46,0,0,1,178.2,9V240.63a8.46,8.46,0,0,1-8.46,8.47H9A8.46,8.46,0,0,1,.5,240.63V9A8.46,8.46,0,0,1,9,.5Z"/><path id="path7225-5-2" d="M48.19,26.62C40.82,37.08,33,43.16,32.86,51.34c0,2.69,1.39,7.17,5.87,8,2.89.6,6.87-1.79,7-6.58,0-1,1-.89,1,.4a25.68,25.68,0,0,1-3.38,11.76H53a28.26,28.26,0,0,1-3.39-11.76c0-1.29,1-1.29,1-.4.1,4.79,4.08,7.18,7,6.58,4.48-.9,5.88-5.38,5.88-8C63.32,43.16,55.45,37.08,48.19,26.62Z"/><path id="path7227-2-8" d="M14.14,40.37C10.75,44.76,7.07,47.25,7,50.64A3.46,3.46,0,0,0,9.76,54,2.93,2.93,0,0,0,13,51.24c0-.4.5-.4.5.2A10.17,10.17,0,0,1,12,56.32h4.48a11.24,11.24,0,0,1-1.59-4.88c0-.5.49-.6.49-.2A2.89,2.89,0,0,0,18.62,54a3.39,3.39,0,0,0,2.79-3.39c-.1-3.39-3.79-5.88-7.27-10.27Z"/><path id="path7229-4-8" d="M48.19,170.36C40.82,159.89,33,153.81,32.86,145.63c0-2.69,1.39-7.17,5.87-8,2.89-.6,6.87,1.79,7,6.58,0,1,1,.9,1-.4a25.72,25.72,0,0,0-3.38-11.76H53a28.3,28.3,0,0,0-3.39,11.76c0,1.3,1,1.3,1,.4.1-4.79,4.08-7.18,7-6.58,4.48.9,5.88,5.38,5.88,8C63.32,153.81,55.45,159.89,48.19,170.36Z"/><path id="path7231-7-8" d="M164.56,209.33c-3.38-4.39-7.06-6.88-7.16-10.27a3.46,3.46,0,0,1,2.78-3.39,2.93,2.93,0,0,1,3.29,2.8c0,.39.5.39.5-.2a10.11,10.11,0,0,0-1.6-4.89h4.48a11.41,11.41,0,0,0-1.59,4.89c0,.49.5.59.5.2a2.88,2.88,0,0,1,3.28-2.8,3.39,3.39,0,0,1,2.79,3.39c-.2,3.39-3.88,5.88-7.27,10.27Z"/><path id="path7233-8-9" d="M130.62,26.62c-7.37,10.46-15.23,16.54-15.33,24.72,0,2.69,1.39,7.17,5.87,8,2.89.6,6.87-1.79,7-6.58,0-1,1-.89,1,.4a25.68,25.68,0,0,1-3.38,11.76h9.66A28.26,28.26,0,0,1,132,53.13c0-1.29,1-1.29,1-.4.1,4.79,4.08,7.18,7,6.58,4.48-.9,5.87-5.38,5.87-8C145.85,43.16,138,37.08,130.62,26.62Z"/><path id="path7235-9-4" d="M48.19,79.35C40.82,89.81,33,95.89,32.86,104.07c0,2.69,1.39,7.17,5.87,8,2.89.6,6.87-1.79,7-6.58,0-1,1-.89,1,.4a25.68,25.68,0,0,1-3.38,11.76H53a28.26,28.26,0,0,1-3.39-11.76c0-1.29,1-1.29,1-.4.1,4.79,4.08,7.18,7,6.58,4.48-.89,5.88-5.38,5.88-8C63.32,95.89,55.45,89.81,48.19,79.35Z"/><path id="path7241-7-2" d="M130.62,79.35c-7.37,10.46-15.23,16.54-15.33,24.72,0,2.69,1.39,7.17,5.87,8,2.89.6,6.87-1.79,7-6.58,0-1,1-.89,1,.4a25.68,25.68,0,0,1-3.38,11.76h9.66A28.26,28.26,0,0,1,132,105.86c0-1.29,1-1.29,1-.4.1,4.79,4.08,7.18,7,6.58,4.48-.89,5.87-5.38,5.87-8C145.85,95.89,138,89.81,130.62,79.35Z"/><path id="path7245-1-6" d="M48.19,223.09C40.82,212.62,33,206.54,32.86,198.37c0-2.7,1.39-7.18,5.87-8,2.89-.6,6.87,1.8,7,6.58,0,1,1,.9,1-.4a25.72,25.72,0,0,0-3.38-11.76H53a28.3,28.3,0,0,0-3.39,11.76c0,1.3,1,1.3,1,.4.1-4.78,4.08-7.18,7-6.58,4.48.9,5.88,5.38,5.88,8-.1,8.17-8,14.25-15.23,24.72Z"/><path id="path7247-0-6" d="M130.62,223.09c-7.37-10.47-15.23-16.55-15.33-24.72,0-2.7,1.39-7.18,5.87-8,2.89-.6,6.87,1.8,7,6.58,0,1,1,.9,1-.4a25.72,25.72,0,0,0-3.38-11.76h9.66A28.3,28.3,0,0,0,132,196.57c0,1.3,1,1.3,1,.4.1-4.78,4.08-7.18,7-6.58,4.48.9,5.87,5.38,5.87,8,0,8.17-7.87,14.25-15.23,24.72Z"/><path id="path7251-3-6" d="M130.62,170.36c-7.37-10.47-15.23-16.55-15.33-24.73,0-2.69,1.39-7.17,5.87-8,2.89-.6,6.87,1.79,7,6.58,0,1,1,.9,1-.4a25.72,25.72,0,0,0-3.38-11.76h9.66A28.3,28.3,0,0,0,132,143.84c0,1.3,1,1.3,1,.4.1-4.79,4.08-7.18,7-6.58,4.48.9,5.87,5.38,5.87,8C145.85,153.81,138,159.89,130.62,170.36Z"/><path id="path7255-7-8" d="M89.4,105.76C82,116.23,74.17,122.31,74.07,130.48c0,2.69,1.39,7.18,5.87,8,2.89.6,6.87-1.8,7-6.58,0-1,1-.9,1,.4A25.73,25.73,0,0,1,84.52,144h9.66a28.28,28.28,0,0,1-3.38-11.76c0-1.3,1-1.3,1-.4.1,4.78,4.08,7.18,7,6.58,4.48-.9,5.87-5.39,5.87-8C104.53,122.21,96.67,116.23,89.4,105.76Z"/><path id="path29-33-4-4" d="M6.87,32.8,9.26,32a4.28,4.28,0,0,0,4.68,3c3.48-.3,4.68-4.19,4.88-7.58a7.06,7.06,0,0,1-5.18,2.1c-5.57-.3-7-4.79-7.07-9.37-.2-3.89,1.5-6.78,4.28-8.08a9.42,9.42,0,0,1,6.37.1c3.39,1.8,4.68,4.89,4.48,12.26,0,6.08-1.29,13.16-7.86,13.36a6.19,6.19,0,0,1-7-5Zm9.46-6.68a5.93,5.93,0,0,0,2.29-2.39,4.23,4.23,0,0,0,.4-3c-.3-4.39-2.59-6.88-6-6.38-1.89.29-2.88,1.29-3.48,3.29-1.1,3.58.3,7.77,2.89,8.77a5.22,5.22,0,0,0,3.88-.3Z"/><path id="path29-33-3-8-6" d="M171.93,216.91l-2.39.79a4.27,4.27,0,0,0-4.68-3c-3.48.3-4.68,4.19-4.87,7.58a7,7,0,0,1,5.17-2.09c5.58.29,7,4.78,7.07,9.37.2,3.88-1.49,6.77-4.28,8.07a9.3,9.3,0,0,1-6.37-.1c-3.39-1.79-4.68-4.88-4.48-12.26,0-6.08,1.29-13.16,7.86-13.36a6.25,6.25,0,0,1,7,5Zm-9.46,6.67a5.89,5.89,0,0,0-2.29,2.4,4.27,4.27,0,0,0-.39,3c.3,4.38,2.58,6.88,6,6.38,1.89-.3,2.89-1.3,3.48-3.29,1.1-3.59-.29-7.78-2.88-8.77a5.2,5.2,0,0,0-3.89.29Z"/></g></g></g></svg>