<svg xmlns="http://www.w3.org/2000/svg" viewBox="0 0 178.8 249.6"><defs><style>.cls-1{fill:#fff;stroke:#000;stroke-width:1px;}</style></defs><title>Ac</title><g id="Layer_2" data-name="Layer 2"><g id="svg11376"><g id="Ac"><path id="rect6355-6-85-9-3-2" class="cls-1" d="M9,.5H169.8A8.49,8.49,0,0,1,178.3,9V240.6a8.49,8.49,0,0,1-8.5,8.5H9a8.49,8.49,0,0,1-8.5-8.5V9A8.49,8.49,0,0,1,9,.5Z"/><path id="path147-0-8-1-6-1-1-0-9-1-8" d="M89.4,106c-7.8.2-11.3,9-5.5,15.8.8,1,.9,1.6-.6.6-3.9-2.6-11.4-.9-11.8,7.1-.5,9.8,13.3,12.7,15.8,2.2.1-1.1,1-1.1.8.5a32.78,32.78,0,0,1-3.4,12.1H94a34.21,34.21,0,0,1-3.4-12.1c-.2-1.6.7-1.6.8-.5,2.6,10.4,16.3,7.6,15.8-2.2-.4-8-7.9-9.7-11.8-7.1-1.5,1-1.5.4-.6-.6,6-6.8,2.4-15.6-5.4-15.8Z"/><path id="path147-6-9-8-7-0-5-0-8-3" d="M164.6,209.3c3.1-.1,4.5-3.7,2.2-6.6-.3-.4-.4-.7.2-.3,1.6,1.1,4.6.4,4.7-2.9.2-4.1-5.3-5.3-6.3-.9-.1.5-.4.4-.3-.2a12.48,12.48,0,0,1,1.4-5h-3.7a15,15,0,0,1,1.4,5c.1.7-.3.7-.3.2-1-4.4-6.5-3.2-6.3.9.2,3.3,3.1,4,4.7,2.9.6-.4.6-.2.2.3-2.4,2.9-1,6.5,2.1,6.6Z"/><path id="path41-6-3-5-1" d="M6.2,37.9V35.6H8.3l4.6-24.1h2.6l5,24.1h1.7v2.3H16.3V35.6h1.6l-.6-3.7h-6l-.5,3.7h1.6v2.3Zm10.6-8.6L14.2,16.4,11.8,29.3Z"/><path id="path41-6-4-0-2-8" d="M156.6,211.8v2.3h2.1l4.6,24.1h2.6l5-24.1h1.7v-2.3h-5.9v2.3h1.6l-.6,3.7h-6l-.5-3.7h1.6v-2.3Zm10.6,8.6-2.6,12.9-2.4-12.9Z"/><path id="path147-6-9-8-7-4-5-6-8-9" d="M14.2,40.4c-3.1.1-4.5,3.7-2.2,6.6.3.4.4.7-.2.3-1.6-1.1-4.6-.4-4.7,2.9-.2,4.1,5.3,5.3,6.3.9.1-.5.4-.4.3.2a12.48,12.48,0,0,1-1.4,5H16a15,15,0,0,1-1.4-5c-.1-.7.3-.7.3-.2,1,4.4,6.5,3.2,6.3-.9-.2-3.3-3.1-4-4.7-2.9-.6.4-.6.2-.2-.3,2.5-2.9,1.1-6.6-2.1-6.6Z"/></g></g></g></svg>