<svg xmlns="http://www.w3.org/2000/svg" viewBox="0 0 178.71 249.6"><defs><style>.cls-1{fill:#fff;stroke:#000;stroke-width:1px;}.cls-2{fill:#d40000;}</style></defs><title>Ad</title><g id="Layer_2" data-name="Layer 2"><g id="svg11376"><g id="Ad"><path id="rect6367-6" class="cls-1" d="M9,.5H169.74A8.47,8.47,0,0,1,178.21,9V240.63a8.46,8.46,0,0,1-8.47,8.47H9A8.46,8.46,0,0,1,.5,240.63V9A8.34,8.34,0,0,1,9,.5Z"/><path id="path6399-9" class="cls-2" d="M14.14,56.32a41.56,41.56,0,0,0-5.77-8,41.94,41.94,0,0,0,5.77-8,42,42,0,0,0,5.78,8A38.71,38.71,0,0,0,14.14,56.32Z"/><path id="path6403-1" class="cls-2" d="M164.47,209.33a42,42,0,0,0-5.78-8,42.43,42.43,0,0,0,5.78-8,41.94,41.94,0,0,0,5.77,8A42.77,42.77,0,0,0,164.47,209.33Z"/><path id="path6413-1" class="cls-2" d="M89.3,143.94c-4.08-6.88-8.46-13.46-13.93-19.14,5.47-5.68,9.75-12.26,13.93-19.14,4.09,6.88,8.47,13.46,13.94,19.14C97.77,130.48,93.49,137.16,89.3,143.94Z"/><path id="path41-87-9-4-8" class="cls-2" d="M6.08,37.88V35.59H8.27l4.58-24h2.59l5.07,24H22.2v2.29H16.33V35.59h1.59l-.59-3.69h-6l-.49,3.69h1.59v2.29Zm10.65-8.57L14.14,16.45,11.75,29.31Z"/><path id="path41-8-5-6-1" class="cls-2" d="M156.4,211.82v2.3h2.19l4.58,24h2.59l5.08-24h1.69v-2.3h-5.87v2.3h1.59l-.6,3.68h-6l-.5-3.68h1.59v-2.3Zm10.66,8.58-2.59,12.85-2.39-12.85Z"/></g></g></g></svg>