<svg xmlns="http://www.w3.org/2000/svg" viewBox="0 0 178.71 249.6"><defs><style>.cls-1{fill:#fff;stroke:#000;stroke-width:1px;}.cls-2{fill:#d40000;}</style></defs><title>Ah</title><g id="Layer_2" data-name="Layer 2"><g id="svg11376"><g id="Ah"><g id="g9664-0-2"><path id="rect9666-2-2" class="cls-1" d="M9,.5H169.74A8.47,8.47,0,0,1,178.21,9V240.63a8.47,8.47,0,0,1-8.47,8.47H9A8.47,8.47,0,0,1,.5,240.63V9A8.34,8.34,0,0,1,9,.5Z"/></g><path id="path9698-0-0" class="cls-2" d="M14.09,56.3s-1.79-2.59-4.18-5.59c-1.6-2-2.89-4.18-3-6.08-.1-2.09,1.2-4.28,3.49-4.38s3.28,1.59,3.68,3.09c.4-1.4,1.29-3.19,3.68-3.09s3.59,2.29,3.49,4.38c-.1,1.9-1.4,4-3,6.08C15.88,53.8,14.09,56.3,14.09,56.3Z"/><path id="path9700-3-2" class="cls-2" d="M164.51,193.36s-1.79,2.59-4.18,5.58c-1.59,2-2.88,4.19-3,6.08-.1,2.09,1.19,4.29,3.48,4.39s3.29-1.6,3.68-3.09c.4,1.39,1.3,3.19,3.69,3.09s3.58-2.3,3.48-4.39c-.1-1.89-1.39-4-3-6.08C166.31,195.85,164.51,193.36,164.51,193.36Z"/><path id="path9714-6-6" class="cls-2" d="M89.35,143.92s-3.68-6.08-8.76-13.26c-3.38-4.79-6.07-10-6.27-14.46-.3-5.08,2.39-10.26,7.37-10.46s6.86,4,7.66,7.37c.8-3.48,2.79-7.67,7.67-7.37s7.56,5.38,7.36,10.46c-.29,4.49-2.88,9.67-6.27,14.46C93,137.84,89.35,143.92,89.35,143.92Z"/><path id="path41-87-8-3-9" class="cls-2" d="M6.12,37.86v-2.3H8.31l4.58-24h2.59l5.08,24h1.69v2.3h-6v-2.3h1.59l-.6-3.68h-6l-.5,3.68h1.6v2.3Zm10.56-8.58L14.09,16.42,11.7,29.28Z"/><path id="path41-8-5-1-8-7" class="cls-2" d="M156.45,211.8v2.29h2.19l4.58,24h2.59l5.08-24h1.69V211.8h-6v2.29h1.6l-.6,3.69h-6l-.5-3.69h1.59V211.8Zm10.65,8.57-2.59,12.86-2.38-12.86Z"/></g></g></g></svg>