<svg xmlns="http://www.w3.org/2000/svg" viewBox="0 0 178.7 249.6"><defs><style>.cls-1{fill:#fff;stroke:#000;stroke-width:1px;}</style></defs><title>As</title><g id="Layer_2" data-name="Layer 2"><g id="svg11376"><g id="As"><path id="rect6355-6-85-62-9-7" class="cls-1" d="M9,.5H169.74A8.46,8.46,0,0,1,178.2,9V240.63a8.46,8.46,0,0,1-8.46,8.47H9A8.46,8.46,0,0,1,.5,240.63V9A8.46,8.46,0,0,1,9,.5Z"/><path id="path153-0-1-2-5-5-5-3-4" d="M14.24,40.37c-3.39,4.39-7.07,6.88-7.17,10.27A3.46,3.46,0,0,0,9.86,54a2.93,2.93,0,0,0,3.28-2.79c0-.4.5-.4.5.2a10.17,10.17,0,0,1-1.59,4.88h4.48a11.24,11.24,0,0,1-1.59-4.88c0-.5.49-.6.49-.2A2.89,2.89,0,0,0,18.72,54a3.39,3.39,0,0,0,2.79-3.39C21.31,47.25,17.62,44.76,14.24,40.37Z"/><path id="path153-0-1-2-5-6-5-9-1-9" d="M164.56,209.33c-3.38-4.39-7.06-6.88-7.16-10.27a3.46,3.46,0,0,1,2.78-3.39,2.93,2.93,0,0,1,3.29,2.8c0,.39.5.39.5-.2a10.11,10.11,0,0,0-1.6-4.89h4.48a11.41,11.41,0,0,0-1.59,4.89c0,.49.5.59.5.2a2.88,2.88,0,0,1,3.28-2.8,3.39,3.39,0,0,1,2.79,3.39c-.2,3.39-3.88,5.88-7.27,10.27Z"/><path id="path153-6-3-1-6-92-7-2-9-8" d="M89.4,105.76C82,116.23,74.17,122.31,74.07,130.48c0,2.69,1.39,7.18,5.87,8,2.89.6,6.87-1.8,7-6.58,0-1,1-.9,1,.4A25.73,25.73,0,0,1,84.52,144h9.66a28.28,28.28,0,0,1-3.38-11.76c0-1.3,1-1.3,1-.4.1,4.78,4.08,7.18,7,6.58,4.48-.9,5.87-5.39,5.87-8C104.63,122.21,96.77,116.23,89.4,105.76Z"/><path id="path41-4-9-2" d="M6.17,37.88V35.59h2.2l4.57-24h2.59l5.08,24H22.3v2.29H16.43V35.59H18l-.6-3.69h-6L11,35.59h1.6v2.29Zm10.66-8.57L14.24,16.45,11.85,29.31Z"/><path id="path41-4-2-4-0" d="M156.5,211.82v2.29h2.19l4.58,24h2.59l5.08-24h1.69v-2.29h-5.87v2.29h1.59l-.6,3.69h-6l-.5-3.69h1.59v-2.29Zm10.65,8.57-2.59,12.86-2.38-12.86Z"/></g></g></g></svg>