<svg xmlns="http://www.w3.org/2000/svg" viewBox="0 0 178.7 249.6"><defs><style>.cls-1{fill:#fff;stroke:#000;stroke-width:1px;}.cls-2{fill:#e2cf00;}.cls-3{fill:#131f67;}.cls-4{fill:#d40000;}</style></defs><title>Jc</title><g id="Layer_2" data-name="Layer 2"><g id="svg11376"><g id="Jc"><g id="g11322-4-2"><path id="rect6355-6-85-3-39-1-8" class="cls-1" d="M9,.5H169.74A8.46,8.46,0,0,1,178.2,9V240.63a8.46,8.46,0,0,1-8.46,8.47H9A8.46,8.46,0,0,1,.5,240.63V9A8.46,8.46,0,0,1,9,.5Z"/><path id="path147-6-9-8-7-0-5-6-79-2-4" d="M164.56,209.23c3.09-.1,4.58-3.79,2.19-6.58-.29-.4-.39-.7.2-.3,1.6,1.1,4.58.4,4.68-3,.2-4.08-5.27-5.28-6.37-.89-.1.49-.4.49-.3-.2a13.37,13.37,0,0,1,1.4-5.09h-3.69a14.83,14.83,0,0,1,1.4,5.09c.1.69-.3.69-.3.2-1-4.39-6.47-3.19-6.37.89.2,3.29,3.18,4,4.68,3,.59-.4.59-.2.19.3-2.19,2.89-.79,6.58,2.29,6.58Z"/><path id="path147-6-9-8-7-4-5-62-3-3-7" d="M14.24,40.27c-3.09.1-4.58,3.79-2.19,6.58.3.4.4.7-.2.3-1.59-1.1-4.58-.4-4.68,3-.2,4.09,5.28,5.28,6.37.9.1-.5.4-.5.3.2a13.49,13.49,0,0,1-1.39,5.08h3.68a14.76,14.76,0,0,1-1.39-5.08c-.1-.7.3-.7.3-.2,1,4.38,6.47,3.19,6.37-.9-.2-3.29-3.19-4-4.68-3-.6.4-.6.2-.2-.3,2.19-2.79.79-6.48-2.29-6.58Z"/><path id="path35-5-6-2" d="M14.14,11.47v2.79h2.69s.1,2.69.1,8.27.1,8.17-.2,9.77c-.9,3.59-6.17,3.59-7.17,1-.6-1.5-.4-2.7-.5-4.19H6.17V30.8c0,4,1.4,6,4.48,6.78s7-.5,8.27-3.19c.79-1.59.69-1.69.69-11.16,0-6.28.1-9,.1-9H22.2V11.47Z"/><path id="path35-6-4-1-2" d="M164.66,238v-2.79H162s-.1-2.69-.1-8.28-.1-8.17.2-9.77c.89-3.58,6.17-3.58,7.16-1,.6,1.49.4,2.69.5,4.18h2.89V218.7c0-4-1.4-6-4.48-6.78s-7,.5-8.26,3.19c-.8,1.6-.7,1.7-.7,11.17,0,6.28-.1,9-.1,9H156.6V238Z"/></g><g id="g5275-8-4-5"><g id="layer1-1-8-4-5"><g id="g3799-8-1-3"><path id="path3306-4-9-5" class="cls-2" d="M129.21,24.33c.68-1,3.63,5.83,5.52,11,.93,2.55,2.18,4.63,1.66,5.29C135,42,131.56,40.75,129,38.8a22.69,22.69,0,0,1-4.63-5.17ZM153,29.38l.11,4A91.34,91.34,0,0,0,144.45,42l9.06,0c-.08,49.24.07,147.91.07,147.91s-10.07-10.24-9.82-10.27c0,0-.29-59.61-.33-99.71-.07-.19,5.26-.2,5.6-2.83.24-1.73-5.6-1.48-5.69-1.61,0-18,0-30.74,0-30.74l-5.36-.17ZM121.53,47.94c.77,1.55,2,7.53,3,7.39,4.35-1.44,5.76,5,1.25,5.34-1.71.12-3.61-2.11-4.67-4.89-.51-1.45,0-8.43.46-7.84Zm-1,9c1.28,2.11,2.52,9.8,4.86,9.37a2.72,2.72,0,0,1,3.3,3c-1.09,4.62-8.91.23-11-.84A53.62,53.62,0,0,0,120.54,56.9Zm16.52,21.69c-1.79,4.06-1.31,7.41.22,11.49-4.64,2-9.23,4.39-13.81,6.79,0,0-.23-16,1.3-23.36.52-1.11,2.41-.21,3.49.33a74.54,74.54,0,0,1,8.8,4.75ZM54.6,152.24c.94,7.57.26,19.35-1.08,24-.51,1.59-11.29-5.53-12.07-6,2.13-3.94-.77-13.11-.46-11.48.74-.53,13.36-7.29,13.61-6.51Zm4.62,31.42c-.2.48-1,6.16-1.24,6.18-.82.07-2-5.56-4.11-7.42-3.93.45-4.39-2.22-3.62-3.52-.19-.57,1.26-1.8,2.63-1.69C56.26,178.56,60.83,179.74,59.22,183.66Zm45.13,9.68s-3,16.68-3,16.65c-7.31,1-14.35,2.28-20.86,1.53,1.28-17.33,3.3-32.31,8.86-34.92l-11.51-9.29s-12.77,8-12,7.88c.31-.09.57-6.79.76-17.65-.33-28.34-16.57-57-17.2-56.73-.34-.23,13.83-1.35,24,3.08l.46-37.53s-5.06-2.53-6-3.7C66,56.13,71,54.47,74.06,56.09c1.41-5,3.55-17.23,3.63-17.21a94.86,94.86,0,0,1,20.82-1.62,109,109,0,0,0-2.28,16C95.35,61.88,93.58,70.09,89,72c.8-.32,11.34,8.92,11.34,8.92L113.18,73c-4.13,27,2.94,53.22,15.14,74.44-6.16.72-13.11.38-24-2.88,0,0,.61,37.6.61,37.38,12,4.76,5.48,14-.61,11.37ZM57.6,196.71c0,.39-.21,4.62-.21,4.62-1.7-2-3.07-7.88-3.41-7.79,0,0-2.19.34-2.87-.38-2.22-2.38,0-5.17,2.18-4.64s4.62,4.37,4.31,8.19ZM35,69.25s.47,66.67.46,100.08c-8.41-.12-6.76,4.56.11,4.06V204.2l4.55.16s-8.56,9-14,14.72L26,216.16l8.27-8.95H25.72l0-147.84ZM49.31,224.1c-2.07.45-4.25-9.15-7.84-15,4.09-2.46,10.54,2.22,12,6C52.5,218.28,49.24,224.07,49.31,224.1Z"/><path id="path3304-4-6-6" class="cls-3" d="M154.71,230V19.52H24.1V230Zm-43.28-44.33c-.17-.34-.47-.82-.47-.82a2.12,2.12,0,0,0,.54-.23c15.14-5.64,31.33-18.17,31.61-18.54V180l10,10.61v37.62H113.74L102.2,208.82c.7-5.09,2.5-14.92,2.5-14.92,1.06.26,4.63.59,6.57-2.19.9-1.35,1.39-3.15.16-6ZM37.63,142.4l-1.5,1.91,2.64-.12-1.81,2,2.92.06-2.27,1.94,3.07,0L38.4,150.1l3.36-.16L39.36,152l3.31,0-2.48,2.1,3.25,0L41.33,156l2.84,0L41,158.32a13.49,13.49,0,0,0-5.06-1l0-15.23Zm-2.3,26.43c-7.5,0-9.1,4,0,4.64-.17,10.13.4,30.39.4,30.39l4.94.12s-13.23,14.37-14.47,15.53C25,171.25,25.07,59.21,25.07,59.21L35.18,69.37l.1,31.68c3.38,3.44,5.33,8.47,7.35,11.72l5.52,2.7-1.3,4.47.56,1.27,1.73-6.31-6-2.89-.65-1.3,1-6-5.72-2-1-1.36.35-5.82-1.2-.35V94.1l1.19.09.43-6.53-1.62-.48V85.71s.94,0,1.4,0A8.52,8.52,0,0,1,39,87.46l-.57,7.24,7.25,1.46.54.78-1.35,7.24,7.62,2.34c-.78-1.94-1.82-3.74-2.68-5.64,1.05-.31,2.14-.38,3.19-.61.3-9.79,0-20,.26-29.18,6.13-.45,3.26.14,5.93.11a1.91,1.91,0,0,0,1-3.5l1-.38,1.85,2.1-3.86,3.72,0,1.07,4.8-4.82L62,67l1.24-.65,1.89,2s4.08-4.19,3.83-4.26a1.27,1.27,0,0,1-.51-.47c-2.9-6.3,1.06-9.31,5.85-7.57,1.21-5.8,2.37-11,3.33-17,3.58-1.36,20.39-2.14,20.58-1.83,0,0,.43.4.44.61s.48-.56.48-.56c0-.36,14.66.37,21.89,1.75a5.94,5.94,0,0,1,.09,1.61c-.12,1.85,0,1.83-1.65,1.55-3.41-.23-6.06.95-7.11,4-.58,1.69-.31,3.21.59,7.74s.88,3.92.78,4.51a4.92,4.92,0,0,1-1.94,2.36c-.8.67-.89,1.91-.25,1.21a4.74,4.74,0,0,1,2-1.26c1.66-.86,1.6-1.72.63-5.32-.46-1.69-.94-3.52-1-3.72,0-.67.19-.39,1.18.3a21,21,0,0,0,2,1.22c2,1.07,1.11-.11-.8-1.38-1.5-1.12-1.76-1.6-.45-1.07a7.06,7.06,0,0,0,4.75-.26c.3-.17.51-.14.56.12.06.42-.19,1.49-.29,3.94-.28,6.19-1.73,12.8-5.84,16.61-5.86,5.46-15.5,1.76-20.85-3.3l-.59.88c3.6,3,9.81,6.81,15.88,6.09-2.53,2.12-8.13,5.64-8.13,5.64-3.84-2.79-6.67-5.58-10.88-8.61l-.74.48,11.57,9.23L113,73.24l-.71,10.82,5.42-4.81-4.18-6.2,4.43-4.58s-.74.11.06-1.3c1.25-2.54,2-6.62,2.57-10.78-.1-3.1.65-6.53.88-9.28a25.13,25.13,0,0,0,1.84,6.24c.86,2.23,1.2,2.22,2.17,1.89,5.29-.45,2.9,9.82-3.36,3.1-.28-.28-.72-.63-.74-.55a37.35,37.35,0,0,0,2.34,7.05c.73,1.32.75,1.51,1.83,1.4,2-.22,2.71.51,2.93,2.67-.28,4.06-4.65,2.36-7.45,1.1-.25-.2,1.31,1.44,1.88,2a3.15,3.15,0,0,1,.89,1.28l-.17,2.16-4.29,3.94,3.54,5.24-.14,1.88L119,91.07l4,4.39L123,97l-3.27,4.37,4.38,3.54.21,1.41s-2.8,5.23-2.73,5.42,4.75,3.41,4.75,3.41l.47,2.2-2,5.59,4.86,2.79.89,2.53-1.37,5.16,5,2.34,1.43,2.92-.94,5.43,5.64,1.67,1.5,2.39-.2,4.78,1.39.14,0,1.18-1.54,0a8.89,8.89,0,0,1-.05,2.53c-.29,4-.32,3.86.64,4,2,.36,1.54,1.6-.51,1.37a6.46,6.46,0,0,1-.8-.11c-.54-.11-1-.81-1-.81l.45-7.41L133,152.67l-.68-.93,1.21-6.87-6.79-2-.91-1.66,1.93-7.14-6.84-3-.44-1.32,2.9-6.34-6.28-3.08-.4-1.52,3.48-6.54L113,107s.2.51.48,1.38l5.76,4.13-2.92,5.58s-.23-.4-.48-.32c.14.93.26,1.86.33,2.79l3,7.77-9.6,6.49c4.11,2.48,9.3,2.4,14.06,3.33a6.73,6.73,0,0,0,.57,1.27c1.38,2.24,2.63,5.07,4.18,8a9.68,9.68,0,0,1-2.86.71c-1.69,9.55-3.36,20.55-6.06,28.87a2.14,2.14,0,0,0-2.13,2.14,2.12,2.12,0,0,0,.74,1.61c-.26.08-.54.16-.83.22s-2-1.74-2-1.74l4-4,0-1.32c-1.62,1.7-5.16,5.34-5.16,5.34l2.13,2.25-1,.5L113.45,180l-3.89,4-1-.68a46,46,0,0,1,4.12-4.33c-1-1.21-5-5.06-5-5.06v1.32l3.91,3.8-3.8,3.82-.21.25s-3-1.31-3.21-1.31c1.28,1.06,3.58,2,4.83,2.89,5.66,3.36.27,10.31-4.94,8.59-.15-.56-2.89,14.66-2.58,15.51-.27,2.36-.34,2,.48,3.38,2.44,5.65,9.53,16.31,9.53,16.31L47.84,229a25.56,25.56,0,0,0,1.84-3.9,22.5,22.5,0,0,1-4.91-8.7,15.78,15.78,0,0,0-3.62-7.18c0-.06.06-.16.17-.22,5-1.78,10.81,2.55,12.57,7.49l2.9-4.74c-1.31-.16,19.3,2.36,24.34,1.72-.45-.09-1-.47-.68-1.89.51-2.45,1.44-11.34,1.44-11.34,1-8.64,1.8-19.52,7.46-23.1a10.18,10.18,0,0,0-1.62-1.41s.67.71.7.79a.68.68,0,0,1-.31.54,13.92,13.92,0,0,0-2.62,3.07c-4.69-4.09-12-7.6-16.43-6.14-1.75.37-2.52,2.06-3.44.68a98.4,98.4,0,0,0,.64-22c-.72-14.31-3.87-22.52-7-32.67,1.6-.57,9.82-6.11,9.82-6.11,0-.69-9.92-3-13.83-2.6,0,0-.81-.79-.81-.62l.08.15a1.91,1.91,0,0,0,.91,3.57,1.79,1.79,0,0,0,.57-.09c.5,1.21.91,2.28.91,2.28l-5.54-2.42,1.81-6.1-.6-1.35-2.21,7.94,7.07,3,.47,1.42L55,125l6.33,3.77.26,1.2-3.39,6.47,6.12,4.73L59.86,147l5.5,4.66-.06.77-4.56,5.29,4.72,4.89.14,2-5.16,4.59,4.45,6.48a20.45,20.45,0,0,0-4.11,4.1l-1.08-.48,3.95-3-4.21-6.13-4.44,4,2.4,4-1.46-.67-1.34-2.12.21-2.16,4.4-4-3.78-5.49,0-1s2.34-2.71,4.06-4.73l-4.79-5.3,3.92-5-4.92-4.22.14,1.28,3.63,3.08-2.8,3.4c-.2,2,.25,5.55-.8,7.1,1.68,1.66.8,5.65,0,6.94,1.6,1.91.69,6.11-.34,6.28,1.22,1.55.74,4.68-.29,5.69-.33.17,4.38,1.88,7.34,3.93-2.47,4.62-1.9,9-2.67,10.53a76.73,76.73,0,0,0-3.62-8.76c-.13-.25-.39-.19-.77-.21-4.91-.43-4.45-4.51-.76-5.55,0,0-7.48-5.6-11.28-6.22,0-.09,0-.23.13-.5a13.65,13.65,0,0,0,.92-4.76,20.18,20.18,0,0,0-.94-6.42l1.56-1c.31-1.34,2-1.37,2.21-2.31-.37-4.1-8.32-19.78-10-21.55-.59,11.14.63,23.28,0,34.45Zm1.8-28.54-1.29,1.07,0-1.69Zm-1.24-2.59.64.48-.64.73Zm80-20c-.13-.78-.26-1.54-.42-2.28a2.15,2.15,0,0,0-.54-4.22,2.73,2.73,0,0,0-.49.06c-.34-1.18-.67-2.2-.91-3l-.43-.31c1.17,4.08-1.1,6.27,2.25,9.67,0,.17.29.11.54,0ZM47,228.35l-20.8-.14V220.5l16-17.12L36,203.3l.06-29.38a28.38,28.38,0,0,0,4.87-2.87l9.75,5.41.71.36a4,4,0,0,0-.83.45,3.43,3.43,0,0,0-1,3.86c.82,2.19,2.52,1.8,3.92,1.8,1.17.92,2.18,4,3,6A12.53,12.53,0,0,1,57.3,191a4.13,4.13,0,0,1,.07.88s-.18-.06-.46-.63c-1.56-3.29-5.18-4.87-7.11-1.77-1,1.91-.31,4.08,1.34,4.7a8.59,8.59,0,0,0,2.21,0c.09-.06,1.23,1.62,2.84,7.12.66,2.27.83,7.2.2,7.91-1.07,1.31-1.35,3.12-2.24,4.44-.42.82-.39.31-1-.61-2.19-3.13-6-5.55-9.55-5.39-2.5.11-3.27,1-2.69,1.69a11.66,11.66,0,0,1,2.72,5.12c1,4,2.16,7.63,5,10.76ZM57.5,209.21c-.27-.25-.06-.64,0-1.33.12-1.77.15-1.79,1.17-1.35A5.9,5.9,0,0,0,65,204.84c2.09-2.28,2.15-4.61.85-9.23-1.48-5.2-1.45-5.88.33-7,1.06-.92,2.17-2.84,1.75-2.84-.06,0-.2.12-.32.25a18.19,18.19,0,0,1-1.85,1.45C63.68,189,63,189.68,64,192.3s1.7,5.14,1.31,5.29c-.18.08-.89-.77-1.34-1a20.91,20.91,0,0,0-3-1.49c-.32,0,0,.23,1,.85,2.48,1.65,3.51,3.14,1.11,2.19a5,5,0,0,0-3.41,0c-.9.29-1.36.59-1.45.24a37.46,37.46,0,0,1,.09-4.85c0-.11.16-1.2.28-2.42.45-4.67,1.25-8.61,3.29-11.15,6.83-8.49,14.6-6,23.33.77-3.25,9.08-3,16.15-3.84,19a3.08,3.08,0,0,1-2.19-.53,9,9,0,0,0-3.93-1.19c-1.23-.06-1.45.11-1.34-.27s2.08-.87,3.3-1.13c2.22-.46,2-1,.18-.81a12.6,12.6,0,0,0-5.87,2.32c-1.41.93-1.45.93-1.08,2.11.09.27.27.69-.39.94s-.59.54-.2.85c.09.08.34.1.45.18s0,.54,0,.6c2.54,2.16,7,2.22,10.7,0,.19.06.37.36.2.76-.38.85-4.35,1.88-7.15,1.92-1.28,0-1.53-.14-3.47-.74-.81-.25-1.24-.31-1.32-.19-.17.28.13,1.1.73,1.54,2.07,1.49,5.07,1.36,9.16-.26,2.19-.87,2-1.18,1.27,3.18-.2,1.2-.42,2.12-.42,2.12S60.66,210.53,57.5,209.21Zm3-4.09a3.55,3.55,0,0,1-2.48-.8c-.79-.88,0-1.14,1.29-.66a5.52,5.52,0,0,0,4.84-.62c.91-.58,1.12-.27.34.54A5.58,5.58,0,0,1,60.46,205.12Zm14.59-1.51c-1.77,0-3.39-.31-4.06-1.05s0-.76,1.5-.16a9.46,9.46,0,0,0,7.34-.6c1.21-.61,1.58-.73,1.42-.05C80.54,202.87,77.64,203.58,75.05,203.61Zm-14.16-.56c-1.68,0-3.12-.39-2.85-1.29.09-.31.18-.12,1.39.25a7.66,7.66,0,0,0,4.28-.21c1.45-.42,1.72-.52,1.07.1A6,6,0,0,1,60.89,203.05Zm-3.42-.85c-1.72-2.65-2-6.53-3.83-8.63-3.36.64-5-2.54-2.13-4.66,1.44-.81,3.19-.21,4.48,1.92a8.59,8.59,0,0,1,1.6,4.53C57.48,198,57.64,199.48,57.47,202.2ZM77.13,201l-.74-.09c-.54-1.85-1.74-2-2.48,0l-.56-.1C74.2,198.41,76.35,198.32,77.13,201Zm1.16-.05c-.31,0-.57-.31-.71-.74-.29-1,0-.86.71-.45s1.2.7.82.87A2.54,2.54,0,0,1,78.29,200.94Zm-6.4-.62c-.26-.32-.31-.57,0-.8a5.16,5.16,0,0,1,.88-.39c.3-.1.48,0,.36.42a3.35,3.35,0,0,1-.48,1.11A.93.93,0,0,1,71.89,200.32Zm-9,.22-.59,0c-.62-1.69-2.07-1.63-2.62-.17h-.53C60.12,197.72,62.16,198.2,62.87,200.54Zm1.06-.22c-.57,0-1.11-.82-.8-1.24.31-.26,1.71,0,1.83.56C65,200,64.5,200.32,63.93,200.32Zm-5.46-.15a.29.29,0,0,1-.26-.31c-.14-.69.68-.93.86-.67S58.75,199.89,58.47,200.17Zm13-7.39a2.68,2.68,0,0,0,2-2.93A2.21,2.21,0,0,0,72,187.7c-1.65-.38-2.8.77-4.48,1.24-.72.18-.55,1.13-.09,1.55s1.51.2,2.75-.75c2.42-1.86,3,1.72.8,2.35C70.59,192.19,70.75,193,71.47,192.78Zm71.46-82.36-1-.28,1-1.12v1.4Zm-2.61-3.84,1.93-2.18-2.64.2,1.79-1.86-2.73-.11,2-2.09-2.68.06,2-2-2.55-.08,1.69-1.84-2.8.21,2-2.21-3,0,2.26-2.06-3,0,.89-1-.8-.4c-.82.39-5.49,1.84-5.65,3,1,.27,4.08-1.28,4.28-1,1.22,5.42,6.48,17.37,10,20.87l.24-33.82c.53-.5,1.38-.25,1.92-.47,1.75.1,4.7-2.87,3.16-3.45-.8-.18-5.25-1-5.26-1.17-.54-9.8.34-19.65-.06-30.12-1.25-.19-5.31-.42-5.31-.42s14.92-15.65,15.21-15.33c-.35,16.77-.17,49.56.12,49.69a27.61,27.61,0,0,1-.34,3l.33,104.3a2.92,2.92,0,0,0,.26.76c.31.52.32.64.36,2.21a2.44,2.44,0,0,1,0,1.22h0l-10.2-10.84V149.3s-9.66-14.33-11.88-21c-4.87-9.87-4.35-24.23-7.3-29.72h-.18c-.08-.8-.08-1.11-.2-1.25-.22-1.8-.47-4.24-.47-4.24l1.07-1.7-1.19-1.54v-4.1l1.59-1.62-1.45-1.85.4-3.83,1.14-1-.64-.87a13.6,13.6,0,0,1,.15-2.95c.17-1.07,1.22-.93,3.41.19a48.24,48.24,0,0,1,8.7,4.89c-.14,2-2.59,6.53.82,11.54,1.26.94,4.92.6,5.24.74l0,15.42m0,1.75-1.65.3,1.67-1.68Zm-78.62,77c.14,0,.31-.14.52-.39s.6-.18,1.53-.13a3.64,3.64,0,0,0,1.9-.21c.74-.28.75-.28,1.28,0a2.7,2.7,0,0,0,2,.17,2.55,2.55,0,0,1,2,.09c.57.28.76.23.94-.29a12.2,12.2,0,0,1,.68-1.35c.6-.93.46-1.09-.82-.7a6,6,0,0,1-3.68-.06,4.07,4.07,0,0,0-3.3.31,3,3,0,0,1-3.37-.27c-.63-.54-.6-.12-.44,1S63.93,185.23,64.27,185.18Zm43.3-3.92a2.14,2.14,0,0,0,0-4.28C107,177.43,106.72,181.17,107.57,181.26Zm-41.16,0a8.08,8.08,0,0,1,5.09-.45c1.58.48,1.21-.72-.51-.86-1.18-.1-1.11-.1-.18-1s-.2-.69-.74-.24-2.35.41-3.32,0c-.43-.2-.48.62,0,.79,1.28.45,1,.48-.41.93-.51.14-.53,1,0,.84Zm41.16-.7c-.68-.25-.25-2.75,0-2.86a1.43,1.43,0,0,1,0,2.86Zm11.37-.08c-.54.19-.93-.73-.93-1.33a1.43,1.43,0,0,1,1.42-1.43c1,.95,1.13,2,0,2.58l-.52.18Zm-5.62-2.11,4.55-4.62-4.47-4.55-4.47,4.66Zm-53.94-1.83a1.19,1.19,0,0,1,0-2.37,1.19,1.19,0,1,1,0,2.37Zm54-1.55a1.2,1.2,0,1,1,1.17-1.19A1.18,1.18,0,0,1,113.37,175ZM65,173.83l-3.25-4.42,4-3.62L65.5,168a1.91,1.91,0,0,0-.32,3.65Zm54.33-.25,0-1.21-4.1-4.1,4.07-4.25,0-1.17-5.06,5.42Zm-11.63,0,5-5.18-4.84-5.32-.06,1.35,3.81,3.95-3.88,3.88Zm-72.5-.84a2.19,2.19,0,0,1-2.16-1c-.22-.37-.32-.69-.63-.83-.6-.28-1.41-.1-1.45.12a4.19,4.19,0,0,1,1.12.25c.81.73.67,1.18-.46,1.08-.37,0-1.39,0-1.4-.43-.23-1.38,1.6-2.4,4-2.22,1.66.28,1.68-.37,1.79-1.27a5.27,5.27,0,0,1,.54-1.15c.58-1.07.78-.91.37-1.33a3.34,3.34,0,0,1-.91-1.79v-5.61s3.5,0,4.74.9c1.28,2.34,2.14,7.4.27,10.17a16.41,16.41,0,0,1-2.71,2.11A5.11,5.11,0,0,1,35.16,172.74ZM55,172.11l.12-1.63a1.9,1.9,0,0,0,.29-3.66l.11-1.41,2.61,3.75ZM65.21,171a1.25,1.25,0,0,1-.65-1.1,1.27,1.27,0,0,1,.87-1.21Zm54.31-.6c1.81-.95,1.19-4.6,0-4.29a2.15,2.15,0,0,0,0,4.29Zm-11.77,0a2.14,2.14,0,0,0,0-4.28C106.2,166.58,107.08,170.29,107.75,170.37Zm-52.57-.54.19-2.35a1.28,1.28,0,0,1-.19,2.35Zm64.34-.13a1.43,1.43,0,0,1,0-2.85C120,166.75,120.28,169.45,119.52,169.7Zm-11.77,0c-1-.08-.15-2.52,0-2.86a1.43,1.43,0,0,1,0,2.86ZM60,168.29l4.71-4.72L60,158.42l-3.85,4.74Zm53.47-.88,4.5-4.67-4.26-4.42-4.49,4.77Zm29.65-2.56-1.69-1.76h1.69Zm-82.75-.17a1.18,1.18,0,0,1-1.17-1.2,1.16,1.16,0,0,1,1.17-1.18,1.17,1.17,0,0,1,1.17,1.18A1.19,1.19,0,0,1,60.35,164.68Zm53.11-.66a1.19,1.19,0,1,1,1.19-1.19A1.19,1.19,0,0,1,113.46,164Zm-5.83-1.38,5-5.18-4.81-5.15-.06,1.23,3.86,3.89-3.92,4Zm11.72,0,0-1.32-4-4,4.21-4.25-.17-1.14-5.16,5.36Zm-53.79-1.41L62,157.6l3.6-4v2.09a1.93,1.93,0,0,0-1.28,1.8,1.88,1.88,0,0,0,1.28,1.79ZM55.63,161l-.05-1.47a1.9,1.9,0,0,0-.09-3.69l0-1.17,2.85,3.17Zm83.36-.67s-1.2-1.28-1.62-1.81a2.06,2.06,0,0,0,.53-1.38,2.14,2.14,0,0,0-2.13-2.14,2,2,0,0,0-.94.23c-.22-.33-1.19-1.66-1.19-1.66l5.68.92Zm-31.33-.85a2.14,2.14,0,0,0,0-4.28C105.52,155.66,106,159.4,107.66,159.51Zm11.88-.09c3-.34,2.25-4.22,0-4.28a2.14,2.14,0,0,0,0,4.28Zm-64-.53-.06-2.37a1.27,1.27,0,0,1,.86,1.21,1.25,1.25,0,0,1-.8,1.16Zm52.09-.11c-1.37-.51-1-2.95,0-2.85a1.43,1.43,0,0,1,0,2.85Zm11.88-.08a1.43,1.43,0,0,1,0-2.85A1.43,1.43,0,0,1,119.54,158.7Zm-54-.14a1.25,1.25,0,0,1-.64-1.1,1.27,1.27,0,0,1,.63-1.1Zm71.36-.6-1.65-2.14a1.42,1.42,0,0,1,1.92,1.33,1.36,1.36,0,0,1-.27.81ZM60.2,157l3.88-4.71L59.3,148l-3.39,4.24Zm53.22-.56,4.78-4.88L114.82,148l1.87.2,2.7,2.76.06-.92L118,148.37l1.58.07c.57-.89-3-.92-5-1.26-2.53-.44-8.07-2.47-6.85-1l1.39.36-1.31,1.58v1.21l2.27-2.45.77.19-3.22,3.33.21,1,4-4.08,1.15.27-4,4.14ZM60,153.62a1.19,1.19,0,0,1-1.18-1.2A1.17,1.17,0,0,1,60,151.24a1.19,1.19,0,0,1,0,2.38Zm53.59-.62a1.19,1.19,0,1,1,1.17-1.18A1.17,1.17,0,0,1,113.59,153Zm26.76-.35s.31-3.9.48-5.78l-6.17-1.66-.77,6.23Zm2.68-.29-.86,0,.14-3.63.83.9Zm-11.41-1.58s-.62-1-1.33-2.11a2.11,2.11,0,0,0,.62-1.51,2.14,2.14,0,0,0-2.13-2.14,1.79,1.79,0,0,0-.62.1c-.27-.53-.78-1.37-.78-1.37l5.29,1.55Zm-66.24-.39L61.23,147l3.22-4,.22,1.71a1.9,1.9,0,0,0,.46,3.67Zm71.84-.06a1.2,1.2,0,0,1,0-2.39,1.2,1.2,0,0,1,0,2.39Zm-83-.37a1.9,1.9,0,0,0,0-3.8C53.79,145.84,53.69,149.41,54.21,150Zm0-.64c-.11-.56-.25-2.67,0-2.53a1.27,1.27,0,1,1,0,2.53Zm75.68-1.27c-.48-.75-1-1.55-1.37-2.28a1.14,1.14,0,0,1,.26,0,1.42,1.42,0,0,1,1.42,1.43A1.58,1.58,0,0,1,129.89,148.05ZM65,147.72a1.24,1.24,0,0,1-1-1.22,1.3,1.3,0,0,1,.7-1.14Zm-5.63-1.12,3.52-4.73L57.6,137.7l-3,5.18Zm80.12-1.92-4-1.16.75-4.08a5.67,5.67,0,0,0,.59,1.18,2.13,2.13,0,0,0,1.85,3.18.5.5,0,0,0,.17,0C139.27,144.31,139.53,144.68,139.53,144.68Zm-5.89-1,1.29-6.52-6-2.42-1.45,6.89Zm-74.91-.05a1.18,1.18,0,0,1-1.17-1.19,1.16,1.16,0,0,1,1.17-1.18,1.19,1.19,0,1,1,0,2.37Zm79.69-.6a1.43,1.43,0,0,1-1.08-1.38,2.48,2.48,0,0,1,0-.27C137.7,142,138.07,142.53,138.42,143Zm-84.75-.17,3.19-6.07L51.42,133l.37,1.3,3.89,2.87-2.27,4.17ZM131,140.66a1.19,1.19,0,1,1,1.17-1.19A1.17,1.17,0,0,1,131,140.66Zm-5.64-.6-1.27-2.22a2.14,2.14,0,0,0-1.26-3.86,3,3,0,0,0-.51.06l-.93-1.95,5.54,2.43Zm-72.92,0a1.54,1.54,0,0,0,1.31-.52,1.94,1.94,0,0,0,.57-1.37,1.91,1.91,0,0,0-1.9-1.91C51,136.58,51.77,139.89,52.44,140Zm11.46-.52-4.51-3.25,2.64-5.1s.26,1,.6,2.42a1.92,1.92,0,0,0-1.08,1.72,1.9,1.9,0,0,0,1.9,1.91h0C63.64,138,63.79,138.85,63.9,139.52Zm-11.46-.11c-.79-.24-.53-2.45,0-2.53a1.2,1.2,0,0,1,1.25,1.27A1.25,1.25,0,0,1,52.44,139.41Zm71.34-2.24-1.15-2.46a.62.62,0,0,1,.2,0,1.43,1.43,0,0,1,1,2.48Zm-60.47-.6a1.28,1.28,0,0,1-1.14-1.26,1.31,1.31,0,0,1,.6-1.08c.19.74.37,1.55.54,2.34Zm-5.94-.65,3.09-6.13-5.69-3.49-2.63,5.93Zm76.33-1.18-3.52-1.6,1-3.64.43.9a2.11,2.11,0,0,0,1.56,3.25ZM128.15,133l1.73-6.13L124.4,124l-2.5,6.17Zm4.61-.22a1.41,1.41,0,0,1-.77-1.27,1.27,1.27,0,0,1,0-.28Zm-76.4-.5a1.2,1.2,0,1,1,1.17-1.19A1.19,1.19,0,0,1,56.36,132.3Zm-5.2-.34,2.6-6.42-6-3.33.45,1.16,4.44,2.57-1.89,4.64Zm74.78-2.14a1.19,1.19,0,1,1,1.17-1.18A1.15,1.15,0,0,1,125.94,129.82Zm-76.68-.94a1.91,1.91,0,0,0,1.9-1.91,1.88,1.88,0,0,0-1.9-1.91C47.36,125.11,48.33,128.89,49.26,128.88Zm70.82-.22a15.18,15.18,0,0,1-.88-2,2.14,2.14,0,0,0-1.06-3.91l-.25,0-.34-1.29,4.72,2.48A33.83,33.83,0,0,1,120.08,128.66Zm-70.82-.42c-.56-.23-.69-2.45,0-2.53a1.27,1.27,0,0,1,0,2.53Zm11.62-.75-4.63-2.66,2.33-5,.69,2.31a1.9,1.9,0,0,0,1,3.47ZM119,125.91l-.74-2.46a1.3,1.3,0,0,1,1.22,1.41A1.37,1.37,0,0,1,119,125.91Zm-58.85-1a1.26,1.26,0,0,1-.64-2.15Zm69.13-.15-3.58-2.11,1.62-4.2.48,1.52a2.09,2.09,0,0,0-.53,1.39,2.16,2.16,0,0,0,1.61,2.08Zm-74.79-.09,2.18-5.85-6.28-3.32-1.57,6Zm74.09-2.14a1.44,1.44,0,0,1-.6-1.17,1.24,1.24,0,0,1,.09-.48Zm-4.7-.3,2.54-5.94-5.3-3.52L118.31,119Zm-71.36-1a1.2,1.2,0,0,1-1.19-1.2,1.18,1.18,0,0,1,2.36,0A1.18,1.18,0,0,1,52.47,121.26Zm-6.22-2.61A2,2,0,0,0,47.1,117a1.9,1.9,0,0,0-1.9-1.91,4,4,0,0,0-.63.06C44,115.88,44.8,118.68,46.25,118.65Zm76,.17a1.19,1.19,0,1,1,1.18-1.18A1.17,1.17,0,0,1,122.25,118.82Zm-77.33-3a.5.5,0,0,1,.28-.06A1.26,1.26,0,0,1,46.45,117a1.23,1.23,0,0,1-.46,1C44.91,118.78,44.76,115.6,44.92,115.77Zm70.35-1c-.22-1-.47-1.89-.7-2.76.1,0,.2,0,.3,0a1.43,1.43,0,0,1,1.42,1.43A1.39,1.39,0,0,1,115.27,114.74Zm-65.84-.69,1.63-6.58-6.29-2.31-1.2,6.23Zm76.64-.08-3.34-2.31a30.78,30.78,0,0,1,2-4l.27,1.21a2.09,2.09,0,0,0-.91,1.75,2.14,2.14,0,0,0,1.74,2.11Zm-70.55-.33a1.25,1.25,0,0,1-1.25-1.25.86.86,0,0,1,.5-.87c.27.62.64,1.24,1,2.08A.6.6,0,0,1,55.52,113.64Zm70.11-1.73a1.43,1.43,0,0,1-.48-2.27Zm-5-1,3-5.29-4.44-3.41-3.47,5.29Zm-73.3-.17a1.19,1.19,0,0,1-1.19-1.19,1.17,1.17,0,0,1,1.19-1.18,1.19,1.19,0,0,1,0,2.37Zm-5.43-1.64-.78-1.21a1.86,1.86,0,0,0,.39-1.15,1.88,1.88,0,0,0-2.31-1.86l-.62-1,4,1.42Zm77.82-1.41a1.2,1.2,0,0,1,0-2.39,1.2,1.2,0,0,1,0,2.39Zm-79-.39-1.17-1.82h0A1.2,1.2,0,0,1,40.73,107.33Zm73.32-.08,4.29-5.72-5.7-4.24.1,1.28,4.15,3-3.17,4.23Zm-62.63-1.94-5.66-1.78L47,97.88l1.32,2.24a1.85,1.85,0,0,0-.58,1.38,1.89,1.89,0,0,0,1.88,1.9,1.68,1.68,0,0,0,.6-.1Zm61.67-1a2.14,2.14,0,0,0-.21-4.27.36.36,0,1,0,0,.71,1.43,1.43,0,0,1,1.42,1.43,1.41,1.41,0,0,1-1.33,1.41l.11.72Zm-69.35-.61,1-6.53-6.41-1.38-.48,5.93Zm80.18-.15-3-2.25,2.3-3.23.12.93a2.11,2.11,0,0,0-.91,1.75,2.17,2.17,0,0,0,1.4,2Zm-74.32-.83a1.24,1.24,0,0,1-1.25-1.25,1.37,1.37,0,0,1,.29-.83l1.22,2A1.09,1.09,0,0,1,49.6,102.75Zm20.24-.88c-.17,0-.4-.08-.36-.17s1.08-1.24,1.08-1.24l-.11-1.06-1.82,2.08-.74-.28,2.56-2.6.13-1L67.17,101l-1.45-.41,4-3.92L65.12,92l-4.57,4.69,3.24,3.57-1.6-.16a9.79,9.79,0,0,0-2.67-2.67l.12.93c.06,0,1.51,1.37,1.28,1.6l-1.28-.09c-1.5.4,1.84,1,5,1.5,1.66.07,6.52,2.22,5.36.58a1.11,1.11,0,0,0-.21-.08Zm53.86,0a1.43,1.43,0,0,1-.27-2Zm-82.32-1.14A1.18,1.18,0,0,1,40.2,99.6a1.18,1.18,0,1,1,2.36,0A1.16,1.16,0,0,1,41.38,100.78Zm77.6-.12,3.69-4.72-4.18-4-4.27,5ZM36.19,99.45l-.29,0V96.19l.45.11ZM65,98a1.2,1.2,0,0,1,0-2.39A1.2,1.2,0,0,1,65,98Zm53.43-.34a1.19,1.19,0,0,1-1.18-1.2,1.16,1.16,0,0,1,1.18-1.17,1.17,1.17,0,0,1,1.18,1.17A1.19,1.19,0,0,1,118.41,97.62Zm-5.69-.93L117.49,91l-5.11-5.3,0,1.19,4,4.19-3.72,4.36Zm-53.25-.53,4.91-5-4.89-5.09-.13,1.15,3.77,3.83-3.54,3.68Zm10.77-.51V94.3l-3.07-3.15,3.15-3.23,0-1.36-4.46,4.62Zm-25.1-.59L39.37,94l.36-5.49,1.38,1.69a1.93,1.93,0,0,0-.37,1.15,1.89,1.89,0,0,0,1.9,1.89,2,2,0,0,0,.83-.2Zm77.79-1-2.83-3L122.81,88l0,1.05a2.15,2.15,0,0,0,.09,4Zm-10.55-.76a2.16,2.16,0,0,0,0-4.19v.75a1.45,1.45,0,0,1,.94,1.35,1.4,1.4,0,0,1-.94,1.33Zm-41.82-.2c.88-.57.48-3.85,0-3.8a1.9,1.9,0,0,0,0,3.8Zm-11.18-.31a1.88,1.88,0,0,0,1.88-1.91A1.9,1.9,0,0,0,59.38,89C58.55,89.29,58.89,92.62,59.38,92.81Zm-16.77-.25a1.26,1.26,0,0,1-1.08-1.89L43,92.5A1.12,1.12,0,0,1,42.61,92.56Zm28-.08a1.26,1.26,0,0,1-1.25-1.27A1.24,1.24,0,0,1,70.56,90C70.5,90.41,70.79,92.53,70.56,92.48Zm52.34-.29a1.45,1.45,0,0,1-.65-1.19,1.47,1.47,0,0,1,.59-1.17Zm-63.52,0c-.16-.51-.36-2.62,0-2.52a1.24,1.24,0,0,1,1.25,1.25A1.26,1.26,0,0,1,59.38,92.17Zm5.71-1.84,4.59-4.61L65,80.9l-4.44,4.76Zm53.08-.25,4.12-4.47-4-5.18-4.66,4.66Zm22.32-.15c-1.27,0-2.45-.22-2.93-1.08-1.95-2.6-1.39-8-.05-9.81,3-2.77,4.72-3.49,8.13-2.86-.39,1.55,1.25,2.39,1.48,2,0,0,.16-.28,0-.3a1.17,1.17,0,0,1-.94-1.55c1.3.05,2.14,0,2.27.61.08.36-.13.91-.88,1.53-.9.72-5,.7-5,.7a4.29,4.29,0,0,1-.4,1.85c-.35.59-.86,1.24-.52,1.52a2.09,2.09,0,0,1,1.06,1.7c.15,1.62-.09,5.48,0,5.53C142.05,89.85,141.26,89.93,140.49,89.93Zm-75.39-3a1.19,1.19,0,1,1,0-2.37,1.18,1.18,0,0,1,1.17,1.19A1.16,1.16,0,0,1,65.1,86.93Zm53-.46a1.2,1.2,0,0,1-1.19-1.2,1.19,1.19,0,1,1,2.37,0A1.19,1.19,0,0,1,118.14,86.47ZM59.47,85.35l4.81-4.93-5.12-5.34.17,1.44L63,80.34l-3.61,3.78Zm10.86-.09.14-1.37-3.41-3.6,3.1-3.19,0-1.55-4.55,4.82ZM123,83.39l-2.72-3.83,3.24-2.85-.09,1.08a2.15,2.15,0,0,0-.31,4.08Zm-10.19-.74c.07-.79.11-1.44.14-2a2.15,2.15,0,0,0,.3-4c.06-.62.13-1.29.24-2.14l3.26,4.78Zm-76.88-.23L35.82,69,26.14,58.92V21.15H65.89L76.13,38.49c.2.34.49.22.73.54l-3,16.3C69,53.12,65,58.84,67.63,63.48c-14.75,5.43-31.7,18.94-31.7,18.94Zm23.51-.08a1.9,1.9,0,1,0,0-3.8C58.08,79.18,58.78,82.32,59.44,82.34Zm11-.11c.53-.6.82-3.83,0-3.8a1.92,1.92,0,0,0-1.89,1.91A1.89,1.89,0,0,0,70.45,82.23Zm-11-.53c-1-.73-.09-2.35,0-2.52a1.28,1.28,0,0,1,1.27,1.27A1.26,1.26,0,0,1,59.44,81.7Zm11-.1a1.27,1.27,0,0,1,0-2.53C70.38,79.28,70.76,81.52,70.45,81.6Zm52.72-.5a1.41,1.41,0,0,1-.67-1.21,1.44,1.44,0,0,1,.87-1.32ZM113,79.83c.07-.92.11-1.66.16-2.42a1.42,1.42,0,0,1-.16,2.42Zm-47.86-.44,4.49-4.51L65,70l-4.44,4.73Zm53.36-1.18,4.69-3.8-3-4.65-1-.64-4.3,3.71Zm18.85-.31L126.3,72s2.87-1.21,2.79-3.13c-.11-2.16-1.41-3.91-4-3.26-.59.08-.85-.15-1.42-1.47-1.08-2.53-2.14-5.32-1.73-5.23a8.36,8.36,0,0,0,2.75,1.86,3.11,3.11,0,0,0,3.84-4.22c-.88-2.08-2.33-2.2-3.8-2a1,1,0,0,1-.54-.56,22.28,22.28,0,0,1-1.71-5.23c-.85-4-1-9-.41-10.25l2-4.1c2.3,4.42,7.33,8.3,13,6.92.18-.12.23-.74,0-1.12-1.83-2.42-2.14-4.63-2.79-7-1.68-6.09-5.06-9.57-5-8.95L131.06,21s15.35-.08,21.65,0v7.41l-16.46,17,6.52.27-.23,29.23C140.16,75.41,137.36,77.9,137.36,77.9ZM65.07,76a1.19,1.19,0,1,1,1.19-1.18A1.19,1.19,0,0,1,65.07,76ZM119,74.83a1.19,1.19,0,1,1,1.19-1.18A1.17,1.17,0,0,1,119,74.83Zm-48.65-1.1-.13-1.18L67,69.14l3-3.07c.43-.61,1.55-.47,1.91-.51-.25-.75-.91-.66-1.61-1l-4.35,4.48Zm0-2.64c.79-.24.65-3.61,0-3.8a1.9,1.9,0,1,0,0,3.8Zm-11.09-.52a7.62,7.62,0,0,1,0-2.53,1.27,1.27,0,0,1,0,2.53Zm11.09-.11a1.28,1.28,0,0,1,0-2.55C70.47,68.21,70.75,70.41,70.3,70.46Zm38.9-.62a1.77,1.77,0,0,1,.65,0c.67,0,1.47.46,1.65.38s.14-.52.13-.72-.53-.24-.73-.38-.25-.29.14-.38.6-.1.82-.41.14-.51-.08-.51c-1.31,0-3,.56-4.53,0-.9-.32-1.49-.53-1.62-.4-.3.26.75,1.27,1.75,1.46s1.38.1,1.05.41c-.17.16-.4.1-.41.21a.61.61,0,0,0,.46.68c.28.06.51-.25.72-.34Zm-5.63-3.17a.82.82,0,0,0,.47-.24c.6-.41,1.52-.94,3.79-.32a6.15,6.15,0,0,0,3.44-.17,3.34,3.34,0,0,1,2.25,0c.71.34,1.48.85,1.35.32,0-.14-.08-.91-.1-1.38,0-1.1-.09-2-.88-1.14-.34.37-.75.37-1.52.07-.56-.21-.93-.37-1.36-.07a2.21,2.21,0,0,1-2.24.12,1.84,1.84,0,0,0-1.74.22c-1.11.68-1.81,0-2.24-.69s-.51.24-1.12,1.88C103.36,66,103.25,66.69,103.57,66.67Zm5.31-6.12c.6-.35,1.45-.45,2.05-.86,1.3-.9.08-1.64-.82-1.46a3.77,3.77,0,0,0-1.26.59c-1.62,1.09-2.51.93-2.67-.38s2-2,1.81-2.72c-.28-.43-1.33.16-2,1.06C104.08,59.41,106.2,62.07,108.88,60.55Zm-8.39-7.42a17.42,17.42,0,0,0,7.17-2.57c1.31-1,1.67-1.28,1.11-1.69s-.89-.39-.2-1.11a3.34,3.34,0,0,0,.67-.9c0-.51-3.12-2-4.89-2.26a11.46,11.46,0,0,0-4.8.51c-1.58.64-1.64,1.07-.14.64a11.19,11.19,0,0,1,4-.5,12.51,12.51,0,0,1,3.24.75c1.91.68,1.57,1.49-.36.8a9.67,9.67,0,0,0-7.63.2c-1,.47-1.31.84-1.51.69a1.19,1.19,0,0,1-.17-.38c-.07-.17-.08.44-.17,1.4-.08.79-.16,1.86-.16,1.86a3,3,0,0,0,.16-.66c0-1.4.64-1.4,2.56-.35,2.23,1.24,3.33,1.12,5.44,1.11.93,0,1,.26-.34.69-.61.2-1.59.55-3,1C100.24,52.76,99.93,53.19,100.49,53.13Zm16.86-2.82c-.82,0-1.54-.7-1.74-2l.8.06c.26,2,1.71,1.55,2.28.36l.71,0A2.51,2.51,0,0,1,117.35,50.31Zm-2-.13a4.61,4.61,0,0,1-2-.94c-.1-.25.48-.53,1-.67s.46-.2.65.16S115.7,50.17,115.3,50.18Zm3.89-.09A1.71,1.71,0,0,1,120,49a.4.4,0,0,1,.39.67c-.3.15-1.11.74-1.17.43ZM103.5,50a2.23,2.23,0,0,1-2-2.23h.5c.48,2.56,2.44,2,2.89.16l.6.17c-.51,1.33-1.23,1.86-1.94,1.89Zm2-.18c-.28,0-.25-.22.09-.9.15-.33.28-.5.56-.5a1.11,1.11,0,0,1,.83.48c.14.3-.17.53-.83.75a3.24,3.24,0,0,1-.65.17Zm-4.32-.19a3.36,3.36,0,0,1-1-.34c-1.31-.59-1.47-.82-.79-1.16a6.78,6.78,0,0,1,.77-.33c.62-.2.61.14.76.57.09.25.2.47.32.73S101.43,49.61,101.2,49.61Zm19.3-2.17a17.43,17.43,0,0,1-1.65-.64,6.8,6.8,0,0,0-4.57.28c-.76.23-1,.39-.71,0a6.14,6.14,0,0,1,2.56-1.25c2-.48,4.54.44,4.54,1.45,0,.14-.08.2-.17.2ZM114,45.78c-.2,0,0-.31.4-.78a4.75,4.75,0,0,1,2.63-1.39c2.09-.38,3.84.2,3.85,1.38,0,.85-.14.87-1.17.32a6.76,6.76,0,0,0-4.44,0,8.5,8.5,0,0,0-1.16.48.18.18,0,0,1-.11,0ZM97.88,44.65c1.59-.42,3.29-.86,4.83-1.15a9.93,9.93,0,0,1,5.34.59c.92.46,1.26.18.85-.7A2.84,2.84,0,0,0,107,41.78c-1.74-.61-5.8.37-8.82,1.95-1.76.78-1.42,1.24-.33.92Zm26.26-12.06-2.72,4.66c-18.42-3.59-38.35-1-44.44-.14,0,0-6.66-11.08-9.06-15-.23-.42-.84-1.82-.84-1.82l62.87.05c-.88,1.78-1.71,4.08-1.71,4.08,1.93.78,3.41,3.66,4.33,6.1.81,2.14,2.21,7.35,4.06,9.89C133.41,42.3,125.29,38.19,124.14,32.59Z"/><path id="path3302-0-9-2" class="cls-4" d="M67.6,20.85h62.29l-8.11,16.32A144.55,144.55,0,0,0,77,37.5L67.6,20.85Zm85.15,13.22.13,7.82-8.07-.19ZM84.66,86.65l-.09,23.74A97.44,97.44,0,0,0,74.82,104l.12-24.56Zm27.15,5.2c.57,13.42,2.52,18.66,3.78,25.47L104,124.83l0-27.55Zm31.56,23.53-.06,33.06c-10.61-15.36-17.32-30.95-19.17-52,2.88-1.16,5.7-2.46,8.67-3.5a137.8,137.8,0,0,0,10.56,22.46ZM35.89,101.78c9.81,12.53,15.65,29.24,18.74,49.8l-9,4.39c-3-7.26-6-15-9.78-21Zm38.33,22.16,0,27.64-7.67,5a128,128,0,0,0-3.78-25.51ZM94.4,138.49a47.9,47.9,0,0,0,9.07,5.62L103,168.63l-8.66-6.7ZM33.56,207.58s-5.4,5.51-7.41,7.31l0-7.49Zm68,3.57,10.07,17.28L48.52,229l8.11-17.39C73.32,214.64,87.62,213.24,101.54,211.15Z"/><path id="path3300-3-9-0" d="M72.61,55.78A8.15,8.15,0,0,0,69.51,59c-1.09,2.15-.1,4.28-.43,4.29-2-.6-1.43-4.46-.74-5.66a4.19,4.19,0,0,1,2.9-1.94c1.17-.22,1.37.06,1.37.06Zm-3.27,8.44a.94.94,0,0,1,.85.34c.37.39.82.66,1,.62s.46,0,.46.19-.13.17-.66.12c-.32,0-1,.49-1,.49v36.48a42.84,42.84,0,0,0-10.39-2.27l-.22-32.51s-4.81,2.53-6.56,3.54l-.06,29.1-3.41.37,5.39,11c.75-.59,11.34.41,14,2.14l-9.65,6.07c1,3,1.86,5.88,2.7,8.93,0,.1.2.08.23.17.2.75.34,1.07.52,1.83,0,.14,0,.38,0,.52a111.07,111.07,0,0,1,3.79,25.31c0,.08-.34,0-.34,0l.06,5.22.34-.23,0,2.36-.35.34c0,.47,0,1.32,0,1.32l.45.28-.23,4-.46.07-.25,6.26,12.23-8s8,5.74,11.48,8.74c-3.84,2.62-4.86,7.74-5.82,12a72.32,72.32,0,0,0-1.57,11.2,111.35,111.35,0,0,1-1.45,11.27c-.31,1.48-.29,1.65.14,1.66.15,0,0,.07-.34.11-7.84.31-16.26-.85-23.74-1.83,0,0-1.85,3.46-2.5,4.75a16.93,16.93,0,0,0-.77-2,12.78,12.78,0,0,0-4.77-4.54,13.05,13.05,0,0,0-3.86-1.3,6,6,0,0,0-2.88.48c-.31.12-.56.29-.56.45s.25.32.56.63a4.67,4.67,0,0,1,.79,1.1,27.78,27.78,0,0,1,1.83,4.72c1.31,3.46,2.27,7.65,5.26,9.49l-2.06,4.16,65.08,0-10.08-17.06-.4-.68c-.29-.54-.41-.47-.41-.47.66-5.95,1.59-11.83,2.82-17.6,0,0,.12.46,2,.43,5.6-.08,7.55-6.33,2.88-9.1-.45-.27-1.19-.78-1.93-1.17-.21-.11-2.9-1.69-2.9-1.69l3.21,1.46.23-37.54s6.71,2,11.12,2.22l0,32.54,6.17-3.35.28-29.1,3.37-.21s-1.28-2.75-1.57-3.32c-.57-1.15-2-3.73-3-5.34l-1.16-1.85a35.09,35.09,0,0,1-13.31-2.66l9.7-6.35c-4.06-11.48-9.1-28.28-6.29-55.39l-.68.43-.19,2.92-12.07,8.36L85.46,72.75s1.08,0,1.33,0c3.8.14,6.48-3.77,7.39-7C95.8,60,96,58.61,96.76,49.49A83.92,83.92,0,0,1,98.48,39a7.35,7.35,0,0,0,.33-1.89A90.46,90.46,0,0,0,77.38,39s-2.5,12-3.39,17a4.47,4.47,0,0,0-2.36-.69c-5.82.59-5.32,8.69-2.29,8.92Zm26.15,164-3.08-10.86,7.54-.7,6.26,11.48Zm-46.37.15,7.76-16.53c16.27,2.29,25.65,2.51,44.53-.18l9.82,16.49-2.58,0L101.24,215l-11,1.1,3,12-2.91.1-3-11.82-17,.09c-.55,3.95-1.62,11.71-1.62,11.71l-3.14,0,2.09-12-10-1.27-5.8,13.39Zm21.81-.15,1-10.06L86,218l2.25,10.17Zm-17,.18,4.78-11.94,7,.93-1.9,10.84Zm-8.6-11.69c-.3-1-.61-2-.69-2.22-1.14-3.1-1.6-4.11-2.34-5.15-.13-.17-.16-.16,0-.3,3.43-1.67,9.6,2.45,11.09,6.24-.18.37-1,1.91-1,1.91-.43-.86-.1-1.69-.38-2.45-.08-.33-.77,2.18-.77,2.18a7.24,7.24,0,0,1-.77-3.25c0-.33-.9,1.44-.9,1.44a7.89,7.89,0,0,1-1-4.08c-1.24,1.52-.46,2.37-2.38-1.48-.21.41-.11.83-.4.72a7.63,7.63,0,0,0-2.45-.81c.55.72,1.65,1.09,1.94,2a5.44,5.44,0,0,0-.92,0,7,7,0,0,1,2.65,2c-.22.08-1.11-.08-1.06,0,1.32,1.21,3.31,2.18.43,1.91,1.86,1.32,4,2.24.71,2.14,2.31,1.1,2.94,1.79,2.51,2-.25.11-.94-.31-2,0,1.86.76,2.62,1.12,2.7,1.36s-.79.47-1.41,1.14c0,0,.76-.17,1.08.17,0,0-.37,1-.65,1.66-2.36-2.14-3.3-5.21-3.92-7.18Zm-20,4.2s10.48-11.34,15.66-17l-5.06-.08L35.7,173.1c-1.76-.23-4.83,0-6-1.18-.72-1.07,2.07-3.18,3.63-2.73a6.45,6.45,0,0,0,2.34.06L35.58,135c3.34,6.23,5.89,10.19,9.59,21-1.08.74-2.17,1.33-2.36,1.45,1.42,3.45,2.41,8.88.42,13.61l-1.38-.82a16,16,0,0,0-.26-11.09l-.37.4a12.16,12.16,0,0,1,.67,1.66,9.84,9.84,0,0,1,.57,2.81,15.47,15.47,0,0,1-.42,4.88,10.69,10.69,0,0,1-.48,1.41,2.32,2.32,0,0,0-.21.48c4,1.65,6.91,4,10.39,5.76a2.44,2.44,0,0,1,.33.17c.44.25.32.33-.37.6-1.45.58-2,1.29-2,2.7.05,2,1.11,2.8,3.46,2.67.85,0,.91,0,1.06.25.36.68,1.57,3.4,1.57,3.51s.27.66.58,1.36a17.93,17.93,0,0,1,1.26,3.35c.11.56.45.79.52.2a33.5,33.5,0,0,1,2.3-9.23,10.49,10.49,0,0,0,.56-1.44c-.11-.09-2-1-2.84-1.32-3.41-1.41-4.95-2.28-4.43-2.48s.5-.4.59-1.13c.25-1.91.22-2.89-.09-3.49s-.33-.68.21-1,.37-.31.5-1.91a20,20,0,0,0,0-3.09l-.85-1.08L55,164.1l.2-4.95L54,158.27l1.1-1.09-.39-4.51a2.07,2.07,0,0,1,.33-.62c-1.84-19.1-9-38.35-19.63-51.47l-.1-31.38L24.89,58.68Zm.82-2v-2.46L35,206.76l-8.87-.16v-2.09l13.62,0Zm.14-4.2,0-6.93,6.64,0Zm60.87-3.49-1.39.06c.06-1.39.6-7.85,1.27-13.49.74-6.36,2.25-11.85,2.54-11.85l1.34.8c-2.22,7.31-2.8,16.71-3.76,24.48Zm-6.28.2c.2-3.94,1-6.7,1.27-11.35.31-5.7,1.28-12.79,3.82-18.65a8.76,8.76,0,0,1,4.66-4.71c3.9-1.54,7.21,3.32,4.57,6.88-2.08,2.83-5.34,2.79-6.34-.07-.82-2.36,1.8-5.33,3.9-4.41,1.45.64,1.08,3.27-.55,3.91-.68.26-1.25-.61-.91-1.38.26-.61.29-1-.07-.73-1.48,1-.37,3.55,1.47,2.62,2.45-1.24,2-4.92-.43-5.07-3.13-.31-5.54,3.57-7.08,10.9-1.7,8.22-1.27,15.59-2.9,22.05Zm4-.14-1.64,0c.13-.61.16-1.26.26-2,.65-4.31,1-10.61,1.7-15.54.94-7,2.61-11.2,2.66-10.69a7.36,7.36,0,0,0,1.12,2.2A52.86,52.86,0,0,0,86.17,198C85.65,202.66,85.51,207,84.88,211.21Zm7-.4-1.44.08a156.29,156.29,0,0,1,2.7-21.21c.25-1.08.33-1.55.54-1.64s.6.26,1.53.77C93.81,188.63,92.7,204.53,91.9,210.81Zm-2.26.14-1.55.15c.23-3.33.78-8.59,1.42-13.32.75-5.73,1.75-10.8,2.25-10.72l1.31.45C92.19,187.25,90,204.31,89.64,211Zm3-.17c1-7,1.13-15.16,3.24-21.69l1.47.68c-.4-.12-1.45,4.25-1.79,9.2-.31,4.31-1.08,9-1.31,11.61Zm2.41-.25c.58-2.47.58-6.11,1-9.14.54-3.75,1.11-11.38,2-11.21l1.5.76c-.79-.24-2.16,14.22-3,19.36Zm4-.62-1.51.2c.72-5.65,2-18.8,2.83-18.91l1.42.76A173.63,173.63,0,0,0,99,209.91Zm.94-.22c.63-6.2,1.22-12.49,2.53-17.31l1.56.71s-1.08,5.31-1.59,9-.59,4.21-.74,5.17a10.77,10.77,0,0,1-.45,2.18Zm-66.73-6.36.15-29.8,1.73.07L35,203.36Zm-4.09-.23a1.2,1.2,0,0,1,0-2.39,1.2,1.2,0,0,1,0,2.39Zm27.83-10.94c-1.22-2.25-2.16-3.07-3.24-3.5A2.91,2.91,0,0,0,50,192.47c.51,1.41,1.82,1.62,3.47,1.34,0,0,.71.51,1.54,3.05A51.32,51.32,0,0,0,57.59,203C57.7,199.21,58.58,195.27,56.93,192.16Zm-29.58,8.18a1.19,1.19,0,1,1,1.18-1.18A1.18,1.18,0,0,1,27.35,200.34Zm3.24-.05a1.2,1.2,0,0,1,0-2.39,1.2,1.2,0,0,1,0,2.39Zm26.47.28c-1.09-2.28-1.32-4-2.39-6.08-.46-.9-.88-1.68-.88-1.68-3.47,1.65-4.81-2.49-2-3.81s5.9,3.63,5.59,8.95a18.43,18.43,0,0,1-.33,2.62Zm-28-3.09a1.2,1.2,0,0,1,0-2.39,1.19,1.19,0,0,1,1.18,1.2A1.17,1.17,0,0,1,29,197.48Zm-3.12-2.21v-2.55l6.17-6v2.45Zm81.11-2c-1.17,0-1.74-.37-1-.68a5.6,5.6,0,0,0,3.89-5.57c0-1.46-.17-1.64.73-.84C113,189.43,109.68,193.33,107,193.31Zm-2.16-1.05a2.57,2.57,0,0,1-.86-.13c-.7-.22-.45-.23.72-1,2.24-1.49,2.92-3,3-5.93,0-.45-.06-.82,0-1s.2-.09.31-.09a1.23,1.23,0,0,1,.81.9c1.44,2.87-1.18,7.18-4,7.28Zm-2.42-1a1.28,1.28,0,0,1-.5-.09c-.54-.28-.33-.31.65-1a7,7,0,0,0,2.86-5.23c.13-1.33-.9-2.93.92-1.61,1.28,1.07,1,3.83-.34,5.74a5.62,5.62,0,0,1-3.59,2.22Zm-76.53.57V189l6.17-5.9v3Zm74.55-1.5c-.69,0-1-.47-.2-1a7,7,0,0,0,3.09-6.19c-.11-1.52-.17-1.78.78-.79,1.56,1.61.47,6-2.56,7.65A2.16,2.16,0,0,1,100.47,190.35Zm-2-.84c-1.16,0-1.31-.56-.28-1.29a7.64,7.64,0,0,0,3.24-6c0-1,.06-1.14.51-.8,2.27,1.74-.17,7.82-3.24,8.08Zm-40.59-.19c-.28,0-.79-1-1.57-3.13A21.53,21.53,0,0,0,54,181.51a1.79,1.79,0,0,0-.78.28c-2.59,1.36-4.41-2.52-1.86-4,1.82-1,3.53.08,5.1,3.29,1.87,3.78,2.38,6.59,1.49,8.11a.13.13,0,0,1-.13.09Zm38.47-1a1.57,1.57,0,0,1-.89-.2c-.66-.34-.57-.6.45-1.21A5.15,5.15,0,0,0,98,184.93a5.37,5.37,0,0,0,1.11-3.86c0-1.52.45-1.6,1.34-.25,1.58,2.33-1.54,7.36-4.09,7.46Zm-2.57-1.36c-1,0-1.68-.39-.71-.92,3.1-1.64,4.39-4,3.79-6.9-.18-.91.85-.14,1.48,1.1.91,1.82-.77,5.32-3.08,6.38a3.61,3.61,0,0,1-1.48.34Zm-34.93-2.67c-.2,0-.41-.53-.91-1.81a21.68,21.68,0,0,0-1-2.22,2.22,2.22,0,0,1-.32-.81c.17-.29,1.6.2,2.1.73a3.76,3.76,0,0,1,.47,3.63c-.15.31-.26.5-.37.48ZM29.1,182.06a1.17,1.17,0,0,1-1.17-1.19,1.18,1.18,0,0,1,1.17-1.19,1.17,1.17,0,0,1,1.17,1.19A1.15,1.15,0,0,1,29.1,182.06Zm121.12-1.92a1.19,1.19,0,0,1,0-2.37,1.19,1.19,0,1,1,0,2.37Zm-48.79-.36c-1.3.05-1.68-.57-1.9-2.52-.15-1.35-.43-1.48-2.56-1.12s-3-.23-3.15-2.56c-.12-1.85-.1-1.83-2.65-1.85s-2.76-.26-3-2.85C87.9,167,88,167,85.53,167.05c-2.72,0-3-.17-3.15-2.59-.16-2-.28-2.1-2-2a37.18,37.18,0,0,1-5.36,0c-1.45-.31-1.52-.27-1.83,1.7-.41,2.59-.92,2.92-4.07,2.59-1.56-.15-1.73-.12-2,1.26-.29,1.83-.66,2.37-.66.77,0-4,.28-4.2,2.93-3.49,2,.55,2,.13,2.24-1.81.18-1.71.48-2.41,1.09-2.68a6.52,6.52,0,0,1,2.78.15,28.37,28.37,0,0,0,3.64.09c4.43,0,4.47-.06,4.47,3.08,0,1.31.3,1.59,2.61,1.53,2.92-.09,2.76-.17,3.26,3.35.17,1.21.26,1.26,2.68,1.23,2.62,0,3.22-.08,3.07,2.14-.14,2,.35,2.54,2.54,2s2.78.45,3,2.25.36,1.25,1.47,1.35,1.09,1.49-.22,1.61a2.58,2.58,0,0,1-.63.09Zm-74.15-.6A1.19,1.19,0,1,1,28.45,178,1.16,1.16,0,0,1,27.28,179.18Zm3.33-.06a1.2,1.2,0,0,1,0-2.39,1.2,1.2,0,0,1,0,2.39Zm117.84-2a1.19,1.19,0,0,1-1.19-1.19,1.18,1.18,0,1,1,2.36,0A1.16,1.16,0,0,1,148.45,177.13Zm3.31,0a1.19,1.19,0,0,1-1.18-1.2,1.17,1.17,0,0,1,1.18-1.18,1.19,1.19,0,0,1,0,2.38Zm-61.7-1-12.28-9.21L66.17,174.7l.07-2.86,11.54-7.71,14.56,11.34ZM28.94,176a1.18,1.18,0,0,1-1.17-1.2,1.17,1.17,0,0,1,1.17-1.17,1.19,1.19,0,1,1,0,2.37Zm20.12-1.57-2.92-4.76,2.9-2.13-2.65-3.39,2.85-3-3.13-2L49,155.06l4.06-1.82L49,158.61l3.37,2.33-3.2,3.46,2.86,3.77-3,2.32,3.2,5.29-.21.25Zm53.84,1.06L81.31,159.23s-2-1.5-2.56-1.88c-1.21-.77-1.45-.46-2.66.38-2.74,1.63-9.32,6.14-9.32,6.14l0-2.34s6.64-5,10.31-7.06a1.31,1.31,0,0,1,1.46.28c8,6.37,16.22,12.56,24.33,18.81Zm-49.58-.27c-.1-.17-.39-.21-.53-.43-.95-1.49-2.68-4.13-2.68-4.13l3-2.42-2.8-3.67L53.84,161l-3.55-2.43a34.67,34.67,0,0,1,3.87-5l.05,2.64L52.79,158l1.64,1.13v3.63l-1.67,1.77L54.29,166,54,170l-1.45,1.17,1.2,1.64Zm96.86-.8a1.2,1.2,0,0,1-1.19-1.2,1.18,1.18,0,1,1,2.36,0A1.18,1.18,0,0,1,150.18,174.39Zm-124-4.33,6-5.59V167l-6,5.93Zm120.6,2.73v-3.06l6.4-5.95v2.94Zm-120.6-3.51v-3l6-5.67v3Zm7.07-.48-.13-98.64-7-7.41V60.28l8.82,9.19.2,99.24Zm113.53.3v-3.43l6.4-5.88V163Zm-43.84-.64-8.47-6.64,0-23.13a54.57,54.57,0,0,0,8.8,5.46Zm-74-7.48a1.19,1.19,0,0,1,0-2.37,1.2,1.2,0,0,1,1.19,1.2A1.18,1.18,0,0,1,28.94,161Zm62.94-1.13,0-23.61,1.67,1.54.09,23.41Zm57.88-.22a1.18,1.18,0,0,1-1.19-1.17,1.19,1.19,0,1,1,2.38,0A1.17,1.17,0,0,1,149.76,159.63ZM27.37,157.94a1.19,1.19,0,0,1,0-2.38,1.19,1.19,0,0,1,0,2.38Zm3.36-.14a1.19,1.19,0,0,1,0-2.37,1.19,1.19,0,0,1,1.19,1.18A1.21,1.21,0,0,1,30.73,157.8Zm60.19.11-5.16-4.85L91.08,148l0,2.34-3,2.87,3,3.1Zm-2-.43-4.31-3.2.68-.82Zm59.05-.71a1.19,1.19,0,1,1,1.17-1.18A1.17,1.17,0,0,1,148,156.77Zm3.45-.07a1.19,1.19,0,0,1,0-2.37,1.19,1.19,0,1,1,0,2.37Zm-84.72-.42c-.83-9.44-1.4-16-3.82-24.88l11.15-7.16L74,151.58ZM36,134.68l0-32.44c10.53,15.06,16.2,32.67,18,49.34,0,0-5.65,2.63-8.39,4.22C42.78,149,44,149,36,134.68ZM28.8,154.9a1.18,1.18,0,0,1-1.18-1.19,1.16,1.16,0,0,1,1.18-1.18,1.19,1.19,0,0,1,0,2.37Zm120.91-1.27a1.2,1.2,0,1,1,1.18-1.19A1.17,1.17,0,0,1,149.71,153.63Zm-65.79.11-4.1-3.15,0-2.39,4.91,4.73Zm1.41-1.26L80.2,147.4,85.57,142l5.29,5Zm-38.57-.18,4.94-2c-1.89-17.21-6.79-30.11-13.41-40.57l-.15,24.14c3.42,5.43,6,12,8.62,18.46ZM26,151.94v-2.71l6.14-5.67v2.7Zm59.33-1.49,3.27-3.19-3.29-3.2-3.16,3.2Zm61.42.36v-2.89l6.11-5.92v3.05ZM78,149.2l0-27.55,1.36-.65-.1,28.77Zm7.35-.42-1.48-1.49,1.55-1.57,1.45,1.51ZM26,148.5v-3.12l6.14-5.77.1,3Zm68-11.71c-6.34-5.53-11.21-13.9-16.57-18.59a39.39,39.39,0,0,0-10.3-5.74,29.28,29.28,0,0,0-9-1.5l-2.59-.06-1.1-2,1.81,0,.12-6.87a32.74,32.74,0,0,0-5.62.25l-.66-1.26a45.26,45.26,0,0,1,33.66,9.61c3.52,2.9,6.37,6.45,9.86,11.63,6.69,10.5,18.49,15.57,29.48,15.7l.91,1.42-1.84-.06a32.48,32.48,0,0,0-.21,3.57c0,2.53,0,3,.18,3a24.7,24.7,0,0,0,5.23-.09l.83,1.49c-13.11,1.33-26-3.25-34.15-10.61Zm52.74,10.36v-2.83l6.11-5.78v2.82Zm-67.07-.23.15-2.53,2.92-2.9-3.1-3,.08-2.11,5.46,5.09Zm39.86-.9a.87.87,0,0,0,.48-.08c.08-.13,0-1.21.28-5.14.09-1.44.18-1.44-1-1.58-1,0-3.26-.62-4.75-.79-1.27-.17-1,.22-1.36,1.23s-.6,2.09-1.08,3.67-.23,1.51,2.61,2A34.06,34.06,0,0,0,119.54,146Zm-28.38.23-4.94-4.95,4.86-5,.09,2.4a34,34,0,0,0-2.88,2.75l2.87,2.94Zm24.75-1.6-.52-.88-1.26-.22.21-.89-.65-.91.81-.61,0-1.11,1,0,.86-.62.68.87,1,0-.06,1.24.65.54-.77.7.09,1.1-1.23-.2Zm8-1.49-.79-.51.8-.56,0-.85.5-.42,1.79,3.52-1.18-.48-.89.59Zm-14.38.81c.63,0,.71-1.18,1.39-3.38.94-3.07,1-2.8-.8-3.43-.81-.28-2.36-.81-3.18-1.2-2-.94-2-.94-2.75.35-.32.57-1,2-1.4,2.68-1.1,1.8-1.13,1.72.89,2.68,1.19.58,1.9.81,4.38,1.82a4.57,4.57,0,0,0,1.47.48Zm-2-2-.86-.55-1,.41-.2-1.06-1.06-.42.31-1-.48-.77.91-.17.66-1.45,1,.72,1.06-.39.29.79,1.08.53-.4.87.54,1.18-1.25.09Zm-21.89-1.09-5.45-5.37,5-5,5.45,5.38Zm-56.88-1A1.19,1.19,0,1,1,30,138.69,1.17,1.17,0,0,1,28.8,139.87Zm71.43-.26c.31,0,.49-.3.77-.85.11-.24.78-1.51,1.4-2.49,1.41-2.2,1.41-2.09,0-3a33,33,0,0,1-3.13-2.56c-1.08-1-1-.76-3.32,1.6-1.52,1.54-2.46,2-1.86,2.78,1.45,1.24,2.63,2.15,4.19,3.35,1.07.77,1.59,1.13,2,1.13ZM85.42,139l3.21-3.16L85,132.54l-3,3.1Zm55.07,1.09,0-24.79c-3.54-6.08-7.18-12.21-9.06-19l-5.18,2.56C128.7,119.06,134.47,130.27,140.49,140.09Zm9.24-1.57a1.19,1.19,0,0,1,0-2.37,1.19,1.19,0,1,1,0,2.37ZM85.39,137.2l-1.56-1.42,1.43-1.55,1.56,1.63Zm-58-.23a1.19,1.19,0,1,1,1.18-1.18A1.17,1.17,0,0,1,27.35,137Zm3.18-.12a1.2,1.2,0,0,1,0-2.39,1.2,1.2,0,0,1,0,2.39Zm69,.08-.89-.67-1,.45-.08-1.24-1-.48.61-.89-.37-1.16,1,0,.8-1.07.73.7,1.4-.1.23,1.21.62.48-.48.81.36,1.07-1.21.08Zm52-1.32a1.19,1.19,0,0,1,0-2.38,1.19,1.19,0,0,1,1.19,1.18A1.21,1.21,0,0,1,151.47,135.61Zm-3.41,0a1.19,1.19,0,1,1,1.17-1.2A1.17,1.17,0,0,1,148.06,135.58Zm-68.35-2.84,2.82-2.64-2.77-2.92.07-2.23,4.92,4.93-5,4.94Zm27.84.57,10.57-7,.65,1.77-9.41,6.2ZM29,133.89a1.2,1.2,0,0,1-1.19-1.2,1.18,1.18,0,1,1,1.19,1.2Zm63.34-.72c.49,0,1-.62,1.94-1.63s2-2.15,2.27-2.32c.74-.52.69-.66-.59-2.08-.38-.44-1.12-1.34-1.63-2s-1.31-1.47-1.48-1.64c-.53-.54-.81-.44-3.18,1.29-2.9,2.09-2.89,1.78-.22,5.22C90.94,132,91.67,133.22,92.3,133.17Zm57.46-.73a1.19,1.19,0,1,1,1.19-1.18A1.17,1.17,0,0,1,149.76,132.44Zm-62-.43L85.88,130l.17-.21Zm-61.72-.45V128L32,122.53v3.26Zm65.87-1-.71-1L90,129.6l.19-1.16-.65-.48.63-.88,0-1.12,1,.23.82-1,.8.94,1-.1,0,1.16,1,.56-.68.76v1.3l-1.41.05Zm-29.09-.08-.59-1.8L77,119l1.28,1.48Zm38.49-1.21-1.18-.88,15.43-10,.46,1.31Zm45.13.39v-3l6.51-6.32v3.07Zm-61.11-.71-.19.15-5-4.87,1-1Zm13.94-1.43L99.16,98.7l1.34.94-.1,27.3Zm-.83-.67-1.1-1,1-1Zm-72.4.25v-2.92L32,118.53v3Zm120.4-1.41V122.9l6.51-6.25v2.78Zm-60.67-.37a1.07,1.07,0,0,0,.62-.33c.25-.19.83-.6,1.31-.91a25.77,25.77,0,0,0,3.33-2.41c.14-.32-1.63-2.67-4.1-5.46-1-1.1-.94-1.32-1.91-.32-.77.88-3.61,3.3-3.53,4s1.12,1.58,3.54,4.87C85.39,125.09,85.59,125.28,85.8,125.28Zm10.94-.3-3.87-5.57.51-.51,4.75,4.72Zm7.56-.67,0-26.85,7.27-5.19c-.14-.08.89,16.13,3.67,24.77Zm-18.06-.94L85.53,122l-1.08.19.13-1.22-.91-.72.9-1.24-.12-.88,1,.24,1-1,.66,1.27,1.39,0-.2,1.23,1,.82-1.06.62-.15,1.12-.91-.08Zm-6.31-.2-.13-1.1.65.55Zm18.57-2v1.57l-4.62-4.5,4.73-4.45,0,2.12-2.7,2.58Zm-38.29.87-.66-2,9.52-5.89,1.91,1Zm-31.34-3.3a1.19,1.19,0,1,1,0-2.38,1.19,1.19,0,0,1,0,2.38Zm60.56-3.87,3.35,3.37-.42.47Zm-8.61,3c1.13-1,3.55-3.79,3.55-4.25S81,110.32,79,109c-.63-.41-.88-.42-1.13-.05-3.47,5.23-3.62,5-2.25,6.06a39.19,39.19,0,0,0,4.15,3.23c.48.22.56.08,1-.34Zm12.53-.25-5.51-5.32,5.11-5,5.3,5.63Zm56.29-.4a1.18,1.18,0,0,1-1.18-1.18,1.18,1.18,0,1,1,1.18,1.18ZM80,116.22l-.93-.82-1.11.29-.25-1.1-1.06-.39.57-1.12-.08-1.41,1.08.2.74-1.14,1.1,1.1,1.25-.11-.08,1.22,1.11.55-.69.8.43,1.11-1.33-.22Zm-52.7-.5a1.19,1.19,0,1,1,1.19-1.18A1.19,1.19,0,0,1,27.29,115.72Zm69-2.81L93,109.56l-3,2.9,3.18,3.39Zm-65.7,2.76a1.19,1.19,0,1,1,1.17-1.17A1.16,1.16,0,0,1,30.55,115.67Zm120.71-1.24a1.2,1.2,0,1,1,1.17-1.19A1.16,1.16,0,0,1,151.26,114.43Zm-3.46,0a1.2,1.2,0,0,1,0-2.39,1.2,1.2,0,0,1,0,2.39Zm-54.65-.28-1.48-1.53L93,111.16l1.54,1.58ZM73,113.1c.76-.54,2.83-4.48,3.18-5.35a6.18,6.18,0,0,0-2.23-1.43c-1.07-.5-4.51-1.89-4.82-2-.69-.17-.81.09-.92.54-.06.24-.34,1.15-.64,2.14-1.06,3.48-1.38,3.32.21,3.85.54.19,2.26.76,3.34,1.27S72.65,113.12,73,113.1Zm-44-.62a1.19,1.19,0,1,1,0-2.37,1.19,1.19,0,0,1,0,2.37Zm56.38-1.63-.18-23.34L87,88.93l0,23.43Zm8.11-4,5-5.13,0,2.62-2.81,2.56,2.86,3-.07,2A63.5,63.5,0,0,1,93.45,106.86Zm56.2,4.49a1.2,1.2,0,1,1,1.19-1.2A1.2,1.2,0,0,1,149.65,111.35Zm-77.39,0-1-.85-.85.51-.49-.87L68.68,110l.54-1.33-.71-1,1.19-.22L70,106l1.16.7.88-.39.65,1.21,1.37.06-.76,1.31.71,1L73,110Zm15.49-.09v-2.06L89.94,107l-2.19-2.41v-2.38l4.54,4.63ZM64.47,110c.46,0,.46-.5.82-2.08.07-.34.32-1.25.54-2,.66-2.36.74-2.4-1.3-2.81-1.19-.17-6.29-1.38-6.4-.56-.12,1.4-.22,4.67-.23,5.79,0,.37,0,.73.41.78,2.33.26,4.93.86,6.16.91Zm19.91-.09a99,99,0,0,0-9-5.83l-.07-24,9.15,6.86Zm-58.23-.08v-3L32.24,101v2.81Zm35.73-1-.53-1.14-1.11.38v-1.37l-1-.62,1.18-.56.11-1.66,1.2.38,1-.63.88.94h1.08l-.4,1.47.69.67-1,.5-.08,1.32-1.08-.66Zm84.47.23v-2.84L153,100v2.48Zm-92.79-1.78-1.49-2.53.54-1,1,.5,1.09-.4-.16,1.35.84.68-.86.79,0,1Zm39.32-.84-5.09-5.31L93,95.68l5.09,5.38Zm-66.73-3.32,6.09-5.69v2.77L26.15,106Zm120.2,2.31V102.6L153,96.35v2.56Zm-53.48-1,3.3-3.29-3.29-3.3L89.57,101Zm-.05-1.89L91.4,101l1.36-1.41,1.47,1.43Zm5.68-2-5-5.21.59-.68,4.47,3.49ZM87.67,100l-.14-2.36,2.75-2.36-2.52-2.65-.07-2.45,4.78,5Zm-58.8-2.37a1.2,1.2,0,0,1-1.19-1.2,1.17,1.17,0,0,1,1.19-1.18A1.18,1.18,0,0,1,30,96.47,1.2,1.2,0,0,1,28.87,97.67Zm120.64-1.45A1.2,1.2,0,1,1,150.68,95,1.17,1.17,0,0,1,149.51,96.22Zm-24.15-.73,3.71-5.6-2.93-2,2.78-3.75L126,80.68,129,78.17,126,73.08a14.52,14.52,0,0,1,3.46,1.57l2.22,4.26-2.56,2.22,2.59,3L129,87.41l2.73,1.93-3,4.6Zm-97.91-.74a1.19,1.19,0,0,1-1.18-1.2,1.18,1.18,0,0,1,2.36,0A1.19,1.19,0,0,1,27.45,94.75Zm73.24.09L75,74.93l.11-2.64,25.71,19.87,10.92-7.76-.09,2.83Zm-70.1-.25a1.17,1.17,0,0,1-1.17-1.17,1.18,1.18,0,1,1,2.36,0A1.17,1.17,0,0,1,30.59,94.59Zm59.84-2.54.28,0,2.81,2.07-.62.69S91.05,92.7,90.43,92.05Zm57.34,1.15a1.2,1.2,0,0,1,0-2.39,1.2,1.2,0,0,1,0,2.39Zm3.18,0A1.19,1.19,0,0,1,149.76,92,1.17,1.17,0,0,1,151,90.81a1.19,1.19,0,0,1,0,2.37ZM28.87,91.62a1.2,1.2,0,0,1-1.19-1.2,1.17,1.17,0,0,1,1.19-1.18A1.18,1.18,0,0,1,30,90.42,1.2,1.2,0,0,1,28.87,91.62ZM149.53,90.3a1.2,1.2,0,1,1,1.17-1.2A1.18,1.18,0,0,1,149.53,90.3ZM26.15,88.09V85.47l5.77-5.61v2.53ZM104,87.3c-.86,0-2,0-3.55-.09-1.32,0-2.79-.08-3.25-.06-1.84,0-2.44-.58-2.47-2.56,0-1.77,0-1.77-2.33-1.86-2.78-.13-3.52-.84-3.55-3.48,0-1-.83-1.42-2.45-1.19-2.55.36-3,0-3.35-2.37-.25-2-.11-1.9-2.45-1.87-2.52,0-3.07-.4-3.1-2.35,0-1.14-.3-1.48-1.27-1.55s-1.48-.64-1-1.17a3.4,3.4,0,0,1,1.33-.17c1.6,0,2.13.48,2.42,2.33.2,1.29.34,1.35,2.47,1.29,2.71-.08,2.93.09,3.22,2.46.25,2,.59,2.25,2.93,1.82,1.7-.33,2.59.43,2.83,2.34.24,2.15.34,2.23,2.74,2.33s3.09.51,3.1,2c0,2.26.31,2.46,3.29,2.37a28.7,28.7,0,0,1,3.76.08c1.79.18,1.79.2,2-1.54.26-2.59.64-2.84,4-2.57,1.42.1,1.53,0,1.62-1.06.13-1.36.62-2.2,1-1.69.2.26.2.29,0,2.3-.23,2.23-.25,2.25-3.15,2-2-.16-1.86-.22-2.08,1.56-.26,2.18-.23,2.67-2.79,2.7Zm42.3.21V84.64L153,78.35v2.8Zm-20.94-3.39-1.46-2,.48-3.74,1.25-1-.88-1.78.28-2.19.35-.2L127.79,78l-2.9,2.56,3,3.63-2.8,3.8L128,90.08l-3.5,5.18c-.6.75-.65-2.2-.65-2.2l1.45-2.2-1.62-1.42h0V86S125.32,84.12,125.32,84.12Zm-1.85,1.69-.15,4.7,1.26,1-1,1.63.06,4.16.3.2c2.42,29.77,16.92,47.36,19.19,51.36a1.6,1.6,0,0,1,.41,1.43c0,.45-.06,3.07,0,5.83.09,14.11,0,23.78,0,23.78l10.66,11.41-.07-4.17-.52-.37v-19l.45,0s.14-5.11.1-8.62h-.63l0-13.08.54-.06,0-8.47h-.58s-.14-8.89.07-13.2l.44,0,0-8.43-.49,0,0-12,.62-.09-.17-7.94-.5,0c-.18-4.92-.09-13.4-.09-13.4l.57,0-.14-7.9-.4,0,.13-13.85.37,0-.14-8.19-.4,0,.06-6.81.27,0,.07-2.54-.3-.67V33l.23-.1.06-4.56-16.52,16.8,6.08.19v5.43c0,9-.13,16.19.15,24.93a4.65,4.65,0,0,0,1.34.21c3.14.19,4,.44,4,1.2,0,.93-1.4,2.09-2.58,2.11a2,2,0,0,0-.71.26l.39,99.42,7.39,7.78,0,2.47-9.12-9.7-.34-99.36-.34.15,0,33.37c-4.67-7-7.28-14-9.89-20.94l-.95.34.32.12a81,81,0,0,0,10.35,22.07l-.06,32.35c-11.14-15.81-16.52-30-18.76-50.53L130,94.22l.54-.73,4.26-2.14.4.68,2.58-1.79c-2-3.49-1.92-8.52-.3-11.19l-.69-.43A13,13,0,0,0,137,89.79L135.07,91c-2.77-5.77-1.48-12-.18-13.57,0,0-2-1.29-3.46-2.08a26.62,26.62,0,0,0-4.84-2.25,1.92,1.92,0,0,0-1.9.09l-.55,3.21.89,1.23-1,.84-.48,4.93,1.13,1.13Zm-97.32-1.3V81.33l5.77-5.49V79ZM146.26,81.1,153,74.88v2.59l-6.74,6.36ZM28.43,76.88a1.19,1.19,0,0,1-1.18-1.19,1.16,1.16,0,0,1,1.18-1.18,1.19,1.19,0,0,1,0,2.37ZM143.56,75V45.67h1.77l-.08,29.64Zm5.95.26A1.19,1.19,0,1,1,150.68,74,1.16,1.16,0,0,1,149.51,75.22ZM30.12,74.09a1.18,1.18,0,0,1-1.18-1.18,1.18,1.18,0,1,1,2.36,0A1.18,1.18,0,0,1,30.12,74.09Zm-3.18,0a1.19,1.19,0,1,1,1.19-1.18A1.18,1.18,0,0,1,26.94,74Zm120.74-1.78a1.2,1.2,0,0,1-1.19-1.2,1.18,1.18,0,1,1,2.36,0A1.2,1.2,0,0,1,147.68,72.26Zm-60.81,0c-6.16-.76-4.52-7.26-1.93-8.61C88.47,62,91.3,65.29,89,68.67c-1.65,2.49-4.79.84-3.58-1.87.68-1.54,2.1-1.35,2.1.2-.51,1.47,0,.94.36.43,1.25-1.63-1.27-3.35-2.56-1.75a3.49,3.49,0,0,0-.7,3.09c.46,1.59,2.3,2.53,4.38,1,2.49-3,3.81-6.85,4.54-11.18,1.56-9.22,1.63-18.91,3-21.36l1.45,0c-2.12,10.55-2.13,19.58-4.4,27.89C92.48,69.29,89.63,72.23,86.87,72.23Zm64-.07a1.19,1.19,0,0,1,0-2.38,1.19,1.19,0,0,1,0,2.38Zm-25-.15a3.12,3.12,0,0,0,3.14-3.1c-.15-2.1-1.39-3-3.42-2.83-1.08.11-1.07.13-1.79-1.19a39,39,0,0,1-2.41-7c.84,1.11,2.78,3.18,4.58,3.1s3.57-2,2.1-4.59a2.91,2.91,0,0,0-3.56-1.1c-2.1-3.29-2.5-6.58-3.16-10.4,0,0-.84,8.18-1.08,11.44-.48,5-1.16,8.23-3.09,12.19a36.06,36.06,0,0,0,5.05,2.33,9.15,9.15,0,0,1,2.08.71A2.62,2.62,0,0,0,125.93,72Zm-97.62-.67a1.2,1.2,0,0,1,0-2.39,1.2,1.2,0,0,1,0,2.39Zm94.3-2.62a17,17,0,0,1-2.5-6.65,23.69,23.69,0,0,1,.4-4c.09-.68.36,0,.82,1.45,1.91,6.08,2.42,7.24,3.75,6.94a3.16,3.16,0,0,1,2.06.08c1.69.93,1.84,4.07-.61,4.67-2,.42-3.23-1.32-3.92-2.45Zm0,1.51c-2.46-1-4-2.44-3.57-4.83.2-.9.33-1.63.57-1.53s.67,1.17,1.42,3C121.24,67.51,123,70.21,122.66,70.23Zm-40.59-.1c-.12,0-.34-.11-.6-.35-1.93-1.91-.88-6.22,1.7-7.48,1.06-.73,3-.62,3,.09,0,.28-.06.36-.32.36-2.16,0-4.48,3-3.83,6.23.06.49.2,1.12,0,1.15Zm67.4-1a1.2,1.2,0,1,1,1.18-1.2A1.2,1.2,0,0,1,149.47,69.08Zm-69.42-.36a1.52,1.52,0,0,1-.91-.56c-1.82-2.2-.34-6,2.51-7.26,1.1-.59,2-.18,1.79.44a5.84,5.84,0,0,0-3.59,5.8C79.91,68.13,80.23,68.69,80.05,68.72Zm38.6-.4L118,68l.28-.58A3.09,3.09,0,0,0,118.65,68.32ZM78,68.07a.93.93,0,0,1-.77-.25c-1.18-1.15-1.36-4.37-.24-6a9.23,9.23,0,0,1,2.67-2.25,2.77,2.77,0,0,1,1.93.28c.33,0-.14.31-.74.67-2.13,1.24-3.55,3.44-3.18,5.52C77.86,67.36,78.24,68.07,78,68.07Zm-2.16-1a1.82,1.82,0,0,1-1.27-1c-1.4-2-.23-6.26,2.62-7.15,1.92-.59,2.63,0,1.08.87-2.22,1.3-3.36,3.85-2.73,5.86.31,1,.61,1.38.3,1.4Zm-2.3-1.47a1.7,1.7,0,0,1-1.42-1.06,5.39,5.39,0,0,1,.25-4.42A4.89,4.89,0,0,1,76,57.57a2.1,2.1,0,0,1,1,.15c.66.3.43.34-.82,1a5.52,5.52,0,0,0-2.89,5.67C73.4,65.31,73.76,65.56,73.51,65.56Zm72.75.43V62.86l6.55-6.22v3Zm-55.72-.4a18.23,18.23,0,0,1-1-2.28c1.55-2.22,2-5.87,2.21-8.63.86-7.83,1.77-17.28,2.16-17.36l1.71,0c-.65-.43-1.48,13-2.81,21.49-.09.65-1.51,7.21-2.31,6.81ZM70.72,64.21c-2.26-1.54-1-6.32,2.08-7.5,1.14-.43,1.56-.49,2.07,0,.32.31.63.42-.19.72a4.72,4.72,0,0,0-3.56,5.3c0,.62.61,2.24-.4,1.48Zm18.21-1.34-1-.66a56.94,56.94,0,0,0,2-11c.54-4.58,1-9.28,1.69-13.78l1.58-.06c-.82,2.78-1.19,10.52-2,17-.49,3.3-1,7.83-2.21,8.48ZM87.15,61.8,85.83,61a52.61,52.61,0,0,0,1.28-5.81c.61-4.32.84-9.54,2.23-17.58l1.42-.12c-.36,2.59-1,8.33-1.61,13.63C88.49,57.3,87.44,61.94,87.15,61.8Zm59.11.2V58.93l6.55-6.06v2.84ZM84.92,60.83l-1.28-.72a88.61,88.61,0,0,0,1.7-9.63c.57-4.16,1-8.19,1.77-12.75l1.52-.09c-.76,3.5-1.62,11.72-2.3,17.51C85.94,58.51,85.12,60.89,84.92,60.83ZM121,53.91A54,54,0,0,1,121.5,48c.2-.11.82,5.26,3,7.69a2.46,2.46,0,0,1,3.11,3.72C124.09,62.45,121,56,121,53.91ZM83,59.89,81.11,59c.24.05.67-1.22,1.08-3.21,1.28-6,2.56-17.92,2.77-17.92l1.41-.12c-.46,3.2-1.08,8.24-1.74,12.7-.74,5.08-1.43,9.39-1.68,9.4ZM80.4,58.75,79,57.91a8.07,8.07,0,0,0,.86-2.45c1.25-6,1.82-11.29,2.59-17.13l1.51-.2c.11-.17-1.31,11.5-2.48,17.37a8,8,0,0,1-1.1,3.25Zm-2.16-1.06L76.75,57c1.62-4.63,1.77-9,3.33-18.31l1.57-.28a169.78,169.78,0,0,1-2.82,18.12A2.61,2.61,0,0,1,78.24,57.69ZM76.1,56.61l-1.68-.69,3.52-17,1.42-.19c-.88,4.9-1.35,10.58-2.53,15.05a25,25,0,0,1-.73,2.84Zm73.12-2.69a1.19,1.19,0,1,1,1.17-1.18A1.18,1.18,0,0,1,149.22,53.92Zm-1.54-2.79a1.19,1.19,0,0,1-1.19-1.19,1.18,1.18,0,1,1,1.19,1.19Zm3.07-.08a1.2,1.2,0,1,1,1.18-1.19A1.19,1.19,0,0,1,150.75,51.05Zm-1.48-2.73a1.19,1.19,0,0,1-1.19-1.19,1.19,1.19,0,0,1,2.37,0A1.18,1.18,0,0,1,149.27,48.32Zm-10.68-4,14.16-14.42.05,2.88-9.7,9.59,9.78.15,0,2Zm6.5-2.74,7.58-7.28.07,7.4ZM137,41.08s.05-.26-.66-1.52c-2.07-3.62-2.55-7-4.38-10.84a11.08,11.08,0,0,0-3.43-4.39l2.29-4.19-64.32.14L76.76,38.35a123.38,123.38,0,0,1,44.83-.08,52.54,52.54,0,0,0,2.49-4.81C126.14,39,132.73,42.61,137,41.08Zm-2.33-.5c-3.39.05-6.23-1.58-8.74-5-.81-1.1-1.12-1.6-1.12-2.05a12,12,0,0,1,1.15-2.23,21.48,21.48,0,0,1,.75,2.51c.91-3.38,1.28.54,1.64,1.56,1.11-3.27,1.71,1.23,1.66,2.44,1.52-2.09,1.42,1.35,2.16,2,0-1.82,1.08-.58,2.46-.19-.73-1-2.13-1.69-.33-1.92-1.79-1.24-2.68-1.06-.94-1.74-1.34-.75-3.53-1.63-1.11-2.13-1.48-.94-3.87-1.33-1.31-2.23-1.94-1.19-4.52-1.1-.9-2.06-1.31-.78-3.64-1.07-1-1.74a12,12,0,0,1-1.09-.65L129,25.33a1.21,1.21,0,0,1,.68.33c1.19,1.26,2.34,3.55,3.39,6.78a56.53,56.53,0,0,0,2.67,7c.53,1.1.47,1.17-1.11,1.18ZM77.2,36.52l-8.89-15.3,2.11,0,7.86,13.09,10.58-1.21L85.37,21.36l3.15-.09,3.13,11.51a142,142,0,0,1,16.46.09l1.67-11.68,3,.11-1.89,11.56,9.93,1.27,5.38-13,3.1-.06c-2,3.4-7,14.36-7.94,15.45-21.64-3.46-32.89-1.57-44.16,0ZM79.28,33,72.55,21.21l10.82-.05L87,32.05Zm40.45-.35a28.17,28.17,0,0,0-6.75-.85l2-10.53h9.58Zm-27-1.24L90.22,21.16l18-.09-1.48,10.19C102,31,97.4,31.24,92.76,31.38Z"/></g></g></g><path id="path147-0-8-1-3-6-4-3-4" d="M130.58,223c7.8-.2,11.3-9,5.5-15.8-.8-1-.9-1.6.6-.6,3.9,2.6,11.4.9,11.8-7.1.5-9.8-13.3-12.7-15.8-2.2-.1,1.1-1,1.1-.8-.5a32.78,32.78,0,0,1,3.4-12.1H126a34.21,34.21,0,0,1,3.4,12.1c.2,1.6-.7,1.6-.8.5-2.6-10.4-16.3-7.6-15.8,2.2.4,8,7.9,9.7,11.8,7.1,1.5-1,1.5-.4.6.6-5.9,6.8-2.4,15.6,5.4,15.8Z"/><path id="path147-0-8-1-0-3-83-9-4-0" d="M48.18,26.53c7.8.2,11.3,9,5.5,15.8-.8,1-.9,1.6.6.6,3.9-2.6,11.4-.9,11.8,7.1.5,9.8-13.3,12.7-15.8,2.2-.1-1.1-1-1.1-.8.5a32.78,32.78,0,0,0,3.4,12.1h-9.3A34.21,34.21,0,0,0,47,52.73c.2-1.6-.7-1.6-.8-.5-2.6,10.4-16.3,7.6-15.8-2.2.4-8,7.9-9.7,11.8-7.1,1.5,1,1.5.4.6-.6-5.9-6.8-2.4-15.6,5.4-15.8Z"/></g></g></g></svg>