<svg xmlns="http://www.w3.org/2000/svg" viewBox="0 0 178.71 249.6"><defs><style>.cls-1{fill:#fff;stroke:#000;stroke-width:1px;}.cls-2{fill:#d40000;}.cls-3{fill:#131f67;}.cls-4{fill:#e2cf00;}</style></defs><title>Jd</title><g id="Layer_2" data-name="Layer 2"><g id="svg11376"><g id="Jd"><path id="rect7098-3" class="cls-1" d="M9,.5H169.74A8.47,8.47,0,0,1,178.21,9V240.63a8.46,8.46,0,0,1-8.47,8.47H9A8.46,8.46,0,0,1,.5,240.63V9A8.4,8.4,0,0,1,9,.5Z"/><path id="path7130-4" class="cls-2" d="M14.54,56.32a42,42,0,0,0-5.77-8,42.38,42.38,0,0,0,5.77-8,41.94,41.94,0,0,0,5.77,8A38.67,38.67,0,0,0,14.54,56.32Z"/><path id="path7134-0" class="cls-2" d="M164.17,209.33a41.61,41.61,0,0,0-5.78-8,42,42,0,0,0,5.78-8,41.94,41.94,0,0,0,5.77,8A42.77,42.77,0,0,0,164.17,209.33Z"/><path id="path7136-1" class="cls-2" d="M48.29,64.89C44.21,58,39.83,51.44,34.35,45.76c5.48-5.69,9.76-12.27,13.94-19.14,4.08,6.87,8.46,13.45,13.94,19.14C56.75,51.34,52.47,58,48.29,64.89Z"/><path id="path7154-5" class="cls-2" d="M130.42,223.09c-4.08-6.88-8.46-13.46-13.94-19.14,5.48-5.68,9.76-12.26,13.94-19.14,4.08,6.88,8.46,13.46,13.94,19.14C138.88,209.63,134.5,216.31,130.42,223.09Z"/><path id="path6263-5" class="cls-3" d="M24.3,229.77V19.94h130V229.77ZM71.09,54.83c-4.68-1.3-4.58,3.39-1.1,3.48,3.78.3,5.48-6.18,3.58-8.77C73.67,49.54,72.08,54.53,71.09,54.83ZM40.92,80.94l-5.57,2.49v4.19a21,21,0,0,0,5.57-6.68Zm38.13,125.5c-1.1-.6-2.39-1.79-2.19-2s.7.1,1.19.3c4.38,1.79,7.77,1.69,13-.2.39-.1,1,.59.79,1-2.29,3.59-9.75,2.3-12.74.9Zm-2.29-5.08c-1-1.5.3-.4.8.1,3.18,3,7.56,4,11.35,1.19.19-.2.19-.4.1-.5-.1-.3-.1,0-1.7.6-3.58,1.4-6.67.2-9.55-2-1.2-.9-1.8-1.4-1.8-1.7s.2-.4.6-.3,1,.2,1.49.2c.9.1.8,0,1.8-.4a9.35,9.35,0,0,1,5.87-.89c.5.1,1.1.2,1.19.2.5-.2-.19-.8-2-2.2-.3-.29-.79-.49-.89-.69-.2-.4,0-.5.3-.5.69,0,4,2.69,5.07,4.28.3.5.6.5.6,1.1a2.22,2.22,0,0,0,.4,1.8,7.69,7.69,0,0,1,.8,1.39s-.1.3-.5.1c-.2,0-.3-.2-.6-.2a4.93,4.93,0,0,0-1.19.5c-4.58,2.89-8.77,1.49-12.15-2.09Zm10-.2a4.51,4.51,0,0,0-.8-2.2,2,2,0,0,0-3.09-.2,9.06,9.06,0,0,0-1,2.1,6.17,6.17,0,0,0,.89.2,2.21,2.21,0,0,1,.8-1.9,1.18,1.18,0,0,1,1.39,0c.6.3.8,1.5.9,1.9a1.59,1.59,0,0,0,.9.1Zm-5.48-2.5c-.6.3-1.49.5-1.69.9-.3.6.6.7,1.09.9s.7.2.9-.3a9.74,9.74,0,0,1,.5-1.1c.39-.79-.1-.69-.8-.4Zm6.87,1.7c.4-.4.4-.6.1-1-.1-.2-.6-.4-1-.5-.59-.2-.89-.39-.49.4l.49,1.2c.3.3.6.2.9-.1ZM27.68,161.18A20.53,20.53,0,0,0,31,160.09c.79-.3.89-.3.59-.7a2.68,2.68,0,0,1-.2-1.1l.1-.69A4.83,4.83,0,0,0,27.38,159a1.41,1.41,0,0,0,.3,2.19Zm-.2,3.39c.4.4.5.4,1.79,0a4.46,4.46,0,0,1,2-.69c1.5-.4,1.5-.2,1.1-1.2a1.72,1.72,0,0,1-.2-1.2c.1-.49.1-.59-.1-.59-.7-.2-4.08,1-4.68,2a1.07,1.07,0,0,0,.1,1.69Zm78.05,33.2a24.22,24.22,0,0,1,.1,2.59c0,1.3.5,1.59,1,.9.49-1.6.69-4.19,2-5.59.89-.29,2.09.2,2.78-.39a1.85,1.85,0,0,0-1.09-3.29c-2.89-.1-5,3.39-4.78,5.78Zm7-4.09a2.37,2.37,0,0,1-3.09,2.29c-.69-.2-.89,0-1.29.9a33.48,33.48,0,0,0-1.59,6.78c-.1,1.49-.7,5.48-.3,6.68,4.58,5.68,9.46,11.56,14.73,17.44h31.56V190.59l-9.06-8.67V168.16c-9.76,4.59-19.51,9.27-29.37,14,2.09,6.88-5.08,8.27-6.67,3.69-1.39,1.29-2.49,8.07-2,8.37,0,0,.2.2.5-.3a5.94,5.94,0,0,1,1.89-2C110,190.89,112.4,191.49,112.5,193.68Zm-25-.7c-1.59-1.19-.69-3.09.6-3.69a4.09,4.09,0,0,1,3,.2,4.48,4.48,0,0,0,2.78.3c.7-.1.6,1.4-.2,1.8-.49.3-1.69.1-3.18-.7-2.59-1.5-3.68.4-2.09,2.09.79,1-.7.2-.9,0ZM35.15,170.55a1.42,1.42,0,0,0-.5-2.69,1.46,1.46,0,0,0-.9,2.69c0,.2-.59,0-.89-.19-.5-.4,0-1.9-.5-1.9a36.36,36.36,0,0,0-4.28,1.5c-1.59.89-.1,2.89.8,2.69,1.89-.6,4.47-1,6.27-2.1Zm-7.87-2.89c0,.9.3,1.3.9,1.3a25.09,25.09,0,0,0,3.58-1.2c.9-.3,1.3-.59.6-1.19a1.34,1.34,0,0,1-.3-1.2c.2-.7.1-.8-.3-.8a18.19,18.19,0,0,0-2.88,1c-1,.4-1.2.5-1.4,1.1a1.48,1.48,0,0,0-.2,1Zm10.26,11.67a8.07,8.07,0,0,0,.69-2.2c-.1-.69-.59-.79-1-.39s-.4,1.19-.7,1.69a1.42,1.42,0,0,0-.2.6.79.79,0,0,0,1.2.3Zm4.08-8.58c15.83-16.84,25.58-40.17,8.46-72.26-1.1-1-2.49,2.29-2.69,2.39l-2.19,1.89c11.55,20,9.56,43-4.58,59.41v1c0,2.29.7,2.19,1.69,1.1s.3-.2-.1.19-.89,1.1-1.09,1.3c.1,1.5,1,4,.5,5Zm-1.1-5.08a11.93,11.93,0,0,1-.4-2.29,7.57,7.57,0,0,1-.1-1.5,26.77,26.77,0,0,0-.89-3.88,2.57,2.57,0,0,0-2.19-1c-.8-.1-.9,0-1.1.2a7.88,7.88,0,0,0,.2,3.69,3.85,3.85,0,0,1-.1,2.59c-.1.4-.1.4,0,.4.8-.1,1.1-1,1.4-.7a5,5,0,0,1-.5,1.69,4.59,4.59,0,0,0,0,3.49,1.88,1.88,0,0,1,0,1.5,8.94,8.94,0,0,0-.3,2.29,2.59,2.59,0,0,1,0,2.19,5.94,5.94,0,0,0-.6,3.29c.1.4.4.1.6-.6.3-1.19.7-1.49,1.69-1.49.7,0,.8.2,1-.1a18,18,0,0,0,1.89-4,10.26,10.26,0,0,0-.6-5.78Zm7.57,11.86a2.82,2.82,0,0,0,1.09-1.39,19,19,0,0,0-3.78-3.59c-.5-.3-.7-.1-1.59,1.09s-.9,1.1-.7,1.3,2.89,2,3.78,2.49a1.23,1.23,0,0,0,1.2.1Zm5-4.58c-.4-.3-3.59-3.79-4.48-4-.4-.1-1.5,1.2-1.5,1.5a31,31,0,0,0,3.39,3.48,1.81,1.81,0,0,0,1,.6C51.87,174.34,53,173.45,53.07,173Zm3.28-3.29c0-.2-.4-.6-1.19-1.5-2.19-2.09-3.39-3.09-3.79-3.09a3.18,3.18,0,0,0-1.19,1.9,41.4,41.4,0,0,0,4.28,3.88c.6.5,1.89-.79,1.89-1.19Zm3.49-3.39c.1-.3-.1-.6-.6-1-.3-.3-1.49-1.49-2.59-2.49-2.29-2.29-2.29-2.29-3-1.2s-.79,1.1,1.5,3.29,2.88,2.79,3.28,2.79A3.08,3.08,0,0,0,59.84,166.27Zm-25.49-2.09a1.39,1.39,0,0,0-1.09.19c-1.7,1.4.69,3.29,1.69,2.1a1.34,1.34,0,0,0-.6-2.29Zm29-1.5c0-.2-.5-.8-2.19-2.39-4.18-4-4-3.89-4.48-3.59a3.2,3.2,0,0,0-.9,1.59c0,.3.4.7,3.49,3.59,1.79,1.7,2.39,2.1,2.69,2.1.59-.1,1.39-.7,1.39-1.3Zm-28.87.2a1.25,1.25,0,1,0-1.69-1.1c.2,1,1,1.4,1.69,1.1Zm32.35-3.49c0-.5-7.16-7.18-7.66-7.18-.3,0-.6.3-.9,1s-.3,1.1.1,1.4c.5.49,1.89,1.79,3.19,3,.8.69,1.69,1.59,2,1.89a4.35,4.35,0,0,0,1.89,1.4c.3-.4,1-.7,1.39-1.5Zm-32.75-.9a1.3,1.3,0,0,0-.3-.79,1,1,0,0,0-1.59.39C32,159.79,34.05,159.89,34.05,158.49Zm5.38-52.43,1.39-4.28,4.28-.1.6-4.29,4.38-.6.1-4.38,4.28-.6L54.16,87,58,86.13l-.19-4.39,3.58-1.1-.1-3.78.6-.5-1.5-1.6-1.29.4v3.89l-3.58,1.19L56,84.63l-3.58.8v4.68l-4.18.5-.3,4.19-4.08.8-.6,4.08-3.88.3-1.2,3.59H35.54V106Zm46.69,77.05c-.1-.29.2-.29.79.1a4.75,4.75,0,0,0,2.29.7,17.44,17.44,0,0,0,2.19-.4,6.1,6.1,0,0,1,3.29-.2c.9.1,1.69.2,1.89.2a2.17,2.17,0,0,0,1.79-1.09c.7-1.2.5,1,.5,1.19,0,1.1.2,2.4-.7,1.8a2,2,0,0,0-2,0,1.63,1.63,0,0,1-2,.1,1.19,1.19,0,0,0-1.49.1c-.5.49-1.89.3-2.59.1-1.19-.2-1.89-.4-2.69.3-.4.19-.5.09-.89-.9a10.4,10.4,0,0,1-.4-2Zm3.08-.79c-.1-.1.6-.8,1-1,1.29-.7,3.78-.6,5.67,0,1,.4,1.1,1,.2.8-1.89-.4-4.28-.7-6.17.1a.63.63,0,0,1-.7.1Zm1.6-3c-1.3-.5-2-1-2-1.2s.29-.1,1.29.1a6.92,6.92,0,0,0,4.48.3c1-.4,1.49-.6,1.49-.4a2.18,2.18,0,0,1-1.09,1.2,6.06,6.06,0,0,1-4.18,0Zm28.47-3.69,1-.1-.3-4.09,3.58-1.09-.3-4.09L127,165l-.19-4.58,4-.8.5-4,3.78-.3.8-4.28,4-.1.79-3.59h2.69v-2h-4.18l-.9,3.88-4,.1-.79,4.29h-4.09l-.49,4.58-3.89.6v5l-3.78,1,.3,4.29-3.78,1.4.39,4.08Zm25.09-95.4a1.93,1.93,0,0,0-.6,1.8,1.36,1.36,0,0,0,2.59-.1,1.28,1.28,0,0,0-.7-1.3.85.85,0,0,1-.6-.2c-.1-.1.6-.49,1.1-.39a1.78,1.78,0,0,1,1,1.49c0,.2-.1.6,0,.7a11.34,11.34,0,0,0,2.89-.8c1.59-.5,2.19-1.39,1.89-2.49-.3-.9-1.19-1.3-2.49-.8-1.69.8-3.68,1.1-5.07,2.09ZM74.87,180.12c5.47-3.88,8.76-6.08,15.83-6.48-2.49-1-2.89-2.39-3.69-3.68a34.16,34.16,0,0,0-17.52,6.28,13.3,13.3,0,0,1,5.38,3.88Zm30.76-5.38a29,29,0,0,0-9.16-3.89L94,173.45a47.66,47.66,0,0,1,11.65,1.29Zm25.59-24.92C114,123.31,125.54,100,137.59,85.13c.4-.5.5-.5.4-.9a28.14,28.14,0,0,1-.2-4.58c-22.1,22-22.7,50.63-8.86,73.36,1-.9,3-2.09,2.29-3.19Zm2.58-2.29c-2.78-4.69-17.92-30.3,5.08-58.81a10.64,10.64,0,0,0-.3-2,3,3,0,0,0-.79-1.39c-9.66,14.55-23.7,32.69-6.18,64.29Zm-13.14-48a3.77,3.77,0,0,0,.8-1.69c0-.4-.3-.7-2.89-3.29-3.48-3.49-4.08-4.09-4.48-4.09s-1.49,1-1.49,1.4c0,.2,1,1.29,3.38,3.69,4.48,4.48,4.29,4.28,4.68,4ZM123.85,93c0-.2-.3-.59-1.1-1.39a44.52,44.52,0,0,0-5.07-4.69,2.61,2.61,0,0,0-1.4,1.2.48.48,0,0,0,0,.7c.4.6,4.78,4.78,6.08,5.88.79.6,1.39-1.2,1.49-1.7Zm1.69-2.59a2.59,2.59,0,0,0,.9-1.79A19.21,19.21,0,0,0,124,85.93c-2.69-2.7-2.79-2.79-3.49-2.2s-1,1.1-.89,1.3,4.08,4.29,4.88,5C125.14,90.51,125.24,90.51,125.54,90.41Zm20.31-.2a1.12,1.12,0,0,0-1.19-1.89,1.46,1.46,0,0,0-.6,1.29A1.43,1.43,0,0,0,145.85,90.21Zm2.49-.3c2.09-.59,3.09-.89,3.58-1.59.3-.5.3-.7,0-1.5s-.69-.89-2-.2c-.89.5-3,.7-3.68,1.2-.3.2-.1.2.1.4.5.3.79.5.7,1-.1.89,0,1,1.29.69Zm-2.19-3.39c1-.49.8-1.79-.3-2.29a1.33,1.33,0,0,0-1.29,2.29C144.85,86.82,145.65,86.72,146.15,86.52Zm3.38-.49c1.5-.5,2.09-.9,2.49-1.7a2.94,2.94,0,0,0,.2-1.59c-.1-1-.6-.8-1.89-.3-.7.3-3.88,1.19-4,1.49,1.59.9,1.19,1.4,1.19,2.49,0,.2.7,0,2-.39Zm-20.31-1.5a24.54,24.54,0,0,0-4.57-4.48c-.7,0-1.7,1.09-1.5,1.69a47.36,47.36,0,0,0,4.48,4.49C128.23,86.52,129.22,85.13,129.22,84.53Zm2.39-2.59a2.85,2.85,0,0,0,.7-.8c.4-.7.4-1-.1-1.39a12.65,12.65,0,0,1-1.89-1.8c-.9-.8-1.69-1.59-1.79-1.59-.7-.1-2,1.09-1.89,1.59a29.61,29.61,0,0,0,4,3.89C131,82.24,131.22,82.24,131.61,81.94Zm5.68-6.08a6.39,6.39,0,0,0-1.89-1.2c-3.59-1.89-3.59-1.89-4.68-1a2,2,0,0,0-.7.79,11.51,11.51,0,0,0,1.79,1.9c2,1.89,2.49,2.29,2.79,2.29C135.1,78.25,137.19,76.46,137.29,75.86Zm4.88-1.8a4.77,4.77,0,0,0,.69-2.69.76.76,0,0,0-1,.1,6.89,6.89,0,0,0-.8,2.79c.1.2.8.1,1.1-.2Zm-38.63,77.36a5.85,5.85,0,0,0,2-1.3c1-.9,4.28-2.79,4.58-3.59.2-.4,0-1.09-.3-1.09s-.3.19-2.49,1.69c-1.49,1-4,2.89-4.38,3.29A1,1,0,0,0,103.54,151.42Zm-.3,12.46c2.19-1.5,4-3.09,6.87-4.89a1.06,1.06,0,0,0,.1-1.09c-.2-.4-.4-.3-1.29.29-2.09,1.4-4.29,3.09-6.18,4.39-.59.4-1.09.6-1,.8.3.3,1.19.4,1.49.5Zm2.19.89c1.49-1.19,3.19-2.29,4.78-3.49a1.44,1.44,0,0,0,.1-1.29c-.2-.2,0-.2-.5.1s-4.38,2.89-5.08,3.49c-.39.3-.79.5-.59.6a1.94,1.94,0,0,0,1.29.59Zm1.79,1c.3-.2,2.89-1.89,3.09-2.09s.2-1.4-.1-1.5c-.7.5-4.08,2.59-4.08,3a3,3,0,0,0,1.09.6Zm2.79.2c.4-.4.5-.4.5-.8,0-.7-.2-.7-1.2,0-.69.5-1.19.8-1.09,1.1.5.8,1.29.2,1.79-.3Zm.3,1.49c.2-.09.2-.19.2-.39s-.1-.3-.4-.3C109.21,166.77,110,167.56,110.31,167.46Zm-10.06-4.08a7.19,7.19,0,0,1,1.8-3.19c3.48-3.09,2.39-6.88.2-10,2.88-4,5.67-8.17,8.06-12.06v-6.28h.3c-.1,13.75.5,36.18.5,36.18l2.78,2.2-.39.2c.59-.1-8.07-5.59-13.25-7.08Zm2.49-1.6c2.39-1.79,4.78-3.29,7.17-5.18.3-.2.4-.2.4-.7,0-.9-.2-.9-1.1-.3-.39.3-1.79,1.3-3.18,2.2a33.48,33.48,0,0,0-3,2.09c-1.29,1.59-1.79,2.29-1.69,2.49s.4.1,1.39-.6Zm2.69-4.38c1.2-.8,4.18-2.89,4.48-3.09.5-.4.6-1.1.1-1.2a30.44,30.44,0,0,0-4.38,3c-.89.7-1.19.9-1.19,1.6C104.44,157.9,104.64,157.9,105.43,157.4Zm1.2-3.19c3.78-2.69,3.68-2.49,3.58-3.49,0-.3-.1-.5-.3-.5a11.9,11.9,0,0,0-1.49,1,22.38,22.38,0,0,0-2.09,1.59c-1.3.9-1.79,1.2-1.79,1.7s.1.79.39.79C105,155.2,105.83,154.81,106.63,154.21Zm-.5-2.1a21.62,21.62,0,0,0,3.88-3c.3-.4.3-1.29-.1-1.29-1.79,1.19-3.88,2.69-5.37,3.89-.2.19-.4.29-.5.59s.3.7.5.7.69-.3,1.59-.9Zm-1.2-4.18c1.3-.9,2.59-2,3.89-2.89,1-.7,1.29-.9,1.19-1.8,0-.5-.5-.2-2.19.9a10.28,10.28,0,0,0-2.19,1.69c-.3.7-1.29,1.4-1.39,2.2,0,.4.2.2.69-.1Zm4.09-5.48c1-.7,1.09-.7,1-1.6-.1-1.1-.3-1.1-1.19.4-.6,1-.9,1.29-.8,1.49s.4.1,1-.29Zm-3.69-8.28c-.1-.5-.3-.4-.79.1-1,.8-1.1,1.4-.5,1.8a.42.42,0,0,0,.69-.3A3.44,3.44,0,0,0,105.33,134.17Zm-5.27,7.88a2.37,2.37,0,0,0-1.1-1.3c-.4-.2-.7-.2-1.09.3s-.2.8.39,1.49c.4.5.6.7.9.7.3-.2.9-.7.9-1.19ZM79.45,161.88c-.3-.5-.8-1.09-1.1-1a1,1,0,0,0-.59.79,1.16,1.16,0,0,0,.89.9C79.35,162.38,79.75,162.28,79.45,161.88Zm2.49-.79a9.87,9.87,0,0,0-1.8-1.8c-.29,0-.89.7-.89,1a4.57,4.57,0,0,0,1.29,1.79C81.34,161.88,82.93,162,81.94,161.09Zm3.18.09a28.1,28.1,0,0,0-3.28-3.48,1.34,1.34,0,0,0-.9.89,13.3,13.3,0,0,0,1.89,2.5c.5.49.5.49,1.1.49s1.29,0,1.19-.4Zm5.38-.69c0-.7-.3-1-1.69-2.49-.5-.5-1.3-1.5-1.9-2.1-1-1.19-1.49-1.49-1.89-1.49a1.06,1.06,0,0,0-.79.89A65.46,65.46,0,0,0,89,160.89c.49.49.69.69,1.19.39a.89.89,0,0,0,.3-.79Zm-4-7.78c-.5.4-.7.6-.7.9s4.38,5.28,4.78,5.28c.2,0,.2,0,.3-.6.3-1.59-.2-2-1.3-3.09-.79-.69-2.29-3.09-3.08-2.49Zm7.66-3.29c-1.19-1.49-1.89-2.09-2.19-2.09s-.4.2-.69.5c-.5.4-.4.4-.1.9.19.29.59.79.89,1.19.7.7,1,.9,1.3.6s1.09-.7.79-1.1Zm-.6-3.59a1.09,1.09,0,0,0-.79.8,7.92,7.92,0,0,0,1.69,2.1c.6.49.8.59,1.2.29a.91.91,0,0,0,0-1.09c-.5-.6-1.6-2.1-2.1-2.1Zm3.39.4A5.2,5.2,0,0,0,95.28,144c-.3,0-1,.8-1,1.1a3,3,0,0,0,.7,1.09c.89,1,1.09,1.3,1.29,1.1A1.51,1.51,0,0,0,97,146.23Zm1.39-1.89c.1-.4-.1-.7-.59-1.4s-.9-.79-1.5-.2a.91.91,0,0,0-.3.5,5.26,5.26,0,0,0,1.6,2c.49,0,.59-.5.79-.9Zm-2.29,4.09a1.28,1.28,0,0,1-.89,1.09c-4,2.89-3.88,7.58-4.68,11.86-6.47-.1-16.73,2.6-16.63,2.7l34.35-34.69s.4.1.2.4c-2.79,2-2.59,5.88-4.48,7.87-3,3.79-5.88,7.08-7.87,10.77ZM77.46,162.68c.1-.4-.3-.5-.6-.2s-.2.6.3.5a.27.27,0,0,0,.3-.3ZM88,161.18c.1-.29-.2-.59-2-2.69s-2.29-2.59-2.59-2.59-.9.7-.9,1a3,3,0,0,0,.7.9c.4.39,1,1.09,1.49,1.69a12.9,12.9,0,0,0,1.5,1.6,1.55,1.55,0,0,0,1,.19C87.81,161.28,88,161.38,88,161.18Zm3.19-6.47c.1-.4.29-.8.29-.9a19,19,0,0,0-2.78-3c-.5-.3-1.4.7-1.2,1.29a14.29,14.29,0,0,0,1.6,1.8c1,1.09,1.49,1.59,1.69,1.59s.3-.3.4-.79Zm1-2.6a1.72,1.72,0,0,0,.3-.69,3.55,3.55,0,0,0-1-1.3c-1.09-1.2-1.29-1.3-1.89-.8s-.4.8.6,2c1.39,1.39,1.49,1.59,2,.79Zm9-11.26c.4-.5.4-.7,0-1.1a2.62,2.62,0,0,1-.5-.59c-.3-.4-.79-.3-1.19.2a1.44,1.44,0,0,0-.4.59,1.79,1.79,0,0,0,.5.7c.79.7,1.19.8,1.59.2Zm1.39-1.79c.3-.4.1-.9-.39-1.3s-.7-.5-1-.1-.4.7.1,1.2,1,.69,1.29.2Zm1.1-1.4a.65.65,0,0,0,0-1.1.73.73,0,0,0-1-.3c-.59.3-.49.8.1,1.4.4.3.6.3.9,0Zm-26.28,74c7.07.8,14.63,1.3,27.87-.69l.1-4.49c-4.18,3.29-9.65,1-10-2.69A42.45,42.45,0,0,1,97,193.88c.6-2,.7-2.79.2-3.19C96,190,94,190,93.49,188.6c-.3-.7-.3-1.5.09-.9a5.88,5.88,0,0,0,2.49,1.1c1.8.4,2.09.49,2.29,1.29a13.08,13.08,0,0,1-.59,3.59,20.44,20.44,0,0,0-.7,3.09c0,.4.3.4.6.3.1,0,.79-.7,1.19-1,1.69-1.59,2.19-1.49.8,0a13.26,13.26,0,0,0-1.4,1.5c0,.3.3.3,1,0a7.66,7.66,0,0,1,4.48.2c1.29.7,1.39.6,1.39-1.4A46,46,0,0,0,103,184.61c-1.89-5.38-5.77-10.27-11.55-10.07-7.06.4-11.25,3.19-16,6.58,2.88,6.38-1.3,11.36-2.79,12-.1.1,1.89,6.48,2.79,9.77.59,2.79,1.89,8.77,1.89,8.77Zm30-154.8c-.2-.4-4.08-13.16-5.17-18.54-10.56-.6-18.42-1.5-27.68,1.2,0,0-.2,3.58-.1,3.78.1.4.4.4.7.3,4.28-2.39,9-1.29,9.26,4.49.1,2.19-.6,3.79-.8,5.88-.1,1.89-1.59,4.29-.7,5.68a4.66,4.66,0,0,0,1.6.9c1.59.7,2.19,1.29,2.29,2.29.19.7-.3,1.2-.4.5-.1-.5-.2-.9-2.09-1.5S81.84,60.41,81.64,60c-.3-.6-.2-.9,0-1.79a26.37,26.37,0,0,0,1-4.69c0-.3-.39-.2-.79.2-.6.5-3.09,2.09-3.09,2.09a7.59,7.59,0,0,1,1.1-1.39,14.5,14.5,0,0,0,1.89-2c0-.3-.1-.1-.9.1a6.55,6.55,0,0,1-4.18-.2c-.9-.39-1.59-.69-1.69-.39-.3,5.68.5,11.56,2.89,16.14,2.09,4.19,6.57,9.37,13.24,8.18,6.86-1.2,13.54-6.78,13.34-6.78-2.69-5.68.29-10.07,2.88-12.66ZM52.77,212c-3.09-3.09-10.75-6.38-16-7.87-.4-.1-.8-.3-.8.2l-.1,10.46-9.45,8.87v4.19h20.3L60,208.33a2.54,2.54,0,0,0,.7-.2,93.41,93.41,0,0,0-8.46-22.82,4.41,4.41,0,0,1-6.37-.6c-1.69-1.89-.7-5.18.89-6.38a21.41,21.41,0,0,0-6-3.29c-.4-.1-.9.7-1.09,1.4-.3,1.09-.9,2.09-1.3,3.29-.4,1-.8,1.09-1.39.79a10.42,10.42,0,0,1-1.2-.4v12.36A26,26,0,0,1,52.77,212ZM83,80.05l2.19-2.4a53.43,53.43,0,0,1-11.15-2.39A35.91,35.91,0,0,0,83,80.05ZM71.19,73.37c3.78,1.29,8.66,4.28,14.63,3.09-5.48-2.2-9.66-7.28-11.45-17.65-.4,2-1.19,6.18-2.49,6.68-1.79-6.88-9-2.89-6.07,2.69C58.54,73.17,49.88,76,42,79.85c0,0-1.2,3.68-7.07,8.67-1.1-5.88.2-14.56-.5-20.44l-9.26-8.77a36.61,36.61,0,0,1,0,4.69,3.56,3.56,0,0,0,1,.69c.59,33.8-.2,67.19-.2,97.89-.1,18.84.4,38.38.1,56.12l-.3.6v4.28l9.46-9.07a82.87,82.87,0,0,1,.1-11.26c6,1.2,11.54,4,16.52,7.08.6.2-3.08-12.26-16.52-17.85V180.12c0-8.17-.1-9.07-.3-9.17-.5.6-7.37,2.89-7.77,2.5.2.09-1.89-14.46-.1-16.65l6.57.1c1.89,1.49,1.1-.3,2.19-.6.7-.2,3.69,1,3.69,1,12.54-14.86,11.25-39.18,2.29-52.93-2.29,1.89-4.78,4.38-7.07,5.48v-7.58c11.94-7.67,25-30,24.19-30.1a61.64,61.64,0,0,1,5.18,5.68L52.37,95c2.69,5.48,5.47,10.36,7.27,15.25.2.7,1,.6,1.19,1.29s-.6,1.4-.5,2c2.49,9.57,3.09,19.73.6,28.9-.5,2.1.4,3.79,1.69,5.29l-1.29-1.2c-.4-.3-1.2.7-1.3,1.8.1.69.5.89,1,1.39.9.8,4.58,4.29,6.17,6,1.4,1.5,1.79,1.5,2.79.5l.8-.8c0,.1.39-.3.49-.4l21.31-20.83c2.49-2.39-21.31,21.93-21.31,21.93S59.74,167.46,57,170.26s-3.29,3.48-3.39,3.68c-.19.4.9.4,1.5.3a4.13,4.13,0,0,1-.9.1c-3-.4-4,2.69-5.87,3.29-5,3.59-1.59,9.27,3.18,7.38l1.2-.6a109.3,109.3,0,0,1,9.06,23.82l-.8.4L48.29,227.57h71.58c-5.18-5.08-9.56-11.46-13.94-16.15-7.17,2.1-28.77,1.7-28.37.8,0,0-3.29-13.26-5.08-19.74,5.87-5.08,5.28-12.95-3.29-16.54a32,32,0,0,1,18.52-7c2,5,6.57,5.38,8.76.7,0-.1,8.26,2.49,11.25,5.28-4.48-.5-9-1.39-13.44-1.59a16.58,16.58,0,0,1,9.26,10.36c.6,1.7,1.59,7.18,1.89,7.18,0,0,1.49-6.38,2.69-6,3,6.18,8.06,1.49,5.87-3.39,7.57-3.59,16-7.68,23-11,2-3.09,7-8.87,7.37-8.87,0,0,9.16-52.63,9.16-70.17-.3-21.13.39-44.66-.5-64.49V21.33H133.7L119.87,41.67a2,2,0,0,0-.1.5A98.88,98.88,0,0,0,127.83,65c5.28-4,9.66,2.6,5.78,6.38-.7.7-.5.9.19,1.4a55.34,55.34,0,0,0,6,3c.89-1.3,1.19-3.29,1.79-4.79.2-.59.6-.59,1.49-.49,1.1.1,1.1.59,1.1-6.48V57.92c-6.77-3.09-15.63-11-16-19.14,3.88,2.79,12.84,7,15.23,7.27,1.1.3.9-1.49.9-2.29.3.2.4,3,.4,3-4-1.19-6-1-15.83-6.68,1.69,8.08,9.75,14.46,15.63,17.35,0,0,.2,3.79.2,8.07,0,13.06.1,13.66.1,13.66a29.18,29.18,0,0,0,4.08-1.3c1.59-1.29,4.18-.3,4.48.6.49,5,0,9.47-.1,14.25-2.69.2-4.18.8-5.58.8-.89-.1-1.39-.1-1.89-.6-1.29-2.79-1.19-1-1.39,1.1-.1.6-3.39-.5-3.69-.7-14,16.25-12.84,34.89-3.28,52.24a66.13,66.13,0,0,1,7-4.49c.1,2.19.1,6.78.1,6.78-11.05,8.07-24.19,29.5-23.8,29.6l-4.48-5.38s2.79-4.49,3.79-5.68a8.87,8.87,0,0,0,.2-1.5L127,155c-2.88-6.58-6.86-11.67-8-18.15-4.58-20.63.4-30.9,0-31.7a1.66,1.66,0,0,0-.2-.49c-.2-.1,0-.2.2-.5a5.68,5.68,0,0,0,.7-2.1c-.1-.29-3.79-4-7-7-1.69-1.6-1.59-1.8-2.49-.9-.3.3-1.1,1.3-1.1,1.3-11.44,10.66-20.5,20.33-32,31.59l-.6-.49C93.29,110,110.21,93.4,126.74,76.66h-2.89a1,1,0,0,1,.4-.5,9.36,9.36,0,0,0,4.28-1.1c2.39-1.79,5.77-4.09,6-6.48-.2-4.48-3.88-5.08-6.67-2.89a82.43,82.43,0,0,1-8.36-22.63c-.1-.39-.6-1-.7-1.49.8-2.49,13.64-20,13.64-20h-72L74.17,37.88c0-.7,19.51-3,28.47-.2L108.12,57c-5,4.78-6.37,12.66,2.69,16.75.2.39-.9,1-.9,1,.1-.2.4-.5.3-.7a19.83,19.83,0,0,1-5.08-3.78C99.66,74.56,94.58,77,89.5,77.15c0,0,2.69,1.8,3.19,3.79a.49.49,0,0,1-.3-.1c-.5-.69-1.79-2.79-2.89-3.49a4.7,4.7,0,0,0-4.28.9l-1.89,1.8c-4.68-1.2-9.46-3.29-12.14-6.68Zm-.7,47.44,2-2a10,10,0,0,1,2.29-5.38c1.89-2.29,4-4.39,5.47-6.38,1.8-2.39,2.79-4.59,2.29-5.58,2.69-.5,5.18-2.89,5.28-7.28A16.55,16.55,0,0,1,89,88.62s19-.7,32.05-13.16c0,0,.9.2.7.4a45.39,45.39,0,0,1-16.43,11L71,121.21Zm3.78-4c.5-.5.6-.7.3-.9-.4-.4-1.29.4-1.29,1.2,0,.49.39.3,1-.3Zm1.79-1.7c.4-.4.4-.7.1-1-.49-.5-1.09-.2-1.39.59s.6,1,1.29.4Zm1.5-1.59A3.45,3.45,0,0,0,78,113c0-.3-.69-.9-.89-.9a1.28,1.28,0,0,0-1,1c0,.3.7.9,1,.9C77.06,113.94,77.36,113.74,77.56,113.54Zm1.49-3c-.5-.4-.8-.4-1.19,0s-.4.89.1,1.39.59.4,1.09,0S79.75,111.15,79.05,110.55Zm1.79-.2c.5-.4.4-.8-.1-1.3s-1-.6-1.39,0a.78.78,0,0,0-.2.5,3.15,3.15,0,0,0,1.19,1.1c.1,0,.2-.2.5-.3Zm1.59-1.7c.4-.49.4-.79-.19-1.39s-.9-.6-1.3-.2-.4.9.2,1.39C81.54,109.05,81.94,109.15,82.43,108.65Zm1.9-1.89c.29-.3.2-.3,0-.7a4.25,4.25,0,0,0-1.6-1.49c-.39,0-.69.59-.69,1.19s.3.8,1,1.4c.5.4.3.4.7.2.2-.2.5-.4.6-.6Zm1.49-1.4c.7-.79.6-.89-1.1-2.69-.59-.6-.69-.7-1.09-.6s-.4.1-.6.5c-.4.7-.1,1.1.9,2.2C85.12,106,85.22,106.06,85.82,105.36Zm1.69-1.79a.87.87,0,0,0,.4-.7,5.5,5.5,0,0,0-1.79-2c-.3-.2-.7-.1-1.1.3-.3.2-.3.3-.2.5a7.58,7.58,0,0,0,2.09,2.19A1.1,1.1,0,0,0,87.51,103.57ZM89.2,102a1.41,1.41,0,0,0,.5-.79A6.37,6.37,0,0,0,87.81,99c-.4-.19-.6-.1-1,.4s-.3.9.59,1.9,1.1,1.19,1.2,1.19S88.91,102.27,89.2,102Zm1.5-1.69c.4-.2.79-.7.6-1.1a31.44,31.44,0,0,0-3-3.19c-.5-.29-.5.1-.5,1.4v.7L89,99.18c1.69,1.7,1.39,1.3,1.69,1.1Zm2.09-1.89a1.27,1.27,0,0,0,.4-.7c-1-1.3-4.09-5.28-4.58-5.09-.1,0-.1,0-.1.1a5.57,5.57,0,0,0-.1,1.9c1,.9,3.18,3.89,3.68,4.09.3.19.4,0,.7-.3Zm1.59-1.7a.86.86,0,0,0,.3-.6,4.54,4.54,0,0,0-.7-1c-.4-.4-1.09-1.3-1.59-1.9-2.79-3.59-3.09-3.78-3.48-3.49a1.4,1.4,0,0,0-.2,1.4,51.37,51.37,0,0,0,4.38,5.28C93.78,97.09,93.88,97.19,94.38,96.69ZM96,95.1a1.27,1.27,0,0,0,.4-.7c0-.2-.5-.7-.89-1.3s-1.3-1.49-1.8-2.09c-1.29-1.59-1.29-1.59-2.19-1.69-1.39-.1-1.29.19.4,2.09.4.5,1.1,1.39,1.69,2,1.2,1.5,1.7,2.1,2,2.1.1,0,.19-.1.39-.4Zm1.7-1.6c.69-.6.59-.8-1.8-3.29-.79-.79-.79-.89-1.49-.89s-.8.1-.8.39a31.19,31.19,0,0,0,3.39,4c.3.1.3.1.7-.2Zm1.79-1.79a1.52,1.52,0,0,0,.4-.6c0-.3-.7-1.1-1.3-1.69a1.63,1.63,0,0,0-.89-.5c-.4,0-1.1.2-1.2.4a9.19,9.19,0,0,0,1.79,2.19c.4.7.7.7,1.2.2Zm1.49-1.5c.4-.4.4-.7,0-1.29-.3-.4-.4-.4-1-.4-1.1,0-1.2.3-.3,1.19C100.35,90.41,100.55,90.61,101,90.21Zm1.69-1.59c.4-.6.1-.9-.69-.5a.54.54,0,0,0-.3.4C101.45,89,102.15,89.12,102.64,88.62ZM75.17,93.2c-1.6,1-4.28,2.89-6.08,4.19a7.35,7.35,0,0,0,0,1.49c1-.69,4.29-2.79,5.88-4a8.81,8.81,0,0,0,.2-1.7Zm2.88-4.58c-.1-.3-.19-.1-.69.3s-5.88,4.38-7.17,5.38c-.5.4-1,.7-1.1.8a2.42,2.42,0,0,0,.1,1.39c1.1-.89,6.48-4.48,6.57-4.58a37.83,37.83,0,0,0,2.29-3.29Zm-.59,11.66S71.09,108,69,111.84c0,0,0,4.39-.1,6.88l-.4.1s0-6.78-.1-14.15c-.2-18.34-.4-22.83-.4-22.83l-2.09-1.5-.1-.69s9.26,6.48,13.74,7.47c-3.19,5.19-6.17,7.18-2.09,13.16Zm-7.57,9.27c.1-.3,0-.3-.2-.3s-.3.2-.3.4,0,.3.2.2S69.79,109.65,69.89,109.55Zm1.59-2.29c.9-1.1,1.7-1.9,1.8-2.69a22.29,22.29,0,0,0-4.09,2.69c0,1.29-.29,1.39.8.9a10.25,10.25,0,0,1,1.49-.9Zm.2-2.79c1-.8,4.58-2.79,5-3.69.2-.4-.4-.9-.4-.8s-5.17,3.19-7.07,4.89c-.19.19-.1.59,0,.89s.7-.1,2.49-1.29Zm-1.19-1.6c1.09-.7,3.58-2.49,4.28-2.89,1.09-.8,1.29-1,.9-1.59-.2-.2-.4-.4-.7-.2-3.09,2.19-3.39,2.49-5.78,4.08a1.47,1.47,0,0,0,.1,1.3c.2,0,.5-.2,1.2-.7Zm0-2.29c2.89-2.09,4.38-3.09,4.48-3.29A2.82,2.82,0,0,0,75,96c-1.1.8-3.88,2.5-5.78,4.09a2.43,2.43,0,0,0,0,1.2c.4.1.5-.1,1.3-.7Zm-.3-7.48c2.09-1.49,4-2.89,6.17-4.28,1.79-1.2,2.09-1.5,1.4-1.9a1.64,1.64,0,0,0-1-.2c-2.39,2-5.08,3.79-7.67,5.79a4,4,0,0,0,0,1.09c-.09.4.4,0,1.1-.5Zm-.3-2.19c.2-.1,1.3-.9,2.39-1.69,3.09-2.2,3.48-2.5,3.48-2.7,0-.69-.89-.79-1.69-.1C72.58,87.62,69,89.81,69,90.21a4.31,4.31,0,0,0,0,1.1c.2.2.5,0,.9-.4Zm.9-3c3.18-2.19,3-2.09,3-2.49s-.3-.2-.79-.2-.5.1-1.3.8c-1.79,1.39-2.49,1.79-2.68,2.19a1.1,1.1,0,0,0,0,.8C69.19,89.12,69.49,88.82,70.79,87.92Zm.2-2.19c.59-.5,1.09-.9,1.19-1s-.4-.7-.7-.7-.69.2-1.59,1-1,.6-.89,1c0,.2,0,.79.09.79C69.19,87.12,69.59,86.82,71,85.73Zm-1.3-1.4c.7-.6.8-.7.3-1.19s-1-.6-1.19-.3a8.45,8.45,0,0,0,0,1.59c0,.4.49.3.89-.1ZM83.93,72.17a4.2,4.2,0,0,1,2-1.3,6,6,0,0,1,3.48.4c.8.4,1.8,1.4.4.8a7.44,7.44,0,0,0-4.88-.1c-.59.4-1,.5-1,.2ZM83.13,68a6.23,6.23,0,0,1,1.89.4,8.21,8.21,0,0,0,4.88-.3c.4-.1.6.2.4.4a7.2,7.2,0,0,1-3.09,1.1c-2.29.1-4.68-1-4.08-1.6ZM72.18,64.69c1-.49,2.09-7.07,1.79-8.17-1.19,1.8-2.49,2.59-4.38,2.29-3.08-.49-3.18-4.28-.79-4.68.89-.2,2.09.5,2.29.3,1-.5,1.79-3.89,2.09-5s.39-4.08.49-5c.1-2,0-5,0-5L58.84,21.53H26.49s-.1,24.92,0,37.68l9,8.87.1,14.36C45.9,78,55.85,73.17,65.61,68.08c-1.09-1.39-1.09-4.78,1-6.08,2.88-1.89,5.37.7,5.57,2.69Zm8.16,3c.1-.79.7-1.49.7-2.29,0-.2.1-.4.6-.1s.79.1,1.49-.2c1.3-.59,1.59-.59,2.59-.2a1.19,1.19,0,0,0,1.39,0,3.14,3.14,0,0,1,2.39-.49c1.1.39,1.4.59,2,.29.3-.1.7-.69.8-.69a11,11,0,0,1,.6,2.29c.5,1,.3,1.69-.3,1.2-1.2-1-2.19-1-3.88-.6a4.81,4.81,0,0,1-2.69.3c-3.49-.4-3.78-.3-4.48.2s-1.1.49-1.2.29Zm9.46-6.37c-1-.3-2.19-1.2-3-.9a1.21,1.21,0,0,1-1.09-1.8c.9-.89,2.29,0,2.89.4,1.19.9,1.39,1,1.89,1,2,0,1.59-1.89.6-2.59-.6-.6-.6-1-.5-1.1s.79,0,1.39.6c1.2,1.1,1.2,3.39-.2,4C90.9,61.31,90.4,61.5,89.8,61.31Zm4.08-6.48a28.53,28.53,0,0,1-3-2.7,2.86,2.86,0,0,1-.9-2.19c.1-.6.2-.9-.2-1.09a1.79,1.79,0,0,1-.69-1.5c0-.1.49-.1.69.3.3.1.3-.1.6-.4,3.78-2.49,6.77-2.09,10.35-.3,1,.5,3.79,2.59,2.29,1.9-.1,0-1-.5-2-.9-3.08-1.5-6.57-2.39-9.36-.5-.49.3-.79.6-.39.6,1.59-.3,3.18-1,4.77-.9,2.39,0,3.89,1.2,5.68,2.09,2,.9,2.39,1.2,1.59,1.9-.2.2-.4.2-1.29.1a2.19,2.19,0,0,0-1.7.3,8.86,8.86,0,0,1-5.17,1.39c-2.09-.2-2.29-.3-2.29,0s.4.5,1,1.1a5.31,5.31,0,0,1,1.1,1.1C95.28,55.42,94.48,55.22,93.88,54.83Zm-.59-3.29a7.09,7.09,0,0,0-.7-1.6c-.3-.3-.5-.2-1,.2s-.49.5-.1.9C92.29,51.84,93.29,52,93.29,51.54Zm3.08.2c.8-.4,1.69-1.8,1.3-2.3-.2-.3-.4,0-.9.8a4,4,0,0,1-.7.9c-.69.5-1.59,0-2-1-.2-.6-.5-1-.69-.8-.5.4.1,2,1,2.4A2.78,2.78,0,0,0,96.37,51.74Zm2.59-.3c.8-.3,1.2-.6,1.2-1a1.44,1.44,0,0,0-1.1-.7,1,1,0,0,0-.7.2,12,12,0,0,0-.79,1.7c.2.3.49.1,1.39-.2Zm2.89-6.18c-4.18-1.6-7.47-2.3-11.45-.5-1.3.6-2,.6-2.09.2s.89-1.5,1.89-2a10.49,10.49,0,0,1,9,0,20.19,20.19,0,0,1,4,2.8A5.65,5.65,0,0,0,101.85,45.26Zm49.08,46.95c1-.5,1.49-1.6.79-2.2a.71.71,0,0,0-.59-.2,16.87,16.87,0,0,0-3.49,1c-.3.2-.2.5.1.8a1.14,1.14,0,0,1,.3.7c0,.39-.1.79.2.69a10.13,10.13,0,0,0,2.69-.79Zm-3.79,1a1.21,1.21,0,0,0-.59-1.69c-.4-.2-.7-.1-1,.4C144.85,93.2,146.65,93.8,147.14,93.2Zm-3.68.6c.2-1.69.1-6.88.1-6.88s-.9.8-1.49.8a14.79,14.79,0,0,1,.79-1.79,9.63,9.63,0,0,0,.2-2.89c-.1-.9-.69-.9,0-2.4a3.31,3.31,0,0,0,0-2.59,1.23,1.23,0,0,1,.2-1.39c.4-.6.3-.9.3-2,0-1.59,0-1.89-.5-.6-.69,1.1-1.09.9-2.19.8-1.09,2.49-2.39,5-2.39,7.18,0,1.29,0,1.49.8,4.29a7,7,0,0,1,.4,2.59,6.69,6.69,0,0,0,.3,2.29c.2,1.2,1.49,3.09,3.48,2.59Zm-38,110.45v-2.5s-4,1.2-6,.5-2.09-.69-2-.4,1.59,1.2,3,1.5a10.8,10.8,0,0,0,4-.3c.59-.2.59,0,.39.2-2.38,1.89-5.47,1-7.36-.6-1-1-1.69-1-1.2.3,2.69,5.38,9.26,2.19,9.16,1.3Zm-2.69-3.69h.9a5.84,5.84,0,0,0-.7-2,2.22,2.22,0,0,0-3.18.09,5.6,5.6,0,0,0-.7,1.9h.7c.3-.6,1.49-3.89,3,0Zm-3.58-2.39a5.18,5.18,0,0,0-2.19.69c-.2.2-.2.3,0,.6.5.7,1.29,1,1.39.8a5.52,5.52,0,0,0,.8-2.09Zm6,1.79a1.63,1.63,0,0,0-1-1.59c-.3-.1-.6-.1-.5.2a8,8,0,0,0,.5,1.39c.1.3.2.5.5.4a1,1,0,0,0,.49-.4Zm38.43-32.69v-4.19a46.54,46.54,0,0,0-5.67,7.08ZM79.15,52c.9-.39,1.59-1.59,1.29-2.09-.1-.4-.49-.1-.89.5-.6.9-.8,1-1.3,1s-.79-.1-1.19-.9-.5-.8-.7-.5c-.1.1-.1.3,0,.9A2,2,0,0,0,79.15,52Zm2.49-.49c1-.3,1.19-.5,1.19-.8s-.79-.8-1.29-.7c-.3.2-1.2,1.5-1.1,1.8S80.84,51.84,81.64,51.54ZM76,51a1.17,1.17,0,0,0-.2-.7c-.29-.4-1-.1-1,.4a1,1,0,0,0,1,.8C76.06,51.44,76,51.54,76,51Zm5.58-2.49c1.39.49,2.09.59,1.39-.1-1.09-1.2-5.87-2.5-8.46-.6-.2.3-.1,1.29.1,1.19,2-1.49,4.68-1.39,7-.49Zm-4.88-4.09c-1.19.4-2.29,1-2.39,1.59-.2.9.2.9,1.69.5a7.09,7.09,0,0,1,5.88.6c1.29.9,1.69.6,1.49-.2-.7-2.59-4.68-3.09-6.67-2.49Z"/><path id="path6265-7" class="cls-4" d="M152.62,27.71,144,36.39l.1,10.26c.89,1.6-13.44-4.58-15.73-6.48.3,6.88,9.56,14.66,15.63,17.45l.2,21.83a22.64,22.64,0,0,1,7.76-2.3C153.12,62.3,154.11,43,152.62,27.71ZM104.24,38.38c-.9,0-1.4.2-1.4.8-.3,0,3.19,12.76,4.78,18.14-3.08,3.09-6.27,8.47-1.69,13.55a20.48,20.48,0,0,0,4.48,3c.8.69-9.36,7.27-18.32,7.27-2.89-6.38-6.87-2.79-9.16-.6-1.69-.2-8.16-4-11.55-6.18-.1,0,0-1,0-1.09.2,1.49,13,4.78,13.54,3.29-.39,0-5.67-3.59-7.26-7.18a61.62,61.62,0,0,1-3.49-9.57c-.69,2.09-.5,4.88-2.39,5.88C71.19,59,61.73,62.4,66.41,69c-2.69.8-5,2.19-7.47,3.29A44,44,0,0,0,79.65,87.42c-1,2.19-7.17,7.18-2.09,13.06.2.2-4.78,5.68-7.27,10-1.89,3.19-1.29,5.68-1.1,5.78a105.93,105.93,0,0,0,10.66-14.45c-.1.89,8.06.39,8-6.88a20.59,20.59,0,0,1,1.3-6c12.44.6,23.09-3.89,32.15-13.16,0,0,1.79.5,3,.7a9,9,0,0,0,6.47-3.19A10.91,10.91,0,0,0,133.9,70c1.8-7.68-6.07-4.69-6.37-4.29-4.48-6.08-8.26-23.32-8.86-23.42-2.59-.7-11.15-4-14.43-3.89ZM73.67,50.14c-.29,0-1.49,5.38-2.58,5.28-4.48-2.89-4.58,3.09-.7,2.8,3.18-.2,5.08-5.49,3.28-8.08ZM25.79,60.21c.1,32.49.7,64.89,1.49,97.39,2.89-.7,5.08-1.3,8,0,.3-9.27-.5-32.5-.3-55,10.95-8.57,18.61-17.94,24-30.2L42.22,80.24s-5.48,7.88-7.17,8.38c-.2-1.1-.5-14.36-.3-20ZM62.92,80.34l-3.28,4.79s.1,16.35.3,24.22c.1,1.6,1.59,3,.39,4.39.7,0,3.69,21.23.8,29.8-.5,1.5,0,2.59.8,3,4.08,4.59,6.37,9,11.84,6.38C79.65,147.53,88.11,138,88.11,138l-22.2-21c-2-5.19-3-36.59-3-36.59Zm81,68.19c-10.06,9.07-19.31,18.34-23.1,29.6,5.38-2.19,10.56-4.78,15.83-7.28,2.59-3.09,4.48-6,7.37-9,0,0,.3,13.26.1,19.94,2.59,2,8.86,8.07,8.86,8.07S154.71,95.4,151,93c-3.59.7-5.38,2-6.77-2.19-1,19.24-.3,57.72-.3,57.72Zm-35-53.23c-3.89,3.19-17.23,16.34-17.23,16.44,3.59,6,17.52,17.85,24.19,24.52l1,34c1-1.3,1.69-2.6,2.79-3.89,0,0-.2-17.15-.6-25.22-.1-2.39-.7-4.29-.5-4.49-1.89-9.77-2.69-20.63,0-31.1-6.27-5.48-8.26-9.17-9.65-10.26ZM110,134.07h0c-3.28,4.69-9.56,14.85-10.05,14.85-.1-.29-6.47,0-7.67,4-1,3-1.09,5.68-1.79,8.77-12.74-.4-22,3.59-31.86,12.66-4.78,0-8.36,1.1-10,3.09-2.49,1.8-3.19,3.39-3.09,5.29.2,3.39,6.27,3.88,6.57,1.49.3,0,5.87,12.86,6.47,15,1.3,3.49,2.69,10.17,2.89,10.17,2.29.1,14.93,3.69,14.93,2.39C77.56,211.32,72,193,72,193c9.76-8.17-1-17-3.58-16.64a35.08,35.08,0,0,1,19-7c1.1,3.89,6.17,6,8.66.7,0,0,11,3.88,11,5.18-4.48-.7-8.26-1-12.74-1.5,8.66,4.69,9,10.87,10.65,17a54.66,54.66,0,0,1,2.49-5.88c2.89,6.48,8.56,2,6.17-3.29l7-3.19c.8-.4-10.35-13.06-20.5-14.75.49-.9.69-1.8,1.19-2.59,2.59-2.5,4.48-6.18.6-10.57,2.59-3.59,8.56-12.26,8.16-12.46.2,0,.3-4.09,0-4ZM26.39,174.14c-.1,0-.3,30.21-.1,45.16a21.24,21.24,0,0,0-.4,3.89l9.26-8.68.3-11.26c2.38-.6,17.52,7.08,16.32,7.08,1.2-.5-7-15.85-16.42-17.55-.2-8.67-.3-18.54-.5-21.13A62.27,62.27,0,0,0,26.39,174.14Zm82.23,18.15c-2.59.79-3.69,6.28-2.79,8.87.2.5.1.59.5.1,1-1.5.69-4.49,2.49-6C113.4,196.77,113,190.59,108.62,192.29Z"/><path id="path6267-4" class="cls-2" d="M48.59,227.87l12.24-18.54c14.64,4.88,29.57,5,44.7,2.59l13.54,16H113.6l-8.47-12.16c-3.08.7-6.27,1-9.45,1.5l4,10.66H95.38l-3.09-10.56a98.79,98.79,0,0,1-17.42-1l-1.79,11.56H68.7l3-12c-3.48-.7-7-1.2-9.85-2.09l-9,14.05Zm14-10.86,5.08,1.39L65.21,228H55.85Zm13.14,10.86,1.4-8.47a67.13,67.13,0,0,0,12.54.8l2.19,7.67Zm24.1-7.77,4-1.1,6,8.87h-7.27ZM41.32,166.47c19.61-22.83,17-46.75,6.17-66.09L49.78,98c12.54,20.63,15.13,49.84-7.86,72.56C41.62,169.16,41.32,166.47,41.32,166.47Zm78.05-25.62c2.79,4.78,4.58,9.67,7.47,14.45l-7.07,9.57ZM35.15,156c-.2-15.05,0-45.55,0-45.55l6.57-5.09c7.86,9.57,12.24,35-2,51.84-.9-.8-3.79-.5-4.58-1.2Zm93.78-3.09c-18.12-30.6-8.86-53,8.66-72.86.1,1.49.1,3.09.2,4.58-15,17.25-21,42.66-6.28,65.69Zm-32.76-4.38,8.27-11.27s1.59-4.48,2.88-5.78l1.5-1.3,1.49,1.5-.9,3.49c-3.08,4.68-6.27,9.47-9.65,14.15C99.76,149.22,96.87,148.72,96.17,148.53ZM140.08,93.8c.29-.3,3.58,1.1,3.58,1.1l.2,46.25-6.57,4.19c-2,1-16.83-29.41,2.79-51.54ZM71,113.34c3-4.09,6.17-7.58,9.06-11.37a11,11,0,0,0,2.68.3c.2.1-.69,3.09-2.78,5.19-5.88,7.07-7.17,8.37-7.47,11.26-.1.9-2.19,2-2.19,2l-1.49-1.59A18.56,18.56,0,0,1,71,113.34ZM52.37,95.5l6.77-8.88.5,23ZM73.87,38l-13-16.25H67.1L74.87,33.3l9.26-1.1L80.84,21.73h3.88L87.41,32c5.68.1,11.25.6,16.63,1.1l2.79-11.47h3.88l-3.59,12,10.46,2.8,9.35-14.76h4.68l-13.24,19c-17.22-5.18-31.06-4.58-44.5-2.69Zm37.44-6.88,3-9.47h8.86L116.38,32.5ZM89.9,28.81,88,21.63h15.63l-2,8a81,81,0,0,0-11.75-.8ZM71.19,21.63h6.27L79.85,29l-3.59.4Z"/><path id="path6269-8" d="M58.74,20.64l15,18c3.19-1.1,18.92-2.89,28.48-.8,1.69,6.48,3.38,13.06,5.27,18.94,0,0-.6.7-1,1.1-6.08,7-1.8,13.75,3.78,15.94-1,2.1-11.65,7.28-18.12,6.68,0-.1-2-4.78-6.07-3.19-1.4.5-2,1.6-3,2.6-3.88-1.2-9-3.69-11.65-6.48,5,2.49,9.86,3.78,14.74,3.19a6,6,0,0,0-1.3-.8c-.39-.2-1.39-.8-2.19-1.3C80.44,73.07,79,71.17,77.36,68c-1.79-3.19-2.09-6.67-3.09-9.77-.5,1.6-.79,5.69-2.09,6.58-.4.2-.4.2-.7-.69-1-3.19-4.87-2.8-6.07-.5a5.24,5.24,0,0,0,.3,4.58l-2.29,1.3v.4l-1.39.7-.3-.2c-6.57,3.19-13,6.48-19.81,9.57,0,0-3.59,6-6.87,8.27L35,68l-9.66-8.77V64l.7.69c.1,33.8,0,67.09,0,97.89v28.31h-.6v3.29l.7.2-.1,4.68h-.3l-.1,3,.5.1V218.8l-.5.7v4.78l10.15-9.67.2-11c8,1.49,16.33,7.28,16.33,7.28-1.39-9.18-11.15-16.75-16.73-18.25V171a40.54,40.54,0,0,1-6.17,2c-1,.1-1.39,0-1.89-.7-.4-.5-.4-1,0-2.09a2.44,2.44,0,0,0,0-1.2,3.18,3.18,0,0,1,0-2.39,2.11,2.11,0,0,0-.1-1.9c-.3-.79-.3-.89-.2-1.29.3-1.1.4-1.3.2-1.8a2.51,2.51,0,0,1,0-2.39c1.49-2.49,4.88-1.89,6.67-1.79.9,1,1.49,1.59,1.59.1.6-1.8,3.19,0,4.29.79,10-13.35,14.83-31.4,2.38-54l-7,5.58v-7c9.15-5.88,19.51-19.44,24-30,1.49,1.79,3.18,3.49,4.78,5.28L63,80l-.3-.2A130.4,130.4,0,0,1,52,95.4a147.53,147.53,0,0,1,7.57,16.14l.59-.3.5,1.6-1,.3c3.38,11.16,3.48,21.53,1,31l.6,2.49s3.58,3.49,4.58,4.49c2.49,2.49,5.38,5.18,5.38,5.18l3.28-3.19-.2-.3L103,124.2l1.79,1.7c-17.62,17.74-48.18,48.44-48.18,48.44l-1.09.2a14.77,14.77,0,0,1-2.1.1,2.65,2.65,0,0,0-1.79.3A8.86,8.86,0,0,0,49.18,177a2.48,2.48,0,0,1-1.19.9c-6,3.59-.6,10.77,4.48,7a95.16,95.16,0,0,1,8.66,23.72c0,.1-.7.3-.7.3L47,228.87h5.18l.5-.9H48.79l12.34-17.84a101.3,101.3,0,0,0,44.8,2.39l12.74,15.55h-5.08l.7.9,6.57.1-14.93-17.75c-5.38,1.4-19.51,2.6-28.37,1.1-1.4-6.58-3.59-13.76-5.28-19.54,8.46-6.68,2.09-15.45-3.09-16.64-.29-.5,10.56-7.08,18.32-6.68,2.19,5.28,7.07,4.58,8.76.6,3.19,1.19,7.37,2.39,10.65,5a73.28,73.28,0,0,0-13.73-1.6c8,3.09,10.25,9.67,11.25,15.85a20.15,20.15,0,0,0,.69,2.4c.7-2.2,1.2-4.49,2.59-6.48.6,2.19,2.89,3.88,5.18,2.59,1.29-1,1.79-2.59,1.39-4.89-.1-.59-.2-1-.2-1l1.79-1,.2.2s2-.8,2.89-1.3c.2-.1-.2-.39-.2-.39l17.92-8.48a69,69,0,0,1,7.17-8.77c.1,7.58.1,10.67.1,19.54l1,1c.9.9,2.89,2.7,7.27,6.78,1,.9,1.69,1.4,1.69,1.4l-.1-131.68h-.1V56.82h.2V50.24l-.2-.1V48.05l.2-.2V30.1h-.3V25.82l-10,10.56.1,10c-4.48-.6-10-3.49-13.84-5.78-1.19-.8-1.89-1-1.89-.5.5,6,9.16,15,15.73,17.45V79.94s1.59-.79,2.49-1.19l.1.4,2.09-.9.2-.5,1.89-.2c0,.4.1.3.1.3,1.69.5,2.39,1.6,1.69,2.89-.2.4-.3,1-.1,1.2a2.42,2.42,0,0,1,0,3.19,1.19,1.19,0,0,0,0,1.39c.9,1.8.4,1.7-.3,2.79-.2.8.7,1.3.4,2.1a3.63,3.63,0,0,1-1,1.39c-.4.3-.8-.3-.8-.3a12.91,12.91,0,0,1-2.29.8c-.9.3-2.59.9-3.09-.4a5.31,5.31,0,0,1-.1-2.19l-1.39-.2-.1,3.69c-.8.4-4-1.2-4-1.2-13.54,17.55-13.14,37-3.09,53.23.1.3,7.07-4.78,7.07-4.78v6.38a91.7,91.7,0,0,0-23.49,29.3l-3.79-4.48a2.68,2.68,0,0,0,.7-2.2l2.79-4.08v-1.1l7.16-10c.1.6-7.36-13.45-8.36-17.94l.5-.1c-3.39-12.76-2.69-21.63-.2-32l-.7-.69-9.45-9.47c-.8.69-1.5,1.39-2.29,2.09-.1.1-.7,0-.8.2-5,4.68-9.76,9.37-14.44,14.15-.1.1.1.6,0,.8-4.67,4.89-9.65,9.47-14.43,14.36L75,125c16.92-16.94,48.88-48.44,48.88-48.44a.45.45,0,0,1,.4-.3,7.87,7.87,0,0,0,2.58-.5c1.1-.2,1.2-.3,1.7-.8a8.07,8.07,0,0,1,1-.9,35.13,35.13,0,0,0,3.19-2.69,4.7,4.7,0,0,0,1.59-3.29,3.92,3.92,0,0,0-3.09-4,5.56,5.56,0,0,0-2.88.79c-.5.4-.8.5-1,.4-3.48-7-6.87-15.85-8.26-23.12-.1-.5,0-.6.3-1.2.2-.4.7-1.2,1.09-1.79,4.28-6.68,8.76-12.36,12.55-18.54h-5.38l-.7,1.09h4.38l-13,18.84c-24.09-7.87-43.7-2.89-44.2-2.79l-13-16h6l-.69-1.09Zm11.75,0,.7,1.09h6.27l-.4-1.09Zm10.35,1h3.88l-.19-1.09h-4Zm7-1,.2,1.09h15.63l.3-1.09Zm19.11,1h3.89l.3-1.09h-4Zm7.67-1-.3,1.09h8.86l.7-1.09Zm38,7.27.1,2.89-6.37,6.78v9.47l-1.89-.4-.1-9.77Zm-1.79,6.18c.1,2.89-.4,5.68.4,8.58a25.42,25.42,0,0,1,1.19,4.88l-2.09-.1c-.3-.9-.4-1.79-.7-2.89a16.27,16.27,0,0,1-.79-8.17Zm-46.1,4.69c.1.1.3,1.39.6,2.49a113.74,113.74,0,0,0,4.08,15.55c1.9,5.88,4.78,13.36,7.57,16.85.4.39.6.89.4,1.09-.2.4-1.4-.1-2.09-.89a18.69,18.69,0,0,1-1.4-2.1,49.73,49.73,0,0,1-2.39-4.88c-.1-.2-.59-1.5-1.09-2.89A64.1,64.1,0,0,1,108,57c-.7-2.19-1.29-4.49-2-6.78A90.88,90.88,0,0,1,103.44,40c-.1-.49-.3-1.09-.2-1.19A1.19,1.19,0,0,1,104.73,38.78Zm.7.3c-.1-.1,1.1-.1,1.49.2a6.9,6.9,0,0,1,.5,1.79,135,135,0,0,0,4.68,17.24,58,58,0,0,0,5.38,12.27,32.8,32.8,0,0,0,2.69,3.78c.59.8.69.9.49,1.1s-.59.2-1.29-.1a5.57,5.57,0,0,1-2.09-2c-.2-.3-.6-.8-.8-1.1a80.51,80.51,0,0,1-6.67-15.65,113.05,113.05,0,0,1-4.38-16.85v-.69Zm3.88.79c.3.3.4.8.7,1.9,1.3,5.28,2.39,10.07,3.88,14.35.8,2.29,1.5,4.69,2.39,6.88a34.31,34.31,0,0,0,5.28,9.37,12.4,12.4,0,0,0,3,2.59c.69.4.79.6.79.8s-.79.3-1,.3a6.49,6.49,0,0,1-3.39-1.8c-3.58-3.88-6.07-10.16-8-15.25-3.19-8.87-5.78-19.93-5.28-19.63-.1-.2,1.3.1,1.59.49Zm1.5.3a.76.76,0,0,1,.4.1c.69.2.79.3.89,1A132.45,132.45,0,0,0,115.78,55a83.93,83.93,0,0,0,5,12.65,14.66,14.66,0,0,0,5.78,6.38,4.49,4.49,0,0,1,1.19.7c.1.1,0,.2,0,.4s-.2.3-.8.3a4.74,4.74,0,0,1-2.78-1c-2.79-1.89-5.28-6.28-6.27-8.77q-1.95-4.48-3.59-9.57a105.35,105.35,0,0,1-4.08-15.35q.15-.6.6-.6Zm41.81,8.28v1.79c-7.07.5-14.24-2.49-20-5.18,4.38,5.78,9.06,11,20,12v1.89c-14.34-.2-24.39-14.75-23.89-18.34,5.87,3.79,16.52,8.28,23.89,7.88ZM113.1,40.87a2.88,2.88,0,0,1,1,.3c1.2,4.39,2,9.27,4,14.15,2.39,6,3.69,11.27,8.07,16.25,1.39,1.4,4.08,1.4,4.08,1.4s-.3.8-.8.9a6.27,6.27,0,0,1-2.29,0c-2.58-1.1-4.48-3.79-5.47-5.69-.9-1.39-3.29-7.07-5.18-13-2.09-6.37-3.78-12.95-3.58-14.25C112.9,40.87,113,40.87,113.1,40.87Zm2.39.7a2.49,2.49,0,0,1,.69.2c.3.1.4.2.6.8.1.39.1.89.3,1.79a88.51,88.51,0,0,0,3.68,11.86,81.37,81.37,0,0,0,4.38,9.87,19.47,19.47,0,0,0,2.29,3.49c1.5,1.49,4,1.59,4.68.1a2.43,2.43,0,0,0-.5-2.79c-.59-.6-2.09-.3-2.09.4,0,.2.4.1.9,0,1.39-.2,1.89,2.39,0,2.79-2.29.5-4-2.59-1.89-4.59,3.48-2.39,6.17.9,5.37,4A4.36,4.36,0,0,1,130,72.37c-2.29.1-3.18-.6-5.57-4-2.69-4.28-3.89-8.47-5.68-13.16a53.82,53.82,0,0,1-3.48-13.35c-.1-.2,0-.3.2-.3Zm2.19.8a2.3,2.3,0,0,1,.79.2,1.25,1.25,0,0,0,.3.19C122,54.23,124.55,61.11,127.23,66c0,0,0,.9-.2,1.1-.29.5-.49.3-.89-.4-1.69-3.29-3.29-6.88-4.78-10.57a61.52,61.52,0,0,1-4-13.16c0-.49-.1-.59.3-.59Zm21.1,6.48a.85.85,0,0,1,.8.79.86.86,0,0,1-.8.8.85.85,0,0,1-.79-.8A.84.84,0,0,1,138.78,48.85Zm-65.11-.1C72.78,50,72,54.53,71,54.63s-2.39-.6-3.19.3c-1,1.19-.4,2.49.9,3.19a3.88,3.88,0,0,0,2.58.1c3-1,4.09-5.89,2.39-9.47Zm68.2,1.19a1.2,1.2,0,1,1-1.2,1.2A1.21,1.21,0,0,1,141.87,49.94Zm-68.2.5c1,2.59-.1,5.78-1.39,6.78a3.3,3.3,0,0,1-4.08.2,1.56,1.56,0,0,1,1.09-2.69,2.55,2.55,0,0,1,1.6,1c1.09.2,2.39-5.18,2.78-5.28Zm72.28.7a1.3,1.3,0,1,1-1.29,1.29A1.25,1.25,0,0,1,146,51.14Zm4.58.89a1.3,1.3,0,1,1-1.3,1.3A1.33,1.33,0,0,1,150.53,52Zm-43.11,6.09c.2,0,.3.19.5.59.3.8.3.9-.2,1.4-4.08,5.68-.4,11.56,5.58,12.16.49,0,.79.6,1,1.3,0,.3,0,.3-1.39.3a5.23,5.23,0,0,1-2-.2,11.17,11.17,0,0,1-5.68-4.19c-1.19-2-1.39-4.09-.69-6.88a8.32,8.32,0,0,1,2-3.89C106.92,58.31,107.22,58.12,107.42,58.12Zm38.93.69.1,19.54-2.09.8.1-20.84Zm4,.7c2.59,6.48,2.69,12.36.4,17.74l-2.39.3c3.28-7.57,1.89-13,0-18.24ZM26,60.61l8.46,8,.3,88.62-1.3-.5L33,69.58,26.09,63.3Zm82.13.2h0c.3,0,.5.3.7.89a1.48,1.48,0,0,1,0,1.3c-1.2,2.79-.2,5.58,2.68,6.38.7.2.8.3,1.2,1.2.3.49.4.69.3.89s-.5.2-1.6-.1a6.85,6.85,0,0,1-3.88-9.77,1.36,1.36,0,0,1,.6-.79Zm-33.75-.3a19.92,19.92,0,0,1,.8,3.89C75,65.79,73,68,71.28,68.78c-1.59.6-4,.3-5-.8-3.59-4.28,3.18-8.57,4.88-4.08,1,2.89-3.19,3.59-3.29,1.39,0-.6.2-.79.7-1.09s.39-.6,0-.6a1.83,1.83,0,0,0-.9,3c1.39,1.49,3.19.6,4.38-.5,1.59-1.59,1.89-3.69,2.29-5.58Zm35.14,3.19c.1,0,1.8,4,2,4.58-.1.4-.49.4-1.19-.1s-1-.89-1.29-2.09C108.82,65.59,108.72,64,109.51,63.7ZM75.76,65.39c.4,0,.8,1.4.6,2-.3,1.19-3.38,3.19-5.57,3.58a6.53,6.53,0,0,1-1.1.2,1.76,1.76,0,0,1-1.49-.69c-.4-.4-.6-.8-.5-.9a17.42,17.42,0,0,1,1.89.1c2.39,0,4.28-1.7,5.68-3.79.2-.2.4-.5.49-.5Zm-47.58,1s1.59,1.49,2.49,2.29c-.1,3.89-1.5,8.18-1.5,11.66,0,3,2,5.59,2.19,8.18a15.77,15.77,0,0,1-1.19,6.18,13.67,13.67,0,0,0-1.2,5.58c.1,4.29,3.19,9.07,2.1,13.36-1,4-2.19,6.28-1.9,8.47.6,4.09,2.79,7.78,2.19,11.16-.49,3.19-2,6.38-1.79,9.27.2,3.29,1.4,6.09,1.79,9.08a25.3,25.3,0,0,1-.29,5.08l-2.29.2c1.29-4.69-.6-8.87-1.3-13.36-.6-3.79,1.1-6.88,1.59-10.07a12.11,12.11,0,0,0-1-6.48c-2-4.78-1.3-7.87.2-12,1.79-4.38-.7-7.87-1.3-12.16a18,18,0,0,1,1.3-9.47c1-3.09,1.29-4.88-.2-7.87a9.7,9.7,0,0,1-1.2-5.48c.3-5.09,1.6-7.78,1.3-13.66Zm48.68,2c.4,0,.5.3.5.8,0,.9-1.4,2.09-3.79,3.19-1.29.6-2,.7-2.68.3s-.7-.6.1-.8a11.36,11.36,0,0,0,4.77-2.69,2.89,2.89,0,0,1,1.1-.8Zm-11,.6c6.27,6.68,12.34,10.17,17,11.76l-.69,1.8c-6.18-2.4-12.45-5.68-17.72-12.86Zm12,1.1c.2,0,.8.79.8,1a2.79,2.79,0,0,1-.5.9,5.67,5.67,0,0,1-1.79,1.4c-1.39.79-2.29,1-2.89.59s-.39-.59,1.1-1.49c.8-.5,1.79-1.2,2.29-1.6A9.69,9.69,0,0,1,78,70.08Zm-16.62,1A38.33,38.33,0,0,0,80.74,85.23l-1.19,1.69A44.6,44.6,0,0,1,59.24,72.27Zm17.92.9c.3,0,.8.7.8.9a1.1,1.1,0,0,1-.3.6,15.65,15.65,0,0,1-2.29,1.69,1.7,1.7,0,0,1-1.4,0c-.59-.3-.49-.6.5-1.2a16.12,16.12,0,0,0,1.69-1.29,4.48,4.48,0,0,1,1-.7Zm-20.61.5c-.1.2-7.56,17.14-23.19,29.21l-.1-2.8C44,92,50.28,82.54,55.06,74.36Zm22.1,1.2c.2,0,.4.2.6.49s0,.7-.9,1.4a1.7,1.7,0,0,1-1.19.5c-1.2,0-1.1-.3.1-1.5.7-.6,1.09-.89,1.39-.89Zm30.17.89,3.28.3c.9.6-12.74,9.57-22.2,8.77l.3-2.09C100.55,81.64,111.21,75,110.91,74.56Zm-28,.8c.8.4,1.69.9,1.5,1.1a6.65,6.65,0,0,1-3.09-.2c-.4-.2-.4-.3.2-.9S82.24,75,82.93,75.36Zm-29.07-.5C48.69,84,42.51,92.31,35.45,97.79L35.35,93c6.77-5.18,11.94-14.75,11.94-14.85Zm64.81.6,1.6.9c-9.86,9.17-20.51,13.06-30.77,12.06l.8-1.9c16.62,1.4,27.68-11,28.37-11.06Zm2.39.3s.5-.1.5,0a76.43,76.43,0,0,1-10.75,8.57c-13.94,14.36-25.89,25.62-38,38.48l-1.89-2,1.79-1.89c0-3.69,4.48-7.77,7.17-11,1.09-1.3,3.18-4.49,3-5.89a1.48,1.48,0,0,1-.1-.39c4.18-.8,5.28-4.29,5.28-7.28a18.67,18.67,0,0,1,1.19-5.48C108.22,90.31,120.46,76.26,121.06,75.76ZM87.71,77.85c2.19,0,3.78,1.7,3.78,4.19,0,1-.39,1.79-1.79,4.48a17.27,17.27,0,0,0-2,6.38l-1.39-1.19L83.83,93.9V90.61S84.72,89.51,86,88c1.79-1.89,3.28-4.49,3.28-5.88a1.94,1.94,0,0,0-3.08-1.6c-1.3.9-1.89,2.6-2.69,7.58-.1.9-.3,1.89-.3,2.19a13.53,13.53,0,0,1-2.09,2.39,24.66,24.66,0,0,1-.9-3.68l-1.89.3a25.91,25.91,0,0,0,5.08-8.38c1.1-1.89,2.39-3.09,4.28-3.09Zm-41.81.8A40.76,40.76,0,0,1,35.35,91.81V88.72c3.88-3,6.86-8.28,6.86-8.28Zm92.19.2C124.84,92.6,107.42,118,129,153.71l2.88-3.29c-17.32-32.3-5.07-48.94,6.37-65.79ZM66.21,80a49.28,49.28,0,0,0,13.24,7.27c-.3.9-7.47,7-2.29,12.66.2.3-.3,1-1.2,2-2.49,3.38-5,5.78-7,9.56l-.1,7.18-2.1-1.79Zm71.38.69.1,4.09c-19.71,24-17.52,45.65-6.37,65.59l-2.1,2.19c-18.41-31.5-7-55.32,8.37-71.87ZM88.81,83c-.9,2.29-4.68,6.28-4.68,6.28s.49-3.89.79-5.09a8,8,0,0,1,1.3-2.79A1.53,1.53,0,0,1,88.81,83Zm-26.19-2.2L63,113l-2.79-2.79-.39-24.62Zm-3.78,6.38.6,21.83A121.45,121.45,0,0,0,52.67,95.4S55.85,91.21,58.84,87.22Zm22,6.78,1.1-1.1c1.39-1.49,1.59-1.49,1.39.5a8.46,8.46,0,0,0,0,1.7c.8-.5,2.79-2.79,3.39-2.4a3.84,3.84,0,0,1,.79,2.6A6,6,0,1,1,77.46,91a3.66,3.66,0,0,1,2.29-1.2c.69,1.4.69,2.89,1.09,4.19Zm63.42-2.29a3.85,3.85,0,0,0,2.19,2.49c-.2,31.3-.1,86.82-.1,86.82l6.27,5.88v2.59l-8.36-7.67s-.4-65.39,0-90.11Zm6.27,1.49c.2,3-.3,6.18.2,9.37.5,2.2,1.29,4.09,1.39,6.18a15.2,15.2,0,0,1-.89,5.78,14.89,14.89,0,0,0-.8,4.09,16.4,16.4,0,0,0,1.19,7.08c.9,2.79.6,6.18-.79,10.56a8.24,8.24,0,0,0-.5,3.69c.2,3,1.29,5.88,1.79,8.87.3,1.7,0,3.89-1.09,7.68a25.09,25.09,0,0,0-.8,4.78,14.17,14.17,0,0,0,.6,3.69c1.49,3.79,1.49,4.49,1.59,6.78a14.16,14.16,0,0,1-1.09,5c-1,2.39-.4,4.88,0,7.67l-2.49-2.19a9.53,9.53,0,0,1,.2-6.28c1-2.69,1.19-3,1.19-4.59,0-2.09-1.19-4.58-1.69-6a11.81,11.81,0,0,1,0-7.87c.4-1.4,1-4,1.19-5.09.3-2.09.1-3.69-1-7.87a15.75,15.75,0,0,1-.6-4.79,23.18,23.18,0,0,1,.8-6.08,13.55,13.55,0,0,0-.3-9.07,14,14,0,0,1-.9-6.78,8.81,8.81,0,0,1,1.1-3.58,11.12,11.12,0,0,0,.39-7.78A35.3,35.3,0,0,1,148,93.8Zm-7.07,1.7c-.2,21.43,0,46,0,46s-6.37,4.49-6.27,4.19c-8.16-13.56-11.25-33.4,3-51.34a17.38,17.38,0,0,0,3.28,1.1ZM47,100c11.55,21.63,13,43.56-6.07,66a12.18,12.18,0,0,1,.2,5.68c3.68-2.89,33.65-32.89,8.46-74.56Zm58.94-1.69,5.67.3.4,4.88-1.79,1.79s0-1-.1-1.89c0-1.1-.2-2.09-.3-2a13.44,13.44,0,0,0-.3,2.69l-.1,2.09-.59.6c-.9.9-1,.8-1.1-.4-.1-2.59-.1-2.79-.3-2.59a7.44,7.44,0,0,0-.2,2.29,9,9,0,0,1-.2,2.29,3.09,3.09,0,0,1-1.49,1.3c-.3,0-.2-.4-.3-2,0-1.4-.1-2.1-.4-1.6-.1.1-.1,1.5-.2,2.59a7.81,7.81,0,0,1-.19,2.2c-.2.4-1.4,1.39-1.6,1.29s-.4-.89-.3-2.29c0-.7.1-1.2-.1-1.4s-.29.6-.19,2.5V113l-.7.8c-1.1,1.19-1.2,1.09-1.2-.9.1-1.6,0-2.29-.29-2.19s-.2.89-.1,2.49a6,6,0,0,1-.1,2.29,5.06,5.06,0,0,1-.8.9c-.4.4-.8.9-.9.9-.1-1.7-.2-5.29-.2-5.29l-6-.3a13.76,13.76,0,0,1,1.69-1.69,5.34,5.34,0,0,1,2.19-.1,14.14,14.14,0,0,0,2.49-.1c.4-.2-.5-.3-1.79-.4a16.31,16.31,0,0,1-2.09-.2l.9-.9.69-.59,1.89.1h2.09c1.1-.2.1-.5-1.19-.5s-2,0-2-.3a4,4,0,0,1,1.79-1.6c.2,0,1.2-.1,2.29-.1,1.79,0,2.39,0,2.29-.29s-1.29-.2-2.09-.2c-2.19,0-2.29-.1-.8-1.4l.7-.6h1.39c2.09.1,3.09,0,3.09-.2s-1.29-.3-2.49-.3h-1.19a14.28,14.28,0,0,1,1.69-1.79h1.79c1.3,0,2.19.1,2.19-.2s-.5-.2-1.09-.2a8.09,8.09,0,0,1-2-.2c-.09-.1.1-.5.7-1.09l.8-.6Zm-56.25,0c15.93,26,10.16,54.12-7.56,71.67l-.5-3.39c16.72-20.44,19.71-41.47,6.07-66.19Zm29.57,3.49c-2.89,4.28-7.27,8.57-8.86,12.06-.3.4-.4,1.29-1,1.49-.3,0-.3-.5-.3-1.59a3.51,3.51,0,0,1,.5-2c2.29-4.08,4.88-7.07,7.77-11Zm.7.39,2.68.2a13.69,13.69,0,0,1-2.29,4.39c-1.19,1.59-2.58,3.09-4.28,5.08-2.39,2.79-3.68,5.59-3.58,6.88a15.52,15.52,0,0,1-1.79,1.7l-1.5-1.4c1-5.88,6.57-11.26,10.76-16.85Zm32.25,2.4.9.1a36.93,36.93,0,0,1,4.88.49,2,2,0,0,1,.19,1,7.52,7.52,0,0,1-.39,2.89,9.34,9.34,0,0,1-.6,2.2c-.3.29-.5,0-.6-1.6-.1-1-.1-1.69-.3-1.59a5.65,5.65,0,0,0-.2,1.79c.1,2,.1,2.49-.49,3.09-1.1,1.1-1.2,1-1.2-.9a6.32,6.32,0,0,0-.3-2c-.2-.2-.3.8-.3,2.69v2l-.49.6c-.7.7-.9.8-1.1.6s-.1-.5-.1-1.59c0-1.3-.2-2.1-.5-1.8,0,0-.1,1.3-.1,2.39v2.2c0,.3-1.29,1.49-1.49,1.49s-.5-1.39-.5-2.59c0-.8-.2-.9-.3-.5,0,.1-.1,1.2-.1,2.19v1.8l-.69.8c-1,1-1.1.89-1.1-.4s-.1-1.8-.3-1.8-.2.6-.2,1.9c0,.89-.1,1.79-.1,2a4,4,0,0,1-.69.9c-.3.3-.6.6-.7.6a4.46,4.46,0,0,1-.3-1.6v-1.59c0-1.8.1-1.7-2.79-1.8-3.38-.1-3.48-.1-2.38-1.09s.79-.9,3.08-.8c1.79.1,2,.1,2.19-.1s.2-.2.1-.3a11.86,11.86,0,0,0-1.49-.1c-2.19-.1-2.39-.3-1.49-1.2l.49-.5H105a9.83,9.83,0,0,0,2.69-.19c.1-.2-.5-.3-1.89-.4-.8,0-1.49-.1-1.69-.1-.4-.1-.2-.5.39-1.1l.6-.6h2c1.89,0,2.79-.1,2.79-.4s-.4-.2-1.29-.3a5.24,5.24,0,0,1-2.29-.29,6.05,6.05,0,0,1,1.29-1.5l2.09.1c2.09.1,2.69,0,2.69-.4,0-.2-.9-.3-2-.3-.7,0-1.59-.1-1.59-.4a2.9,2.9,0,0,1,.69-.89l.7-.7,2,.1h2.39c.3-.2-.4-.4-1.69-.5-2-.1-2.09-.3-1.1-1.2Zm-70.28,1.09c10.45,18.74,8.86,36.39-2.29,51.34a9.83,9.83,0,0,0-4.09-1.3l-.29-45.25ZM116.58,113c.2,0,.2.3.1,1a4.12,4.12,0,0,1-.2,1.39c-.1.3-.2.3-1.19.2-1.2-.2-1.1-.4.1-1.59.69-.7,1-1,1.19-1Zm-56,.8h2.09s.1,3.49.4,5.48l4.48.2-1.69,1.79-3.39-.1c-.1.1-1.09-4.88-1.89-7.37Zm53.36,2.09a7.79,7.79,0,0,1,2.49.5c.2.2.2.5,0,2.79,0,.8-.1,2.59-.1,3.89,0,2.39,0,2.39-.3,2.49s-.39-.1-.49-1.7a5.43,5.43,0,0,0-.3-1.69,8.12,8.12,0,0,0-.1,2.39v2.1a9.54,9.54,0,0,1-1.1.89c-.3,0-.4-.4-.49-1.49s-.2-1.9-.4-1.6c0,.1,0,1.2.1,2.2l.1,1.79-.8.8c-.8.8-.9.89-1,.7-.29-.8.1-4.49-.59-5a9.83,9.83,0,0,0-2.19-.1c-1.89-.1-3-.1-3.19-.3s.7-1.19,1.2-1.39a5.65,5.65,0,0,1,2.29-.1c1.79.1,2.68.1,2.48-.1a8.76,8.76,0,0,0-1.69-.3c-1.49-.1-2-.3-2-.6a5.88,5.88,0,0,1,1.3-1.49l.69.1a18.29,18.29,0,0,1,2,.19c.7.1,2.19.1,1.6,0,.2-.19-.6-.39-1.6-.49-2-.2-2.19-.5-1.19-1.4l.6-.6c1,.1,2.09.1,3.08.3.8.1,1.2.1,1.2-.2s-.4-.2-1.3-.4c-.3-.1-2,0-2.09-.5.3-.59,1.1-1.59,1.79-1.69ZM68,120.22c.3,0,.3.69.3,2.69s.1,2.49.3,2.69.59.2,2.49.3c2.88.1,2.88.2,1.89,1.19-.7.7-.7.6-1.3.5a14.73,14.73,0,0,0-3.78,0c-.1.2,0,.3,1.39.4,1.7.1,2.09.2,2.09.5a2.53,2.53,0,0,1-.59.8l-.6.6-1.79-.1c-1.89-.1-2.79-.1-2.79.19s1.09.3,2.69.5a5.33,5.33,0,0,1,.89.1c.1.2-.79,1.2-1.29,1.6s-.6.1-2.39.1-2.09,0-1.69.4c.1.1.4.1,1.09.1,1.2.1,1.7.3,1.7.49s-1.1,1.4-1.5,1.6-.6.2-1.59.1c-.8-.1-.9-.3-.9-1,0-.3.1-2.39.1-4.58.1-4.29.1-4.49.7-4.39.2,0,.3.3.4,1.8s.1,1.89.4,1.89c.1,0,.1-.6.1-2.09-.1-2.3-.1-2.7.59-3.29.3-.3.6-.5.7-.3a13.17,13.17,0,0,1,.3,2.79c0,.9.4,1.09.4.2,0-1.4-.1-2.59-.1-4.09l.89-.9c.5-.49.8-.79.9-.79Zm-5.48,1.69a20.67,20.67,0,0,1,2.49,0,7.37,7.37,0,0,1-2.19,2.19C62.62,124.2,62.42,122.31,62.52,121.91Zm53.86,4.19.4,2.89-3.09-.2Zm-41.91.5h0c.3.1.3.59.4,3.29a7.44,7.44,0,0,0,.2,2.29,2.21,2.21,0,0,0,1.19.2,22.46,22.46,0,0,1,2.49.1c1.69.1,1.69.2.7,1.19l-.7.7-2.09-.1c-2.09-.1-2.49-.1-2.49.2s.4.3,1.1.3a8.53,8.53,0,0,1,1.49.1c1.29.1,1.29.2.3,1.2l-.7.69-.69-.1a16.07,16.07,0,0,0-4,.1c-.3.3.1.4,1.3.4,2,.1,2.29.2,2.29.4a2.62,2.62,0,0,1-.6.8l-.6.6-2.49-.1a8.69,8.69,0,0,0-2.39.1c-.1.2.2.3,2,.39s2,.4,1.29,1.2-1,1-2.29.9a15.45,15.45,0,0,0-3.19,0c-.29.2,0,.4,1.1.4,1.59.1,2.49.3,2.49.5s-.5.89-1,1.29l-.4.3-1.79-.2c-1.79-.2-2.79-.1-2.49.2a4,4,0,0,0,1.5.2c1.39.1,2.09.3,2.09.6a4.21,4.21,0,0,1-.8.89,5.5,5.5,0,0,1-.89.7l-5.58-.5a8.43,8.43,0,0,1,.3-3.68c.5-2.5.7-3,1-2.6a7.47,7.47,0,0,1,.2,1.1c.1,1,.4,1.6.5,1.6s.2-.6-.1-2c-.3-1.89-.3-2,.4-2.79s1-.8,1.19-.5a13,13,0,0,1,.2,1.7c.1,1.29.2,1.59.4,1.39s.2-.5.1-2.39l-.2-1.89.8-.8c.79-.8.79-.8,1-.6a7.74,7.74,0,0,1,.3,1.89c.1,1.4.2,1.9.4,1.7a28.38,28.38,0,0,0-.1-4c-.1-.5,0-.6.6-1.19.7-.8,1.09-1.2,1.29-1.2s.4.8.4,1.89a3.74,3.74,0,0,0,.2,1.7c.3.4.3-.9.2-2.19l-.1-2.3.8-.79c.69-.7.79-.7,1-.5s.2.59.2,1.69c.1,1.6.4,2.39.5,1.3v-1.1a9.13,9.13,0,0,1-.1-1.79c0-.9,0-1.2.3-1.6s1.29-1.29,1.59-1.29Zm32.45,1.79s1.3,1.1,1.3,1.4a7.06,7.06,0,0,1-1.2,1.39c-1.19,1.2-1.39,1.4-1.49,2.69a9.33,9.33,0,0,1-.89,2.3,13.92,13.92,0,0,1-1.1,1.89,89.72,89.72,0,0,0-7.27,9.57c-.2.5-.2.9-.4,1.29a1.78,1.78,0,0,1-.69.6c-.2.1-.7.4-1,.6A6.83,6.83,0,0,0,91.69,154c-.2.9-.3,1.69-.69,4.38a27.61,27.61,0,0,1-.6,3.09c-7.47-.1-14.44,1.2-20.61,4.69Zm10,1.1,1.69,7.57h-1.69l-.2-5.48-5.28-.5,1.9-1.89Zm-8.06.69c.49.5,1,1,1.39,1.5-1.39,4.78-6,11-10.45,17l-3.29-.39a90.68,90.68,0,0,1,6.77-9,21.09,21.09,0,0,0,2.19-3.48,22.81,22.81,0,0,0,1.1-3.39c.79-.9,2.29-2.3,2.29-2.3Zm1.69,1.7,2.49,2.49.6,35.69a46.11,46.11,0,0,0-13.15-7l.8-1.89.9-1c3.28-3.59,2.58-7.38.1-10.07,3-4.39,5.77-7.77,8.06-12.06v-3a12.28,12.28,0,0,1,.2-3.19Zm-29.67,1.49c.3,0,.3.6.4,2.5s.1,2.59.3,2.79.3.3,2.39.3,2.59.1,2.59.4a2.9,2.9,0,0,1-.6.69l-.6.6H81.14c-.2.2.5.4,1.39.4.6,0,1.5.1,1.6.1.39.1.2.5-.6,1.3l-.8.79H80.94a11.6,11.6,0,0,0-2.29.1q-.75.3.6.3c1.49,0,2.49.1,2.59.4a4.32,4.32,0,0,1-.6.9l-.7.7-2.59-.1c-2.48,0-2.78.19-.69.39.79.1,2,.3,2.09.3l.2.2c.1.2-.9,1.3-1.4,1.6a1.35,1.35,0,0,1-.89,0,11,11,0,0,0-3.19.1c-.2.1.3.3.9.3,1,0,2.19.3,2.19.49a4,4,0,0,1-1,1.3c-.2.2-.79,0-2.49.1a4.67,4.67,0,0,0-1.89.2,2.07,2.07,0,0,0,1.3.3,10.63,10.63,0,0,1,1.79.3c.2.2-1.1,1.69-1.1,1.69l-5.37-.1L67.9,147l.5-.5c1-1.19,1.29-1,1.49,1.1.2,1.59.3,2.09.5,1.79a14.81,14.81,0,0,0,0-2.29c-.1-1.1-.1-2.09-.1-2.19,0-.3,1.19-1.6,1.49-1.5s.4.6.5,2c.1,1.19.2,1.49.4,1.29a6.72,6.72,0,0,0,0-2.29l-.1-2,.5-.6c1-1.2,1.29-1.1,1.39.89.1,1.4.2,2.1.5,2.1a8.87,8.87,0,0,0,0-2.59l-.1-2.3.69-.69c.4-.4.7-.7.8-.7.3,0,.4.6.6,1.89.2,1.5.2,1.8.4,1.6a13.89,13.89,0,0,0,0-2.2l-.2-2.29.79-.8a4.18,4.18,0,0,1,1-.79c.2,0,.4.69.4,1.69a3.47,3.47,0,0,0,.4,1.89c.1.1.1-.49.1-2.09,0-2.49-.1-2.69,1-3.89-.3,0-.1-.2,0-.2Zm29.07,1v3.49c-1.39,3-4.58,7.38-7.86,12.06l-1.7-.9c4.09-5.38,7.57-10.36,9.56-14.65Zm-46.69,1.1h.3c.9.1.9.4.1,1.09a2,2,0,0,1-.9.6c-.3,0-.3,0-.2-.7s.2-1,.7-1ZM116.58,138l2.39,2.39.6,25.52-2.49,4.19Zm3,3.39a99.2,99.2,0,0,0,7,13.85l-6.47,9.08Zm-21.7,8c3,0,5.67,2.3,6.07,4.69a5.67,5.67,0,0,1-3.09,6.58,4,4,0,0,1-1.29.3c-.3-1.7-.2-3.29-.5-4.89a23.89,23.89,0,0,1-2.19,2.49c-.4.2-.6.3-.5-.2,0-.89.1-3,.1-3l-3.38,3.59a5,5,0,0,1-.6-1.29A6.16,6.16,0,0,1,95,150.32a4.6,4.6,0,0,1,2.89-1Zm45.59-.2.1,3.09c-5.38,4.19-13,13-19.61,24.43l-2.89,1.19c4.38-10.66,13.84-21.53,22.4-28.71Zm0,4.09.1,4.69a69.67,69.67,0,0,0-12.44,15.35c-2.09,1-6,2.89-6,2.89-.49-.1,10.56-17.35,18.32-22.93Zm-47.78,4c.19,0,.19.4.1,1a5,5,0,0,1-.8,2.6c-1.69,2.09-4.48,4.88-4.88,7.47a2.19,2.19,0,0,0,2,2.59c3.29-.39,3.69-6.28,4-9.17a11.7,11.7,0,0,1,.3-1.59,14.11,14.11,0,0,1,2.39-2.49l.4,4.48,1.89-.6c-5.28,7.18-3.78,7.58-6.47,10.57-2.59,2.69-7.57-.4-6.27-4.49,1.09-2.79,2.79-5.58,3.28-8.57.1-.9.2-1.49.2-1.49L93,160a10.29,10.29,0,0,1,2.69-2.79Zm48,1.49v3.19a66.62,66.62,0,0,0-7.07,8.67l-4,1.8c2.59-4.89,6.87-9.47,11-13.66Zm-48.48,2.89a11.17,11.17,0,0,1-.3,4.19c-.3,1.3-1.49,5.08-3.49,4.19-1.69-1.5.4-4.19,1.4-5.49.79-.89,1.59-1.89,2.39-2.89ZM90,162l-1.09,2.3c-9.76,0-19.22,3.48-27.58,10.66l-2.09-.7A42.77,42.77,0,0,1,90,162Zm10.16,1.8c11,3.68,16,9.07,20.2,14.65l-1.69.9c-4.38-5.68-9.65-10.77-19.71-13.76Zm-12.55,3.39-.5,2c-6.17.2-12.64,2.39-18.91,6.78l-2.29-.4A39.14,39.14,0,0,1,87.61,167.17Zm28.08,13.45-2,.9c-5.77-7.58-11-9.67-17-11.66l.6-1.7a32.07,32.07,0,0,1,18.42,12.46Zm-81-8.87.2,20.14-1.4-.3-.19-19.44Zm-3.19,1.1c-2.68,10.07-.59,12.66.4,18.44l-2.19-.4a26.76,26.76,0,0,1-.6-17.64Zm67.1,1.49c.2.2-.1.7-.5.9s-.29.2-1,0-1.39-.8-1.39-1a13.42,13.42,0,0,1,2.88.1Zm1.89.2c.4,0,1.4,0,1.5.4,0,.2-.4.5-1.2,1.1-1.29.89-1.69,1.09-2.09.6s-.3-.8.4-1.4a1.6,1.6,0,0,1,1.39-.7Zm-44,.2a4.91,4.91,0,0,1,2.89,2c.79,1.29,1.69,2.59,2.49,3.88a55.09,55.09,0,0,1,4.08,8.87,116,116,0,0,1,6,21.14c0,.59-.5.59-1,.4a2.19,2.19,0,0,1-.5-.3c-.6-1.7-.8-3.39-1.3-5.19a107.31,107.31,0,0,0-3.78-12.76A80.61,80.61,0,0,0,60.73,182a29.66,29.66,0,0,0-4.18-5.88,7.92,7.92,0,0,1-1-1c.09-.3.39-.4.89-.4Zm46.89.2c.7.2,2.29.4,1.69.9a12.77,12.77,0,0,0-4.28,2.89c-.2,0-.89-.9-.89-1.1C100.75,176.34,102.05,175.84,103.34,174.94Zm-43.5,0c1,0,1.89,1.2,2.39,2,3,4.39,5.57,10.67,7.66,16.85a92.39,92.39,0,0,1,4.28,17.54,1,1,0,0,1-.7.2c-.59,0-.69-.1-.89-.59a152.78,152.78,0,0,0-6.17-21.73,63.62,63.62,0,0,0-5.08-10.47A30.25,30.25,0,0,1,59,175.24a1,1,0,0,1,.8-.3Zm-6.67.2c1.29,0,3.48,1.6,5,3.59C61.23,183,63,188,64.91,192.88a102.6,102.6,0,0,1,4.58,16.65c.2.7.4,1-.2,1.2-1-.3-1-.3-1.29-1.5s-.5-2.59-.9-4c-2.09-7.57-4.48-16.05-8.36-22.82-4.68-7.58-6.07-5.49-6.87-6.78.1-.3.6-.5,1.3-.5Zm11.25,1.79a69,69,0,0,1,7.06,15.65c1.9,6.48,4.09,11.57,5.08,19.14a5,5,0,0,1-1.49-.2,3.65,3.65,0,0,1-.5-1.49,151.15,151.15,0,0,0-4.18-16.55,70.5,70.5,0,0,0-7.17-15.85c-.8-1.39-1-1.89-.5-1.89.9,0,1.3.7,1.7,1.19Zm42.11-.79a1.42,1.42,0,0,1,.59.1c.5.2.7.3.7.5s-.3.39-1.29.69a9.85,9.85,0,0,0-3.49,2,10.58,10.58,0,0,1-1.09.89c-.3,0-.9-.69-.9-.89a8.69,8.69,0,0,1,5.48-3.29Zm-55.65.2c3.38.1,6.07,4.08,7.46,6.77.5,1.1,1.3,2.2,1.79,3.39a108.82,108.82,0,0,1,6.28,19c.59,2.4,1.19,4.19,1,4.59-.3.2-.89,0-1.19-.2s-.3-.7-.6-1.7c-.8-2.59-2.09-9.86-5.57-17.64a61.38,61.38,0,0,0-4.58-9.67,8.08,8.08,0,0,0-4.78-3.49c-.9-.1-1.1,0-1.1-.5,0-.29.1-.39.6-.49.3,0,.5-.1.7-.1Zm21.4,15.95q-.3,0-.6-1.2c-.1-.4-.2-.6.5-1,4.28-4.48.6-11.16-4.78-11.76a7.08,7.08,0,0,0-1.29-.1,5.71,5.71,0,0,1-1-1.49c7.37-1.9,15.23,8.67,7.17,15.55ZM109,177.53c.39.1,1.39,1,1.29,1.2s-1,.2-2.19.5c-2.49.5-3.58,2.09-4.78,3.29-.3.1-.5-.1-.7-.5a2.1,2.1,0,0,1-.29-.8c1.19-2,4.77-3.89,6.67-3.69Zm-59.84.5a6.81,6.81,0,0,1,5.48,2.79C59,187.5,64,202.15,65.21,209.43c-.1.2-.4.3-1.09.1-.3-.1-.3-.2-.5-.9a150.69,150.69,0,0,0-4.68-15.15c-.9-2.39-2-4.78-3-7-.69-1.39-2-3.78-2.49-4.48a4,4,0,0,0-5-2.1,2.28,2.28,0,0,0-.6,3.69,2.12,2.12,0,0,0,3.09-.5,1.12,1.12,0,0,0,0-1,.3.3,0,0,0-.4,0c.1,1.29-1.6,1.39-2.29.89-1.1-.89-.4-3.58,2.69-2.49a2.19,2.19,0,0,1,1,3.09,2.9,2.9,0,0,1-2.89,1.9,3.46,3.46,0,0,1-3.58-3.39,4.31,4.31,0,0,1,2.09-3.79,4.52,4.52,0,0,1,1.59-.3Zm18.22,1c5.28.2,7.67,6.38,4.88,10.17-.7.89-1.19.69-1.49-.4-.1-.5-.3-.5.1-.9,2.49-2.39.39-6.88-3.59-7.08a4.4,4.4,0,0,1-.79-1.69,1.44,1.44,0,0,1,.89-.1Zm43.61.5c.39.1,1.19.89,1.19,1.19s-.2.3-1.09.1c-2.19-.4-4.38.9-6.28,3.69-.89,1.69-1,1.5-1.49.1-.2-.7-.2-.7.7-2.09a7.37,7.37,0,0,1,7-3Zm2.09,2.79c1.79,1.69,1,5.38-1.5,5.78-2.19.3-4.18-2.09-2.78-3.69.89-1,2-1.1,2.68-.2s.4,2.09-.59,2.19a.22.22,0,0,0-.2.2c0,.2.89.2,1.19-.1A2.08,2.08,0,0,0,112,184a2,2,0,0,0-2.39-.8c-1.49.5-3,2.5-3.88,5.09a7.89,7.89,0,0,1-.5,1.49c-.2.3-.2.3-.4.2a6.12,6.12,0,0,1-.49-2.19,8.6,8.6,0,0,1,.89-2.59c1.69-3.29,5.28-5.29,7.87-2.89Zm-44.9-.8c2.19.1,3.88,3.19,2.89,5.28-.3.4-.7.7-.9.4-.1-.1-.4-1.09-.9-2.09s-.89-2.09-1-2.29C68,182,67.8,181.52,68.2,181.52Zm-14.54,1.79a82.7,82.7,0,0,1,6.18,14.16,76.73,76.73,0,0,1,3,10.76.85.85,0,0,1,0,.7c-.2.2-1.39-.4-1.39-.4-2-7.07-3.68-14.05-8.56-23l-.3-.6a2.41,2.41,0,0,1,.4-1.7c.3-.2.4-.2.69.1Zm-27.37,8.18c11.54.8,20.41,5.68,25.18,18.54a48.54,48.54,0,0,0-25.08-8.47v-1.8c10.65-.1,21,5.48,20.8,5.38-4-8.17-13.83-11.46-20.9-11.66Zm80,2.59a5.73,5.73,0,0,0-1,2.09c0,.3.1,2.3.1,3.49a12.82,12.82,0,0,0,.2,2.29.62.62,0,0,0,.8.1,2.3,2.3,0,0,0,.3-.69c1-3.59,1.39-5,1.79-5.39s.3-.3,1.39-.2a2.06,2.06,0,0,0,1.59-3.68c-2.09-1.3-4.28.69-5.17,2Zm2.49.8c-1.7,1.39-1.7,3.39-2.19,5.18-.3,1.2-.7,1.89-.8,0A8.46,8.46,0,0,1,107,194a3.71,3.71,0,0,1,2.89-1.89c2.19-.2,2.39,1.59,1.79,2.49a2,2,0,0,1-2.88.3Zm-79.45.79a1.5,1.5,0,1,1-1.49,1.5A1.47,1.47,0,0,1,29.37,195.67Zm4.78,1.1a1.35,1.35,0,1,1,0,2.69,1.34,1.34,0,0,1-1.29-1.39A1.2,1.2,0,0,1,34.15,196.77Zm4.38,1.4a1.1,1.1,0,1,1-1.09,1.09A1.1,1.1,0,0,1,38.53,198.17Zm3.09,2a.81.81,0,0,1,.79.9.77.77,0,0,1-.79.79.87.87,0,0,1-.9-.79A.9.9,0,0,1,41.62,200.16Zm-10.85,2.69a9.41,9.41,0,0,0,.3,4.49c.89,2.49.49,7,.49,7l-2.49,2.5a39.8,39.8,0,0,0,.3-6.78c-.1-1.3-.69-2.49-.79-3.79a30.25,30.25,0,0,1,.1-3.59Zm4.08.8.1,10.66-8.56,8.28V220.4l7.26-7.28-.2-9.87ZM56,227.87l-.59.9H65l.2-.9Zm12.55,0-.2.9h4.48l.1-.9Zm7.26,0-.09.9H92.29l-.2-.9Zm19.42,0,.3.9h4.38l-.4-.9Zm7.46,0,.3.9h7.57l-.6-.9Z"/><path id="path35-67-2-1-9" class="cls-2" d="M14.44,11.56v2.8h2.69s.1,2.69.1,8.27.1,8.17-.2,9.77c-.9,3.59-6.17,3.59-7.17,1-.6-1.49-.4-2.69-.5-4.18H6.48V30.9c0,4,1.39,6,4.48,6.78s7-.5,8.26-3.19c.79-1.59.7-1.69.7-11.16,0-6.28.09-9,.09-9H22.5V11.57H14.44Z"/><path id="path35-6-7-1-4" class="cls-2" d="M164.27,238.14v-2.79h-2.69s-.1-2.69-.1-8.28-.1-8.17.2-9.77c.9-3.58,6.17-3.58,7.17-1a12,12,0,0,1,.49,4.18h2.89V218.8c0-4-1.39-6-4.48-6.78s-7,.5-8.26,3.19c-.8,1.6-.7,1.7-.7,11.17,0,6.28-.1,9-.1,9H156.2v2.79Z"/></g></g></g></svg>