<svg xmlns="http://www.w3.org/2000/svg" viewBox="0 0 178.8 249.6"><defs><style>.cls-1{fill:#fff;stroke:#000;stroke-width:1px;}.cls-2{fill:#d40000;}.cls-3{fill:#e2cf00;}.cls-4{fill:#131f67;}</style></defs><title>Jh</title><g id="Layer_2" data-name="Layer 2"><g id="svg11376"><g id="Jh"><path id="rect10346-5-7" class="cls-1" d="M9,.5H169.8A8.49,8.49,0,0,1,178.3,9V240.6a8.49,8.49,0,0,1-8.5,8.5H9a8.49,8.49,0,0,1-8.5-8.5V9A8.49,8.49,0,0,1,9,.5Z"/><path id="path10378-7-1" class="cls-2" d="M14.2,56.3s-1.8-2.5-4.2-5.5c-1.6-2-2.9-4.2-3-6-.1-2.1,1.2-4.3,3.5-4.4s3.3,1.6,3.7,3.1c.4-1.4,1.3-3.2,3.7-3.1s3.6,2.2,3.5,4.4c-.1,1.9-1.4,4-3,6-2.4,2.9-4.2,5.5-4.2,5.5Z"/><path id="path10380-5-9" class="cls-2" d="M164.6,193.3s-1.8,2.5-4.2,5.5c-1.6,2-2.9,4.2-3,6-.1,2.1,1.2,4.3,3.5,4.4s3.3-1.6,3.7-3.1c.4,1.4,1.3,3.2,3.7,3.1s3.6-2.2,3.5-4.4c-.1-1.9-1.4-4-3-6C166.4,195.9,164.6,193.3,164.6,193.3Z"/><path id="path35-67-2-8-6" class="cls-2" d="M14.1,11.5v2.8h2.7s.1,2.7.1,8.3.1,8.2-.2,9.7c-.9,3.6-6.1,3.6-7.2,1-.6-1.5-.4-2.7-.5-4.2H6.1v1.7c0,4,1.4,6,4.5,6.7,3.2.9,7-.5,8.3-3.2.8-1.6.7-1.7.7-11.1,0-6.3.1-8.9.1-8.9h2.5V11.5Z"/><path id="path35-6-7-4-8-8" class="cls-2" d="M164.7,238.1v-2.8H162s-.1-2.7-.1-8.3-.1-8.2.2-9.7c.9-3.6,6.1-3.6,7.2-1,.6,1.5.4,2.7.5,4.2h2.9v-1.7c0-4-1.4-6-4.5-6.7-3.2-.9-7,.5-8.3,3.2-.8,1.6-.7,1.7-.7,11.1,0,6.3-.1,8.9-.1,8.9h-2.5v2.8Z"/><g id="g3347-7-8-1"><g id="g3498-4-3-9"><g id="g2997-9-2-6"><g id="g3884-5-1-3"><g id="g3000-2-1-2"><path id="path2993-7-5-1" class="cls-3" d="M153,29.48l-9.17,6-.14,7c-5.43-2.62-7.79-6.9-8.66-11.92-1.54,1.94-1.23,11.77-1.23,11.77a11.22,11.22,0,0,0-2.8,2.53,29.1,29.1,0,0,0,3.35,3.92s-1.14,10.23.22,10.64c1.24-4.38,2.88-8.2,9-12.21,0,0,.09,16.31-.3,32.07-2.57-1.78-8-5-11.51-8.23,4.56-5.88-.09-13.55-6.87-8.46-4.4-2.39-5.08-13.68-6.17-19.59-.21-1.2-1.24-4.67-1.24-4.67s-14.51-4-20.73-3.7C101.93,48.3,100.92,65,77.76,68.08,66.67,73.16,53.85,78.84,41.4,89.43,39.1,105.2,31,113,25.26,117.27c0,6.39,0,12.72.23,19.17,0,.05,5.24-3.45,6.05-2.81,4.37,28.52,20.4,34.17,18.79,35-.27.13-5.25,5.28-5.25,5.28L25.53,161c-.67,19.71-.28,39.81,0,59.57,3.45-2,9.79-6.64,9.79-6.64l.1-6.71c0-.64,8.88,5.59,8.92,13,.69.47,2.22-10.66.82-11.88l3.66-3.78-3.94-3.8s1-6.31-1-9.94a14.2,14.2,0,0,1-8.22,10.92s-.12-30.42-.31-30.46l12.28,7.81c-6.66,9.09,5,12,6.44,7.62,7.56,7.07,4.64,15.51,8,25.54l21.43,3.95c-8.83-16.44.75-35.19,18.11-33.85a40.92,40.92,0,0,0,6.19-3.32,64.43,64.43,0,0,0-4.88-6.82l-37.14-.62L83,139l-11.38-.36s9.25-19.69,7.25-21.28c-.7-.56-.4-6.9-.4-6.9l10.18.38c.39-4.55-4.92-21.86-12.43-33.19L118,78,94.48,110.89l12.62.36-7.53,15.53,1.21,12.11-11.2.36c1.94,16.79,14.36,34.47,18.72,39.93,7.23-1.72,20.72-12.07,29.09-18.51,1.08-11.25,5-20.84,15.05-28l0-18.54s-5.76,3.74-5.76,3.48c0-4-2.05-12.36-5.91-19.81-4.14-8-10.91-15.23-12.47-15.68,3.58-5.44,5.11-5.92,5.07-6l19.51,12.56ZM54.58,69a22.82,22.82,0,0,1-7.09,1.39c-5.91.31-10.41.79-12.82,5.65-.49,1.49.58,2,1.36,2.41C40.49,72.92,52.33,80.26,54.58,69ZM28.33,94.48c0,.79.87,2.06,1.31.73a5.05,5.05,0,0,0,0-3.43C28.49,91.11,28.35,93.7,28.33,94.48Zm64,26.85-5.77,0,0,6.8h5.81Zm56.71,33.84c-.12.68-.74,3.71.66,3.18C151.4,157.07,150,151.17,149.08,155.17Zm-5.44,17.07c-.68-1-2.78,1.49-4.53,1.57-7.68.42-13.35-.62-14.31,7.45,4.43-2.84,10.65-1.55,14.66-2.47C142.36,177.83,145.68,175.21,143.64,172.24Z"/><path id="path3504-0-2-5" class="cls-4" d="M24.09,230.06V19.54H154.71V230.06Zm6-136.44c.1-2-.72-2.87-1.44-1.46-.17.32-.74,3.85.59,4C30.11,96.19,30,94.49,30.08,93.62ZM28,96c0-.48-.31-.68.35-4.84-1.25-.49-2.32-2.5-1.41-3.78.35-.5.25-.61.1-1a2,2,0,0,1,.78-2.54c.61-.41.64-.54.44-1.08a2.42,2.42,0,0,1,1.33-3.3c.94-.34.76-.38.85-1,.23-1.35,1-2.16,2.32-2s1.32.14,1.43-.48c.31-1.7,2.35-3.55,5-4.8,1.33-.63,3.52-1.06,7.75-1,2.42,0,5.43-.37,7.12-1.86.28-.27.67-.94.81-.85.31.22.24,1.9-.37,3.45-1.8,4.47-4.23,5.71-11.11,5.67-2.06-.1-5.08.19-6.35,1.5-.39.4-.64.78-.5,1,2.85.4,5.77,1.69,7.48,7.33A176.57,176.57,0,0,1,67.65,72c-1.23-6.74,4.6-7.79,7.88-6.44a2.67,2.67,0,0,0,0-.94,5.14,5.14,0,0,0-.91-2c-.15-.31-1.07-.88-.89-1.33.3-.76.16-1-.47-1.64-.41-.46-.13-1.41,0-1.8.13-.73.6-1.76.18-2.13-.64-.61-2.86-1.61-4-2.43s-1.29-1.74.57-4.74c.84-1.75,1.62-3.63,2.29-4.9,1-1.89,1.12-3.15.51-4.25a5.86,5.86,0,0,1-.65-3.07S64.54,25.69,61.44,21.46H26v80.75l6.09-5.83-1.65-2c-.24,1.14,0,2.24-1.42,2.31C28.49,96.66,28,96.46,28,96ZM49,204c.21-3.2-1.32-8.44-3.63-12.07a40.69,40.69,0,0,1-.25,8.83Zm55.75,8.36c-.27-.09-2.59-.23-4-.3a12.15,12.15,0,0,1-10.06-5.8c-.52-.79-.3-.76.84.15,3.21,2.51,6.2,4,8.85,3.64,3.73-.54,5.75.84,5.23,2.44C105.44,212.79,105.41,212.6,104.71,212.38Zm-12.63-7.14c-.76-.66-.8-1,.07-.36,2.71,1.81,6,4.77,10,3,.84-.53.06-.46-1.34-.32-2.15.24-4.76-.86-8-3.09-1.57-1.09-.89-2,.88-1.16a4.49,4.49,0,0,0,1.45.48c1.73-1.17,5.41-1.15,5.31-1.15.42-.35-1-.93-3-1.7-1.32-.51-1.65-.71-.66-.75a6.36,6.36,0,0,1,3.19,1A13,13,0,0,0,103,203c.8.07,1.62.18.24.82-.62.29-.57.37-.5,1.07a2.17,2.17,0,0,0,.68,1.7c.85.94,1.22,2.69,0,1.6-.26-.13-.3.1-1,.39-4.17,1.22-7.29-.63-10.34-3.29Zm7.72.32a5,5,0,0,0,.64-1.31c-.07-.51-.53-.34-.75-.07-.39.48-.94,1.19-.49,1.44C99.4,205.71,99.62,205.81,99.8,205.56Zm-1.41-.33.93-1.67c-.23-.11-3.38.56-2.89,1A6,6,0,0,0,98.39,205.23Zm3.55-5.6a2.21,2.21,0,0,1-.79-3.53c.9-.92,2.43-.85,4.28.29.64.39,1,.59,1.47.44.75-.27,1,.14,1,.72-.13,1.28-2.12,1.59-3.36.13-1.66-1.93-3.45-.58-2.92.82.27.71.8.83,1.38,1.09C103,199.7,102.35,199.85,101.94,199.63ZM95.38,191c2.38-.66,5.93,1.87,7.85,1.53.83-.18.72,1-.15,1.45s-2.45.17-5.5-1.42c-2.51-1.37-4.54.9-2.87,2.58a2,2,0,0,0,1.53.52c.84,0,1.09.19,0,.48a2.91,2.91,0,0,1-2.37-.67A2.62,2.62,0,0,1,95.38,191ZM45,183.67a6.34,6.34,0,0,1,1.48-4.44l-10.71-7.29.15,29.1c5.31-3.38,7-7.64,7.34-13.13,10.47,11.76,7.21,26.09.67,34.25-.27-5-1.76-10.89-7.81-13.91v6l-10.16,7.13v7H49.73l11.42-17.06c-2.07-7.58-1.75-13.9-3.15-17.37-1-2.85-3-6.53-4.33-6C49.33,191.38,45.05,187.35,45,183.67ZM54,187c3.71,2.69,4.7,7.06,5.46,11,0,0,2,13.18,2,13.36a1.74,1.74,0,0,1-.48,2c-3.42,4.71-10.11,14.81-10.11,14.81l65.61.39c-3.5-5.12-6.24-10.16-9.56-14.36a10.18,10.18,0,0,0-.81-4,2.13,2.13,0,0,1-.31-2.32c.95-2.15,1.94-4.5,2.83-6.47,1.71-3.78,1.89-3.81-.43-5.05-2.75-1.61-3.24-2.12-2.66-4,.2-.67.23-.93-.61-1.1-.4-.08-1.36-.32-2-.49-1.84-.59-1.31-.23-2,.26-.51.26-1-.73-1.56-1.88-.7-1.33-.87-1.37.28-.68,2.14,1.27,5.92.78,4.59-.7a3,3,0,0,1-1.19-2.71c.07-1.61.09-2.09-1-2.32a15.29,15.29,0,0,0-6.61.26c-6.2,1.56-11.16,6.94-13,10.94-.42.69.55.67,1,.67,2-.17,3.47,3.07,2.15,4.52-.62.64-1.22.25-.57-.59a1.85,1.85,0,0,0-2-2.77c-2.06.59-2.12,3.25-2.38,5.12-.69,5.35,2,12.52,2.68,14,0,0,.14.21.09.21s-.37.31-.51.14c-.47-.54-1.68-4.92-2.33-8.05-1.26-8.65,1-16.61,8.15-21.13,6.35-4.61,9.56-3.61,13.17-3.82,1.23-.45,2.93-1.13,4.23-1.76,11.33-5.92,21.66-11.72,31.14-19.42,6.95-5.25,10.26-9.52,16.21-14.88l-.61-30s-.59-.5-.59-1c.4-2-3.13,1.35-5.39,2.46C145.39,103.87,138,90.33,129,82.41l.37-.5s3,2,4.5,2.93V82.92l-3.63-2.28c-.16-.69-.07-.8.72-.81l2.9,2.15V80.23l-2.35-1.5.75-1,1.26.81c-.53-1.38.22-1.35,1-.41a6.38,6.38,0,0,1,.92,1.47c.06.2.27.67.27.67l2.06,1.53a4.3,4.3,0,0,1,0-1c.34-1.08,2.82,2.43,2.51,2.51l2.11,1.53c.5-.77,2.37.75,2.46,1.5.17.32,7.27,4.9,7.27,4.9l.07-2.52.76-1,.35-58.43-9.43,6-.11,7.07c-4.45-1.45-8.31-7.91-8.87-11.95-.3-.16-1.58,8-.9,11.5A33,33,0,0,0,130.79,45l3.57,3.92a72.13,72.13,0,0,0-.55,9c.15,1.41.18,1.56.59,1.57a.75.75,0,0,0,.66-.7c.83-3.57,3.58-9.14,8.36-11,.31,0,0,31.83,0,31.83l-11.83-8.08c-.59-.52.77-.48,1.6-3.16,2.14-7-5.29-9.41-8.16-5.39-.48,0-2.44-2.45-2.74-3.47-2.18-4.42-2.61-9.42-3-13.45a51.78,51.78,0,0,0-1.47-6.63,2.51,2.51,0,0,1,.31-2.55c2.75-5.68,8-9.6,10-15.32l-65.78-.22c4.16,3.44,7.79,13.07,11.58,14.3-1.83.24-1.2,1.84-.5,3.54.86,2.11.77,2.54-1.43,6.9-3.23,6.37-3.4,5.81-.19,7.78,2,1.28,2.35,1.56,2.07,3.29s-.38,1.21,1.27,1.34a7.09,7.09,0,0,1,2,.41c.45.21.79.49,1.36.31,1-.32,1-.09,1,.62a3.76,3.76,0,0,0,.62,1.17c.39.62.2.71-.48.29-2.12-1.35-5.65-.76-4.35.68a8,8,0,0,1,1.12,3.58c.08,1.77,1.24,2.39,3.63,2,4.63-.35,15-6.1,17.48-12.57-5.34,1.82-4.25-4.75-2.34-4.55a6.82,6.82,0,0,0-.53,1.82c-.06,2.35,1.89,2.53,3.25.87.59-.88,1.3-4.12,1-7.79a58.12,58.12,0,0,0-2.54-10.65c7.64,18.28.61,26.33-10.11,31.57-4.11,1.73-4.67,1.71-7.09,1.83-1.65.13-3.15,1-4.75,1.49-9.17,4.4-20.46,9.88-30.56,18A126.67,126.67,0,0,0,25.07,104l0,32.25c1.71-.27,4.51-2,6.15-2.92,1.89,12.05,8.07,26,18.3,34.34,0,0-.24.46-.25.45-1.46-1-2.92-1.94-4.32-2.69L44.86,167l3.44,2.37c.09.38-.59.88-.59.88l-2.84-2,0,1.56,2.2,1.41c.6.59-.71.9-.71.9L45,171.19a6.83,6.83,0,0,1,.06.9c-.35,1.16-2.23-1.39-2.56-2.66l-1.85-1.09c.26.75-.41.86-.93.67-1.38-.7-1.32-1.9-1.6-2.61l-2.46-1.56c-.43,2.35-2.93-1-2.54-1.76L30,160.92a2.35,2.35,0,0,1-1.67.05c-.54-.36-.73-1.78-.73-1.78L25.69,158v2.06l19.5,13.65-.28.53-20.33-14,.82,60.56L35.31,214c-.19-2.27.23-4.29,0-6.88,5.09,3.19,6.8,5.35,9,12a19.06,19.06,0,0,0,.54-10.83,9.75,9.75,0,0,0,3.23-3.72c-1.22-1.7-2.42-2.17-3.71-3.74-.1-1.92,1-7.61-.48-9.49,0,0-2.74,8.28-8.65,10.77-.18-8.75,0-30.72,0-30.72s6.07,4.2,9.16,5.9c1.45.78,2.46,1.27,2.49,1.83,0,.28-.58.64-.82,1a10.12,10.12,0,0,0-.57,4.45A4.53,4.53,0,0,0,47,187.48C49,189.58,52.57,188.62,54,187Zm11.73-15.46L89,138.83a110.48,110.48,0,0,0,13.56,33.06Zm11.54-34.4s1.62-3.24,2.37-5H76.77l1.71-1.93h4.25l-2.28,4.86h1.81l2.5-4.86h6.61l-2.31,4.86h1.53l2.48-4.86h6.16l-2.18,4.86H98.5l1.27-2.45.31,4.46H94l2.42-5h-2l-2.73,5H85.93l2.49-5H86.24l-2.73,5Zm18.88-17.42,2.47-5.23h-2l-2.73,5.13H87.8l2.4-5.08H88.67c-1,1.6-2.68,4.84-2.68,4.84H79.51s1.83-3.44,2.56-5.13h-1.6l-1.31,2.08c-.46-.78-.15-2.85-.24-3.72H85l-2.45,5h1.94l2.68-5h6.45l-2.62,5h1.53l2.6-4.75h6.56l-2.29,4.75h2l-.9,2.07Zm-6-9.12-1.24.24c-1.59-13.58-9.08-27.41-12.24-33.12l37.27.53Zm43.75-78.38a22.4,22.4,0,0,0-3.79,12.28l3.38-2.72C133.23,34,133.84,32.23,133.84,32.23Zm-3.75,12.85a20.47,20.47,0,0,0,3.34,12.23,59.18,59.18,0,0,1,.62-8.4ZM37.84,154.55l-12.05-8.32v1.82l14.33,9.76Zm-2.18-4.47c-3.23-1.63-9.89-6.65-9.89-6.65v1.67l10.59,7.46a.34.34,0,0,0,.58-.08C36.54,151.77,36,150.81,35.66,150.08Zm-2.95-7.23L25.78,138v1.5c1.78,1.59,7.62,5.38,7.62,5.38Zm-6.93-5.94,6.52,4.22-.41-1.88-4.62-3.15Zm117-58.53.34-30.08c-6.79,3.22-8.12,12.61-7.89,12.89-6.75-7-9.3-22,.17-32.16.71,3.26,1,8,7.66,12.26l.17-6.38,9.36-6V21.38H130.05c-3.5,4.43-7,9.6-10.44,14.31-1.29,1.77-1.62,2.59-1.38,3.52,2.27,8.19,1.82,18.27,6.59,23.05,6.39-6,12.39,3,7.42,8.65ZM45.49,208.47c.87,2.75.28,8.27.22,8.27,1-.57,3.84-8.57,3.14-11.57M81.45,58.24c-1.59-.46-2.79-1.15-4.47-1-1.33.14-1.77-.3-1-1,1.06-.89,2.08-1.27,4-.24,5.89,3.08,6.07-1.42,3.42-1.75-.76-.09-.73-.57,0-.44C87.61,54,86.35,59.43,81.45,58.24Zm-6.89-4.51c-.78-.29-1.72-.77-2.06-.66-.88.24-.91-.26-.8-.83.26-1.38,1.66-1.13,3.52,0,2.66,1.7,3.67-.73,1.26-2.06-.82-.44-.57-.56-.09-.59,1.27-.06,2.44,1.67,2.11,3.07C77.64,55,75.58,54.1,74.56,53.73Zm7.79-4.17c-1.73-.3-4.22-2.62-5.37-2.78-.65-.08-1.42,0-1.62-.26-.64-.81,1.16-.8,1.29-1.09,0-.68,0-1.1,0-1.33-.32-.44-1.58-2.16-1.53-3,0,0,.67.47,1,.47,3.08-1.62,5.17-.89,7.77.25a14.61,14.61,0,0,1,3.87,3c.06.58-1.17-.5-2.13-1.15-2.37-1.66-4.51-2.83-7.49-1.86-.46.17-.39.25,1.14.15s2.71.37,4.62,1.62c.48.31,1,.84,1.38,1,2.4,1.14,2.92,2.27,1.39,2-.32-.06-1-.41-1.58-.63-1.09-.39-.71-.26-1.76.22a7.62,7.62,0,0,1-2,.63c-.55.09-2.37.08-1.57.84A10.26,10.26,0,0,0,83,49.44C83.7,49.77,83.16,49.71,82.35,49.56Zm.2-3.72c1.13-.41.24-1.36-1.18-1.57-.32-.05-1,1.49-1,1.83S82,46.06,82.55,45.84ZM79.47,46a5.46,5.46,0,0,0,1.12-1.61c0-.81-1-.58-1.25.25C79,45.66,79,46.28,79.47,46Zm-3.59-6.47c-.92-.41-2.18-2.2-.75-1.89a24.31,24.31,0,0,0,3,.15,13.37,13.37,0,0,1,9.29,4c1.24,1.31,1.33,2.27.07,1.36C83,39.09,80.23,39.83,75.88,39.53ZM110.81,178.7l-1.26.67c0,.7.26.59.81,1.08a7.22,7.22,0,0,1-1.32.08c-.91-.07-1.13-.05-.72.6.19.3.45.75.45.75a3,3,0,0,1-1.25-.1c-1.13-.32-1.71-.15-1.29.47.13.17.36.5.36.5a15.92,15.92,0,0,1-2.34-.93l-1.07.32c2.12,4.19,9.7,1.56,7.63-3.44Zm37-6c1.18-1,.6-2.19-1.11-3.09-.71-.37-.65-.37-1.79.3-1.43.84-1.53.89-.51,2C145.61,173.21,146.94,173.45,147.81,172.73ZM143.46,170c1.08-.47.68-.4.61-1.53-.32-1.3.42-1.39.78-2.61.15-.66-.41-.42-1.5.59-.89.76-1.16.94-1.16.57s-.61-1.1-1.25-1.2-.5-.22,0-.91a4,4,0,0,0,.69-4c-.78-1.67-1-1.92-2.77-.46-.89.81-2.14,1.44-2.75,2.46-.44.74-.18,1.47.51,2.93,1.69,3.66,4.33,5.3,6.81,4.2Zm6,0c1.9-.75,1.12-2.81-1.84-4.89-1.8-1.24-2.31-1.23-.78.12,1,.88,1.12,1.17.72,1.8s-.72,1.13-.36,1.61C147.78,169.37,148.72,170.29,149.51,170ZM42.44,166.55l-2.08-1.31V167l2.07,1.24ZM146,168.17a2.34,2.34,0,0,0,.77-1.47c.1-.83-1.26-.64-1.92.29S145,168.89,146,168.17Zm4.63-2.82c1-1,.49-2.06-1.46-3.31-.75-.48-1.13-.81-1,.17,0,.29-.3.69-.5.92-.67.76-.38.9,1.54,2.12C150.19,165.86,150.15,165.9,150.67,165.35ZM42.44,163.44l-2.07-1.25v1.62l2.08,1.41Zm-4.53,1.63,0-1.64-2.69-1.8,0,1.83Zm105.61-.66c-.34.94,1,.52,1.12.41.24-.48,0-.51-.08-.57S143.37,164.32,143.52,164.41Zm.61-1.19c.48-.15.54-.09.47-1-.1-1.3.1-1.4,1-2,.7-.46.7-.38.69-1.19,0-1,0-1.37,1.32-1.57.52-.07.82-.21.85-.61.07-.7-1-1.85-2.41-2.52a36.55,36.55,0,0,0-4.12,3.59l-.53.57.62,1.18c1,1.83.82,2.51.25,4.94-.11.65.39.56.51-.23S143,163.43,144.13,163.22Zm4.67-6.49c-.24,1.49.52,2.39,1.24,1.65a9.17,9.17,0,0,0,.45-4.17C149,152.62,148.86,156.38,148.8,156.73ZM125,181.2c5.5-3.23,12.58-.59,16.56-3.25,1.86-2,3.72-3.36,2.66-4.78-.82-1.1-1.35-1.27-1.35-1.27a9.13,9.13,0,0,1-7.2,2C128.49,173.67,125.09,175.92,125,181.2Zm9.39-7.7c3.51.13,6.35-.49,7.67-1.5.8-.63.93-.74-.34-.85-2.71-.22-5.47-3.39-6.33-6.46-.18-.64-.38-1.32-.38-1.32-7.25,5.81-23.2,14.95-23.2,14.95,1.07,4.94-2.51,7.89-7.35,6.13-.85-.08-.73,1-.58,1.45a4.06,4.06,0,0,0,1,1.45c.72.62.85,1,.74,1.61s-.09.57.32.79c.72.39.69.95.3,2.09-.43,1.61-.46,2,.69,2.79,1.49,1,4.4,2,4,3.45a69.89,69.89,0,0,1-4,9.13,3.12,3.12,0,0,0,0,2.9c.52,1,.45,2.2,1.11,3.11,3.67,5.46,6.82,10.18,10.15,15.11h34.5V147.94s-5.81,5.32-5.8,5.69,1.26,1.15,1.8,1.23a11.72,11.72,0,0,1,.07-1.53c0-.48,1.6-.36,2.11.06.35.29.25,2.23-.11,3.8-.3,1.29-.26,1.3.29,2.05a3.62,3.62,0,0,1,.82,2.7,3,3,0,0,0,.11,1.37,3.05,3.05,0,0,1-.15,2.68c-.59.83-.61,1-.47,1.41.48,1.53.31,2.84-1.41,3.52a1.49,1.49,0,0,0-.59.78c-.74,2.46-2.14,2.46-4.05,1.76-1.36,5.3-6.86,6.63-10.84,6.46s-8.33.16-10.22,2.87c.44-6.42,3.32-9.53,10.19-9.29Zm12.49-10.66a.81.81,0,0,0,.19-1.47c-.91-.72-1.94,0-1.52,1.06C145.77,163,146.17,163.09,146.85,162.84ZM38,160.5l-2.75-1.92,0,1.72,2.75,1.77Zm5.19,1.41-1.94-2.35c-5.75-3.51-10.73-7.46-15.51-10.63l0,2.17,1.37.69s.11-.48.2-.76c.18-.52,1.76.94,2.26,2.1l.39,1,1.85,1s0-.53,0-.67c0-1.11,2,.42,2.88,2.23a10.27,10.27,0,0,0,.5.9L37,158.63c.68-.94,2.42.33,2.87,1.48.57,1.45,1.57,1.57,1.6,1.58Zm-10.36-.31v-1.67L30,158l0,1.69Zm118.16.13c.08-.43-.36-2.14-1-2.23-.4-.07-1,.55-1,1S150.94,162.21,151,161.73Zm-2.33-2c.62-.69-.16-1.58-1.12-1.28-1.15.37-.75,1.41.53,1.43C148.38,159.87,148.55,159.87,148.69,159.72Zm-116-1.23V156.9l-2.65-1.77L30,156.68Zm-5.22-.55,0-1.54-1.74-1.21V157Zm.06-4.58-1.78-1.16v1.66l1.87,1.06Zm7.24-5c-.19-.49-.93-2-.93-2l-8.07-5.65v1.73l9,6.09ZM31,134.9l-.09-.71-.71.38Zm-1.72.17-1.12.62,3.41,2.21-.27-1.58Zm118.4-18.73.88-.65L147,114.63l-.11,1.07Zm1.58-1,1.16-1-3.85-2.73.27,1.7Zm2.74-1.42v-1.16l-6.27-4.25.43,2.14c1.11.64,2.46,1.58,3.88,2.58C150.93,113.8,150.94,114.05,152,113.89Zm0-2.17v-1.86L144.75,105l.59,2.17Zm0-2.78V107l-8.77-5.81,1,2.58Zm0-4.88-11.07-7.43,1.42,2.84,9.65,6.46Zm0-2.83L138.13,92l1.56,2.59L152,102.92Zm0-3h-.52c0,1.33-1.47.36-2-1.1-.41-1-.5-1.22-.5-1.22L146.17,94c.06.39.22,1.49.22,1.49l-1.89-1.16s-.54-1.83-.56-1.85l-3.21-2.18c.08.37.12,1-.08,1a3.87,3.87,0,0,1-1.43-1.08,3.31,3.31,0,0,1-.53-1.37l-2.63-1.7-.65.08s-.35-.24-.69-.52c-.62-1.12-1.35-1.29-2.23-1.75,0,0,1.86,2.17,2.84,3.44a11.89,11.89,0,0,0,2,2L152,100.29Zm0-3-1.14-.68L151,96.3l1,.72ZM37.68,91.25c.07-.11-.21-.25-.53-.94a5.06,5.06,0,0,1-.44-4.19c.21-.86-.59-1.24-1-.31-.29.73-.72,1.12-1.15,1.08s-.48.12-.31.66a1.85,1.85,0,0,1-.88,2c-.65.17-.76.57-.58,1.16.3,1-.75,1.8-1.58,1.77-1.28-.07-.78,1.09.76,2.22.56.4.83.64,1.27.42C34.46,94,36.63,92.45,37.68,91.25Zm111.19,3.59-.07-1.71L145.57,91l.41,2.29Zm3.13-.71V92.41l-1.32-.86.06,1.83ZM30.69,91.46c.31.31.62.34,1.11.05s.35-.74-.24-1S30.23,91.05,30.69,91.46Zm-1-.77a.93.93,0,0,1,.7-.86c.66,0,.54-.4-.22-.85-.35-.22-1-.72-1.21-.89-1.14-.83-2.22.45-1.38,1.52C28.32,90.52,29.35,91.05,29.73,90.69Zm118.82,1.08-.26-1.91-2.9-1.93.23,2.09ZM42.72,87.14a1.34,1.34,0,0,0,.19-.84,7.56,7.56,0,0,0-1.53-3.78,8,8,0,0,0-2.21-2.08c-2.23-1.14-5.2-.65-4.78.83.31,1,.24,1.84-.61,2.33-.59.34-.65.8,0,.8a3,3,0,0,0,2.12-1.19c.7-1.09,1.09-1.74.94.05-.06.76,0,.7,1.19.64,1.57-.08,1.28.21.36.93a3.51,3.51,0,0,0-.93,4.29c.41.91.7,1.41,1.26,1.29A34.31,34.31,0,0,0,42.72,87.14Zm100.69,2.22-2.86-1.89.11,2,3.09,1.83Zm-110-1.86A.93.93,0,1,0,32,88.6C32.54,89.12,34,88.6,33.45,87.5ZM31,87.68c-.13-.41.63-1.08.75-1.34.34-.77-2.76-2.91-3.72-1.64-.67.87-.21,1.74,1.58,3C30.65,88.36,31.17,88.37,31,87.68ZM143.12,86.4l-2.65-1.66.05,1.75,2.82,1.7ZM138.45,88V86.19l-2.67-1.88,0,1.84ZM34.72,85.85c.48-.48.33-.63-.61-.59-.59,0-.77-.07-.82.19C33.21,86.07,34.23,86.34,34.72,85.85Zm-2.22-.66c0-.13-.29-.38-.82-.83-1.05-.87-1.17-1.41-.16-2.1,1.42-1-.06-2.36-1.73-1.79a1.55,1.55,0,0,0-.56,2.67C30.34,83.86,32.31,86,32.5,85.19Zm106-1.79-2.63-1.81v1.76l2.63,1.54ZM33,83.52c1.17-.6,1.23-2.1.05-1.55-.48.23-1.11.85-1.11,1.12C31.94,83.62,32.4,83.82,33,83.52Zm.85-3.45c1.52-.81,1.29-1.57-.23-2.52-1.85-1.06-3.14,1-1.62,2.36C32.81,80.62,33,80.53,33.86,80.07Zm2-1.47c2.47-2.65,4.09-2.52,7.34-2.45,8.39.08,11-3.94,10.69-6.76-4.07,2-7.72.94-11.6,1.52-6.69,1.5-7.48,4.66-7.95,6.47Zm33.61-9c2.16,0,2.07.09,1.18-1.7,2.1.29,3,1.31,2.26-.8,1.11.39,1.78.7,2.94,1.08l.73-.43c-4.45-4.34-9.4-.66-8.09,3.72l1.65-.8Z"/><path id="path3502-5-8-1" class="cls-2" d="M80.31,228.38l1-5,9.24.45s1.07,3.17,1.5,4.58ZM59,228.25l4.91-8.12,7,1.9-1.6,6.35Zm13.55.13,2.1-8.67c-4-.87-7.74-1.45-12.13-2.64l-7.13,11.3-4.29-.12c3.7-4.94,10.46-14.91,10.46-14.91a91.53,91.53,0,0,0,46.83,3.41s5.79,7.67,7.88,11.83l-4.09-.2-5.07-8.52c-3.54.38-7,.85-10.7,1l2.53,7.52H94.85l-2.3-7.49c-4.42-.16-8.14.17-13.43-.65l-1.87,8.14Zm29.22,0-1.41-5.33,5-.59s2.3,4.07,3.57,5.92ZM57,178.86c6.19-9.45,28.08-39.76,28.08-39.76l3.21.13s-19.59,27.37-29,41.16Zm-31.64-14.7L33,169.67l.06,42.94-7.77,5.48ZM57.08,93.91,61.7,103c-19.64,18.67-15.79,40.57-5.27,56.18a30.92,30.92,0,0,1-4.33,7.21c-14.23-9.42-18.56-33.9-18.45-34.16C49.34,118.19,51.47,113.73,57.08,93.91Zm80.26,66.89c1-13.81,7.76-22.86,15.3-28.37l.38,14C148.09,151.24,142.86,156.16,137.34,160.8Zm-20.51-13.93c17.2-16.11,17.78-39,5.25-55.78l5.13-7.18c7.27,7.79,14.39,16,17.43,35-10.9,8.62-20.52,22.84-23.09,37.2Zm-23.7-18.74,0-6.59,6.44,0-.18,6.58Zm-13.61,0-.08-6.56,6.35,0-.1,6.66Zm11-17.57s21.31-29.93,29.69-40.74L122,71.08,93.67,110.66ZM40.75,89.58c0,11.81-7.56,21.17-15.28,27.27l.11-13.44Zm112-57,0,52.41-7.21-4.34.62-44ZM118.42,35.7c-16.27-4.25-31.09-5.51-46.66-2.17C69.73,31.11,62.9,21,62.9,21l3.94.06L72.42,30,83,28.6l-2.73-7.27,4.38,0,2.18,7.13c0-.06,8.64.09,13.45.66.77-2.66,2.19-7.91,2.19-7.91h4.83c-.62,2.54-2.29,8.56-2.29,8.56a111.3,111.3,0,0,1,11.34,2.5c2.57-3.64,5-7.29,7.28-10.93l4.71,0C127,23.66,118.68,35.81,118.42,35.7Zm-3-6.29-7.18-1.68,1.87-6.35h10Zm-41.26-2.3-3.34-5.9h6.43l2.13,5.19Zm14.59-1.2-1-4.69H99.45l-1.18,5Z"/><path id="path3500-9-6-1" d="M62.06,20.82l10.38,15a83.66,83.66,0,0,1,11.49-1.43,82,82,0,0,1,12.42.24s1.77,5.38,2.37,8a21.55,21.55,0,0,1-.12,10.27c-1.22,3.94-1.88,5.13-4.61,7.84a24.86,24.86,0,0,1-7.88,5.27c-4.12,1.73-4.53,1.71-7,1.83a4.67,4.67,0,0,0-2.64.59c-.26.09-.45.39-.68.46a1.37,1.37,0,0,1-.59,0,164.74,164.74,0,0,0-31.7,18.26c-.09.06-.16.37-.24.44-.65.54-1.23.94-1.87,1.42-.09.06-.28,0-.37,0-9.3,7.19-14.55,13-16.49,14.68l.19,33.43S29,135,31.15,133.66a54,54,0,0,0,18.13,34.26l-4.4,6.1L24.57,160l.28,61.69,10.8-7.52v-6.5c3.21,2.17,6.35,3,8.64,12.92,1.82-3.47,1.67-8.65.84-12.12a16.18,16.18,0,0,0,3.57-4l-4-3.56s1-8.65-.85-10.39c-1.5,3.92-2.68,8.09-8.29,11.11l-.07-30.06c2.78,1.77,5.43,3.77,8.19,5.59l.39-.07,2.86,2a10.65,10.65,0,0,1-.58,1c-3.47,5.27,2.31,11.74,7,7.85,1.85-1.52,5.3,4.82,5.94,10.92.66,3.93,1,8.82,2.09,12.23a1.69,1.69,0,0,1-.51,2.17L50,228.56h5.21l.38-.61H51.77c3.31-4.42,6.47-9.57,9.91-13.89,12.79,4.83,33.76,5.94,46.42,3,2.61,3.68,5.15,7.53,7.68,11.28h-3.65l.51.79h4.92l-10.37-15.32C100,216,82.61,215.13,82.92,215c0,0,0-.13-.66-1.86-3-9.69-3.27-18.3,4.24-25.25,4-3.55,8.44-5.91,13.42-5.46,2.23,0,2.27-.16,3.2-.58a11.32,11.32,0,0,1,1.58-.47l5-2.81.67-.13,1.45-.77.3-.35,2.33-1.19h.27l3.17-1.82,0-.26,1.24-.77.29.31A154.28,154.28,0,0,0,137,161.21l.31.11c5.87-4.76,13.86-12.28,16.24-15.14l-.13-14.32-.2-.17-.08-15.85h-.46l0-2c-2.6,1-5.46,3.39-5.65,3.28a55.79,55.79,0,0,0-17.88-34.85l4.28-5.93,19.9,13.43.06-3.92h.24c.25-15,.38-54,.38-54l-.2,0V28.74l-10.18,6.52-.15,6.57c-4.51-1.48-7.36-6.91-8.3-11.75-1.32.54-1.93,5.63-1.45,12.08A10.57,10.57,0,0,0,130.54,45a26.81,26.81,0,0,0,3.68,3.7c-.28.6-.87,9.23-.29,10.29.27.79,1.21.67,1.22-.15,1.36-6.72,7.73-11.12,8.08-10.72l-.15,31-11.29-7.94c2.37-2.68,2.86-7.21-.12-9.42a4.44,4.44,0,0,0-6.62,1.07c-3.67-2.39-4.9-11.28-5.44-14.75a42.25,42.25,0,0,0-1.06-6,21.08,21.08,0,0,1-.73-3.71,1.82,1.82,0,0,1,.53-1.46l11-15.63-5.6,0,0,.09h4.41l-9.89,14.11a96,96,0,0,0-46.86-2.85L63.2,21.05h3.7l-.15-.25-4.69,0Zm8.61.14.15.28,6.42,0-.1-.24Zm9.51,0,.13.34h4.38L84.55,21l-4.37,0Zm22.34.11,0,.16h4.83l0-.15Zm-14.78,0,.05.2H99.42l0-.19-11.73,0Zm22.42.1,0,.17h10l.07-.16Zm42.38,8.61,0,2.12-6.75,4.3c-.16,9.07-.43,43.95-.43,43.95l-1.61-1.06.31-43.68s6-3.85,8.45-5.63Zm-17.71,1.7h.23l.08.5h-.39l.08-.5Zm.47,1.27.18.67h-1l.18-.64.63,0Zm17,.35v1.38l-5.82,3.65V36.79Zm-18,1.15,1.52,0,.26.76h-1.91ZM97,34.7l1,.15a47,47,0,0,1,3.33,15.37c.94,6.47,2.81,13,4.12,15.71H104A78.21,78.21,0,0,1,100,51a28.5,28.5,0,0,1-.17-3.13A46.59,46.59,0,0,0,97,34.7Zm1.91.23,1.3.13c.9,4,2.24,7.71,2.77,11.69.86,6.36,1.31,12.86,4.38,19.15h-1.22a53.44,53.44,0,0,1-3.75-13.45,72.55,72.55,0,0,1-.9-7.3,61.36,61.36,0,0,0-2.58-10.21Zm2,.18,1.29.2c.86,3.93,2.33,8.26,2.71,11.82.79,7.25,1.92,14,4.21,18.79l-.91,0c-3.52-6.84-3.58-12.92-4.56-19.34-.58-3.77-1.81-7.56-2.74-11.45Zm2.08.31,1.14.18c.79,3.92,2.23,8.35,2.56,12.31a51,51,0,0,0,4.45,18L110,66c-3.15-5.53-3.57-12.33-4.55-19.19C104.92,43,103.71,39.17,103,35.42Zm49.38,0v1.72l-5.82,3.74V39.2Zm-47.5.32,1.2.2c.78,3.78,2.21,7.81,2.56,11.48a59.06,59.06,0,0,0,4.31,18.49l-1.11.07a49.82,49.82,0,0,1-4.44-18.07C107.05,44.11,105.59,39.47,104.83,35.75Zm31.69,0,.41,1-2.8.13,0-1.14,2.35,0Zm-29.72.37,1.43.27c1.51,6,1.91,11.73,2.94,17.46,1.29,7.11,2.64,10.69,3.76,12l-1.19,0c-2.88-6.16-3.91-12.28-4.57-18.63-.41-3.74-1.62-7.43-2.37-11.15Zm2.17.4,1.1.22a103.81,103.81,0,0,1,2.45,14c1,8.47,3.84,14.91,4.44,15.21l-1.2-.06c-2.6-3.6-3.57-9.74-4.84-18.41-.57-3.81-1.12-7.4-2-11Zm1.76.35,1.22.3s1.1,4.34,1.93,10.09c.7,4.78,1.06,14.21,6.24,19.64,2.59,2.71,7.16,5.06,10.28,2.5a4.22,4.22,0,0,0,1.38-4.91c-1.34-3.27-5.91-2.71-4.38.72.16.82-.9.86-1.66,0a2.12,2.12,0,0,1,0-2.74c1.17-1.89,4.31-2.09,6.15-.4,2.94,2.9,1.66,7.86-2.06,9.43-4.29,1.83-9.82-1.94-12-5.55-3.62-6.27-4.19-12.23-5-18.57-.41-3.42-1.24-7-2-10.56Zm1.83.5,1.24.31s1.35,6.1,1.81,9.71c.56,4.46,1.16,9.71,3.06,13.77a15.22,15.22,0,0,0,4.66,5.88c1.49,1.06,2.84,1.74,4.83,1.3,2.31-.5,2.4-4.07.21-4.08-1.12,0-.39-1.09.55-1.12,3.3-.1,3.41,5.13.29,6.29-3.57,1.34-7.42-1.19-9.81-4.35-4.17-6.5-4-12.43-4.92-17.68C114.2,44.66,112.66,37.53,112.56,37.39Zm25,.2.75,1-4.2,0,0-1,3.43,0Zm-23.19.33,1.18.41a89.27,89.27,0,0,1,1.9,10.31c.85,5.39,1.13,9.87,3.92,13.77,1.16,1.61,3.34,3.78,4.71,4,.85.19,1.73,0,2-.65.36-1.07,1.26-.58,1.27.39A1.75,1.75,0,0,1,128,67.8c-4.09.7-7.83-4.44-9-7-1.54-3.8-2.19-8-2.87-13.32C115.91,45.2,114.57,38.06,114.4,37.92Zm37.93.19,0,1.7-5.81,3.67V41.82Zm-36.15.33,1.33.36a80.39,80.39,0,0,1,1.76,9.3c.67,5.2,2.11,11.26,4.79,14.39a5.15,5.15,0,0,1,.52.68c.2.42,0,1.14-.23,1.14-4.79-2.5-5.92-12.54-6.33-15.93A79,79,0,0,0,116.18,38.44Zm18.62.8,4.23.12,1,1-5.59,0C133.84,39.7,134.21,39.77,134.8,39.24Zm17.53,1.39V42l-5.82,3.7V44.28Zm-17.39.46,6.19.11,2.17,1.3-9.44-.07,1.08-1.34Zm17.4,1.79v1.7l-5.82,3.66V46.65Zm-19.68.31,10.51.11,0,1.15-11.38-.3Zm-1.37,2,11.88,0,0,1.27-10.8-.11-1.11-1.18Zm21.05.19V47.1l-5.82,3.62V49Zm-18.82,1.87,9.1,0-1,1.07-6.87-.08-1.24-1Zm18.82.62V49.5l-5.82,3.66V51.52Zm-12,1.27-1.1,1.08-4.72-.06.16-1Zm12,1.17v1.8l-5.82,3.57V54.09Zm-17.86.66,3.89.08-.59.82h-3.41l.11-.91Zm-35,1.43c.59,4.51,3.85,13.59,3.83,13.59H102a62.46,62.46,0,0,1-3.19-11.19c-.1-.54.26-2.31.64-2.41Zm34.74.25,3,0-.65,1.16h-2.44l.1-1.21Zm18.11.28v1.56L146.52,58V56.61Zm-18.2,1.58,2,.06-.47,1.08-1.54,0Zm18.2.85V57l-5.83,3.62V59Zm-54.08.36A76,76,0,0,0,101.52,66h-1.1c0,.15-2.57-5.91-2.85-8.5-.13-.56.15-1.62.69-1.82Zm35.85.69,1.18.05-.21.62-1,0v-.7Zm.12,1.47.61,0-.14.59h-.38l-.09-.61Zm18.11,0v1.35l-5.83,3.69V61.63ZM96.8,58c.88,2.64,1.77,5.32,2.81,7.88l-1.3,0a52.46,52.46,0,0,1-2.14-6A1.86,1.86,0,0,1,96.8,58Zm-1.29,1.76,2.17,6.08H96.44c-.5-1.23-1.08-2.59-1.47-3.85S94.59,60.66,95.51,59.78Zm56.82.38v1.61l-5.82,3.62V64Zm-58.28,1.3c.28,0,.3.32.55,1l1.18,3.37-1.53,0a10.9,10.9,0,0,1-.83-3c0-.49-.13-1,.23-1.2a1.06,1.06,0,0,1,.4-.15Zm-1.61,1.26c.26,0,.35.46.54,1.16l.64,2-1.42,0a4.31,4.31,0,0,1-.45-2.57c.31-.37.53-.52.69-.52Zm59.89,0V64.4l-5.82,3.51V66.36ZM91,63.93l.59,1.94-1.28,0a3.79,3.79,0,0,1-.08-1.51Zm-1.67,1h0c.18.85,0,.91,0,.91H87.56a8.08,8.08,0,0,1,1.73-.91Zm63,.49v1.35l-5.82,3.63V69Zm-69.2,2.13,35,.1,1.16,1.65s-3.39.08-14.55,0c-9.38.11-28.23-.2-28.23-.2l1.84-.87A21.34,21.34,0,0,0,83.13,67.55Zm69.2.19v1.47l-5.82,3.54V71.33ZM53.92,69.16a15.33,15.33,0,0,1-7.4,1.39c-4.22-.35-10.68,1.43-12,5.5-.41,1.44-.41,1.49.36,2.22.38.36.75.64.83.61a9.31,9.31,0,0,1,2.54-2.06,14.2,14.2,0,0,1,4.05-.54c4.49-.2,5.49-.38,6.6-.68,2.46-.65,4.93-3.08,5.08-5.78A2.62,2.62,0,0,0,53.92,69.16Zm-.13.37c-.48,5.63-6.54,6.37-9.21,6.2C39.17,75.4,37,77,36.17,78c-.28.27-.45.2-.4,0,.64-3.12,5.65-3.23,8.18-3.2,6.2.29,7.76-2.71,7.59-2.74l-1.3.63c-.2.09-.17,0-.69-.34,0,0-.62,1.43-1.4.11,0,.06-.57,1.17-1.64.15,0,.1-.65,1.06-1.71.08-1,.86-1.47.38-1.9-.21-.31.18-1.23,1.43-2,.09-.82.52-1.16,1.09-1.85.75a5.55,5.55,0,0,0-3.65,3.54c-.19.52-.54.61-.58,0-.2-1.61,2.44-4.41,5.12-5.18,2.07-.61,3.47-1,8-.87A17.14,17.14,0,0,0,53.79,69.53Zm66.36.42,1.64,1.11L93.26,110.52l-2.51-.06L120.15,70ZM74.39,70h3.24v5.38h-2.8l-1-1.49a1.64,1.64,0,0,0,.88.24A1.74,1.74,0,1,0,73,72.37c0,.09,0,.17,0,.24l-1-1.55s.45-.26,1.5-.73C73.72,70.2,74.39,70,74.39,70Zm10,0h5.49v5.38h-5.5Zm12,0h5.69V75.4l-5.69,0V70Zm12.28,0h5.68v5.38H108.7Zm43.55.13.09,1.67-5.83,3.56V73.68Zm-40.92.56a1.85,1.85,0,0,0,0,3.7,1.85,1.85,0,0,0,0-3.7Zm-24.19.09A1.85,1.85,0,1,0,89,72.61,1.84,1.84,0,0,0,87.14,70.76Zm12,0A1.85,1.85,0,1,0,101,72.65,1.84,1.84,0,0,0,99.13,70.8Zm6.19.22a1.55,1.55,0,1,1-1.54,1.56A1.55,1.55,0,0,1,105.32,71ZM80.94,71a1.55,1.55,0,1,1-1.54,1.55A1.54,1.54,0,0,1,80.94,71Zm36.55.06a1.45,1.45,0,0,1,1,.36l-1.68,2.29a1.43,1.43,0,0,1,.73-2.65Zm-24.15,0a1.55,1.55,0,1,1-1.53,1.55A1.52,1.52,0,0,1,93.34,71.11Zm-18.64.1a1.16,1.16,0,0,1,0,2.31,1.16,1.16,0,0,1,0-2.31Zm-3.51.06a83.39,83.39,0,0,1,17.29,39.05l-1.65-.07A85.31,85.31,0,0,0,69.66,71.9l1.53-.63Zm40.16,0a1.22,1.22,0,0,1,1.21,1.22,1.22,1.22,0,1,1-2.44,0A1.22,1.22,0,0,1,111.35,71.29Zm-24.21.09a1.23,1.23,0,1,1,0,2.45,1.23,1.23,0,0,1,0-2.45Zm12,0a1.22,1.22,0,0,1,1.21,1.22,1.22,1.22,0,1,1-1.21-1.22Zm30.49.88c.65,5-.63,8.15-4.4,8.67-4.8.67-5.42,1-5.45,5.58,0,5.4-.83,7-4.64,7.4-4.29.49-5.3,1-4.91,6.35.28,3.9-1.25,5.58-4.56,6.3-2.58.58-4.82,1.45-5.78,4.05l-2.36,0c.61-4.12,4.74-6.09,7.38-6.23,2.86-.68,3.45-1.63,3-6.65-.35-3.78,1-4.91,5.45-5.78,3.53-.71,4.4-1.73,4.21-4.62-.42-6.23,0-7.15,3.51-7.9,1.8-.43,4.71-.63,5.83-2,1.28-1.57.94-2.89.83-4.82l1.9-.39Zm22.71.16v1.63l-5.82,3.6V76.11Zm-85.54,1c-1.25,5.39,3,6.56,5.64,7.47,3,1.06,3.76,2.6,3.42,7.95-.25,4.05.19,5,2.8,6.33,4,2.06,5.08,5,3.3,9.32-1.1,2.65-.52,3.4.16,5.71H80.17a6.49,6.49,0,0,1-.38-6.06c1.65-3.75,1.6-5.62-2.09-7.3-2.86-1.3-3.73-2.53-3.9-5.22A20.09,20.09,0,0,1,74,87.48c.33-3.1-.76-4.44-5.33-6.13-2-.76-3.41-2.53-3.83-5.32a7,7,0,0,1,0-1.69l2-.91ZM135,74l17.35,11.59-.13,2.58L133.84,75.84Zm-11.19.26a1.53,1.53,0,1,1-1.52,1.52A1.54,1.54,0,0,1,123.84,74.26Zm-54.59.67a1.39,1.39,0,0,1,0,2.77,1.4,1.4,0,0,1-1.38-1.39A1.39,1.39,0,0,1,69.25,74.93Zm83,.16-.05,1.55-5.71,3.54V78.63l5.77-3.54Zm-76.85,1H115l-1,1.37-37.77-.39Zm-13.7.07C67,83,72.14,90.11,76.12,103.43l-1.7.65a79.68,79.68,0,0,0-14.3-27l1.61-.91Zm90.6,1.22v1.7L148,81.77l-1.29-.84Zm-92.92.18.78,1s-.84.66-1.78,1.34C55.82,81.8,55.48,82,55.3,83.22c-.4,2.87,2.54,4.28,5.5,2.63,1.05-.49,3.37-2,3.37-2l.67,1s-3.33,2.5-5.28,3.06c-4.28,1.24-7.48-4.21-4.32-7.44a17.27,17.27,0,0,1,2.33-1.69C58.39,78.28,59.41,77.58,59.41,77.58Zm17.64.67,36.43.22-23.27,31.9-1-.06C87.38,98.37,82.91,88,77.05,78.25ZM61.17,79.62l2.13,3a19.37,19.37,0,0,1-3.67,2.59c-1.85,1-3.82-.82-2.67-2.47S61.17,79.62,61.17,79.62Zm91.16.29v1.54L149.82,83l-1.16-.73ZM60.9,81.11a5.24,5.24,0,0,0-3.25,2.2.89.89,0,0,0,.07,1.08c.35.45.75.42,2-.23,2.48-1.32,2.94-2.11,1.85-2.89a.9.9,0,0,0-.54-.15Zm-.08.64c.15,0,.34,0,.49,0,.43.17.29.71-.14.83-.09-.15-.85-.17-.79.59-.19.43-.17.4-.71.46A.56.56,0,0,0,59,84c-.37.2-.83.13-.92-.09s.22-.85.48-.84.36-.19.57-.34c0-.42.48-.48.62-.48a.79.79,0,0,0,.82-.35A.32.32,0,0,1,60.82,81.75Zm91.52.37v2.4l-1.83-1.17Zm-101.07.3A67.43,67.43,0,0,1,65.71,110.2l-1.33.93c-2-8.13-5.1-16.69-14.26-27.84Zm77.61.13a54.51,54.51,0,0,1,17.66,34.8l-1.64,1a55.75,55.75,0,0,0-17.07-34.42Zm-5.94.71a1.53,1.53,0,1,1-1.52,1.52A1.54,1.54,0,0,1,122.94,83.26Zm-73.52.6s1.4,1.44,1.39,1.78c0,.68-.54,1.06-3.74,2.23-.54.2-2.91.74-2.91.74l-.08-1.14c1.2-.44,4.45-1.21,4.68-1.91.11-.28-.45-1-.33-1Zm22.11.29a1.39,1.39,0,1,1-1.38,1.38A1.38,1.38,0,0,1,71.53,84.15Zm55.83.41a55.87,55.87,0,0,1,16.83,34.5c-11.67,9.52-19.61,21.5-22.77,36.48-1.56-2.61-2.88-5.61-4.33-8.53,15.58-13.74,18.86-38.46,5.39-55.8l4.88-6.65ZM66,86.42l.7,1.09s-.15.14-2.32,1.49c-3.19,2-3.72,3.29-2.66,5.32s2.31,2.2,5.74.53c1.21-.58,2.24-1.21,2.24-1.21l.55,1.15a16.49,16.49,0,0,1-4.49,2.34c-2.78,1-5.41-.71-5.9-3.95-.35-2.34.66-3.6,4.71-5.92C65.05,87,66,86.42,66,86.42Zm47.77.52a1.53,1.53,0,0,1,0,3,1.54,1.54,0,0,1-1.52-1.53A1.52,1.52,0,0,1,113.81,86.94Zm-62,.06.92.88a9.78,9.78,0,0,1-2.65,1.94c-2,1.23-2.24,1-1.23,1.89,1.89,1.6,4.51,5.13,4.49,6.06s-.8,1.69-2.32,2.37c-.82.36-4.09,1.54-4.57,1.63-1,.1-1.22.48-.27,1.36,1.62,1.86,3,5.86,2.45,7.07-.62,1.37-1.38,1.6-7.38,1.87-.68,0-1-.16-.64.71A21.05,21.05,0,0,1,41.73,117c.48,2.42.39,3.5-.53,4-.55.29-4.73.18-6.45-.17-2-.38-2.19-.41-1.87.88.42,1.78.67,6.54-.68,7.48-.56.37-1.16.27-3.61-.55-1.57-.53-2.92-1.13-2.92-1.13l0-1.48c1.28.53,4.77,2,5.76,1.56,1.18-1.69-.46-7.63-1.09-8.9-.76-1.52,0-1.86,1.78-.9.91.64,8.77,3.75,8.33,1-.48-2.63-1.34-5.64-3-7.54-1.53-1.74-.77-2.46.94-1.69,3,1.35,9.26,1,9-.38-.42-2.28-2.48-5.39-5.31-7.79-.78-.67-.81-.95.12-1.11,2.64-.22,10.2-1,9.15-2.78a18.08,18.08,0,0,0-3.16-3.93A14,14,0,0,0,44,91.21l.06-1.1c3.47-.28,5.27-1.33,7.79-3.11ZM43.5,88.08c-1.23,13-6.65,23.7-17.83,31.17l-.07-1.45c9.84-7.4,14.55-17.94,15.84-28.13l2.06-1.59Zm9.5.62.92.82a8.51,8.51,0,0,1-1.56,1.42c-1,.8-.67.47,0,1.42.62.75,1.73,2.26,1.73,2.26l-.34,2A33.6,33.6,0,0,0,49.93,92c-.88-.9-.83-.93.42-1.59.95-.5,1.71-1.13,2.65-1.68Zm14.33.19h0a33.19,33.19,0,0,1,1.8,3.54c-1.07,1-3.87,2.44-5,2.1-1.77-.56-2.05-2.45-.35-3.57a19.8,19.8,0,0,1,3.55-2.07ZM78.11,90a1.39,1.39,0,0,1,1.38,1.39,1.38,1.38,0,0,1-2.76,0A1.39,1.39,0,0,1,78.11,90ZM67,90.09a11.66,11.66,0,0,0-3.33,2c-.27.19-.05,1.13.19,1.46s.92.35,1.64,0c.29-.17.85-.45,1.2-.61,1-.48,1.43-.82,1.4-1.2S67.48,90.07,67,90.09Zm-26.45.51c.28,1.46-.59,4-1.1,5.46-2.93,3.87-7.2,5.84-11.25,7.18a5.67,5.67,0,0,1-2.12.14A102,102,0,0,1,40.51,90.6ZM67,90.7a.64.64,0,0,1,.52.78c-.63.33-1,0-.9.53,0,0,.06.75-.87.77a.8.8,0,0,0-.8.12c-.65.27-1.22-.3-.5-.62.18-.09.66-.23.79-.52s.35-.65.69-.45c.17,0,.56,0,.68-.23,0-.31.17-.34.33-.35s0,0,.06,0Zm-38,.64c-.16,0-.28,0-.31,0-.28.27-.71,4.29-.43,4.57s1.48.52,1.59,0a39.18,39.18,0,0,0,.42-4.09c0-.23-.8-.51-1.27-.56Zm.44.44c.14,0,.26.21.34.56a12.44,12.44,0,0,1-.34,2.81c-.16.6-.62.46-.79-.08A5.52,5.52,0,0,1,29,92.21C29.13,91.88,29.3,91.74,29.44,91.78Zm26,0,1,1.2c-2,19.38-15.84,36.15-30.59,42.81l0-1.29c16.85-8.89,27-23.67,29.65-42.72Zm66.7.09,1.82,2.51-2.63.08Zm-78.4.82c.91,0,5.71,3,5.07,4.44-.52,1.17-4.53,1.27-6.38,1.1l.27-1.12a8.11,8.11,0,0,0,2.7,0c2.25-.16,2.09-.94-.5-2.56-1.1-.7-1.36-.88-1.36-.88l.2-1ZM57,94.29a72,72,0,0,1,4.23,8.52C43.11,120,44.52,143.4,56,158.75L51,165.43A56.79,56.79,0,0,1,34,132c14.38-10.38,21.15-25.89,23-37.75Zm67.42.76,1.08,2.08-2.61,0Zm-11.24,1a1.53,1.53,0,0,1,0,3,1.53,1.53,0,0,1,0-3ZM71,96.49l.51,1.18c0,.16-3.68,1.33-4.86,2.82a3.25,3.25,0,0,0-.37,3.84c1,1.43,1.79,1.62,3.57,1.07a22.73,22.73,0,0,0,4-1.79l.23.59s-2.06,1.21-3.64,2.12a4,4,0,0,1-1.92.47,4.27,4.27,0,0,1-2.53-7.48,21.75,21.75,0,0,1,3.13-1.84Zm47.48.73c11.84,17.14,3.74,35.91-3.91,42.55l-.2-2a32.36,32.36,0,0,0,3-39.52l1.09-1Zm7.62.78.93,2.11-2.75-.3Zm-47.74.69a1.4,1.4,0,0,1,1.38,1.38,1.41,1.41,0,0,1-1.38,1.39A1.37,1.37,0,0,1,77,100.07,1.38,1.38,0,0,1,78.34,98.69Zm38.71.27c10.38,15.12,4.59,39.24-15.21,46.59l-.1-1.69c20.18-8.47,22.17-31,14.06-43.71L117.05,99Zm-45,.09,1.3,3.56a10.08,10.08,0,0,1-4.14,1.75c-1.45.33-2.6-2.2-1.48-3.17A12.15,12.15,0,0,1,72.06,99.05Zm-33.67,0c.25,0,0,.59-.64,2.12-1.38,3.35-1.47,3.42-5,4a17.59,17.59,0,0,1-4.44.23c-1.94-.18-2.77-.74-1.51-1a31,31,0,0,0,10.3-4.53A4.57,4.57,0,0,1,38.39,99.07Zm66,.41a1.71,1.71,0,0,1,0,3.42,1.71,1.71,0,1,1,0-3.42ZM52.77,100l-.15,1.32s-2.1,1.11-3.11,1.52c-.76.31-.82.39-.58,1.08a25.06,25.06,0,0,0,1.45,3.17l-.88,2a23.17,23.17,0,0,0-2.09-5.37c-.94-1.31-1.12-1.48.35-1.75A30.92,30.92,0,0,0,52.77,100Zm18.8.42c-1,0-3.18.91-3.39,1.75-.12.46,0,1.13.41,1.27a4.35,4.35,0,0,0,3.79-1.3c.17-.24-.09-.75-.29-1.08S72,100.37,71.57,100.38Zm0,.71h.06c.17,0,.82.8.11.73a.88.88,0,0,0-.67.28c0,.38-.57.54-.85.39a.45.45,0,0,0-.51.23c-.4.3-.91.28-1,.07s.27-.74.62-.7a1.68,1.68,0,0,0,.56-.37c.11-.4.54-.34.8-.32s.59-.28.85-.31Zm55.78.06.75,2.12-2.71-.25Zm-12.61.46a1.31,1.31,0,0,1,.91,2c-.56.73-1.08.72-1.9.69a2,2,0,0,1,.31,2.63c-1,1-2.91-.54-2.77-.68Zm-73.91.79s4.19,3.61,4.21,5.24a.82.82,0,0,1-.68,1c-1.64.55-6.23-.85-6.23-.85l.6-1.13c.72.21,4.26,1.12,4.57.66s-3-3.68-3-3.68Zm20.79,1.5.5,1.75-1.71-.43Zm66.88.32.45,2.41-2.74-.63Zm-52.29,0,.41,1.43c-18.19,8.46-23.5,27.88-14,43.93l-1.07,1.48C48.88,130.44,61.74,109.5,76.25,104.26Zm-41.41,1.43c.35,0,.43.2.43.42a17.13,17.13,0,0,1-2.43,3.17c-1.28.52-6.27-1.57-7-3.18-.15-.47.35-.26,1.45,0,2.79.79,5.62-.3,7.57-.37Zm48.46,0a1.39,1.39,0,1,1-1.39,1.39A1.41,1.41,0,0,1,83.3,105.71Zm-23.42,0,.25,2.16L58,107.78ZM26,107.42a11.81,11.81,0,0,0,5.23,2.64c1.13.26.8.36-.24,1.44s-.9,1.16-1.88.65c-1.67-.84-3.46-2.75-3.39-3.79C25.74,107.93,25.82,107.42,26,107.42Zm103.32.24.34,2.29-2.58-.9Zm-72,.82.85,2.07-2.3-.06,1.45-2Zm56.89.5a1.4,1.4,0,0,1,1.52,1.47c0,.3-.06.78-.06.78,1.34-.86,3.15-.15,3.09,1.24-.07,2-1,2-2.6,1.72.85,1.43-.16,2.8-1.77,2.28s-1.2-2-.5-3a3.57,3.57,0,0,0-.39,7c-.81-1.24-1-2.74.74-3s2.31,1,1.61,2.48c1.53-.53,3,.34,2.5,1.84-.55,1.79-2.15,1.68-3.09.59a1.57,1.57,0,0,1-2.06,2.17c-1.86-1-.94-2.78.31-3.25-4.78-.49-5.9,6.14-2.37,7.09-.91-.56-1-3.18,1.06-2.83s1.55,2.3.25,3.16c1.57-.33,3,1,2.08,2.43-1.12,1.63-2.69.48-3.27-.64.18,1.5-.77,2.46-2,1.89-2.09-1-.55-3.38,1.1-3.23-3.32-2-7.85,2.17-5.19,5.59-.1-1.56.67-2.83,1.73-2.65a1.77,1.77,0,0,1,1.5,2,2.53,2.53,0,0,1-1.92,1.44c2.54.28,2.76,2.09,1.71,3-1.78,1.51-2.62-.23-3-1.25-.37,2.53-3.35,1.67-3.46-.16-.09-2,2.2-2,2.64-1.86a6.91,6.91,0,0,0-3.76-2.16V132a18.31,18.31,0,0,0,8-21.44L109,110c1.26,1,2.53,3,4.87,2.28,0,0-.54-.39-.82-.65-1.19-1.18-.52-2.59,1.14-2.65Zm-51,1.46.79,1.18c-11.74,13.79-9.6,29.59-2.84,40l-1,1.18c-6-7.68-10.86-26.32,3-42.41ZM26,110.6a21.76,21.76,0,0,1,2.52,2.15c.71.57.69.67.12,1.21-1.31,1.26-2-.57-2.45-1.31-.52-1-.57-2-.19-2.05Zm45.81.09a1.63,1.63,0,0,1,1.42,1.66,5.58,5.58,0,0,0,0,.56,5.39,5.39,0,0,0,.46-.69c1-1.68,3.16-.71,2.8,1.22-.16.91-1.69,1.26-2.11,1,.4,1.09,1.46,1.34,2.77,1.8.46.08,1.23.32,1.23.32l0,.72c-7.05,4.45-11,12-8.45,22.33l-.78,1.06c-1.41-3.42-2.71-3.35-5-3.48A6,6,0,0,1,65,138c.7.84.39,2.31-.59,2.46-2.27.36-2.29-1.27-2-2.35,0,0-.4.34-.6.48a1.39,1.39,0,0,1-2.12-1.19c-.11-1.1.27-1.81,1.4-1.94a4,4,0,0,1,1,.05s-.23-.43-.35-.67c-.53-1.05.64-2,1.72-1.74,1.71.42,1.58,1.9.59,3.07,2.65.2,4-1.54,3.84-3.27a3.59,3.59,0,0,0-3.29-3.61l.49.79a1.46,1.46,0,0,1-1.36,2.11,1.5,1.5,0,0,1-1.45-2.11c.11-.26.54-.57.48-.6s-.63.17-.8.2a1.53,1.53,0,0,1-1.7-2.23,1.93,1.93,0,0,1,2.55-.66c.13,0,.32.25.33.2s-.09-.33-.12-.53c-.28-1.11.26-1.71,1.46-1.63,1.7.1,2.32,1.49,1.19,2.73l-.74.8c.06.25,2.4.42,3.61-.84,1.4-1.46,1.62-4.51.22-5.51l-.69-.48c.67,1.33-.56,2.87-1.64,2.59-2.15-.53-2-2.31-.55-2.87A5.2,5.2,0,0,1,64,120.11a1.46,1.46,0,0,1,.32-2.16,2,2,0,0,1,2.76.63c.36-1.12.89-1.88,2.41-1.27,1.08.52,1.07,2-.12,2.73a6.76,6.76,0,0,1-1,.49,5.18,5.18,0,0,0,2.24.6,3.69,3.69,0,0,0,3.3-4.93,5,5,0,0,0-.68-1,3.93,3.93,0,0,1-.21,1,1.6,1.6,0,0,1-2.56.41,1.32,1.32,0,0,1,0-2,3.5,3.5,0,0,1,1.31-.77c-.63-.22-1.34-.36-1.64-1a1.47,1.47,0,0,1,.67-1.88,1.37,1.37,0,0,1,1-.29Zm58.17.27.16,2.43-2.71-1Zm-74.51.14,1,2.22H53.88l1.54-2.21Zm52.47,0c2.35,8.75-1,15-7.26,20l-.71-.91c4.92-4.2,8.6-9.14,7-17.94Zm-72.34,0s3.64,4.74,2.92,6.33c-1,1.53-6.72-1.76-6.64-1.94l.72-.69c.9.37,3.75,1.94,4.38,1.69.23-1.43-1.46-3.29-2.08-4.51Zm43.41,0,27.67.5-.82,1.47-2.16,0-4.27,7.59H79.49L79,111.15Zm-31.06.76L47,113.65c-.9.28-3.6.32-3.82.51a28.42,28.42,0,0,1,.69,3.5L42.75,119c-.28-1.69-.76-3.81-1.17-5.36-.36-1.32-.26-1,2.55-1.26a27.05,27.05,0,0,0,3.77-.5ZM53.58,114l1.14,2H52.41Zm-27.73.13c.13,0,.85.75,1,1-.05.53-.87.82-1,.63a6.49,6.49,0,0,1,0-1.59S25.84,114.13,25.85,114.13Zm104.42,0,0,2.54-2.74-1.22Zm21.77.58,0,1.64c-9.95,4.88-24.78,17.94-29,41.41l-.87-1A61.81,61.81,0,0,1,152,114.74ZM52,117l1.24,1.87-2.24.25Zm78.31.73-.22,2.24-2.7-1.5Zm-52,.47c0,.52.05.91.08,1.45-6.13,4-8.19,10.24-7.17,18.13L70.43,139A18.33,18.33,0,0,1,78.38,118.19Zm-50.16.3s2.33,5.28,1.41,6.51c-.9.74-3-.48-3.91-1l0-1.25s.72.37,1.44.65c1.48.66,1.48-.13.68-2.33-.29-.77-.56-1.67-.56-1.67Zm121.2.15a19.17,19.17,0,0,0,2.65,1l0,1.5-4.18-1.5,1.55-1Zm-98.86,1.64,1.6,1.68-2.23.52Zm96.86.19a1.31,1.31,0,0,1,.48,0,15.74,15.74,0,0,1,4.14,1.15v1.66a34.84,34.84,0,0,0-4.45-1.39c-1.15-.16-1.08.49-1.09,2.13a14.45,14.45,0,0,0,1.6,6.44c.87,1.84.42,2.33-1,1.52-2.58-1.78-8.06-3.12-8.9-2.08s.84,6.33,2.82,8.85c.79,1,.85,1.18.48,1.58s-.79.34-1.66.07c-2.85-.92-7-1.11-8.18-.35s1.89,6.05,4.48,7.77c1.67,1.2,1.34,1.79-1.36,1.85-4.41,0-7.81,1-7.62,2.21.33,2.06,3.18,4.88,6.46,6.37,2,.82,1.17,1.15-.16,1.62a43.83,43.83,0,0,0-6.49,3.11l-1-1.29s2.11-1.35,4.42-2.64c.54-.31.51-.41-.24-1-2.45-2.06-4.25-4.36-4.63-5.91s.39-2.46,2.61-3.3a18.7,18.7,0,0,1,3.09-.95c1.75-.4,1.78-.46,1-1.79L131,143.85c-2.6-4.48-1.23-6.08,4.82-6.18,1.48-.08,1.77-.08,1.69-.59-.33-2.11-1.26-4.53-1.12-6.31.27-2.69,3-3.34,7.88-2.12,1.12.29,1.2.23,1-.69-.9-3.84-.09-7.33,2.16-7.49Zm-17.31.3-.42,2.61-2.58-1.72Zm-96.49.6,7.11.46-1.14,1.33-4.3-.09-.16,3.68-1.38,1.19Zm46.11.29h5.86l0,6.22H79.69l0-6.22Zm7,0h5.45v6.22l-5.4.06,0-6.28Zm6.53,0h5.84l0,6.22H93.26v-6.23Zm51.06.49a36.49,36.49,0,0,0,.34,5.73c-.1.37-.36.32-1.89,0a21.69,21.69,0,0,0-4-.45l1.22-1.31c1,.11,1.81.1,2.85.25,0-1,0-3,0-3l1.44-1.14Zm-94.67,1.24L51.28,125l-2.1.54Zm79.91.53-.65,2.66-2.36-2.13Zm19.15.07a4.51,4.51,0,0,1,3.26,1.33v1.37l-2.33-1.06A13.84,13.84,0,0,0,151,130l-1.11.52a9.45,9.45,0,0,1-1.68-4.77c0-.61-.06-1.7.52-1.74Zm-99.87,2.69,2,1.16-2.15.86Zm80,.6-1,2.73-2.09-2.37Zm-103.1.87L31,129.93l-.93,1-4.36-1.39Zm73.59.72.43,9.68L72,138.33,73,137l1.8,0,4.74-8Zm-50.84.75,2.06,1.45-2.14.94Zm103.64.86v1.58c-6.69,4.95-13.93,13.5-15.16,28.61l-1.8,1.55c.87-14.75,7-24.92,17-31.74Zm-24.41.05-1,2.46-1.93-2.29Zm8,.45a38.46,38.46,0,0,0,1.14,6,24.34,24.34,0,0,0-5.56.43l.92-1.67s.87-.08,1.61-.23c1.55-.32,1.39-.12,1-1.48s-.36-1.54-.36-1.54A13.46,13.46,0,0,1,135.66,131Zm5.11.31c1.82,0,4.54,1.65,5.77,2.59l-.65.72c-.19.06-2.74-1.31-4.75-1.63a25.35,25.35,0,0,0,2.43,4.34l-.93.93c-.28-.07-3.92-5.46-2.95-6.68A2,2,0,0,1,140.77,131.29Zm-107.4,1.27c2.4,14.55,8.11,24.54,17.14,33.53l-.92,1.2a56,56,0,0,1-17.91-33.8l1.69-.93Zm14.93.61,2,1.07-2,1.16Zm103.77.05,0,2.13-1.22-1.23a7.1,7.1,0,0,1,1.24-.9Zm-25.72.43L125,136.1l-1.73-2.31Zm23.83,1.06c1.77.24,2.33,3.79,1.74,4.48a22.72,22.72,0,0,0-3.81-2.59A7.38,7.38,0,0,1,150.18,134.71Zm-28.45,1.81,2.84.26-1.51,2.35Zm-73.41,0,2.2,1.08-2,1.42Zm99.62,1a2.82,2.82,0,0,1,1.29.44c2,1.11,3,2.34,2.93,3.42,0,.5-.33.61-.65.25a9.58,9.58,0,0,0-4.23-1.84c-1.28-.25-1.41-.36-1-1C146.84,138,147.32,137.57,147.94,137.57Zm-34.12,1a64.61,64.61,0,0,0,15.23,28l-1.39,1.2c-5.14-5.91-10.79-12.83-15.41-27.8Zm6.12.63,2.84.43-1.67,2.13Zm-40,.13c.33,0-1,5-5.48,5.31-2.85.48-3.16,1-3.21,5.39-.05,6-1,7.44-5.94,7.82-3.25.24-3.67.9-3.13,5.59.53,4.46-1.15,6.74-5.3,6.74-3.6.3-5.07,2-5.08,5.3,0,1.35,0,1.68,0,1.68l-2.32.18a29.26,29.26,0,0,1,.17-3.26c.71-4.31,2.55-6,6.44-6,3-.23,3.48-.72,3.36-5.29s-.17-4.61,1-5.83a4.76,4.76,0,0,1,3.25-1.28c4.91-.46,5.3-.78,5.28-5.85-.45-4.19.7-6.77,3.36-7,5.37-.43,5.25-3.36,5-3.48l2.5,0Zm11,0c3.16,17.07,13.14,33,18.61,38.95l-1.07.57c-8-10-15.24-21.37-18.83-39.5l1.29,0Zm-5.69,0,2.5,0L59,180l-1.52-1.14,27.77-39.47Zm3.49,0c2.7,9.84,4.82,19.45,13.32,32.33l-36-.24Zm10,0c.21-.1,1,5-.22,7.31-1.13,3.17-.58,5,1.9,6.11,4.23,2,5.3,4,4.76,8.84-.38,3.41.65,5.06,3.85,6.15,3.8,1.3,5.47,3.36,5.45,6.73a4.38,4.38,0,0,1-.19,1.11l-2.12,1.26s0-.47.11-1c.55-3.72-.15-4.73-4.54-6.49-4.16-1.67-5.18-3.59-4.47-8.38a7.25,7.25,0,0,0-.73-4.34c-1.09-1.94-3.49-1.93-5.21-3.7-1.43-1.51-1.58-3.63-.37-7.26.75-2.25.86-3.11.27-5-.38-1.24-.53-1.35-.53-1.35Zm-50,.54,2.45.67-1.85,1.91Zm97.05.51a9.27,9.27,0,0,1,3.79.93c3.05,1.52,3.6,2.78.93,2.1a12.54,12.54,0,0,0-5.75.23c-2.21.54-2.17.57-1.4-.77C144.27,141.26,144.51,140.51,145.74,140.47Zm-11,.63a14.76,14.76,0,0,1,5.45,1.16l-.56,1a13.87,13.87,0,0,0-4.33-.65,15.17,15.17,0,0,0,2.85,3.49l-.46.95c-.1.13-3.51-2.71-4.2-4.63C133.24,141.51,133.51,141.14,134.76,141.1Zm-40.06.23A1.66,1.66,0,1,1,93.06,143,1.63,1.63,0,0,1,94.7,141.33Zm34.21,0s2.68,5.34,2.51,5.54c-1.67.74-3.49,1.13-5.32,1.8l.35-1.55a11.77,11.77,0,0,0,2.66-.82c1-.38-1.08-3.11-1.08-3.11Zm-10.93.4,2.79.5-1.86,2.09Zm-52.16,0c.66-.06,1.67,1.23,1.67,1.23l-3.37,4.69c-1.6-.32-1.27-2.77.2-2.85.34,0,1,.07,1,.07a2.8,2.8,0,0,1-.72-.59C63.59,143.14,64.52,141.89,65.82,141.79ZM110.29,143c3.94,0,4,4.87,3.22,6.46-.55,1.09-1.38,1.71-3.89,2.84-2.18,1-2.43.91-2.43.91l-.52-1.16s1.27-.57,2.63-1.12c2.83-1.14,3.52-2,3.21-4.06-.43-2.9-2.67-3.36-7-1.41-.49.23-1.13.46-1.13.46l-.29-.59a29.61,29.61,0,0,1,5.37-2.29C109.75,143,110,143,110.29,143Zm-60.73.52,2.22.74-1.61,1.6Zm99,.64c2,0,3.58.33,3.57,1,0,.34-.07.36-1.84.61-2.68.37-7.15,2.67-9.67,4.8-1.48,1.26-1.1,1-.47-.85s1.55-4,2.06-4.32C143.44,144.52,146.29,144.11,148.53,144.11Zm-32.11.24,1.9.41-1.23,1.2Zm-6.33,1a1.24,1.24,0,0,1,1.28,1c.58,1.4,0,2.23-2.18,3.18a12.76,12.76,0,0,1-3,1.26l-1.38-3.7s.43-.16,1.87-.75A10.31,10.31,0,0,1,110.09,145.38Zm-6.39.46A82.42,82.42,0,0,0,119.08,173l-1.36.86A79.09,79.09,0,0,1,102.19,146Zm48.32.37c.19,0,.28.1.25.22,0,.53-7.87,8-12.37,11.8-2.05,1.74-2,1.72-2.15,1.5A21.33,21.33,0,0,1,139,153a24.46,24.46,0,0,1,12.15-6.75A4.12,4.12,0,0,1,152,146.21Zm-42.26.06a9.46,9.46,0,0,0-2.38.75c-1.54.59-1.67,1.32-1,2.21.3.38.61.29,2.1-.29s2.16-.87,2.26-1.41A1,1,0,0,0,109.76,146.27Zm.15.42a.56.56,0,0,1,.53.58c0,.25-.35.48-.72.47a1.05,1.05,0,0,0-.63.28c-.19.28-.33.55-.67.49a1.15,1.15,0,0,0-.72.07c-.7.6-1.38.1-1.06-.5.07-.15.35-.23.58-.23s.65,0,.72-.29.52-.36.81-.35a.73.73,0,0,0,.7-.26c.12-.1.26-.23.4-.23s0,0,.06,0Zm-35.56.1a1.66,1.66,0,1,1-1.66,1.65A1.67,1.67,0,0,1,74.35,146.79Zm-23.9,0,2.5.34-1.57,2Zm50,1.27a1.66,1.66,0,0,1,0,3.31,1.66,1.66,0,0,1,0-3.31ZM51.58,150l2.71.17-1.55,2.08Zm14.33.39A1.66,1.66,0,1,1,64.26,152,1.66,1.66,0,0,1,65.91,150.36Zm67.84,1c1.13,0,2.46.09,2.46.09l-.32,1.27c-1.37.13-3.14-.25-4.63.37.55.9,3.77,2.18,4.14,2.5a11.06,11.06,0,0,1-.27,1.35c.09.31-5.45-2.26-5.64-4.43C129.48,151.84,131.86,151.43,133.75,151.4Zm-19.06,1.33c3.15,0,4.71,4.43,3.48,6.39a9.09,9.09,0,0,1-3,2.85c-.7.44-2.54,1.34-2.54,1.34l-.83-1.27a15.14,15.14,0,0,0,1.43-.67c1.73-1,5.25-3.08,3.55-5.92-1-1.54-2.38-1.84-5.35-.33a16.43,16.43,0,0,1-2.72,1.24l-.57-1C108.29,155.4,112.56,152.82,114.69,152.73Zm10.15.16a18.81,18.81,0,0,0,4.78,5.65s-2.55,1.66-4.08,2.7l-.91-1.06,2.2-1.89-2.48-3.46Zm-71.61.29h2.46l-1.06,2.24-1.4-2.24Zm95.72.41a39.93,39.93,0,0,0-.44,4.66A2.11,2.11,0,0,0,150,159a12,12,0,0,0,.6-5A2.88,2.88,0,0,0,149,153.59Zm.76.44a.36.36,0,0,1,.2,0c.31.15.27.37.29.65a8.07,8.07,0,0,1-.28,3.05c-.24.52-.76.32-.77-.38a22,22,0,0,1,.23-2.64C149.4,154.35,149.52,154.09,149.71,154Zm-35.2,1.31c1.62.12,2.24,1.48,1.65,2.45-1.46,1.88-3,2.23-4.9,3.32l-1.92-3.6S113.09,155.39,114.51,155.34Zm-.05.8a8.13,8.13,0,0,0-2.66,1.1c-1.1.54-1.46,1.39-.73,2.15.83.92,3.71-1.28,4.2-1.82a.84.84,0,0,0-.17-1.21A1,1,0,0,0,114.46,156.14Zm-59.22.16,2.43,0-1.31,1.85Zm59.17.29a.53.53,0,0,1,.28.1.51.51,0,0,1-.21,1c-.29.08-.8.07-.81.48s-.45.4-.71.36-.69-.06-.79.26-.38.45-.69.14-.18-.76.47-.84a.83.83,0,0,0,.62-.44c0-.28.17-.43.48-.37a1.19,1.19,0,0,0,1-.57A.45.45,0,0,1,114.41,156.59Zm-13.87.14a1.66,1.66,0,0,1,0,3.31,1.68,1.68,0,0,1-1.66-1.67A1.63,1.63,0,0,1,100.54,156.73Zm-35.26,3a1.67,1.67,0,1,1-1.66,1.68A1.68,1.68,0,0,1,65.28,159.77Zm69.53,1.4v1.25c0,.07-2.57,1.21-4.1,1.91-.5.28-.3.81-.27,1.35l-.75.5s-1-.74-1.15-1.22c-.36-1.52,4.43-3.32,6.26-3.79Zm-109,.07,18.92,13-1.29,1.89-17.57-12-.06-2.89Zm95,.42c1.23,0,2.17.71,3.1,2.14,1.82,2.84.91,5.08-2.86,7.38l-1.77,1.07-.89-1.1s1.29-.75,1.81-1.09c3.1-2,4-3.71,2.61-5.67s-2.69-1.73-6.53.71a14,14,0,0,1-1.7.89l-.84-1.15s2.17-1.12,2.91-1.6A8.39,8.39,0,0,1,120.72,161.66Zm-13.21.85a1.66,1.66,0,1,1-1.66,1.65A1.67,1.67,0,0,1,107.51,162.51ZM56.28,163a1.66,1.66,0,1,1-1.64,1.66A1.64,1.64,0,0,1,56.28,163Zm64.36,1.33a1.41,1.41,0,0,1,1.35,1c.66,1.6-.23,2.78-3.46,4.61l-.86.45-2.38-3.29s.83-.58,1.62-1.06C118.71,164.88,119.84,164.33,120.64,164.31Zm-.31.78a1,1,0,0,0-.53.19,8.89,8.89,0,0,0-2.86,1.87c-.39.52-.21,1.06.51,1.73.62.41,3.79-1.92,3.87-2.61C121,165.55,120.79,165.08,120.33,165.09Zm-94.42.19.52.36-.53.41Zm94.45.39a.65.65,0,0,1,.47.17.54.54,0,0,1-.4.86.85.85,0,0,0-.75.48.85.85,0,0,1-.77.44.47.47,0,0,0-.62.32.59.59,0,0,1-1,.07c-.23-.23.18-.92.44-.92,0,0,.34.09.7-.38a.75.75,0,0,1,.76-.54c.29.09.46-.23.59-.42A1.28,1.28,0,0,1,120.36,165.67Zm-93.19.43.75.52-2,1.44V166.9Zm1.46,1,1,.69-3.77,2.7V169Zm1.94,1.24,1.09.71-5.75,3.9v-1.5Zm2.07,1.05v1.25l-6.72,4.71v-1.27Zm.75.9,1.45,1,.36,42.48L26.14,220v-1.86l7.61-5.52-.37-42.34Zm109.4,1.14c-2,2.32-4.77,2.48-7.15,2.42-6.4.08-10.38.43-11.21,8.1,2.61-2,5.38-2.21,8.59-2.11,4,0,5.88-.28,7.53-1.1,2.65-1.33,4.33-3.71,4-5.37C144.24,173,143.42,171.5,142.79,171.4Zm-110.16.37v1.47l-6.73,4.52v-1.48Zm76.86.14a1.66,1.66,0,1,1-1.66,1.67A1.67,1.67,0,0,1,109.49,171.91Zm-43.94.18c11.89.36,37.15.22,37.15.22l1.34,1.94-39.7-.42Zm77.51,0c.37,0,.41.47-.33,1.21-1.43,1.4-2.9,2.09-7.57,2-4.94-.09-6.87.68-8.15,2.9-.38.65-.36.9.17.41s1.47-1.57,1.9-.59c.83-.56,1.56-1.39,2-.33.25-.06,1.66-1.49,2-.22.68-.77,1.27-1,1.59.08,1-.45,1.47-1.33,2-.12.77-.56,1.36-1.26,1.82-.19.66-.2,1.33-1.42,1.73-.44a8.41,8.41,0,0,0,3.15-2.86c.56-1.27,1.07-.43.44.87-1.62,3.16-4.41,4.32-10.81,4.33-3.89,0-5.48.38-6.7,1.1-1.95,1.15-.9-1.74.47-3.48,1.72-2.2,3.7-2.85,9.1-2.65,3,0,4.83-.39,5.64-1A3.23,3.23,0,0,1,143.06,172.14Zm-87.71.68a1.66,1.66,0,1,1-1.66,1.67A1.68,1.68,0,0,1,55.35,172.82ZM32.63,174v1.51l-6.73,4.6v-1.53Zm32.55.72h5.21v5.53H65.18Zm11.69,0h5.62v5.53H76.87Zm12.51.17H94.8v5.35H89.38Zm11.76.11,3.61.13s2,2.55,2.85,3.73l-2.67,1.38h-3.79v-5.25Zm-33.45.38a1.85,1.85,0,1,0,1.84,1.85A1.84,1.84,0,0,0,67.69,175.43Zm12,.18a1.84,1.84,0,0,0-1.85,1.84,1.85,1.85,0,1,0,3.69,0A1.84,1.84,0,0,0,79.69,175.61Zm12.28,0a1.85,1.85,0,1,0,0,3.7,1.85,1.85,0,0,0,0-3.7Zm-29.3.37a1.43,1.43,0,0,1-.83,2.6,1.41,1.41,0,0,1-.76-.22Zm5,0a1.23,1.23,0,0,1,1.22,1.21,1.22,1.22,0,1,1-2.43,0A1.19,1.19,0,0,1,67.69,176.05Zm30.28,0a1.48,1.48,0,1,1-1.47,1.48A1.47,1.47,0,0,1,98,176.1Zm6.23,0a1.85,1.85,0,0,0,0,3.7,1.85,1.85,0,0,0,0-3.7Zm-30.56.07a1.48,1.48,0,1,1-1.47,1.48A1.46,1.46,0,0,1,73.64,176.16Zm6,.07a1.22,1.22,0,1,1-1.21,1.21A1.22,1.22,0,0,1,79.69,176.23Zm-47.06,0v1.48l-6.72,4.71V181Zm59.34,0a1.22,1.22,0,0,1,1.21,1.22A1.22,1.22,0,1,1,92,176.28Zm-6.16.15a1.48,1.48,0,1,1-1.47,1.48A1.49,1.49,0,0,1,85.81,176.43Zm18.39.3a1.22,1.22,0,1,1,0,2.43,1.22,1.22,0,0,1-1.21-1.22A1.18,1.18,0,0,1,104.2,176.73ZM51.84,178a10.6,10.6,0,0,1,8.45,4.21c2.89,3.89,4.82,8.84,5.71,15.34.43,3.22,1.93,12.89,2.78,15.17l-1.17-.23c-.15.08-1.66-6.07-2.6-14.2a32.35,32.35,0,0,0-2.73-10.45c-2-4-5.37-8.34-9.87-8.68-2.62-.2-5.1,1.46-5.36,3.78a3.7,3.7,0,0,0,2.1,4.13c1.39.56,3,.14,3.22-1.75a1.67,1.67,0,0,0-.12-.91,1.25,1.25,0,0,1,1.39.72,3.19,3.19,0,0,1-2.13,3.28c-2.59.85-5.56-1.72-5.8-4.32a6.07,6.07,0,0,1,3.6-5.66A8,8,0,0,1,51.84,178Zm-19.21.85v1.51L25.92,185v-1.53Zm19.37.95c3.77-.1,7.43,4.1,9,6.87a33.14,33.14,0,0,1,3.34,11.82c.76,7.35,2.16,13.36,2.45,13.64l-1-.22c-.22.14-1.63-6.49-2.5-13.89a31.07,31.07,0,0,0-3.83-11.43c-1.68-2.92-4-5.1-6.65-5.43-1.68-.16-3.41.32-3.76,2.1a1.72,1.72,0,0,0,1.6,2.16l.62,0c.65.11-.38,1.19-1.06,1.09a3.09,3.09,0,0,1-1.62-5.28A5.44,5.44,0,0,1,52,179.81Zm8.07,1.08,42.27.44s0,.76-2.6.63a13.64,13.64,0,0,0-5.17.68l-33.22-.07Zm-27.44.49v1.41l-6.72,4.72V186Zm19.65.6a4.47,4.47,0,0,1,2.27.55c5.24,3.05,7.23,10.6,7.93,15.35,1,7.05,2,13.59,2.33,13.74l-1.14-.25a93.07,93.07,0,0,1-2.18-12.94C60.86,192.9,59,187.35,55.24,185c-2.39-1.64-2.87-1.8-4-.84s-1.93-.42-1.13-1.43A3.13,3.13,0,0,1,52.28,182Zm-19.65,1.91v1.16l-6.73,4.69v-1.38Zm30.77,0c.09-.07,3.63,6,4.75,15.51.59,5,2.28,13.57,2.56,13.64l-1.24-.13c-1.25-5.05-1.94-9.82-2.63-14.13-.76-4.86-1.36-9.2-4.4-14.85l1,0Zm.81.05,1.1,0a46,46,0,0,1,4.57,14.76A73.22,73.22,0,0,0,72.8,213.6l-1.18-.33c-1.49-4.15-2-9.17-2.8-14.36-.88-5.75-2.25-10.75-4.61-14.95ZM71,184c1.93,5,3.18,7.39,4.06,13.54a90.48,90.48,0,0,0,3.83,17.06l-1.11-.06a67.63,67.63,0,0,1-3.44-15.82A48,48,0,0,0,70.12,184l.88,0Zm-1.9,0c.11-.15,3.67,7,4.5,14.85A72.77,72.77,0,0,0,77,214.25l-1.14,0c-1.32-1.53-2.29-8.75-3.38-15.5A50.51,50.51,0,0,0,68.12,184Zm-2.87,0h1a47.49,47.49,0,0,1,4.55,14.84c1,7.08,2,13.47,3.11,15.14l-1.24-.09a76.19,76.19,0,0,1-3.07-15.32A44,44,0,0,0,66.23,184Zm5.57.05,1.21,0a44.6,44.6,0,0,1,4.38,15.16,72.71,72.71,0,0,0,3.29,15.52l-1-.06a74.18,74.18,0,0,1-3.81-16.12,51.19,51.19,0,0,0-4.11-14.52Zm7.39,0a54.07,54.07,0,0,1,2.68,8.79l-.68,1.33a93.48,93.48,0,0,0-3.46-10.09Zm-5.47,0,1.46,0a69.26,69.26,0,0,1,4.16,14.11s.35,1.83.37,2.43c-.09,5.11.8,8.75,2.7,14.24l-.87-.07a69.26,69.26,0,0,1-3.35-15.25,44.82,44.82,0,0,0-4.47-15.5Zm3.38,0a112.1,112.1,0,0,1,3.66,11,4,4,0,0,1-.66,2.38c-1.22-4.42-2.24-9-4.13-13.35Zm2.76,0,1.15,0,2.31,6.62-.9,1C81.74,189.62,81,187.21,79.86,184.17Zm6.75,0,.86,2-.92.77a22.14,22.14,0,0,1-1.17-2.75Zm1.72,0,.42,1.14L88,186l-.59-1.71Zm-6.62,0H82.9c.48,1.39,1.76,4.8,1.76,4.8l-.86.91s-1.61-4.33-2.09-5.72Zm1.83,0h1c.32.9,1.31,3.41,1.31,3.41l-.73.69Zm5.54.05,1,.05-.12.27-.65.32Zm-34.29,1.47c4.39,2.32,5.59,9.24,6.07,13.07a105.44,105.44,0,0,0,2,12.2l-1-.16s-.72-3.42-1.21-6.68c-.41-2.71-.72-5-.84-6-.07-.66-.18-1.41-.24-1.68a18.91,18.91,0,0,0-1.59-5,11,11,0,0,0-2.28-3.42,8.6,8.6,0,0,1-1.12-1.29C54.31,186.29,54.79,185.75,54.79,185.75Zm-22.15.36v1.3l-6.73,4.78v-1.5Zm0,2.29v1.51l-6.73,4.44V193Zm0,2.57v1.4l-6.73,4.71v-1.44Zm11.24,1.42h.58l0,1-.91-.05.29-.92Zm-11.24,1.2v1.48l-6.73,4.47v-1.4Zm10.53.57h1.42l0,1-1.84-.06.44-1Zm-.81,1.64,2.33,0v1l-2.9,0,.58-1Zm-9.72.22v1.56l-6.74,4.5V200.5Zm8.52,1.63,3.43,0,0,.82-4.09,0Zm-8.52.91v1.53l-6.74,4.32V203Zm7.09.72,4.71.06-.12.79-5.35,0,.76-.83ZM32.64,201v1.47l-6.74,4.41V205.4ZM38,201l6.18.14,1.31,1.18-9.63.06L38,201Zm-1.88,2.17,10.63.12.74.69-11.41,0,0-.85Zm-3.46.33V205l-6.74,4.42V208Zm3.48,1.37,11.79,0-.86,1-10.94,0v-1ZM32.63,206v1.43L25.91,212v-1.64Zm3.19.75,10.18,0-1.2.94-7,.16-2-1.13Zm-3.19,1.78v1.36l-6.72,4.83V213.2Zm6.17.16,6,0,.12.8H39.76Zm1.65,1.66,4.59,0,.21,1-4.09-.05-.71-1Zm-7.82.73v1.27l-6.72,4.71v-1.41Zm12.73,1,.06,1-2.73.11-.77-1,3.44-.06Zm0,1.75,0,1-1.92,0L43,214l2.36-.06Zm-1.71,1.85h1.51l-.13.8H43.84l-.21-.82Zm.45,1.92h.74l-.12.64h-.37ZM59,228.25l-.36.45H69.13l.12-.45Zm13.58,0-.19.61h4.75l.13-.62Zm7.74.12-.14.57H92.29l-.2-.58Zm14.53,0,.25.7h4.09l-.28-.69Zm14.09,0h-7.17l.25.78h7.42l-.5-.78Z"/></g></g></g></g></g><path id="path163-0-2-5-8-7-5-0-7-4" class="cls-2" d="M48.2,64.8s-3.7-6.1-8.7-13.3c-3.4-4.8-6-10-6.3-14.5-.3-5.1,2.4-10.3,7.3-10.5s6.9,3.9,7.7,7.4c.8-3.5,2.8-7.7,7.7-7.4s7.6,5.4,7.3,10.5c-.2,4.5-2.9,9.7-6.3,14.5-5,7.2-8.7,13.3-8.7,13.3Z"/><path id="path163-0-2-5-8-7-7-8-0-0-6" class="cls-2" d="M130.6,184.8s-3.7,6.1-8.7,13.3c-3.4,4.8-6,10-6.3,14.5-.3,5.1,2.4,10.3,7.3,10.5s6.9-3.9,7.7-7.4c.8,3.5,2.8,7.7,7.7,7.4s7.6-5.4,7.3-10.5c-.2-4.5-2.9-9.7-6.3-14.5C134.4,190.9,130.6,184.8,130.6,184.8Z"/></g></g></g></svg>