<svg xmlns="http://www.w3.org/2000/svg" viewBox="0 0 178.8 249.6"><defs><style>.cls-1{fill:#fff;stroke:#000;stroke-width:1px;}.cls-2{fill:#131f67;}.cls-3{fill:#d40000;}.cls-4{fill:#e2cf00;}</style></defs><title>Js</title><g id="Layer_2" data-name="Layer 2"><g id="svg11376"><g id="Js"><path id="rect7331-9-9" class="cls-1" d="M9,.5H169.8A8.49,8.49,0,0,1,178.3,9V240.6a8.49,8.49,0,0,1-8.5,8.5H9a8.49,8.49,0,0,1-8.5-8.5V9A8.49,8.49,0,0,1,9,.5Z"/><path id="path7363-8-9" d="M14.2,40.4C10.8,44.8,7.1,47.3,7,50.7A3.21,3.21,0,0,0,9.7,54,2.93,2.93,0,0,0,13,51.3c0-.4.5-.4.5.2a10.15,10.15,0,0,1-1.6,4.9h4.5a11.33,11.33,0,0,1-1.6-4.9c0-.5.5-.6.5-.2A2.77,2.77,0,0,0,18.6,54a3.18,3.18,0,0,0,2.7-3.3c0-3.5-3.6-6-7.1-10.3Z"/><path id="path7367-3-1" d="M164.6,209.3c-3.4-4.4-7.1-6.9-7.2-10.3a3.21,3.21,0,0,1,2.7-3.3,2.93,2.93,0,0,1,3.3,2.7c0,.4.5.4.5-.2a10.15,10.15,0,0,0-1.6-4.9h4.5a11.33,11.33,0,0,0-1.6,4.9c0,.5.5.6.5.2a2.77,2.77,0,0,1,3.3-2.7,3.18,3.18,0,0,1,2.7,3.3c0,3.4-3.7,5.9-7.1,10.3Z"/><path id="path35-7-9-2" d="M14.1,11.5v2.8h2.7s.1,2.7.1,8.3.1,8.2-.2,9.7c-.9,3.6-6.1,3.6-7.2,1-.6-1.5-.4-2.7-.5-4.2H6.1v1.7c0,4,1.4,6,4.5,6.7,3.2.9,7-.5,8.3-3.2.8-1.6.7-1.7.7-11.1,0-6.3.1-8.9.1-8.9h2.5V11.5Z"/><path id="path35-7-8-1-4" d="M164.7,238.1v-2.8H162s-.1-2.7-.1-8.3-.1-8.2.2-9.7c.9-3.6,6.1-3.6,7.2-1,.6,1.5.4,2.7.5,4.2h2.9v-1.7c0-4-1.4-6-4.5-6.7-3.2-.9-7,.5-8.3,3.2-.8,1.6-.7,1.7-.7,11.1,0,6.3-.1,8.9-.1,8.9h-2.5v2.8Z"/><g id="g3851-4-2-7-4"><path id="path4037-8-0-2" class="cls-2" d="M24.1,19.58V230.11H154.72V19.59Zm41.49,1.15,59.16.22-9.17,14c-12-3.79-31.35-1.32-41.36.59-2.63-4.4-6.43-9.9-8.63-14.83Zm-39.77.54h38l8.92,16.2c.32.46,0,1.38-.17,1.9A41.24,41.24,0,0,1,68.26,48c-2.11,3.5-2.88,6.69-2.12,8.84a2.09,2.09,0,0,1,.17,1A5.12,5.12,0,0,1,64.05,61c-.84.14-2.56.24-3.57,1.23A5.19,5.19,0,0,0,59,66.55a10.87,10.87,0,0,0,.14,1.34C47.83,72.59,39.7,78.11,40,78.32c-.11,0-10-4.58-14.15-5.7Zm101.05,0h26.07V95.71l-9.84-6.48c.81-.57,1.33-.9,2.2-1.49.15,0,.45-.06.63-.1,1.75-.39,3-1.69,2.35-3-.4-.92.15-.86.66-1.59a2.06,2.06,0,0,0,.09-2.3c-.18-.34-.09-.49.22-1.14a2.29,2.29,0,0,0-.82-3.2c-.1-.16.12-.4.17-.63a2.19,2.19,0,0,0-1.4-2.81c-.6-.15-.8-.26-.59-.79.37-.94-.12-1.3-.89-1.61-1.31-.51-.94-.6.67-1.32,3.32-1.48,4.09-5.89,1.81-9.89-.28-.52-1.06-1.71-1.59-2.51s-1.21-1.74-1.21-1.74L149.79,49a49.31,49.31,0,0,1-4.13-5.59c.25-1,3.31-4.08,3.7-7.08.62-4.7-3-7.71-6.35-7.35-2.35.24-5.24,1.74-5,6.09a10.07,10.07,0,0,0,1.56,4.44c.67,1.27,1.54,2.61,2.37,3.9l-4.42,6L142,55a2.21,2.21,0,0,0-.16.25,40.75,40.75,0,0,0-2.29,4c-1.63,3.24-2.22,6.79,1.15,9.31a6.71,6.71,0,0,1,1.29.92c.34.33.13.57-.4.7a10.17,10.17,0,0,0-1.93.39,21,21,0,0,0-5.75,3.23,17,17,0,0,0-3,4.6c-.9,1.9-1.15,2.33-1.15,2.33l-15.5-9.88s-.4-.32-.5-.43c-.29-.33-.18-.52,0-.87a4.28,4.28,0,0,0,.11-1.87,3.1,3.1,0,0,1,.74-2.5,1.77,1.77,0,0,0,.23-1.48c-.24-.73-.27-.5.2-1,.17-.23.39-.33.43-.56s0-.89,0-1.94c0-2.1,0-1.93,1.17-2.86,1.48-1.15,2-1.69,2.25-2.21.34-.74,0-1.3-.82-2.8-.38-.67-1-1.59-1.24-2.11A17.43,17.43,0,0,1,115.12,47a3.76,3.76,0,0,1,0-3.35c.64-1.13.82-1.83.8-4.12,0-2.14-.17-1.94.37-2.64C120.41,31.39,126.87,21.28,126.87,21.28Zm16.59,8h.26a5.54,5.54,0,0,1,3.73,1.61c1.6,1.6,1.5,3.93,1,6.33a7.86,7.86,0,0,1-.92,2.14,4.92,4.92,0,0,0-.49.84,15.15,15.15,0,0,1-.88,1.41c-.48.72-1,1.71-1,1.71a24.62,24.62,0,0,0,2.09,3c1,1.5,1.68,2.81,1.74,2.74a5.63,5.63,0,0,1-.61,1.1,47,47,0,0,0-3.1,4.61c0,.08-.22.15-.22.22,0,.26.41.59,1,1.39,3.54,4.84,4.05,8.94,1.38,11.34a4.9,4.9,0,0,1-4,1.42,5.16,5.16,0,0,1-4.66-5.63,6.93,6.93,0,0,1,.92-3.6,20.89,20.89,0,0,1,1.85-3.42,16.71,16.71,0,0,0,1.07-1.44A50,50,0,0,0,139,50.44a5.39,5.39,0,0,1-.68-1.18l4-5.86A13.49,13.49,0,0,0,141,41.12c-1.59-2.37-2.6-4.88-2.59-6.29C138.44,31.33,140.76,29.27,143.46,29.26ZM153.32,113c-2.35,1.24-4.62,5.48-.17,2.52l.12,2.43c-2.32,3.28-6.84.88-5.7-2.53-3.13.4-3.62-2.77-3.45-4.26-4.12-.89-2.69-5.25-2.69-5.25-2.38-2-2.79-4.06-.88-6.26-2-1.21-2.5-2-4.64-2.86,1.64,14.55,9.52,22.11,17.8,28.86-.21,0-.24,4.69-.76,3.83-11.83-8.82-19.44-18.92-20.75-35.23-.1.26-5.61-4.26-6.53-4-1.91,26.42,19.17,43.8,27.94,47.21a28.57,28.57,0,0,1,0,3.7c-13.28-5.78-28.07-22.76-30.91-42.95l-7.84,12.12-2.94-1.26,12.68-19.94L116,83.75l-14,22.07s-.37,1.84.64,1.81c19.6,2.09,48.72,25.58,39,63.81-.84-.34-2.18-1-2.26-1,1.53-3.29,5.81-24.64-7-41.88-5.89-7.9-15-16.31-29.67-18.78,1.22,2.5.69,8.14.69,8.14l3.41.69a10.06,10.06,0,0,1-2.56-3.52c-.63-2.06.3-3.26,2.58-2.05.91.51,1.12.48,2-.17,1.84-1.36,3.93,0,3.44,2.3-.07.34,0,.55.89.62a8,8,0,0,1,5.24,2.71c.64.8.78.69,1.34.2,1.37-1.2,3.65.47,3.25,2.32-.24,1-.1,1.31.38,1.51,2.69,1.12,3.35,1.83,4.18,4.18.31.86.55,1.14.71,1.1s.55-.18.94-.33c2-.75,3.18,1.67,1.75,3.56-.28.39-.07.76.45,1.05a6.76,6.76,0,0,1,3,5.36c.08.87.17.87,1,.84,2.22-.09,3.29,2.9,1.47,4-.63.38-.51.88,0,1.46a5.35,5.35,0,0,1,1.48,4.39c-.15,2.33,0,2.27.73,2.57,2.16.82,1.76,4.27-.37,4.25,1.53,3.55-.48,7.87-.41,7.95,4.08,2.28.39,4.71-.78,4.29,0,0-.6,1.6.08,2.42-3.57,4.71-8.25,5.5-13.43,7.85L124,160.89c2.16,1.73,4.29,3.34,6.42,5,0,0,.55-.17.05-.62-.95-.89-3.35-2.41-4-3a89.62,89.62,0,0,1-7.66-7.32c-.42-.8-1-.35-1-.28a36,36,0,0,0,1.93,3.48c1.76,2.45,3.48,5.17,3.3,7.84a10.57,10.57,0,0,1-.93,3.81c-.25,1-1.89-.17-1.49-1,.74-2.39,1.34-4.33-1.28-8.17a55.87,55.87,0,0,1-2.94-5.25l-1.06.26,0,21.67c-.89,0-3.15.61-2.68.63,7-1.4,9.17,8.62,2.4,8.95-1.29,0-2.62,2.26-2.76,3.45.06,2.91.49,6-1.65,8.77a29.55,29.55,0,0,0-1.34,2.81c-2.6,4.6-3.76,7.25-3.5,8.43.07.31.12.71.12.71a95.39,95.39,0,0,1-22.88,2.8,102.12,102.12,0,0,1,4.9-12.4c1.56-3.07,2.37-5.18,1.93-5.81-6.63.33-5.35-9.36,1-9,0,0,1.6-5.6,3.38-8.11,1.69-.93,5.08.33,7-.92,4.47-1.37,7.41,3.92,7.41,3.92l1.2-5-39.63-.19s-3.86,1.59-5.94.74a18.72,18.72,0,0,1-3.24-2S76.32,150.48,78.55,147c.18-.3-.39-.89-.39-.91C78.08,145.27,60,174.32,60,174.32c-10.2-6.52-23-14.77-34.37-22l0-10.89c8.25-5.19,7.5-7.31-.13-1.66-.11.09-.17-4.09-.17-4.09,5.82-5.18,1-3.56-.17-1.77,0-1.3-.27-3,.56-3.83,2.54-2.34,5.55-.18,5.69,3.27,3.31.64,2.9,3.56,3.75,4.72,3.39,1.9,1.6,4.8,2.44,5.79,3.56,2.24,1.08,5.84.32,5.76.45.31,4.88,3.28,5.26,3.16-.38-15.52-15.94-28.06-18-29.58l.37-3.36S47,133.51,46.77,155.44l6.82,4c-.6-22.49-10.81-37.76-28-47.42l-.22-4.17c14.46,6.71,27.85,20.29,31,42.56l8-12.39,2.82,1.36L54.28,160l8,5.26c6.22-8.18,11.41-18.21,14.58-23-.09-.44-.26-1.06-.26-1.06C46,136.18,28.8,107.57,37,77.68l2.13.93c-6.37,22.14,4,54,37.3,60.53C76.38,136.79,76,131,76,131s-4.37-1.31-3.73-.79c1.07.92,3.48,4.86,2.46,6.25a5.37,5.37,0,0,1-3.3-1.27c-.51-.37-.52-.29-1.09.3-1.58,1.68-3.86.71-3.89-1.58,0-1,0-1.18-1.42-1.18-2.09,0-3-.38-4.29-2.06-.9-1.19-.81-1.19-1.87-.83a2.15,2.15,0,0,1-3-2.7c.31-.77,0-1-.93-1.18-1.78-.29-3.79-2.52-4.16-4.34-.07-.37-.26-.47-1.31-.42-2.07.07-3.2-1.17-2.39-2.92.43-.94.56-1.32-.26-2a5.71,5.71,0,0,1-2-2.28,8.75,8.75,0,0,1-.65-2.84c-.09-.56-.27-.65-1-.74-2.12-.29-3-2.45-1.41-3.87.47-.42.47-.42-.24-1.35-1.4-1.8-1.92-4.15-1.3-5.7a.76.76,0,0,0-.5-1.06c-1.94-.49-2-2.64-.12-3.85.53-.34.57-.58.16-1.28-.71-1.23-.68-4.49,0-6,.45-1,.44-1-.26-1.46a2.27,2.27,0,0,1,.69-4c.84-.2.91-.31.67-1.33-.4-1.84-.47-2.3.61-3,3-1.93,10.6-5.61,10.6-5.61l2.52-1.2s.26,15.35.09,17.16c-.09.79.6,1.25,1.42,2.07,1.7,1.65,2.63,3.66,4.88,5.06,0,0,1.41-.78,2.28-1.34l.08-21.86c.18-.5.3-.56.88-.62s1.68-.22,2.08-.34c1-.28,1.13-.68-.14-.54-.39,0-1,.2-1.61.32-4,1.19-6.94-5-3.9-8.13A9.67,9.67,0,0,1,64.36,61c.28,0,1.14-1,1.73-2a2.87,2.87,0,0,0,.49-2.67c-.71-2,0-5.19,2.07-8.62A31.36,31.36,0,0,0,73.6,37c8.07-1,14.92-3,22.22-2.53.29,2.47-8,17-6.25,17.83,6.51,1.55,4.28,9.25-.66,9-.75,0-.81.06-1.29,1.69-.89,2.39-1.48,4.21-2.43,6.44,0,.57-3.24.41-5.94.39-1.16.9-6.13,3.31-8.86-2.87l-.1,5.3s37.22-.6,43.85.24c.14-1.65,3.69,1.29,3.69,1.29L99.66,102.31l.86.84C103.15,100,119,74.53,119,74.53l34.21,22c-.29,3.28,0,10.63,0,10.63-9.4,5-6.52,7.51-.06,1.48ZM96.65,35a134.78,134.78,0,0,1,14.54.86c4.26.67,4,.56,4,3.64,0,2.18,0,2.14-.58,3.19-1,1.94-.85,3.85.78,6.52s2.77,4.51,2.76,4.88c0,.57-.1,1.27-1.48,2.23-1.63,1.14-1.94,1.94-1.91,3.09,0,.92-.16,1.23-.72,1.22a9.89,9.89,0,0,0-1.86.76,4.62,4.62,0,0,1-2.9.7c-.7,0-1-.27-1.24-.19-.37.18-.72,1.42-.71,1.8,0,.12.25,0,.65-.09,2.31-.79,5.77-.43,5.85-.09.48.43.47,1.08-.23,1.75a2.43,2.43,0,0,0-.47,2.19c.26,1.51.06,2.11-.71,2.62-2.35,1.59-5.49,1.79-10.52.82-5.29-1-8.92-3-11.93-6.64-1.34-1.62-1.67-2.18-1-2.29a10.89,10.89,0,0,0,2.58-.66c3.71-1.59,3.66-8.39-1.36-9.11C88.16,52.12,94.43,42.5,96.65,35Zm4.78,4.67c-1.8,1-2.74,2.24-2.75,2.9,0,.28.06.22.92-.34,2.5-1.63,9.07-4,11.42-2.63,1.69,1,2.35.69,1.36-.67C110.08,35.71,103.89,38.34,101.43,39.67Zm6.42,1.07a4.78,4.78,0,0,0-.82.09c-1.73.39-3.65,1.82-5.22,3.08a12.25,12.25,0,0,0-2,2.16c-.39.72.47,1.53,1.64.88a1.56,1.56,0,0,1,1.4-.19,13.67,13.67,0,0,0,5.92.93c.24.05.23.11.15.34a8.54,8.54,0,0,1-2.34,2.15c-.64.47-1.19.86-1.24.92-.19.31.66.34,1.59-.19a13.78,13.78,0,0,0,3.77-3.73,1.51,1.51,0,0,0,.25-.37c.1-.3-.46-.17-.77-.26-.12,0-.1-.35-.13-.51a5.46,5.46,0,0,1,.14-1.59c0-.45.54-.81.85-1.13,1.39-1.45,1.29-2.1-.59-1a2.08,2.08,0,0,1-.87.33c-2.76.09-4.36,0-6.67,1.92-1,.81-1.65.9-.73,0,1.4-1.12,3.13-2.72,5.06-3.15,1.17-.29,2.27.59,2.79.37,0-.64-1-1.09-2.13-1.09Zm-.4,4A2.73,2.73,0,0,1,108,46.4c0,.41-.77.25-.87,0l-.4-1.2C106.62,44.84,107.14,44.62,107.45,44.74Zm-1.4.26a4.67,4.67,0,0,1,.6,1.65c-.11.43-2.85-.15-3.18-.62a3.42,3.42,0,0,1,2.58-1Zm4.77,7.74a.94.94,0,0,0-.72.35,2.58,2.58,0,0,0,.65,4.08c.72.34,1.81.09,3.4-.41a8.88,8.88,0,0,1,1.47-.34c.62,0,1-1,.52-1.42s-1.72-.43-3,.55a2.72,2.72,0,0,1-1.65.75c-1.29,0-1.92-1.35-.61-2.75.46-.44.29-.79-.05-.81Zm-9.07,9.19c1.53,1.23,4.42.59,6.37-.7,1.74-1.15,2.46-1.49,3.87-1.25,1.72.29,1.65-.38.9-1.23s-2.92-.66-4.66.49c-3.86,2.55-5.25,3-6.37,1.59s.22-3.38,1.63-2.34c1.17.8,1.15.19.66-.34-2.77-2.36-4.79,1.85-2.4,3.78Zm-13.56,1.2a21,21,0,0,0,6.61,6l0,.46-9,0A60.9,60.9,0,0,0,88.19,63.13ZM57.56,69.55c-.18,3.71.48,5.89,2.66,8.48,2.31,2.77,2.15,7,.64,9.71-.65,1.18-2-.27-1.36-1,.9-1.13,1-3.88.53-5.59-1-2.85-3.11-4.24-4-7.24a18.46,18.46,0,0,1-.2-3.6Zm2.84.31c.15,0,.42.15.78.46,1.29,1.11,1.06,4.28-.4,6.3-.44.61-.81.43-1.25-.13s-.38-.63.1-1.63a6.73,6.73,0,0,0,.58-3.59C60.13,70.33,60.17,69.9,60.4,69.86Zm83,1.09c1.13,0,2.54.23,2.67.63s-.13.9-.78,1.17c-1.65.7-3.84-.28-3.28-1.47C142.11,71.07,142.69,71,143.37,71Zm-2.86.28a1.66,1.66,0,0,1,.77.16c.54.28-.31,2.18,2.39,2.15.65.09,1.12-.06,1,.23-.13.44-1.29,1.1-2.55,1.28-3.75.56-3.59.37-3.41,3a9.27,9.27,0,0,1-.25,3.35c-.4,1.82-.57,3.57-.29,3a14.73,14.73,0,0,0,1.3-4.59c0-2,.72-2.45,1-1,.12,1-.32,1.52.34,2.53.38.56.55.55.31,1.43a1.3,1.3,0,0,0,.19,1.38c.27.39.55.49.31,1a1.7,1.7,0,0,0,1.4,2.41c.53,0,.67.28.51.47a2.32,2.32,0,0,1-1.29.6l-11.93-7.6s.89-1.76,1.16-2.24c1.7-3.75,3.07-5.46,8.08-7.42A2.19,2.19,0,0,1,140.51,71.23Zm6.34,2.46a1,1,0,0,1,.84.5c.73,1,.09,2.11-1.71,3.14-1.54.87-2,1-2.32-.4a1.87,1.87,0,0,0-.41-.67c-.35-.33-.27-.59.19-.83.21-.12.9-.41,1.45-.77A4.64,4.64,0,0,1,146.85,73.69Zm-5.08,2.71a2,2,0,0,1,1,.29.85.85,0,0,1,0,1.39c-1,.39-2.47-.13-2.34-1C140.54,76.63,141.14,76.39,141.77,76.4Zm6.13,1a.9.9,0,0,1,.82.48c.56.86-.09,1.73-2,2.66-1.25.62-2.83.87-2.72.51a4.68,4.68,0,0,0-.56-1.92c-.07-.24,0,0,1.59-.52a9.47,9.47,0,0,0,1.58-.67A2.53,2.53,0,0,1,147.9,77.37ZM58.42,79.61a7.46,7.46,0,0,0-.6,5.24c.35,1.84.75,2.76,2.64,5.48,1.44,2.07,1.9,2.87,1.56,3.53-.24.35-.79.68-1.14.33-.7-.91-1.13-2-1.81-3-2.64-3.87-2.82-4.85-3.16-7.91-.15-1.39.65-4.37,1.34-4.81S58.66,79.14,58.42,79.61Zm61-1A6.28,6.28,0,0,0,117.88,81c.08.56.52.19,1.72-1.55C119.9,79.06,119.7,78.61,119.42,78.64Zm22.74,1c1.05,0,1.42,1,1,1.47a1.14,1.14,0,0,1-1.93-.83C141.18,79.8,141.38,79.59,142.16,79.6ZM148,80.94c.6,0,.68.63.36,1.49s-.89.94-2.34,1.4c-1.74.54-2,.46-2.27-1.14-.1-.6-.06-.48,1.55-.9a18.55,18.55,0,0,0,1.92-.68A2,2,0,0,1,148,80.94Zm-102.73.72.43,3.23.69-2.42Zm97.08,1.09c.85,0,1.32.76.88,1.22a1.15,1.15,0,0,1-1.15.11C141.41,83.58,141.53,82.73,142.37,82.75Zm-26.15,1.67,1.68,1-13.55,21.35-1.62,0-.15-.35Zm30.74.22c1,0,1.09.93-.12,1.79a2.85,2.85,0,0,1-1.48.41c-.61,0-1-.13-1.06-.55-.27-1-.42-1.27.51-1.21a2.91,2.91,0,0,0,1.11-.18A2.54,2.54,0,0,1,147,84.64Zm-4.14.92c.7,0,1.13.74.66,1.12s-1.29.18-1.28-.51C142.21,85.73,142.32,85.57,142.82,85.56ZM45.33,87.08l-3.69,3.25c1.35,1.6,2.49,3.19,3.66,4.86Zm74.54.21c1.6-.07,2.13.7,1.36,1.23a4,4,0,0,1-3.08.49c-1.55-.29-.32-1.53,1.38-1.7A2,2,0,0,1,119.87,87.29Zm-1.7,2.31a4.23,4.23,0,0,1,1.42.28c1,.36,2.35,1.45,2.3,2.05-.1,1-2,.48-3.45-.94C117.49,90.13,117.46,89.62,118.17,89.6Zm-1.41,0c.91.09,1.81,3.14,1.11,4.09s-1.91-1.07-1.68-2.63c.09-.62.24-1.44.49-1.46ZM57.5,90.3c.51.12,1.17.82,1,1.36-.1.22-.32.15-.55.1a1.24,1.24,0,0,1-.66-1.25C57.36,90.37,57.41,90.3,57.5,90.3Zm68.75.51,2.67,1.81-2.67.11Zm-11,3.66c2,0,2.47.68,1,1.47a4.92,4.92,0,0,1-3,.12C111.91,95.62,113.43,94.46,115.22,94.47Zm16.53,1.37.14,1.85-5.12.44-.27-1.92ZM114,96.76a3.56,3.56,0,0,1,1.67.52c1.4.72,2.19,1.93,1.47,2.3s-1.82-.06-2.64-.92C113.42,97.52,113.33,96.81,114,96.76Zm-1.74,0c.93.06,1.75,2.6,1.13,3.88-.33.69-.76.54-1.37-.6s-.61-3,.06-3.25A.57.57,0,0,1,112.26,96.76Zm-66.75.73L43.26,102l4.07,3.53ZM132.38,101l.36,1.79-4.92,1.2-.48-1.94Zm-21.51.36a2.33,2.33,0,0,1,1.48.44c.45.39.35.58-.71,1-1.89.78-4.21.31-2.88-.83A3.37,3.37,0,0,1,110.87,101.31Zm32-.11c-1.88,1.25-.06,2,1.27,1A2,2,0,0,0,142.87,101.2Zm-33.38,2.53c1.35,0,4,1.89,3.42,2.77-.3.49-2.07.07-2.77-.61-.91-.88-1.41-2.06-.89-2.15Zm-1.7.08c.7-.13,1.81,3.1,1,3.93-.32.31-.41.29-.93-.17a2.87,2.87,0,0,1-.24-3.59A.32.32,0,0,1,107.79,103.81Zm41.35,1.7a2.07,2.07,0,0,0-.65-.69C141.94,107.33,143.61,109.71,149.14,105.51Zm-15.5.23.65,1.81-5,2-.72-2Zm-84.85,3.4-1.68,4.42a12.84,12.84,0,0,1,5.14,1.63Zm86.51,1.3,1.06,1.77-4.67,2.52-.93-1.87ZM26.88,113.9l1.92,1.35L26,118.74l-.25-.49,0-2.89Zm111,1.09,1.12,1.63-4.49,3.12L133.37,118ZM31.7,117.08l2.07,1.58-3.26,3.93-2-1.5Zm22.7,1-.09,4.72,4.85.19Zm56.14,2.12,5.52,3.17-.84-4.85C113.79,118.79,111.93,119.74,110.54,120.18Zm30.32-1,1.3,1.6L138,124.27l-1.34-1.66Zm-105,1.4,1.93,1.78L34.44,126l-1.79-1.67Zm108.49,2.59,1.49,1.51-3.79,3.94-1.49-1.52ZM40.29,125.1l1.49,1.73-3.87,3.07-1.43-1.75Zm22.31.42,1.08,4.63c-.07-.34,4.82-1.38,5.47-1Zm57,.38,4.62,4.88.51-4.7Zm28.58.77,1.67,1.29-3.09,4.41-1.9-1.48Zm-104.59,3,1.38,2L40.93,134l-1.15-1.75Zm109,.46.26.26v3.14l-1.29,1.88-1.75-1Zm-26.15,3.54,4.08,7.42,1.15-5.54a11.71,11.71,0,0,1-5.23-1.88Zm-79.59,1,1,2.14-4.28,2-1-2.12Zm2.32,5.12.79,2.15-4.56,1.5-.72-2.07Zm-20.38,3.89,1.43,1C37.61,140.73,35.3,139.58,28.79,143.62Zm41.79-2.47c.28,0,.6.35.86,1.21.4,1.29.19,2.88-.68,2.85-.59-.07-.81-1.58-.81-2,0-1.29.27-2,.63-2Zm4.07.77,1.76.18v.49l-14,22.23-1.7-1.08Zm-7.57.51a3.31,3.31,0,0,1,2.11,1.16,3.78,3.78,0,0,1,1,1.78c0,.22-.39.14-.74.08a4.21,4.21,0,0,1-2.74-1.56c-.54-1-.24-1.46.38-1.46Zm64.49.8,1.87,9.1c.58-2.28,1.8-3.59,2.71-5.37A13,13,0,0,1,131.57,143.23ZM51,145.07l.44,2.36-4.72,1.1-.49-2.28Zm17.63.82h.2c1.73.2,2,.58.81,1.36-.7.47-2.61.55-2.92,0s.9-1.39,1.91-1.39Zm-34.29,1.37,1.46.86C38.29,146.3,35.55,146,34.32,147.26Zm31.8.8c.53,0,.85.94,1,1.81a2.68,2.68,0,0,1-.08,2c-.39.52-.78.6-1.1.09C65.05,150.49,65.08,148,66.12,148.06Zm-3.9,1.36a2.55,2.55,0,0,1,.91.19c1.22.47,2.85,2.34,2.16,2.59-1,.38-3.23-.74-3.65-1.86-.19-.54,0-.9.58-.92Zm-10.1,1.51.12,2.32-5,.2-.15-2.31Zm12.16,2a3.4,3.4,0,0,1,1.38.23c.71.3.19.85-1,1.28a3.19,3.19,0,0,1-2.36,0C61.32,153.68,62.83,152.93,64.28,152.89Zm-38.47.27c3.41,2.07,10.46,6.66,10.46,6.66a2.83,2.83,0,0,0-1,.59,3.18,3.18,0,0,1-.77.49,5.58,5.58,0,0,1-1,.25c-2.2.47-3.27,1.71-2.59,3.26.27.6.34.5-.12,1-1.31,1.24-1.15,1.62-.69,3.2,0,.24-1.56,2.15-.17,3.59.77.67.8.25.53,1.76a1.56,1.56,0,0,0,1.47,1.92c.74.33.73.21.47.84-.18.9.07,1.27.7,1.59s.8.45.41.77c-4.41,2.25-5.78,6.17-1.61,12,.49.69,1.73,2.6,1.73,2.6-1.4,2.08-2.75,3.8-4.18,5.65l4.17,5.81a43.44,43.44,0,0,0-3.22,5.32c-1.46,3.18-.5,7.64,3.7,9a5.44,5.44,0,0,0,5.66-1.62,7.28,7.28,0,0,0,.77-7.12,28.49,28.49,0,0,0-3.63-5.78l4.47-5.6s-3.08-4.42-4.31-6c8.37-10.22,1.54-13.07.22-14-.2-.14-.16-.79-.16-.79,7.53-.87,10.09-5,12.3-10.21,4.49,2.88,10.91,6.77,15.41,9.8.42.39.72.64.65.87a8.39,8.39,0,0,0-.23,1.86c.21,1.35.1,2-.45,2.49s-.41.7-.33,1.23c.14.91.28,1-.13,1.47s-.68.84-.58,2.22a4.55,4.55,0,0,1-.05,1.92c-.27.63-1,.94-2,1.73-1.77,1.38-1.52,1.8.91,6.81,2.07,4.26,2.3,5.24,1.51,6.76a7,7,0,0,0-.82,4.06c0,.47.06,1,0,1.21,0,.59,0,.53-.34.89a11.69,11.69,0,0,0-1,1.27c-2.9,4.32-10.5,15.44-10.5,15.44H25.81Zm35.91,2c.29,0,.66.51,1.07,1.6a2.49,2.49,0,0,1-.17,2.12c-.76.82-1.81-1.11-1.48-2.66C61.29,155.54,61.48,155.19,61.72,155.17ZM133.61,154c0,3.94-.08,9.05-1.43,12.83l1.54.69c-.5-3.88.11-7.05,3.68-8.72a12.46,12.46,0,0,1-3.79-4.8Zm-75.73,2.48a1.18,1.18,0,0,1,.42.08,4.23,4.23,0,0,1,1.7.93c.74.74,1.5,1.63,1.29,1.72-1.2.53-4.28-1.09-3.87-2.35A.48.48,0,0,1,57.88,156.49Zm-5.37.17,0,1.94-3-1.89Zm67.86.92c.48,0,1.23.67,1.11,1.1s-.46.43-.79-.07S120.1,157.62,120.37,157.58ZM60.15,160c.71,0,1.35.15,1.42.52s-.56.81-1.23,1c-1.68.51-3,.18-2.49-.65C58.14,160.32,59.23,160,60.15,160ZM119,162.16c-.72,1.27-.81,5.36.45,7,2,2.15,3.77,5,3.57,8.7l-1.88.84c.1-3.08,0-5.08-2.41-7.72-2.87-3.12-2.19-8.5-1.2-10.07C118.35,159.38,119.57,161.59,119,162.16Zm-82.42-1.69c.6,0,1.34.32,2.66,1.19,3.41,2.41,5.25,3.34,8.63,5.72.49.46.47.4.39.77a12.44,12.44,0,0,1-10.59,9.55c-.63.08-.3-.32-.69-1.1A2.07,2.07,0,0,0,35,175.45c-2.3,0-.34-1.3,2.46-1.68a5.12,5.12,0,0,0,2.64-.82c.12.07-.48-3.85.15-5.23.31-1.23,0-1.84-.33-1.07a13.08,13.08,0,0,0-.68,3c-.15,1.08-.37,1.23-.62.7a1.9,1.9,0,0,1,.07-1.27c.2-1-1.09-1.8-.83-2.74a1.66,1.66,0,0,0-.45-1.94,2.2,2.2,0,0,1-.18-1.23,2,2,0,0,0-1.36-2c-.39-.19-.27-.41.13-.6a1.4,1.4,0,0,1,.55-.15Zm-2.79,1.4a2.81,2.81,0,0,1,.65.07c.45.27.81,1.83.31,1.89a10.27,10.27,0,0,0-1.21.23c-1.53.44-2.24.38-2.21-.48S32.59,161.89,33.78,161.87Zm2,.15c.61,0,1.09.7.71,1.09a.69.69,0,0,1-1.14-.46c0-.29.14-.61.43-.63Zm.41,2.44a1.5,1.5,0,0,1,.58.12c.55.26.88,1.21.51,1.56a1.31,1.31,0,0,1-1.45-.18C35.12,165.34,35.48,164.48,36.22,164.46Zm-1.89.14c.34,0,.59.12.66.35s0,.39,0,.69c.15.45.44.81.18,1-1.16-.07-3.59,1.4-4.28,1.32s-.66-.61-.15-1.49a5,5,0,0,1,3.54-1.86Zm.71,2.83c.25,0,.29.13.19.5a2.62,2.62,0,0,0,.17,1.3c.19.44.55.69.36.86s-1.31.29-2.15.6c-1.08.6-4.14,2.41-3.38-.49.25-1,1.36-1.63,3.33-2.33A8.21,8.21,0,0,1,35,167.43Zm1.6,0a1.25,1.25,0,0,1,1.26.78c.7,1.4-1.33,1.6-2,.43-.39-.69.11-1.16.72-1.21Zm.38,3.27c1,0,1.87,1.32,1.1,1.82a2.59,2.59,0,0,1-1.92.12c-1-.43-.52-1.94.82-1.94Zm101.16,0A78.47,78.47,0,0,0,153,176.24v52.14H116.73l-9.93-17.27s-.33-.57-.44-.82a1.9,1.9,0,0,1,0-1.33,29.72,29.72,0,0,1,2.24-5.1c2.4-4.39,5.8-9.21,4-13.42-.2-.49,1.9-3.1,1.9-3.1,3.26.27,6-1.85,5-6.86,6.79-2.78,12.4-5,18.72-9.72Zm-103,.27c.1,0-.19,1.14.39,1.83.36.55.3.53-.92,1a7.28,7.28,0,0,0-1.17.84c-1.75,1.56-3.49-.47-1.78-2.12A6.28,6.28,0,0,1,35.14,171Zm83.1,1.07c.59.11,1.35.89,1.09,1.31a6.32,6.32,0,0,0-.94,3.56c-.09,1.59.19,1.83-.41,1.55-.4-.19-1.14-.49-1.31-.9C116.29,176.67,117.27,171.93,118.25,172.1Zm-83.66,4a2.15,2.15,0,0,1,1.71.7c.32.4.36.76,0,.93-.75.4-3.26.19-3.39-.32C32.75,176.61,33.62,176.13,34.59,176.11Zm37.92,1A25.55,25.55,0,0,1,81.9,179a17.69,17.69,0,0,1,8.16,6.86c.24.48-.24.49-.66.53a5.08,5.08,0,0,0-2.28,9.25,4,4,0,0,0,2.24.69c1-.09-4.44,10.33-6.61,16.83-6.7-.28-11.78.75-18.32-1.49-.71-1.18-.54-3.74,0-5.08s1.09-2.15.79-3.54c-.52-2.42-2.73-5.58-3.47-7.58-.66-1.53-.6-2.1.53-3a9.07,9.07,0,0,0,2-1.76c.33-.49.19-.6.2-1.69,0-1.33,0-1.11,1.07-1.31a7.86,7.86,0,0,0,2-.73c1.44-.75,2.43-.73,3.28-.25.37.1.33-.27.47-.78a4,4,0,0,0,.22-.68c0-.22-.51-.16-1-.08a11.53,11.53,0,0,1-4.69.05c-.75-.28-.75-.79-.31-1.62a2.65,2.65,0,0,0,.5-2.3c-.2-1.95.07-2.37,1-3,1.12-.84,3.19-1.2,5.56-1.2Zm11,1.72h10a25.44,25.44,0,0,0-2.68,6.29c-.1.19-.19.36-.42.12A20.59,20.59,0,0,0,83.56,178.84Zm-8.24,7a10.28,10.28,0,0,0-4.55,1.67,5.14,5.14,0,0,1-3.64.93c-.78-.13-.87,0-1,.22-.45,1.12,1.23,2.33,2.92,1.53.5-.2,4.29-2.16,4.49-2.34a8.26,8.26,0,0,1,2.22-.64,1.82,1.82,0,0,1,1.87,2.13c-.21,1.52-2.35,1.59-2.5.24-.11-1-.55-.58-.59-.07a2.6,2.6,0,0,0,.69,1.65c1.81,1.13,4.22-1.07,3.06-3.34A3.08,3.08,0,0,0,75.32,185.83Zm-8.16,5.28a30.18,30.18,0,0,1-3.37.83c-1.09.24-1,1.11-.33,1.57.52.35,1.19.15,3.1-1.08a1.63,1.63,0,0,1,2,2.58c-.94.8-.29,1,.35.53,1.7-1.26.73-4.9-1.74-4.43ZM73,197.53a1.55,1.55,0,0,0-.69.17,7.73,7.73,0,0,0-3.17,2.24,3.14,3.14,0,0,0-.11.79c0,.2-.21.46-.18.6s.43.25.49.36a5.74,5.74,0,0,1,0,2.5c-.07.4-.68.53-.92.77-.79.81-.59,1.06.25.73.6-.22.34-.63,1.81-.34a6.86,6.86,0,0,0,4.9-1c1.66-.92,2.26-1.44,2.34-1.33s0,.28-1.16,1.25c-3,2.46-5.17,3-6.83,2.12-.49-.33-.89-.48-.51.26a2.81,2.81,0,0,0,.73.52c1.71.77,3.85.13,6.58-2,.6-.47,1.14-1,1.83-1.58,2.27-1.88,1.68-2.76-.88-1.84-.82.3-1,0-2.12-.44a8.2,8.2,0,0,0-3.62-.65c-1.46,0-1.68.12-1.69-.13a4.11,4.11,0,0,1,2.09-1.9C73.12,198.15,73.43,197.55,73,197.53Zm2.7,4.66c.27.26-.12.44-1.18.95a8.81,8.81,0,0,1-1.22.52c-.1.17-1.1-2.07-.82-2.18A7.36,7.36,0,0,1,75.7,202.19ZM71.87,202a7.34,7.34,0,0,1,.53,1.53c0,.15.13.37-.11.37s-.5,0-.61-.14a4.43,4.43,0,0,1-.42-1.89C71.44,201.57,71.76,201.75,71.87,202Zm8.68,4a1.44,1.44,0,0,0-.51.23c-4.2,2.48-9.25,3.76-12.49,2.55-1.1-.41-1.3-.27-.89.48a2.75,2.75,0,0,0,1.65,1.36c2.66.72,6.91-.34,10.21-2.48,1.33-.9,2.42-2.15,2-2.14Zm24.77,6.65s8.15,15.3,8.87,16l-60.48-.25L63.89,214c.1.81,24.59,4.17,41.43-1.36Z"/><path id="path4035-6-4-6" class="cls-3" d="M54.1,228.37,63.86,214c14.45,2.74,27.45,1.28,41.67-1.25l9.48,16Zm76.58-53.65-.06-8.55,3,1.11c-1-4,1.57-8.14,4-8.3-7.6-5.73-1.29-11.85-1.41-12-8.33-4.29-4.15-10.86-4.73-11.46-10.14-2.63-6.19-10.65-7-9.82-5.89,1.77-9.15-3.17-9.25-7.18-5.11,2.88-13-1.21-10.52-5.8,0,0,2.71,1.28,3.18,1,4.16-3,3.84,1.32,4.71,2.26,3.11-.44,5,1.92,5.72,3.08,4.6,0,4.4-1.09,4.45,3.34,3.46.88,3.32,2.74,5.33,5.29,4.36,0,3.62,1.47,2.63,3.87,3.14,2.5,3.4,4.46,3.91,6.73,3.42,1.23,4,1.73,1.8,4.62,3,4.53,1.57,7.15,2,7.39,3.78,2.71,1.88,3.7.24,4.75.57,3.6,1,4.13-.3,7.81,4.34,3.08-.7,4.45-.95,4.38v3ZM25.75,152.44l-.09-10.59L62.4,165.54l-4.64,7.27ZM74.55,168l8.68-18.15L80.12,130.1l24.88.55c2.8,6.35,4.49,11.75,11.66,22.24l-7.58,2.35.27,12.72Zm21.3-4.78a2.4,2.4,0,0,1-.36-1.12c.1-.31.33-.29.63-.13,1.06.52,2.11,1,2.9,0a1.38,1.38,0,0,0,0-1.64c-.6-1.22-2.48-.34-3.1-.3s-.82-.48-.34-1.18a1.91,1.91,0,0,0,.52-1c.32-2.77-4.41-1.79-2.77.9.75,1,.32,1.6-.79,1a1.81,1.81,0,0,0-2.83,1.41,1.68,1.68,0,0,0,2.6,1.13c.27-.15.49-.32.68-.41.54-.24.93,0,.75.57-.5.77-1.06,1.86-.59,2.58a1.76,1.76,0,0,0,2.7.29,1.7,1.7,0,0,0,0-2Zm57.4-55.6-36.8-23.81a49.64,49.64,0,0,0,4.89-7.69l31.95,20.5ZM95.71,99.6l3.76,19.22-25.7.36c-1.42-6.45-10.24-21.05-10.21-20.81l6.86-16.79,34.09,0Zm-9.65-7.16c.65-.59.62-1.51-.11-2.52s-.39-1.71.73-1a2.86,2.86,0,0,0,2.26.28A1.5,1.5,0,0,0,90,87.37c-.15-1-1.28-1.31-2.5-.87-.34.08-.56.37-.86.5-.66.28-.91-.49-.32-1.51a1.55,1.55,0,0,0-1.24-2.43,1.53,1.53,0,0,0-1.54,2.17c.75,1.16.21,2-.89,1.19-1.58-1.12-3.64.3-2.78,2,.4.81,1.76,1,3,.51,1-.43,1.32.07.69,1.1-1.26,2.13.81,4,2.52,2.44ZM48.78,73.57,48.5,83.82a17.78,17.78,0,0,1-3.42-2.34,7.37,7.37,0,0,1-3.45,8.76c5.88,5.5,2.7,9.36,1.74,12A8.52,8.52,0,0,1,47.1,113.7c7.4,0,7.25,6.5,7.47,9.19,9.15-.57,7.93,6.73,9.13,7.35,4.44-2,9.61-1.29,11,4.66.9,3.38-2.37.12-3.79.26-5.06,3.14-4.08-1.64-4.36-2.31-4.2.39-4.76-1.6-6.6-3-4.53.87-4.15-.61-3.88-3.36-3.56-.73-4.33-2.94-5.74-5.1-4.9.15-2.91-3.3-2.88-4-.6-.53-3.41-3.29-3.56-6.45-5-1.42-1.87-4-1.68-4.83-1.9-2.37-2.4-4.11-1.76-7.09-4.47-2.09-.74-4-.43-5.21-1.46-3.88-.4-5.06.18-7.15-2.88-3.36-1.16-3.18.94-5.22.27-.37-.46-2-.43-3.06ZM74.59,35.62l-8-14.39h57.54s-6.26,8.66-8.69,13C101,32,87.61,33.05,74.59,35.62Z"/><path id="path4039-1-1-4" class="cls-4" d="M34.42,219c-5-1.13-5.9-7.46-1.17-12.73a4.33,4.33,0,0,0,.64-1.09c-1.64-2.52-2.4-3.41-4.06-5.92,1.48-2.22,3.2-3.92,4.3-5.86-.07-.34-.56-.67-1.15-1.53-3.43-5-3.8-7-2.06-10a4.93,4.93,0,0,1,7.9-.66c2.56,2.67,2.44,5.1-.88,10.05-.74,1.09-1.26,2.07-1.26,2.07.91,1.86,2.48,3.57,4.07,5.91a55,55,0,0,0-4.28,5.62,2.32,2.32,0,0,0,.42.78c5.29,6,4.88,12.85-1.11,13.43A6.28,6.28,0,0,1,34.42,219ZM77,142.73c-.14-.22-19,30.28-19,30.28l2.15,1.39,18.06-28.2c.28.21.54.46.49.8,0,0-14.88,24.2-17.37,28.06a35.44,35.44,0,0,0,3.81,2.33c5.54-2.73,28.62-.37,44-1.31.06,0-.23,5.37-.23,5.37s-3.5-4-4.2-4.06c-3.49-.12-7.15,1.35-9.78,1.2-1.69.52-3.59,6.62-4,8.14-3-.36-6,2.83-5.3,5.8,1,3.3,2.72,3.05,4.56,3.1-.17,3.72-6.77,13.56-6.8,18.4,7-.55,14.53-.67,21.74-2.84a68.42,68.42,0,0,1,6.12-12.88,10.55,10.55,0,0,0,1.22-6.75c-.3-2,.58-2.54,1.36-3.95.48-.89,2.24-.85,2.47-.92,4.59-1.32,3-7.23,1-8.29-2.43-1.31-5.86.73-7.18-1.94s-.94-8.64-.94-8.64l-34.6.15S84.27,149.44,84,149.3c-2.68-1.44-7-6.53-7.06-6.57ZM53.82,159.6c.16-1.87.46-32.33-28.37-47.47l.16-4c.17-.2,26.23,11.74,30.7,42.75l8-12.58,3,1.17c-4.4,6.55-13.09,22.47-13.5,20.14Zm-17.51-11c1.2-3.51-.76-1.65-2.53-1.79-1.21-.65-2.41-1.51-3.53-2.26,8.42-4.46,3.41-4.23-1.5-1.1-1.28-.69-2.88-2.2-3-2.07,9.51-6.1,5.94-6.22-.14-1.81.21-4.15.06-2.59.15-4,5.18-5.55.35-2.53,0-2.46-1.27-5.53,4.84-4.38,5.39-.19,1.07.79,3.18,1.79,3.81,5.22,2.93,1.86,2.63,3.4,2.48,5.65,1.14,1.13,4.12,3.52.65,5.72ZM25.37,123.37l.19-3.06c.4-1.25,22.64,14.59,21,34.92.27-.15-2.46-1.41-3.24-2.11C43.36,138.15,27.44,125,25.37,123.37Zm127.55,17.17c-14.83-6.78-28.93-23-29.66-44.2l-8.38,14-3-1.25c.28.23,6.64-11.54,13.18-19.67,1.84,26.7,12.32,39.1,28.22,48.11Zm-77.7-9.75C60.85,129,40.05,109.48,46.26,83,47.14,80.29,61,95.2,61,95.2c.09-.68,12.47,19.24,12.13,23.14,10.45,3,30.86.15,30.86.15,17,3.78,34.7,22,28.3,48a75.5,75.5,0,0,1-8.27-6.4c-11.46-11-15.09-20.13-19.15-30.14-14.66-1.32-28.4,1.3-29.65.83Zm77.84-22a31.28,31.28,0,0,1,.14,4c-3.83,4.15-4.22,4.24.57,2.89-.59,4-3.54,4.64-5.3,3.29-.64-.51-.64-3.25-.64-3.25-2.91-.73-3.9-1.59-3.49-4.72-3.35-.39-3.21-2-2.94-5.42-3-1.7-2.29-4.43-.48-5.6l1.5,1c-.49.42-.25,3.13,2.42,1.12,0,0,2.14,1.77,3.16,2.45-7.74,5-3.05,3.87,1.71.62.89.6,2.11,1.6,2.74,2C146.19,111.72,144.14,115.48,153.06,108.74Zm.38,16.85-.26,3.57c-15.26-9.31-19.39-21.59-20.52-34.68,0,0,2.06,1.51,3,2.12,1.35,16.89,16.85,28.28,17.79,29ZM69.86,81.3l36.59.24-9.7,18.51,5.12,6S114.58,86.32,121,76l-2.21-1.32-18.24,28.61-.73-.8,18-28.59c-1.07-.7-3.12-1.83-3.12-1.83s-31.15.49-44.69.44a35.25,35.25,0,0,0,.53-5.18c2,2.87,4.13,5.41,8.79,2.61,0,0,5.5.18,5.71-.08a75.12,75.12,0,0,0,3.26-8.37c5.31-.36,4.78-2.92,5.38-3.75-.4-7.53-4.64-3.48-4.27-6.22,1.2-4.87,7.31-15.94,6.53-16.89-1.58-1.05-17.22,2-21.78,2.58-.42-.16-2.65,7.09-5,10.18-2.55,3.38-3.46,7-2.15,10.41-1.35,3.75-3.94,3.37-6,4.42-2.35,2.54-1.71,6.44.54,8,1.56,1,4,1,6.4-1Zm72.7-26.19-4.28-5.74,4.15-6c-1.63-2.6-4.34-6.56-3.86-9.7,1.05-6.24,9.48-5.32,10.22.65.4,2.76-1.63,6.17-3.67,9.05,1.35,2.47,1.93,2.86,3.9,5.7-1.16,2.05-4,6.09-4,6.09,1.78,3,4.25,6.28,4.06,9.32-.18,2.61-3,5.24-5.69,4.69C135.11,67.39,139.73,58.58,142.56,55.11Z"/><g id="g4049-4-4-2"><path id="path4033-2-3-3" d="M65.16,20.57c2.27,4.25,8.71,15.72,8.71,15.72,15.32-3.17,28.21-4,41.74-1l9.68-14.65Zm2,.87h2.76L75.35,32.6l9.38-1.87-1.6-9.27h2.65l1.34,8.91L100.89,30l1.79-8.59,2.54,0L103.4,30.2l10.9,1.46,5.34-10.24h3.66l-8.1,12.64a96.26,96.26,0,0,0-40.79,1.08Zm5.23,0h8.08L82.41,29a18.16,18.16,0,0,1-6,1.28A94.93,94.93,0,0,1,72.39,21.43Zm15.59,0h12.31l-1.05,6.41-10.33.32Zm19.51,0H117l-3.74,7.79-7.16-1Zm36.11,7.8a6.73,6.73,0,0,0-1.54.14c-2.46.52-3.75,2.4-3.77,5.48,0,1.41,1,3.91,2.61,6.27a19.6,19.6,0,0,1,1.28,2.2l-4.13,6.05,4.39,5.73s-.68.79-1.1,1.37c-2,2.85-2.94,5.5-2.81,7.68a5.44,5.44,0,0,0,4.09,5,5.27,5.27,0,0,0,4.79-1.33,5,5,0,0,0,1.66-3.78c0-2.15-1-4.77-3.09-7.62a9,9,0,0,1-.84-1.38s2.91-4.13,4-6l-4-5.7c3.17-4.75,3.81-5.79,3.89-8.71A5.37,5.37,0,0,0,143.6,29.24Zm-.4.35h.42c3.61.28,5.52,3,5,6.4-.49,3.28-3.46,6.34-3.93,7.4a64.58,64.58,0,0,0,4.11,5.6c-1.13,2.07-4.08,6.08-4.08,6.08a4,4,0,0,0,.36.59c3.08,4.34,3.91,6.4,3.71,9A4.8,4.8,0,0,1,145,68.93a5.22,5.22,0,0,1-6.18-4.76c-.2-2.68,1.55-5.3,2.89-7.34.57-.86,1.06-1.67,1.06-1.67l-4.37-5.74c1.34-2.11,3-4.18,4.26-6,0,0-.65-1-1.26-2-2.4-3.78-3.07-5.71-2.69-7.81A4.62,4.62,0,0,1,143.2,29.59Zm.33,1.92A3.58,3.58,0,0,0,140.41,34c-.72,2.67,2.08,6.7,3.37,7.79,2.38-2.75,3.93-5.84,3-8A3.74,3.74,0,0,0,143.53,31.51Zm.32.87c2.42.06,3.32,2.92,1.47,6.18a20.67,20.67,0,0,1-1.59,2.28s-.88-1.1-1.43-1.93c-2.16-3.38-1.6-6,1.06-6.49A2.85,2.85,0,0,1,143.85,32.38ZM95.71,33.87a111,111,0,0,0-22.24,2.77,28.35,28.35,0,0,1-4.84,11.15c-2.1,3.43-2.87,6.41-2.16,8.47s-1.13,4.78-3.1,5a4.12,4.12,0,0,0-4,4.36c-.06,3.88,2.63,6.28,6.28,5a.81.81,0,0,1,.62.2L66.07,93a15,15,0,0,0-5.18,1.7,56.34,56.34,0,0,0-8.45-8.14c-.07-5,.13-9.94-.09-14.9a59.06,59.06,0,0,0-10.81,5.87c-1.08.73-1.18,1.13-.78,3,.24,1,.17,1.14-.67,1.34-1.75.42-2.29,3.2-.81,4.14.69.44.69.46.25,1.46a8.14,8.14,0,0,0,0,5.76c.4.7.38.93-.17,1.28-1.85,1.21-1.73,3.78.21,4.26.5.12.63.34.47.75-.6,1.57-.05,3.94,1.33,5.74.73.94.72.92.25,1.35a2.42,2.42,0,0,0,1.4,4.2c.73.09.73.09.81.65a8.2,8.2,0,0,0,.72,2.8,6,6,0,0,0,2,2.37c.83.64.83.65.38,1.59-.81,1.74.48,3.48,2.53,3.4,1.06,0,1.06,0,1.13.33A6.28,6.28,0,0,0,55,126.15c.91.16,1.07.38.74,1.14a1.87,1.87,0,0,0,1.09,2.7,2,2,0,0,0,2,.13c1-.36,1.06-.36,2,.83a4.3,4.3,0,0,0,4.19,2.12c1.38,0,1.43,0,1.44,1a2.27,2.27,0,0,0,4,1.59c.57-.61.57-.6,1.07-.23,2.21,1.61,4.18,2,4,.51a9.54,9.54,0,0,0-3-5.7l3.21.84c.14,3.74.27,8.25,1.05,11.37L62.47,165.19s-.86-.53-1.78-1.16c-1.35-.92-3-2-4-2.64A12.33,12.33,0,0,1,55,160.24c-.5-.42.31-1,.47-1.41,3.3-5.86,8.44-12.91,12.2-19.77L64,137.65c-2.77,4.37-4.82,7.88-7.41,11.9-2.58-18.86-15.76-35.42-31.72-42.38l.06,4.94a51.89,51.89,0,0,1,28.38,47,18.69,18.69,0,0,1-3.21-1.93c-1-.63-2.87-1.89-3.1-2,.77-23.05-22.13-36.68-22.17-36,0,0-.14,3-.21,4.37,9.76,6.52,17.43,18.38,18.2,29,0,.09-4.58-2.86-4.58-2.86a3.29,3.29,0,0,0,0-5.83c-.61-.27-.64-.41-.35-1.24.63-1.71-.52-4.27-2.11-4.7-.69-.18-.82-.37-.85-1.34a3.31,3.31,0,0,0-2.83-3.35c-.49-.1-.49-.11-.53-.72-.14-3.45-3.53-4.87-6.09-2.53a4.3,4.3,0,0,0-.58.76l0,3.75c.86-.48,2.19-2.1,2.74-2s.3.47-1,1.62c-.87.75-1.72,1.55-1.72,1.55l.06,4.94c1.44-.93,2.91-2,4.26-3,1.17-.81,1.77-1.08,1.9-.85s-.1.6-.76,1c-1.79,1.18-3.86,2.57-5.35,3.75v3.41l.29.42.09,3-.27.07v3.75l35.23,22.46,17.92-28.21.29.3-17.92,28.1a9,9,0,0,0,1.44,1c.71.4,1.6.92,2.37,1.43a1.9,1.9,0,0,0,1.65,1c.62-.67,3.32-1.39,3.57-1.69,10-.15,38.81.05,38.81.05l.16,4.6c-1.3-4.45-5.47-5.37-8.75-3.38H94.52s-3.18,5.73-3.65,8.71c-2.26-.3-5.28,1.89-5.44,4.13-.36,3.19,1.72,5.5,4.46,5a14.72,14.72,0,0,1-2,5.6,84.73,84.73,0,0,0-4.36,10.41c-.85,2.31-.56,2.74-.42,2.78a76.2,76.2,0,0,0,23.05-3.35s-.15-.54-.2-.85c-.28-1.23.76-3.75,3.7-9,2.27-4,2.91-5.56,3.15-7.46a7.54,7.54,0,0,0-.25-3,1.67,1.67,0,0,1-.11-.59,9.35,9.35,0,0,1,2.12-3.27s.67-.13.93-.14c4.15-.29,5.44-5.94,1.94-8.47a4.83,4.83,0,0,0-4.52-.65l0-21.87,2.53.09,2.77-1.36c4.47,3.8,7.37,7.69,12.18,10.6l-.08.2-3.58-2.44v14.32a64.91,64.91,0,0,0,11.7-7.13l-.75-.64,0-2.05c3.49.28,3.83-4.16,1-4.69a4.22,4.22,0,0,1,.35-.92,6.67,6.67,0,0,0,.35-5.37c-.39-1.14-.38-1.43.08-1.42,2.13,0,1.93-3.75-.23-4.56-.74-.28-.7,0-.54-2.38a5.6,5.6,0,0,0-1.61-4.47c-.49-.58-.46-.86.17-1.24,1.8-1.1.51-4.28-1.73-4.19-.87,0-.87,0-1-.84a6.88,6.88,0,0,0-3.14-5.36c-.52-.29-.59-.5-.29-.9,1.43-1.9.09-4.51-1.91-3.73l-.91.32c-.15,0-.29-.17-.58-1-.83-2.35-1.58-3.08-4.23-4.19-.53-.22-.56-.38-.32-1.44.4-1.86-2.14-3.57-3.51-2.37-.57.49-.59.49-1.21-.33a8.34,8.34,0,0,0-5.12-2.64c-.87-.08-1-.14-.94-.48a2.23,2.23,0,0,0-3.56-2.38c-.88.65-1.12.68-2,.17-1.91-1.07-2.73-1.1-2.93-.14a6.78,6.78,0,0,0,.3,2.34,5.89,5.89,0,0,0,2.37,3.29s-2.18-.61-2.72-.71c0-.06-.16-7.54-1.59-11.78l13.93-22.12,8,5.25-12.75,20.13,3.72,1.51s5-8.22,7.55-12.25c1.71,20,17.21,37.55,31.25,42.76-.05,0,0-2.88.1-4.29-14.82-6.52-28.91-24.7-28-46.53l6,3.8c1.73,17.49,9.36,27.75,22.1,36.43v-5.36c-8.77-6.48-16.07-14.93-18-28.47,0,0,3,1.88,4.3,2.77a4,4,0,0,0-.57.38c-1.59,1.32-1.11,4,1,5.56.34.25.34.25,0,1.1a3.22,3.22,0,0,0,2,4.17c1,.24.95.23,1,1.31,0,2.11.88,3.08,3.14,3.58.31.07.32.1.31,1.05a3,3,0,0,0,4.18,2.92,25.52,25.52,0,0,0,2.53-1.91V114s-.86.71-1.49,1.29c-1.11,1-1.45,1.15-1.45.53,0-.45.51-1,1.56-1.83a15.56,15.56,0,0,0,1.39-1.28v-4.36a3.33,3.33,0,0,1-.46-1.72,11.67,11.67,0,0,1,.16-1.28h.52v-5.06l-.64-.51,0-3.36L118.72,74l-18.19,28.85-.46-.53,18.16-28.61-4.82-3.09L110.5,72S90.35,71.72,70.68,72c0,0-.05-.54,0-2.07,0-1.92.1-2.2.46-1.39a5.07,5.07,0,0,0,5.06,2.81,4.86,4.86,0,0,0,2.91-.88c.54-.29.63-.3,3.16-.27,2.7,0,3.18-.09,3.19-.65A57.74,57.74,0,0,0,87.82,63c.27-.91.38-1.29.59-1.49s.29-.1.68-.13A4.09,4.09,0,0,0,92.54,60c2.5-2.5,1.08-7.6-2.55-7.61-1,0-.3-2.55,1.72-6.68a68,68,0,0,0,3.47-7.79,18.25,18.25,0,0,0,1.13-4Zm-.19,1.23c.5.43-.76,3.5-3,8.17a53.1,53.1,0,0,0-3.1,7.18c-.11.41-.28,1-.36,1.3a1.53,1.53,0,0,1-.71,1c-.3.21-.73.53-1,.71-.61.49-.75.33-.61-.64.28-1.83,1-3.8,2.68-7.22a73,73,0,0,0,3.64-8.63c.23-.69.33-1.4.71-1.66a2.41,2.41,0,0,1,1.71-.16Zm-2.72.19c.35.24-1.3,4.47-4.13,10.32-3.53,7.31-3.73,12.45-.54,13.7,2.52,1,5-1.78,3.5-3.79a1.8,1.8,0,0,0-2.91,0c-.3.55.12,1.17.66.41.78-1.12,2.36.18,2,1.49A2.36,2.36,0,0,1,89,58.86c-3.48-.7-2.82-5.59.78-5.86s5,4.37,2.51,7A4.06,4.06,0,0,1,89,61.29c-2.25,0-4.35-1.86-4.14-3.57a6.72,6.72,0,0,0-.19-4.08,3,3,0,0,1-.37-1.29c0-1.39,1.18-3.54,3.73-8.89a50.34,50.34,0,0,0,2.61-7.31c.19-.62.1-.79.32-.86A2.85,2.85,0,0,1,92.8,35.29Zm-3,.07c.53,0-.68,3.88-2.21,7.15-1.16,2.51-2.73,5.73-3.92,8.72-.38.63-.63.68-1.4.27s-.6-1.17,1.41-5.15a61.35,61.35,0,0,0,4-9.86,1.32,1.32,0,0,1,.57-1,3.29,3.29,0,0,1,1.57-.16ZM87,35.8c.27.37-1.55,5.56-4.4,11.4-.61,1.24-1,2.38-1.62,3.64a6,6,0,0,1-2,.56c-.59-.07,0-1.16,1.62-4.51,1.35-2.74,1.74-3.5,2.45-5.16.51-1.22,1.26-3.31,2-5.27.05-.15.11-.51.25-.58A2.19,2.19,0,0,1,87,35.8Zm-2.77.32a1.55,1.55,0,0,1-.1.59,47.39,47.39,0,0,1-2.21,6c-.09.28-.9,2-1.82,3.78S78.37,50,78.27,50.35s-.4,1.11-.66,1.78c-1.63,3.49.13,6.25,2.28,6.45,3.38.27,3.69-4.44,1.31-4.88a1.5,1.5,0,0,0-1.89,1.37c0,.54.6,1.16.6.4,0-1.41,1.93-1.35,2.18-.15.47,2.33-2.19,3.46-3.76,1.64a2.75,2.75,0,0,1-.52-2.38,3.1,3.1,0,0,1,5-2,4.27,4.27,0,0,1-1.94,7.68,4.48,4.48,0,0,1-4.11-1.18,5.22,5.22,0,0,1-1.28-3,9,9,0,0,1,0-2.32c.32-2.44,2.1-6,3.68-9,1.2-2.5,2.16-5.82,3.25-8.48.29-.26,2-.46,1.9-.11Zm-3,.33c.19,0-.75,2.94-2.06,6.06s-3.32,6.79-4.38,9.92c-.34.77-.59.75-1.53-.15-.51-.47-.22-1.17,1.53-4.76A76.34,76.34,0,0,0,79,38.31c.2-.61.35-1.37.75-1.61a2.36,2.36,0,0,1,1.56-.25Zm-2.71.69a54.25,54.25,0,0,1-2.83,7c-1,2.06-2,4.35-3,6.47-.54,1.3-.56,1.3-1.51,1.51-1.6.32-1.6.31-.19-2.55.42-.84,1.22-2.41,1.79-3.47a56.63,56.63,0,0,0,3.27-7.61,3.34,3.34,0,0,1,.62-1.24C76.88,37.13,78.14,36.75,78.57,37.14Zm-3.5.35a.82.82,0,0,1,.67.2c.06.65-1.7,4.8-2.77,6.72-.33.58-.66,1.35-1,2a37.61,37.61,0,0,0-3.45,8.12c-.68,2.76,2.49,4.86,4.14,2.86,1.05-1.23,0-3.41-1.55-2.8-.53.21-.32.44.41.5,1.18.1,1.27,1.93,0,2.32a1.92,1.92,0,0,1-2.41-2,2.73,2.73,0,0,1,4.53-2.08c1.73,1.44,2,4.87-.61,6.2S67.3,59.09,66.66,56c-.48-2.35,0-4.49,2.31-8.11a46.16,46.16,0,0,0,4.35-8.82,5,5,0,0,1,.57-1.2,1.86,1.86,0,0,1,1.18-.41Zm68.69,7.37-3.44,4.37c1,1.43,3.35,4.26,3.35,4.26l3.27-4.21Zm0,2.45,1.43,1.84-1.63,1.92-1.53-1.79Zm.13,9.49s-4.15,4.55-3.2,7.93c.85,3,5.39,3.74,6.48-.67a4.58,4.58,0,0,0,0-1.41C147.08,60.85,143.91,56.8,143.91,56.8Zm0,.9s1.19,1.73,2,3.26,1.19,5.53-2.16,5.4c-1.82.18-3.55-2.2-2.1-5.12A35.48,35.48,0,0,1,143.92,57.7Zm-68.67.73c.24,0,.46.46.61.83a4,4,0,0,1-1,2.62,21.11,21.11,0,0,0-2,.75,7.85,7.85,0,0,1,.53-2.2c.77-.76,1.42-1.68,1.74-1.94A.1.1,0,0,1,75.25,58.43ZM67,58.68c.52.58,1,1.08,1,1.44,0,.53-.64,1.17-1.11,1.62s-1.76.24-1.75-.51A10.16,10.16,0,0,1,67,58.68Zm17.6.75A3,3,0,0,1,85.62,61a34.46,34.46,0,0,1-3.3,8.46A5.08,5.08,0,0,1,80,69.39a29.56,29.56,0,0,0,3.84-8.28C84.16,60,84.31,59.45,84.56,59.43ZM83.05,60c.28,0,.38.21.16.81-1.07,4.3-3.46,8.82-5.32,9.65a4.59,4.59,0,0,1-6-1.66c-1.13-2-.94-5.16,2.86-5.85,2.22-.23,4.52,1.53,3.33,4.34-1.33,2.1-4.89.93-3.84-1.77.79-1,2.44-.13,1.91,1-.27.57,0,.91.39.51,1.3-1.26-.84-3.42-2.27-2.34-2.34,1.77.56,5.65,3.29,4,.83-.52,2.33-3.36,2.9-5.44a4.76,4.76,0,0,1,1-2.29A3.2,3.2,0,0,1,83.05,60Zm-6.23.18a1.08,1.08,0,0,1,.51.18c.28.12.6.38.56.69a2.79,2.79,0,0,1-.67,1.55c-.25-.08-1-.37-1.44-.49-.29-.08.11-.72.28-1.08.29-.57.47-.81.7-.84Zm-7.74.13c.35,0,.91.39,1.28.44.07.53-.62,1.68-1.73,3-.9,1.1-.9,1.12-1.5-.1-.39-.79-.41-.76.72-2.15.6-.75.88-1.09,1.15-1.19Zm3.51.4A4.72,4.72,0,0,1,72.34,62c-1.26,3.75-4.19,7.46-6.63,8.38-3.16,1-6-.63-6.13-4.47.08-4.52,5.47-5.76,7.09-1.65.73,1.86-1.27,4.66-3,4.2s-2.48-3.19-1-3.86a1.18,1.18,0,0,1,1.71,1.3c-.06.34,0,.38.15.36.91-.18.42-2-.64-2.41-2-.86-3.52,1.84-2.16,3.85,1.62,2.39,4.16,1.94,5.64-1a9.22,9.22,0,0,1,1-1.6,14.27,14.27,0,0,0,2-2.79,11.7,11.7,0,0,1,.88-1.46A6.67,6.67,0,0,0,72.59,60.69Zm7.09.2a.66.66,0,0,1,.67.77,10.44,10.44,0,0,1-.93,2.72c-.11.17-.37.77-.41.63a7,7,0,0,0-1.13-1.94c-.12-.37.23-.74.37-1.08A1.74,1.74,0,0,1,79.68,60.89Zm6.69.59c.47,0,1.12.2,1.25.54.43.74-2.4,7.57-2.51,7.58L83,69.5a66.45,66.45,0,0,0,3.2-8A.47.47,0,0,1,86.37,61.48Zm28.36,10.79,2.69,1.6L99.7,102l-2.57-2Zm-44.2.59c16.56.06,39.34,0,39.34,0l-1,1.83S84,74.48,70.52,74.5ZM48.2,74l0,9.23a65.09,65.09,0,0,0-6.92-4.72S45.7,75.55,48.2,74Zm70.85.9,1.66,1-18.62,29.58-1-2Zm-48.52.43h2.6v2.93H70.53Zm5.93,0h3.15v2.93H76.46Zm6.88,0h3.22V78.3H83.33Zm6.75,0h3.27v2.93H90.08Zm6.79,0h3.23v2.92H96.88Zm6.8,0H107V77.5l-.49.86h-2.8Zm17.8,1L153.06,96.8l0,2.82-32.87-21.2Zm-2.08,2.38.28.19-1.34,2-.27-.16Zm-48.77.3h35.44L105,80.88l-34.37-.06ZM41.52,80a3.92,3.92,0,0,1,1.43.6c1.74,1,2.84,3,2.09,3.78s-2.23-.75-3.21-2.78C41.31,80.54,41.17,80,41.52,80Zm62.72,1.78L92.81,100c-2.58-3.54-5.47-6.6-11.81-4.52-3.29-2.55-6.79-2.94-10.49-.77l0-12.89Zm-58.86,0,.89.78a10.73,10.73,0,0,0-.56,1.88,10.83,10.83,0,0,0-.33-2.66Zm72.48.19,35.23,23.13v2.14L116.62,83.79ZM40.7,82.5a1.52,1.52,0,0,1,1.23.59,1.67,1.67,0,0,1-.44,2.31,1.56,1.56,0,0,1-2.09-2.26A1.75,1.75,0,0,1,40.7,82.5Zm5.83.28,1.93,1.53c-3.34,19,6.19,38.2,26.75,43.94l.24,2.44c0,.11-8.72-2.61-12.55-5.46a39.45,39.45,0,0,1-12.71-14.3,41.68,41.68,0,0,1-4-11.17A47,47,0,0,1,46.53,82.78Zm-2.18,2.56c.74,0,.81.56.22,1.59a7.21,7.21,0,0,1-3.76,3c-1,.43-1.29.23-1.17-.86.19-1.63,1.32-2.82,3.29-3.46a6.22,6.22,0,0,1,1.42-.27Zm5.67.22c.31.25.4.33.77.65a1.58,1.58,0,0,0-1.08,1.51,1.6,1.6,0,0,0,3.17.27l.77.67a2.53,2.53,0,0,1-4.87-.94A2.48,2.48,0,0,1,50,85.56Zm1.28,1.26a.93.93,0,0,1,.25,0l.55.47a.83.83,0,0,1,.09.39.9.9,0,1,1-.89-.9Zm-6.06.58A66.05,66.05,0,0,0,45.18,95a6.86,6.86,0,0,0-3.29-4.59,15.83,15.83,0,0,0,3.35-3Zm9.25,1.92,1.71,1.47c-1.46,20.12,16.19,27.75,16.68,27.42l.74,2.27C61.43,116.35,53,103.76,54.49,89.32Zm98.42,48.23-.09,2.54C139,134.74,123.2,115,123.4,96c-3.55,5.44-5.55,9.06-8.61,14l-2.43-1.16c4-5.94,7.79-12.29,11.8-18.12.46-.66.82-1,.84.47,0,6.52,2,33.35,27.91,46.39ZM40.34,90.9a3.28,3.28,0,0,1,1.88.73c1.28.84,2.69,3.46,2.2,4s-2.32-.1-3.25-1.09C39.32,92.63,39.21,91,40.34,90.9Zm10.8.25a2.52,2.52,0,1,1-2.53,2.52A2.52,2.52,0,0,1,51.14,91.15Zm5.64.25,1.65,1.93c.32,16.89,13.68,22.09,13.55,22.14l.4,1.82C71.65,117.38,55.87,110.2,56.78,91.4Zm-5.64.67a1.6,1.6,0,1,0,1.6,1.6A1.61,1.61,0,0,0,51.14,92.07Zm0,.71a.89.89,0,0,1,.9.9.9.9,0,0,1-.9.9.92.92,0,0,1-.9-.9A.9.9,0,0,1,51.14,92.78Zm8.53,1.52c.2,0,1.15,1.38,1.15,1.38s-1,.37-1.5-.09S59.13,94.31,59.67,94.3Zm73.12.63,2.47,1.68c1.17,11.39,7.7,21.79,17.56,29l-.07,2.82C140.75,120.33,134.09,109.32,132.79,94.93Zm-92.72.19h.13a1.58,1.58,0,1,1-1.69,1.8,1.69,1.69,0,0,1,1.2-1.73A1.27,1.27,0,0,1,40.07,95.12Zm20.66,1.52a1.74,1.74,0,0,1,1.23.68C63,98.55,63,98.91,61.9,99.37c-1.61.65-2.95-.25-2.41-1.64A1.42,1.42,0,0,1,60.73,96.64Zm-16.49,0a1.64,1.64,0,0,1,.37,0c1.18.47-1.39,5.17-3.09,5.65-1.08.31-1.3-.11-1-1.76C41,98.79,43,96.72,44.24,96.69Zm7.57.11a2.52,2.52,0,1,1-2.53,2.51A2.51,2.51,0,0,1,51.81,96.8Zm0,.92a1.6,1.6,0,1,0,1.6,1.6A1.6,1.6,0,0,0,51.81,97.72Zm-6.31.14a28.13,28.13,0,0,0,1.65,7.35,11.05,11.05,0,0,0-3.69-3.2C44.39,100.63,45.47,99.24,45.5,97.86Zm6.31.57a.9.9,0,1,1-.9.9A.88.88,0,0,1,51.81,98.43Zm14.29.26a4.19,4.19,0,0,1,4.38,4.18,54,54,0,0,1,0,6.94l-2.13-3.91c0-1.1.15-2,.06-3.05a2.35,2.35,0,0,0-3.28-2.25l-.92-1.49A6,6,0,0,1,66.1,98.69Zm9.27.31a3.6,3.6,0,0,1,4,3.85c.14,4.72-.1,15.51-.1,15.51H73.9L71,111.16a6.45,6.45,0,0,1-.09-1.19c.18-2.31.06-4.88.14-7A4.5,4.5,0,0,1,75.37,99ZM63,99.74a1.26,1.26,0,0,1,.91.34c1.24,1.25,1.24,2.07,0,2.63-1.66.75-2.53.61-3.1-.5S61.8,99.75,63,99.74Zm77.82.34,1.35.88s-.29.44-.43.7c-.77,1.32.54,2.1,2.35,1.39a6.5,6.5,0,0,0,.61-.3l1.12.76s-.8.43-1.69.87c-2.25,1.11-3.87.63-4.43-1.28a2.76,2.76,0,0,1,.42-2.26A7.92,7.92,0,0,1,140.84,100.08Zm-57.26.16a4.67,4.67,0,0,1,4.54,3.7c.2,1-.05,14.41-.05,14.41H79.88L80,104.28a3.64,3.64,0,0,1,.47-2.39A4.15,4.15,0,0,1,83.58,100.24Zm-8.5.62c-1.66.08-2.59,2.74-.89,4,.7.52.72.63.35,2.4a9.51,9.51,0,0,0,1,6.38c.79,1.3.63.63.23-.52-.51-2.18-.26-3.77,1-6.29,1.12-2.11,2.2-5.38-1.36-6Zm68,.61.73.49s-.11.09-.26.24a.88.88,0,0,1-1.08.11C142.19,102,143.1,101.47,143.1,101.47Zm-59,1c-1.78-.07-3,3.23-.67,4,.52.33.61.76.29,1.38a9.09,9.09,0,0,0-.79,3.61,13.77,13.77,0,0,0,.63,3.25c.59,1.46.48.89.32-.82a8.3,8.3,0,0,1,1.43-5.09c1.31-2.17,3.12-5.72-1-6.36Zm-30.62,0A2.52,2.52,0,1,1,50.91,105,2.5,2.5,0,0,1,53.43,102.53Zm11.72.25c.43,0,.75.29,1.16.87,1.09,1.63,1,1.95-1.14,3.11s-3.71-1.86-1.59-3.28a3.87,3.87,0,0,1,1.47-.7ZM42,102.9c2.34,0,6,3.36,4.24,3.84a2.89,2.89,0,0,1-.72.12C42.6,106.68,39.21,102.87,42,102.9Zm11.41.54A1.61,1.61,0,1,0,55,105.05,1.61,1.61,0,0,0,53.43,103.44Zm93,.47,1.16.79s-.72.33-1.56.78c-2.29,1.22-3,2.12-2.16,2.92a1,1,0,0,0,1.22.18,32.78,32.78,0,0,0,4.54-2.56l.88.6c0-.05-3.5,2.47-5.4,3.52-3,1.53-4.69-1.59-3-3.69C143.39,105.19,144.76,104.78,146.46,103.91Zm-93,.23a.9.9,0,0,1,.9.89.9.9,0,1,1-.9-.89Zm94.84.83.65.43-2,1.16c-2.13,1.22-2.23,1.25-2.35,1s0-.56.7-1A28.47,28.47,0,0,1,148.28,105ZM92.92,105a4.17,4.17,0,0,1,3.76,2.12,8.76,8.76,0,0,1,.46,3.32l0,7.87H88.85a75,75,0,0,1,0-9.83A4.12,4.12,0,0,1,92.92,105Zm-25.64,1.17c.52,0,.9.48,1.4,1.59s.12,1.72-1.42,2.39a1.41,1.41,0,0,1-.5.14,1.76,1.76,0,0,1-1.08-3C66.39,106.6,66.87,106.23,67.28,106.21Zm83.9.79.73.45s-.37.33-3,2.27c-2.15,1.56-2.47,2-2,2.88.37.7,1.16.62,2.24-.21,1.51-1.15,3.89-3.11,3.89-3.11l.07,1.33c-1.56,1.26-3.46,3.4-4.94,4.21-2.9,1.42-5-2.48-2.34-4.41A59.11,59.11,0,0,1,151.18,107Zm-57.94,0c-2.16,0-2.95,3.17-.64,3.86.66.35.61.54.17,2.14a7.08,7.08,0,0,0-.21,2.91c.18,1,.39.93.3-.09a8.8,8.8,0,0,1,1.17-3c2.14-3,1.57-5.76-.79-5.8Zm-50.28,0a1.6,1.6,0,0,1,1,2.83c-.87.61-2.69-.14-2.69-1.08a1.81,1.81,0,0,1,1.42-1.73l.28,0Zm4.1.17c.45,0,.7.65.69,2a5.68,5.68,0,0,1-1.81,4.43c-1.65,1.37-2-2.37-.48-4.84C46.12,107.73,46.67,107.22,47.06,107.22Zm105.63.49c.41,0,.34.3-.13.63s-1,.76-2.91,2.39a13.55,13.55,0,0,1-1.12.84c-.64.43-1.18.33-.86-.18A30.77,30.77,0,0,1,152.69,107.71ZM56,107.8a2.52,2.52,0,1,1-2.52,2.52A2.52,2.52,0,0,1,56,107.8Zm0,.92a1.6,1.6,0,1,0,1.61,1.6A1.59,1.59,0,0,0,56,108.72Zm-30.19,0c17.08,8.61,27.72,24.74,30.35,43.1l8.3-13.13,2.24.84L54.56,159.24l-.53-.17c-.05-19.2-9.63-37.38-28.31-47.35Zm30.2.65a.91.91,0,0,1,.9.9.9.9,0,1,1-.9-.9Zm-7.05.1A30.14,30.14,0,0,0,52,114.86c-1.42-1.34-3-1.27-4.52-1.48Zm20.31.37a.88.88,0,0,1,.74.38c.69,1,.82,1.84.33,2.33a1.37,1.37,0,0,1-2.21-.53A1.58,1.58,0,0,1,69.22,109.88ZM153,111.2l0,1.49s-.32.38-.65.7a12.73,12.73,0,0,0-2.34,2.67c-.3,1.17.86,1.61,2,.74.4-.3,1-.75,1-.75v1.82c-1,.82-1.93,1.63-3.25,1.36a2.22,2.22,0,0,1-1.58-1.61c-.55-2.31,1.69-3.59,3.43-5.14C152.13,112,153,111.2,153,111.2Zm-93.46,1.31h.13a2.47,2.47,0,1,1-.13,0Zm50.7.57a1.66,1.66,0,0,1,1,2.9,1.83,1.83,0,0,1-2,.32C107.71,115.22,108.84,113.15,110.22,113.08Zm-2.75,1.46c.79.85,1.4,3.29.93,3.74-1,1.07-4.06-2.48-3.88-4.81C104.86,112.09,107.18,114.22,107.47,114.54Zm-36.9-1.34a.59.59,0,0,1,.57.83c-.13.29-.58.32-.94.17C69.58,113.94,69.86,113.2,70.57,113.2Zm-10.92.22a1.61,1.61,0,1,0,1.6,1.61A1.61,1.61,0,0,0,59.65,113.42Zm-12,.7c3.05,0,6.26,2.4,3.46,2.88a5.27,5.27,0,0,1-5-1.53c-.83-.74-.52-1.13,1-1.31a4,4,0,0,1,.6,0Zm12,0a.9.9,0,0,1,.9.9.92.92,0,0,1-.9.9.9.9,0,1,1,0-1.8Zm4.22,2.28H64a2.52,2.52,0,1,1-2.53,2.51A2.54,2.54,0,0,1,63.86,116.4Zm49.63.12a2.55,2.55,0,0,1,1.71.47c.45.41-.22,1.19-1.59,1.86-1.6.78-4.39.67-4.39-.17C109.22,117.55,111.64,116.56,113.49,116.52Zm-60.8.67c1.4,0,1.78,4.34.57,6.42-.63,1.08-1.49.37-2.09-1.76C50.68,120.1,51.62,117.19,52.69,117.19Zm11.3.13a1.6,1.6,0,1,0,1.6,1.6A1.61,1.61,0,0,0,64,117.32Zm52.32.27a1.39,1.39,0,0,1,.46.17c1.53.75,2.65,4.24,1.85,5.8s-2.72-1.51-2.71-4.53c0-1,.07-1.4.35-1.42Zm-67.58.24h.09c1.38,0,2.39,1.94,1.08,2.91a1.84,1.84,0,0,1-2,.15A1.68,1.68,0,0,1,48,118,1.8,1.8,0,0,1,48.73,117.83ZM64,118a.9.9,0,1,1,0,1.79A.9.9,0,1,1,64,118Zm-9.44.3a33.49,33.49,0,0,0,4.25,4.35,9.37,9.37,0,0,0-4.15-.07A10.25,10.25,0,0,0,54.55,118.32Zm49.24.26c20.76,4.85,33.44,26.83,28.43,47.47a9,9,0,0,1-2-1.45,43.22,43.22,0,0,0,.26-14.9,36.8,36.8,0,0,0-26.56-28.64A12.23,12.23,0,0,1,103.79,118.58Zm11.18.15c.24,1.42.47,2.83.82,4.1a26.47,26.47,0,0,0-4.81-2.68A12.22,12.22,0,0,0,115,118.73Zm6,.46a1.55,1.55,0,0,1,1.65,1.57,2.13,2.13,0,0,1-.86,1.44,1.57,1.57,0,0,1-2.18-2.06A1.49,1.49,0,0,1,121,119.19Zm-52.16.55a2.52,2.52,0,1,1-2.52,2.51A2.5,2.5,0,0,1,68.79,119.74Zm0,.91a1.61,1.61,0,1,0,1.6,1.61A1.59,1.59,0,0,0,68.79,120.65Zm-43,.24c10.32,6.07,19.58,19,20.26,33.61l-2.51-1.64c-1.07-9.85-6.13-20.56-17.84-29.33C25.74,123.53,25.77,122.59,25.83,120.89Zm57.12,0H96.28v2.86l4-2v6.35l-4-2.42v2.77H83v-2.91l-4.08,2,0-6.32,4,2.27Zm-14.16.47a.9.9,0,1,1,0,1.79.9.9,0,1,1,0-1.79Zm5.24.5h0l.15.92h-.07a1.6,1.6,0,1,0,0,3.2,1.54,1.54,0,0,0,.61-.11l.15.92a2.68,2.68,0,0,1-.76.11,2.52,2.52,0,0,1-2.52-2.52A2.55,2.55,0,0,1,74,121.85Zm30.13.31h.14a2.52,2.52,0,0,1,.57,5l-.15-.9a1.6,1.6,0,0,0-.42-3.15h-.11l-.15-.9A.27.27,0,0,0,104.16,122.16Zm17.71.87c3.12,0,4.41,1.8,1.85,2.55a6.44,6.44,0,0,1-4.26-.5C118.18,124.5,119.94,123,121.87,123Zm-65.1.16a4.84,4.84,0,0,1,2,.38c1.3.61,1.27,1-.13,1.84-1.94,1.11-6.52,0-5.13-1.28A5.26,5.26,0,0,1,56.77,123.19Zm17.41.27.2,0,.28,1.63a1,1,0,0,1-.48.15.89.89,0,0,1-.9-.9A.9.9,0,0,1,74.18,123.46Zm30.13.33a.9.9,0,0,1,.28,1.74Zm5.48.63a2.52,2.52,0,1,1-2.53,2.52A2.53,2.53,0,0,1,109.79,124.42Zm-49.16.65a.75.75,0,0,1,.5.21,5.87,5.87,0,0,1,1.67,5.79c-.57,1.84-2.93-1.45-2.91-4.06C59.91,125.78,60.18,125.09,60.63,125.07Zm65.39.21c.2,0,.43.16.64.52.94,1.56.9,4.79-.08,5.79-.55.57-.75.47-1.33-.7C124.27,128.91,125,125.28,126,125.28Zm-16.23.06a1.6,1.6,0,1,0,1.6,1.6A1.6,1.6,0,0,0,109.79,125.34Zm-47.15.43A47.4,47.4,0,0,0,68.53,129,6,6,0,0,0,63.78,130,5.79,5.79,0,0,0,62.64,125.77Zm57.28.34a13.38,13.38,0,0,0,4.49.12,14.16,14.16,0,0,0-.28,4.27,27.23,27.23,0,0,0-4.21-4.39Zm-10.13-.06a.89.89,0,0,1,.9.9.9.9,0,0,1-.9.9.92.92,0,0,1-.9-.9A.9.9,0,0,1,109.79,126.05Zm-51.17.86a1.51,1.51,0,0,1,.06,2.73c-1.43.93-3.29-.71-2.4-2.1a1.74,1.74,0,0,1,2.34-.63Zm56.23.8a2.52,2.52,0,1,1-2.52,2.52A2.54,2.54,0,0,1,114.85,127.71Zm14.79.43a1.58,1.58,0,0,1,.74.18,1.48,1.48,0,0,1,.38,2.36,1.45,1.45,0,0,1-2.4-.28A1.5,1.5,0,0,1,129.64,128.14Zm-24.37.37c12.42,4.22,20.76,18,18.74,31.31l-1.56-1.46c1.18-7.52-3-21.91-16.81-27.81Zm9.59.12a1.6,1.6,0,1,0,1.6,1.6A1.6,1.6,0,0,0,114.86,128.63Zm0,.71a.9.9,0,1,1-.9.9A.88.88,0,0,1,114.86,129.34Zm-47.26.16c.64.06,1.71-.06,2,.55s-1.28,2-3.24,2.31c-.81,0-2.52.26-2.88-.32C63.11,131.3,65.42,129.51,67.6,129.5Zm-39.45.44c1.68-.08,3.58,2.16,1.87,4a34.94,34.94,0,0,1-4.15,3.32V136s2.73-2,2.78-2.88a1.11,1.11,0,0,0-1.82-1c-.19.12-.94.72-.94.72l.06-2.06a3.22,3.22,0,0,1,2.19-.87Zm42.91.52c1.25,0,4.14,4.5,3.41,5.4-.59.72-2.94-.87-3.81-2.59-.46-.92-.33-2.56.25-2.78A.31.31,0,0,1,71.06,130.46Zm19.21.55s.12,10.33-.45,11.31c-2.34,4.22-7.38,2-7.81-1.14-.31-1.91-.12-10.16-.12-10.16Zm.74,0h8.06s0,14.55-.37,15.38a5.52,5.52,0,0,1-2.16,2.18c-2.36,1-4.9-.43-5.52-3.18-.46-2,0-14.38,0-14.38Zm8.72,0h5.34s.19.78.4,1.4c.37,1.11,1.63,4.27,1.77,4.48.65.86.68,10.38,0,11.46-2.35,3.52-6.28,2.5-7.72-1.41C99.23,145.68,99.73,131,99.73,131Zm6.23.35c9.6,4.54,16.93,14.18,16,26.54l-1.75-1.75c.64-8.53-5.88-19.2-13.47-22.36Zm13.21.29a2.52,2.52,0,1,1-2.53,2.52A2.51,2.51,0,0,1,119.17,131.65Zm9.46.25a5,5,0,0,1,2.94,1c1,.84,1.17,1.51.38,1.76a4.68,4.68,0,0,1-4.53-1.13C126.34,132.52,127.26,131.88,128.63,131.9Zm-9.46.67a1.6,1.6,0,1,0,1.6,1.6A1.58,1.58,0,0,0,119.17,132.57Zm-50.5.2a1.65,1.65,0,0,1,.93,2.85,2.14,2.14,0,0,1-2.08.15A1.67,1.67,0,0,1,68.67,132.77Zm17.77.48a21.18,21.18,0,0,1-1.75,3.7c-1.58,2.64-1.38,4.41.3,5.31a2,2,0,1,0,1.83-3.6c-.85-.48-.85-.49-.55-1.8C86.64,135.22,86.71,133.29,86.44,133.25Zm32.73,0a.9.9,0,1,1-.9.89A.89.89,0,0,1,119.17,133.27Zm-24.11.51c-.11,0,0,.65,0,1.81,0,1.89-.16,2.46-1.37,5-1.54,3.23-1.33,5.43.58,6.14a2.22,2.22,0,0,0,2.94-2.3,1.58,1.58,0,0,0-.92-1.63c-.51,0-1.08-.26-1-.51C95.51,140.34,97.19,136.73,95.06,133.78Zm31.86.26a8.6,8.6,0,0,0,4.38,1.62,13.34,13.34,0,0,0-.84,4.79,30.51,30.51,0,0,0-3.54-6.41Zm-95.09.31a1.46,1.46,0,0,1,.3,0A2.51,2.51,0,0,1,34,137.2c-.28,1-.37,1.16-4.21,3.71a20.24,20.24,0,0,1-2.35,1.48l-1.14-.76,2.5-1.66c2.93-2,3.37-2.44,3.06-3.33s-1.43-.75-3.17.58a34.32,34.32,0,0,1-2.85,2.11v-1.18s1.13-.89,1.62-1.32C28.69,136,30.33,134.36,31.83,134.35Zm76.19.51a.41.41,0,0,1,.41.52.44.44,0,0,1-.44.19.36.36,0,0,1,0-.71Zm25.86,1.37c.54,1.87-.63,5-1.35,5.37-.76.76-1.24,0-1.41-1.91C131.13,138.09,132.94,133.15,133.88,136.23Zm-30.66-1c.23,2.68.32,4.91-.94,7.09-1.63,2.82-1.21,5.24.54,5.78a2.17,2.17,0,0,0,3-2.39,2.45,2.45,0,0,0-1.25-1.48c-.54-.13-.6-.48-.3-1.54a10,10,0,0,0-.5-6.56c-.07-.28-.4-.92-.52-.9Zm5.86.9a1.69,1.69,0,0,1,1.07,2.93c-.61.56-1,.31-1.64-1.07S108.09,136.07,109.08,136.09Zm13.7.38a2.52,2.52,0,1,1-2.53,2.51A2.51,2.51,0,0,1,122.78,136.47Zm0,.91a1.61,1.61,0,1,0,1.6,1.61A1.61,1.61,0,0,0,122.78,137.38Zm0,.71a.9.9,0,1,1-.9.9A.9.9,0,0,1,122.78,138.09Zm-10.84.66a1.12,1.12,0,0,1,.59.12c1.32.64,1.18,2.48-.28,3.57-.92.7-1.32.46-2.18-1.33C109.59,140.14,110.82,138.8,111.94,138.75ZM34.85,139a1.58,1.58,0,0,1,.38.05,2.76,2.76,0,0,1,1.9,3.19c-.76,1.88-3.31,2.5-5.25,3.29l-1-.73s1.43-.81,2.8-1.44,1.5-.83,1.41-1.59c-.19-1.47-.89-1.41-4.12.32-1.31.71-2.27,1.33-2.27,1.33L28,142.8c1.07-.69,1.71-1.08,2.87-1.89,1.95-1.33,3.06-1.9,3.87-1.93Zm102.43,1.08c.47,1.42-.5,2.67-1.93,2.11a1.61,1.61,0,0,1-.85-2.23A1.67,1.67,0,0,1,137.28,140.05Zm-28.92-.51,2.27,4.07s0,1.13.05,1.76c.08,2.64.66,3.51,2.2,3.26.11,0,.67-.17.67-.17l1,1.65a12.34,12.34,0,0,1-1.34.52c-1.82.39-4.35-1-4.75-2.82s-.08-8.27-.08-8.27ZM34,141.23c.68,0,.4.58.08.74-1.33.68-2.6,1.42-4,2.22l-.93-.58s.72-.4,1.2-.71A12.12,12.12,0,0,1,34,141.23Zm91.19.51a2.52,2.52,0,1,1-2.52,2.52A2.52,2.52,0,0,1,125.22,141.74Zm-10.68.35a1.5,1.5,0,0,1,1.38.75c.68,1.11,0,2.48-1.68,3.21-.91.41-1.06.33-2-1.12-.66-1-.65-1.14.07-1.76a3.93,3.93,0,0,1,2.27-1.08Zm-88.63.23,36.16,23.37-1,1.75L26,144.53Zm107.46.3c2.2,0,5.06,2.58,4,3.58a.72.72,0,0,1-.47.18C133.82,146.19,130.36,142.56,133.37,142.62Zm-8.15,0a1.6,1.6,0,1,0,1.6,1.6A1.61,1.61,0,0,0,125.22,142.66Zm-48.3.44,1,2.48-18,28.6-1.76-1.13Zm48.31.27a.9.9,0,0,1,.9.9.92.92,0,0,1-.9.9.9.9,0,0,1-.9-.9A.88.88,0,0,1,125.23,143.37Zm6.6.29a7.67,7.67,0,0,0,4,3.34,5.83,5.83,0,0,0-2.32,4.74A44.59,44.59,0,0,0,131.83,143.66Zm-95.14.87a1.83,1.83,0,0,1,1,.26c3.37,2.3.28,4.59,0,4.41l-1.16-.73c.4-.66,1.3-1.54-.14-2.37a2.7,2.7,0,0,0-2.53.62l-1.21-.82a10.38,10.38,0,0,1,4-1.37Zm79.54,1.31a2.3,2.3,0,0,1,.37,0c1.91.37,1.78,2.38-.21,3.31-1.12.54-1.32.43-2.32-1.28C113.6,147.11,115,145.86,116.23,145.84Zm-80.15.74a.55.55,0,0,1,.5.34c.1.53-.89,1.06-.89,1.06l-1.14-.75A3.87,3.87,0,0,1,36.08,146.58Zm101.42.48a.47.47,0,0,1,.55.44c.4,1.57-1.36,4.47-3,4.94-.93.27-1.2-.16-.9-1.48.45-1.82,2.34-3.83,3.32-3.9Zm-58.32.12,2.93,2.12L64.54,177l-3.05-1.8Zm47.81.21a2.52,2.52,0,1,1-2.52,2.52A2.52,2.52,0,0,1,127,147.39Zm0,.92a1.6,1.6,0,1,0,1.6,1.6A1.61,1.61,0,0,0,127,148.31Zm0,.71a.89.89,0,0,1,.9.9.9.9,0,0,1-.9.9.92.92,0,0,1-.9-.9A.9.9,0,0,1,127,149Zm-40.38.09c1.91,2.15,4,6.94,11.53,4.68a8.83,8.83,0,0,0,10.4,1l0,12.93-33.21,0ZM26,149.44l32.69,21.48-1,1.81L25.93,152.51Zm91.8,0h.08c1.67.41,1.86,2.07.31,2.71-.83.34-1,.26-1.8-.91-.32-.47-.5-.85-.45-1a3.42,3.42,0,0,1,1.86-.83Zm21,1.77a1.66,1.66,0,0,1,.77,3.11,1.63,1.63,0,0,1-2.23-2.21,1.54,1.54,0,0,1,1.46-.9ZM118.28,153c.78,0,1.42.73,1.06,1.18-.26.29-.57.21-1-.27s-.53-.92-.08-.91Zm9.37.32a2.52,2.52,0,1,1-2.52,2.52A2.52,2.52,0,0,1,127.65,153.3Zm7.12.14c1.91,0,4.54,3.18,4.1,4.93-.15.57-1.22.26-2.49-.71C134.66,156.33,133.56,153.43,134.77,153.44Zm-7.12.78a1.6,1.6,0,1,0,1.61,1.6A1.59,1.59,0,0,0,127.65,154.22Zm6.13.32a6.11,6.11,0,0,0,3.43,4.25c-3.67,1.7-4.39,4.59-3.83,8.3l-.86-.53a44.87,44.87,0,0,0,1.26-12Zm-6.12.37a.9.9,0,1,1,0,1.8.89.89,0,0,1-.9-.9A.92.92,0,0,1,127.66,154.91Zm-.47,4.05a2.51,2.51,0,0,1,2.51,2.52,2.48,2.48,0,0,1-1.13,2.11l-.81-.61a1.6,1.6,0,1,0-2.17-1.63l-.81-.61A2.5,2.5,0,0,1,127.19,159Zm11.49.32c1.19,0-.66,3.33-2.38,4.23-1.3.69-2.5.75-2.5.12C133.81,162,136.85,159.28,138.68,159.28Zm-11.49,1.29a.91.91,0,0,1,.9.9.9.9,0,0,1-.9.9,1,1,0,0,1-.9-.9A.9.9,0,0,1,127.19,160.57Zm11.11,3a1.6,1.6,0,0,1,1.43.76,1.46,1.46,0,0,1-.39,1.81,1.55,1.55,0,0,1-2.48-1.85,1.5,1.5,0,0,1,1.44-.72ZM133.65,165a3.72,3.72,0,0,1,3.19,4c-.31.38-2.55-1.32-2.78-1.49A6.61,6.61,0,0,1,133.65,165Zm-2.76,1.57a69.66,69.66,0,0,0,6.35,3.81l-6.32,4Zm-56.43,1.87,34,.13v1.42l-35,0,.93-1.58Zm-1.39,2.24h2.28v2.78H72.22v-1.53Zm32.71.06h2.75v2.79h-2.75Zm-27,0h3.13v2.79H78.75Zm6.53,0h3.38v2.79H85.28Zm6.92,0h3.26v2.79H92.2Zm7,0h3.1v2.78h-3.1Zm-28.35,3.44,37.77.09V176l-38.84-.08Zm32.2,3.52A4.16,4.16,0,0,1,106.1,185c-2.76,2.75-7.37-.77-5.07-3.88,1.28-1.73,4.44-.33,3.65,1.52a1.14,1.14,0,0,1-2.16-.67c0-.53-.39-.17-.44.39a1.56,1.56,0,0,0,1.53,1.51c2.23,0,2.56-2.94.4-4-1.92-1-3.94.26-4.4,2.71A8.93,8.93,0,0,1,99,184a13.82,13.82,0,0,0-1.29,3.86,4,4,0,0,1-1,.7c-1.09.54-1,.32-.64-1.47,1.18-5.12,3.12-8.42,5.47-9.09a5.12,5.12,0,0,1,1.49-.22Zm11.37.26a4.69,4.69,0,0,1,4.48,3.4c1.37,4.59-4.73,7.41-6.87,3.25-1.18-2.37,1.27-5.21,3.53-4.11,1.85.9,1.72,3.72-.15,3.7-1,0-1.65-.86-1.08-1.61.3-.29.64-.07.79-.54.06-.21-.23-.36-.93-.24-1.15.23-1,2.57.31,3,2,.68,3.71-1.41,2.75-3.5-1.13-2.5-4.24-2.52-5.66.1-.21.39-.53.93-.7,1.17-2.11,2.86-2.28,3.29-2.91,4.89a.34.34,0,0,1-.36.26,4.24,4.24,0,0,0-1.54.28c-.26-.06.08-1.06.11-1.14C107.59,182.5,111.29,178.1,114.39,178ZM96,179.25a32.38,32.38,0,0,0-3,7.87,9.69,9.69,0,0,0-1.55-.66c-.2-.06,0-.31-.05-.65a19.23,19.23,0,0,1,3-6.86c.28-.22,2.13-.29,1.7.3Zm2.16.84c-1.28,1.63-2.63,6-2.92,8.26a7.25,7.25,0,0,1-.13.84c-.2.68-1.46-.77-1.47-1.67,0-1.51,1.7-6.15,2.91-7.92.42-.62.48-.72,1.37-.76,1.44-.05.81.51.24,1.25Zm-63-1.09a5.15,5.15,0,0,0-1,.12c-1.87.47-4.09,2.45-4.31,4.53a5.16,5.16,0,0,0-.19,2.28c.62,2.81,2.27,4.71,4.27,7.5a50.84,50.84,0,0,1-4.27,5.72l4.11,5.92c-1.14,2.24-3.11,3.93-3.61,6.69-.77,3.63,1.14,7.18,5.19,7.51,3,.09,5-2,5.39-5,.16-2.06-.7-4.64-3.75-8.7-.16-.21-.44-.63-.44-.63s.34-.4.52-.67c1.08-1.46,3.87-5,3.87-5l-4.19-5.89a5,5,0,0,1,.51-.84c3.42-4.64,4.05-7,3.45-9.31a5.33,5.33,0,0,0-1.58-2.38,5.41,5.41,0,0,0-4-1.82Zm-.1.57a5.12,5.12,0,0,1,3.82,1.68c2.56,2.67,2.34,4.93-1,9.87-.74,1.09-1.45,2.29-1.45,2.29l4.2,5.78c-1.38,1.95-3,3.67-4.38,5.72.73,1.11,1.92,2.31,2.66,3.65A11.48,11.48,0,0,1,40.46,213c.34,2.91-1.56,6-4.8,6.1a5.53,5.53,0,0,1-5.47-5.89,8.81,8.81,0,0,1,1.37-4.14c.75-1.35,2.53-3.95,2.53-3.95L30,199.19l4.3-5.74s-3.13-3.83-4.1-6.59a5.86,5.86,0,0,1,.88-5.18,4.76,4.76,0,0,1,3.9-2.11Zm-2.67,8.3a11.76,11.76,0,0,0,2.79,4,19.28,19.28,0,0,0,2.92-4.44C41.2,179.89,29,179.29,32.34,187.87Zm2.76,3.26c-1.54-1.8-2.63-3.28-2.73-5.64a2.86,2.86,0,1,1,5.65,0C37.67,187.79,36.46,189.23,35.1,191.13ZM111,183.77c.12.65.77,1.78.72,2-.3.69-.74,1-1.34,2.17-.13.25-.07.3-.41.23s-.88-.22-1.18-.3-.37-.14-.28-.36a8.05,8.05,0,0,1,2.49-3.78Zm-10.16,2-.72,1.87c-.06.2-.08.23-.28.19a5.21,5.21,0,0,0-1.18-.05c-.89-.11.79-3.44,1-3.95.35.06.89,1.49,1.13,1.94Zm.69.43h0a6.07,6.07,0,0,1,1.31.43c.23.09.23.09.13.37s-.46,1.59-.73,2c0,.06-1.28-.75-1.63-.91C100.65,187.89,101.07,186.28,101.55,186.21Zm10.72.23a2.35,2.35,0,0,1,1.21.6c.14.27,0,.53-.45,1.33s-.85,1.47-1,1.39a5.86,5.86,0,0,1-1.18-.95c-.21-.29.19-1.05.48-1.44C111.81,186.71,112,186.48,112.27,186.44Zm-6.83-.1c.39.08-.22,2.07-.35,2.32a5.71,5.71,0,0,1-1.39,1.55c-.23.15-.94-.28-.93-.77a14.49,14.49,0,0,1,.91-2.6,7.36,7.36,0,0,1,1.76-.5Zm-15.78.76h.27A4.54,4.54,0,0,1,94,189.48c.47.8.47.83.36,1.57a7.31,7.31,0,0,0,.29,4c.53,1.22.44,1.63-.83,4.32s-2.85,6-4,9.09a32.33,32.33,0,0,0-1.31,4c-.2.77-1.14.53-2.07.49-.47.1.69-3.09,2.4-6.9,1.37-3,3.24-6.48,4-9.89a9.22,9.22,0,0,0,.09-5.09c-1.3-3.4-5.76-2.58-5.75.57.09,2,2.44,3.12,3.3,1.12.14-.91-.31-.38-.68.07-.81.94-2.21-.12-2-1.51a2.16,2.16,0,0,1,3.82-1c1.26,1.6,1,3.24-.84,4.48a3,3,0,0,1-4.53-.83,4.55,4.55,0,0,1,3.43-6.87ZM99,188.45c1.86,0,3.89,1.59,4.22,2.82a17.74,17.74,0,0,0,.21,2.64c.25.65.49,1,.31,1.6-1.54,4.93-5.15,10.18-7,16-.21.4-.4.46-.86.59-.72.2-1,.18-1.07-.19a7,7,0,0,1,.58-2.3,42.75,42.75,0,0,1,2.26-5.32c1.52-2.84,2.36-4.77,3.46-7.2.2-.45.26-.73.58-1.37,1.38-2.81-.19-5.56-3-5.58-2.26,0-3.28,3.54-1.3,4.58s3.4-1.65,1.68-2.61c-.42-.22-.53,0-.2.39.78.92.08,2.17-1,1.67-1.66-.77-.81-3.59,1.13-3.42,3,.25,3.38,4.59.32,5.69-4.19,1.51-6.39-5.23-2.45-7.49a4,4,0,0,1,2.12-.52Zm8.83.13a4.48,4.48,0,0,1,3.22,1.27c2.35,2.26,1.72,5.71-2.24,12.43a46.37,46.37,0,0,0-3.25,6.92,1.52,1.52,0,0,1-.69,1c-.69.37-1.47.42-1.57.16-.26-.69,1.71-4.93,5.2-11.58.91-1.78,2.08-3.84,2-5.94a2.66,2.66,0,0,0-3.5-2.34,1.89,1.89,0,0,0-.84,3,1.59,1.59,0,0,0,1.17.53c.57,0,1.24-.55.12-.62a1.16,1.16,0,0,1-.58-2.16c1.44-1,3.1.18,3,2-.23,3.77-5.76,3.22-5.91-.67a3.84,3.84,0,0,1,3.88-4Zm-15.62,6.06c.84-.07-.6,4.43-3.12,9.47a91.35,91.35,0,0,0-3.48,8.71c-.29.39-2,.46-2,.06,3.07-9.83,5.25-11.52,6.29-15.26.18-.65.32-1.58.34-1.67C91,195.73,91.62,194.8,92.16,194.64Zm-56.87.65L32,199.53l3.19,4.5,3.3-4.3Zm70.48,1.32a23,23,0,0,1-1.7,4.42c-3.2,6.42-4,8.15-4.53,9.86a.85.85,0,0,1-.46.59c-.39.14-1.49.36-1.6.2.67-3.75,5.84-12.29,6.83-16,.4,0,1.43.58,1.46,1Zm2.55-.39c.22,0,.31.07.24.36a26.48,26.48,0,0,1-1.62,3.46c-2.68,5.26-4.1,8.38-4.54,10-.1.37-.17.66-.36.77-.37.19-1.65.71-1.72.15.39-2.37,2-3.93,6-13.85.19-.32.35-.49.54-.52.51-.08,1-.32,1.43-.36Zm-11,1.63a30.55,30.55,0,0,1-2,4.27,60.68,60.68,0,0,0-3.94,9.49,2.55,2.55,0,0,1-.45,1,5.45,5.45,0,0,1-1.73.15c-.21-1.07,1.5-5.1,3.39-9.33,1-2.3,2.23-4.59,3-6.65C96.18,196.82,97.24,197.35,97.31,197.85Zm2.87-1c.57,0,.12,1-1.24,3.66a58,58,0,0,0-4,8.84c-.31.79-.65,1.76-.78,2.16s-.33.78-.55.89a2,2,0,0,1-1.59,0c-.28-.35,1.2-4.33,2.65-7.41,1.28-2.58,2.17-4.64,3.28-7,.3-.47.32-.5.61-.56a8.81,8.81,0,0,0,1.66-.53Zm-64.83.51L37,199.58l-2,2.45-1.64-2.38ZM35.1,207a15.24,15.24,0,0,0-1.45,2.12c-2.14,3.55-2.19,6.18.32,7.74a3.05,3.05,0,0,0,3.33-.34c2.87-2.5.73-5.91-1.12-8.23A11.76,11.76,0,0,0,35.1,207Zm.11.92a14.81,14.81,0,0,1,2.57,3.79c.82,2.13.3,3.81-1.3,4.59-2.52,1.24-4.8-1.55-3.6-4.53A14.62,14.62,0,0,1,35.21,207.9Zm70.38,4.21c.24.45-23.92,6-41.75,1.23L53,229l62.62-.11Zm-.9,1.11,8.67,15h-4L103.62,216a64.37,64.37,0,0,1-9.14,1.85l2,10.36h-3l-1.7-9.9a126.54,126.54,0,0,1-13.41.33l-2,9.57H73.26l2-9.51c-3.46-.46-6.9-.9-10.42-1.49l-5.89,11H54.53l9.26-13.79c13.83,2.79,26.58,2.13,40.9-1.17Zm-2.2,5.4,4.54,9.59h-8.6l-1.58-8.54Zm-36.79.7,7.51,1-1.95,7.92H61.11Zm24.53,1.18,1,7.69H78.32l1.45-7.55Z"/></g></g><path id="path153-6-3-1-9-5-1-4" d="M48.2,26.6C40.9,37.1,33,43.1,32.9,51.3c0,2.7,1.4,7.2,5.9,8,2.9.6,6.9-1.8,7-6.6,0-1,1-.9,1,.4a26.91,26.91,0,0,1-3.3,11.8h9.6a26.91,26.91,0,0,1-3.3-11.8c0-1.3,1-1.3,1-.4.1,4.8,4.1,7.1,7,6.6,4.5-.9,5.9-5.4,5.9-8C63.4,43.1,55.5,37.1,48.2,26.6Z"/><path id="path153-6-3-1-8-6-9-9-4" d="M130.6,223.1c-7.3-10.5-15.2-16.5-15.3-24.7,0-2.7,1.4-7.2,5.9-8,2.9-.6,6.9,1.8,7,6.6,0,1,1,.9,1-.4a26.91,26.91,0,0,0-3.3-11.8h9.6a26.91,26.91,0,0,0-3.3,11.8c0,1.3,1,1.3,1,.4.1-4.8,4.1-7.1,7-6.6,4.5.9,5.9,5.4,5.9,8C145.8,206.6,138,212.6,130.6,223.1Z"/></g></g></g></svg>