<svg xmlns="http://www.w3.org/2000/svg" viewBox="0 0 178.8 249.6"><defs><style>.cls-1{fill:#fff;stroke:#000;stroke-width:1px;}.cls-2{fill:#e2cf00;}.cls-3{fill:#d40000;}.cls-4{fill:#131f67;}</style></defs><title>Kc</title><g id="Layer_2" data-name="Layer 2"><g id="svg11376"><g id="Kc"><path id="rect6355-6-85-3-64-3-5" class="cls-1" d="M9,.5H169.8A8.49,8.49,0,0,1,178.3,9V240.6a8.49,8.49,0,0,1-8.5,8.5H9a8.49,8.49,0,0,1-8.5-8.5V9A8.49,8.49,0,0,1,9,.5Z"/><path id="path147-6-9-8-7-0-5-6-9-6-3" d="M164.5,209.3c3.1-.1,4.5-3.7,2.2-6.6-.3-.4-.4-.7.2-.3,1.6,1.1,4.6.4,4.7-2.9.2-4.1-5.3-5.3-6.3-.9-.1.5-.4.4-.3-.2a12.48,12.48,0,0,1,1.4-5h-3.7a15,15,0,0,1,1.4,5c.1.7-.3.7-.3.2-1-4.4-6.5-3.2-6.3.9.2,3.3,3.1,4,4.7,2.9.6-.4.6-.2.2.3-2.4,2.9-1,6.5,2.1,6.6Z"/><path id="path147-6-9-8-7-4-5-62-08-0-2" d="M14.2,40.4c-3.1.1-4.5,3.7-2.2,6.6.3.4.4.7-.2.3-1.6-1.1-4.6-.4-4.7,2.9-.2,4.1,5.3,5.3,6.3.9.1-.5.4-.4.3.2a12.48,12.48,0,0,1-1.4,5H16a15,15,0,0,1-1.4-5c-.1-.7.3-.7.3-.2,1,4.4,6.5,3.2,6.3-.9-.2-3.3-3.1-4-4.7-2.9-.6.4-.6.2-.2-.3,2.4-2.9,1-6.6-2.1-6.6Z"/><path id="path39-7-2-1" d="M14.8,35h2.6l-3.9-9.7-3,4.1V35h2.1v2.9H5.3V35H7.7V14.1H5.3V11.6h7.5v2.6H10.7V24.4l6.5-10.3H14.9V11.6h7.9v2.5H20.7l-5.4,8.4L20.5,35h2.3v2.9H14.6l.2-2.9Z"/><path id="path39-3-8-1-1" d="M163.9,214.7h-2.6l3.9,9.7,3-4.1v-5.6h-2.1v-2.9h7.3v2.9H171v20.9h2.4v2.5h-7.5v-2.6H168V225.3l-6.5,10.3h2.3v2.5h-7.9v-2.5H158l5.4-8.4-5.2-12.5h-2.3v-2.9h8.2l-.2,2.9Z"/><g id="g5429-3-1-8"><g id="layer1-6-4-4-1"><g id="KC-7-1-9"><g id="g3440-6-4-8"><g id="g3454-7-1-1"><path id="path3450-5-0-3" class="cls-2" d="M128.66,21.21l-65.37.33L71.6,37.41c17-1.55,31.88-.17,47.39.34ZM84,77c-.07.1-2.72.79-2.45,1.4,6.92,14.95,10,27.13,12.9,42.49a6.75,6.75,0,0,1,3.83-1.14c-1.18-5.71,6-6.42,6-.45,1.37.32,2.78.33,4,1.72a96.1,96.1,0,0,1,14.25-46.23c-8.8,3.51-21.68,12.26-21.68,12.26S90.15,82.59,84,77Zm53.42,1.8C125.75,90,121.18,121.11,122,121.54c-15.08-.5-19.65,16.27-6.57,25.31-.52,1.76-1.79,3.18-2.79,4.73a10.83,10.83,0,0,0,4.3,1.11c1.11,1.34,2.22,2.88,3.43,3a22.49,22.49,0,0,0,3.35-3.12,22.82,22.82,0,0,0,4-1.33c-1.15-1.62-2.52-3.26-2.55-4.77,11.36-8.09,9.81-19.07-.45-24.7,3.06-18.52,7.52-30.34,12.67-38.75ZM56.89,93.1c-1.49.73-2.3,2.28-3.38,3.49a11.64,11.64,0,0,0-4.31,1.22s3.39,4.72,3.18,5c-11,7.26-10.9,17.87-.35,24.87,1.8,15.11-10.93,39-11.57,38.34l0,4.94c9.06-10,14.23-28,14.75-42.59,18.09-1.21,18.72-18.84,6.28-25.47-1-.9,3.13-5,3.13-5-1-1-2.78-1.15-4.3-1.27A18.55,18.55,0,0,0,56.89,93.1Zm76.5,12.21c2.55,5.74,11.9-1.25,13.51,1.8,1.32,1.74,4.17,1.91,4-1-.53-2.89-2.43-3.53-9.91-2.26-2.84.47-4,.76-4-.56C135.09,100.88,133.39,104.15,133.39,105.31Zm8.67,8.36c-2.1,0-2.45,8.28-2.43,10.76-6.07,9.68,12.46,8.58,4.44-2,.28-1.38-1-3.62-1-4.61C142.45,117.78,142.16,114,142.06,113.67ZM33.61,126.16c-.19,2.51,1.63,10.11,2.3,9.85,2.37-3.85,2.09-7.15,1.84-10.92C43.41,114.09,24.1,118.6,33.61,126.16Zm35.26,1.76c-.85,16.17-4.77,32-13.66,45.77,7.66-3.61,15.09-8.25,22.28-12.23L94.29,172a6.64,6.64,0,0,0,2.29-1.28c-7.74-11.43-10.15-27.87-13.51-42.75a11.67,11.67,0,0,1-3.7,1.38c-.17,5.16-5.54,6.83-6.63.1ZM28.33,140.54c-1.79.11-3.14,4.59,1.93,5.26,3.58.51,8.17-1.27,10.45-.45,2.65,4.26,5-2,1.49-3-3.81-1.09-11.53,1.77-12.39-.67C29.36,140.81,28.82,140.5,28.33,140.54Zm30.45,70L48.65,228.59l64.78-.39L105,211C105.13,210.79,76.69,214.39,58.78,210.53Z"/><path id="path3446-6-3-4" class="cls-3" d="M72.61,39.13l1.29,2.35c15.17-2.52,27.12-2.91,42.82.15l1.44-2.44C103.83,36.56,89.22,35.49,72.61,39.13Zm14.33,35.4,13.24,8.64s6.34-4.52,9-6.43l-1.65-2.44C102,86.77,92.13,76.91,88.44,71,88.44,71.06,87.45,73.32,86.94,74.53Zm35.56,4.18A1.86,1.86,0,0,1,124.4,80c.53,1.07.72.8.39-.52-.54-2.09,1.67-3.45,3.75-2,1.49,1,1.44,3.44-.21,3.89-1.32.37-1.36.71-.2.66,2.08-.11,2.64,2.71,1.16,4.07a2.36,2.36,0,0,1-4.08-1.52c-.09-.56-.21-.55-.39-.24a5.43,5.43,0,0,0-.47,3.18l-3.08-1.93a7.88,7.88,0,0,0,2.55-1.71c.1-.11.18-.19.18-.24s-.34,0-1,.1c-1.87.19-3.3-1-2.91-2.78a2.32,2.32,0,0,1,2.37-2.18Zm-13.58,48.78c3.35-3.88,7.52-6.36,13.3-6,.74-16.21,6.29-30.61,15.21-43.59l-9.81-6-3.93,2.4C114.62,87.94,108.43,105.07,108.92,127.49ZM35.39,89.62s-6.64,5-9.72,7.46l.14,44.69.87.29c.06.09-.08-.67.31-1a4.14,4.14,0,0,1,1.14-.72c.85-.31.88-.89.09-1.38a1.88,1.88,0,0,1-.77-2,1.71,1.71,0,0,0-.28-1.32,2.37,2.37,0,0,1-.09-2.12c.15-.35.13-.45-.12-.94a2.47,2.47,0,0,1-.12-2,5.91,5.91,0,0,0,.16-1.34c0-1.77,1.42-3,4.11-3.33,1-.14,1.08-.19.61-1.08-2.73-5,3.39-7.62,3.85-6.83Zm83.79,2.49a4.55,4.55,0,1,1-4.44,4.61A4.52,4.52,0,0,1,119.18,92.11Zm0,.81a3.64,3.64,0,1,0,3.65,3.58A3.63,3.63,0,0,0,119.23,92.92Zm.08,1.15a2.47,2.47,0,1,1-2.4,2.49A2.47,2.47,0,0,1,119.31,94.07ZM30,95.93a2.3,2.3,0,0,1,.57.08,1.46,1.46,0,0,1,.9,2.3c-.47.74-.42.82.41.49a1.16,1.16,0,0,1,1.51.36c1.55,1.54-.76,4.15-2.27,2.58-.76-.79-.83-.56-.31.79.16.43.45,1.12.45,1.12l-2.22,0,.51-1.32c.39-1,.4-1.17-.41-.54a1.72,1.72,0,1,1-2.2-2.64c.35-.33.88-.34,1.64-.05.56.22.61.06.2-.45A1.65,1.65,0,0,1,30,95.93Zm46.18,4c-.9,6-.12,14.39-.13,18.89,2.41.46,2.44,2.12,2.81,4.19,1.17-.41,3.75,1.34,4.09,1.18C83.22,118.13,80.09,100.48,76.17,100Zm40.09,6c3.44.29,2.77,3,1.75,4-.47.56-.39.81.14.49,1.45-.88,2.6-.24,3.06,1.28.8,2.59-2.59,4.84-4.1,2.51-.51-.79-.83-.62-.7.22a11,11,0,0,0,.84,2.45l-3.36-.3s1-1.72,1.21-2.19c.38-1,.18-1.22-.54-.43-2.11,1.94-5-.55-3.66-3.13a2,2,0,0,1,3.23-.67c.9.6,1.09.33.28-.37-1.48-1.38-.17-4.07,1.85-3.91Zm-86.11,2.12h.1a1.85,1.85,0,0,1,.9.26,1.51,1.51,0,0,1,.53,2.23c-.29.47-.21.76.14.46a1.44,1.44,0,0,1,1.9.5c1.05,1.65-1,3.79-2.27,2.43-.58-.61-.8-.63-.73-.23.19.73.67,2,.67,2l-2.33,0a15.07,15.07,0,0,0,.62-2c.08-.54-.13-.46-.68.17a1.13,1.13,0,0,1-1.73.22c-1.69-1.13-.34-4,1.44-3.07.6.34.69.14.22-.5a1.56,1.56,0,0,1,1.22-2.5Zm121-1c-3.78,3.93-2.59,1.62-.84,4.61,0,2,1.14,3.53.24,6.64a1.75,1.75,0,0,0-.15,1.52c-.29,3.45-3,3.4-5.68,3.94.44,0,4.21,7-2.83,7.55l.08,28.6,11-8.22L153,107ZM68.29,122.13c-3.13,2.05-7.52,7.13-13.06,6a78.79,78.79,0,0,1-14.76,43.55,93.86,93.86,0,0,0,8.92,5.06,28.11,28.11,0,0,0,6.3-3.84C65.66,157.41,68.8,140.44,68.29,122.13Zm26,3.26c.55,9.17,2,17.86,6.75,24.82l.32-19.48c-1.67-.41-3.06-1.51-3.55-4.62ZM60.14,130.8l3.15.08s-.72,1.43-1,2.24c-.38,1-.21,1.18.51.5a2.38,2.38,0,0,1,3.22-.17c2.08,2.1-.1,5.55-2.57,4-1-.64-1.23-.42-.39.49,1.63,1.52-.07,3.72-2,3.73a2.43,2.43,0,0,1-2.38-2.34,2.11,2.11,0,0,1,1-1.93c.69-.38.2-.65-.56-.23-2.45,1.33-4.08-2.1-2.24-4,1.06-1.12,2.2-1,3.28,0,.75.74,1,.67.81-.2a10,10,0,0,0-.83-2.23Zm85.23,2.69h2.27c-.22.56-.51,1.14-.69,1.7s0,.68.56.1c1.55-1,3.21,0,2.88,1.67a1.56,1.56,0,0,1-2.3,1.22c-1-.44-.67-.25-.12.42a1.52,1.52,0,0,1-.38,2.36,1.76,1.76,0,0,1-2.56-2.31c.61-.94.32-.84-.22-.38-.83.6-2.07-.25-2.1-1.44-.09-1.72,1.62-2.68,2.84-1.47.57.48.71.43.45-.29A12.38,12.38,0,0,0,145.37,133.49Zm.12,12.47,2.37,0a3.24,3.24,0,0,1-.39.87c-.43.82-.37,1.66.08,1.08a1.74,1.74,0,0,1,2.89.48c.61,1.38-.59,2.89-1.82,2.31-.81-.37-.87-.29-.33.49a1.54,1.54,0,0,1-.55,2.24c-1.66,1.07-3.67-1.07-2.27-2.44.37-.37.25-.55-.19-.31-1.83,1-3.2-1.49-1.61-3,.68-.64,1.2-.59,2.3.2.34.24.42,0,.16-.63A9.23,9.23,0,0,0,145.49,146Zm-88,1.51a4.82,4.82,0,1,1-4.71,4.89A4.81,4.81,0,0,1,57.48,147.47Zm.05.85a4,4,0,1,0,4,3.91A3.94,3.94,0,0,0,57.53,148.32Zm0,1.53a2.44,2.44,0,0,1,.07,4.88,2.44,2.44,0,0,1-.07-4.88Zm-6,11.69,2.76,1.36S53,164,52.5,164.53c-.66.71-.62,1.05.27.71a2.4,2.4,0,0,1,3.46,2.1c.05,2.4-2.76,3.54-4.1,1.73-.39-.54-.87-.76-.69-.33a2.56,2.56,0,0,1-.62,3,2.71,2.71,0,0,1-2.38.26c-2-1.05-2.12-3.4-.2-4.32,1-.47,1-.9,0-.67-2,.51-3.13-1.93-1.71-3.58s4-1.39,4.27,1.21c0,.46.37.13.5-.58A15.05,15.05,0,0,0,51.56,161.54Zm25.72,3.93s-10.1,5.8-9.8,6c.06,0,2.24,3.14,2.24,3.14,5-11.46,17-2,18.93,3.89a6,6,0,0,0,.94.39c0-.41.88-4.48.88-4.48Zm-16.56,42.3-1.62,2.34c-.56.24,25.18,4.63,45.48.16l-1.4-2.69c-16.54,4.27-42.72.51-42.46.19Z"/><path id="path3444-9-5-7" class="cls-4" d="M24.06,19.57V230.09H154.68V19.57ZM63.23,21.2,128.8,21,116.68,41.89c.12-1.1-23.57-4.48-42.92-.36Zm-37.32.5H61.58l12,21.72a4.12,4.12,0,0,1,.29,2.78,13.83,13.83,0,0,1-1.27,3c0-.45-3.46-.9-3.17,2.14A2.79,2.79,0,0,0,74.14,53c.3,0,.29.25.23.77-.18,1.17-1.42,4.89-2.27,5.14-4.32-3.57-5.85,3-2.95,4.25a4.54,4.54,0,0,0,5.49-1.9c.93-1.57.83-1.3,1.12.59.1.71.26,1.53.34,1.89.26,1.16,0,1.38-1.92,1.9a31,31,0,0,1-4.71,1.29A5.19,5.19,0,0,0,65,72.3c0,.59,0,.85-.12,1a136.85,136.85,0,0,0-39,22.59Zm81.86,51.67A44,44,0,0,1,105.4,67c-1.07-8.1-1.26-17.69-2.41-25.21l1.5.17A63.31,63.31,0,0,1,105.67,50c.3,2.92.61,9,.87,11.78.37,4.14,2.24,10.77,3.38,12.44,1.87,2.73,5.64,1,4.38-2.27-.65-1.68-3.19-1.4-2.83.34,0,.31.24-.22.62-.55a1.44,1.44,0,0,1,1.68,2.11c-.79,1.76-3.15,1-4-1.26-.94-2.66,2.22-4.65,4.58-3,2.62,1.8,2.63,6.39.51,7.85-3.56,1.29-6-1.32-7.14-4Zm8.8,3.37c-.14-.09,0-.37.18-1a6.26,6.26,0,0,0-1.34-6.22c-.88-1-1.22-1.19-.75-1.37,1-.39,3.15,1.2,3.75,2.76a5.82,5.82,0,0,1-.1,4.86C117.73,76.1,116.83,76.85,116.57,76.74Zm2.68-1.64c0-.3.19-1.2.24-1.65a6,6,0,0,0-2-4.84c-1.18-1.15-1.29-1.27-.18-1.28,2.9,0,4.76,4.68,3.41,7C120.34,74.69,119.28,75.45,119.25,75.1Zm2.46-1.6c.85-4-3-6.72-3.09-6.6.19-.9,1.72-.39,2.25,0,2,1.32,3.07,4.77,1.88,6.75a1.31,1.31,0,0,1-.49.5c-.41.26-.64.46-.73.28s.15-.71.18-.9Zm-34-13.08c.41-.39.53-.41,1.3-.12,2.43.93,4.37-.83,3.79-2.67a2.43,2.43,0,0,0-1.68-1.45c-.92-.09-.93.39,0,.77a1.24,1.24,0,0,1,.26,2.34c-1.26.86-3.31-1.3-4.82-1.13a1.18,1.18,0,0,0-.77,1.73C86.2,60.45,87.3,60.8,87.73,60.42ZM85,60.15c-.83-.4-1.15-.39-1-1.3.11-.61,1-4.72,1.37-6.31,1.23-4.75.08-7.39-3.41-8.46A8.29,8.29,0,0,0,75.2,45l-.43-1.35C84.84,41,102,41.59,102,41.69a29.2,29.2,0,0,1,.61,4.1,46.41,46.41,0,0,0-4.9-2.13c-2.59-.79-6.68.08-7.4,1.58-.41.84-.2,1.41,1.54.48,2.85-1.55,8.66-.37,10.7,1.27.47.38.46.46.47.91,0,.67.06.7-.89.21-4.89-2.52-9-2.22-10.5,1.09-.34-.1-1.6-.32-1.6-.32l1.36,2L91.61,53s2.22,1.24,3.45,1.77.51,0-1-1.08c-1.09-.76-.22-1,.49-.72a7.35,7.35,0,0,0,6.13-.82,2.89,2.89,0,0,1,2.57.16s.24,1.86.47,5.74c.12,1.84.33,4.23.46,5.21.38,3,.49,3.15-1,1.73-.52-.49-1.39-1.27-1.39-1.23-.2.92,2.09,2.54,2.62,3.1.81.85,1.46,3,1.14,3.13s-2.38-1.77-4.09-3.45a17.62,17.62,0,0,0-1.62-1.44c-.35.24,1.08,1.88,2.42,3.09,1.56,1.42,1.75,1.55,1.22,1.77-1,.39-1.86-.11-4.21-2.08a6.28,6.28,0,0,0-1.16-.78c-.21.28,2,2.37,2.45,2.54.93.34,1.19,1.23.46,1.59-.48.24-2.28-.76-3.73-2a3.33,3.33,0,0,0-1-.56c-.29.19,1.33,1.59,2.87,2.53s1.75,1.14,1.37,1.91-3.67-1-5.33-2.91c-.36-.39-.62-.57-.56-.43.72,2,3.11,3.47,4.86,4a3.65,3.65,0,0,1,1,.4c.49.4.4.82-.15,1.05-1.89.53-4.86-1.77-7-4.18-.24-.11-.1.22,0,.32,1.78,2.86,5.18,5,7.22,4.63,1.19-.24,2.16.12,2.17.52s-.66.87-1.94,1c-2.91.21-7.46-3-10.12-7.1-.08-.12-.18-.18-.18-.11-.08.87,1.57,3,2.84,4.21,3.76,3.61,7.33,4.84,10.1,2.8,1.57-1.22,3.08-3.89.75-4.8-1.24-.47-2,1.24-1,.74,1.39-.17,1.7.57,1.53,1.27a1.63,1.63,0,0,1-2.49.89c-1.68-.91-1.31-4,.84-4.58a3.33,3.33,0,0,1,3.87,2.76c.34,2.45-2.4,5.11-4.6,5.77-7.49,2.26-13.36-8.27-13.39-8.5-.39-.73-.84-1.11-1.11-.27-.31,1.23-2,4.85-2.9,4.82.28-1.27,1.46-3.41,1.17-5.29-.5,1.54-1.55,4.83-3.57,6.58-.52.47-2.06,1-1-.2,1.28-1.8,3-4.28,2.61-6.61-.34.52-.53,1.85-.91,2.73-1,2.18-3.09,4.78-4.49,5.19-1,.32-.93,0,.12-1.16s3.13-4.73,3-6.26c-.06-.68-2.09,5.82-5.88,7.6a1.66,1.66,0,0,1-1.61-.1c1.5-.87,5.62-5,5.24-9.65L79,70c-1.39,4.45-4.41,7.39-6.75,7.62-1.86.19-3.18-.57-2.71-.9a6.58,6.58,0,0,0,6-3.22C77.14,71,77.72,67.15,76.76,63a70.49,70.49,0,0,1-1.35-10.66c2.65.92,5.33,1.53,7.93.5-.26,1.08-.7,1.21-1.37,2-.49.58-.32.73,1.61-.65.56-.4.77-.73.86-.62s-.1,1.27-.65,3.46c-.84,3.28-.62,3.5,2.49,4.74a2.12,2.12,0,0,1,1,.7c.1.12.6,1,.65,1.07s.09-.94,0-1.21a2.28,2.28,0,0,0-.85-1.4A8.88,8.88,0,0,0,85,60.15Zm58.8,42.68,0-3.4,3.27,2.35,0,1.11Zm-5.59.74-.13-62.82s2.51-1.69,3.77-2.52c.78,2.49.77,7.83.48,10.2-.49,1.56-.72,8.44-.15,12a35.44,35.44,0,0,1-.07,9.63,63.6,63.6,0,0,0,.27,8.67,24.64,24.64,0,0,1-.18,7,29,29,0,0,0,.13,7,59.41,59.41,0,0,1,.32,10.43C142.17,103.69,138,103.78,138.24,103.57Zm5-65.75s2.53,1.67,3.74,2.53v2.7l-3.65-2.41ZM105.48,42.2l1.56.09A91.29,91.29,0,0,1,108.18,53c.07,5.75.78,11.81,2.12,15.78L109.14,70c-2-4.55-2.11-11.74-2.54-16.61a89.75,89.75,0,0,0-1.12-11.2Zm38-.57,3.4,2.32,0,2.95-3.43-2.29Zm-35.78.79,1.37.15c.42,3.89,1.05,6.52,1.31,10.81.31,5.54,1.26,10.08,1.86,14.4l-1,.34c-.68.33-1.83-4.78-2.33-15.14-.16-3.15-.67-6.68-1.17-10.56Zm2.09.14,1.64.29a190.45,190.45,0,0,0,3.08,24.35l-1.43.1c-1.77-7.56-1.89-16.3-3.29-24.74Zm2.37.35,1.5.26c1.81,22.48,2.94,22.2,3.28,23.09l-1.63.66c-1.77-6.46-2.12-15.58-3.15-24ZM119,65c-.26.77-.87.69-1.53.76A34.22,34.22,0,0,1,116,58.81c-.69-5.3-.93-10.26-1.65-15.49l1.8.17c-.08,0,1.26,18.46,2.87,21.5ZM80.35,45.23c2.37.12,4.33,1.19,4.53,2.76,0,.36-.24.18-.56-.06a7,7,0,0,0-7.15-1.06c-.61.23-1.11.57-1.39.53a.67.67,0,0,1-.14-.87C76.31,45.44,79.18,45.18,80.35,45.23Zm-5.48,3.16c0,2.47-.55,3.84-1.84,4.41-1.55.7-3.55-.79-2.58-2.45.73-1.25,2-.88,2.23.45l2-4.43s.2,1.38.21,2ZM147,48l0,2.55-3.65-2.46.24-2.44Zm-64.64-.33c1.79.72,2.45,1.58,2.52,2-.1.3-.28.1-1.59-.61a6.22,6.22,0,0,0-7,.13c-.58.12-.63-.22-.06-.85A6.26,6.26,0,0,1,82.34,47.65ZM96,47.18A11,11,0,0,1,101,48.34a8.12,8.12,0,0,1,1.8,1c.37.19.39,1,.13,1.09s-.63-.15-1.22-.56C98,47.37,95.24,47.67,93,49.2a1.58,1.58,0,0,1-.64.15c-.41,0-.43-.21-.27-.43A5.49,5.49,0,0,1,96,47.18ZM143.32,49,147,51.54v2.53l-3.88-2.71ZM77.41,50,78,50c1.24,3,2.8,1.47,3.45.25l.65.11c-1,4.07-5.16,1.93-4.64-.38Zm-.89.4c.6.08.58.76.77,1.27.43,1.12-1.17.18-1.45-.09C75.37,51.07,76,50.45,76.52,50.39Zm18.07-.11c1.58,2.42,2.48,1,3.38-.07l.43.14c-.12,1.74-3,3.59-4.38,0Zm4.83.27a3.33,3.33,0,0,1,.81.25c.87.35.81.6-.13,1-1.52.68-2,.77-1.6-.19.27-.44.44-1,.92-1.09Zm-6,.37A1.49,1.49,0,0,1,94.12,52c0,.35-1.17-.06-1.16-.63C93,51,93.2,50.74,93.44,50.92Zm-10.55.13c.78.29.68.66.14,1-1,.54-1.4.44-.76-.42C82.57,51.24,82.63,51.07,82.89,51.05Zm60.18,1.28,4,2.81,0,2.58L143,55a11.06,11.06,0,0,1,0-2.67Zm-68.33,4c.18,0,.26.63.31,1.54.07,1.51-1.46,3.63-3,4.37-1.86.88-3.86-.35-3.53-2.18.3-1.68,2.67-1.76,2.77-.2-.24.41.09.76.22.72a5.77,5.77,0,0,0,2.64-2.92,6.56,6.56,0,0,1,.52-1.3A.11.11,0,0,1,74.74,56.32ZM143,55.84l3.95,2.92,0,2.56L143,58.6a13.13,13.13,0,0,1-.06-2.76ZM95,59.9c-.3.5,0,1.41.56.64a1.63,1.63,0,1,1,2.63,1.94c-1.11,1.33-2.46.9-5.35-.2-2.1-.81-2.43-.54-2.94,0s-.21,1.44.34,1.43c1.69.39,3.17.77,4.92,1.14,3.72.77,6-4.07,2.59-5.84A2.43,2.43,0,0,0,95,59.9Zm-16.41.56c-1.44,1.31-.25,4.75,1.88,5.06a4.5,4.5,0,0,0,1.87-.18c1.49-.43,3.14-1.33,3.21-1.84.3-2.36-3.18-.25-3.63,0-1.11.68-2.26.59-2.84-.21-1.32-1.8,1-3.87,2.48-1.66.36.55.23-.39-.16-1A2,2,0,0,0,78.62,60.46Zm64.61-.75L147,62.36l0,2.45-3.6-2.61Zm.28,3.6L147,65.86l.07,2.57L143.39,66c.08-.91.09-1.78.12-2.66ZM123.8,64.79c3.09,0,4.84,4.65,3.21,6.57-.48.57-.87.73-1.09.52a6.7,6.7,0,0,1,.07-1.14,5.44,5.44,0,0,0-1.64-4.54C123.31,65.14,122.94,64.8,123.8,64.79Zm-38.09.73c-.58.21-1.2.64-1.67.53a.72.72,0,0,0-.88.51c-.71,1.44-.48,1.9.91,1.08.66-.39.9-.25,2.68.1A6.87,6.87,0,0,0,90,67.67a3.8,3.8,0,0,1,2.93,0c.69.39,1.18.92,1.2.48s-.53-1.81-.63-2.24c-.05-.21-.4,0-.72,0-1.14.09-2.53-1-3.42-.41-.71.45-.82.56-1.79,0C86.85,65,86.35,65.29,85.71,65.52Zm37.25.32c2.09,1.76,2.63,3.33,2.42,4.62-.1.92-.17,2-1.08,2.52a2.67,2.67,0,0,1-.65.17c.71-2.66-.12-5-3.08-7.57A2.15,2.15,0,0,1,123,65.84Zm-47.23,0a.61.61,0,0,1,.29.06c.37.12.42,1.07.14,1.39s-.52,0-.84-.71A.46.46,0,0,1,75.73,65.83Zm-1.93.75c.77,0,1.06.69,1.19,1.26s0,1.92-.43,1.42a4.81,4.81,0,0,0-.84-1.55C73,67.14,73,66.6,73.8,66.58Zm-2.16.71a2.53,2.53,0,0,1,.43,0c1.2.21,2.11,2.12,1.83,3.21-.64,1.17-.87.37-1.07-.67a6,6,0,0,0-1-1.48C71.27,67.64,71.17,67.3,71.64,67.29Zm71.77-.55,3.64,2.63v2.81l-3.81-2.58c.07-1,.12-1.93.16-2.86ZM69.28,67.88c1.78,0,3.31,2.1,2.73,4.1s-4.16,1.65-3.59-.43a1,1,0,0,1,1.41-.66c.89.53.79-.34.23-.66a1.55,1.55,0,0,0-2.31.79c-.92,3.42,3.45,4.6,5.81,1.06a38.63,38.63,0,0,1,2.34-3.27c.46-.53.57-.47.49.21-.3,3.19-2.5,7.16-6.62,6.94-4-.38-5.26-4.68-2.24-7.36A3,3,0,0,1,69.28,67.88ZM90.52,68a4.72,4.72,0,0,1-4.23.36c-1.07-.48-1.06,0-.59.46,1.34,1.14,3.78.63,4.83,0,.33-.19.44-.81,0-.79Zm56.53,5.1v2.57L143,73a12.07,12.07,0,0,1,.13-2.5Zm-3.91.86L147,76.56l.1,2.53-3.76-2.35Zm.28,3.54,3.69,2.59.06,2.76-3.65-2.43Zm-90,2.91-2.27,6.9,1.48.09,1,1.82,1-1.86,1.56-.13Zm90.13.92,3.55,2.46,0,2.57-3.69-2.58Zm-.14,3.14,3.65,2.66.07,2.72L143,87.12ZM61.84,86,59.6,93.42l1.27-.17,1.17,2,1.19-1.77,1.14.07ZM45,86.6l-2.13,7.32H44.3l1.2,1.85,1-1.79,1.62,0Zm97.93,1.34,4.27,3,0,2.89-4.15-2.8Zm4.23,6.85.05,2.53-3.61-2.58-.39-2.8Zm-76.38.43-2.62,7.44h1.75L71,104.46l.85-1.79h1.41Zm73.06.75,3.34,2.31,0,2.6-3.29-2.22Zm-63.3,30.14-1.91-1.84a2.73,2.73,0,0,1,2.54-.44,2.68,2.68,0,0,1,.5,4.21,2.63,2.63,0,0,1-2.93,0Zm-1.69-3a3.89,3.89,0,0,0-2.69-4.16s-.2-18.08-.18-18.6c0,.07-.31-2-.35-2.08h0a1.53,1.53,0,0,0-.29-.07c.05,1.83.18,20.61.15,20.73-2.31.27-3,1.84-3.15,4a3.5,3.5,0,0,0-3,1.15c-.66-.92-.17-2.27-.69-3.23-1.59,5.61,1.5,9,4.2,8.66.43,5.4,6.32,6.37,6.12-.18C86.09,128.8,83.68,122.18,78.86,123.07ZM45.4,100.39l-2.58,7.3,1.8-.21.66,1.35c2.89-2.58,4.36,1.41,2.88-2Zm98,13a.89.89,0,0,1,.86.69c.06,1.24-1.57,1-1.64.17A.86.86,0,0,1,143.41,113.37Zm1.07,8a1.09,1.09,0,0,1,1.85.63c0,.79-.87,1-1.56.6a.81.81,0,0,1-.29-1.23Zm.11,2.16c3.88.31,6.76-2.36,5.53-4.27,1-1.32.19-2.07.48-2.84a2.42,2.42,0,0,0-.07-2.69c-.18-2.45-.89-2.77-1.94-4.08-.31-.38.74-.76,1.14-1.4-1.24.33-1.91-.3-2.59-1.14-7.17.34-13.62.84-13.38,10.67-1,4.16.72,7.88,5.73,6.74,1.1-1,.38-2.42.24-3.11a8.55,8.55,0,0,1,.21-4c.44-2.75,2.42-5.29,2.65-1,.35-.53.18-.62.76-.85,1.38-.51,1.38.9,1.09,1.47-.18.3-.46.28-.73.24s-.93-.2-.93-.36c-.11.45.73,1.29.65,1.71s-.18.36.18.1c1.73-1.24,2.81,1.53.32,1.21C145.14,120.61,143.31,122.55,144.59,123.54Zm-2.56-15c1.36-.07,1.68-.08,1.62.65.26,1.32.59,2,2.3,1.81s2.28-.34.54.71a3.38,3.38,0,0,1-2.21.37c-1.06-.1-1-.19-1.58.16a3.33,3.33,0,0,1-1,.5c-.41.07-1.11.22-1.11.22a7.84,7.84,0,0,1-1.88,4.09c-1.2,1.37-1.8,1.61-.34,1.52.54,0,.26-.24.5,2a11.73,11.73,0,0,0,.35,2c.39,1,.43,1.52-1,1.6-3.63.28-4.48-3.29-4-5.11,0-.28.21-1.24.25-2,0-.42-.06-.76,0-1.18.08-3.4.88-4.3,3.86-6.51A7.23,7.23,0,0,1,142,108.54Zm3.19.2c1.67,0,3.29.78,2.49,1.31a4.24,4.24,0,0,1-2.93-.17C144.1,109.38,144.35,108.76,145.22,108.74Zm-74.74,2.89-.66,1.18a12.48,12.48,0,0,1-.57,6.66l1.37,1.81,1.08-1.87,1.7,0Zm78.37-.55a1.22,1.22,0,0,1,.85,1.83c-.6,1.36-4.66,2-4.66,2a3.08,3.08,0,0,0-.38-1.81,14.15,14.15,0,0,0,3.29-1.24c.36-.36.59-.8.9-.8Zm.8,3.07c.4,0,.6.3.7.88a1.14,1.14,0,0,1-.31.92,7,7,0,0,1-5,1.63,10.09,10.09,0,0,1,.18-1.81C146.63,115.8,149,114.55,149.65,114.15Zm-41.3,7c-1.39-2-4.46-1.71-4.12-1.58,0-1.73-.27-4.1-2.86-4.34s-4,3.28-3,4.76c-1.62-.68-4,1-4,1.18-.2,0-2.06,4.94,3.55,5.19a5.69,5.69,0,0,0,3.17,4.42l0,19,.63.87,0-20c2.86-.12,3.22-3.43,3-4.2a5.16,5.16,0,0,0,3.42-.95l.34,3.25a3.59,3.59,0,0,0,.53-1.76c-1.26-18.69,5.45-38.92,14.25-52,.46-.55.62-1.2.85-1.21,2.15-1.17,3.49-2,3.49-2,3.55,1.72,9.86,5.86,9.86,5.86l.1,26.64c-.09-.26,11.77-1.34,11.59-1,0,0-1-.41-1.05-1.1l-.31-62.34-5.18-3.41s-4.26,2.8-5.47,3.77l.12,36.7-9.19-5.43s.14-1.3.17-1.72c-.15-5-2.59-6.68-7.23-5.2-.63.2-1,.38-1.36.13-2-5.76-2.83-20.9-2.83-20.9L130,21.45l22.2-.13.39,85.5.81,44.82L142.05,160l-.15-28.72a14.12,14.12,0,0,0-2.06-.83c-.15,0-.36.34-.08.52a10.74,10.74,0,0,0,1.44.65l.24,28.45s-4.41,3-6.37,4.24c-3.68,2-7.3,4-11.11,5.68s-12,5.08-12,5.08c-.72-2.39-7.81-8-15.77-4a11.17,11.17,0,0,0-2.24.95c-3,.55-4,3.84-4.5,7,0,.13.25.11.25.11s.72-3.06,1-3.64a4.14,4.14,0,0,1,1.71-2.12c.19,0,.33.25.09.69a13.28,13.28,0,0,0-1,3.59c-.11.78-.12,1.39,0,1.42s.71-2.35,1-3.19c.8-2.18,1.3-3.08,2.07-3.55s1-.4.82.09a16.16,16.16,0,0,0-1.89,6.52c0,.49.21.5.41-.3.63-2.58,1.52-6.08,3.6-7.11.9-.41,1.28-.38,1.19-.1a14.26,14.26,0,0,0-3.07,7.8c0,.37.16.31.48-.52.84-3.1,2.09-5.76,3.56-7.06a3.3,3.3,0,0,1,1.84-.71c1.76-.23,1.82.44.29,1.33-1.74,1-3.75,4.73-4,7.52-.07,1,.27,1.08.5-.21,1-5.54,5.74-9.21,9.51-7.51,1.7.77,2,1.83.54,1.35-3-1-6.32,1.18-7.68,4.16-1.23,2.7-1.22,4.12-.35,7.74.59,3.34,1.75,7.6,1.37,10.86-.41.65-1.7-.25-3.24-.45a5.53,5.53,0,0,0-3,.15c-.84.33-1.33.42-1.47,0,0-.16.65-.87,1-1.28.49-.62.22-.73-.49-.05a8.21,8.21,0,0,1-1.28,1.17c-.44.09-.47-.41-.09-1.7,1.26-5,.92-5.07-1.23-6.07-2.13-.83-1.47-1.24-2.4-2.06-.66.53.87,2.94,2.61,3.46,1.42.43,1.25,1.16.63,3.14-.63,2.76-1.7,6.42-1.09,8.87,1.32,5.15,6.49,5.05,10.46,3l.49,1.32c-3.36,1.37-21,2.54-27,1.84a17,17,0,0,1-.69-3.95,31.41,31.41,0,0,0,5.52,2c2.29.37,5.83.37,6.73-1.75.28-.62,0-1.16-.79-.79a12.92,12.92,0,0,1-11.08-.38,1.19,1.19,0,0,1-.53-1.63c.35-.08.79.31,1.07.44,3,1.54,4.71,1.85,6.7,1.25,1.51-.45,3.54-2.1,3-2.55-.5.18-2.2,1.61-3.36,1.93-2.39.63-5-.35-7.43-2-.77-.68-.43-1.16.52-.63,3.73,1.9,5.28,3.15,8.84.5.8-.6,1.25-.52,1.72-.16,1.85,1.68,1.85.73.48-1a4.93,4.93,0,0,1-.77-1.54,3.37,3.37,0,0,0-.4-1.15,6.15,6.15,0,0,0-2.05-1.12c-1.25-.56-1.66-.29-.74.17,1.61.8,2.4,1.65.39,1.18a7.58,7.58,0,0,0-6.58.85c-1.35.66-2,1.37-2.27-.12-.66-3.14,0-7.41-.91-12.87-.17-1.05-.37-1.71-.16-1.85s1,.48,1.83,1.7c.39.55,1.16,1.63,1.16,1.4,0-1.16-1.75-3.33-3.24-4.2-.81-.47-1.36-2.64-.43-2.17a28.22,28.22,0,0,1,5.15,4.84c.34.55.6.21.27-.44A14.84,14.84,0,0,0,75.64,181c-1.52-1.49-1.68-1.42-1.4-1.72.57-.6,1.8.18,4,2.17.56.72,1.29,1.37,1.21,1,.22-.56-2-2.92-3.26-3.56-.25-.15-.28-.32-.26-.61.14-1.12,2.65.53,4.73,2.45.78.72.14-.64-.77-1.56a9.47,9.47,0,0,0-2.64-1.94c-.78-.32-.82-1-.21-1.29,2.09-.09,4.25,2.07,5.54,3.76.36.47.68.82.3,0a7.91,7.91,0,0,0-5.39-4.47c-1.39-.24-1.36-1.51,0-1.37s3.79,1.47,5.8,3.51c.57.59,1.55,1.93,1.35,1.15a7.11,7.11,0,0,0-1.32-1.88,12.18,12.18,0,0,0-5.56-3.53c-.94-.27-3.74.28-3.75-.21s.29-.58,1.19-.88c3.47-1.17,8.53,1.85,11.29,6.46.21.33.58.47.59.39-1.33-3.78-5.49-7.2-8.79-7.78-2.25-.37-4.52.22-5.6,1.74-1.22,1.73-.75,4,1.09,3.84,1-.08.87-.63.86-.65s-.63.2-1,.13a1.2,1.2,0,0,1,.71-2.3c2.1.26,2.38,3.6,0,4.29-2.16.65-3-.35-3.55-1.53-.87-1.73.06-4.53,1.58-5.6,4.27-3,9.68-.48,12.75,2.49a13.5,13.5,0,0,1,3.3,5.11c.18.44.56.39.38-.06-4.3-11.08-17.16-12.37-19-3.77-3.12-4.93-5.84-5.28-10-3.12-4.26,1.78-6.36,3.23-10.28,5.08l-8.92-4.83C40.08,163,40.37,154,40.4,145c0-.2-1.93.15-5.19.67-8.67,1.74-7.94-2.94-9.06-3.18-.6-.13-.56.13-.73-16.37-.05-4.79-.15-13.23-.22-18.73s-.08-10.09,0-10.18a7,7,0,0,1,1.1-.92c2.12-1.51,3.31-2.42,7.92-6a10.47,10.47,0,0,1,1.31-.94c.53,9.91,0,20.32.32,28.85h.38L36,89.63c-.8-.22,18.22-11.45,28.65-15.1a1.52,1.52,0,0,1,.68.16c6,7.4,21.73,5.16,23-3.85C91,76.33,102.43,87,107.66,74.15c0,0,1.9,3.7,3.53,3.94,3.65.5,4.07-.08,12.12-4a88,88,0,0,0-15,47.06Zm-4.9-3.51a3.94,3.94,0,0,1,.11,2.07c-.24.5-.59.49-.59.49l-1.78-1.54-1.74,1.63a2.54,2.54,0,0,1-.48-2.59A2.48,2.48,0,0,1,103.45,117.6Zm46.08-.25c1.15-.07.55,1.26-1.14,2.16-1.06.56-1.94.72-2.31.51a1.92,1.92,0,0,1,.09-1.44,27.65,27.65,0,0,1,3.36-1.23Zm-73.7,2.5a2.35,2.35,0,0,1,2.41,2.49,3.1,3.1,0,0,1-.33,1.31l-2.12-1.58-1.61,1.73c-.28.1-1.27-1.14-.59-2.5A2.47,2.47,0,0,1,75.83,119.85Zm30.61.73a2.43,2.43,0,0,1,.36,4.31c-.81.46-2.11.72-2.73-.22l1.75-1.93-2-1.7a3,3,0,0,1,2.63-.46Zm42.77-.66c.31,0,.39.12.47.41.25.81-.38,1.65-1.48,1.92s-.91.36-1.4-.56c-.38-.72-.47-.69.12-.92S148.39,120.26,149.21,119.92Zm-50.68,1.23L96.72,123l1.91,2c.09.24-2.2,1.28-3.39-.29a2.74,2.74,0,0,1,.76-3.63C97.12,120.39,98.74,121,98.53,121.15Zm2.74-.21a2.06,2.06,0,1,1-2,2.08A2,2,0,0,1,101.27,120.94Zm-27.82,3.45-1.83,1.93,2,2.16a9.54,9.54,0,0,1-2.11.16c-2.69-.5-2.42-3.69-.35-4.52A2.33,2.33,0,0,1,73.45,124.39Zm-35.8.66s.36,4.08.69,5.47c-.21,1.59-1.23,2.67-1.69,4.31-.24.73-1.16,1.71-1.33.68-.67-1.27,0-2.83-.58-3.73s-.2-1.32-.39-2.2c-.52-.73-.75-1.07-.67-1.7-.11-2.89-.83-2.32-2.1-2.07-4.92.42-4.92,3.28-4.62,6.92-.69,3.42.59,2.6.54,3.22-.07,1,.1,2.33.39,2.48,1.76,2,1.85,3.44,4.12,3.1,3.87.3,10-.27,11.34-5C44.17,129.75,44.44,123.37,37.65,125.05Zm38.44-.67a2,2,0,1,1-1.94,2A2,2,0,0,1,76.09,124.38Zm-36.75,1.05a3.11,3.11,0,0,1,2.3.83c1.51,1.47,1.59,2.8.91,8.45a5.61,5.61,0,0,1-1.48,3.51,13.39,13.39,0,0,1-4.77,2.37,7.8,7.8,0,0,1-2,.2c-.58,0-.91-.28-.95-.76.13-1.31-1.21-1.44-2-1.36-1.38.06-1.51.2-.65-.47s3.23-.78,3.67-.32a4.25,4.25,0,0,1,2.91-1.13,2.45,2.45,0,0,1-.29-1.86,11.16,11.16,0,0,1,2.59-3.53c1-1.34.15-.73-.48-.72-.36,0-.32-.1-.39-.35a23.16,23.16,0,0,1-.62-4.16C38.09,125.53,38.62,125.43,39.34,125.43Zm-6.46,1.45a.77.77,0,0,1,0,1.22.88.88,0,0,1-1.45-.61A.9.9,0,0,1,32.88,126.88Zm68.52,2.82A2.57,2.57,0,0,1,99,126.22c.34-.48.48-.41.48-.41l1.87,1.69,1.8-1.9A2.45,2.45,0,0,1,101.4,129.7ZM30.87,127a3,3,0,0,0,.07,1.28c-.33.24-1.71.64-2.46,1a.65.65,0,0,1-.82-.76c.19-.84,1.41-1.39,2.29-1.64A1.12,1.12,0,0,1,30.87,127Zm.29,2.39c.51-.06.36,1,.18,1.6-.2.41-.75.39-1.24.41-.87.05-2,1.08-2.46.9-.15-.07-.27-.48-.29-.76.11-1.46,2.53-2,3.81-2.15Zm2.67,1.53a1.15,1.15,0,0,1-1.16.24.9.9,0,0,1-.2-1.63C33.61,129.09,34.29,130.17,33.83,130.87Zm72.82-2.43-1,1.54-1.52,0,2.46,7.6,1.13-3c.16-1.36.33-2.72.47-4.1Zm-32.33.65,1.94,1.59L77.93,129c1.23,2.78-.2,4.06-1.71,4C74.55,133,72.75,131.35,74.32,129.09ZM31.66,132c.61-.12.36,1.57.27,1.62a8.66,8.66,0,0,0-2.8,1c-1.52,1.2-2.17.46-1.46-1C28.32,132.74,30.77,132,31.66,132Zm1.93.07a.88.88,0,0,1,.74,1.4.92.92,0,0,1-1.55-.6A.83.83,0,0,1,33.59,132Zm-1,4.27c.1.38,0,.26-.75.48a9.45,9.45,0,0,0-1.66.71c-.94.49-1.21.74-1.53.68a.77.77,0,0,1-.65-.45c-.33-1.09.55-2.19,2.59-2.94a7,7,0,0,1,1.45-.31C32.72,134.47,32,135.53,32.59,136.31Zm1.21-1.63c1,0,1.18,1.3.43,1.53C32.51,136.67,32.65,134.67,33.8,134.68Zm-1.22,4.86a.61.61,0,0,1,0,.94c-.58.29-2.76,0-2.77-.57,0-.41.72-.55,1.4-.56S32.36,139.33,32.58,139.54Zm98.76.68-1.8,2.43,2.42,6.12,2.21-7.41-1.73.7Zm-102,6.28c.42,18.81.35,61.95.35,61.95L35,212.09,40.62,208c-.07-13.57-.12-22.94-.16-35.52l8.19,4.55s.25.36.21,2.06c-.56,4.7,3.93,7.74,6.91,5.89,1.15-.49,1.24-.57,1.48-.2.66,1,1.42,5.33,1.56,8.08.19,4.15,1.26,12.61,1.53,12.67L47,228.24H25.93V143.71a7.08,7.08,0,0,0,3.44,2.79Zm77.32-1.81-1,1.53h-1.21l2.12,7.88,2.56-7.7-1.42-.17ZM40,207.49s-2.59,1.88-3.43,2.42c-.44.17-.63.2-.75-.23a13.87,13.87,0,0,1,.26-3.11,11.47,11.47,0,0,0-.08-3.71,19,19,0,0,1-.08-5.25,47.15,47.15,0,0,0,0-8.42,54.61,54.61,0,0,1,0-8.52,30.91,30.91,0,0,0-.22-7.6c-.67-3.77-.79-5.06-.08-7.91a9.83,9.83,0,0,0,.34-3.4,41.27,41.27,0,0,0-.8-7c-.4-2.53-.44-2.87-.06-6.86.07-.81.09-1.35.41-1.61s4-.51,4-.51Zm-9.71-60.93,4,0a14.55,14.55,0,0,0-.41,3.16l-3.57-2.37Zm0,1.63,3.54,2.34a21.76,21.76,0,0,0,.08,2.91L30.32,151Zm0,3.7,3.79,2.61c.14,1,.45,2,.58,3l-4.3-2.94Zm122.58,1,.19,75.3H115.35l-12-23.19a21.07,21.07,0,0,1,.42-3.23c.36-1.32.46-1.6,1-1.65a2.52,2.52,0,0,0,3.3-1.26c.57-1.27-.58-3.17-2.32-3.6a3,3,0,0,0-2.47.82c-.49.41-.6.46-.7.11-.21-.81.51-3,1.78-4.95.72-1.07.91-1.37,1.15-1a2.29,2.29,0,0,0,3.71.37,2.84,2.84,0,0,0-1.36-4.34c-4.08-1.32-6,2.83-5.91,2.81l-.89-5c4.92-1.22,7.76-1.65,9.33-3.17a6.56,6.56,0,0,0,1.67-5.05s13.68-5.6,20.07-9.09a150.28,150.28,0,0,0,20.76-13.94Zm-20.82.56-1,1.79h-1.44l2.9,7.59,2.21-7.91-1.39.12ZM30.48,155.64l4.35,3a13.09,13.09,0,0,1,.09,3l-4.58-3.06Zm84.74-.92-1.08,1.45-1.25-.13,2.44,7.51c.73-2.17,1.41-5.12,2.15-7.3l-1.15.06ZM30.4,159.51l4.49,3a5.51,5.51,0,0,1-.26,2.47l-4.23-2.74Zm93.25.43-1.09,2.13-1.46-.21,2.59,7.2,2.85-7.14-1.76.1ZM30.41,163l3.91,2.89c.06,0-.22,1.32-.16,2l-3.71-2.3Zm.11,3.57,3.63,2.52a14.84,14.84,0,0,0,.23,2.67l-4-2.59Zm-.07,3.63,4.2,3,.22,2.42-4.45-2.82Zm34.59,1c4,1.53,7.82,9.25,7.7,19.27-.09,7,2,16.88,2,16.77s-1.18.17-1.51-.1a65.88,65.88,0,0,1-2.26-15,79.73,79.73,0,0,0-.65-8.21c-.66-3-1.37-6.48-3.27-8.76-1.47-1.71-3.17-2-4.17-.08-.82,1.58.92,4.18,2.35,3.32.35-.19.56-.54.1-.53a1.81,1.81,0,0,1-1.56-2.86c1.66-1.75,4.58,2.15,3.23,4.31-.6.92-2.15,1.1-3.4.75A5.44,5.44,0,0,1,61,173.29a3.23,3.23,0,0,1,4-2.07Zm-4.88,1c.32,0,.1.63-.2,1.58-.72,2.29.63,5.82,2.48,6.53.56.38.53.53.15.74-1.21.69-3.4-1.36-4-3.65-.42-1.66-.32-3.61.48-4.45a2.15,2.15,0,0,1,1-.73s0,0,.06,0Zm-29.74,1.35,4.48,3a8.62,8.62,0,0,1,0,2.91l-4.5-3.15Zm27.07,0c.34,0,.21.55.11,1.57a6.05,6.05,0,0,0,2.18,5.55c.7.61.89.8.59,1.12s-1.66-.15-2.63-1.17c-1.77-1.86-2.34-5.36-1-6.64.32-.28.55-.43.73-.43Zm49.89.41c1.91-.07,3.53.67,3.7,3.05.26,3.45-2.93,5.36-5.16,3.37-2-2,0-5.12,2.34-3.65,1.17.74-.22,2.43-1.16,1.55-.42-.39-.62-.14-.32.3.92,1.37,2.7.24,2.59-1-.25-2.38-3.15-2.35-4.24-1.41a26.31,26.31,0,0,0-3.79,4.51c-.8,1.19-1,1.15-.86-.3a7.36,7.36,0,0,1,6.9-6.44Zm-52.21.77c.31,0,.18.43.2,1.57A6.8,6.8,0,0,0,58.26,182c.52.58-.15,1-1.12.71-2.22-.7-4.49-5.52-2.6-7.6C54.81,174.85,55,174.71,55.17,174.71Zm-2.15.95c.3,0,.13.63.16,1.85a6.18,6.18,0,0,0,2.74,5.37c.62.51.7.45.44.73-.64.76-2.83-.31-3.77-1.85-1.11-1.83-1.27-4.59-.24-5.64.29-.28.5-.45.67-.46Zm-2.15,1.24c.26,0,.11.46.15,1.57.1,2.69.71,4,2.39,5.27,1.06.78,1.31.54,1,.86-.57.53-2.13.07-3.3-.92-1.74-1.5-2.23-5.16-.82-6.43C50.55,177,50.73,176.9,50.87,176.9Zm-20.38.38,4.31,3-.12,2.55-4.29-2.92Zm75.37,4.78a2.58,2.58,0,0,1-2.21-3.09c.07-.48.35-.77.66-.13.26,1,.92,2.4,1.83,2.67.37.1.06.62-.28.55Zm-37.74-3c2,5,1.95,10.53,2.27,15.72.43,6.9,1.65,11.54,2,12.33,0,0-1.93,0-2-.26,0,0-1.83-9.16-1.55-13.68a42.41,42.41,0,0,0-1.56-11.51c-.63-1.78-.65-.61.82-2.6Zm-37.66,2,4.15,2.74c-.06.94-.07,1.87,0,2.81l-4.08-2.9Zm55.77-.24c0,.16.6.28,1.53.05a5.66,5.66,0,0,1,2.87,0c.84.23,1,0,.17-.37a3.91,3.91,0,0,0-1.86-.52C88.07,180,86.22,180.44,86.23,180.78Zm16.8-.12a6.86,6.86,0,0,0,.69,1c.53.62.69.63.45.88-.56.59-1.74-.25-1.87-1.35C102.19,180.36,102.6,179.85,103,180.66Zm-37.13.22c1.94,2.79,2.22,9.32,2.26,14a71.69,71.69,0,0,0,1.54,11.81,1.63,1.63,0,0,1-1.44,0c-.5-.65-.8-2.49-1.38-7.47-.15-1.28-.45-5.37-.51-8.64-.06-2.91-1.66-9.18-1.66-9.18a2.66,2.66,0,0,1,1.19-.44Zm-2.16.69c1.76,4,2,7.92,2.12,12.73a90.27,90.27,0,0,0,1.45,12.17c-.6.06-1.23.12-1.48-.15a2.51,2.51,0,0,1-.35-1,86.32,86.32,0,0,1-1.22-11.78c-.35-5.59-.44-7-1.23-9.76-.45-1.58-.6-1.55-.27-1.85a2,2,0,0,1,1-.35Zm19.85.92c0,1.85.28,1.09.93.8.49,0,.89.23,1.79.57,1.16.42,1,.56,1.86.16.5-.24.89-.33,1.14-.13a2.18,2.18,0,0,0,2.86-.3,2.52,2.52,0,0,1,1.57-.08c.66.07.49-.36.58-1.2s-.22-.81-1-.55a3.57,3.57,0,0,1-2.23.08,7.18,7.18,0,0,0-3.85,0c-2,.32-2.12.12-2.59-.18a3.67,3.67,0,0,0-1.1-.61c-.2,0-.12.68,0,1.48Zm18-.85c.19-.1.28.16.54.51.44.59.59.87.21.92-1,.15-1.24.05-1.21-.57s.14-.69.46-.86Zm-39.89.87c1.45,1.49,1.82,9.81,2,11.6.52,9.71,1.44,11.11,1,11.83-.55,0-.74.2-1.11-.28-1.25-3.56-1.17-7.21-1.37-10.93a43.71,43.71,0,0,0-1.46-10c-.46-1.61-.45-1.64.37-2.09a2.25,2.25,0,0,1,.6-.11Zm-2,1.19a46.16,46.16,0,0,1,1.68,11.17,90.17,90.17,0,0,0,1.14,10.9,1.57,1.57,0,0,1-1.43-.46c-1.58-7.09-1.08-13.95-2.93-21.08a1.1,1.1,0,0,1,1.54-.53Zm-29.16.87,4.31,3.11.08,2.66-4.38-3.14Zm63.92-.34c-2.43.94-3.06,1.73-2.68,2.42s1.3.37,3.88-.72c1.93-.81,2.53-.45,2.92.78,0,1.8-1.76,2-2.75,1.77-.43,0-.37,0,.09.58,2,1.59,4.46-1.51,3.24-3.48C98.21,183.79,96.54,183.29,94.45,184.23ZM79.21,185c-2,1.59-1.29,4.45.38,4.88a1.64,1.64,0,0,0,1.42-.06c.26-.16.25-.44-.27-.52-1.55-.26-2.44-1.41-1.68-2.56s2.07-.91,4.66.21c2.24,1,3.22.67,3.48-.49.12-.51,0-1-1.09-1C83.12,185.27,81.15,183.44,79.21,185ZM106,189.35c-.14-.82-1.45,0-2.34,1.48s-1,1.65-1.13.15c-.26-2.22,2-3.95,3.44-4,1.71-.21,2.85.77,2.89,1.89a1.45,1.45,0,1,1-2.86.49ZM30.44,188,35,191.18a18,18,0,0,1,0,2.6l-4.58-2.95Zm54.67,1.06a2.3,2.3,0,0,0,.58,4.11c1.46.3,1.56-.73.12-1a1.14,1.14,0,0,1-.68-1.62c.7-1.14,2-.4,2.72,0,1.66.8,2.51,1.09,3,.54.93-1,.1-2.71-1.13-2.09a1.51,1.51,0,0,1-1.28.15,5.16,5.16,0,0,0-3.36,0Zm-54.64,2.7,4.47,3.09-.14,2.74-4.22-3.11Zm.09,3.75,4.21,3a14.48,14.48,0,0,0,0,2.34l-4.27-2.77Zm74.52.6c3.37.33,2.26,4.25-.11,3.2-.62-.48-.82-.45-1.52,1.28-.89,2.2-1.11,2-1-.52S103.7,196.15,105.08,196.14Zm-26.62.58a.35.35,0,0,1,.18.05c.24.25-.46,1.27-1,1.87-.43.29-1.47-.48-1.22-.85a4.87,4.87,0,0,1,2.07-1.07Zm4.51,2-.61.09c-.92-2.06-2.81-1.58-3.4.31l-.82-.09c.84-2.33,3.84-3.77,4.83-.31Zm17,.46-1,.07c-.92-2.22-2.21-2.55-3.31-.37l-.79-.23c1.37-2.81,3.65-3,5.13.53Zm-5.11-2.54c.52,0,.45.21-.09,1s-.58.76-1.06.4C92.94,197.46,94.23,196.72,94.87,196.67Zm4.84.07a1.8,1.8,0,0,1,.36.06c1,.25,1.53.77,1,1.41-.33.41-.63.56-.85.3-.71-1.19-1.11-1.8-.53-1.77Zm-15.91.71c.12.44-.23.74-.62.38a.79.79,0,0,1-.27-.6.66.66,0,0,1,.89.22ZM30.52,199l4.34,3.14a17.39,17.39,0,0,1,.16,2.7l-4.46-3Zm63.16.95c2.5,1.73,5.43,1.7,7.25.19.41-.33.76-.35.76,0-.26,1.21-3.45,2.76-5.93,1.89a6.11,6.11,0,0,1-3.38-2.25C91.85,198.85,93,199.4,93.68,199.91Zm-1.07.84c3.65,3.17,6.54,2.29,8.75.7.32-.08.32.21.39.77.1.71-.48,1-2.06,1.52-3.06.93-6.64-.09-7.29-2.15-.06-.43-.22-1,.21-.84Zm-62.1,1.9,4.39,3L34.77,208l-4.29-2.93Zm.07,3.55L34.73,209V211l-4-2.9Zm30.11.91c17.69,4,30.23,2.12,42.53-.07l10.9,21.58-65.7.09C52.73,221.71,56.3,214,60.69,207.11Z"/><path id="path3442-2-7-0" d="M62.35,20.49c1.89,3.28,3.39,6.67,5.09,10l.28.18.42.78,0,.39,1,1.63v.36l4.29,8c3.54-1.33,32.57-3.73,43.32.19l1.57-2.68h.37l2.76-4.9,0-.41.93-1.07.13-.49,3-4.8,0-.78,3.8-6.41Zm65.74.92s-2,3.86-3,5.41c-.82-.66-3.23-.21-3.09,2.35-3.92-1.49-4.86,3.22-1.83,4.27-1.55,1.38-3-.18-4.22-1.22-1.16.28-3.54,1.14-4.89-1.37,0,0,.57.31,1.13.64,3.2,1,3.46-3.38,1.08-4.09a5.19,5.19,0,0,0-.86-.1c.8-3.36-4.34-4.53-4.44-.5a3.82,3.82,0,0,0-1.07,0c-2.73.5-2.1,4.55.68,4.35a3.24,3.24,0,0,1,.73.05c-.05.65-3.43,1.9-5.85-.34-1.14.89-3,2-5.35-.21,1.57-.07,3.07-.52,3-2.31a2.46,2.46,0,0,0-2.54-2.26,2.76,2.76,0,0,0-2.29-2.64A2.47,2.47,0,0,0,93,26.08a2.36,2.36,0,0,0-2.22,2.61c.37,1.8,1.75,2,3.32,1.68-1.91,3.1-5,1.48-6,.49C87,31.94,85,33.4,82.55,31.4c1.31-.23,2.76-1,2.51-2.84a2.35,2.35,0,0,0-2.5-1.8,2.29,2.29,0,0,0-2.41-2.37c-1.85.17-1.74,2.54-1.71,2.55a2.27,2.27,0,0,0-2.19,2.84c.53,1.41,1.63,1.85,3.67,1.47-2.37,2.25-3.89,1.38-5.18.9a3.08,3.08,0,0,1-4.25.53c3.51.18,3-6.1-1.21-3.82-3-3.52-2.91-1.95-5.57-7.13ZM95.33,27.59a1.14,1.14,0,0,1,.53.12c.55.28.65.77.32,1.5a1.59,1.59,0,0,0-.26.83c3.87,7.2,12.41,4,13.21.63A1,1,0,0,0,109,30a1,1,0,0,1,.14-1.38,1.05,1.05,0,0,1,1.68,1.23,1.39,1.39,0,0,0-.18,1c2.19,5,6.56,5.39,10.21,3.4-1.68,3.05-8.23,4.92-11-2.43-4.38,6-11.34,5.86-14.49-.89C92.52,37.82,84,38,80.85,32.25c-2.84,6.57-9.42,5.07-11.28,1C75.68,37.68,79.7,33,80.43,31a4.54,4.54,0,0,0-.33-.42c-.79-.77-.76-1.69.05-2a1.1,1.1,0,0,1,1.47,1.53c-.15.28-.29.33-.19.57,1.9,4.48,11.27,5.78,13.16-.5a1.34,1.34,0,0,0-.13-1A1.08,1.08,0,0,1,95.33,27.59ZM68,30.13c1.47.07,1.07,1.36.76,1.46Zm54.85.8s-.91,1.66-.91,1.66C121.45,31.81,121.57,30.82,122.84,30.93Zm-5,8.26a11.6,11.6,0,0,1-1.25,2.29c-17.51-4.52-41.92-.6-42.52-.15l-1.07-2C88.36,36.19,103.65,36.85,117.85,39.19ZM88.29,70.49c-1.69,6.57-5.78,7.24-10.72,8-6.12,1-10.1-1.26-12-4.7,0,0-8.75,3.34-11.94,5.28C60.29,82.18,69.07,89,74.05,96.7c1.78,2.36,1.69,1.82,1.69,7,0,11.19,0,15.36,0,15.36,2.74.41,2.9,2.32,2.74,4.46,2.2-1,4.31.22,4.31,2.3,0,3.85-3.77,2.8-4.55,2.39,1.22,3.39-.21,4.79-1.67,5-1.8.21-3.87-.66-3.27-4.55a3.69,3.69,0,0,1-4.79-3l-.09-4c4.85-9.22-1.25-16.71-7-19.17,0,0,1.62-3.37,3.71-4.33.22-.06-1.27-2.26-3.75-1.77-1.15,0-.88,0-2-1.4-2.14-2.8-3.14-3-5.22,0-.93,1.32-1.14,1.35-2.23,1.38s-3,.88-3.41,1.66c-.09.17.38.36,1,1.09.9,1,2.27,2.5,2.06,4-4.71,1.93-12.53,10.43-4.31,21.29l-5.94.08L41.13,85.8,37,88.12l.17,30.32L36,118.05c.1-9.66-.06-19.33-.36-29l-10.89,8,.48,45.46,1.16.25c.86,6.2,13,1.87,13.72,2.41l.15,25.25-.53,1.24L49.4,177l8.86-4.64a8.41,8.41,0,0,0,1.65-.45c3.68-2,6.41-1.53,8.42,1.35,1.23,1.77,1.43,2,1.43,2,.76-5.1,5.24-7,9.6-5.66,3.2,1,7.57,4.2,8.91,8.13a3.89,3.89,0,0,0,.47.86l.19.07c0-.11-.21-.6-.29-.83-4.49-10.4-17.14-12-19.1-3.49l-1.79-2.53L77.17,166,90,174.57s-.61,3-.68,4.31l.22.1a11.52,11.52,0,0,1,1.3-4.69,4.86,4.86,0,0,1,1-1.34c.77-.45,1.48-.4,2.26-1.14l-1.88-1.42,0-4.54L96,171.2c1.19-.28,5.82-1.67,8.56-.14.31.11,4.33-1.06,6.84,4.61l12-5.06s.77-.43.77-.56c-12-4.48-24.17-20.34-23-20.6,0,0,0-1.62.05-5.63.1-4.45,0-9,.13-13.46-4.1-1.32-3.08-4.65-3.08-4.65-2.46.55-2.85.06-3.47-.37l-.43-4.21a4,4,0,0,1,4.19-1,4.13,4.13,0,0,1-.08-3.33,3,3,0,0,1,3.93-1.11c1.86,1.28,1.28,4,1,4.34a3.58,3.58,0,0,1,4.88,2A107.59,107.59,0,0,1,110.28,105a97.68,97.68,0,0,1,9.81-25.82c.71-1.23,1.61-2.47,2.33-3.63a17.58,17.58,0,0,0,1-1.71,10.06,10.06,0,0,1-1.89.79,11.51,11.51,0,0,0-2.61.9,13.85,13.85,0,0,1-3.47,2c-3.86,1.52-6.46-.75-8.06-4.21-.89,4.4-4.88,8.11-10.76,5.81-3.31-1.79-4.36-2.93-7.47-7.56a3.45,3.45,0,0,0-.87-1.06Zm.14.72c2.2,4.39,5.48,7.49,8.68,8.74a8,8,0,0,0,10.54-5.2l1.09,1.88-8.65,6.19L87,74.45a20,20,0,0,0,1.39-3.24Zm39.26.31-3.88,2.31s-2.58,4.19-3.43,5.77a89,89,0,0,0-9.68,25.52A118.19,118.19,0,0,0,109,116.91a71.83,71.83,0,0,0-.26,10.38l.3.33s-.47.85-.81,1.55a9.46,9.46,0,0,0-1.09,5.25,13.84,13.84,0,0,0,7.6,12.05l.57.26a11.89,11.89,0,0,1-2.1,3.49c-.92,1-1.1,1-.78,1.49.44.65,1.87,1.23,3.66,1.2.63,0,.63,0,1.81,1.28,2.28,2.5,3,2.46,5-.38a2,2,0,0,1,1.88-1.08c1.33,0,3.74-1.11,3.73-1.62-1.63-.73-3.52-4.5-3.23-4.54,8.94-4.78,10.84-14.66,4.3-21.94l6.23-.1.23,39.46c1.22-.81,4-2.57,4-2.57l-.09-30.7a14.42,14.42,0,0,0,1.7.53l.24,29.24s8-5.7,11.82-8.67l-.23-44.74h-.9l.14,44.72-10.57,7.79-.06-27.78,1.14-.17c3.1-.43,4.54-4.42,2.48-7-.73-.92-.22-.86,1.34-1.15,2.75-.25,4.27-2.35,3.47-3.85-.35-.64.11-.57.39-1.18a2.92,2.92,0,0,0,.07-1.55,2,2,0,0,1,.3-1.29,2.07,2.07,0,0,0-.39-1.89,2.49,2.49,0,0,1-.31-1.68c0-.91-.34-1-1.3-1.92-.71-.66-.14-.81.93-1.36,1.66-.87,1.78-3.93-.43-5.25-1.2-.7-3.36-.64-8,.11-1.77.28-3.86.47-3.86.47s0-17.5-.15-26.52Zm0,.62s9.51,5.61,9.43,5.77c-3.18,4.41-15.09,22-15.18,43.23-8.72-1.1-12.3,5.79-12.73,5.75a87.24,87.24,0,0,1,14.67-52.52Zm-6,3.41,0,.64L119.77,79l0-2.85Zm-2.91,1,.07,4.58-3.86,3-.22-4.77ZM83,77.6,85,79,85,83.52,82,78Zm54.26,1.52,0,3.28c-7.6,10.82-11.59,23.19-12.82,38.86l-1.85-.06A74.53,74.53,0,0,1,137.29,79.12Zm-51.51.34,4.69,3.1-.2,5.18L86,85l-.41-1Zm28.41.22,0,4.81-3.62,2.72-.17-4.77ZM70.27,80.94c.53,0,1,.4,1.06,1.15.4,3.21,2.81,2.28,3.39,3.24.22.33-.29.61-2,.47-3-.23-5.23-2.7-3.69-4.33A1.76,1.76,0,0,1,70.27,80.94Zm20.9,2,4,2.58v5.31l-3.93-2.42Zm18.28,0,.31,4.71-4.38,3L105.23,86Zm8.35,0-2.52,5.41-14.7,10.68-12.2-8-2.27-5.22,14.22,9.36ZM78.18,85.18c3.9-.05,6.9,4.14,7.92,7.79.74,2.43.87,3.29,1,7.14s.2,4.6.93,5.14c.45.35.57.25.63-.45.12-1.53,2-.59,2,1,0,1.81-1.92,2.37-3.38,1-.78-.74-.78-.73-1,.71-.17,1-1.28,7,1.58,8.56.54.05.67-.38.27-.88-.8-1,.8-2.2,2.12-1.55,1.57.79,1.41,3.36-.27,4.27-1.92,1-4.43-.13-5.6-2.66-.85-1.85-.85-4.42,0-8.22a26,26,0,0,0,.66-4.22c0-.45.09-.93.12-1.07.1-.4-.1-.43-.8-.07-1.89,1-3.94.28-4.46-1.49-.6-2.1,1.72-4.27,3.15-2.94.54.5.48,1-.18,1.33-1.12.57-.74,2,.45,1.74,3.94-1.19.35-12.37-4.11-13.14-2.94-.51-5.24,2.86-3.12,4.67.83.71,1.68.32,1.5-.67-.26-1.4,1.58-1.23,2.26.19,1.1,2.32-1.75,4.22-4.41,2.93C70.59,91.47,73.85,85.27,78.18,85.18Zm17.71.88,3.94,2.67,0,5.19L96,91.58Zm8.67.45,0,4.76-3.8,2.79V89Zm10.24,3.13-1.94,5.46-12.27,8.47L90.48,97.16,88.73,92.1l11.93,7.79ZM35.18,90v27.66c-4,.18-6.25,4.14-3.28,7.89l-1.13.15c-2.69.36-4.5,1.81-4.14,3.55a2.24,2.24,0,0,1-.16,1.35,2.2,2.2,0,0,0,.15,1.88,1,1,0,0,1,.07,1,2,2,0,0,0,.13,2c.44.44.32.8.26,1.5-.07,1,.1,1.38.72,1.77.8.5,1.1,1.31.2,1.25-.45,0-2,1.51-2,1.51l-.14-44.4Zm21.56,3.55c.71,0,1.45.9,2.5,2.42.64,1.09.65,1,2.1.89a4.09,4.09,0,0,1,2.78,1c.14.17-.24.22-1.19,1.18a9.65,9.65,0,0,0-1.75,2.51.56.56,0,0,1-1,.07c-.19-.29.3-1.26,1.22-2.41,1.31-1.26,1-1.39-.87-1.2-1.32.14-1.46.08-2-.75-1.5-3-2.31-2.91-3.75.1-.4.84-.24.79-1.95.66-1.35-.11-1.68.23-.91.94a6,6,0,0,1,1.58,3.28l-.92.08a8,8,0,0,1-.4-.86A8.43,8.43,0,0,0,50.59,99c-1-1.12-.46-1.72,1.83-2,1.27-.13,1.3-.15,1.89-1C55.34,94.49,56,93.58,56.74,93.58Zm55.63,2.75-1.32,4.73-10.46,7.4-8.51-5.72L90.94,98.3l9.78,6.25Zm-36.06,3.75a71.1,71.1,0,0,1,4.12,9.81c1,3.35,2.29,13.06,1.93,13.65-.74-1-3.2-.8-3.23-.78a3.75,3.75,0,0,0-2.79-3.88Zm34.41,2.18-1,4.64-8.9,6.51-7.35-5.07-1-4.5,8.13,5.49Zm-51.79.26,1.16.41.22,8.38,8.91,1.5.2,1.43-10.33-1.68C59,109,58.93,102.52,58.93,102.52Zm-4.53.25.25,9.76c-.09,0-7.44,1-10.24,1.76l.17-1.34s5.09-1.12,8.79-1.54c0-2.73,0-5.59,0-8.37Zm82.94,1.79a15.75,15.75,0,0,0,3.8-.34c6.69-1.18,8.5-.7,9.36,1.38.94,3.23-2.57,3.3-3.19,1.26-.4-1.32-1.83-1-6.63.1-4.1,1-6.7.21-6.65-2.14S136.78,102.18,137.34,104.56Zm-55-1.76a1.52,1.52,0,1,1-1.48,1.55A1.52,1.52,0,0,1,82.35,102.8Zm-21.72.25,1.06.32s.16,6.37.19,6.38c2.28.51,7.05,1.41,7.05,1.41l.25,1.27c-2-.47-8.36-1.53-8.36-1.53C60.59,108.14,60.63,103.05,60.63,103.05Zm-7.72.13s0,5.09-.08,7.81c0,0-5.41.87-8.17,1.45l.21-1c2.18-.5,4.56-1,7-1.51,0-2,0-6.38,0-6.38Zm3.88,1.1a1.21,1.21,0,1,1-1.18,1.23A1.21,1.21,0,0,1,56.79,104.28Zm90.51,3.16a1.78,1.78,0,0,0,2.09,1c-.18,0-1,.56-1,.73s-.37,1.49.23,1.54c2.22.21,1.09,2.54,1.36,2.91.59.68,1,1.12.62,2s-.89.75-.48,1.4c.89,1.34-.33,1.62-.22,2.54a3.82,3.82,0,0,1,.07,1.73c-.61,1.3-2.76,2-5.14,2.13-.33,0-.08-.54-.24-.9-.59-.38-.27-1-.08-1.42.2-.55.2-.55-.17-.84-1-.64-1-.93-.89-1.38.22-1.37,0-1.5-.38-1.71s-.45-.84-.22-1.57c.16-.52,0-.64-.21-1.11a1.23,1.23,0,0,1-.19-.6c.08-.7-.55-.7-1.43,0a35.72,35.72,0,0,0-1.46,4c-.37.83-.41,1.68,0,3.57.83,2.91.21,3.38-3,2.77-2.43-.6-3.14-3.23-2.47-6.42a4.34,4.34,0,0,0,0-1.43,6.68,6.68,0,0,1,1.82-5.77c2.54-2.42,3.81-2.78,9.07-2.44a7.35,7.35,0,0,1,2.21.28,5.7,5.7,0,0,1,.08-1Zm-37.88.67-.62,4.5-4.93,3.51c-2.32-1.85-4.13-1.24-5.76.76-1.3-.67-3.9-2.47-3.9-2.47l-.65-5.1,7.18,5Zm-52.53,1.06a1.22,1.22,0,0,1,1.22,1.2,1.2,1.2,0,1,1-2.4,0A1.23,1.23,0,0,1,56.89,109.17Zm51.69,4.6-.28,4.33-1.75,1.34-1.76-.18-.42-2.68Zm-51.71,0a1.2,1.2,0,0,1,1.21,1.2,1.2,1.2,0,1,1-2.4,0A1.23,1.23,0,0,1,56.87,113.81Zm4.84.13a1.22,1.22,0,1,1-1.19,1.23A1.23,1.23,0,0,1,61.71,113.94Zm-9.63.23a1.22,1.22,0,0,1,0,2.43,1.2,1.2,0,0,1-1.21-1.2A1.21,1.21,0,0,1,52.08,114.17Zm89.47.21c.34,0,.84.48.59,1.24s-.1,1.16.45,1.86.39.67.32,1.06c-.11,2.49,1.48,1.42.8,3.23a3.21,3.21,0,0,0,.12,1.42c-.16-.43-3.09-.39-3.34,0-.41-.07-.94-2.84-.52-3.2a3.53,3.53,0,0,1,.52.74c.39.68.47.66.35-.13C140.34,117.54,140.63,114.4,141.55,114.38Zm-75,.22a1.21,1.21,0,1,1-1.19,1.23A1.19,1.19,0,0,1,66.58,114.6Zm-19.49.22a1.21,1.21,0,0,1,0,2.42,1.19,1.19,0,0,1-1.22-1.19A1.21,1.21,0,0,1,47.09,114.82Zm47.17.34,3.6,2.37a7.06,7.06,0,0,0,.21,2.18,4.27,4.27,0,0,0-3.54,1.12ZM68.58,119l-.28,1.28a44.85,44.85,0,0,0-22.63.09l-.6-1.35A39.44,39.44,0,0,1,68.58,119ZM35,118.86a3.48,3.48,0,0,1,1.59,6.66,3.57,3.57,0,0,1-4.78-4.66A3.46,3.46,0,0,1,35,118.86Zm73.22.37,0,1.29-.9-.76Zm-18.83.06A2.38,2.38,0,1,1,87,121.7,2.39,2.39,0,0,1,89.34,119.29ZM35,119.37a1.89,1.89,0,0,0-1.08.36c-.63.58,0,.6.83.75,1.47.28,1.88,1.56,1.74,3s.3,1.25.63.78A3,3,0,0,0,35,119.37Zm68.53.64-.06,0S103.52,120,103.55,120Zm-46.66.74c1.76,0,2,2.9.38,6.17-.47,1-.7.87-1.22-.62C54.78,122.63,55.05,120.79,56.89,120.75Zm4.09.08a1.12,1.12,0,0,1,.94.43c1,1.1.21,2.86-2.31,5.58-.61.67-.93.92-1.16.92-.62,0-.63-.09.09-2.45.32-1,.63-2.2.7-2.55A2.18,2.18,0,0,1,61,120.83Zm-6.41,2.63c.17.81.47,1.93.66,2.5a3.82,3.82,0,0,1,.29,1.2c-.16.44-1.29-.16-2.09-1.1-1.62-1.9-2.27-3.55-1.93-4.44a1.64,1.64,0,0,1,2.33-.4A4.49,4.49,0,0,1,54.57,123.46Zm11.18-1.89c1.71,1-.25,3.34-4.08,5.26-1.64.82-1.53.45-.29-1.17a16.53,16.53,0,0,0,1.43-2.25C63.5,122,64.19,120.67,65.75,121.57Zm-17.07,0c.53,0,1.1.58,2.12,2.09a20.44,20.44,0,0,0,1.66,2.11,3.29,3.29,0,0,1,.78,1.1c-.17,1-5.51-2.28-5.89-3.7A1.4,1.4,0,0,1,48.68,121.57ZM125,124.63c1,2,1,3.24.25,3.69a1.85,1.85,0,0,1-2.61-1.75,15.85,15.85,0,0,0-.94-3.23c-.37-.89-.41-1.44-.12-1.48A6.66,6.66,0,0,1,125,124.63Zm-6.38-1.5a16.3,16.3,0,0,0-.76,3.44,3.12,3.12,0,0,1-.27.94c-1,2-3.29.37-2.44-1.75.77-1.91,2.72-3.9,3.48-4C119.17,121.72,118.69,123,118.64,123.13Zm1.55-1.1c.38,0,.71.8,1.21,2.24.67,1.94.64,3.45-.08,4.09-1.55,1.37-3.19-.63-2.57-3.13C119.26,123.21,119.75,122.07,120.19,122Zm-52.14.34c1.94,28.74-12.66,50.85-13.69,51.44l-5,2.75-8.7-4.8a75.69,75.69,0,0,0,14.82-43.44A13.39,13.39,0,0,0,68.05,122.37Zm47.86.1c.61-.17.19.37-.42,1.25s-1.47,3.49-2.14,3.89c-1.48.73-3.17-.66-2.27-1.85A11.93,11.93,0,0,1,115.91,122.47Zm8.86.19a3.52,3.52,0,0,1,1.31.47c3.09,1.52,4.63,3.55,3.31,4.5-.94.68-1.93.15-2.87-1.62a14,14,0,0,0-1.28-2C124.55,123.11,124.38,122.67,124.77,122.66Zm17.43,1a3.64,3.64,0,1,1-3.55,3.69A3.62,3.62,0,0,1,142.2,123.69Zm-1.1,1c-2.35,1-1.63,4.76.39,5.3.84.25,1.89-.11,1.46-.52-2.67-.84-2.7-2.83-1.61-4.28C141.51,124.89,141.28,124.55,141.1,124.64Zm-97.66,5.11c-.1,2.1.35,4.53-.64,6.81-1.51,3.51-6.34,5.11-8.92,4.79a2.26,2.26,0,0,0-1.69-.21,1.35,1.35,0,0,1-1.06,0c-.33-.15-.64,0-1-.07-.37-.26-1-.83-.91-1.27.11-.6.07-1-.64-1.25-1-.27-1.18-.81-.89-2.38.07-.34.14-.5-.07-.63a1.76,1.76,0,0,1-.53-2.34c.31-.55.55-.94,0-1.36-.22-.5-.18-.69.3-1.33s.58-.68.26-1.2c-.73-1.16.1-2,1.07-2.51a13.52,13.52,0,0,1,3.82-1c.51,0,.49.49.8.93.46.72-.18,1.75.18,2.11a1.19,1.19,0,0,1,.73,1.18,2.64,2.64,0,0,0,.31,1.74,2.11,2.11,0,0,1,.13,1.87c-.25.51-.22.46.11.77a3,3,0,0,1,.36,1.75l1.34-.12a13.51,13.51,0,0,1,2-5.06c-.08-1.78-.76-3.42-.7-5.77,3.33-1.18,5.71,1.66,5.59,4.57Zm51.45-4a10.42,10.42,0,0,0,3,1,4.24,4.24,0,0,0,3.08,4.13c0,3.19,0,18,0,18-3.44-5.83-5.57-13.36-6-23.07Zm-57.66.52a9.59,9.59,0,0,1,.25,1.25c.22,1.68,0,1.91-.46.76-.51-1.35-.54-.3,0,2.78a2.11,2.11,0,0,1,0,1.43c-.12.31-.32,1-.47,1.61-.48,1.7-.74,2.18-1.23.83-.24-.69-.44-.79-.27-1.32a1.89,1.89,0,0,0-.27-1.83,1.82,1.82,0,0,1-.25-1.05c.14-1.56-.55-1.58-.68-2,0-.6-.26-2.1.15-2a6.35,6.35,0,0,0,2.18-.16c.24-.09,1-.28,1-.28Zm51.38.2a2.33,2.33,0,1,1-2.29,2.36A2.34,2.34,0,0,1,88.61,126.46Zm-35.79,1.42,1.75.34c.39.13.11,24.57-14,42.22l-.13-4.1C47.19,156.57,52,144.59,52.82,127.88Zm29.8.52.32,5.84c-1-.85-3.5-2.45-3.49-2.48l0-2.16a3.87,3.87,0,0,0,3.15-1.2Zm-13.55.07a5.64,5.64,0,0,1,1.15.89l-1.15.78Zm40.25.31a43.71,43.71,0,0,0,22.43.55l.5,1.42a41,41,0,0,1-23.88-.47Zm-36.73,1.09.4,2.52-4.28,2.8.22-3.83,2.23-1.45Zm37.88,2.1a1.26,1.26,0,1,1-1.23,1.27A1.24,1.24,0,0,1,110.47,132Zm19.5.1a1.26,1.26,0,0,1,0,2.52,1.25,1.25,0,0,1-1.26-1.24A1.23,1.23,0,0,1,130,132.07ZM93.46,136c.56,2,.44,6.5-.28,9.55-.21.92-.34,4.18-.34,4.18-.14.18,4.29-3.7,5.72,1.38.5,1.76-1.5,3.41-2.83,2.92-.26-.08-.19-.95.06-1.47.74-1.51-1.36-2.3-2.56-1-2.77,3.1.09,11,4.42,11.74,3.61.64,6.51-3,4.09-5.15-1.06-.95-2.73.35-2,1.55s-.7,1.8-1.84.61c-2-2.07.24-5.19,3.26-4.48C106,157,105,164.6,100,165a7.86,7.86,0,0,1-8.12-4.39c-1.54-2.91-1.65-5.22-.94-10.31.41-3,.07-5.56-.76-5.55a.84.84,0,0,0-.89.78c-.14,1.1-.28,1.32-1,.92a2,2,0,0,1,.07-3.27c1.46-1.14,3.35.64,3.28,1a6.1,6.1,0,0,0,.38-1.65c.64-4.22-.77-8.67-2.53-8-.38.16-.35.33.16.61,1.16.66.14,2.36-1.33,2.19-2.07-.25-2.55-3.16-.72-4.46,2.88-1.58,5.22.88,5.85,3.09Zm-14.17-3.52s3.69,2.27,3.88,2.85c.13.37.28,3.63.28,3.63l-6.4-4-9.16,5.72c.14-1.25.81-4.48.81-4.48L73.58,133A4,4,0,0,0,79.29,132.48Zm45.77.22a1.24,1.24,0,0,1,1.27,1.24,1.25,1.25,0,1,1-2.5,0A1.27,1.27,0,0,1,125.06,132.7Zm-9.75,0a1.27,1.27,0,0,1,1.28,1.25,1.29,1.29,0,0,1-1.24,1.29,1.26,1.26,0,0,1-1.27-1.24A1.28,1.28,0,0,1,115.31,132.71Zm4.91.29a1.27,1.27,0,0,1,1.28,1.24,1.25,1.25,0,1,1-1.28-1.24Zm-12.3,1.8c3.33.7,6.65,1.41,9.84,1.76l.13,9.86-.94-.06-.13-8.81a49.71,49.71,0,0,1-8.7-1.59Zm24.7.32-.18,1.16s-5.74,1-8.74,1.39c-.06,2,0,8.63,0,8.63l-1.15.2v-10c3.4-.37,6.81-.76,10.11-1.34ZM77,135.68l6.77,4.51.8,4.79-7.89-5.29s-7.14,4.86-9.82,6.64l.82-4.51Zm31.21.89a66.71,66.71,0,0,0,8.16,1.42l.12,7.94-1.25-.33-.1-6.44a54.31,54.31,0,0,1-6.5-1.07Zm24.08.23-.22,1.07s-4.35.66-6.61,1.06c-.2,0-.13,7-.13,7l-1.07.16-.12-8.09Zm-12.2.88a1.26,1.26,0,0,1,0,2.52A1.24,1.24,0,0,1,118.9,139,1.27,1.27,0,0,1,120.13,137.68Zm-43.21,2.87,8,5.44a32.94,32.94,0,0,1,1.13,4.41l-9.2-6-11.51,7.71,1.32-4.76Zm-48.45.17c.48,0,.94.32,1.2,1.06.35,1,1,1.34,2.69,1.3,3.35-.18,6.86-1.76,10-.58,1.53.57,2.08,2.87.79,3.45s-2,.24-2.47-.86c-.45-.47-1-.4-4,.13-1.33.21-2.87.41-4.19.52-3.35.27-5.19-.79-5.6-2.81A1.82,1.82,0,0,1,28.47,140.72Zm91.59,1.85a1.24,1.24,0,0,1,1.27,1.24,1.27,1.27,0,0,1-1.23,1.29,1.27,1.27,0,0,1,0-2.53ZM95.57,144.1a1.65,1.65,0,1,1-1.6,1.67A1.63,1.63,0,0,1,95.57,144.1Zm-18.63,1.16,9.63,6.49,1.68,4.88L77,149.28l-13.71,9,1.65-5Zm47.51,1.51a12.82,12.82,0,0,0,2.82,4.12s-.63,1.22-2.91,1.14c-1.24,0-1.32.15-1.74,1a9.25,9.25,0,0,1-1.72,2.14c-.8.62-2.29-.31-3.52-2.19-.44-.68-.63-.85-2-.82-2.09,0-2.83-.54-1.75-1.48.94-1.16,1.62-2.43,2.45-3.63l.94.1a8,8,0,0,1-1.8,3.42c-.55.63.22.85,1.56.57.85-.26,1.07-.16,1.69,1.16,1.31,2.49,2,2.37,3.54-.15.54-1.13.52-1.25,2-.93s2.08,0,1.43-.6c-1.33-1.13-2.06-3.82-2.06-3.82ZM77,150.13s11.89,7.86,11.87,7.69l2.38,5.67-14-9.37L60.23,165.33l2.55-5.62Zm.45,5.15L81.6,158v5l-4.24-2.88Zm-1,.14.07,4.9-3.72,2.24-.2-4.58Zm-4.73,3.16,0,.19.09,0h0l.14,4.41-4.27,3,0-5Zm11,0,3.9,2.63.15,5.25-4.24-2.8Zm4.81,3.21,3.92,2.75.13,5.23-4-2.71Zm-20.7,0,0,4.84-3.89,2.74-.18-4.94Zm41.17,6.26c-.78.81-1.06.71-1.72-.63a3.23,3.23,0,0,0-3.21-2c-1.88,0-.65-1.21,1.35-1.36C107.77,164,109.53,166.28,107.92,168.11Zm-46.14-2.85.1,4.86-3.88,2-.13-2.3,2-3.52Zm-5,6.49.14.88-.71.28Zm46.61,35c-16.3,3.53-31.93,2.28-43.13.19l-5.12,8.84h-.35l-1.32,2.29.14.25s-4.25,8.25-6,10.86c20.94-.21,66.91-.32,66.91-.32l-2.79-5.69.15-.15-2.77-5.94-.9-1a23.55,23.55,0,0,1-1-2.22c-.38-1.05-2-4-2-4l-.23,0ZM60.85,208c.21.17,20.88,4.11,42.28.06l1.17,2c-18.74,4.34-45.86.19-44.78-.21Zm.35,3.89a6.28,6.28,0,0,1,5.09,2.66,15.9,15.9,0,0,1,1.09,2.14,10.67,10.67,0,0,1,1.79-2.26,7.77,7.77,0,0,1,5.59-2c2.32.09,4.87,1.36,7.18,5,.59-2.12,8.2-9.29,14.47-.34.71-2.38,4.08-7.13,9.51-3.81l.75,1.68c-3.2-2.26-8.5-.75-9.74,2.8-.12.44,0,.65.19,1.08,1.65,2.39-2.65,2.33-1.37.4a1.16,1.16,0,0,0-.12-1.37,9,9,0,0,0-6.27-3.38A8.58,8.58,0,0,0,83,217.85a1.48,1.48,0,0,0-.12,1.65,1,1,0,0,1-.24,1.24,1,1,0,0,1-1.57-1.2c.28-.48.24-1.07-.33-1.88a8.37,8.37,0,0,0-6.18-3.3c-3.35.09-6.73,2.52-6.52,4.53.1.87-.14,1.2-.85,1.11-.86-.12-1-.95-.35-1.62a1.23,1.23,0,0,0,0-1.12c-3.55-4.83-8.83-3.42-10.05-2.34a5.28,5.28,0,0,1,4.47-3Zm-3.15,3.34a4.23,4.23,0,0,1,3.21,1.82c.33-.35,3.33-1.79,4.78.27-3.82-.29-3.87,3.8-1,4.19-1.29,4,4.48,4.19,4.11.49,4.32.64,3.79-4.89-.29-4.29,2.13-1.56,3.58-1.06,6.14.74.87-1.13,4.37-2.2,5.24-.22-4-.26-3.34,4.44-.34,4.49-.9,3.25,5,4.45,4.1-.41,3.74.26,3.21-4.84-.38-4.43.27-.93,3.9-1.33,5.52.44,1.47-1.36,3.11-2.29,6.07-.34-4-.67-4.07,4.6-.34,4.27-.34,3.49,4.94,3.55,4-.48,4-1.09,1.82-5.45-1.15-4.25,1.32-1.57,3.55-.83,4.43-.51,2.74-3.16,5.12-.52,5.12-.52-4.77-.5-3.73,6.35.93,3.86a2.54,2.54,0,0,0,2.49,2.84L113,227.9l-63.86.42,3.51-6.25A2.33,2.33,0,0,0,55.44,220c4.19,1.35,4.47-3.58,1.35-4.37a2.47,2.47,0,0,1,1.26-.35ZM55.56,217c.41.67.07,1.11-.65,1.14C54.91,218.15,55.37,217.46,55.56,217Zm52.55.87.41.87C108.08,218.59,108,218.39,108.11,217.9Z"/></g></g></g></g></g><path id="path147-0-8-1-3-6-2-4-7" d="M130.6,223.1c7.8-.2,11.3-9,5.5-15.8-.8-1-.9-1.6.6-.6,3.9,2.6,11.4.9,11.8-7.1.5-9.8-13.3-12.7-15.8-2.2-.1,1.1-1,1.1-.8-.5a32.78,32.78,0,0,1,3.4-12.1H126a34.21,34.21,0,0,1,3.4,12.1c.2,1.6-.7,1.6-.8.5-2.6-10.4-16.3-7.6-15.8,2.2.4,8,7.9,9.7,11.8,7.1,1.5-1,1.5-.4.6.6-5.9,6.8-2.4,15.6,5.4,15.8Z"/><path id="path147-0-8-1-0-3-83-7-5-7" d="M48.1,26.6c7.8.2,11.3,9,5.5,15.8-.8,1-.9,1.6.6.6,3.9-2.6,11.4-.9,11.8,7.1.5,9.8-13.3,12.7-15.8,2.2-.1-1.1-1-1.1-.8.5a32.78,32.78,0,0,0,3.4,12.1H43.5a34.21,34.21,0,0,0,3.4-12.1c.2-1.6-.7-1.6-.8-.5-2.6,10.4-16.3,7.6-15.8-2.2.4-8,7.9-9.7,11.8-7.1,1.5,1,1.5.4.6-.6-5.9-6.8-2.4-15.6,5.4-15.8Z"/></g></g></g></svg>