<svg xmlns="http://www.w3.org/2000/svg" viewBox="0 0 178.71 249.6"><defs><style>.cls-1{fill:#fff;stroke:#000;stroke-width:1px;}.cls-2{fill:#131f67;}.cls-3{fill:#e2cf00;}.cls-4{fill:#d40000;}.cls-5{fill:#100f08;}</style></defs><title>Kd</title><g id="Layer_2" data-name="Layer 2"><g id="svg11376"><g id="Kd"><path id="rect7234-2" class="cls-1" d="M9,.5H169.74A8.47,8.47,0,0,1,178.21,9V240.63a8.46,8.46,0,0,1-8.47,8.47H9A8.46,8.46,0,0,1,.5,240.63V9A8.4,8.4,0,0,1,9,.5Z"/><path id="path6351-0" class="cls-2" d="M24.3,19.94c.1,63.29,0,141,0,209.83h130V19.94Zm38.12,1.19c22.4.6,45-.1,67.6.1,0,0-8.16,14.46-10.75,18.94q-.75,1.5-.3,2.1a2.1,2.1,0,0,1-.1,2.39c-.2.3-.3.4-.3.6s.1.3.2.59c.4,1.4-.6,2.3-1.69,2.8a9.81,9.81,0,0,1-3.58.39c-7.47-.39-22.21-6.77-28.28-7.27-4.18-1.2-9.65-.8-14.13-.5-.8.1-.7-1.89-.7-1.89C69.69,32.8,65.11,27.11,62.42,21.13Zm68.8.7h21.5v3.39l-9.06,9.17c-.8.9-1.49,1.6-1.49,1.6l-.1,8.27C136,41,134.8,37.08,133.7,32.7c-10.15,7.57-10.65,24.12.5,32.59.1-3.69,2.89-11,7.87-11.46l.1,28.81-6.08-6-13.24.2a9.67,9.67,0,0,0,.8-9.77c-2.39-5.49-6.07-18-5.77-18a.44.44,0,0,1,.39-.29,2,2,0,0,0,1.5-2.6c-.1-.4-.1-.3.2-.89a4,4,0,0,0-.2-3.89Zm-70.29,0,8,14.56a10.12,10.12,0,0,0-.1,1.09,4.4,4.4,0,0,0,.59,1.6,2.46,2.46,0,0,1,.4,1.29c.1.7.1.7,1.1,1.7.2.2.3.3.2.5a9.84,9.84,0,0,0,.49,4.78c.9,2.69,1.1,2.69-.49,6.28a20.37,20.37,0,0,1-1.2,2.69c-2,4.09-2.29,5.18,1.1,7.38a1.93,1.93,0,0,1,1,2.39c-.2,1-.2,1.59.2,2.09s.6.4.5.7a3.69,3.69,0,0,0-.2,1.7c.2,1.79-1.89,4.48-3.78,5.48-.4.3-.5-.1-.7-.4-2-3.49-6.87-2.09-7.17,2.09-.1,1.1-.1,1.6-.3,1.8a1.41,1.41,0,0,1-.39.2s-7.37,4.78-12,7.27a9.22,9.22,0,0,1-.8.5c-.2.1-.4,0-.59-.2-1.7-3.29-.8-7.18-.6-8.57,0-.5-.5-.6-1.1-.6a3.56,3.56,0,0,0-2.88,2.09c-.3.9-.5,1.4-.7,1.4s-.4-.4-1-1.59a15,15,0,0,0-2.78-4.39c-1-1.2-1.8-1.4-2.79-.5-.7.6-.7.1-1.2-.2-1-.7-2.49-.1-2.49.9,0,.8,0,1.39-.89,1.49s-1.3,1.2-1,2.89c.1.9.2,1-.1,1.3a2.84,2.84,0,0,0-.49,3.29c1.39,4.19,3.38,7,5.17,10.77,0,0-4.58,2.69-7.36,4.28v-78ZM152.82,26l.1,67.68L142.76,83.63s-.19-12.95-.19-18.24.09-10.56.09-11.56.1-5.18.1-9.47c.1-9.07-.79-7.88.9-9.67ZM133,34.09l.6,1.6c-4.29,2.49-9.46,16.15.1,26.21l-.2,2.1C123.45,54.83,125.24,41.77,133,34.09Zm.69,2c1.5,3,3.09,5.68,5.38,7.37a12,12,0,0,0,.3,10.57c-1.49.8-3.49,2.89-5.58,7.28C126.34,53.53,128,42.47,133.7,36.09ZM77.56,41.77A44.66,44.66,0,0,1,90.1,43.66c2.49,12.86,7,21.43,7,26.52a3.76,3.76,0,0,1-1.1-.6,4,4,0,0,0-5.47,1.1c-1.2,1.59,0,3.78-.6,4.78-1.19,1.69-4.18,5-4.68,4.88s-.3-.19,1-2.29,2.39-4,2-4.48c-.2-.2-.3.2-1.3,2-2.38,4.19-4.48,6.68-5.27,6.38-.4-.2-.2-.5,1.59-2.79,2-2.59,2.49-4.29,2.29-5s-.5.3-1.29,2-2.49,3.59-3.79,5.48A3.06,3.06,0,0,1,78.85,83c-.5.19-1.29.59-1.69.49-.2,0-.1-.2.3-.49a32.6,32.6,0,0,0,6-8.38c.2-.4-.1-.89-.4-.5-1.89,3.39-4.48,7.58-7.36,9.37a4.52,4.52,0,0,1-2.39.7c-1.4,0-.9-.4.39-1.19,2.79-1.8,6.57-6.88,7.17-8.68.1-.4,0-.69-.3-.59-2.29,3.58-5.27,7.67-8.66,9.27-1.89.89-4.18,1.09-5.37.49-.9-.39-.6-.59.89-.69,3.59-.4,7.87-3.79,10-7.38,1.19-2,.4-1.59-1,.4C74,79.15,69.19,82.34,66.21,82s-4.68-2.49-4.28-4.49a3.48,3.48,0,0,1,2.78-2.79c2.89-.6,4.78,4,2.1,4.79-.9.3-1.2.1-.9-.3,2-.9,1.09-3.19-.6-3.49A2.09,2.09,0,0,0,63,78c0,1.2,1,2.39,3,2.39,2.29,0,5.87-1.69,8.06-4.78,1.5-2.39.1-1.6-1,0a12.77,12.77,0,0,1-4.58,3.29l.1-1.6c.1.3,5.07-3.19,4.78-5.68-.2-1.89.1-2.39,2-2.39,1.39,0,3.28.5,3.78,1.2s1.19.89.9-.2c-.4-1.8.1-2.1-1-1.8-.7.2-1.39-.3-2.09-.89a4.79,4.79,0,0,0-3-.8c-.89,0-1.29,0-1.19-.9a2.5,2.5,0,0,0,0-1.49,9.85,9.85,0,0,0-2.69-2.2c-1.49-1.09-1.19-1.19,2-8.47,1.3-3.09,1.3-3.69.5-6-1.29-3.59-1.49-5,.9-5.58a27.9,27.9,0,0,1,4.08-.3ZM91,43.86l1.19.4s3.78,13.16,6,19.54a25.4,25.4,0,0,1,1.3,7.07c-.1,3.39-2,5.89-4.28,6.18a4.15,4.15,0,0,1-4.28-2.49A3.35,3.35,0,0,1,92.69,70c3.48-1.2,6,3.19,2.59,4.58-1.79.7-3.39-.6-2.59-2.09a1.41,1.41,0,0,1,2.49.1c.3,1.1.79.6.6-.2-.6-2.49-3.79-1.89-4.09.4,0,2.79,3.09,3.49,4.88,1.89,1.39-1.29,1.59-3.59,1.2-5.48-.5-4.09-2.79-9.47-4.48-15.55-.7-3-1.9-6.68-2.29-9.77Zm48.68.1,2.29.9-.1,7.57-2,.7c-2.49-3.79-.4-9.07-.2-9.17Zm-46.59.5,1.69.7c.9,5.38,5.28,15.65,6.77,23.32.4,4.59.5,6-2.59,8.48H97.27s0-.1.69-.7c4.09-3.09,1.6-9.77.1-15-2.58-8.38-5-16.85-5-16.85Zm-15.73.6h-.7c-2.59.1-3,.3-3,.89,0,1.1.4,1.5,2.79,1.3a15.8,15.8,0,0,1,7.07,1c2.29,1,2.89,1.29,3.68,1.69,2.09,1.1,1.7,0-.2-1.29-3.78-2.6-6.47-3.69-9.65-3.59Zm18.32.4,1.59.59s.4,1.2.6,2c1.49,6.88,5.67,14.55,6.17,22.63.1,2.59-.3,5.08-2.29,6.28h-1.5c1.6-1.6,2.59-2,2.2-7.38C101.75,62.6,97.27,53.93,95.68,45.46Zm2.78,1.09,1.5.5c1.69,9.27,10,23.13,4.68,29.81h-1.3a8.72,8.72,0,0,0,1.49-6c-.49-8.37-4.77-16.54-6.37-24.32Zm2.49.8,1.59.5c2.1,9.37,10.36,24.82,4.48,29h-1.19C110.21,68.58,103.54,60,101,47.35Zm2.69.9a11.39,11.39,0,0,0,1.69.6c1.69,7.07,4.68,14,6.07,20.73.5,3.59-.29,6.38-2.58,7.38h-.5c2-3.09,1.69-7,.6-11.17C107.42,60,104.64,53.83,103.64,48.25ZM79,48.35a6.51,6.51,0,0,0-2.29.4c-.8.29-.7,1,0,.79a3.55,3.55,0,0,0,1-.2c1.89-.3,4.18.4,7,2.1a12.14,12.14,0,0,1,1.6,1c.5.4,1.09.4.89-.1A13,13,0,0,0,85,50.74,12.14,12.14,0,0,0,79,48.35Zm27.38.69,1.59.2c3,13.76,9.46,22.33,3.88,27.42h-1.39a8,8,0,0,0,1.69-7,112.93,112.93,0,0,0-3.28-11.86A89.3,89.3,0,0,1,106.33,49Zm2.29.3,1.29.3c1.59,5.58,4.18,12.56,5.88,18.24,1,3.59.59,7.88-1.6,8.78H113.1c1.89-2.5,2.09-5.09,1.29-8.48C112.6,61.21,109.91,55.13,108.62,49.34Zm8.26,0A167.13,167.13,0,0,0,122.65,67c1.6,3.09,1.1,7.77-1.29,9.57h-1.09A7,7,0,0,0,121.86,71c-.6-6.18-5-14.75-6.57-21.43Zm-5.87.3,1.39.1c1.39,6.08,4.08,12,5.77,18a16.18,16.18,0,0,1,.5,4.29c-.2,2.59-1.29,4.59-2.19,4.59h-1c2-2.3,1.89-5.49,1-9C115.09,62.1,111.8,55.32,111,49.64Zm-35.94.1c-.6,0-.6.5.3,1.3.59.5.49.3.49.6-.1,1.29.1,2.59.6,1.19.1-.4.4-.8.6-.7.4.1.2.9.4,1.3.3.7,0,.8-.8.6-.6-.1-.6.2-1,.6-.6.69-.5,1.09.39.89h.4a5.52,5.52,0,0,1,1.3.8,8.25,8.25,0,0,0,3.08,1.8c1.4.2,1.1-.4-.1-.9-1-.4-2.09-1.4-2.09-1.7s.3-.1,2-.59a16.28,16.28,0,0,0,2.19-.9,3.42,3.42,0,0,1,1.89-.3c2,.1,2.29,0,.9-1-2.79-2.09-6.47-3.39-8.36-2.59-.6.3-.6.1-1-.1a3.41,3.41,0,0,0-1.19-.3Zm39.42.1c1.89,7.38,5.58,14.06,6.47,21a6.61,6.61,0,0,1-1.79,5.69h-1.1c-.19,0,1.6-2.69,1.4-5a17.79,17.79,0,0,0-.4-3.89c-2.19-6.28-4.28-11.86-6-17.84ZM80.14,52.33c.4.1.4.3.3.5L79.85,54s-.5.1-.6,0c-.2-.3.4-1.5.8-1.7Zm1.2.2c.1,0,.1,0,.2.1.5.2,1.39.6,1,.9a3.71,3.71,0,0,1-2.09.4l.6-1.1Q81.19,52.53,81.34,52.53ZM76.06,59H76c-.1.1.1.5.5.9C78,62,75.86,62.6,74.37,61.5s-3.58-1-3.28.2c.1.4,0,.6.79.6a2.1,2.1,0,0,1,1.5.5c2.38,1.69,5.57-.6,4-3a2.32,2.32,0,0,0-1.3-.8Zm6,3.29c-.9,0-1.4.7-.3.9,4,.7,1.29,4.78-1.5,2.69-2.48-2.29-5.87-2.29-5.87-.6,0,.4,0,.4.6.5a24.81,24.81,0,0,1,4.28,1.3c.5.2,1,.5,1.09.5,1.7.59,3.79-.2,4.19-1.6S84.62,62.3,82,62.3ZM32.66,75.46a2.09,2.09,0,0,1,1.49,1.2c.9,1.59,2.09,4.18,2.79,5.68a1.81,1.81,0,0,1,.2.89c.1.9.3,1.2.79.8s1.2-1,.4-1.09c-.79-.6-1.29-1.5-.79-2.1.39-.4.2-.7-.1-.7-1.1,0-2.79-3.38-2-4.18,1.09-1,2.29.2,4.77,5.28,1.1,2.19,1.2,4.69.2,3.49-.3-.3-.3-.1-.59.8a5,5,0,0,1-1.6,2.09A19.06,19.06,0,0,0,36,90.11c-.1.4.7,0,1.3-.69,1.29-1.2,1.29-1.6,1.29.1,0,1.49-.1,1.79.2,1.79s.6-1.2.8-2.59a3.48,3.48,0,0,1,2-2.59c.3-.2.3-.3.3-.9-.2-1.8.79-5.18,1.29-4.39a7.93,7.93,0,0,1,.4.9,1.37,1.37,0,0,0,.8,1.1c.59.4.59.69.79,2.19.1.5.3,1.3.4,1.69.3.8.6,1.2.4,1.4l-.3.3L36.44,93.9a9.48,9.48,0,0,1-1,.5,1,1,0,0,1-1.5-.5,58.39,58.39,0,0,1-4.68-9.27c-.79-1.79,0-3,1.1-1.49.4.59.2.89,0,2,0,.2.1.1.5.2.49-.1.79.4.79,1.29-.3,1.2.1.5.4.5s.5.3.8.8c.1.7.49.5.89,0s.4-.4-.4-1.3a19,19,0,0,1-3.48-6.38,2.36,2.36,0,0,1,0-1.19c.6-1.3,1.39-1.3,2.19.5a5.9,5.9,0,0,0,.6,1.09,2.86,2.86,0,0,1,.5,1.7c-.3.6-.3.7-.1.8a2.94,2.94,0,0,1,1.59,2.09c0,.9.2,1.39.89.9s.5-.9-.29-1.7c-.8-1-.9-1.89-.4-2.59q.15-.3-.3-.3a1.34,1.34,0,0,1-1.2-2.09c.3-.6.3-.7-.19-.7a2.2,2.2,0,0,1-.8-.1,4.78,4.78,0,0,1-.9-1.89c.3-.9.7-1.3,1.2-1.3Zm57.74.1a19.2,19.2,0,0,0,5,2.49A27.47,27.47,0,0,1,79,91.21c.2,1,.3,1.89,1.29,2.49,0-.1-.39-1.89-.39-2.19,7.66-2,14.53-9.57,16.22-13.56l34-.4c-25.09,24.33-26.18,58.42-5.67,87.12l-2.39,1.4c-15.83-23.82-15.63-46.75-10.95-62.2a62.58,62.58,0,0,1,13.93-24s-18.41-.3-27.57.1A38.77,38.77,0,0,1,93,85.63s4.68-4.49,4.48-5.29c8.46,0,17.22-.49,25.68.1-10,12-14.83,24.23-15.63,35.89,0,1.49-.1.7-.59,1.19l-1.6,2.5-1.29-2.5c-.9-.29-2.49.2-3.29-.09-3.48,15.65,0,34.58,4.58,46.85a4.45,4.45,0,0,1-2.59.49c-1.59-.3-1.89.1-3.28.4-1.59.3-2.09.3-2.39.7a3.51,3.51,0,0,1-.9.7C92.39,168,88,173.15,88,173.05l-4.18-1.9c3.78-7.57,8.26-10.26,16.23-13.65l-.7-3.39C91,157.3,85.62,161,81.44,168.36c-5.08-.1-25.78-.2-25.78-.2,8.46-9.67,15.13-24.22,15.82-35.58.2-2.2-.1-1.2.8-1.8L73.77,129l1.2,1.79s.89,1.1,1.39.2c1.5-15.85-.1-33.89-7.66-46.55a6.86,6.86,0,0,1,4,.6c3,6.78,4.68,15.15,5.47,21.43A101,101,0,0,1,78,131l.49.1a100.6,100.6,0,0,0-.39-29.5,80.15,80.15,0,0,0-4.48-15.75c-.4-1-.8-1.2-.4-1.3,9.65-.9,13.93-4,17.22-9Zm-25.59.8a1.3,1.3,0,1,1-1.29,1.29A1.26,1.26,0,0,1,64.81,76.36Zm69.49.69a76.13,76.13,0,0,0-7.17,7.78c6.77,9.37,14.24,19.54,20.61,27.61a14.16,14.16,0,0,0,2.19-1.49c0-.1-.2-.5-.2-.4a13.81,13.81,0,0,1-1.79,1.19l-20-26.41s1.1-1.3,1.39-1.7c1.6-.49,5.88-5.88,6.08-5.78,3.38,2.59,13.64,13.66,17.52,17.05l.1,30.7c-.4,1.2-11.35,6-19,23.62-3.88,2.2-8.16,3.39-12.14,5.29a18,18,0,0,0,1.49,2.09c-.6-1.3-.7-1.6.7-2.09l28.77-11.87-.1,2.4c-2.89,2.29-22,16.14-27.88,19.43-27.57-38.67-10-71.77,6.08-87.22Zm-89.7,2.1c.8,0,.6,1.79.3,2.39-.59.4-1.09,0-1.09-.8,0-.3,0-.5-.1-.6C43.21,79.85,43.91,79.15,44.6,79.15Zm16.83,1.09A3.39,3.39,0,0,1,62.52,82c-.89-.1-3.18-.8-2.09-1.3Zm-4.18,2.3c19.91,30.2,19,62.4-3.19,86.72H82.14c3.58-7.08,9.55-11.46,17.12-14.06l.7,2.2c-8.76,2.79-13.15,7.47-16.73,14H49.78c12.84-13.95,18.72-25.72,19.71-41.56.9-15.16-3-29-14.53-45.66Zm5.57.3L67.5,85l-.7,4.88-4.87-2.29Zm-8.46,1.39c25.09,38.18,14.34,65-5.67,87.32l-3.69.1-8.56-8.07.2,48.84-9.36,9.27c-1,.9-1.69-.5-1.69-.5V156.5L26,154l.1-14,5.37-2.79,20,26.42a6.27,6.27,0,0,1-1.19,1.39c.4,1,1.89-1.39,2-1.79-7.27-9.07-20.81-26.82-20.81-26.82l-5.57,3s.2-11.56.1-16c.2-1.1,1-.8,1.49-1.2,7.27-4.78,13.34-11.66,18.42-23.33,3.88-1.29,8-3.09,11.85-4.68l-5.68-8.47ZM39,84.73a2.67,2.67,0,0,0-1.49.9,17.49,17.49,0,0,0-3.09,3.59,1,1,0,0,0,1-.4c1.09-1.7,2.88-2.3,3.88-3.79.1-.2-.1-.3-.3-.3Zm12.64,1.69s3.89,5.69,4.88,7.18c-10.25,4.09-21,9.47-30.46,13v-2.29C26.09,104.37,43.91,90.91,51.67,86.42ZM66.9,90.21l3.79,2-1.1,4.38L65.71,94.4Zm3.19,7.28,3.19,2.29-1.4,3.69-3.18-2.19Zm-25.68,2.69a22.47,22.47,0,0,1-1.3,3.29c-3.88,6.78-7.66,12.86-15.63,18.14a18,18,0,0,1-1.19-1.79l-.1-2c4.18-3.39,7.76-5.88,13.34-15.75l1.59-.69,1.39.59.9-1.69Zm16.32,0C57.15,108,53.56,115.93,47.79,122l15.83,22.23C68.8,128.49,66.9,113.84,60.73,100.18Zm-19.91,1.7-.8,1.29,1.3.8.8-1.3Zm-2.09.09a32.69,32.69,0,0,1-12.84,15l-.2-9.47Zm1,2-.8,1.29,1.29.8.8-1.29Zm32.35.3L75,107l-1.69,3-2.89-2.39Zm43.71,1.29h0c-5,15.75-3.49,30.7,3.38,43.76a91.19,91.19,0,0,1,12.74-23.12c-4.08-5.39-15.73-20.84-16.12-20.64Zm-77.26.3-.79,1.3L39,108l.8-1.3Zm21.9,1.8a43.5,43.5,0,0,1,1.7,29.2L50.88,122.51A99.37,99.37,0,0,0,60.43,107.66Zm-23,0-.9,1.29,1.29.9.9-1.3Zm-1.3,1.79-.89,1.2,1.19.89.9-1.19Zm37.24,1.3L76,113.24l-1.59,3.19L71.78,114Zm-38.73.59-1,1.2,1.2,1,1-1.2Zm82.53.4,11.35,14.76a77.19,77.19,0,0,0-9.76,15.75C115.59,132.28,114.09,122.41,117.18,111.74Zm-84.12,1.5-1.1,1.1,1.1,1.09,1.09-1.09Zm26.58,1.49-5.18,7.58,6,7.67A35.68,35.68,0,0,0,59.64,114.73Zm-28.28.2-1.09,1,1,1.1,1.1-1Zm-1.59,1.5-1.19,1,1,1.19,1.2-1Zm44.5.8,2.09,2.49-2.19,2.59-2-2.29Zm27.18.39,1.49.1c-2.39,23.63,2.29,35.69,6.47,46.06,0,0,0,.4-.2.5a3.29,3.29,0,0,1-3.18-.5c-5.58-14.36-6.77-32.2-4.58-46.16Zm-73.67.3-1.19.9.89,1.2,1.2-.9Zm91.09.9c-.4,0-.7,9.77.7,14.45l5.27-7.17Zm-13.54,1.6,1.79,2.39-1.89,2.59L103.34,123ZM26.39,121c.1,0,.2.2.49.4s.2.3-.1.5c-.49.4-.59.3-.59-.3.1-.4.1-.5.2-.6Zm48,1.8,1.89,2.79-2.19,2.79-1.79-2.89Zm30.86,3.59,2,2.49-1.79,2.79-2.19-2.59Zm47.19.5.2,2.89-.7-1.1-1.29,1,.89,1.19,1.1-.89.1,1.19c-7.17,5.18-10.25,11.27-13.24,15.75l-1.3.6-1.49-.5-.7,1.3-1.29.3a63.47,63.47,0,0,1,6.87-11.17,87.09,87.09,0,0,1,10.85-10.56Zm.8,4.48.1,10.27-12.85,5A51.69,51.69,0,0,1,153.22,131.38Zm-3.19-1.2-1.19,1,1,1.2,1.2-1Zm-1.79,1.5-1.1,1,1.1,1.09,1.09-1Zm-42.91.6,2.39,2.59L105.93,138l-2.49-2.39Zm41.12,1.09-1.1,1.1,1.2,1.1,1.09-1.1Zm-1.69,1.7-1,1.1,1.19,1.09,1-1.09Zm-1.7,2-1,1.2,1.29,1,1-1.2Zm-36.93,1.8,3,2-1.5,3.59-3-2.29Zm35.54,0-.9,1.19,1.4.9.89-1.3Zm-1.39,2-.8,1.3,1.39.89.8-1.29Zm-1.3,1.89-.8,1.3,1.4.8.79-1.3Zm-1.09,2.1-.8,1.29,1.59.7.6-1.29Zm-30.07.79,3.09,2.1-1.4,3.79-3.28-2.3Zm44.9,3.69v78.35H118.77s-1.59-2.79-5-9.37c-1.39-2.79-2.58-4-2.68-6.18a3.52,3.52,0,0,0-1.5-3.29c-.4-.2-.89,0-.69-.5s-.4-1.49-.6-1.69c-.2-.4-.1-.4-.1-1.7a7.86,7.86,0,0,0-.4-2.79c-.7-2.39-.8-3.58-.4-4.88a80.37,80.37,0,0,1,3.39-8.57c.79-1.7.69-2.4-1.79-3.69-1.8-.9-2.1-.9-1.8-2.29a3.62,3.62,0,0,0,.1-1.4,1.78,1.78,0,0,0-.59-.6.63.63,0,0,1,.1-.89c.19-.3.19-.7,0-1.5-.5-1.5.59-3.59,2.78-5,.9-.6.9-.5,1.89.49,2.89,3,7.07,1.1,7.07-3.09,0-1.29-.4-1.29.8-1.89,4.28-2.69,12.94-7.67,12.84-7.48a15,15,0,0,1,1.1,3.39,7.27,7.27,0,0,1,.2,3.19c-.1,1.9-.2,2.3.29,2.5,2.49.29,3.09-.6,3.59-2.3.2-.7.6-.6.89-.3,1,1.8,2.19,3.59,3,4.79,1,1.59,2.69,2.39,3.49,1.59.19-.6.29-.6,1.39-.4a1.66,1.66,0,0,0,2.19-1.39c.1-.4-.2-.4.5-.8,1.79-1.29,1.09-3.19.79-4.19a1.63,1.63,0,0,0,.8-1.49c.1-5.28-4.48-13-4.38-12.76Zm-43.11,3.09,3.59,1.8-.9,4.38-3.68-1.69ZM145,154c2.1,2.39,3.59,6.48,4.38,9.17.4,1.29.4,2.79.1,3s-.49,0-.39-.8.1-1.19-.2-1.19c-.8.19-.8-1-.8-1.3s.2-.3.2-.4c.2-.5-.3-.4-.9-.4s-.59-.3-.59-.7-.7-.39-1.1,0a.67.67,0,0,0,.2,1.1c.7.4,1.29,1.4,2.89,5,.89,2.1.59,3.49-.4,3.49-.8,0-1.59-2.09-2.29-3.58-.2-.4.3-.8.4-1.1.4-.6.4-.7-.3-.7s-.8,0-1.2-.7a3.57,3.57,0,0,1-.19-.89c.29-.8-.3-1-.9-.7-.8.3-.7,1,.4,2.09.69,1.2.5,1.1-.2,2-.1.29-.1.49.3.49.89-.3,1.89,1.3,1.59,1.9-.3.2-1,1.09-.3.89,1.49-.39,2.39,1.8,1.49,2.5-1.29.59-1.59.4-3.58-3.49-.6-1.2-1.39-2.59-1.39-2.69s-.1-.5-.1-.8c.1-.7-.2-.9-.8-.6-.5.1-.9.5-.3.9.7,1.19.9,1.39.6,1.69-.9.7-.5.7.5.9a1,1,0,0,1,.79.7c.5,1.09,1.4,2.69,1.5,3,.3.8-.2,1.19-1,1.19s-1.09-.59-1.49-1.09c-1.4-1.9-2.39-3.79-3.78-6l.19-2a1.15,1.15,0,0,0,.6,0c.4-.2.6-.79.9-1.69a37.18,37.18,0,0,1,3.38-3.29.54.54,0,0,0,.3-.4c0-.3-.9-.1-1.59.6-.9.8-1.3.5-1.3-.5-.1-1.3-.89-.6-.89.6a2.59,2.59,0,0,1-1.1,2.09c-1.29,1-1.09.8-1,2.19.1,2.5-.9,4.59-1.5,3.19a1.52,1.52,0,0,0-1.09-1.09c-.4,0-.6-.4-.8-1.4-.3-1.59-.79-2.59-1.19-4.08Zm-32.15,5.48,4.18,1.69-.8,4.39L112,164Zm31.86.4h0c-1.3.9-2.39,1.89-3.69,2.69a3.78,3.78,0,0,0-1.09,1.2c0,.2.59.2,1.09-.1a19.58,19.58,0,0,0,3.59-3.39c.29-.2.29-.4.1-.4Zm-38.33,5.28c1,0,.4.3-1.79,1.8s-5.58,6.08-6,7.87c-.2.8.3.8.9-.2,2.59-5,7.37-9.47,11.85-9.27,2.19.1,3.38.7,1.59.9-4.88.6-8.56,3.39-11.85,9.07,0,.1.3.1.6-.1,3-3.59,6.27-8.47,12.14-8.07,4.19.29,5.38,5.28,1.9,7-3.09,1.5-5.88-2.19-3.29-4.28.8-.7,1.29-.4.5.3-1.69,1.49.4,4.28,2.39,3.29a2.33,2.33,0,0,0,.69-3.69c-2.48-3-7.76-.7-11.44,4.18-.4.5-.7,1.6-.4,1.5.59-.2.89-.7,1.29-1.2a11.38,11.38,0,0,1,4.08-3.78c1.4-.8,1.5-.6,1,.69-.2.6-.4.7-.9,1.1-2.29,1.49-3.68,3.59-3.68,4.88,0,1,.7,2.2-.1,2.5-1.29.59-4.78.1-5.77-1.1-.7-.9-.9-.4-.4,1.1.3.89.3,1.49.79,1.39.6-.3,1.1-.3,2.29.4a21.54,21.54,0,0,0,2.29.8c1.2.3,1.4.2,1.4.7v.89c-.2,1.6,1.09,2.1,2.88,3.09,1,.6.6,1.2-.59,4.19-.6,1.3-1.2,3.19-1.89,4.48a7.31,7.31,0,0,0-.3,5.09c.89,3.59,1.49,5.38-.1,5.68-3.89.6-12.55.6-17.33-1.3-1.19-9.17-7.56-22.62-6.76-26.11,1.59,2.49,8.46,1.79,6.47-5.09a14.44,14.44,0,0,1,1.69-2c2.89-3,3.58-3.39,2.19-.8a27.76,27.76,0,0,0-2.39,5.09c0,.4.3.5.5.2a5,5,0,0,0,.59-1.3c1.7-4.09,4.68-7.67,6.67-8.57.5-.2.5,0,.1.5a31.78,31.78,0,0,0-5.47,9.37c-.1.4.5.49.6.2,2.19-4.69,2.88-5.79,5.67-9.08,1.1-1.29,2.09-2,2.89-1.89s.5.2-.2.9a33.41,33.41,0,0,0-2.39,2.79c-2.09,2.59-4.18,6.88-3.39,6.68.1.4.8-.8,1.3-1.9,1.49-2.59,3.09-5.88,6.67-8.17a5,5,0,0,1,2.49-.7Zm-69.39.9,6.37,6.38,12.84-.2c-2.09,3.29-1,8.47.2,11.46,2.29,5.88,5.68,15.65,5.38,15.75,0,0-1.89.5-2,1.7-.3,1.79.49,1.59-.6,3.19a1.88,1.88,0,0,0,.2,1.59,1.59,1.59,0,0,1,0,1.5L48,227.77H26.29v-4l11-11-.1-8.07c5.87,1.79,7.86,7.87,8.36,12.36,10.65-9.77,10.35-24.43.3-33.6-2,9.77-9,11.77-8.76,11.57Zm79.84,1.1a9.87,9.87,0,0,1,2.29.49,9,9,0,0,0-1,.9A7.74,7.74,0,0,0,116.78,167.17Zm17.82.1c.6,0,1.3,1.69.9,2.09a1.29,1.29,0,0,1-1.2.1C133.9,169.26,134.1,167.27,134.6,167.27Zm-20.21,2.89a1.3,1.3,0,1,1-1.29,1.29A1.2,1.2,0,0,1,114.39,170.16Zm-56.54,1.89h1c-1.79,2.39-2,4.39-1.39,7.28.69,3.29,6,15.75,6.37,19.14v.59l-1.3.1a4.33,4.33,0,0,1-.1-.5c-1.79-6.18-3.68-11-4.87-14.55-1.3-3.79-3.29-9.57.3-12.06Zm7.06.1h1a16.79,16.79,0,0,0-1.49,4.68,20,20,0,0,0,1,6.28c1.59,4.69,3.78,9.87,5.08,15.65a4.17,4.17,0,0,0,.2.6l-1.4-.2a2.49,2.49,0,0,0-.2-.69c-.89-5.19-3.58-10.47-5.17-15.55a17.28,17.28,0,0,1-1.1-7.28c.3-1.5,1.79-3.49,2.09-3.49Zm11.15,0a10,10,0,0,0-1.89,5c-.1,2.79.8,5.19,1.59,7.58a130.36,130.36,0,0,1,4.88,17.64l-1.29-.6a2.11,2.11,0,0,1-.1-.39c-.7-3.79-.8-3.49-4.88-16.35-1-3.09-1.89-5.78-1.69-8.37,0-1.5,1.29-4.39,2.69-4.59Zm1.6,0h1.19a11.15,11.15,0,0,0-.9,1c-2.19,3-1.49,6.18-.49,10.06C79,188.5,81.64,194.38,83,202.45v.9l-1.49-.6C80.24,195.38,77,187.7,75.37,181c-.9-3.89-.7-6.38,1.49-8.47a3.27,3.27,0,0,1,.8-.4Zm-15,0h.9S62,174.74,62,176.24c-.3,2.69.69,5.68,1.79,8.77,1.69,4.78,4,10.56,4.68,13.56,0,.09.1.69.1.69l-1.6-.1s-.1-.69-.2-1.09c-1.89-6.58-3.68-10.77-5.77-16.75a16.12,16.12,0,0,1-.2-6.78,3.76,3.76,0,0,1,1.79-2.39Zm-2.39,0h1a4.42,4.42,0,0,1-.5.9c-1.79,3.29-1,6.28.1,9.67,1.49,4.48,3.88,10,5.28,15.15a9.56,9.56,0,0,1,.2,1.19h-1.4s-.3-1.09-.3-1.19c-.79-4.79-5.17-12.76-6.27-18.94-.69-3.19-.2-5.19,1.89-6.78Zm13.24,0a13.58,13.58,0,0,0-1.69,4.29c-.3,3,.7,5.48,1.69,8.87,1.9,5.78,4.48,12.66,4.68,15.75v.5l-1.59-.6a2.27,2.27,0,0,1-.1-.4c-1.39-5.68-3.08-11.27-5.28-17.64A20.77,20.77,0,0,1,70,176.83a6,6,0,0,1,2.19-4.58Zm7.17,0h1.3a5.73,5.73,0,0,0-1.3,1.2c-5.17,4.68,3.19,18,5.08,30.2,0,.1.1.6.1.6l-1.39-.5a17.09,17.09,0,0,0-.4-2c-1.6-6.18-3.59-12.56-5.58-18.35-1.09-4.18-1.49-8,.5-10a3.64,3.64,0,0,1,1.69-1.2Zm-13.44,0h1.4a8.48,8.48,0,0,0-1.6,5,16.92,16.92,0,0,0,1.2,6.18c1.39,4.39,3.38,9.07,4.78,15.06a4.62,4.62,0,0,0,.2.79c.1.3.2.7.2.7l-1.5-.3-.3-.6a8.15,8.15,0,0,1-.4-1.19c-.69-3.09-3.28-10.07-4.87-15-1.3-2.9-1.7-8.28.89-10.67Zm17.33.1a4.09,4.09,0,0,1,3.78,2.89,3.48,3.48,0,0,1-1.79,4.09c-2.69,1.39-5.58-2.3-3.49-4.29,1.6-1.49,4-.4,3.49,1.5a1.37,1.37,0,0,1-2.59.1c-.1-.4-.3-.8-.5-.6-1,2.29,2.29,3.39,3.68,1.29a2.64,2.64,0,0,0-3-3.58c-3.09.59-3.49,4.58-2.19,9.27,1.79,7.37,6.17,17.24,6.17,21.83v.19l-1.39-.39v-.1c-.8-6.38-5.48-16.85-6.87-24.92-.6-3.69.79-6.38,4.08-7.08a.73.73,0,0,1,.6-.2Zm-13.64,0a8.49,8.49,0,0,0-1.6,4.58,24.33,24.33,0,0,0,1.3,6.18c1.49,5.29,5.08,15,5,16.75,0,.2.1.8.1.8l-1.4-.4a1.24,1.24,0,0,1-.2-.3c-.5-1.79-2.59-9.47-5.07-16.15a18.44,18.44,0,0,1-1.3-6.58,7.15,7.15,0,0,1,2-4.78ZM97,181c-3.58.2-3.19,4.59-1,5.28a1.72,1.72,0,0,0,1.4-.1c.1-.19,0-.49-.5-.59-1.49-.5-2-2.3-.7-3,.7-.4,1.89-.1,3.29.89,2.49,1.9,5.67,2,5.27.1-.09-.5-.29-.5-2.19-.79a8.48,8.48,0,0,1-2.88-1A4.35,4.35,0,0,0,97,181ZM46.2,185c9.16,9,7.76,23.12,0,30.2-.2-.6-.5-2-.5-1.89,5.87-6.18,8.66-16.25.1-26.62,0,0,.2-.79.4-1.69Zm57.44.3h-.2c-2.39.7-2.89,3-1.29,4,.89.6,1.69.2.49-.49a1.21,1.21,0,0,1,.7-2.2c.5,0,.9.2,2.29,1.3,1.1.8,2.19.9,2.39-.2.1-.7-.1-1-.8-.8-.3.1-.49-.1-.89-.4a4.4,4.4,0,0,0-2.69-1.19ZM45.3,187c8.26,9.67,5.58,19.74,0,25.62A16.46,16.46,0,0,0,40,205.24c1.4-3.19,2.29-6.48-.39-10.66A20,20,0,0,0,45.3,187ZM99,190.59c-.4,0-.3.4.7,1,2.19,1.49,2.39,1.79.3,1.69a13.32,13.32,0,0,0-1.9.5c-2.78.9-2.88.9-4.18.5-.39-.1-.89-.3-1.09-.1s-.6.5-.3.9a12.37,12.37,0,0,0,1.39.89c3.19,1.9,3.49,2.3,7.27,2.4a6.37,6.37,0,0,0,.9-.2,2.07,2.07,0,0,1,1.59.69c1.09,1,1.19.3.5-1.09-.4-.7-.7-.9-.5-1.4.4-1.29-.2-1.49-.9-.4-.59.9-.59.8-1.09-.3-.7-1.39-.4-2,.7-1.09.79.7,1,.2,1.29-.4s.3-1.4-.4-1.3a1.58,1.58,0,0,1-1.09-.5A7.27,7.27,0,0,0,99,190.59Zm.9,3.69c.1,0,.1,0,.2.1a4.63,4.63,0,0,1-.6,1.89c-.1.2-.2.2-.4.3-.7.1-.7-.1-.6-.5.2-.59.4-1.49,1.4-1.79Zm-1.7.4c.3,0,.3.1.2.3a4.35,4.35,0,0,1-.79,1.09c-.5.3-1.4-.69-1-1a6.69,6.69,0,0,1,1.49-.5.1.1,0,0,0,.1.1Zm-59.23.6a.6.6,0,0,1,.4.1,8.53,8.53,0,0,1,.3,9.17c-.1.2-.2.2-.4.1a19.31,19.31,0,0,0-2.19-.8v-8c.79-.1,1.29-.59,1.89-.59Zm52.76.69q-.3,0,0,.3c2.89,2.1,7,4.59,10.66,3.59.29-.1.59-.3.59-.6s-.4-.4-.79-.3a8.68,8.68,0,0,1-3.19.1c-2.59-.4-4.78-2.09-6.77-3a1.09,1.09,0,0,0-.5-.1Zm-.89,2c-.1,0-.1.1,0,.4.4,1.19,4.58,4.08,7.76,5.08,2.79.8,6.77,0,6.57-1.3-.1-.69-.59-.89-2.39-.59-3.88.79-7.76-.9-10.55-2.7-.8-.59-1.19-.89-1.39-.89Zm-25.69,1.69a32.93,32.93,0,0,1,5.28.4,42.83,42.83,0,0,1,11.25,3.39c6,2.29,13.44,4,19.81,3.79a29.14,29.14,0,0,0,4.88-.3c1.39-.3,1.79,0,2.19,1.79.1.4.2.5.69.8.8.5.6,1,.5,2.19-.1,1,.5,1.5,2.79,5.78,2.59,4.89,5.18,10.47,5.18,10.47-22.9,0-44.8-.9-68.3-.1,2.09-5.08,7.87-14.15,11.45-21.43-.89-2.29.2-2.59-.2-3.19a2.3,2.3,0,0,1,1.3-3.39C63,199.76,64,199.66,65.11,199.66Z"/><path id="path6353-8" class="cls-3" d="M49.68,228s7.57-15.25,10.65-19.84c4.58-5.78,25.09,2.5,35.35,4.59,4.18.8,13.83.4,13.83.4l8.07,14.65ZM34.05,210.63,33.75,163l2.39,1.49.5,47.85-10.15,9.77-.1-2.89Zm6.17-5.49c2.39-4.88-.29-10.86-.29-10.86,1.39.4,5.27-7.18,5.67-6.88,6,7.38,7.07,18.44-.3,25.22a20.38,20.38,0,0,0-5.08-7.48Zm4.48-33.59c4.58-4.68,8.17-8.37,11.75-13.55.3-.4-19.21-25.42-18.91-25.82,3-3.39,7.06-5.78,10.15-9.87,0,0,16,21.13,16.33,20.93,1.59-6.58,2.78-12.56,2.49-19.44-1-17.64-8.47-28.4-8.57-28.2-2.48,16.24-27.37,40.76-32.35,39.07V123.31c.3.59,15.73-10.07,19.81-24,.3-1,12.35-4.88,12.25-5-.5-1.3-5.78-8.77-5.78-8.77a19.22,19.22,0,0,1,2.39-1A69.73,69.73,0,0,1,68,114.93c2.09,11.57,3.48,33.2-19.41,56.82Zm68.7-29.8a63.32,63.32,0,0,1-1.8-30.9c2.49-14.66,11.75-25.22,19.12-33.2h3.18s-3.88,4-5.27,5.49a85.49,85.49,0,0,0-5.88,8.57l19.12,25.22,10.95-2.4s-.3,11.27,0,11.27c-8.46,7.08-14.54,13.46-18.92,23.72-2.68,1-11.54,4.89-11.54,4.89-4.19-1,12.54-27.51,9.35-28-1.29-1.1-15.93-20.94-16.12-20.84-6.67,20.74-.2,42.47,11.64,57.62a7.53,7.53,0,0,1-2.49,1.39c-5-7.27-9.45-15.75-11.34-22.82ZM78.45,131.28c.8,1.2,4.18-25.32-4.78-46.45.9-.7,8.27-2.09,8.27-2.09l2,6.38-5.08,2.19.9,3c3.88-1.89,12.34-4.69,17.62-13.46l25.88-.2c.5,0-5.18,5.49-10.55,16.65a51.87,51.87,0,0,0-4.88,19.34c-.1,1.49-5.77-7.18-5.77-7.18,1.39-7.38,5.27-14.55,9.06-21.73,0,0-5.78-.3-9.86-.2-6.37,7-10.25,10.67-19.81,14,3.48,11.26,24.79,16.64,20,15.55-1-.2-2.19,10.26-1.2,22.23.2,9.47,5.28,25.31,5.48,25.21,0,0-3.38.8-3.68.2.59-.1-5.08,1.3-5.08,1.3l-2-5.88,5.37-2.49-.89-3.29S87.51,158,81.64,168.46H55.46c10.05-11.06,14.23-21.93,16.42-36.38,2.19.3,6.57-.8,6.57-.8Zm64.31-95.09c3.29-2.8,9.86-10,9.86-10l.1,3.69-7.47,7.87.1,48.45-2.49-2.5Zm-3.48,17.74c-1.39.6-4.08,3.79-5.28,7.38-8.66-7.78-5.07-22.13-.39-25.12,1.39,3.09,5.37,7.27,5.27,7.17C138,46.65,137.29,49.94,139.28,53.93ZM62.42,21.33l66.9.1C125.54,29,122,35.09,118,42.57c-2.1,2.59-47.79-8.28-48.09-7.18Z"/><path id="path6355-9" class="cls-4" d="M26.29,218.4l-.4-63.59,7.56,7.47.5,48.84ZM61.23,206c-1.59.2-.7-1.2-.4-2.59.2-.8-.6-1.5-.6-1.79,0-1.4,1.1-2,5.68-1.9,11,.8,16.62,4.29,22.9,6,6.07,1.6,12,1.5,18.61,1.4.5.3,2.29,4.88,1.89,5.38-14.93,3-34.14-8.17-48.08-6.48Zm27.08-32.89a8.75,8.75,0,0,0-4.58-1.6c2.59-4.58,5.67-8.77,11-11.36l2.39,6.08a24.57,24.57,0,0,0-8.76,6.88ZM56.65,157.4a29.31,29.31,0,0,1-4.38,5.48c-6.27-8.57-20.41-26.71-20.41-26.71l-6,3.09s0-3.49.1-3.79c16.23-8.38,27.28-24.32,32.15-39.18,0,0,2.59,2.69,2.29,3.79-4.38,11.76-11.84,23.53-22.89,32.3Zm20.21-17.35H97.27l.89,7.18c-7.86,2.69-14.33,8.07-20.3,14.25l-9.66-.2c3.08-6.87,7.56-14.05,8.66-21.23ZM152.52,110c.7,2,0,4.19.3,4.09-24.49,12.16-31.46,39-31.46,39s-2.29-3.69-2.19-4.29c12.64-28.4,21.21-29.2,22.8-32.29L122.65,91.31l4.38-6,20.71,27.11C149.63,111.44,150.83,110.65,152.52,110Zm-12.05,36.68c4.19-7.47,8.47-11.86,12.75-14.85l-.2,10ZM26,117.13l.1-9.67L38.73,102A37.46,37.46,0,0,1,26,117.13Zm56.15-8.68-.7-6.77a56.66,56.66,0,0,0,19.91-14.06c5.87-.3,9.86.1,9.86,0A80.9,80.9,0,0,0,102,108.85Zm63.41-71.17,7-7.07.2,63.39-7-6.88ZM84.33,88.82l-2.19-6.28c3.48-1.3,6.07-4.19,8.56-7a12.75,12.75,0,0,0,4.58,2.29C96.27,78.15,88.21,87.92,84.33,88.82Zm-13-47.45s-.89-.5-.79-1.2c.3-.89-.9-3-.9-3,14.84-4.48,36.44,8.28,49.28,5.58a12.65,12.65,0,0,1-.3,2.8c.4,1.79.7,1.89-1.09,3C108.42,51.14,99,45.66,90.2,43.06c-7.27-2.39-13-1.89-18.92-1.69Z"/><path id="path6357-5" class="cls-5" d="M61.73,20.44l2.69,5.18-.5.3c.69,1.19,1.39,2.59,2.09,3.89l.5-.1c.89,1.69,1.29,2.39,2.39,4.38h-.5c.3.9,1,1.5,1,2.2s-.2,1.59.3,2.19.7.8.5,1.19a1.59,1.59,0,0,0,1.49,2,46.11,46.11,0,0,1,19.71,1.89c4.78,1.5,9,3.19,13,4.39a26.68,26.68,0,0,0,6,1.09c6.07.4,9.46-.79,8.46-3.38-.1-.2-.3-.4-.3-.5a.83.83,0,0,1,.3-.7c1-1,.4-1.79-.2-2.89,0,0,7.77-14.06,11.75-21Zm67.59,1.29-5.67,9.87A2.92,2.92,0,0,0,119.87,34c-4-1-3.39,4.19-1.4,4.49.1.8-3.28,1.69-5.07-.1,2.68.4,3.68-3.29.39-4.09,4.38-3.29-3.88-8.27-4-1.39-3.88-.7-3.38,4.48-.89,4.88-1.3,1.4-5,1.4-6.87-1.49,3.28,1.69,5.07-2.7,1.69-4,4.18-3.69-4.08-7.18-3.88-1.1-3.09-1.89-5.28,2.89-1.1,3.59-.2.9-5.67.9-7.07-1.4,3.89.9,4.09-3.88.6-4.28,3.39-4.39-5.28-6.58-3.78-.6-3.39-1.3-4.68,2.89-1.4,4.19.2.69-5.27,1.19-7.26-1.2,4.18-.6,2.78-4.78,0-4.38a1.62,1.62,0,0,1,.2-.5c1.29-4.09-5.68-4.49-4.68-.1a4.18,4.18,0,0,1,.3.89c-1.9-.39-3.09.4-3,2.2.5,2.39,1.69,2.19,3.38,1.69.7.7-3.88,3.09-6.77,1,3.49-1,1.7-5.18-1.19-4.59-.1-1.29-1.59-3.19-3.39-2.29l-2-3.89Zm5.68,55-4.08.1c-2.89,3-23.8,22.32-20.31,51.63,1.49,12.56,5,23.42,14.23,36.18l2.49-1.49.4.3,25.79-14.95V144L123.65,156.7a10.7,10.7,0,0,1-1.39-2.09l11.94-5.09a10.37,10.37,0,0,0,.4-1.09c4-10.07,12-17.35,18.92-22.93,0-9.87-.1-30.6-.1-30.6l-18-18A66.93,66.93,0,0,0,129,83.53L149.73,111l-1.79,1.19L127.43,84.83c2.39-2.89,5-5.48,7.57-8.07ZM153.42,94.6s-.1-47-.2-69.78h0L142.47,35.89V83.63Zm-.9-65.29L145,37.18l.1,48.45-2-1.9V36.58l9.46-10Zm-73.87-1.2a1.44,1.44,0,0,1-.2,1.4c-1.59,1.89,3.29,5.28,6.87,4.68,2.69-.4,5-2.09,4-3.29-.79-1-.29-2,.7-2s1.79.8.9,1.89c-1.89,2.4,1,5.29,5.47,5.29,3.19,0,4.18-.7,4-3-.1-1.1.1-1.4.9-1.5,1.19-.3,1.79,1.1.8,2.09-2.09,2.2.3,5.49,4.18,5.69,1.39.1,1.69,0,3.38-.9,1.3-.7,1.69-1.8,1.1-2.59a1.19,1.19,0,0,1,1.49-1.8c.9.4,1.3,1.1.3,2.2-1.29,1.49-.7,2.79,1.79,3.58,1.89.7,3.29.6,4.18-.3.3-.29.9-.79.9-.59l-1.1,2a6.13,6.13,0,0,1-7.06-1.69c-4.19,2.39-7.87,1.89-11-2.2-.79.5-6.57,1.5-10.75-3.09-4.18,2.1-8.16,1.2-11.65-1.09a7,7,0,0,1-8.06,1.69L69,32.9c.2-.1,1.1,1.69,5.58.89,1.49-.3,4-2.79,2.59-4-.7-.9-.7-1.4-.1-1.9.3-.6,1.29-.4,1.59.2ZM67.9,30.3c.2.5.3,1.3,0,.8a11.35,11.35,0,0,0-.9-1.39,1.16,1.16,0,0,1,.9.59Zm84.62.4V93.3l-6.47-6.48-.3-49ZM77.66,33.79l2,1.3H76Zm11.44,1,1.7,1.69-3.59-.79Zm32.06.9-.8,1.59C120,36.78,119.77,35.69,121.16,35.69ZM134,61.7c1.3-2.89,3-6.67,5.88-7.87-2.09-4.19-1.79-8.37-.3-10.67a22.51,22.51,0,0,1-5.68-7.77C127.13,41.37,126.14,53.63,134,61.7Zm-.2-25.12.5,1.1c-6,7.38-4.08,17,.2,22.13l-.6,1.3C128.63,55.52,126.24,43.66,133.8,36.58ZM98.16,40.67c6.87,2,12.45,5.18,20.41,2.39v1.6c-5.07,3.29-15.23-.2-22.1-2.69a56.66,56.66,0,0,0-25.68-3.39c-.5-.1-1-1.5-.1-1.5C82.24,36.88,80.34,35.49,98.16,40.67ZM99.76,38l2.29,2.39a25.73,25.73,0,0,1-4.88-1.89Zm34.64.6.4.6c.2.3-1.29.39-1,.1ZM95.38,43c8.26,3.09,17.32,6.28,23.29,3.49,0,0,0,1.2-.6,1.5a5.88,5.88,0,0,1-2.68.8c-9.66.79-15.93-3.19-23.7-5.59A53.28,53.28,0,0,0,79.15,41c-2.89-.1-7.37.3-7.37.3-1-.1-1-.7-1-1.2A48,48,0,0,1,95.38,43Zm39.92-3h.3l.79,1.1-1,1.6a6.61,6.61,0,0,1-1.3-1.6C133.9,40.57,134.5,40.07,135.3,40Zm-24.29.3,2.59,2a14.27,14.27,0,0,1-6.38-.7Zm22.1,1c.2,0,.4.2.69.7.5.79.4,1-.49,1.29-1.2.4-1.3.3-.9-.79C132.61,41.67,132.81,41.27,133.11,41.27Zm4,.6,1.79,1.49c-1,2.59-1.59,5.78.3,10.47-.2,0-1.49,1.3-1.89,1.49-1.1-.49-3.59-9.76-.2-13.45Zm-2,1.89-.5,2.79c0,.2-2-1.29-1.79-2.09.4-.9,1.49-.7,2.29-.7Zm-3.19,1c.2,0,.6.6,1,1.29s.3.8-.5,1.5c-1.09,1.2-1.39.8-1.09-1.2.1-.89.29-1.59.59-1.59Zm2.29,2.59c.2,0,.3,0,.4.1l.1,2.79c0,.2-2.09-.1-2.39-1.2-.3-.69,1.1-1.69,1.89-1.69Zm-2.78,2.29a4.29,4.29,0,0,1,1.09.6c.8.5.8.7.1,1.6s-1.19.89-1.29-.9C131.22,50.24,131.22,49.64,131.42,49.64Zm3.08,1.1c.1,0,.1,0,.2.1.4.3,1,3.09.7,3.39s-2.19-.1-2.59-.8S133.9,50.74,134.5,50.74Zm-2.19,3.19a3.14,3.14,0,0,1,1.2.4,4.58,4.58,0,0,1,1.09.8,2,2,0,0,1-.6,1.79c-.3.4-.59.1-1.19-1.2C132.11,54.63,131.91,54,132.31,53.93ZM136,55.22h.1c.6.3.5,1.4-.19,2.2-.9.89-1.7.2-1-.9.3-.8.8-1.3,1.09-1.3ZM84.53,80.84a3,3,0,0,0-1.8,1c-.49.6-.89.5-1.39.5a6.19,6.19,0,0,0-2.79.7,5.48,5.48,0,0,1-2.09.49,3.9,3.9,0,0,0-1.49.2,3.18,3.18,0,0,1-1.1.4c-.89.3-.59.5-.1,1.7a88.19,88.19,0,0,1,5.28,21.53,103.11,103.11,0,0,1-.5,23.62c-2.59,0-4.18-.1-6.87-.1-1.79,15.05-6.87,27-16.82,37.78l27,.1c3.08-8.27,17.22-14.65,17.62-14.15l.7,3S90,159.09,83.23,172.05c.7-.4,3.29-.1,4.88,1.59a27.65,27.65,0,0,1,8.86-7l.2-.5s1-.3,1.89-.5c.3-.1.9-.2,1.29-.3a4.36,4.36,0,0,1,1.8-.4,10.14,10.14,0,0,0,3.78-.4c-5.68-15.85-7.07-30.2-4.88-46.85,2.09,0,6.77.1,6.77.1a70.22,70.22,0,0,1,2.49-13.75,53.32,53.32,0,0,1,7.57-15.75c2-3,3.78-5.19,5.87-8l-26.38.1C93.88,86.32,87.11,91.31,81.74,93.3c-1.79.7-2.09.6-2.39-.3-.5-1.59-.5-1.49.89-1.89.5-.1,2-1,4.38-2.09,5.08-2.6,8.57-7.38,10.66-10.57.79-1.3.3-1-1.1-1a4.1,4.1,0,0,1-3-1.59c-.4-.4-.6-.7-.8-.7-1.39,2-3.88,4.89-5.87,5.68Zm6.17-5a7.25,7.25,0,0,0,4.48,2.29c-3,4.69-6.57,8.37-10.75,10.57l-2.09-6C87.51,80.24,88.91,77.85,90.7,75.86Zm43,1.89c-27.87,26-26.28,58.71-6.76,85.33l-2.1,1.2c-18.31-24.73-21.7-61.41,6.38-86.63Zm-17.52,3.19h6.87L118.37,87H112.1Zm-1.09,0L111.31,87l-10.26.1A43.34,43.34,0,0,1,81.64,101l-1.3-6.48A31.48,31.48,0,0,0,97.87,80.84Zm-10.45.5-2.39,2.69,2.48,2.49L107,84Zm5.37,0-2.39,2.49,1.89,2.49L112,83.93Zm-11.85.4-.39,4,3.08,1,.5-3.39ZM117,82l-2.29,3.59,3.38.1,2.39-3.49Zm-35.34.9L83.83,89l-1.89.89-2-6.38Zm-2.59,1,2.29,6.38-1.89.6-2.09-6.58Zm2.69,25c.3,8.77.4,14.16-1.1,21.83-.1.4-1.69,0-1.69,0,.2.1.9-8.77.8-14.25a86.8,86.8,0,0,0-6-31.4,8.64,8.64,0,0,1,2.69-.7c2.69,7.88,5,16.35,5.28,24.52ZM54.36,84.43c9,12.06,15.43,28.31,14.34,44.46-1,18.74-8.07,29.5-20.51,42.46l-3.19.1c14.64-14.15,21.11-26.21,21.71-42.26.59-18.34-5-30.6-14.34-43.66ZM25.49,101v4.38L56.15,92.11l-4.38-6.58Zm72-14.36-3.39.2.1,3.39,3.49-.1ZM127.23,86l19.91,26.21-4.87,3.69L123.35,91.31ZM111.6,87.82l6,.1-2.29,3.89h-5.78Zm-1.09.1c-2.69,5.08-6.47,11-8.66,20.43H82.24a47.17,47.17,0,0,0-.6-6.47,43.48,43.48,0,0,0,19.81-14Zm3.68.3-2.59,1.49,1.6,1.8,2.78-1.1ZM90.8,90,90,93.4l3.19,1.2.59-4Zm18.32,2.59h5.67l-2.39,4.79-5.67-.1Zm13.53-.69,18.82,24.52-1.79,1.39-18.42-24Zm-11.34,1-2.59,2.2,1.89,2.29L113,95.5C113,95.4,111.31,92.9,111.31,92.9Zm-25,.2-.8,3.29,3.29.9.59-3.49Zm-4.58,2.2L81,98.49l3.09.79.69-3.09ZM56.05,95c.2,0-.49,3.79-1.49,4.48-.5.3-.7.3-1.1-.2-.29-.3-1.59-2.39-1.59-2.39l1.1-.6c1.29,2.2,1.29,1.1,1.89-.69Zm-5.17,2.19c.39,0,1,.5,1.59,1.6.9,1.49.8,1.59-.6,2.09-2.59.7-3.48.9-2.69-.9s1.1-2.79,1.7-2.79Zm7.66-.3,1.79,3q-10.59,27.06-34,38.88v-3C44.6,125.2,52.17,112.74,58.54,96.89Zm47.89,1.3,5.57.1-1.49,4.28h-5.87ZM49.18,98c-4.48,10.86-10.65,20.23-23,28.21v-2.89C40,114.93,46,99.18,46,99.18Zm70.09,0c3.28.1,6.77,3.69,6.37,6.68-.2,2.09.2,3.68.7,2.79,1.29-1.9,5-.6,4.88,1.59,0,1.2-.8,1.4-1.3.3-.7-1.59-2.59-1.69-2.89,0s1.1,2.79,4.68,4.09c4.18,1,6.67,4.78,5.18,6.88-.5.59-.8.69-.9.39,0-.09-.1-.49-.19-1-.5-2.29-1.6-3.19-2.89-2.49-.7.39-.6.89-.2,1.59.5.9.2,1.3-.7.8-1.49-.7-1.89-2.49-.5-3.29,1.7-.7,1.1-.8-1-1.5-4.58-1.59-6.47-4.38-6.67-9.86.1-2.5-.3-3.39-1.39-3.69s-2.29,1.09-1.5,1.79c.4.4.8.7.5,1-.7.7-2.49-.4-2.49-1.6,0-.79.3-.89,1.49-1.89.3-.3,0-.7-.39-.7C118.17,100.38,118.27,98.09,119.27,98Zm-10.25.6-2.79,1.59,1.39,2,3.09-1.49Zm-54,1.59a.6.6,0,0,1,0,1.2.65.65,0,0,1-.6-.6C54.56,100.48,54.76,100.18,55.06,100.18Zm5.67.3a61.3,61.3,0,0,1,3.19,42.26L48.09,122.11a70.29,70.29,0,0,0,12.64-21.63Zm-21.3.9-14.14,6L25.19,118C33.16,112.54,36.44,107.06,39.43,101.38Zm13.54-.1c1.39,0,.69,3.69-1.1,5-.69.5-1.09.5-1.29-.6a8.4,8.4,0,0,0-1.4-2.59c-.79-1.1-.79-1.1.4-1.19,1.3.19,2.39-.5,3.39-.6Zm-1.4,1.59c-1,0-1.29.5-.69,1.1s.89.4,1.29-.4C52.37,103.17,52.17,102.87,51.57,102.87ZM26.19,116.73v-9.07l12-5.09a37.08,37.08,0,0,1-12,14.16Zm107,7.27-1.6,1.6-15.53-20.44,1-2.59ZM48,103.37c.5,0,1.69,1.79,2,3.09.2,1,0,1.2-1.79,1.5-.8.19-2.79,0-2.59-.5A16.31,16.31,0,0,1,48,103.37Zm56.35.2,5.67.1-1.29,4.68-6-.1Zm2.49.3-2.69,1.79,2.09,2.1,2.79-1.7Zm8.86,2,15.73,20.54a73.67,73.67,0,0,0-12.45,22C113.4,135.27,111.31,122.41,115.69,105.86Zm-63.92,1.7a.6.6,0,1,1-.6.6C51.27,107.86,51.47,107.56,51.77,107.56Zm-1.79.79c1,.1.1,3.19-1.39,4.39-1.2.9-1.7.5-1.89-1.2a7.25,7.25,0,0,0-1.3-2.39c-.6-.9-.4-1,1.2-.7A12.65,12.65,0,0,0,50,108.35Zm52.56.8h6l-.9,7.08Zm-57.94.3c.9.9,2.1,4,1.5,4.19a8.6,8.6,0,0,1-4.28-.5c-.2-.3-.2-.3.3-1,.29-.4.79-1.19,1.19-1.69S44.11,109,44.6,109.45Zm3.29.1c-.9,0-1,.2-.5,1.1s.6.89,1.2.3C49.38,110.35,49.08,109.55,47.89,109.55Zm104.53.6.2,3.49C129.72,125.1,121.16,152,121.06,152l-1.69-3.09c10.45-26,24.49-33.49,33-38.77ZM44.6,114.34c1.4,0,1.8-.1,1.8.39a5.49,5.49,0,0,1-2.79,4.09c-1,.5-1.1.5-1.2-.7a9.62,9.62,0,0,0-.89-3.19c-.2-.4-.7-1.19,0-1a14.45,14.45,0,0,0,3.08.4Zm3.09-.3a.6.6,0,1,1-.6.59A.57.57,0,0,1,47.69,114Zm-7.37.79c.2,0,.5.5.8,1.3.6,1.59.8,2.49.6,2.89-.3.6-4.08.2-4.68-.5A45.89,45.89,0,0,1,40.32,114.83Zm2.69.4c-.5,0-.3.4.1,1.3.3.7.7.8,1.1.3.59-.6.69-1.1.3-1.4A3.64,3.64,0,0,0,43,115.23Zm109.51,3.59V120c-.9-.3-1.39-.6-2.49-1-.6-.2-1-.4-.4-1a12.16,12.16,0,0,1,2.79-2.29V117c-1.59.69-1.39,1.39.1,1.79Zm-66.1-1.2h6.27v4.19h5l-.4,4.79H92.69v4.18H86.42V126.6H81.94l.4-4.79h4.18Zm14.23,0c-3.18,15.95-.3,32.9,4.68,46.75l-2.49.3C99,153.61,96,137.86,99.06,117.72a6.17,6.17,0,0,1,1.59-.1Zm46.89.3a.6.6,0,1,1,0,1.2.64.64,0,0,1-.59-.6C147.05,118.12,147.24,117.92,147.54,117.92Zm-111.1,1.3c.2,0,.9.3,1.39.4a22.61,22.61,0,0,0,2.29.4c1.6,0,1.8,0,1.1,1.29a7.41,7.41,0,0,1-2.39,2.59c-1.09.6-1.49.5-1.39-.59a8.59,8.59,0,0,0-.7-2.89C36.44,119.72,36,119.22,36.44,119.22Zm6.67.5a.65.65,0,0,1,.6.6.64.64,0,0,1-.6.59.64.64,0,0,1-.6-.59A.58.58,0,0,1,43.11,119.72Zm106.32,0a6.66,6.66,0,0,1,1.9.6c1.89.89,1.79,1.09-.7,2.89-1.79,1.39-2.29,1.49-2.29-.6-.1-1.9.1-2.89,1.09-2.89Zm-114,.5c.69,0,1.59,3.88.89,4.18-1,.5-4.18-.5-4.18-1.39a14.75,14.75,0,0,1,3.29-2.79Zm111.69-.2c.4,0,.5.3.5,1.59,0,.7.1,1.7.1,2.19.1,1,0,1.1-.79.6a7.08,7.08,0,0,0-2.69-.89c-.9-.1-1-.5-.7-1.1A5.42,5.42,0,0,1,147.14,120Zm-108.91.6c-.59,0-.49.29-.1,1.29.3.7.8.8,1.3.2.69-.8.6-1.2-.5-1.4-.2,0-.6-.09-.7-.09Zm108.12.89a1.23,1.23,0,0,0-.8.4c-.6.4-.79.7,0,1s1.2.4,1.1-.3c0-.4,0-1-.3-1.1ZM87,122v4.19h5.08V122Zm54.86.4a.6.6,0,1,1-.6.6A.65.65,0,0,1,141.87,122.41Zm-94.18.7,15.83,20.53-1.1,2.69L46.1,124.7Zm104.93-.1v2.69c-1.79,1.29-13.14,9.67-19.11,23.62l-3.09,1.3c4.48-12.06,13.74-22.33,22.2-27.61ZM31.86,124.1c1,.3,2,1,3,1.2s1.49.1,1.19.7a6.58,6.58,0,0,1-3.28,3.09c-1,.3-1.4.2-1.3-.4a11.16,11.16,0,0,0,.3-3.09c.2-.6-.3-1.4.1-1.5Zm-1.19.2c.69.6.49,4.19-.2,4.89-.4.4-1.5,0-3.19-.9-1.09-.6-1.29-1-.79-1.4,1-.49,3.68-2.69,4.18-2.59Zm113.39.1a8.22,8.22,0,0,1,1.29.2c2,.4,2.39.9.7,2.3a10.11,10.11,0,0,0-1.49,1.39c-.9,1.1-1.5.3-1.7-1.69-.1-1.6.1-2.4,1.2-2.2Zm-2.49.2c.3,0,.5.2.5.6a25.78,25.78,0,0,0,.59,3.39c.4,1,.1,1.3-.79.8a7.93,7.93,0,0,0-3.19-.5c-1,.1-1-.2-.69-1.1.59-1.49,2.68-3.19,3.58-3.19Zm-108.71.8c-.4,0-.4.5-.1,1.69.1.4.4.4,1-.1s.7-.79-.1-1.29a1.92,1.92,0,0,0-.79-.3Zm4.48.1a.6.6,0,0,1,0,1.2.65.65,0,0,1-.6-.6A.58.58,0,0,1,37.34,125.5Zm102.34,2.19a1.6,1.6,0,0,0,1.49.1c.3-.3.1-1.39-.1-1.59C140.57,126.1,139.38,127.29,139.68,127.69ZM44.51,130c.29,1.69,2.68,1.59,2.38-.2-.19-1-.19-1,.3-1,2.39.1,2,3.89-.79,3.59-.6.1-.7.3-.2.5a16.84,16.84,0,0,0,2.59.69c3,0,7.36,4.59,7.16,8.78-.1,2.69.8,4.58,1.8,4.88.69.2,1.79-.5,1.69-1.3-.1-1.09.79-.79,1.29,0,.8,1.1-.2,2.8-2.19,2.6-.79.19.6.69,1.69,1,1,.1.1,1.2,0,1.5-.49.6-2.29.1-3.68-1-1.69-1.39-2.39-3.19-2.59-6.88-.1-2.29-.3-2.79-1-1.89-1.2,2.19-4.08,1.1-4.48-1.2-.2-1.19.89-2.09,1.19-1,.9,2.29,3.09,1.69,2.79-.5-.2-1.5-1.69-2.3-4.58-3.09-3.48-1-4.58-2.2-5.28-5.09-.3-1.29-.3-2,.4-2.59.3-.3.8-.7.8-.7s.5,2,.7,2.9Zm91.68-1.9a.6.6,0,0,1,0,1.2.64.64,0,0,1-.59-.6A.57.57,0,0,1,136.19,128.09Zm-110.1.6c1,.4,1.89.9,3,1.3.7.19.5.79-.19,1.59a7.53,7.53,0,0,1-2.69,2V132c1.39-.5,2.19-1.6-.1-2Zm112.79.9a4.88,4.88,0,0,1,1.59.2c1.7.29,1.9.49.9,1.69a14.19,14.19,0,0,0-1.19,1.5c-1,1.39-1.5.89-2-.9C137.59,130.08,137.49,129.39,138.88,129.59Zm-107.52.69a.6.6,0,1,1-.59.6A.57.57,0,0,1,31.36,130.28Zm105.83,1.2c.2.6.4,1.3.6,1.89.89,2,.3,1.2-1.3,1.1-1.09-.1-2.79.1-3.28-.2-.2-.2,0-.9.3-1.59a5.84,5.84,0,0,1,2.09-2.3c1.69-.89,1.29.1,1.59,1.1ZM40,130.78l18.11,24.13-1.39,2L38.13,132.08Zm113.59.1a45.2,45.2,0,0,0-13.74,16.25l13.83-5.38Zm-18,.8c-.5.1-1.3,1.1-.9,1.49a1.88,1.88,0,0,0,1.29.1c.6-.19.2-1.59-.39-1.59ZM56.15,157.8l-3.88,4.88L32.16,136.46l5.08-3.68Zm96.47-25.52.1,9-11.85,5C145,139.55,148.74,135.37,152.62,132.28Zm-80.84.8,4.78,6.18-5.77-.1Zm59.93.49a.6.6,0,1,1-.59.6A.53.53,0,0,1,131.71,133.57Zm3.39,1.5c2.19,0,2.89.1,2.29,1.19a31.45,31.45,0,0,1-2.29,3c-.5.49-1.2-.6-1.79-2.4-.4-1.39-.2-1.79.59-1.79ZM132.61,137a18.94,18.94,0,0,0,.9,2.1c.29.59.69,1.19.69,1.29-.1.3-.3.3-.89.1-1.2-.6-4.18,0-4.18-.2-.4-.6.19-2.29,1.39-3.49a2.46,2.46,0,0,1,1.49-.89c.3-.1.4.39.6,1.09Zm-101.05-.4,20.51,26.82-1.39,1.69L30,137.76s-3.28,1.59-4.18,2.19l.1,13.86h-.6l.1,70.17,11.45-11.46L36.74,165A95,95,0,0,0,44,172h4.78c12.44-12.66,19.21-23.52,20.7-43.06,1-13.06-3.28-29.41-14.73-45.26L52,85.33l5.48,8.37L45.8,98.88c-4.68,9.87-10.15,18.94-20.21,24.13l-.1,12.76-.2.3.1,4Zm100.05.9c-.49,0-1.39,1.2-1,1.6a1.33,1.33,0,0,0,1.49-.2A1.05,1.05,0,0,0,131.61,137.46Zm-61,2.79h6L75,145.44l-5.88-.1Zm57-.1a.6.6,0,1,1-.6.6A.65.65,0,0,1,127.63,140.15Zm-30.56.2.8,6.78a45.15,45.15,0,0,0-19.82,14c-1.09-.1-9.45.1-9.45.1.2,0,7.76-14.46,8.66-20.74Zm-23.89.6-2.79,1.89,2.19,2.3,2.89-2Zm57.44.1a13.42,13.42,0,0,1,2,.2c1,.2,1.19.2.8,1.1-.5,1.09-1.5,3.19-1.8,3.28-.89.6-3-3.58-2.29-4.28.2-.3.6-.3,1.3-.3Zm-2.69,1.2c.3,0,.6.49.7,1a10.07,10.07,0,0,0,1.69,2.59c.7.8.7.9-.4,1a16.41,16.41,0,0,0-3.18.6c-1.1.4-1.3.3-1.1-1,.2-1.89,1.49-4.08,2.29-4.18Zm-1,4.08c.09.4,1.89-.3,2-.79,0-.2-.7-1.4-1.1-1.4-.7.1-1,1.69-.89,2.19ZM69,146l5.67.1-1.89,4.69H67.2Zm2.48.7-2.68,1.7,2.09,2.09,2.59-1.8Zm57.84.8c.5,0,1,0,1.1.2.3.5-.9,3.29-.9,3.29l-2,.8a14.61,14.61,0,0,1-1.39-2.8c-.1-.39.1-.59.6-.79a5.86,5.86,0,0,1,2.58-.7Zm-5.37.3a.65.65,0,0,1,.6.6.64.64,0,0,1-.6.59.64.64,0,0,1-.6-.59A.58.58,0,0,1,124,147.83Zm-25.89,0s1.2,7,1.3,6.18c-9.46,3.59-15,8.87-17.62,14.05H63.92l4-6.18,10.55-.1a43.17,43.17,0,0,1,19.61-13.95Zm-2.28,1.69-.9,2.79,2.69,1.7,1-3Zm29.06,0q.3,0,.9,1.2c.3.6.8,1.49.8,1.49l-.8.3c-.6-2.19-1.19-1.39-1.29.6l-1.1.4a8.68,8.68,0,0,1,.7-3c.4-.6.6-.9.79-1Zm-57.94,2,5.48.1-2.29,4.78-5.57-.2Zm24,.39-.4,3.59,3,.6.39-3.39Zm-21.61,0-2.68,1.8,1.79,2.39L71,154.31ZM86.72,155l-.6,3.29,2.79.6.59-3.29Zm-60.53.2,7,7,.39,48.55-7,7ZM64.12,157l5.57.2-2.19,4.08-1.89-.1,2.49-1.69-1.59-2.09-2.59,1.69,1.39,2.09-3.78-.09Zm35.94,1.19,1.89,6.28-2.29.4L98,159a18,18,0,0,1,2.1-.8Zm-17.92.4v3.79l3.08.3.1-3.59Zm15.13.6,1.69,6-1.39.4-2.09-5.68A12.74,12.74,0,0,1,97.27,159.19Zm-2.69,1.3,2.19,5.88A27.3,27.3,0,0,0,88.11,173a9.74,9.74,0,0,0-3.88-1.8,24.79,24.79,0,0,1,10.35-10.66ZM61,161.88l5.87.2-4.08,6.08H56.25Zm17.42.3-.4,3.59,3.09,1.89.5-3.68Zm-3.78.5-2.19,2.39,2.39,2.69L77.06,165Zm-5,.1L67,165.17,69.09,168l2.39-2.79ZM36,165.07l.3,47.35-9.75,9.47-.1-2.59,7.76-8.08c0-16,0-32.09-.1-48Zm25.79-1.59-2.69,3.69h3.18l2.29-3.59Zm-16.53,23c-1.09,3.79-6,8-6,7.88,2.39,3.49,2.29,8.47.2,10.86,0-.1,3.88,3.19,4.38,4.89a21.35,21.35,0,0,0,.79,2.19,5.92,5.92,0,0,0,.4.6C54.66,203.25,50.18,191.89,45.3,186.5Zm.2,1c9.16,11.46,3.09,21.93-.1,24.92l-.6-1c6.77-8,3.89-17.74,0-22.42Zm-1,2.19c.09.2.39.7.19.7l-.49-.1Zm-.1,1.3a.76.76,0,0,1,.49.2c.2.3-.79,3-1.39,2.29a4.67,4.67,0,0,1-.5-1c-.2-.39-.1-.59.4-1.09a1.28,1.28,0,0,1,1-.4Zm1.29.7c.5,0,1.09,1.49,1.19,2.59a3.37,3.37,0,0,1-2-.7A5.4,5.4,0,0,1,45.7,191.69Zm-3.58,1.19c2.78,5.59,2.58,10,.19,14l-1.89-1.6a11.4,11.4,0,0,0-.2-10.46Zm1.89,1.4a10.41,10.41,0,0,1,1.29.2c1.89.6,1.89,1.79.1,2.69-.7.4-1,.2-1.39-1.69-.2-.8-.3-1.2,0-1.2Zm3.58,2.19c.4,0,.5.7.6,1.9s-.2,1.19-1.1.39-1.09-1.09-.2-1.79a1,1,0,0,1,.7-.5Zm-2.49,1.8a3.22,3.22,0,0,1,1.2.69c1.29,1,1,1.6-.5,2.1-1,.3-.9.4-.9-1.4C44.9,198.86,44.8,198.27,45.1,198.27Zm16.73,1.59a2.25,2.25,0,0,0-1.7,3c.2.6.6.6.2.9-.49.5-.69,1.79-.2,2.19s.8-.3.1.9L48.59,228.37l69.78-.1L110,212.42s.7-2.59-.7-2.89a1.23,1.23,0,0,1-.79-.9,2.56,2.56,0,0,0-.8-2.09,47.46,47.46,0,0,1-17.12-.6c-6.87-1.59-11.75-4.28-14.93-5.08a34.6,34.6,0,0,0-13.84-1Zm3.68.1a41.89,41.89,0,0,1,15.73,3.49A60.34,60.34,0,0,0,95,207.34a54.66,54.66,0,0,0,11.45-.1,1.11,1.11,0,0,1,1.09.3c.8.89.2,1.39-1.69,1.59a45.49,45.49,0,0,1-10.35-.4,63.72,63.72,0,0,1-16-4.28c-6.17-2.3-11.85-3.09-16.23-2.4-2.49.4-2.79.4-2.79-.2.1-1.29,1.2-1.89,5.08-1.89Zm-17.62,3.79c-.2.5-1.89-1.3-1.89-1.8,0-.2,1.39-1.09,1.89-1.49.3-.2.2-.1.2.1A16.57,16.57,0,0,1,47.89,203.75Zm-2.59-1.3c.8.1,2.09,2.2.9,2.49-1,.3-1.89.5-2-.19.49-1.6.69-2.3,1.09-2.3Zm45.1,7.18a66.24,66.24,0,0,0,15.73,1c2.39-.2,3-.2,2.89.89,0,.6.1.6-3.09.6a61.57,61.57,0,0,1-7.47-.2,52.93,52.93,0,0,1-14.33-2.69c-4.88-1.29-9.06-3.69-13.84-4.19-4.38-.39-8.26.3-9.16.8-.3,0-.4-.4-.4-.8a1,1,0,0,1,.5-.89c12.44-3.29,19.11,3.59,29.17,5.48Zm-43.51-4.19c.4,0,.3.6-.39,2-.6,1.09-.8,1.09-1.1,0s-.3-1.4.4-1.5a1.6,1.6,0,0,1,1.09-.5ZM44,206c.5,0,1.19,2.19.79,2.69-.29.3-1.29.1-1.59-.3C42.71,207.74,43.31,206,44,206Zm21.9.6a34.17,34.17,0,0,1,5.67.5,14.44,14.44,0,0,0-3.08,1.39A18.58,18.58,0,0,0,65.91,206.64Zm2.49,2.69c6.87-3.89,9.75,1.5,10.75,2.29,6-1.29,7.17-.69,10.55,3,6-3,9-.4,11.45,1.2,3-2.79,6.67-2.89,8.66-1.5a7,7,0,0,1,.9,1.6c0,.2-.2,0-.9-.5-3.48-2.59-9.36.6-7.86,4,.4.9.4,1.29-.3,1.69a1,1,0,0,1-1.39-1.39c1-1.7.29-3.19-2.29-4.49-3.59-1.89-9.46.2-8.17,3,.8.9.1,1.5-1,1.5s-1.5-.8-.8-1.6c.9-1.09.7-2.09-.4-3.39-3.18-4.58-9.65-2.79-8.86,1.3.4,1-.7,1.39-1.79,1-.7-.3-.6-1.4.2-1.8.89-.1,1-1.39.89-2.19-.19-1.2-1.89-2.39-3.68-3.09a7.29,7.29,0,0,0-3.38-.5A2.88,2.88,0,0,0,68.2,213c.2,1.19-.1,2.39-1.49,1.79-.8-.4-.6-1.19.19-2,2.69-2.69-2.78-6-6.07-3.69a1.77,1.77,0,0,1-1,.5c2.09-5.38,8.66-.5,8.56-.3Zm9.06-.7,4.18,1.6a21.64,21.64,0,0,0-2.29.7Zm-10.85,1.7c-3.79-.7-4.09,3.59-1.5,4.28-3.38,4.79,5.58,6.58,3.89.7,4.57.8,3.68-4.38.29-4.38.8-2,7.07-.5,6.77,1-4.18.5-2.49,4.29-.69,4.29-4.38,4.19,4.38,8.07,4.18,1.79,3.58.8,4-4,.6-4.28,1.29-1.8,5.67-.7,7,1.39-3.48.5-3.28,3.59-.49,4.09-3.49,4.48,5.07,6.18,4.18.9,3.08,1.09,4.78-3.09.79-4.29,4.09-2.49,8.57,1.2,8.07,1.3-4.68-.3-3.79,4.38-.4,4.18-2.19,4.89,6.37,5.19,4.18.1,3.78.1,3.49-4.38-.2-4.68,2.29-1.7,4.88-1.9,6.57-.3-3.48.9-2,5,1.5,3.89.29,3.38,3.08,2.69,3.18,2.59l2.49,4.68-66.9.1L55.75,217a2.67,2.67,0,0,0,3.09-3.19c2.29,1.59,4.68-2.4,1.39-3.59,2.69-2.69,6.67-.1,6.38.1ZM44.8,210c-.1.1-.2.2-.39,0C43.81,209.33,45.4,209.33,44.8,210Zm13.84,1.79c.3.2.1.9-.1,1.1-.6.7-.79.6-.3-.5.2-.3.3-.6.4-.6Zm29.37.3,3.48.8-1.69.9C89.2,213.22,88.61,212.62,88,212.12Zm10.85,1.4,3.78.2a8.48,8.48,0,0,0-1.59,1.29A13.82,13.82,0,0,0,98.86,213.52Zm12.64,3.88a18.14,18.14,0,0,1,1,2C111.21,219.6,110.91,217.8,111.5,217.4Z"/><path id="path12536" class="cls-4" d="M48.29,64.89C44.21,58,39.83,51.44,34.35,45.76c5.48-5.69,9.76-12.27,13.94-19.14,4.08,6.87,8.46,13.45,13.94,19.14C56.75,51.34,52.37,58,48.29,64.89Z"/><path id="path12538" class="cls-4" d="M14.44,56.32a41.56,41.56,0,0,0-5.77-8,41.94,41.94,0,0,0,5.77-8,41.94,41.94,0,0,0,5.77,8A47.86,47.86,0,0,0,14.44,56.32Z"/><path id="path12540" class="cls-4" d="M130.42,184.81c-4.08,6.88-8.46,13.46-13.94,19.14,5.48,5.68,9.76,12.26,13.94,19.14,4.08-6.88,8.46-13.46,13.94-19.14C138.88,198.27,134.5,191.69,130.42,184.81Z"/><path id="path12542" class="cls-4" d="M164.17,193.38a42,42,0,0,1-5.78,8,41.61,41.61,0,0,1,5.78,8,41.56,41.56,0,0,1,5.77-8A51.13,51.13,0,0,1,164.17,193.38Z"/><path id="path12544" class="cls-4" d="M15.14,35h2.68l-3.88-9.67-3,4.09V35h2.09v2.89H5.68V35H8.07V14.06H5.68v-2.5h7.47v2.6H11.06V24.32l6.47-10.26H15.24v-2.5h8v2.5H21.11l-5.38,8.37L21,34.89H23.3v2.89H15.14V35Z"/><path id="path12546" class="cls-4" d="M163.57,214.71h-2.69l3.89,9.67,3-4.08v-5.59h-2.09v-2.89H173v2.89h-2.39v20.94H173v2.49h-7.47v-2.59h2.09V225.38l-6.47,10.27h2.29v2.49h-8v-2.49h2.09l5.37-8.38-5.27-12.46h-2.29v-2.89h8.16v2.79Z"/></g></g></g></svg>