<svg xmlns="http://www.w3.org/2000/svg" viewBox="0 0 178.8 249.6"><defs><style>.cls-1{fill:#fff;stroke:#000;stroke-width:1px;}.cls-2{fill:#d40000;}.cls-3{fill:#e2cf00;}.cls-4{fill:#131f67;}</style></defs><title>Kh</title><g id="Layer_2" data-name="Layer 2"><g id="svg11376"><g id="Kh"><path id="rect6355-6-85-90-3-5" class="cls-1" d="M9,.5H169.8A8.49,8.49,0,0,1,178.3,9V240.6a8.49,8.49,0,0,1-8.5,8.5H9a8.49,8.49,0,0,1-8.5-8.5V9A8.49,8.49,0,0,1,9,.5Z"/><path id="path163-0-2-7-7-1-8-7-00-1-2" class="cls-2" d="M14.2,56.3s-1.8-2.5-4.2-5.5c-1.6-2-2.9-4.2-3-6-.1-2.1,1.2-4.3,3.5-4.4s3.3,1.6,3.7,3.1c.4-1.4,1.3-3.2,3.7-3.1s3.6,2.2,3.5,4.4c-.1,1.9-1.4,4-3,6C16,53.7,14.2,56.3,14.2,56.3Z"/><path id="path163-0-2-7-7-1-8-1-9-4-6-8" class="cls-2" d="M164.5,193.3s-1.8,2.5-4.2,5.5c-1.6,2-2.9,4.2-3,6-.1,2.1,1.2,4.3,3.5,4.4s3.3-1.6,3.7-3.1c.4,1.4,1.3,3.2,3.7,3.1s3.6-2.2,3.5-4.4c-.1-1.9-1.4-4-3-6-2.4-2.9-4.2-5.5-4.2-5.5Z"/><path id="path39-51-8-0-0" class="cls-2" d="M16.1,35.9h2.6l-3.9-9.7-3,4.1v5.6h2.1v2.9H6.6V35.9H9V15H6.6V12.5h7.5v2.6H12V25.3L18.5,15H16.2V12.5h7.9V15H22l-5.4,8.4,5.2,12.5h2.3v2.9H15.9l.2-2.9Z"/><path id="path39-3-9-6-0-8" class="cls-2" d="M163.9,214.7h-2.6l3.9,9.7,3-4.1v-5.6h-2.1v-2.9h7.3v2.9H171v20.9h2.4v2.5h-7.5v-2.6H168V225.3l-6.5,10.3h2.3v2.5h-7.9v-2.5H158l5.4-8.4-5.2-12.5h-2.3v-2.9h8.2l-.2,2.9Z"/><path id="path3876-2-1-7" class="cls-3" d="M65,211.4a227.67,227.67,0,0,0,43,.9c3.8,5.3,11.4,16.1,11.4,16.1l-69.3.6Zm-18,3.7c1.9-3.8,2.2-7.4,1.9-12.7-.3-4,2.2-7.2,4.8-6,2,.9,1.1,4.7-1,3.9-.8-.3-1.5,0-1.4,1.8.2,4.5,1.4,9.5.3,13.8C51,220.1,45.3,218.2,47,215.1Zm-17.4-5.8a3.33,3.33,0,0,1,4.2-4.9c1.2.5,1,1.7-.5,1.1-2-.9-4.3,2.3-2.5,3.5.8.6,1.1.5.5-.2-1.7-1.9,2.6-2.8,2.5-1.5a11.85,11.85,0,0,1-.5,2.5c-.8,1.4-2.4.7-3.7-.5Zm6.1-14a3.54,3.54,0,0,1,.3-5.2c.7-.8-5.6-12.7-4.8-12.8,8-.9,16.1-.2,24.1,0,0,0-4.3,7.8-6,11.6-.7,1.5.9,3.4.3,4.5-2.1,2.3-.8,4.8-2.1,4.9a25.85,25.85,0,0,0-11.1,0c-.3,0-.2-1.9-.7-3Zm34.6-82.7c4,20.8-1.9,42.8-15.6,57.3-1.9-1.9-3.4-5.4-5.3-7.7-5.3-1.6-9.2.3-12.9,2.2a20.88,20.88,0,0,0-10.7-3l-.1-3.2c3.7-.1,7.6.3,10.9,2.3l5.1-2.1L25.6,141.6l.2-2.9,19.5,19.8,2.5.1c-5.5-14.8-.6-38.3,22.5-46Zm27.2,26.1,2.8,13.6s-15.8,15.8-24.1,23.9l-6.9-.6c3.5-5.2,5.4-10.5,7.7-15.7Zm56,18.6c-6.6,7.5-14.5,12.2-23.3,17.5-3.5-4-7.8-8.3-10.2-12.2,7.7-4.1,15-7.3,22.5-14.6-.4.5-9.6,3.6-9.5,3.2-.3,1.5-.1,2.5-1.6,2.9-1.8-2.5-3.5-4.5-6.2-5.6a6,6,0,0,1-2.7-.7c.8-.2.4-9.7,0-9.8.9-.3,1.7-.9,2.9.4.5.4,5.8-5,7.6-6.8,7.1-.6,13.3.1,20.2-.1-.2,8.5.3,17.3.3,25.8Zm-44.8-21.5c-.2-.4-2-14.4-.3-23.2,4.6-14.8,3.5-19,15.5-33.6.8-.8,3.5,1.7,5.6,6.1,6,3.8,13.7-1.1,13.7-1.1s3,2.5,9.7,3.8l-.1,2.6c0,.8-7.6-.8-9.2-2.4,0,0-5.7,1.9-5.7,2.2,0,1.5,15.1,15.5,15.1,15.5l-.1,3.3c.1,0-20.6-21.7-20.9-19.4,5.9,25.5-4.1,38.4-23.3,46.2Zm-24.9-4.5-.3-13.5,12.7.2.5,13.6ZM25.7,116.7c.3-.5-.5-25.1-.4-25.1,8.1-8.1,16-12.7,23.9-17.6,3.6,3.6,6.6,6.6,9.3,11L47.6,91.8c.4,1.7-.7,2.3,6.4,8.7.1-.4,2.4-1.8,2.8.2-1,4.1.4,7.7.6,9.9-1,1.3-3.1-.1-3.1-.1-1.4-1.5-6.8,5.8-8.4,6.6-6.9-.3-20.6.1-20.2-.4Zm76.4-43.9c0,.1,7,0,6.9.2-1.3,3.1-4.1,9.4-7,16.2-2.4,4-19.7,20.7-19.7,20.7A141,141,0,0,0,79,95.6ZM132,49.6c2.5,1.1,9.5.5,10.6,0,1.4,1,.5,2.3.4,3,1.5,1.9,2.3,2.5.6,5.6-.4,0,5.1,12.5,5.3,12.5,0,0-5.8-2.8-7.9-4.7l-4,5.4-4.7-6.1c0,.5-9,6.6-9.1,6.3-.3-.3,8.2-9.5,6.5-14.9-.4-1.3.5-2.6,1.2-3.8.5-.7-.1-2.3,1.1-3.3Zm-4.6-1.1c.4-.4-2.2-11.8.6-16.3,1.2-1.7,3.3-1.7,4.2-.4.7,1.9-1.3,4.5-1.7,5.8-1.3,3.6.6,8.3-.3,11.7-2.9,7.3-8-.8-2.8-.8Zm18.9-5.1c-1.5.1-.5-4.5-.2-5.8,0-.3,2.7-.9,3.7.9,1.7,2.7-.2,6.1-3.5,4.9ZM128.5,20.6,114.4,38c-14.3-1.7-28.6-2.7-43.2-.5L59.4,20.9Z"/><path id="path3874-3-1-4" class="cls-4" d="M154.7,19.5H24.1V230H154.7Zm-26.4,1.1L112.6,40.1l-.4.1a75.94,75.94,0,0,0,4,9.9c2.3,4.7,8,13.4,4.4,20.4-.3.6-.7.9-1.1.9-.6,0-.6-.4-.2-1.1a15.17,15.17,0,0,0,1-7.1,28.88,28.88,0,0,0-2.2-6c-5.9-11.1-7.8-17-7.5-17-.1-.1-.2-.1-.4-.2l-.6-.2c2.1,7,5.4,12.9,8.1,18.4,2.2,5.1,2.4,7,1.3,10.7-.4,1.4-1.2,2.3-2,2.3-.6,0-.6-.1-.2-.8,2.1-3.8,1.6-7.9-1-12.7-3.8-7.9-6-12.9-7.4-18a9.2,9.2,0,0,1-.9-.3c1.1,5.3,4.2,11.4,7.1,17.7,2.4,4.8,3.1,8.3,2.2,11.1-.3,1.2-1.2,3-2.3,3-.4,0-.5-.2-.1-.9,1.8-3.1,2.1-5.9-1.1-12.4-2.9-6-5.9-12.6-6.9-18.4-.1-.5-1.3-1-1.1-.3,1.6,6.9,4.7,13.9,8,20.8,1.9,4.3,2.1,7,.7,9.4-.8,1.3-1,1.6-1.6,1.6s-.7,0-.3-.8c1.7-3.6,1.4-6.7-.8-11.9-3.1-7.1-5.7-13-6.8-19.2-.2-.1-1.3-.5-1.1-.2A102.29,102.29,0,0,0,109.5,56a58.32,58.32,0,0,1,2.8,7.6c.9,3.6-1.1,8.5-3.7,8.8-1,.1-.9-.4.2-1.4,1.9-1.8,2.2-4.6,1.6-7.8a44.09,44.09,0,0,0-2.4-7.9c-2.3-5.5-4.8-11.3-5.6-16.4,0-.5-1-.5-.7,0a59.55,59.55,0,0,0,3.4,11.5c1.6,4.2,4,8.8,4.8,13.9.6,4.2-1.9,8.1-5.1,8.3-3.8.3-4.5-3.5-3.6-5.3,1.5-2.6,5.8-1.1,4.5,1.6a1.5,1.5,0,0,1-2.9-.6,2,2,0,0,1,.2-.6c-.1,0-.4.3-.5.4-.8,1.4,1.5,3.2,3.1,2.1,5.3-2.9,1.7-11.8-.6-17.3-2.2-5.1-3.9-9.6-4.6-14.3-.2-.1-1.1-.4-1-.2.6,2.5.9,4.6,1.6,6.7,1,3.3,2.8,7,4.3,10.7,1.3,3.6,2.7,6.7,2.1,10.5a2.32,2.32,0,0,1-.4,1c-.2.3-.4.2-.5-.8,0-.1-.2-.3-.2-.5a14.89,14.89,0,0,0-.3-4.2,19.31,19.31,0,0,0-2.2-4.5c-.5-.8-1.8-3.3-1.3-1.6a22.15,22.15,0,0,0,2.1,4.7,9,9,0,0,1,1,4.1.58.58,0,0,1-.8.4c-.2-.2-.2-.9-.2-1.3a13.86,13.86,0,0,0-3.3-6.2c-.9-1,2.1,4.4,2.4,5.8.1.6.3,1.1.1,1.4s-.4.2-.7.1-.2-.2-.5-1.2a9.23,9.23,0,0,0-2.2-3.8c-.4-.5-.7.1,0,.9a8.84,8.84,0,0,1,1.8,4.2c-.6.8-.9.7-2.1-1.5-.8-1.4-1.3-1.8-1.5-1.8-.5,0,0,.7,1.5,3.1.8,1.3.8,2.1-.1,2.1A9.43,9.43,0,0,1,97.6,64c-.4-.7-.8-1.2-.8-.4a9.09,9.09,0,0,0,1.8,2.9c1.1,1.3,1.5,1.6,1.6,2.2.1.3.2.8.3,1.1.3,1,.1,1.2-.4.7-.3-.7-.5-.8-1.2-1.3a10.44,10.44,0,0,1-2-2.5c-.2-.3-.4-.7-.6-1-.5-1-1.3-1.1-.7-.1a13,13,0,0,0,1.1,1.9c.7,1,.6,1.6-.3,1.6-.4,0-1.4-1.3-2-2.4-.4-.7-1.1-1.2-1-.5a6.15,6.15,0,0,0,1.3,2.3c.8,1,.9,1.6.1,1.6-.5,0-1-.5-1.7-1.6s-1.1-1.4-1.2-1.2.9,2.1,1.9,3.2.2,1.6-.8.7a10.52,10.52,0,0,1-2-2.7c-.6-1.3-.9-.9-.6.1a8.72,8.72,0,0,0,1.8,3.1c.4.4,1.2.7,1.6,1.1,1.1,1,1.9,1.9,1.8,2.1-3.2.2-5.9-3.3-6.6-5.4-.5-1.4-1.1-1.6-.5.4,1.6,4.9,6.5,7.4,9.9,5.2,2.1-1.3.2-4.8-1.4-3.6-.5.3-.5,1.2.1.7,1.1-.9,2.2,1.3,1,1.9-1.7.9-3.5-.8-2.4-2.9s5.6-.9,4.7,2.5a6,6,0,0,1-4.9,3.5c-3.7.1-6.3-2.8-7.7-5.7-.2-.4-.5-1.1-.8-1.7s-.4-.9-.4-.9c.4,3.5,3.7,7.8,6.6,8.5,4.9,1.2,6.2-1.8,9.4-4.8,0,0,2.3.3,2.4.3a37,37,0,0,1,4.7-.2,106.36,106.36,0,0,0-1.1,98.7c1,2.1,1.2,1.7-.5,1.3s-3.2.2-4.6-.1c-2.8-.6-3.5,1.4-5.6,2.4-2.7,1-2.1,3-2.8,4.8-.2.3-.4.5-.2.5s.8-.6.8-1.1a4.51,4.51,0,0,1,1-2.7c.5-.5.8-.7.9-.5a2,2,0,0,1-.2,1.2c-.7,1.3.2,5.5.3,2.5a7.54,7.54,0,0,1,3.5-6.2c1.6-.8,2.1-.7.8.5a8.9,8.9,0,0,0-2.6,5.8c0,1,.4,1.8.5.9-.1-4.4,4.3-9.3,9-6.9a1.27,1.27,0,0,1,.4.7c-4.5-.8-8.5,1.7-7.9,7.7a19.63,19.63,0,0,0,.6-2.3c.7-3.6,4.8-5.2,7.6-4.2.5.2,1,1,.9,1.1-3.5-1.1-7.3,2.2-7.5,5.8-.1,1.2,0,2.2.5.1,2.3-8,9.2-4.4,8.3-3.7-5.4-.6-7.3,3-7.2,7.2.1.4.3.5.4.9a14.35,14.35,0,0,1,1.1,5.9c-.1.7.6,5.5-.1,5.3-2-.7-3.4-1.6-6.8-.1-.3,0-.4-.2-.3-.4a7.94,7.94,0,0,1,1.6-2.1c2.1-2.2.9-1.6-.8-.1-1.1,1-.9.3.2-3.1.4-1.4.2-1.6-1.7-2.5s-3.2-1.1-1.6-.1a12.81,12.81,0,0,0,2,1.1c.8.5.7.6.1,2.7-1.2,3.9-1.6,5.3-1.5,7.9.2,6.4,6.1,5.7,9.6,4.3l.1,4.2,12.9,18.3s-44.9,0-69,.4c1.4-3.3,15.9-17.5,16.8-20,.1,0-1.6-5.2-2.5-7.4-4.2-10.6-9.7-15.1-6.5-22.1.7-1.4.8-1.9,1.3-1.8.7,0,.9.5.1,1.8-3.4,5.8,3.9,15.9,6.4,22.3a51.64,51.64,0,0,1,2.3,7.5c0,.5,1.2.7.9.1-.9-3.3-2.1-6.9-2.6-8.1-2-4.7-4-8-5.9-12.6-1.1-2.9-1.6-6.3,0-9.3.6-1.1.8-1.7,1.2-1.8a.55.55,0,0,1,.6.4,4.59,4.59,0,0,1-.6,1.6c-2.9,5,2.2,13,4.8,18.7a47.37,47.37,0,0,1,3.7,11.2.64.64,0,0,0,1,.5c-1.1-6.6-4.3-13-7.2-19.2-2.4-4.8-3.3-9-.1-13,.3-.3.9-.2.9.2a6.31,6.31,0,0,1-.7,1.9c-2.8,6,1.6,10.9,3.6,16.7,2,4.8,3.9,8.8,4.6,14,.6.2.9.5.9-.2-1.5-7.2-4.7-13.7-7.4-20-1.3-2.7-1.7-4-1.8-5.8-.1-2.5,1.1-5.7,2.2-6.5.3-.2.5-.3.7-.1.4.2.3.3-.4,1.7a9.81,9.81,0,0,0-.2,8.7c2.2,4.8,4,8.7,5.4,12.2a47.77,47.77,0,0,1,2.6,10.2s1,.4.8-.2a54.56,54.56,0,0,0-3.5-12.3c-1.4-3.5-3.2-6.9-4.6-10.3a9,9,0,0,1,3.2-11h1.6c-.1,0-3.7,1.4-3.9,6.7-.2,5,2.2,8.1,3.8,12.3,2.1,5.1,3.9,9.6,4.3,15,.2.2,1.1.2,1,.2a49.52,49.52,0,0,0-3-11.4c-1.6-4.6-3.2-6.6-4.7-11.4-1-3.2-.9-7.6,1.4-9.6,3.4-3.4,8.1-1,6.9,2.9-.9,2.8-4.7,2.2-4.6-.4a1.46,1.46,0,0,1,2.7-.9,3.93,3.93,0,0,1,.3,1.4c.1,0,.3-.8.3-1a2.26,2.26,0,0,0-3.2-1.8c-1.9,1-3.1,3.2-3,6.1.1,3.1.7,5.2,3.2,10.1,3,5.7,3.9,11.9,4.6,16.1a1.58,1.58,0,0,1,.7,0,47.66,47.66,0,0,0-4.6-16.4c-2.8-5.9-3.6-9.5-2.6-12.1.1-.4.3-.7.4-.7.3,0,.4.5.7,1.5a2.55,2.55,0,0,1-.1,1.2c-.2,2.4,1.4,7.4,3,9.7.5.6,1,.6.5-.5a19,19,0,0,1-2.7-9.1c0-1,1.2-.6,1.2-.1a12.27,12.27,0,0,0,1.1,5.1c1.6,2.8,2.5,2.9.9-.2-.4-.7-1.4-3.8-1-4.9.2-.2.5-.3.7,0a11.89,11.89,0,0,0,2.3,4.8c.6.7.7.4.4-.5-.5-1-2.2-4.4-1.4-5.1.2-.2.1-.1.8,1a12.24,12.24,0,0,0,1.9,2.6c.6.6.7.2.1-.9-1.2-2.1-2-3.8-1.5-4.3s.5-.2,1.5,1.5a13.49,13.49,0,0,0,1.3,2.1c.2.3.4.3.4.1a8.32,8.32,0,0,0-2.7-4.8,12.13,12.13,0,0,1-.1-1.8c2.6,1.4,2.7,2.9,4.4,5.2.2.2.4,0,.4-.4a21,21,0,0,0-1.7-3.3c-.5-.7-.5-1.1-.1-1.3.7-.3,1.7.7,2.7,2.6.5.9,1.1,1.4,1.1.9a10.68,10.68,0,0,0-1.5-3.1c-1-1.1-.5-1.8.7-.8a5.09,5.09,0,0,1,2,2.4c.4,1,.8,1.1.8.3a6.21,6.21,0,0,0-2.4-3.5c-.7-.4-1.2-.9-1-1.3.6-1,3.3,1.5,4.2,3.8.3.7.7,1,.8.7s-.3-1.8-.9-2.6c-.9-1.7-3-3.4-4.3-3.2-.2,0-.9-1.4-.9-1.4,3.2-.5,6.3,3.4,6.9,4.8,1.1,2.8,1.6,2.4.7,0-1.8-4.7-7.4-7.4-10.5-5.1-1.8,1.3-.7,4.4,1.1,3.9.7-.3,1.4-1,.2-.8a1.28,1.28,0,0,1-.4-2.5c2.3-.7,2.9,3,1,3.9a2.55,2.55,0,0,1-3.7-2.6c.3-4.1,5.3-5.3,10.2-2,1.4.9,3.1,3.9,3.6,5.9.2.6.8.9.9.8s-1.4-3.6-1.9-4.4c-2.1-4.9-9.8-5.2-9.8-4.9a28,28,0,0,0-5.7,5.1l-6.9-.6c17.5-28.4,18.9-70.3.9-99.9.2.2,3.5,1,4.6.1a2,2,0,0,1,2-.2c1,.4,2.1,0,3.2-1,.8-.8.9-1,1.4-.9,1.6.2,2.7-.7,3-3.1.1-.9.2-1.9.1-1.7a6.2,6.2,0,0,0-.4,1.4c-.3,1.4-.6,1.9-1.1,2.3-.9.7-1.4.3-1-.8a5.62,5.62,0,0,0,.2-3.4c-.1-.2-.1.4-.2.9-.9,3.6-1.9,5.5-3.7,5.9-.8.2-1.2.1-.9-.4,3-3.3,2.8-6.9,2.6-6.6-.6,2.1-1.8,5.2-3.8,6.5a5.65,5.65,0,0,1-5.6.3c-.8-.5.4-.7,2.2-.7,3,0,5.8-4.1,5.3-7.5-.1-.6-.3,0-.5,1.1-1.1,3.7-3,6.3-7.3,5.5a2.15,2.15,0,0,1-.7-.4c-.7-.5-.4-.8,1-.6,3.1.4,5.9-2.6,5.8-6.1,0-1.7-.3-1.7-.5-.4-.4,1.8-1.8,7.3-6.8,5.5-.9-.5-1.4-1.1-1.1-1.2,3,.6,5.7-.1,6.7-4a8.28,8.28,0,0,0-.1-4.7c-.1-.9-.5-1.7-.6-2.6a54.55,54.55,0,0,1-.6-8.2c.2-.2.3-.2,1.1.4,1.7,1.1,2.9.9,4.6.2,2.2-.8,2-.7-.3,2a5.44,5.44,0,0,0-1,1.3c-.6,1.1.5.3,1.3-.7,1.1-1.4,1.4-1.8,1.6-1.8a17.1,17.1,0,0,1-.8,4.7c-.4,1.4-.4,1.7.5,2.1.4.2,1.1.5,1.5.7,1.9.9,1.7.2.2-.7-2-1.1-2-1.1-1.5-3a48.87,48.87,0,0,0,1.4-6.4c.9-5.5-3.2-8.5-8.6-6.6-.3.2-.7-2.9-.6-3.7,0-.3-.8-.2-1.5-1.1.2-.2-8-10.6-11.8-16.9,23.4-.3,46.9-.8,68.4-.8ZM110.7,40.2Zm18.6-19.1h23.6V71.4l-2.3.1a94.54,94.54,0,0,1-4.9-9.8c-.3-.8-.7-1.9-.9-2.3-.4-1-.7-1.1-.1-1.7a4.06,4.06,0,0,0-.2-4.7c-.3-.4-.5-.2-.5-1.2a4.25,4.25,0,0,0-.1-1.7c-.3-.7-.6-.7-.1-1.5a14,14,0,0,0,1.5-3c.5-1.6.1-1.9,1.2-1.5a3.53,3.53,0,0,0,4.7-3.7,3.73,3.73,0,0,0-4.5-3.6c-.6.1-.7.1-1.5-.4a2.84,2.84,0,0,0-.9-.6c-.4-.2-.7-.1-.9-.4a3,3,0,0,0-2.5-1.4,5,5,0,0,1-2-.4c-.4-.2-1.6,0-3.1-.3a4.87,4.87,0,0,0-1.5.2c-.9,0-.6-.1-.7-.8-1.2-3.7-4.6-3.3-6.1-.5a12.78,12.78,0,0,0-1.2,4.4l-9.2-.1Zm-71.2.1c3.4,4.4,6.7,9.4,10.2,13.9,4.3,5.5,4.4,6.1,3.3,11.6-.6,3.1-.9,3.8-2.2,3.6a2.15,2.15,0,0,0-2.4,2c-.3,2.3,1.9,3.7,4.1,2.6,1.2-.6,1.2-.7.8,1.3-.6,2.9-1.7,5.3-2.4,5.3-1.8-4-6.3-1.1-4.8,3-.5.7.1,1.6.4,2.4a12.1,12.1,0,0,1-2.6.9C49.9,71.6,34.5,81.4,26,90.7V21.5Zm72.3,9.5a3,3,0,0,1,1.5.5c1.1,1,.8,2.4-.7,5-1.6,3.7-1.2,6.5-.8,10.4a7.54,7.54,0,0,1-1.9,5.3,2.11,2.11,0,0,1-3.3-2.5c.5-1,1.6-.4,1.9-1.4.4-3.5-.5-7.1-.6-10.5a12.19,12.19,0,0,1,1.2-4.9,3.34,3.34,0,0,1,2.7-1.9Zm3.1,5.9c-.4.4-1.2.4-1.2-.1a6.39,6.39,0,0,1,.6-2.2C134.4,34,133.9,36.2,133.5,36.6Zm2.3-2.4c1.3-.1,2.2,3.3,1,5.3a9.72,9.72,0,0,0-1.8.1,12.77,12.77,0,0,1,.2-1.7,2.9,2.9,0,0,0,0-1.6c-.4-1.6-.7-1.9.6-2.1Zm2.5.1h.2c1.3,0,2.1,2.6,1.7,5.4a4.12,4.12,0,0,1-.2.9,4.81,4.81,0,0,0-2.1.4,3.45,3.45,0,0,1,.1-1.7,5,5,0,0,0,0-3.6c-.4-1.2-.4-1.4.3-1.4Zm3.3.7c1.5.2,1.5,4.3,1,5.6-.1.2-.7.1-.9.2-1.2.4-1,.5-.8-1.4a14.19,14.19,0,0,0-.1-3.6c-.1-.5-.1-.8.2-.9a1.27,1.27,0,0,0,.6.1Zm-7.2,1.6c.6.8.1,2.7-.3,3.3-.5.8-.7.8-.4,1.2.1.1.4.9.2,1.2-.3.6.4.7,1.1,1,1,.6,1.6,1.6,2.3,3.4.3.6.8.4.6-.3s-.3-1.5-.5-2.1,0-.9.7-.7c1,.3.9,0,1.3-.1.8-.5,1.4.2.9.6a7.65,7.65,0,0,1-1.6.5c-.6.2-.4.7.1.7a18.17,18.17,0,0,0,3.1-.7c2.9-.9,3-1.3,2.7.3-.4,2.2-1.5,3.8-3.5,4.4a16.86,16.86,0,0,1-7.4-.2c-1.7-.8-1.8-1.3-2.3-2.8-.7-2-1.1-5.4-.3-7.4.7-1.7.6-1.5,1.3-1.4a1.45,1.45,0,0,0,1.6-.4.7.7,0,0,1,.4-.5Zm11,1.2a4.19,4.19,0,0,1-.1,2.5c-.2.3-1.2.3-1.6.3a9.59,9.59,0,0,1,0-3.4c.6-.8,1.3-.1,1.7.6Zm-29.2-.5H119V38h-3.4Zm10,.1v.9h-4.3V44h4.8v1.2h-6.4V37.4Zm21.7-.2c4.4,1,2.4,5.9.8,6.2-2.1.4-3.8.1-3.2-1.7.6-1.2.2-2.8.3-3.9A3.07,3.07,0,0,1,147.9,37.2ZM114.8,39H119v.9h-4.8Zm9.4.8a1.22,1.22,0,0,1,1.2,1.2,1.16,1.16,0,0,1-1.2,1.2A1.22,1.22,0,0,1,123,41,1.29,1.29,0,0,1,124.2,39.8Zm11.9.5c.8.1.9,1.3.5,1.7a.89.89,0,0,1-1.4-.4A1.08,1.08,0,0,1,136.1,40.3Zm-22.4.5h5.4v.8h-5.5l-.1-.5Zm30.4.4c.7,0,1.2.6.7,1.2C144.1,43.1,142.7,41.9,144.1,41.2ZM86.5,42.8c-1.2,1-.2,2.1,1.4,1.1,3.5-2.1,8.6-.4,11.9,1.3.7.3.7-.5.1-1-3.1-2.7-9.7-4.3-13.4-1.4Zm52.4-1.4c.8,0,.8,1.1.3,1.5-.5.2-.6.2-1,0s-.2-1.5.7-1.5Zm3,0c1,.1.9,2.1-.6,1.4A.78.78,0,0,1,141.9,41.4Zm-28,1.1h5.3v.9l-4.9-.1ZM80,44.5c1.4,1.2,1,1.2-1.4.4a6.79,6.79,0,0,0-4.1.3c-1.2.5-1.4.3-.9-.5,1.3-1.5,5-1.2,6.4-.2Zm6.9,1.9c-.1.4-.6-.3-1.3-.2-1,.2-.7.2.3,1.4s1.3,1.4,1.3,1.9c-.1.7.1,1,.7.9.3,0,.7.3,1.2.8a15.54,15.54,0,0,0,3,2.5c2.2,1,1.2-.1-.2-1.1-2.3-1.6-3.1-2.7-1.5-2.1a7.93,7.93,0,0,0,5.9-.6c.7-.4,1.1-1,2.1-.7,1.3.4,1.8-.4,1.5-.8-.6-.4-2-.9-3.3-1.8-2.8-1.4-5.8-1.4-7.7-.2-1.2.7-1.6.2-.4-.5,4.6-2.5,8.2-.1,11.1,1.7.5.3.9.3.9.1-.1-.7-1.4-1.2-1.9-1.5-4.3-2.5-8.5-3.3-11.7.2Zm27.7-2.2h4.6v.9H115ZM77.5,45.4c1.3,0,4,1.1,4,2.1-.1.4-.7,0-1.3-.3a7,7,0,0,0-4.6-.6c-1.3.2-1.7.5-1.9.3C73.2,45.8,76.3,45.4,77.5,45.4Zm49.3.7v1.6c-2.5.2-3,3-1.4,4.5,1.3,1.3,3.5.8,4.5-1,.2-.3.2-.5.3-.4s.1.4.2.7c.2.9-.1,1.1-.6,1.8a3.81,3.81,0,0,0-.5,3.8c.2.3.5.7.4.9.3,0-2.8,8.9-7.4,13.4-.8.5-1.3-.1-.9-.9,3.7-8.6-3.4-16.7-6.2-24.4ZM93.7,47.6l.7.1c-.5,4-4.3,3.3-4.5.1h.5c.8,2.9,3.3,1.7,3.3-.2Zm-21.5,0a1.54,1.54,0,0,1,.3.7V51c-.2,3.8-5,4.5-4.6,1.3a1.24,1.24,0,0,1,2.4-.3c.6,1.6.7-.4.7-1a17,17,0,0,0,1.2-3.4Zm23.1.3a1.46,1.46,0,0,1,.8.5c.3.3.2.5-.5.9s-1.2.4-.9-.5C94.9,48.3,95,47.9,95.3,47.9Zm35.8.2c.1,0,.4.1.3.6-.1.7-.7,1.1-.9.9C130.7,49.2,130.8,48.3,131.1,48.1ZM89.6,49.5c-.1.3-.3.2-.7-.2s-.4-.7,0-.9c.7-.5.7.8.7,1.1ZM75.1,48.4c.8,2.6,2.4,2.2,3.2.1H79c-.2,3.3-4.3,3.2-4.3.1Zm-1.5.3c.2,0,.1.8.1.8s-.7-.4-.3-.7A.35.35,0,0,0,73.6,48.7Zm6.1.3c.1,0,.2.1.4.2.4.3.3.4-.1.8-.7.6-1,.3-.6-.5C79.4,49.1,79.6,49,79.7,49Zm52.5.5a5.71,5.71,0,0,1,1.6.4,17.5,17.5,0,0,0,8.5-.1c.9-.2,1.5,1.3,1.1,2.4-.2.5-.2.6.5,1.2a3.62,3.62,0,0,1,.4,3.9c-.5,1-.5.9.1,2.7a62.62,62.62,0,0,0,5.1,10.8l-2.6-1S135,80.1,126.7,80.5l3,4.8A14.54,14.54,0,0,0,143.4,84c-.1.4,5.3,3.1,9.7,3.4v3.2c-3.3-.4-6.6-.5-9.7-2.4,0,0-2.8,1.2-5.6,2.1l15.8,16.6v2.8s-6.7-6.4-13.7-13.6l.1,35.4,13.7.3c-.4,9.2-.3,15.1-.2,25.6A92.87,92.87,0,0,1,130,174.9a67.61,67.61,0,0,1-9.9-12.3c-.1-.1.3-.3.2-.4s-.6-.2-.7-.3c-1.7-2.6-5.7-9.7-5-9.9,1.2.1,6.8-.6,8-4a7.05,7.05,0,0,1,0-1.5c.4-1.9.6-4.7-.1-6.5-1.2-3.2,2.4-2.2,2.6-2V125.8c-4.7,3.8-9.5,7.6-15.8,9.2-3.9-20.1,2.3-45.2,20.1-62.1l-1-.1c-18.3,19.2-23.1,40.3-19.9,62.5,0,0,.1.7.1.9a1.22,1.22,0,0,1-.6,1.2c-.5.3-.9.6-.8,1,.1.7-.6.7-1.5.7-.4-.4-1,.1-1.3.3-.5.1-.7-1.8-1.3-.4-.2.9-.6.9-1.6.5-.6-.2-.6.1,0,.8a5.09,5.09,0,0,1,1.4,2.6,1.64,1.64,0,0,0,1.1,2.3c-.1,0-.8,2.7,1.2,2.7a19.47,19.47,0,0,1,2.2.3,1,1,0,0,1-.3,1l-1.3-.7-.4,1.6-1.8-.1,4.4,5.5.5-4.3,5.1.7a66.57,66.57,0,0,0,15.8,23c-.1.3-6.8,3.1-6.8,3.1l-1.1-3.3-.8,1.2-1.5-.4-.2,1.4-1.3.4,2.4,1.6-6.1,1.8c-17.2-28.1-24.9-66.8-3.5-108.1l5.4.1-1.1,1.8,1.5-.2.4,1.3,1.1-.5,1.1,1.4,1.3-3.9s3.8.1,4.3,0,8.1-6.6,7.9-6.9-8.4,6-8.7,5.7c0,0-.8.2-.2-.6a29.17,29.17,0,0,0,3.2-4.5,23.47,23.47,0,0,0,3.3-8.2,2.49,2.49,0,0,0-.1-.8c-.7-1.5-.6-2.5.8-4.2.5-.6.5-.8.4-1.2a2,2,0,0,1,.6-2.2c.2-.1.3-.2.5-.2Zm-45.4,6c3.4,1.4.7,4.5-1.8,1.8-1.3-1.4-2.4-1.3-3.1-.3-.3.5.1,1.3.6,1s.8-.5,1.4,0c4.3,4,7.4-1.6,3.7-3-.6-.2-1.3.3-.8.5Zm-14-.2h.1a3.64,3.64,0,0,1,0,2.1c-.5,3-2.7,10-7,6.6-1.7-1.4-.2-4.8,1.9-3.6,1.6.9.5,3.1-1.2,1.8-.8-.6-.6.6.1,1,1.2.6,3.4-.5,4.4-2.4a18.6,18.6,0,0,0,1.2-4.2,5.21,5.21,0,0,1,.5-1.3Zm.4,5.3c.4,2.2-1.3,6-3.6,6.6-1.8.4-4-.7-3.8-1.8,0-.3.2.1,1.8.4,2.3.4,3.7-.9,5-3.7q.45-1.5.6-1.5Zm5.6,1a8.32,8.32,0,0,1-.2,1.3c-.2,1-.4,1.4.7.9a3.22,3.22,0,0,1,2.9-.1,3.71,3.71,0,0,0,3.8-.1,2.7,2.7,0,0,1,2.5,0c1.3.7.8.3.7-1.6-.1-1.3-.5-1.1-.9-.6a1.32,1.32,0,0,1-1.6,0,2.57,2.57,0,0,0-2.3.1c-.4.3-.9.4-1.7-.2-.5-.3-.8-.2-1.4.1a1.56,1.56,0,0,1-1.9-.2c-.4-.2-.6-.1-.6.4Zm-4.9,1.6c.1,0,.1.5.1,1.5-.4,3.7-3.3,5.8-6.7,4-1.5-.9-1.3-1.5.2-.9,2.3.9,4.7-.3,5.8-3.4Q73.75,63.2,73.9,63.2Zm8.3,2.6c1.7.7,3.5.5,4-.1s-.3-.6-.7-.5a5.21,5.21,0,0,1-3.1,0C80.7,64.5,80.8,65.2,82.2,65.8ZM64.7,67.9A35,35,0,0,1,69,74.2c13.7,23.6,18.1,53.4,9.1,80.5a98.37,98.37,0,0,1-9.9,21.2l-4.7.1,1.6-1.9-2.2.2-.1-1.2-1.7.5-.8-1.9L58.8,176H50.1c20.4-20.1,24.4-44.4,20.6-64,0,0,1.7-1.1,1.9-1.7a9.44,9.44,0,0,1,.3-.9c.8-.5,1.3-1,1.6-.9a1.76,1.76,0,0,1,.5.4c.7,1.1.9,1.2,1.3.2.3-.8.2-1.1,1.1-.9.5.3,1.3.3,1.2.2a18.75,18.75,0,0,0-1.2-1.5c-.9-1.2-1.1-1.4-1-2a2.19,2.19,0,0,0-.9-1.9c.1-2.2-.7-2.4-3.1-2.9a3,3,0,0,1,.2-1l1.4,1.1.5-2.1,1.9.1-5.5-5.4c0,1.5.1,3,0,4.5-2.6-.1-5.1-1-5.1-.8A70.28,70.28,0,0,0,50.3,74l6-2.9L58,74.4l.4-1.9,1.5.3.3-1.2,1.7-.2-1.8-1.8Zm36,3.9c.2.3.4.3.7.6l-.6.4a3.4,3.4,0,0,0-.1-1ZM60.4,72.9a.9.9,0,1,0,.9.9C61.4,73.4,61,72.9,60.4,72.9Zm5.1.2a.9.9,0,1,0,.9.9A.9.9,0,0,0,65.5,73.1Zm-16.3.7c3,2.5,5.7,5.8,9.1,11l-.1.7,1,.4s5.6,7.4,5.3,10.7c-1.9.4-3.6-.1-7.1,3.1-1.6-.9-2.6-.6-4.2-.1a1.18,1.18,0,0,0,.6,1,2.25,2.25,0,0,1,3-.4c-.2.1-.8,7.5.3,9,.9,2.5-1.4,2-3,1.4l.5,11.7c5.3-6.1,16.4-10.2,15.6-9.8,5.6,30-7.7,50.1-21.6,64.7h7.3s-6.3,10.3-6.8,13.1c.4.9,1.3,2.9-.3,4.3-.6.6-.6,3.5-.6,3.5-3.8.1-7.2-1.2-11.6.4-.5.2-.6-2.4-.6-2.9-2.5-2.2-.2-6.1.1-5.8a91,91,0,0,0-6-13.1s-2.4-.1-3.9-.2c-.3-.3-.5-7.2-.2-7.4,10.9.9,28.1-.1,28.1-.1l-4.6-6.5c-5.7-2.2-13.4,1.6-13.1,1.8,0,0-6.2-3.5-10.5-3l.1-3.4a19.75,19.75,0,0,1,10.5,2.6l5.3-2L25.7,141.3l.2-2.8c5.3,4.9,13.9,14.5,13.9,14.5V117H25.9l-.4-7.3-.4-.6-.2-5.2.4-.5-.1-2.2-.1-.3-.2-5.3.3-.4V91.8c6.7-6.8,24-18,24-18Zm11.9,1L62.7,82l1.1-1.4,1.7.5.1-1.7,1.5-.5Zm55,1.2a.9.9,0,1,0,.9.9C117.1,76.4,116.7,76,116.1,76Zm-4.3.6a.9.9,0,1,0,.9.9A.9.9,0,0,0,111.8,76.6Zm-53.4.8a.9.9,0,1,0,.9.9A.9.9,0,0,0,58.4,77.4Zm56.7.6-6.5,6.2,1.8-.1.3,1.8,1.6-.8,1.3,1.2Zm2.8,2.1a.9.9,0,1,0,.9.9A.9.9,0,0,0,117.9,80.1ZM66.3,81.3a.9.9,0,1,0,.9.9C67.3,81.7,66.9,81.3,66.3,81.3Zm4.1.8a.9.9,0,1,0,.9.9A.9.9,0,0,0,70.4,82.1Zm-3.7,1.4c.2,2.5.5,5.5.5,8.1l1.2-1.2,1.4.6.5-1.6,1.5-.1Zm39.9,2.1a.9.9,0,1,0,.9.9A.9.9,0,0,0,106.6,85.6ZM64,85.7a.9.9,0,1,0,.9.9A.84.84,0,0,0,64,85.7Zm46.3.3a.9.9,0,0,0-.9.9.9.9,0,0,0,1.8,0A.9.9,0,0,0,110.3,86Zm-.5,2-5.4,5.6,1.8.2.6,1.6,1.1-1,1.4,1Zm2.9,1.2a.9.9,0,1,0,.9.9A.9.9,0,0,0,112.7,89.2ZM70.3,91a.9.9,0,1,0,0,1.8,1,1,0,0,0,.9-.9C71.3,91.5,70.9,91,70.3,91Zm-22.9.7L46,92.8a3.65,3.65,0,0,1,1.7,1.4,19.9,19.9,0,0,0-.3-2.5Zm27.4.7a.9.9,0,1,0,.9.9A.9.9,0,0,0,74.8,92.4Zm-6.7,1.3a.9.9,0,1,0,.9.9A.9.9,0,0,0,68.1,93.7Zm38.5,1.9a.9.9,0,1,0,.9.9A.9.9,0,0,0,106.6,95.6ZM102.9,97a.9.9,0,1,0,.9.9A.9.9,0,0,0,102.9,97Zm37.5.2,1.9,2.1v31.2h-1.9Zm-75.3.3c1.6,0,3.3.2,3.9,1.2.9,1.1-1,.7-2.5.9s-.6.5,1.4.6c2.8.2,3.9.2,4.3.9a4.73,4.73,0,0,1,.1,1.7l-3.2-.2a22,22,0,0,0-3.1.1c-.4.1-.3.4-.1.6a15.06,15.06,0,0,0,2.8.1c4,.1,4.9.2,5.1,1.5s-.7,1-4.8.6a6,6,0,0,0-3.1.4c-.4.2,1.3.4,1.9.3a20.54,20.54,0,0,1,3.9.4c.8.1.1.1-.3.6s-.2.9-.6,1.1-1.6.3-3.4.3c-2.1,0-3.1.5-.2.7,1.9.1,2,0,2.1.6.4,1.4-.5,1.6-2.4,1.9a12.15,12.15,0,0,1-3.3,0c-4.1-.3-5.5-1.3-6-3.1-2-6.8.5-10.9,6.4-11.2Zm41,.3-4.6,6.8,1.8-.7.8,1.8,1.4-1,1.4.9Zm-34.3.8c.2.3.1.5-.3.7s-.9,0-1.3-.1-.5-1.1-.1-1.2a2.11,2.11,0,0,1,1.7.6Zm-33.2-.4-2.1,2.3,3-1.1Zm70.3,1.1a.9.9,0,1,0,.9.9A.9.9,0,0,0,108.9,99.3Zm34.1.8,3.3,3.3h-.9v1.8h2.8l1.5,1.5h-4.2v1.9h5.2v-.8l2.1,1.9.2,20.9h-9.9c-.1-10.2,0-20.2-.1-30.5Zm-68.2,2.3c-.1.5-.5.5-1,.2-.8-.3-.7-1.2-.1-1.3,1.1-.2,1.4.4,1.1,1.1Zm3.1.4a.9.9,0,1,0,.9.9A.9.9,0,0,0,77.9,102.8Zm-3.3.7a1.27,1.27,0,0,1,.9.4.76.76,0,0,1-.2,1.3c-.6.3-1.1-.1-1.3-.9A.61.61,0,0,1,74.6,103.5Zm29.3,2.5a.9.9,0,1,0,.9.9A.9.9,0,0,0,103.9,106Zm-30.8,1.1a.78.78,0,0,1,.6,1.3,1.06,1.06,0,0,1-1.7-.2A1,1,0,0,1,73.1,107.1Zm27.4.4a.9.9,0,1,0,.9.9C101.5,107.9,101,107.5,100.5,107.5Zm3.3.6-4.2,7.1,1.7-.7,1,1.4,1.1-.9,1.6.8Zm-32.7,1.2c.7,0,1,.6.4,1.1a.75.75,0,0,1-1.2,0C69.7,110,70.2,109.3,71.1,109.3Zm35.7.1a.9.9,0,1,0,.9.9A.9.9,0,0,0,106.8,109.4Zm-30.4.7a.9.9,0,1,0,.9.9.9.9,0,0,0-.9-.9Zm69.1.3v2h5.3v-2Zm-69,1.7-2,7.5,1.7-1,1,1.1,1-1.2,1.8.5Zm3.6.9a.9.9,0,1,0,.9.9A.9.9,0,0,0,80.1,113Zm-6.6.3a.9.9,0,1,0,.9.9A.9.9,0,0,0,73.5,113.3Zm72,.6v1.8h5.3v-1.8Zm-43.3,2.4a.9.9,0,1,0,.9.9C103.2,116.7,102.8,116.3,102.2,116.3Zm43.3,1v1.9h5.3v-1.9Zm-108.3.2H39v33.8l-1.8-1.9Zm-.8.1-.1,30.9-3.5-3.7h.9v-2.1h-3l-1.3-1.3h4.3v-2.1H28.6v1.3l-2.5-2.7V117.7Zm66,.9-2.8,7.4,1.8-1,.9.9.9-.9,1.6.8Zm-73.8.4v2h5.2v-2Zm77,.4a.9.9,0,1,0,.9.9A.9.9,0,0,0,105.6,119.3Zm-6.4.1a.9.9,0,1,0,.9.9A.9.9,0,0,0,99.2,119.4Zm-21.9.3a.9.9,0,1,0,.9.9A1,1,0,0,0,77.3,119.7Zm68.2.8v2.1h5.3v-2.1Zm-68.3,1.2-.8,1.2-1.8-.6,2.4,7.5,3.1-7.8-1.8,1Zm-48.6.5v2h5.1v-2ZM145.5,124v2.1h5.2V124ZM28.6,125.7v2h5.1v-2Zm73.7.4a.9.9,0,1,0,.9.9C103.3,126.5,102.8,126.1,102.3,126.1Zm-28,1a.9.9,0,1,0,.9.9A.9.9,0,0,0,74.3,127.1Zm6,.2a.9.9,0,1,0,.9.9A.9.9,0,0,0,80.3,127.3Zm65.2.1v1.9h5.2v-1.9Zm-43.2.9-1.1,1.2-1.6-.5,3.6,6.9,1.8-7.4-1.6,1Zm-73.7.7v2.2h5.1V129Zm48.6,1a.9.9,0,1,0,.9.9C78.2,130.4,77.7,130,77.2,130Zm0,1.9c-.4.3-.6.8-1,1.1l-1.7-.7,1,9.4,4.7-8.8-2.2.4Zm-48.6.3v2.3h5.1v-2.3Zm77.4,1.1a.9.9,0,1,0,.9.9A.9.9,0,0,0,106,133.3Zm-6.1.1a.9.9,0,1,0,.9.9C100.9,133.9,100.4,133.4,99.9,133.4Zm-71.3,2.2v2.3h5.1v-2.3Zm74.7.5a.9.9,0,1,0,.9.9A.9.9,0,0,0,103.3,136.1Zm13.2.1c5,.2,5.7,1.8,5.8,7.4,0,4.5-1.3,6.3-4.5,7.1a22.26,22.26,0,0,1-6.8-.4,20.52,20.52,0,0,0-.8-2,29.49,29.49,0,0,1,3.2.2c1.5.1,1.9-.1,1.5-.4-2.9-.7-4.9-.5-7.7-1.1a4,4,0,0,0-.7-1.8c.2-.1,4.3.4,6.5.3,1,0,.4-.5,0-.6-2.6-.4-4.2-.3-6.9-.7a2.81,2.81,0,0,0-.7-1.9h4.2c1.5,0,2.8.1,3.4.1,1.1,0,1-.5,0-.6-1.2-.1-5.7-.2-5.7-.2.3-.2.8-2.2.6-2.2h1.9c3.6-.1,4.3-.1,4.3-.2.5-.4-.8-.6-2.2-.6-.6,0-1.4.1-1.4-.2a3.26,3.26,0,0,0-.3-1.5,23.41,23.41,0,0,1,6.3-.7Zm-43.2,1.2a.9.9,0,1,0,.9.9A.9.9,0,0,0,73.3,137.4Zm35.7.2c.6,0,.8,1.1.2,1.3-.9.3-1.4.1-1.3-.5,0-.3.7-.8,1.1-.8Zm-29.6,1a.9.9,0,1,0,.9.9C80.4,139,79.9,138.6,79.4,138.6Zm26.7,1c2.1,0,1,2.9-.6,1.8C104.6,140.9,105.2,139.6,106.1,139.6ZM72.6,142a.1.1,0,0,0-.1.1L73,151l5.1-8.3-2,.8-.9-1.3-1.1.9c-.4.2-1.3-1.1-1.5-1.1Zm31.5.9c.9.1,1.6,1.1.9,1.6C103.5,145.1,102.7,142.9,104.1,142.9Zm-2.3,1.9a.9.9,0,1,0,.9.9A.9.9,0,0,0,101.8,144.8Zm3.6.8a.86.86,0,0,1,.4,1.6,1.39,1.39,0,0,1-.9,0c-.9-.8-.5-1.5.5-1.6Zm-35,1.5a.9.9,0,1,0,.9.9A.9.9,0,0,0,70.4,147.1Zm71.4,1.2-3.5,1.2v1.7c1.6-.6,2.4-1.8,3.5-2.9Zm-32.5.8c.6.3.8,1.1.2,1.4-.4.2-1.5.2-1.8-.2-.6-1.2.9-1.5,1.6-1.2Zm-32.6.3a.9.9,0,1,0,.9.9A.9.9,0,0,0,76.7,149.4ZM72.8,151a.8.8,0,1,0,.8.8C73.7,151.4,73.3,151,72.8,151Zm38.9,1.5a.9.9,0,1,0,.9.9C112.7,152.9,112.2,152.5,111.7,152.5Zm-41.9,0v8.4l5.5-6.9-1.9.4-.8-1.7-1.2.8Zm35,1.9a.9.9,0,1,0,.9.9C105.8,154.9,105.3,154.4,104.8,154.4Zm27.6.1-.9,1.6,2.6-1.4Zm-23.9,1.1a.9.9,0,1,0,.9.9C109.5,156,109.1,155.6,108.5,155.6Zm3.2,1-1.1,1.6-1.5-.5-.4,1.5-1.8-.1,5.7,5.1Zm-44.8.7a.9.9,0,1,0,.9.9A.9.9,0,0,0,66.9,157.3Zm86,2.2v69h-32l-13.4-18.9a25.43,25.43,0,0,1,1.1-10.2c1.3.9,4.2.4,4.1-3.2-.1-2.3-3.6-3.5-5.4-1.8.1-2.3,1-5.7,2.3-6.7.9.8,1.1,2.1,3.1,1.7a2.86,2.86,0,0,0,2-3.8,4.14,4.14,0,0,1-.2-1.5v-1.5a6.61,6.61,0,0,1-.1-1.1c14.8-3.3,27.9-12.5,38.5-22Zm-79.4.3a.9.9,0,1,0,.9.9A.9.9,0,0,0,73.5,159.8Zm-4.4.9a.9.9,0,1,0,.9.9A1,1,0,0,0,69.1,160.7Zm46.2.5a.9.9,0,1,0,.9.9C116.3,161.6,115.9,161.2,115.3,161.2Zm-49.6,1L64.2,171l6.4-6.6H68.9l-.3-1.5-1.6.5Zm43.3,1.9a.9.9,0,1,0,.9.9A.9.9,0,0,0,109,164.1Zm4.1,1a.9.9,0,1,0,.9.9C114.1,165.6,113.6,165.1,113.1,165.1Zm-51.4,1.2a.9.9,0,1,0,.9.9C62.7,166.7,62.3,166.3,61.7,166.3Zm55.1.7-1.5,1.2-1.4-.9-.3,1.9-1.2.6,5,3.6Zm3.8,2.5a.9.9,0,1,0,.9.9A1,1,0,0,0,120.6,169.5Zm-52.9.4a.9.9,0,1,0,.9.9A.9.9,0,0,0,67.7,169.9Zm-4.2,1.2a.9.9,0,1,0,.9.9A.9.9,0,0,0,63.5,171.1Zm54.7,2.5a.9.9,0,1,0,.9.9A.9.9,0,0,0,118.2,173.6Zm-4,.9a.9.9,0,1,0,.9.9A.84.84,0,0,0,114.2,174.5ZM78,175.8h0a2,2,0,0,1,.2,1.4c-.1-.1-.8-.7-.6-.9,0-.1.3-.5.4-.5Zm-21.2,1.5a4.91,4.91,0,0,1,1.1.1,4.45,4.45,0,0,1-.5,1.3,12.19,12.19,0,0,0-.2,9.2c1.9,4.2,7.4,14.2,7,15.1l-12.1.1.1-1.9c3.4-.1,3.9-2.3,3.1-4a3,3,0,0,0-3.8-1.3c-2.2.9-2.3,2-3.1,3.7l-.3-.4a3.47,3.47,0,0,0,.8-2.7c-.1-1-.1-.7.2-1.2a4.69,4.69,0,0,0,.7-4.8c-.2-1.7,5.7-12.2,7-13.2Zm-27.8.3c3.5,2.8,6.4,12.2,6.3,12.3a4.13,4.13,0,0,0,0,6,5.09,5.09,0,0,0,.4,2.7c-1.2,2.6-1.5,2.8-1.6,5H32.7c-5.7,0-6,7.4-.3,7.8.8.1,1.1-.1,1.5.3.5.6.9,1.2,1.7.9a1.46,1.46,0,0,1,.8.5,2.29,2.29,0,0,0,2.5,1.1,7.89,7.89,0,0,1,1.3.3,2.24,2.24,0,0,0,2.1.4,1.38,1.38,0,0,1,.9,0,2.2,2.2,0,0,0,2-.1c.8-.4.9.2.9.8a2.75,2.75,0,0,0,1.8,3.2c2.7.9,4.1-.9,4.7-4.3.1-.7.3-1.6.3-1.6l9.2.2L48.9,228.5h-23v-51c1,0,2.2.1,3.1.1Zm82.7,2.7c1.7.7,1.8,1.9.1,1.3a5,5,0,0,0-6.2,3.2,3,3,0,0,1-.3.9c-.4.5-.4,0-.2-1.3a4.53,4.53,0,0,1,4.4-4.5,7.8,7.8,0,0,1,2.2.4Zm-.8,1.9a3.06,3.06,0,0,1,2,.7c.6.7.4,1.2,0,1.1-2.3-1-5.2.2-6.3,3.1-.7,1.8-.8.8-.5-.6a5.1,5.1,0,0,1,4.8-4.3Zm-15.8.7a3.44,3.44,0,0,0-2.4.7c-.9.9-.2.9,1.5.3a5.42,5.42,0,0,1,3.3.2c.8.3,1.1.4,1.1.2-.1-.9-1.9-1.4-3.5-1.4Zm18.5,2.9c.4,1,.1,2.7-1.3,2.9-1.7.2-2.6-2.7.5-2.2-.4-1.2-1.8-.8-2.5-.6-1.4.6-2.4,2-3.3,4.6-.3.8-.4,1.2-.5,1.1s-.2-1.3.1-2.8c.7-2.6,2.4-4.2,4.1-4.2,1.2-.2,2.6.3,2.9,1.2ZM89,184.7c-.2,0,.1.6.5,1.4a7.87,7.87,0,0,1,.4,1.2q0,.75.9.3c.6-.3.7-.6,1.5-.2a2.44,2.44,0,0,0,2.3.3c.4-.2.6-.2,1.4,0s1,.3,1.7,0a2.33,2.33,0,0,1,2.1.1c.2.2.1-.1.6-1.2.2-.5.5-1.1.4-1.3s-.9,0-1.8.3a3.06,3.06,0,0,1-1.8-.2,5.35,5.35,0,0,0-4.2.2c-.6.2-2.3-.2-4-.9Zm3.7,5a2.3,2.3,0,0,0-2,1.3c-.4,1,.3,2.9,1.3,3s.9-.4.4-.6c-.7-.2-1.6-1.3-1-2.2.4-.6,1.5-.6,2.3.1,1.6,1.5,3.4,1.6,3.7.3.1-.5-.3-1.2-.9-1a3.45,3.45,0,0,1-2.5-.4,2.35,2.35,0,0,0-1.3-.5Zm16.6,4.9c4-.2,2.3,5.3,0,3.9-.8-.5-.5-2.4,1.7-2.4-2.2-1.7-3.6.4-3.1,2.7a17.1,17.1,0,0,0-.9,3c-.5.9-.9-1.5-.4-3.9.5-2.2,1.3-3.2,2.7-3.3Zm-22.8.2c-.8,0,0,.9.2,1,2.5,2,3.7,3.2,1.7,2.6-3.3-.8-4.1.1-6.6,1.3-.5.2-.6.1-1.1-.1-2.2-.7-2,.7.3,2,3.5,1.9,6.3,2.3,9,.9,1.7-.9,1.8-.3.2.7-2.8,1.6-5.7,1.4-10.1-1.4-1.4-.9-1.6-.3-.2.7,3.4,2.1,7.9,3.9,11.6.9.7-.7.9-1,1.4-.7,1.5.7,1-.6,0-1.8a1.74,1.74,0,0,1-.6-1.1c.1-1.1-.5-1.1-1-1s-.6-.2-1.3-1.1c-1.3-1.3-2.6-2.7-3.5-2.9ZM53,200.5c-1.4.1-1.7.2-1.4,3.1.1.5.3,2.2.4,2.8.8,7.6.2,11-1.9,11.9a2.73,2.73,0,0,1-2,0c-1.3-.5-1.9-2.2-.9-4.1a6.7,6.7,0,0,0,.7-1.8c.1-.5.4-1.5.6-2.3a22.56,22.56,0,0,0,.5-7.6c-.2-1.9-.2-2,.3-3.3,1-1.9,1.7-2.8,3.8-2.9,2.3.3,3,3.9-.1,4.2Zm51.3-.2h-.7c-.8-2.7-2.4-1.8-2.7.1h-.6c.2-3.6,4.5-2.6,4-.1Zm-61.3-2c4.5.4,5.3,1.6,5.6,7,0,2.6-.1,4.2-.5,4.8-.7.3-1.3-.3-2.3.3-.5.3-.4.4-.6,0a5.35,5.35,0,0,1,.4-2.8c.3-1.1-.2-1.7-1.7-3a7.36,7.36,0,0,1-1.1-1.6c-.8-2.1-1.2-1.2-.5.6.3.8.4,1.2-.6.8a1.57,1.57,0,0,0-1.5.3c-1.2.3-2.3-.4-1.2-.8a12.3,12.3,0,0,1,2.2-.6c.3,0,.4-.1.4-.2,0-.5-2.4-.5-4.2.2-2.2,1-2.3.8-2.1-.8.4-4,4.1-4.5,7.7-4.2Zm43.5.4a2.17,2.17,0,0,1,2,2.4H88c-.3-2.1-2.2-2.2-2.8.2h-.8c.5-1.9,1.4-2.6,2.1-2.6Zm13.3,0c.4.3.1,1-.3,1.2-.2,0-.8-.4-.6-.6a1.8,1.8,0,0,1,.9-.6Zm5.1.4a.84.84,0,0,1,.8.6c0,.6-.5.5-.6.4-.4-.3-.5-1-.2-1Zm-15.6.5c.8.1,1.1,1.2.2,1.2C89,200.9,89,199.8,89.3,199.6Zm-5.1.1c.1,0-.1.9-.3,1a.56.56,0,0,1-.9-.3c.1-.6.8-.7,1.2-.7Zm14.6,2.1c1.6.6,3.7,1.2,5.6.5.7-.3,1.3-.6,1.3-.3s-.6.8-1.6,1.1a5.32,5.32,0,0,1-5.1-.7c-.4-.3-.5-.6-.2-.6Zm-.7.9c2.6,1.5,4.9,1.7,7,.6.8-.3.9,0,.9.5-3.8,3.4-8.5-.1-7.9-1.1Zm-63.3,2.4c-.6,1.3-1,4.5-2,5.5C25.6,210.1,30.2,200.6,34.8,205.1ZM79,204c-.4.2,0,1.2.6,1.5,5.5,2.4,8.2,2.7,11.3,1.6a3.39,3.39,0,0,0,2.1-2c.1-.6-.8-.7-2.2,0-4.4,1.8-7.2.4-10.8-1a1.21,1.21,0,0,0-1-.1Zm-20.9.1v8.1l-5.2-.1.1-1.2,3.9.1-.1-5.8H52.3v-1.1Zm1.2,0h5.2l.3.8H59.4v-.8Zm-20.9,2.5a.92.92,0,0,1-1.2.1,1,1,0,0,1,.9-1.6c.9.1.9.9.3,1.5Zm2.4-1.3c.8,0,1,.7.4,1.3-.4.4-.6.4-1,.1S40,205.4,40.8,205.3Zm-5.1.2c.2,0,.4,0,.5.2.5,1-1.1,1.7-1.4.9C34.5,206.1,35.1,205.5,35.7,205.5Zm29.2.1.3,1h-6v-1Zm-21.3.3c.9.1.8,1,.3,1.4-.7.7-1.4.5-1.2-.4a1.07,1.07,0,0,1,.9-1Zm-4.8,3c-.3,1.1.4,3.4.2,3.7a1.08,1.08,0,0,1-1.4.1c-1.1-.7-1.1-4.8-.1-5.1.7.3,1.1-.3,1.4-.4s0,.5-.1,1.7Zm15.8-1.7a1.1,1.1,0,1,1-1.1,1.1A1.11,1.11,0,0,1,54.6,207.2Zm4.7.2h6.1a1.13,1.13,0,0,1,.2,1.2H59.3v-1.2Zm-18,.1c.3,0,.4.6.2,1.3a9.38,9.38,0,0,0-.1,3.7c.2.5.3.9.2,1-.3.5-1.3.2-1.7-.5-1-1.9-.8-5.4.4-5.1C40.8,208.1,41.1,207.7,41.3,207.5ZM36,208c-.3.5-.1,3.2-.1,3.4s-.8.1-1.2-.1c-1-.5-.8-1.7-.6-2.8.2-.8.7-.9,1.3-.9.4,0,.8,0,.6.4Zm8.3.1c.3,0,.4.2.3,1.2a8.1,8.1,0,0,0,0,2.2c.3,1.6.3,2-.1,2.3a1.14,1.14,0,0,1-1.6-.2c-1-.8-1-4.7-.3-5,.8.2,1.3-.4,1.7-.5Zm21.1,1.2-.9,1.2H59.3v-1.2Zm-18.6,1.6c.8,0,.7,1.5.2,2.4-.4.6-.6.6-1.2.1S46,210.9,46.8,210.9Zm17,.4-.7.7H59.3v-.7Z"/><path id="path3872-3-7-5" class="cls-2" d="M38.3,182.2l-6.3-5c7.5-.2,15.1,0,22.6.1l-7.5,5.4c-1.5-1.7-2.4-4-4.6-5.1C40.8,178.3,39.6,180.7,38.3,182.2Zm55.2-1.8c-.2-.1-.3-.4-.4-1.2-1.9-8.9-11.1-8.3-11.1-8-.1-.4,11.5-10.9,18.3-19.2,2.1,6.3,8.3,20.8,8,20.8,0,0-1.8,0-6.5-.1-4.2,1.9-7.2,3.8-7.1,6.6,0,1-.3,1.4-.6,1.3A1.07,1.07,0,0,0,93.5,180.4Zm21-28.6c6-.1,7.1-3.1,7.8-3.4,3.9-.7,6.4,1.9,8.1,4.7,2.2,1.3,1.9.1,2.4-2l5.5-1.6v1.8a25.87,25.87,0,0,0-4.2,3.3l-1.7-.1-1,1.3c-3.8,2.1-7.6,4.6-11.6,6.2.1,0-4.7-6.3-5.3-10.2Zm-74.8.6-.1-35.2c2.5-.2,7.1-.2,7.1-.2,1.9-3.4,4.5-5,7.2-7a109.48,109.48,0,0,1,.4,12.8c-7.1,8.8-11.1,19.7-6.7,35.9l-2.6-.3Zm39.3,2a129.63,129.63,0,0,0,4.3-22.5l13.6-.2.3,4.7Zm46.2-16-.3-13.2c9.9-12,10.5-22.5,6.8-35.7,3.3.8,4.9,3.3,8.1,6.9v34.3c-2.2.3-7.5.6-7.5.6-.2,1.7-4.7,5.5-7.1,7.1ZM83.3,117.6l-.6-5.8,17.6-17.1c-1.5,7.4-3.2,15-3.7,22.9ZM54.1,99.5c-1.3.8-5.9-4.1-6.6-7.3,1.2-1.6,11.4-6.7,11.4-6.7s6,7.8,5.7,11c-2.6.7-4.9.9-7,3.1C56.4,99.7,56,98.4,54.1,99.5ZM46,92.9c1.4.2.5,2.2.3,3.6l-7.5,2.3c2.6-2.2,4.4-4.1,7.2-5.9ZM70.4,75.8c1.5,0,3.1.6,4.3.1a4.7,4.7,0,0,1,2.3-.3c2.2.7,3-1.8,4.5-1.8,1.8,0,2.9-1.3,2.9-3.9,0-1.1.1-1.3.3-1.4a1,1,0,0,1,1.4.8c1.3,4.8,4.7,9.2,9.9,8.8-4.2,4.3-17,17.7-17,17.7a119.33,119.33,0,0,0-8.6-20Zm54.4-4.2,7.7-5.7,4.6,5.7,4-5.4c2.3,1.7,7.7,5.5,7.7,5.5s-16,.2-24-.1Z"/><path id="path3870-4-7-1" d="M129.2,20.2l-70.8.5L72.2,39.3c14.6-3,27.3-1.1,40.5,1.3Zm-1.8.9L122.7,27c-1.3-1.2-4.2-.8-3.8,1.9-3.6-1.9-4.4,3.3-1.3,3.1-.4,1-3.5,1.3-4.4-.6-3.2,1.8-4.1.1-5-1.1,4,2.8,6-2.9,1.6-3.3,1.7-3.6-4.5-5.2-4.1-.5-4.1-.9-3.2,4.9-.1,3.7-2,3-5.2,1-5.8.4-1.7,1.3-4.8,1.3-5.7-.7,4.6.9,4.1-5.2,0-3.8,2.2-4.7-5-4.1-3.3-.2-4.1-.2-3.2,5,.4,4.1-3.2,3.1-5.6.2-6.1.1-1.9,2.1-5.2,1-5.7-.3,3.3,1.3,4.3-4.3.2-3.9,1.1-3.6-4.9-4-3.6.1-3.3-.7-3.4,4.5.2,3.7.2,1.5-2.6,2.8-4.4,1.4-1.3.7-2.7,1.8-4.4.2,2.6-.4,3-4.8-1.2-3.9.2-2.7-1.3-2.9-3.2-2.2L60,21ZM78.5,27.8c-.2.5-.6.8-.5,1.2a5.05,5.05,0,0,0,.8,1.3c3.5,4.7,10.7,4.5,12.9-.3.4-.9.4-1.1-.2-1.9a1.12,1.12,0,1,1,1.7.1c-1.2,1.6,2.1,5.1,5.5,5.6,4.3.7,8.4-2.4,7.8-5.1,0-.2-.1-.3-.1-.5-.5-2.3,3.1-1.2,1.8.3-.5.5-.7.7-.7,1.3,1,4.9,6.9,5.4,9.7,3.9-3.6,5.9-9.3,1.4-10.3-2.8-5,7.4-11.1,5.8-14.4-.6.4.4-6.6,11.6-14.6.1-3.4,9.3-9.5,3-9.1,2.6,2.8,1.6,8,1,8.5-3.9.1-.6-.4-.6-.7-1.1-1.4-2.4,2.9-2.5,1.9-.2Zm-13.3.6c.6.1.7.3.6,1Zm55,1.7-.9,1.2C119,30.7,119,30.2,120.2,30.1Zm10,.4c-2.2.1-3.9,3.2-3.8,7.3.1,2,.4,7,.5,7.8.2,1,0,2.5-.4,2.6-1,.4-1.3.6-1.6,1.1a2.24,2.24,0,0,0,1.3,3.2c1,.4,2.3-.2,3.1-1.5.5-.7.6-1,1-2.9a10.17,10.17,0,0,0,0-3.5c-.5-2.9-.1-6.5.9-8.2,1.8-3.1,1.7-5.1-.1-5.7-.2-.2-.5-.2-.9-.2Zm-.1.5a1.81,1.81,0,0,1,1.1,3.4,2.14,2.14,0,0,1-1.9-.1c-.8-.4-.7.1.1.6.9.7,1.3.6.8,2.2a19.77,19.77,0,0,0-.5,6.5c.7,5,.1,7.4-2,8.3a1.89,1.89,0,0,1-2.4-1c-.4-1.3.3-2.4,2.3-2.1a29.32,29.32,0,0,0-.4-4.7c-.7-6-.4-10.2.7-11.7A3.44,3.44,0,0,1,130.1,31Zm17.4,6.2a4.89,4.89,0,0,0-1.9.5s-.1,2.7-.1,3.1c-.4,2.3-.3,2.6.7,2.9,2.5.8,4.6-.9,4.5-3.6A3.11,3.11,0,0,0,147.5,37.2Zm.4.3a2.86,2.86,0,0,1,2.5,3.2,2.68,2.68,0,0,1-3.4,2.5,1.63,1.63,0,0,1-1.1-.5c-.3-.5.2-.7,1.2-.7,1.2,0,1.4-.2,1.8-.8.8-1.3-.2-3-1.5-2.6-.4.1-.5.3,0,.4,1.5.7,1,1.7.4,2.1s-1.7-.2-1.8-.6l.1-2.5a2.61,2.61,0,0,1,1.8-.5ZM132.2,49.2s-.6.3-.9.5a2.11,2.11,0,0,0-.4,2.3c.1.4.1.4-.4,1.1-1.3,1.8-1.5,2.6-.8,4.2.3.7.3.7,0,1.7a37,37,0,0,1-6.4,11.9,4.43,4.43,0,0,0-.6,1,2.68,2.68,0,0,0,1-.2c2.7-1.4,5.6-4.1,8.3-5.8-4.2,3.5-8.8,6.6-8.8,6.6l5.8.3c-1.4,1.5-26.8,23.3-20,62.3,7.9-2,11.6-5.3,15.8-9.1,0,3.1.1,11.6.1,11.6s-3.7-1.4-2.8,1.7a17.5,17.5,0,0,1-.1,8.5c0,.1.4.3.4.4s-.6.1-.6.1c-1.4,2.7-5.1,3.3-7,3.2-.7-.1-.4.9-.3,1.2.3,1.4,1.9,4.4,4.9,9.2l.8.1-.5.4a18.48,18.48,0,0,0,1.3,1.9v.4s1.6,2.3,2.5,3.4c.1.1.2-.1.3,0,.5.6,1.1,1.3,1.6,1.8,0,0-.1.2,0,.3l2.8,3.1.4-.1,1.4,1.6c11.9-5.5,24.3-17.6,24.2-17.6l.1-26.1H140.2l-.1-34.6,14.1,14.1-.1-4c-3.2-3.1-16-16.2-16-16.2a17.19,17.19,0,0,0,5.4-1.8,15.92,15.92,0,0,0,10.1,2.2V87c-4.3,0-6.9-1.4-8.8-3.2l-2.6-.1c-4.9,3.7-8.3,2-12,1.3l-2.6-3.7,26.1-.1-.2-9-4,.1-2.6-1.9,3,1.3a2.91,2.91,0,0,0-.6-1.4,62,62,0,0,1-4.9-10c-.6-1.7-.6-1.7-.1-2.7a3.77,3.77,0,0,0-.4-4.1c-.6-.7-.6-.8-.4-1.3a1.81,1.81,0,0,0-1.2-2.6c-4.4,1.4-10.2-.3-10.1-.4Zm10.2.7c.9,0,1,.4,1,1-.1,1.2-1.6,1.6-2.3,1.8-3.4.8-9.2.3-9.6-1.3-.3-1.2.4-1.8,2.8-1.2C138.1,51.1,140.4,50.2,142.4,49.9Zm-10.9,3.4a1.17,1.17,0,0,1,.9.9,3.78,3.78,0,0,1-.8,2.3c-1.1.8-2-.5-1.3-1.9.4-.8.8-1.3,1.2-1.3Zm11.5.2a.73.73,0,0,1,.6.2c.8.6.9,2.7.1,3s-1.6-.5-1.5-1.9c0-.9.3-1.4.8-1.3Zm-2.7.4a.75.75,0,0,1,.5.1c.7.3,1,2.5.3,3.2a1.21,1.21,0,0,1-2-.6c-.4-1.3.3-2.7,1.2-2.7Zm-6,.1c1,0,1.3,2.3.3,3.3-.8.8-2.1,0-1.7-1.6C133.1,54.9,133.5,54,134.3,54Zm3,.3c1.5.3,1.4,4-.6,3.6C135.6,57.2,135.6,54.4,137.3,54.3Zm-6.6,4,2.1.2c-.1,0-3.4,7.2-6.4,9.1a56.4,56.4,0,0,0,4.3-9.3Zm12.8.1a87.8,87.8,0,0,0,4.2,10.2c-2.6-2.5-4.9-6.4-7-10.1Zm-10.1.3h1.4a11.93,11.93,0,0,0,2.2,4.8,23.41,23.41,0,0,0,1.9-4.6H140c.4.3-1.3,6.8-3,7.6C135.2,65,133.7,60.9,133.4,58.7Zm-.6,1.6c-.1.2,2.2,5.8,4.1,7.6a15.66,15.66,0,0,0,3.8-7.1l6.1,8.6-5.9-4.1a31.91,31.91,0,0,1-3.9,5.5c-1.6-1.8-3-3.9-4.5-5.9-2.3,1.7-3.9,3.5-6.8,5.1C125.7,70.1,131.5,63.7,132.8,60.3Zm-.5,6.1,4.1,5.1-11-.2Zm8.9.1,6.9,4.8-10.3.1ZM86,68.9a2,2,0,0,1,.1.5c1.2,5.1,4.6,9.3,9.7,8.8L79,95.2a101.7,101.7,0,0,0-8.4-19.3s1,.2,1.8.4a3.93,3.93,0,0,0,1.9-.1c.4-.1.8-.3,1.1-.4a3.81,3.81,0,0,1,1.9.3c1.2.2,1.9-.4,3.4-1.7a1.21,1.21,0,0,1,1-.3c1.8,0,3-1.6,2.8-4L84.4,69l-.2,1.2c-.4,2.3-.7,3.3-3,3.4-.5,0-.7.4-1.6,1.1-1.2,1-2.1,1.1-2.9.7s-1-.2-1.8.2a4.69,4.69,0,0,1-3.5,0c-1.7-.5-1.5-.3-1.5-.3,10,18,13.5,35.3,13.3,50.7a99.46,99.46,0,0,1-14.5,50.2s1.1-.1,2.1-.3a1.91,1.91,0,0,1,1.3.2,1.67,1.67,0,0,0,1.2.1,10.9,10.9,0,0,1,1.7.1c1.2.2,1.3,0,2.6-1.3,3.8-3.7,3.5-3.6,6.3-3.5,4.1.1,7.4,2.9,8.8,7.4.2.6.4,1.4.4,1.4l-.3-1.2c-1.2-6-6.3-8.2-10.5-8.1l17.8-18.1c-.1,0,4.1,13.8,7.8,19.9a6.21,6.21,0,0,0-3.2-.2,15,15,0,0,1-3.1-.1c-.9,0-1.4.2-2.6,1.2a7,7,0,0,1-1.8,1.2c-2.2.9-3,1.9-3,4.3,0,.4-.1,1-.1,1.2v.2a.35.35,0,0,0,.1-.2,5.75,5.75,0,0,0,.5-1.6,3.42,3.42,0,0,1,2.4-3.2,8.58,8.58,0,0,0,2-1.3c1.6-1.3,2.1-1.5,3.3-1.2a4.32,4.32,0,0,0,2.3.1,4.93,4.93,0,0,1,2.4.1c.8.2,1.9.4,1.9.4-17.3-35.2-16.7-67.8.3-101,0,0-5,.1-5.3.2a3.78,3.78,0,0,1-1.4-.1c-1.4-.3-1.1-.1-4.3,3.2-4,4.1-10.4.8-12.3-6a3.39,3.39,0,0,0-.3-.8c.4-.2.3-.3.3-.3Zm16.3,4c.7.1,1.3.3,1.2,1L79.7,97.5,79.3,96Zm5,.1c-.3.6-1.1,1.3-1.4,1.9l1.3,1.6-.7,1.3-2-1.7-3.8,3.8,3.2,3.6-3,3.1-1-1.1,1.6-1.7L99,81.5l-4.3,4.3,3.5,3.6-2.6,2.5-1-1L96,89.4,93.7,87l-4,4.2,3.2,3.6-2.5,2.5-1.1-1.1,1.2-1.3-2.3-2.4-4.1,4.1,3.3,3.7L85,102.5l-.9-.9,1.2-1.3-2.2-2.4-2.5,2.3-.4-1.6,25.2-25.4Zm1.5.4-1.1,2.2-.8-.9,1.1-1.1Zm-59.4.2c-.7.2-15.6,8.6-24.2,17.9V95l-.3.4.2,5.4.2.3.1,2.2-.3.6v6l.5.1.1,7.4h14v35.1s-8.2-9.2-14.2-14.6V142l15.7,16.5a12.47,12.47,0,0,0-4.6,1.6,17.37,17.37,0,0,0-11-2.2v4.2a15.87,15.87,0,0,1,11.1,2.8c3.2-2.2,7.1-3.6,13-1.8a49,49,0,0,0,3.8,5.6l-27.8.2v8.5H30c1.6,3.1,4.6,7.3,5.9,12.7-1.8,2.1-1.6,3.9.1,6,0,1-.3,2,.8,3.1,3.5-1.8,7.5-1,10.5-.1,1,.3,1.4-.9,1.4-2.3a1.73,1.73,0,0,1,.5-1.8c1.5-1.3.6-4.1.3-4.1-.1-2.4,7.5-14.4,7.5-14.2l-1.5.6H49c17-16.6,24.1-35.6,22.6-57.1a31,31,0,0,0-1.2-7.9c-6,2.7-10.9,4.7-15.7,9.9L54.4,111a2.34,2.34,0,0,0,2.8.3c.5-.4.6-.7.1-2.1-.7-2-.9-6.2-.4-7.6a7.47,7.47,0,0,0,.2-1.1c.1-.6-.1-.6-.1-.6s.7.1.8,0a10.72,10.72,0,0,1,6.9-3.1l.1-1.3c-2-5.1-3.7-7.1-5.5-10a1.51,1.51,0,0,0-.8-.1l.4-.4c-2.6-4.2-6.2-7.9-9.5-11.4Zm-.2.7L51,76c-8.6,4.2-17,10.3-25.4,18.6l.1-3.1A108.18,108.18,0,0,1,49.2,74.3Zm55.2,3,1.1,1.1L104,80.2l1,1-.5,1.3L102,79.9Zm-53.6.1a1,1,0,1,1-1,1A1,1,0,0,1,50.8,77.4Zm73.4,1.5c17.5,19.8,8.5,48.5-14.8,55.4l-.3-1.6c23.6-8.1,29.1-35,13.8-51.9ZM53.8,79l1.1,1.3c-10,4.8-19.7,12.1-29.1,22.5l-.1-2.6A102.46,102.46,0,0,1,53.8,79Zm-6.4.4a1,1,0,0,1,1,1,1.08,1.08,0,0,1-1,1,1,1,0,0,1,0-2Zm-3.1,2a1,1,0,0,1,1,1,1.08,1.08,0,0,1-1,1,1,1,0,0,1-1-1C43.2,81.8,43.7,81.4,44.3,81.4Zm10.3.7a1,1,0,1,1-1,1A1,1,0,0,1,54.6,82.1Zm44.5.7,1,1.1-1.6,1.7,2.3,2.4,2.2-2.2L101.9,89,82.3,108.9l-.4-2.1,1.5-1.6L81,102.8l-.4-1.6L82.9,99l1,1-1.4,1.6,2.2,2.2,4-3.7-3.3-3.7,2.7-2.7.9.9L87.7,96,90,98.5l4.1-4-3.3-3.6,2.7-2.7,1,1-1.4,1.7,2.3,2.3,4-4-3.3-3.5Zm-57.9.7a1,1,0,0,1,1,1,1,1,0,0,1-2,0A.94.94,0,0,1,41.2,83.5Zm16.1.2.8,1.3C46.2,91.1,38,97.2,25.9,111.2v-1.8A94.71,94.71,0,0,1,57.3,83.7Zm-5.9.1a1,1,0,0,1,0,2,1.08,1.08,0,0,1-1-1A1,1,0,0,1,51.4,83.8Zm91.8.4c2.1,1.9,6.5,3.8,9.3,3.6l.1,2.3c-4.9.5-9.3-2.7-9.3-2.7A14,14,0,0,1,131.6,89L130,85.6c6.1,2.8,11.7.1,13.2-1.4Zm-23.6.6a3.53,3.53,0,0,0,1,.9c4.6-1.2,6,3.6,3.9,6.4l.6,2a5,5,0,0,1,2.1.9,4.11,4.11,0,0,1,1.6,3.6c.2,1.6-2.1,3-2.3,2.9v2.2a10.71,10.71,0,0,1,1.9,1.8,3.55,3.55,0,0,1-1,5,3.28,3.28,0,0,1-2.2.7l-1.1,2.5a2.89,2.89,0,0,1,1.3,2.1,4,4,0,0,1-1.9,3.9,5,5,0,0,1-3.7.1l-1.5,1.5a5.19,5.19,0,0,1,.3,2.9,3.69,3.69,0,0,1-4.1,2.5,3.84,3.84,0,0,1-2.2-1l-1.7.7s0,2.2-.8,2.8a12,12,0,0,1-1.2.9l-.2-1.5a2.66,2.66,0,0,0,.9-2.5l3.6-1.8a3.51,3.51,0,0,0,1.7,1.2,2.32,2.32,0,0,0,2.8-2.1,8.71,8.71,0,0,0-.5-1.9l3.1-3.2c1.3.4,2.2.5,2.7.2a2.52,2.52,0,0,0,1.2-2.7c-.2-.9-1.1-1.5-1.1-1.6l1.7-4.4a3,3,0,0,0,1.9-.5,2.44,2.44,0,0,0,.6-3.3,2.39,2.39,0,0,0-1.7-1.1l.1-4.6s1.7-.8,1.9-1.9c.3-1.5-.3-2.5-2.2-2.9-1-.2-1,0-1,0l-1.4-4.1c2.3-1.4,1.6-3.6.4-4.4a3.5,3.5,0,0,0-2.9-.1l-1.4-1.4Zm-60.9.9a45.71,45.71,0,0,1,5.4,9.8,3.28,3.28,0,0,1,0,1c-4,.4-5.4,2-6.9,3.1-1.1-.6-1.6-1.3-3.6,0,0,.1-5.1-3.1-6.1-7.5,3.8-2.3,7.3-4.5,11.2-6.4Zm-20.5,0a1,1,0,0,1,1,1,1.08,1.08,0,0,1-1,1,1,1,0,0,1-1-1A1.08,1.08,0,0,1,38.2,85.7Zm9.7.2a1,1,0,1,1-1,1A1.08,1.08,0,0,1,47.9,85.9Zm70,1.3c1.8,2.4,4.4,6.8,5.1,10.8.9,5.5.3,11.4-2.2,15.4-4.5,8.7-12.4,10.5-12.4,10.9l-.1-1.8c.1.4,6-2.1,10.1-7.9a22.94,22.94,0,0,0,3.4-13.8c-.3-6.3-4.7-12-4.7-12.1ZM35,88a1,1,0,1,1-1,1A1.08,1.08,0,0,1,35,88Zm9.7,0a1,1,0,0,1,1,1,1.08,1.08,0,0,1-1,1,1,1,0,0,1-1-1A1.08,1.08,0,0,1,44.7,88Zm87.4,1.8c2.3.2,5,4.4,7.6,6.8v34.1l-7.5.2c-1,2.4-3.3,4.8-6.9,7.1V125.2c12.3-13.5,8.9-28.2,6.8-35.4Zm-99.9.4a1,1,0,0,1,1,1,1.08,1.08,0,0,1-1,1,1,1,0,0,1-1-1A1.08,1.08,0,0,1,32.2,90.2Zm9.4.2a1,1,0,0,1,1,1,1.08,1.08,0,0,1-1,1,1,1,0,1,1,0-2Zm95.8.1,15.4,15.8-.1,2.3L135.3,90.7ZM47.2,91.9l.4,2c-.5-.8-.5-1.1-1.4-1.2Zm-8.3.6a1,1,0,0,1,1,1,1.08,1.08,0,0,1-1,1,1,1,0,0,1,0-2Zm-9.3.3a1,1,0,0,1,1,1,1.08,1.08,0,0,1-1,1,1,1,0,0,1-1-1A1.08,1.08,0,0,1,29.6,92.8Zm86.8,0,3,2.2-1,3.9-3.1-2.8Zm-70.3.3.5.3L46,96.1l-7,2.6a48.62,48.62,0,0,1,7.1-5.6Zm1.1,1.3a38,38,0,0,0,2.9,7.5c-.9.5-4.1,2.3-4.1,3.2.5,1.6,3.9,3,3.9,3a37.43,37.43,0,0,0-3.5,7.5c-.6-1-.7-5,.6-6.6a16.14,16.14,0,0,1-4.2-2.8c.8-3,4.4-4.8,4.5-4.8-.1.1-1.1-6.3-.1-7Zm-11.4.5a1,1,0,1,1-1,1A1.08,1.08,0,0,1,35.8,94.9Zm78.1.1c4.6,8.6,1.8,16.1-5.4,21.4l.2-2c5-3.7,8.3-11,4.6-17.9Zm-86.7.2a1,1,0,1,1-1,1A1,1,0,0,1,27.2,95.2Zm72.8.1a99.65,99.65,0,0,0-3.6,21.9l-13,.1-.5-4.6Zm-51.8.3s2.8,2.7,5.3,5l-.3.6-2.5.3A49.27,49.27,0,0,1,48.2,95.6ZM45.9,97h0l.2,1.9c-.8,0-10,3.8-17,10a20.07,20.07,0,0,1,4.5-5.2c3.6-3.6,12.3-6.7,12.3-6.7Zm-13,.4a1,1,0,0,1,1,1,1.08,1.08,0,0,1-1,1,1,1,0,0,1,0-2Zm5.7,1.2.5.5-2.4,1.3Zm16.9.6h.1c.4,0,.5.2.7.4a3.33,3.33,0,0,0-1.4-.1.86.86,0,0,1,.6-.3Zm-9.3.4.2,1.4c-5.2,3-11.5,5.9-20.6,14.6v-2.9A65,65,0,0,1,46.2,99.6Zm7.1.1a1.39,1.39,0,0,0,.9,0s-.2.4-.4.4-.5-.4-.5-.4Zm2.2.1c.7,0,1.1.6,1,1.4a16.1,16.1,0,0,0,.1,7.3c.4,1.5.5,2,.2,2.2-3.1,2.2-4.8-7.6-2.2-10.4a1.38,1.38,0,0,1,.9-.5Zm-25.2.3a1,1,0,1,1-1,1A.94.94,0,0,1,30.3,100.1Zm88.9.3,1.9,3.3-2.7,3-1.6-3.5ZM53,102.1l-.1,1.1a8.9,8.9,0,0,0-3.6,1.9c-.2.2,3.2,1.7,3.6,1.4v1.2c0,.4-5.6-1.4-6-2.7.5-.9,4-2.9,6.1-2.9Zm-25.4.6a1,1,0,0,1,1,1,1.08,1.08,0,0,1-1,1,1,1,0,0,1,0-2Zm15.2,1.2a8.35,8.35,0,0,0-1.1,2.9c-3.8,2.4-7.7,4.6-12.5,10H26.6l-.1-.7a72.87,72.87,0,0,1,16.3-12.2Zm9.8.4v1.4a3.94,3.94,0,0,1-2-.6,3.06,3.06,0,0,1,2-.8Zm28.8.1.7.8-.4.4Zm-38.7,3,1.4.9a39.56,39.56,0,0,0-10.8,8.5H30.5c3.5-3.9,7.3-7.4,12.2-9.4Zm75.5,1,.3,3.9-3.6,2,.1-4.1Zm-67.6,0,2.4.3.3,1.1a34.76,34.76,0,0,0-5.5,4.5,20.05,20.05,0,0,1,2.8-5.9Zm-5.9.4,1,.5-.4,1.8a28.49,28.49,0,0,0-7.9,5.6H34.5a42.15,42.15,0,0,1,10.2-7.9Zm9.1,1.7h0l.4,11.9c-10.6,12.6-10,24.7-6.9,35.7l-2-.1a58.64,58.64,0,0,0-5.5-6V117.3h7.3c1.7-3.9,6.4-6.7,6.7-6.8Zm-8.6,1.7.1,1.6a20.11,20.11,0,0,0-3.9,3H38.7C40.6,115,42.4,113.2,45.2,112.2ZM70,113l.4,1.9c-24.5,9-29,35.2-14.5,53.2l-1,1.1C38.3,151,45.6,121.4,70,113Zm-24.6,1.9s.1,1.4.2,1.9H42.9A3.93,3.93,0,0,1,45.4,114.9Zm69,.6-1.6,3.7-4.2.1,1.9-3.7ZM87.7,118h3.8v3.7H87.7Zm-16.6.4.1,1.6c-1.7.9-1.3,2.3-1.7,2.3a36.3,36.3,0,0,0-3.8,1.8,2.29,2.29,0,0,0-2.9-.2c-.9.6-1,1.9-.8,3l-2.9,3.5c-1.4-.6-2.8-.6-3.5.4s-.5,2.4.8,3.9l-1.6,4.2c-.2-.2-2.9.5-2.9,2.2s2.2,2.8,2.2,3l-.1,4.6c-.1-.2-2.3.7-2,2.9.3,2,3,1.8,3.1,1.9l1.5,4.4c-.1-.1-2,1.8-.8,3.5,1,1.5,3.8.5,3.8.4l.8,1.1-.9,1s-.4-.5-.6-.4a4.41,4.41,0,0,1-4.4-1.4c-1.2-1.9.1-4.8.6-4.8l-1-2.5a3.66,3.66,0,0,1-3.5-3.1,4.55,4.55,0,0,1,2.2-4.2l.1-2.7c-.1.2-2.4-1.4-2.3-3.2a4.27,4.27,0,0,1,2.5-3.5l1-.5.9-2.2a6.08,6.08,0,0,1-1-3.8c.6-2.9,4.4-2.7,5-2.4l1.7-2.2a3.49,3.49,0,0,1,2.6-4.7,17.09,17.09,0,0,1,3.3.4l2.2-1.2c-.3-1.6,1.1-2.4,2.3-3.1Zm12.6,4.1H87v3.7H83.7Zm8.8,0h3.7v3.7H92.5Zm-21.1.9v1.4c-21.3,10.5-12.6,32.1-9.5,34.7l-.7,1.5c-3.8-2.3-13.5-27.3,10.2-37.6Zm16.3,3.8h4V131h-4ZM70.4,129l-1.3,3.5-3.9.3,1.4-3.5Zm79.8,2.6h2.7c-5,5.9-10.4,10-15.7,12.2a4.4,4.4,0,0,1,.1-.9,3.78,3.78,0,0,0-.1-1.2,37.91,37.91,0,0,0,13-10.1Zm-13.7,0a9.55,9.55,0,0,1-2.4,2.1l-.4-2.2C134.5,131.6,136.5,131.6,136.5,131.6Zm4.7,0c.3.7-7,4.7-7,4.3v-1.3l3.9-3Zm1.6,0h2.1c-1.9,3-11.6,8.3-11.2,7.6l.4-2.2a43.53,43.53,0,0,0,8.7-5.4Zm3.5,0H149c-4.1,5.2-8.2,7.1-12.1,9.4a3.14,3.14,0,0,0-.9-.1l-1.4-1.1C134.9,140.1,143.7,134.8,146.3,131.6Zm-75.5.2-.1,1.6c-5.7,5-8,11.3-5,18.6l-.7,1.6c-3.2-7.9-2.2-15.5,5.8-21.8Zm25.8.2.3,4.3L79.3,153.7A123.4,123.4,0,0,0,83.4,132Zm56.5,1v2.4c-6.9,7.8-14,11.3-20,12.7l-.1-.9,2.8-1.8c9-4,12.9-8,17.3-12.4Zm-21.1.1c.1,1.7-1.4,4.9-3.1,6.8H126l-.3-1.3a20.69,20.69,0,0,0,6.3-5.5Zm.9.5c1.1,1.8-.5,6.3-.6,6.1-.1.3,9.2,2.3-.4,7,.2,1.4,1.1,4.3.4,6.2-.2-.7-1.9-5.4-3.2-6.6,3-.9,5.2-2.7,4.9-3.3-.5-.9-1.8-1.9-4.1-2.7a16.28,16.28,0,0,0,3-6.7Zm-68.8.9.3,3.6L61,140.2l-.3-3.9Zm59.5,3.3a.85.85,0,0,1,.6.2c1.7.7,1.8,9.1.3,9.9a1.27,1.27,0,0,1-1.9-.6,26.37,26.37,0,0,0,0-8.9,1,1,0,0,1,1-.6Zm29.5.1v3c-9.9,10.5-20.6,18.7-31.6,23.3l-1-1.7A98.36,98.36,0,0,0,153.1,137.9Zm-1.8.3c-4.6,6.5-10.2,10.7-17.9,12.7l-.1-1.8C142.9,146.8,151.6,138.2,151.3,138.2ZM26.1,139.3c6,6.2,12.1,12.4,18.2,18.8l-2.4.1L26,141.5Zm71.4.3.2,1.5L96,143l2.8,3,.1.7-2.4,2.5-1.1-1.1,1.3-1.5-2.2-2.4-4.1,4,3.4,3.7-2.6,2.5-1-1.1,1.3-1.5-2.3-2.4L85,153.6l3.2,3.6-2.1,2.4-1-1.1,1.1-1.3-2.3-2.4-4,3.9,3.3,3.7-2.7,2.7-1-1,1.5-1.7L78.5,160l-2,1.9s.8-1.9.9-2.2c.2-.5.8-.8,5-5,4.9-4.8,10.1-9.6,15.1-15.1Zm28.7,1a14.58,14.58,0,0,1,5.2,1c2.2,1.2,1.5,2.1.1,2.9a11.35,11.35,0,0,1-5.1,1.3l.1-1a18.26,18.26,0,0,0,3.3-1.1,2.79,2.79,0,0,0,.9-.7,5.38,5.38,0,0,0-1.8-1.1,12.85,12.85,0,0,0-2.5-.4Zm-65.5,1.3,1.8,2.8-2.2,3.7-2.1-3.2Zm37.2.3c.1.5.7,2.6.4,2.2L97.1,143Zm28.4.3a7.78,7.78,0,0,1,2.8.5,5.93,5.93,0,0,1-2.8,1Zm25.6,1.4a1.1,1.1,0,1,1-1.1,1.1A1.11,1.11,0,0,1,151.9,143.9Zm-57.5,1.9,1,.9-1.2,1.5,2.2,2.4,2.8-2.6.4,1.7L73.7,175.5l-1.4-.1,1.6-2L72,171.5l.8-1.4,2.2,2,4-3.9-3.3-3.5,2.8-2.9,1.1.9L78,164.5l2.3,2.4,4.2-4.2L81.2,159l2.6-2.6,1,.9-1.2,1.3,2.4,2.5,3.6-3.8-3.2-3.6,2.9-2.8.9.9-1.3,1.5,2.4,2.5,3.9-4.1L92,148.2Zm54.9.7a1.1,1.1,0,1,1-1.1,1.1A1.11,1.11,0,0,1,149.3,146.5Zm-21,.1a11.9,11.9,0,0,1,3,6.9,19.84,19.84,0,0,0-5.5-5.7l.4-1.1Zm24.8.1v2.5A83.85,83.85,0,0,1,126,169.7l-1.7-2C135.9,162.5,144.2,156,153.1,146.7Zm-11.5,1.8-3.2,2.5v-1.1l3.2-1.4Zm-16.4.2a12.52,12.52,0,0,1,6.3,7,107.84,107.84,0,0,1-11.6,6.2,53,53,0,0,1-5.2-9.8c6,0,7.6-3.3,7.6-3.4,1.5.5,1.8.6,2.9,0Zm21.4.5a1,1,0,0,1,1.1,1.1,1.1,1.1,0,1,1-2.2,0,1.1,1.1,0,0,1,1.1-1.1Zm-8.3.7V151a54.61,54.61,0,0,1-4.5,3.5l-1.2-.1.4-3.1a27.36,27.36,0,0,0,5.3-1.4Zm-77.7.1,2.9,2.4-.9,3.8L59.7,154Zm39.1.8.3,1.1-24,24-1.4-.2Zm44.2.9a1.1,1.1,0,1,1-1.1,1.1A1.11,1.11,0,0,1,143.9,151.7Zm8.9,0c.1,0,.3,0,.3.1v2.1c-.1,0-.2.1-.4.1a1,1,0,0,1-1-1.1A1.13,1.13,0,0,1,152.8,151.7Zm-2.7,2.5a1.1,1.1,0,1,1-1.1,1.1A1.11,1.11,0,0,1,150.1,154.2Zm-9.4,0a1.1,1.1,0,1,1-1.1,1.1A1.11,1.11,0,0,1,140.7,154.2Zm-8.1.4h1.1l-2.1,1.3a5,5,0,0,0,1-1.3Zm20.5.5v2.3a89.45,89.45,0,0,1-23,16.9l-1.3-1.4a87.1,87.1,0,0,0,24.3-17.8Zm-15.6,1.3a1.1,1.1,0,1,1-1.1,1.1A1.11,1.11,0,0,1,137.5,156.4Zm9.9,0a1.1,1.1,0,1,1-1.1,1.1A1.11,1.11,0,0,1,147.4,156.4ZM36.4,161c3.8-2.2,6.8-2.5,11.2-1.8l1.3,2.6c-4.2-.8-8.7-.7-12.5,2.3-3.9-2.5-6.9-3.3-10.2-2.8l-.1-2.7A13.64,13.64,0,0,1,36.4,161Zm98-2.5a1.1,1.1,0,1,1-1.1,1.1A1.11,1.11,0,0,1,134.4,158.5Zm10.2.5a1.1,1.1,0,1,1-1.1,1.1A1.11,1.11,0,0,1,144.6,159Zm-13.5,1.7a1.1,1.1,0,1,1-1.1,1.1A1.11,1.11,0,0,1,131.1,160.7Zm10.4.6a1.1,1.1,0,1,1-1.1,1.1A1.11,1.11,0,0,1,141.5,161.3Zm-13.8,1.4a1.1,1.1,0,1,1-1.1,1.1A1,1,0,0,1,127.7,162.7Zm10.8.9a1.1,1.1,0,1,1-1.1,1.1A1.11,1.11,0,0,1,138.5,163.6Zm-14.1.8a1.1,1.1,0,1,1-1.1,1.1A1,1,0,0,1,124.4,164.4Zm-49.3,1,2.8,2.6L75,170.9l-1-1,1.6-1.7-1.1-1.5Zm60.3.3a1.1,1.1,0,1,1-1.1,1.1A1.11,1.11,0,0,1,135.4,165.7Zm-3.2,1.9a1.1,1.1,0,1,1-1.1,1.1A1.11,1.11,0,0,1,132.2,167.6Zm-3.5,1.9a1.1,1.1,0,1,1-1.1,1.1A1.11,1.11,0,0,1,128.7,169.5Zm-57.3,3.2.9.7-1.4,1.7H69.8Zm-17.5,4.7a28.41,28.41,0,0,0-6.9,4.5l-3.2-4.4Zm-21.5,0,8.4.1-2.8,4A18.65,18.65,0,0,0,32.4,177.4Zm10,.5c.9.3,3.3,3.7,4.4,5.6,2.4-1.9,4.7-4.1,7.3-5.3a59.58,59.58,0,0,0-7.6,9.9c-.5-1.5-2-5.7-3.9-7.5a17.34,17.34,0,0,0-4.2,6.3,49.06,49.06,0,0,0-5.8-8.2c-.4-.5,2.7,1.4,5.8,4.5.9-2.2,3.2-5.2,4-5.3ZM32.3,180c1.4,1.2,5.4,6.3,5.8,9.4l-1.9.1c-.9-3.1-2.6-6.3-3.9-9.5Zm20.9.6c-1.4,3-3.2,6-4.5,9.3l-1.9-.1C49,185.2,49.7,184.4,53.2,180.6Zm-10.6,1.3h0a18.61,18.61,0,0,1,3.2,7.7l-1.4-.1a32.36,32.36,0,0,0-1.6-3.9c-.4-.6-.8-.5-1.1,0a17.06,17.06,0,0,0-1.3,3.8l-1.6-.1c-.3-2.2,3.2-7.4,3.8-7.4Zm-.3,8.4c.6,0,1.3.7,1.3,1.9,0,.6-.4,1.9-.9,1.9-.9.5-1.9-1-1.7-2.3.3-.9.8-1.5,1.3-1.5Zm-3.1.3c1.3.1,1.5,3,1,3.6a1.5,1.5,0,0,1-2.3-.9c-.4-1.3.5-2.7,1.3-2.7Zm6.3-.1c1.4.2,1,3.4.3,3.8-1.1.6-1.9-.4-1.6-1.9C44.5,191.3,45,190.6,45.5,190.5Zm3.1.6c1.6.2.7,3,0,3.5-1,.8-2-.4-1.5-1.8.4-1.1,1-1.8,1.5-1.7Zm-12.7,0c1.1.2,1.8,2.8,1.1,3.6-.4.4-1.4-.2-1.9-.9C34.6,192.9,35.2,191.1,35.9,191.1Zm12.2,5.8c.1,1.4-.9,1.4-3.9.7a20.19,20.19,0,0,0-5.5.1c-2.3.4-2.6.3-2.6-.7s1.3-1.7,4.2-1.8C42.5,195.2,47.8,195.1,48.1,196.9Zm4.6-.8c-3.5.3-4.5,4.8-4.1,6.5a23.09,23.09,0,0,1-.3,7.6,28,28,0,0,1-1.3,4.1c-.9,1.9-.7,3.3.7,4a2.89,2.89,0,0,0,3.4-.5c1.6-1.7,1.8-5.4.8-13.6-.3-2.9-.2-3.5,1.2-3.3a2.41,2.41,0,0,0-.4-4.8Zm-.4,3.7c-.8-.3-1.3.4-1.2,2.2a17.48,17.48,0,0,0,.3,2.4c1.1,7.9.7,13.3-1.7,13.5-2.1.3-3.5-1.2-2.5-2.8.6-.9,1.1-1,2.2-.6,1.5,1,1.2-.4-.2-1.5-.9-.6-1-.6-.5-2.6a22.69,22.69,0,0,0,.6-8c-.3-2.4.5-5.6,3.5-5.8s2.1,4.3-.5,3.2ZM30.7,210.3a3.28,3.28,0,0,0,2.9,0,20.26,20.26,0,0,1,1.5-5.4,3.75,3.75,0,0,0-5.9.8,3.43,3.43,0,0,0,1.5,4.6Zm3-5.9c1.1.2,1,1.4-.1,1.1-2.5-1.2-4.6,2.4-2.6,3.8,1,.6,1.5.3.5-.6-.4-.5-.3-.7-.1-1.2.5-1,2.5-.8,2.3-.1-.4,2.3-.7,3-1.4,3-3.9.2-4.7-7.3,1.4-6Zm33.4,4.2s-11.7,13.5-17.4,20.3l70.8-.3L107,209.7C95.5,212.4,81.9,211.7,67.1,208.6Zm-.4,4.3c1.8,0,3.8,1.3,5.5,5.7.1,0,7.8-11.9,14.4.5,1.1-2.8,7.4-10,14.6-.7,2.6-6.2,8.5-4.1,9.1-1.9-.1-.5-5.7-1.8-8.1,2.3-.4.9-.5,1.7,0,2.2a1.21,1.21,0,1,1-1.5,1.9,1.24,1.24,0,0,1-.2-1.7c1.2-.9-1.3-3.7-3.3-4.8-2.8-1.4-6.7-.8-8.5,1.2a7.16,7.16,0,0,0-1.8,2.8c-.1.4,0,.5.2.8.8,1,.3,2.3-.8,2.2-1.4-.2-1.2-1.6-.3-2.3.3-.1.2-.3.1-.6-2.6-7.5-12.4-6.1-13.4-.9,0,.2-.1.4-.1.6.1.5.4.9.3,1.3a1.27,1.27,0,0,1-2.5-.2c0-.6.6-.8.9-1.3a1.1,1.1,0,0,0,.1-1.1c-2.6-5.6-7.2-4.4-9.4-3.2.1-.1,2.1-2.9,4.7-2.8Zm-2.9,3.2a3.45,3.45,0,0,1,2.7,1.4c2.8-1.5,4.7,1.1,4.4,1.3-3.9-2.6-5.2,3.4-1.3,3.2-1.7,3.6,4.4,5.1,3.7.5,3.7,1.3,4.4-3.9.6-3.8,1.2-2.2,4.4-1.6,5.8-.2,1.6-2,5.5-.1,5.9,1.6-4.4-2.3-4.8,4.7-.6,3.2-1.2,4.4,5.5,3.8,3.6,0,4.2,1.4,3.6-4.9-.5-3.7-.2-.3,3.2-4,5.8-.6.3-.6,4.3-2.6,6.5.5-4.7-1.6-3.8,4.8-.4,3.5-.9,4.3,5.2,3.6,3.6-.1,4.7,1.2,2.6-6.1-.7-3.4.5-2.9,4.5-1.7,4.5-1.3,0,0,2.1-2.3,4.5-.6a2.11,2.11,0,1,0,1,3.9c0,1.7,1.4,2.8,3.3,2.3l3,4.2-67.8.4,5.4-6.6c1.8,1.5,3.7.8,3.9-1.6,3.9,2.5,5-3.4,1.3-3.6a6.55,6.55,0,0,1,1.8-.5ZM60,218c.2.2-.1,1-.6.7Zm52.9,1.7c.2.3.3.5.5.8S112.4,220.4,112.9,219.7Z"/><path id="path163-0-2-5-8-7-5-6-5-5" class="cls-2" d="M48.1,64.8s-3.7-6.1-8.7-13.3c-3.4-4.8-6-10-6.3-14.5-.3-5.1,2.4-10.3,7.3-10.5s6.9,3.9,7.7,7.4c.8-3.5,2.8-7.7,7.7-7.4s7.6,5.4,7.3,10.5c-.2,4.5-2.9,9.7-6.3,14.5-4.9,7.2-8.7,13.3-8.7,13.3Z"/><path id="path163-0-2-5-8-7-7-8-9-1-8" class="cls-2" d="M130.6,184.8s-3.7,6.1-8.7,13.3c-3.4,4.8-6,10-6.3,14.5-.3,5.1,2.4,10.3,7.3,10.5s6.9-3.9,7.7-7.4c.8,3.5,2.8,7.7,7.7,7.4s7.6-5.4,7.3-10.5c-.2-4.5-2.9-9.7-6.3-14.5-5-7.2-8.7-13.3-8.7-13.3Z"/></g></g></g></svg>