<svg xmlns="http://www.w3.org/2000/svg" viewBox="0 0 178.8 249.6"><defs><style>.cls-1{fill:#fff;stroke:#000;stroke-width:1px;}.cls-2{fill:#131f67;}.cls-3{fill:#e2cf00;}.cls-4{fill:#d40000;}</style></defs><title>Ks</title><g id="Layer_2" data-name="Layer 2"><g id="svg11376"><g id="Ks"><path id="rect7467-2-2" class="cls-1" d="M9,.5H169.8A8.49,8.49,0,0,1,178.3,9V240.6a8.49,8.49,0,0,1-8.5,8.5H9a8.49,8.49,0,0,1-8.5-8.5V9A8.49,8.49,0,0,1,9,.5Z"/><path id="path7499-2-5" d="M14.2,40.4C10.8,44.8,7.1,47.3,7,50.7A3.21,3.21,0,0,0,9.7,54,2.93,2.93,0,0,0,13,51.3c0-.4.5-.4.5.2a10.15,10.15,0,0,1-1.6,4.9h4.5a11.33,11.33,0,0,1-1.6-4.9c0-.5.5-.6.5-.2A2.77,2.77,0,0,0,18.6,54a3.18,3.18,0,0,0,2.7-3.3c0-3.5-3.7-6-7.1-10.3Z"/><path id="path7503-7-0" d="M164.5,209.3c-3.4-4.4-7.1-6.9-7.2-10.3a3.21,3.21,0,0,1,2.7-3.3,2.93,2.93,0,0,1,3.3,2.7c0,.4.5.4.5-.2a10.15,10.15,0,0,0-1.6-4.9h4.5a11.33,11.33,0,0,0-1.6,4.9c0,.5.5.6.5.2a2.77,2.77,0,0,1,3.3-2.7,3.18,3.18,0,0,1,2.7,3.3c.1,3.4-3.6,5.9-7.1,10.3Z"/><path id="path39-5-1-0" d="M14.8,35h2.6l-3.9-9.7-3,4.1V35h2.1v2.9H5.3V35H7.7V14.1H5.3V11.6h7.5v2.6H10.7V24.4l6.5-10.3H14.9V11.6h7.9v2.5H20.7l-5.4,8.4L20.5,35h2.3v2.9H14.6l.2-2.9Z"/><path id="path39-5-7-0-0" d="M163.9,214.7h-2.6l3.9,9.7,3-4.1v-5.6h-2.1v-2.9h7.3v2.9H171v20.9h2.4v2.5h-7.5v-2.6H168V225.3l-6.5,10.3h2.3v2.5h-7.9v-2.5H158l5.4-8.4-5.2-12.5h-2.3v-2.9h8.2l-.2,2.9Z"/><path id="path4096-2-4-0" class="cls-2" d="M24.1,19.6H154.7V230.1H24.1Zm92.7,209.2c-4.9-8.9-12.5-23.3-12.8-23.4-2.8,1.5-31.8,5.4-45.7,1.6-4.8,7.2-9.4,14.3-13.6,21.4ZM72.3,202.3c-.7,0-1.5.5-1.4.1.1-.2.3-2.5.4-3.3.2-.4.5.6.5,1.5,0,.5.2.1,1.9.2a16.42,16.42,0,0,1,3.8.6c2.1.5,6.2.1,7.9-1.1.9-.7,1.3.1.3.8-4.4,3.4-7.9,2.1-11.7,1.5a4.67,4.67,0,0,0-1.7-.3Zm1.9-3.2a.61.61,0,0,0-.8,0c-1.4.6-1-.3,0-1.2.4-.4.4-.6.1-1.1-.2-.2-.5-.3-.4-.6.3-1.4,2.3-3.6,4.5-4.6.9-.4,1.1,0-.1.7-1.8,1.1-2.4,2-1.4,1.6,2-.7,3.8-.2,6.4,1.1a2.83,2.83,0,0,0,1.7.4c.5-.4.9.1,1.2.3s.2.2.4.2c1.5-.3.6.6-1.4,2-3.6,2.5-7.5,3.7-10.2,1.2Zm5.4.6a12.7,12.7,0,0,0,4.3-2.3c1.3-1.2.6-1-.9-.3a11.05,11.05,0,0,1-6.2,1.3c-2.1,0-2-.1-2.1.1-.2,1,2.6,1.9,4.9,1.2Zm-4-3.5a2.23,2.23,0,0,0,.1-1.1c-.2-.3-.6-.1-1.1.6-.3.4-.3.5,0,.8.2.1.3.2.4.2.5.2.5-.2.6-.5Zm.9.5c.6-2.2,2.1-2.1,3.1-.1h.7c-1.5-4-4.3-2-4.4,0,.4.2.6.1.6.1Zm5.4-.4c.7-.4.6-.6-.3-1.1-.6-.3-.9-.4-1-.2a2.23,2.23,0,0,0,.3,1.4C81.1,196.7,81.5,196.5,81.9,196.3Zm-9.5-6.2a.58.58,0,0,1,.4-.8c2.9-1.3.8-4.2-1.4-2a2.52,2.52,0,0,1-2.6.5c-.8-.3-.8-1.3.2-1.5.3-.1,1.2-.2,1.5-.5,3.9-2.1,5.9,2.4,3.2,3.9-.6.4-1.1.6-1.3.4ZM61.6,186a2.48,2.48,0,0,1-.3-4.2c.9-.6,1.9-.8,4.5.5,1.8.9,2.9-.1,2.8,1,0,.6-.1,1.3-1.1,1.4-1.7.3-2.9-2.1-5.1-1.9a1.27,1.27,0,0,0-.2,2.5c1.5.6.5,1.2-.6.7Zm28.9.4c-.3.1-.4-.5-.3-.8.8-1.9,1.5-3.3,2.2-5.1.6-1.4.9-2,1.2-2s.4.2-.1,1.1c-.6,1.7-3,7-3,6.8Zm-12.9-.5c-.7-.5-.6-1.2.2-.7,1,.7,2.7-.6,2.3-1.8-.4-1.5-2.4-1.9-4-.5-2.6,2.1-5.5,2.2-5.5.6,0-.5-.1-.6,1-.7a9.05,9.05,0,0,0,3.4-1.1c3.2-1.9,6.6-.6,5.9,2.6A2.3,2.3,0,0,1,77.6,185.9Zm-11.7-4.8c-.3,0-.7.3-.9.2s-.2-.8-.4-1.4c-.4-1.1,0-.8.7-.5a3.35,3.35,0,0,0,2.6,0,8,8,0,0,1,3.5,0,7.75,7.75,0,0,0,3.4-.2c1.3-.4,1-.3.8.6-.1.5-.3,1.3-.5,1.4a2.15,2.15,0,0,0-2.2,0,3.78,3.78,0,0,1-2.5.3,1.49,1.49,0,0,0-1.8,0c-1.2.5-1.7-.3-2.7-.4Zm20-2.2a7.62,7.62,0,0,0,.7-1.3c2.1-4.1,2.2-5.3.7-6.6-2-1.9-3.6-1.1-5.5,2.7-.5.9-.7,1.6-.9,1.9s-.5.1-.6-.1,1.9-4.2,2.7-5.1a3.46,3.46,0,0,1,5.9,2.6c-.1,1.5-.4,2.4-1.8,5.2-.3.7-.7,1.3-.8,1.6-.8.4-.6-.6-.4-.9Zm-19.5-.2c.3-1.5,5-2.1,6.2-.2.1.2,0,.2-.5,0-2.4-.8-2.9-.7-5.1.2-.3.1-.6.2-.6,0Zm17.9-.3a7.87,7.87,0,0,1,.4-1.2c1.6-3.1,2-3.8,1.5-4.4-.9-1.1-2.2-.1-3.3,3.1-.4,1.2-.7,1-.9.8-.4-.4,1.4-4.1,2.2-4.7,1.9-1.2,3.5.2,2.6,2.7-.7,1.1-1.2,2.9-1.8,3.8-.3.4-.7.3-.7-.1Zm-7-5c-.1-.2.1-.4.8-1.8.9-2,1.2-2.7.8-3.9a3,3,0,0,0-4.7-1.2,5.27,5.27,0,0,0-1.1,1.5c-.6,1.2-1,2.8-1.3,3.2s-.7.3-.7-.2a16.77,16.77,0,0,1,1.4-3.5c2.1-4.7,8.3-2.5,6.9,2.4a15.17,15.17,0,0,1-1.5,3.6C77.6,173.8,77.3,173.6,77.3,173.4Zm-1.5-.9a4.25,4.25,0,0,1,.5-1.2c1-2.6,1.1-3.4-.5-3.4-.9.1-1,.5-1.8,2.5a5.39,5.39,0,0,1-.6,1.3.45.45,0,0,1-.6,0c-.3-.3,1.1-3.7,1.9-4.3,1.7-1.5,4,.6,2.9,2.6a15.12,15.12,0,0,1-1.2,2.7c-.3.3-.6.3-.6-.2ZM38.9,142.3l-5.3-.4c.9,5.7,1,11.9,0,16.3A33.52,33.52,0,0,0,33,168c.3,3.8,1.9,7,2.3,11.1.3,2.9-.4,6-.9,8.9-1,4.9-.8,5.4-.6,11.1.1,5.3-.4,5.1-.7,4.8,0,0-.1-1-.1-2.1s-.1-3.8-.1-5.7a40.88,40.88,0,0,1,.6-8.5c.6-2.8,1.3-5.7.9-8.7-.9-3.9-2.1-7.8-2.5-11.6-.5-4.6.8-9.3,1.2-12.7s0-8.9-.9-11.2a5.11,5.11,0,0,0-.8-1.8,19.94,19.94,0,0,0-2.7-.2c-.1,22.3,0,44.7,0,67l4.9,4.6,5-4.8Zm.4,25.6s7.5,4.3,15.7,8.6c-.8-4.9,1.7-5.6,4-6.2-.6-9.4,8-7.5,9.3.7h.8c1.5-4.1,3-6.9,6.3-7.6,2.6-.5,5.2,1.1,5.9,5.1-.1-.3,8.7-5.2,8.9,5.2,4-2.5,6.9-.3,8,2.8,1.7-2.6,5.9-2.7,7.3-2.9a3.35,3.35,0,0,1,2.8-.8c1.3-.1,3-1,3.9.1,1.4.2,2.4,0,3.6.9.9.7,2,2.3,3.5,1.2,2.9-1.4,6.2-2.1,8.9-3.8,0,0-.7-.9-.5-.8s.4.5.9.7c.2.1,1.8-.9,1.8-.9-10.9-12.7-19.9-37.4-14-60.3.2-.4-.5-.5-.8-.7.1-.2,1.7.1,1,1.5a109,109,0,0,0-1.6,12.8v.8c24.5,11.4,21.5,36,15.2,44.6l1,1.3c.4.3,19.3-10.8,18.7-11.2l3.6-1.8-.6-48.3-14.1-1.1a3.21,3.21,0,0,1,.3-.5c.1-3-.1-7.3,0-11,.1-10.4.2-14,0-14.3-4.4-2.9-10.8-7.1-16.3-9.1a18.39,18.39,0,0,1-.3,4.6c-5.1,1.6-2.7,3.7-4.6,6a4.07,4.07,0,0,1-5.7,0c-1.7-1.7-2.5-5.5-2.5-5.5-2.7,2.9-2.1,6.4-5.8,7.7-5.8,2.9-7.7-5.8-7.3-5.6-2.2,2.2-8.5,3.9-9.2-5.2-2.8,2.6-6,1.3-7.3-1.9-1.7.1-3.6,1.4-5.4,2.1a14.29,14.29,0,0,1-5.2,1.1,12.86,12.86,0,0,1-5.2-.3c-.8.3-2.6-.5-3.2-1.7a2.18,2.18,0,0,0-2.4-.9c-2.8,1.5-5.8,1.8-9.1,3.4-.2.1.3.4.1.4s-1.7.8-1.7.8c16.7,22.1,17.6,44.4,14.1,60.2a1.72,1.72,0,0,0,.1,1.4c-.5-.1-.5.1-.6-.3l1.7-13.3c.1-1.6.3-1.5-1.2-2.1-1.3-.6-2.5-1.1-3.6-1.7-4.1-3-8.7-6.8-10.9-11.4-6.4-10-4.3-22,.5-31.5L46.9,78A108.62,108.62,0,0,0,24.6,92.7l.1,47.4,14.4,1.7Zm-6.9-31.6a1.82,1.82,0,0,0-2.1-.2,6.13,6.13,0,0,0-.4.6c-.7-.2-1.1-.3-1.2-.9l.7-1.1c.5-.8,1.3-1.1,2.7-1.4a10.63,10.63,0,0,0,1.4-.3c1-.4,1.3-1.4.3-1-.7.2-1.8.1-1.9-.5a.85.85,0,0,0-1.1-.7,6.78,6.78,0,0,0-2.7,1.3,7.91,7.91,0,0,0-1.1.8c-.1.2-.5-1.1-.1-1.5a2.25,2.25,0,0,0,1.4-.1c1.2-.5,2.3-1.1,3.5-1.5.8-.3.8-.3.6-.8a2.36,2.36,0,0,1-.1-1.2c.1-.4.1-.6-.1-.7-.5-.4-1.8,0-3.7.9a7.62,7.62,0,0,0-1.3.7,2.88,2.88,0,0,0,.1-1.3,3.51,3.51,0,0,0,2-.5,5.68,5.68,0,0,1,2.4-.7c.4,0,.2-1.4-.2-1.8s-1.2-.4-2.2-.1a3.59,3.59,0,0,0-2.6,1.4c-.8.7,0-1.2,1.4-2a12,12,0,0,0,2.3-.4c.5-.1.6-1.4-.2-2-.5-.4,1.8-.5,1.8-.3s-.1.6.1.8c1,.3,1,1.1,1.1,1.5,1.1,1.9,1.7.7,2.5.1-.2,4.1,1.3,4.6,1.5,4.8-2,3.7-.5,3.8,1.4,4.6a3.87,3.87,0,0,1-1.2.3,7.07,7.07,0,0,0-2.8,1.3c-.3.3-.3,0-1.7,0a4.31,4.31,0,0,0-2,.3c-1.1.5-1.1,1,0,.8a2.07,2.07,0,0,1,2.5,1.5.78.78,0,0,1,0,.5c-.2,0-.8,0-.8-.1a2,2,0,0,0-.2-1.1Zm1.7-5c.3-.2.4-.8.1-1a2.1,2.1,0,0,0-1.7.2c-.7.5.6,1.4,1.6.8Zm.7-2.5a1.09,1.09,0,0,0,.1-1.5,1.35,1.35,0,0,0-2.2.6c-.1,1,1.3,1.5,2.1.9Zm-.5-3.4a1,1,0,0,0-1.5-1c-.9.5-.4,1.5.8,1.4.7,0,.7,0,.7-.4ZM31.6,122c-.4.2-.5.7,0,1.1C33.2,124,32.7,121.6,31.6,122Zm113.5,5c-.7-2.6-2.7,0-2.7,0-.1-2.7.4-3.9-1.6-4.8,2-3.1,1.6-3.5-.5-4.7.2,0,2.9-.6,3.3-2.1.1.1,4.2,1.1,4.7-1.2-1.2.6-3.6.6-3.7-1.8.2-.1.8,0,.8.1-.3,1.5,2.5,1.9,2.9.7a6.88,6.88,0,0,0,1.3.7s-1.3,1.9-2.5,2.1c-2.2.7-2.9.9-2.9,1.3,0,.2.4.2,1,.3,1.3.1,1.3.4,1.5.8s.3.5.8.4a7.17,7.17,0,0,0,3.4-1.9c.1,0,.3,1.1.4,1.2,0-.2-1.1.1-2.8,1.1-1.4.8-1.9.9-2.1,1.1s.2.7.2,1.2-.3.7-.1.8.7.1,1.2,0a10.91,10.91,0,0,0,3.1-1.4c-.2.4.2,1.5.2,1.5a1.12,1.12,0,0,0-1-.2,18.67,18.67,0,0,1-2.6,1c-.4.1-.5.1-.6.2s-.1.5-.1,1-.1.7.1.8a4.54,4.54,0,0,0,2.5-.2l1.4-.7-.3,1.5c-.4-.4-1.5-.1-2.3.2-.4.1-.5.4-.6.7a.82.82,0,0,0,.6,1.1,2.64,2.64,0,0,0,.7.1c-1.9.7-1.6,1-2.7.5a2.23,2.23,0,0,1-1-1.4Zm2,0a1,1,0,0,0-1.2-.4c-.3.2-.2.5-.1.7.2.6,1.9.4,1.3-.3Zm-1.1-1.9c.5-.6,0-1.4-.9-1.4a.82.82,0,0,0-.9.8c0,.9,1.4,1.1,1.8.6Zm-1-2.3a.92.92,0,0,0,.5-1.6,2,2,0,0,0-2.1-.1c-.8.9.2,2.1,1.6,1.7Zm.7-3a.71.71,0,0,0,.2-1.2c-.8-.7-2.2-.1-1.7.8a1.08,1.08,0,0,0,1.5.4ZM44.5,97c.7-.3,1.3-.9,2.1-1.3.5-.3.4-.2-.3-.6-.5-.2-1.6-1.3-1.7-1.1A6.2,6.2,0,0,0,44.5,97Zm18.8,26.5c0-.5.1-1.3.1-1.9.1-1.1-.1-.8-.7-.4a7,7,0,0,1-1.4.8c-1.1.5-.9.6.6,1.3,1.2.6,1.3.5,1.4.2Zm-1.5-2.6c1-.6,1.4-1,1.4-1.7s-.1-1.1-.8-.6c-2.5,2-5.1-1.9-2.8-4.1a3.71,3.71,0,0,0,1.1-1.3c0-1.3-1.4,0-2.5,1.7-1.3,1.6-2.1,3.5-.9,5.4.8,1.4,2.8,1.7,4.5.6Zm-5.7-2.5a4.87,4.87,0,0,1,.2-1.5c.3-.7.3-.8-1-.2a4.51,4.51,0,0,1-1.3.3c-1,0-.8.3.7,1.6s1.6,1.3,1.4-.2Zm3.6-6c.2-.4-.2-.5-.5-.5,0,0-.6.4-1.2.9-1.9,1.5-3.4,1.7-4.3.5s-.6-2.6,1.6-4.2c1-.7,1.2-.8.7-1.1s-.4-.2-1.8.7c-2.8,1.9-3.6,3.2-3.3,5.1a2.05,2.05,0,0,0,.9,1.5c2.6,2.5,6.3-.8,7.9-2.9Zm2.8,1.1-.2-2.6a22.67,22.67,0,0,1-6.4-10.1c-.9-3.1-.2-9.5,0-9l-1.5-2.9a19.52,19.52,0,0,0-.5,12.6c1.2,4,3.6,8.9,8.6,12ZM50.6,112c.9-1.7.9-1.5-.8-1.6-2,0-1.8-.3-.6,1.4C50,113.2,49.9,113.3,50.6,112Zm1.2-2.4a7.21,7.21,0,0,0,2.4-1.3c1.7-1.1,1.8-1.8.1-.9-2.2,1.1-4.2.8-4.9-.6s.7-2.9,2.9-3.6c.8-.2,1.2-.4,1.2-.7,0-1-3.8.3-5.4,1.9-3.1,3-.5,6.5,3.7,5.2Zm-4.9-4.7c.1-.2.4-.5.6-.9,1.1-1.3.2-.9-.8-1.2a2.4,2.4,0,0,0-1.3-.3c-.6.1.2,1.2.4,1.9C46.3,106,46.2,105.9,46.9,104.9Zm4-2.8c1.9-.2,2.1-.4,2.1-.8s-.2-.3-1.2-.2c-2.6.4-4.2-.3-4.6-1.7s1.4-2.8,3.7-2.7c1.2,0,2.1-.4,1.3-.8a14.4,14.4,0,0,0-4.6.1c-2.3.7-3.2,1.9-3,3.7.3,2.2,1.5,2.8,4.4,2.7.5,0,1.2-.3,1.9-.3ZM52.4,95c0-.3-.5-.4-2.4-.7-2.4-.4-3.5-2.6-2-4a4,4,0,0,1,2.6-.6c1.6.3,2.6.6,2.6.1s-.5-.5-3.4-1.2c-4.5-1-7,3.5-3.4,5.7,1.3.9,6,1.3,6,.7Zm1.1-6.4c0-.2-.1-.3-.5-.4a6.83,6.83,0,0,1-2-1c-1.5-1-1.9-3-.9-4.1s-.8-2.2-2.2-1.1-1.3,3.1.3,4.6S53.5,89.4,53.5,88.6Zm-7.3-.3c1.6-.7,2.7-.3,1.5-1.3-.7-.6-1.2-2.4-1.7-.9a10.27,10.27,0,0,0-.6,2.7A5.52,5.52,0,0,1,46.2,88.3Zm55.5-3.8A3.83,3.83,0,0,1,99.1,80a26.75,26.75,0,0,1,1.5-4c.8-.6.7.2,0,1.7s-1.2,2.7-1,3.6c.3,1.3.8,2.2,2.1,2.5a3.23,3.23,0,0,0,2.4-.6c.8-.5,1.5-2,2.4-3.9.3-.5.7-2.2,1.1-1.2.2.5-1.6,4.1-2.3,5A4,4,0,0,1,101.7,84.5Zm10.8-1.2a3.86,3.86,0,0,0,3.3,1c2.4-.8,3.4-3.1,2.5-6.7-.5-2-.8-3.3-1.2-3.5-.2-.1-.4.1-.6.4s.1.6.4,1.6c1.1,4,.8,5.8-.5,6.6-2,1.1-3.7-.2-4.3-3-.1-.4-.4-1.3-.4-1.3-.2-.4-1.4-.3-.9,1A9.13,9.13,0,0,0,112.5,83.3Zm10.1-10.5c0-1.4-3-7.5-3.2-6.9a18.15,18.15,0,0,0,.1,2c0,.2.2.4.3.6,2.6,4.6,2.2,7.8-.1,8.5-.8.3-.9.7-.6,1,.7.7,2.4-.7,2.7-1.3C122.8,75.7,122.6,73.5,122.6,72.8Zm-42.9-1A25.62,25.62,0,0,0,83.4,65c2-5.8,4.1-12.5,4.7-18.8a20.74,20.74,0,0,0,.1-2.1,2,2,0,0,0-1.5.1c-.2.2-.1.7-.1,1.3a88.46,88.46,0,0,1-5,19.8,31.1,31.1,0,0,1-3.4,6.6c-.2.3-.5.7-.6.9-.3.5-.1.8.3.6a5.71,5.71,0,0,0,1.8-1.6Zm-3.2,1.7a48.51,48.51,0,0,0,7-15.4,97.1,97.1,0,0,0,2.6-11.9c.1-.9.2-1.4,0-1.7a2.51,2.51,0,0,0-1.5.2c-.2.3-.1.8-.2,1.9a82.57,82.57,0,0,1-2,9.9c-2.6,8.7-5,13.6-8.2,17.9-.3.4-.5.6-.5.7s.3.2.8-.1a17.34,17.34,0,0,0,2-1.5Zm-4.7,2.2c1.5-.9,4.2-4.6,6-8.6a89,89,0,0,0,5-14.8,51.61,51.61,0,0,0,1.1-7.5c-.1-.4-1.6-.1-1.4.2a123.72,123.72,0,0,1-3,12.7c-2.9,8.4-5.4,14-8.2,16.8l-1.1,1.1s0,.3.2.4a2,2,0,0,0,1.4-.3Zm-2.3-.3c3.4-1.9,7.4-10.8,10.6-22.1.6-1.9,1.6-8.3,1.6-8.3a5.5,5.5,0,0,0-1.6.3c-.3.4-.2,1.4-.6,3.7a77.9,77.9,0,0,1-7,20c-1.4,2.8-3.8,5.5-5.3,6.3-.8.4-1.1.9-.5.9,1,0,1.1.3,1.9-.2ZM116,175.3c-2.5,0-4.7,2.5-6.6,5.5-4.1,6.3-6.9,16.9-7.5,22.6l1.5-.3c-.2.1,2.9-15,7.6-21.4,2.6-4.1,2.5-4.1,3.9-4.5,1.8-.5,3.3,1.5,2.4,2.7-.3.4-.7.1-.6-.5.3-1.8-2.3-2.2-3.1-.4-.9,2.1,1.4,3.9,3.7,3.1,2-.7,2.8-3.5,1.4-5.6a3.57,3.57,0,0,0-2.7-1.2Zm-13.4-.3c-3,3.9-4.6,7.8-6.4,13.2A69.77,69.77,0,0,0,92.4,205l1.6-.2c-.1-3.9,4.2-22.5,10.1-29.4a4.32,4.32,0,0,0,.6-.9C104.4,173.5,103,174.6,102.6,175Zm6.7-1.4c-4,3.3-7.1,10.4-9.2,17-2.2,7.1-3.3,13.6-3.1,13.6l1.6-.2c-.1-.4,4.4-25.5,12.8-30.1.7-.4.9-.7.3-.9a3.75,3.75,0,0,0-2.4.6Zm4.4,0c-8.6,1.1-14.3,27.8-14.5,30v.2l1.7-.4v-.1c1.2-6.8,2.3-11.6,5-17.8,2.1-4.6,5-10.4,9.3-11,.4,0,.7.1.6-.3-.2-.6-1.5-.6-2.1-.6Zm-51.4-8.4c-3.1.8-3.2,4.6-1.1,9.4.2.4.1.6.3.7.4.3.6-.1.7-.4a3.49,3.49,0,0,0-.5-1.9c-1.3-3.3-1-5.3.3-6.1,3.3-1.7,4.1,1.8,4.6,3.4.1.4.2.9.4,1a1.52,1.52,0,0,0,1-.1s-.9-3-1.4-4.1a3.51,3.51,0,0,0-4.3-1.9Zm-22.6,3.5v39.7l-6,5.7c-2.6-2.2-5.9-5.7-5.9-5.7l.1-67.1-1.9-.2c-.5,28.8,0,58.3,0,87.2H43.5l14.6-23a1.47,1.47,0,0,0,.2-.4c.2-.4.2-1.1.1-3.6,0-1,.1-1.8-.1-2s-.5-.1-.7.1-.5.1-.3-.3a9.05,9.05,0,0,0,.6-1.1c.8-1.4,1-1.8.7-3.3a3.38,3.38,0,0,0-.7-1.1c-2.5-3.7-3.5-9.1-2.2-13.1a3.59,3.59,0,0,0-.6-3.5ZM117,126c-1.6-.8-1.6-.8-1.6.8,0,1.2,0,1.5.5,1.3s1.4-.6,2-.9c1-.3-.4-.8-.9-1.2Zm6.3,4.1c-1.2-1-.8-.9-1.1,1.4-.2,1.4-.5,1.4.9.9.8-.3,2.4-.1,1.7-1C124.8,131.4,123.6,130.3,123.3,130.1Zm-50,34.8c-1.9,1.2-3.9,6.8-3.9,6.8-6.7.8-9.5,7.4-9.8,13-.2,4.4-.5,9.5-.1,9.9,4.4-2,6.1.3,6.5-.3.2-.3-1-1.2-2.4-2a10.54,10.54,0,0,1-1.1-.7c-.5-.4,1.1-.1,2.1.6,1.3.9,1.5.7.9-1.9-.6-2.8-.7-3.1,1.4-4.3a4.71,4.71,0,0,0,1.9-1.5c.5-.6.6-.7.4.1-.3,1.4-1.6,2-2.7,2.6a1.51,1.51,0,0,0-.8,1.4c0,.5.6,3.2.8,4.1s.3,1.7.5,2.5a9,9,0,0,1,.3,4.2c-.1.9-.2,1.5-.2,2a10.53,10.53,0,0,0,.1,1.2s-1.2-1.2-3.8-.2a4.87,4.87,0,0,1-4.4-.6,12.74,12.74,0,0,0-.2,2.8,96.66,96.66,0,0,0,28,.9,89.84,89.84,0,0,1,3.3-16.4,48,48,0,0,1,2.9-7.7,8.21,8.21,0,0,1,1.8-2.4l.1-.1v-.2a1.87,1.87,0,0,0-.5-1.4c-.9-.7-2.3.2-2.8,1.8a52.61,52.61,0,0,1-2.4,5.1c-.1-.1-.4-.1-.3-.4.7-1.7,1.7-3.5,2.3-5,.8-2.2,2.5-3.4,3.7-2,.4.5.6.9.8,1.1s.4,0,.5-.2c.5-.7-.6-2.4-1.8-2.7-1.7-.5-3,.8-4.9,4.8-1.1,2.3-1.3,2.9-1.5,2.8,0,0-.3,0-.2-.4a28.78,28.78,0,0,1,2.8-5.6c1.6-2.7,4.5-2.9,5.8-.6.2.3.2.7.4,1,.4.5,1,.4,1.2-.4-.2-.5-1.2-2.5-1.9-2.8a4.29,4.29,0,0,0-5.4.6c-.4.3-.8,1-1.9,3.3-1.7,3.7-1.7,3.7-2.1,3.1.7-1.8,2.4-4.7,3.1-6.5a3.09,3.09,0,0,0,.2-.8c0-1.3.2-3.6-2.6-5.2-2.3-1.3-5.4.1-6.4,2.6a12.53,12.53,0,0,1-1.8,3.5c-.6.4-.5-.1-.4-.3.8-1.7,1.9-3.5,2.1-5.2a4.62,4.62,0,0,0-7.6-4ZM49,76.9a66.34,66.34,0,0,1,9.9-3.7c.5-.2.6-.3,0-1.3-2.4-4.7,4.1-8.5,6.4-3.9.3.6.4,1,.7.7.5-.7,1.2-1.7,1.9-2.9,2.5-3.9,3.6-8.3,4.9-12.3a41.77,41.77,0,0,0,1.5-7.2c-4.9-8.7-13.6-24.6-13.6-24.6H25.9V91.4C35.6,83.1,42.2,80.2,49,76.9Zm38.9-2.6c.4-.4.8-1.2,2.3-4.3l.9-1.8c.2-.7,1.1-1.2.7.1-.1.3-.3.7-.5,1.2-.5.9-1,2-1.3,2.7-1.9,3.9-1.8,6.2.3,7.9a4.6,4.6,0,0,0,6.8-.8,6.4,6.4,0,0,0,.6-1.1,30.13,30.13,0,0,1,1.5-3.1c.8-1,.9.2-.3,2.2a5.75,5.75,0,0,0-.2,6.4,4.7,4.7,0,0,0,7.2.6h0a14.69,14.69,0,0,0,2.6-5c.2-.5.3-.8.4-1.1s.4-.6,1.1-.7c4.4-.9,8.2-5.5,8.7-10.5a23,23,0,0,0,.3-2.6c.1-1.4.1-8.8,0-9.3-.1-.2-.2-.4-.5-.4a8.38,8.38,0,0,0-1,.2,4.53,4.53,0,0,1-3.6.2,2.4,2.4,0,0,0-1-.2c-.6.1.2,1,2,1.9.8.4,1.4,1,.8,1-.2,0-2.4-1.2-2.7-1.3-1-.6-.7.2-.2,2.2.7,2.7.3,3.5-1.9,4.6a5.38,5.38,0,0,0-1.2.9c-1.1,1.7-.8.4-.3-.5,1-1,.4-1.4-1.6-.7-2.3.8-3.3.2-4-1.1a2.41,2.41,0,0,1,1.8-3.3c.4,0,.3.1-.2.5a1.86,1.86,0,0,0-1,1.7c-.1,1.6,1,2.2,2.5,1.2a7,7,0,0,1,1.9-1c.6-.1,1.4.1,1.4.5v.7c.1.5.9-.2,1.3-.5,1.2-.9,1.1-1.1.8-2.5-.5-2-.8-3.8-1.3-5.9a7.81,7.81,0,0,1-.1-3.4,15.69,15.69,0,0,0,.3-2.4V45.6c1.2.9,1.6,1.1,2.8.6,1.8-.7,2.9-.7,4.3.1a7.91,7.91,0,0,0,1,.5l.1-2.3s-1.4-.3-3.9-.6c-7.6-1-23.2-1.2-23.8-.3-.1.2-.3,1.9-.7,4.2Q89.65,55,87.7,61.9c-.3.9-.6,1.3-.4,1.4s.3-.4.5-.5c.7-.9.2,1.2-.9,3.7a4.71,4.71,0,0,0-.2.5,26.21,26.21,0,0,1-1.2,2.9c-.3.6-.6.8-.5.4.3-1.4,1.2-3.3,1.4-4.5-.8,1.1-1.9,3-2.8,4.2-.2.3,0,.4.1.8.5,1.4,1.8,1.5,2.5.3a40.9,40.9,0,0,0,2.1-4.6,11.17,11.17,0,0,1,.9-1.9c.3-.2.4.5-.2,1.7-1.6,3.5-2.3,5.4-3.1,6.1a1.47,1.47,0,0,1-2.3-.5c-1-1.7-1.9-1.1-.9.6a2.46,2.46,0,0,0,4.3.3,50.6,50.6,0,0,0,2.7-5.3c.3-.8.6-1.4.8-1.4.6-.2-.1,1.5-1.8,5.1-.6,1.4-1.4,2.8-2.6,3.2-2.9.6-3.3-.9-4.3-2.7-.5-.4-.9.3-.8,1a3.49,3.49,0,0,0,1.8,2.4,3.63,3.63,0,0,0,5.1-.8Zm13,7.4a2.79,2.79,0,0,1-.1-1.8,14.19,14.19,0,0,1,1.4-3.6c1-.5.2,1.4.1,1.6-1.2,2.4-1.3,3.4-.2,3.7.9.2,1.4-.3,2.3-2.5.4-1.1.6-1.6.8-1.7s.5,0,.5.3a15.6,15.6,0,0,1-2,4.1c-.9,1-2.3,1-2.8-.1Zm-8.6-1.8a5.88,5.88,0,0,1-1.6-1c-1.6-1.5-1.4-3.6.7-7.5.2-.3.7-1.5.9-1.9.3-.7.7-.4.7,0a21.15,21.15,0,0,1-1,2.2c-2.2,4.4-2.2,6.2,0,7.3s3.1.4,4.8-2.9c1-2.5,1.5-2.6,1.4-1.6a15.93,15.93,0,0,1-2,3.9,3.38,3.38,0,0,1-3.9,1.5Zm.1-2.2a2.37,2.37,0,0,1-.7-2.9c.4-.9,1.6-4.2,2.1-4.4.9,0,.4.7-.7,2.8-1.3,2.7-1.2,3.5-.2,3.9s1.3-.4,2.7-3.6c.2-.5.5-1,.7-.9s.6.1-.1,1.6c-.2.3-.5,1.1-.8,1.7-.9,2-1.9,2.5-3,1.8Zm15.1-5.8c-.4-.2-2.1-.9-1.8-1.4,0-.1.1,0,.2,0a4.65,4.65,0,0,0,5.6-.1c.3-.3.6-.1.4.3C111.2,71.9,108.4,72.4,107.5,71.9Zm-5.1-1.8c0-.1.2-.5.3-.9.2-.7.1-1.2.3-1.2a3,3,0,0,0,2.6,0,3,3,0,0,1,2.6-.2,1.11,1.11,0,0,0,1.6-.1c.6-.5.6-.3,1.6.1.8.3,1.1.5,1.4.4.1,0,.4-.3.5-.3s.3.8.5,1.6.1.9-.6.5a4.47,4.47,0,0,0-3.3,0,3.83,3.83,0,0,1-2.1.1c-1.9-.3-3.3-.6-4.7.3-.7.2-.9.5-.7-.3Zm-4.8-3.5c-.9-1.9,1.2-4.4,3.1-3.5.6.3,1.2,1.4.3.9-4.3-.9-3.2,5.5,1.4,2.1,3.1-2,5.2-2.4,5.4-.4-.1.7-.7.6-1.2.7a11.64,11.64,0,0,0-3.2,1c-2.3.7-4.5,1.3-5.8-.8Zm16.8.9a26.28,26.28,0,0,0-3-.9c-1.1-.2-1.6-.8-1.4-1.5s1.3-.9,2.9.1c1.8,1.1,3.1,1.4,3.8,1,1.3-.8.6-2.2-.7-2.6-1-.3-.3-.6.8-.3,1.7.6,1.7,3.6,0,4.3a10,10,0,0,1-2.4-.1Zm-14.6-10a18.39,18.39,0,0,0,2.8-1.9c.2-.2.8-1,.4-.8-2.5,1.5-5.4.3-7.4-.8-1-.5-.8-.3-1.5-.2-.5,0-.9.1-1-.2s-.3-.1-.5-.1c-.8-.1-.3-1.1,1.3-2.2a16.8,16.8,0,0,1,5.2-2.6,4.72,4.72,0,0,1,4.7,1.1c.5.5.4.8.9.5,1-.7,1,.2.2,1-.6.6-.4.7.4,1.3.3.3.1.5-.1.9-.1.2,0,.5-.1.7-.2.8-3.8,3.6-5.1,4.1-1,.1-.5-.6-.2-.8Zm2.5-5.3h-.6c-.7,2.1-2,2.8-3,.3h-.5C98.2,54.7,101.9,56.1,102.3,52.2Zm-3.9,2c-.2-.4-.5-1.4-.8-1.4-.7,0-1.7.1-1.5.5C96.5,54.1,98.7,54.7,98.4,54.2Zm4.8-.4c.7-.4.8-.7.4-1.1-.5-.6-.8-.3-1,.6S102.5,54.3,103.2,53.8Zm-8.8-1.4c4.4-2,6-2.3,7.8-1.8a9.25,9.25,0,0,0,1,.3c.9-.1.3-1-1.2-1.6-1.7-.6-2.8-.3-6.2,1.4-2,1.1-3.6,2.7-1.4,1.7ZM107,49.9a8.34,8.34,0,0,1-.4-1.2c-.1-.3-.1-.6-.2-.6a12.39,12.39,0,0,1-4.3-.2,14,14,0,0,0-8.2.3c-.5.2-1.2.6-1.3.6-.2.2-.4,0-.4-.2a9.42,9.42,0,0,1,2.2-1.8,11.53,11.53,0,0,1,8.4-.7,5.43,5.43,0,0,0,4.5.1c.6-.3.2.4,0,1.3a7.44,7.44,0,0,0,0,1.5c0,.9-.1,1.3-.3.9Zm45.7,178.4V158.4c-17.4,12.1-25,14.5-33.2,17.5,2.7,5.6-3.3,10.5-6.8,4.7-3.6,4-8.5,18.2-8.6,22.9,0,0,9.5,16.5,14.1,24.8ZM89.4,205.4A71.92,71.92,0,0,1,92.8,189a54.32,54.32,0,0,1,3.8-9.2c.7-1,.7-1.4,0-1.1a13.69,13.69,0,0,0-2.7,3.1c-3.1,6.6-4.5,14.6-5.7,20.6a17.47,17.47,0,0,0-.3,3.1Zm2.3-.3c.7-8.5,3.9-20.1,8.5-27.6.4-.7,1-1.3,1-1.6-.1-.7-1.9.5-3.3,2.7a71.31,71.31,0,0,0-4.3,10.1,65.94,65.94,0,0,0-3.4,16.5Zm4.5-.7c.5-4.9,2-9.4,3.3-14a48.35,48.35,0,0,1,6-13.3c.8-1.2,1.7-2.3,2.6-3.4a1.06,1.06,0,0,0,.2-.5,2.09,2.09,0,0,0-1.4.3,8,8,0,0,0-1.9,1.8c-3.4,4.4-5.3,9.6-7,14.8a61.1,61.1,0,0,0-3.1,14.4Zm-30.9-3.8c.7-.1,1.1.1,1.3-.1s.1-.7.2-1.3c.1-1.4,0-1.3-.8-.4-1.4,1.4-3.9,2-5.4,1.1-.8-.4-1.3-.7-1.4-.4a.82.82,0,0,0,.4,1C61.4,201.4,63.1,200.8,65.3,200.6Zm-1.7-1a4.73,4.73,0,0,0,2.5-1.6c.5-.8.5-.9.1-.7-2,1-3.2,1.5-5,1.2-2.4-.4-2.5-.1-.9.9A3.77,3.77,0,0,0,63.6,199.6Zm-3.4-3c.4-.3.5-1.4.2-1.4s-.7.5-.8.9.2.7.6.5Zm3.6-.1.6-.1c-.3-2.8-3.3-2.9-3.9.3l.5.1c.7-2.5,2.5-2.5,2.8-.3Zm2-.4c.9-.5.6-1.2-.6-1.4-.8-.2-.8.5-.3,1.4.1.4.3.3.9,0Zm-7-3.4a2.28,2.28,0,0,0-.3-1.1,16.37,16.37,0,0,1-1.5-8c.1-2.3.1-3-.4-3-.7.3-1.1,4.6-.2,8.2C57,191.2,58.8,194.3,58.8,192.7Zm-.1-3.5c-.1-1.2.2-3.9.1-4.5a3.3,3.3,0,0,0-.9-1.7c-.4-.3-.5.3-.4,1.7.4,3.4.9,6,1.2,4.5Zm.4-6.2c.3-.5.2-1-.4-2.1-2.3-4.5-2.6-7.5-.2-8.6a4.17,4.17,0,0,0,.6-.2c.7-.4.5-1.2-.7-.9-3.1.9-3.7,3.8-1.1,9.2,1.3,2.6,1.5,3,1.8,2.6Zm.5-2.5a4.25,4.25,0,0,1,.2-1.1c0-.1-.3-.6-.6-1.4-.9-2.2-.9-3.2.1-3.8.3-.2.6-.2.7-.4s.1-.9-.1-1a2.05,2.05,0,0,0-2.2,1.6c-.4,1.2,0,3,1.1,5.1.3.6.6,1.9.8,1Zm1.1-2.9c.7-1.5,0-3.4-1-2.7-.6.4-.7.9-.3,2.1.5,1.4.8,1.6,1.3.6Zm2.5-4c.3-.3,0-.7-.5-2.3-.5-1.4-.3-2.4.6-2.6,1.3-.3,1.7,1.8,2,2.6.1.7.6.9,1,.4.1-.1.1-.2,0-1-.8-3.2-1.9-4.2-3.6-3.4s-1.4,2.4-.2,5.9a4.13,4.13,0,0,0,.4.9S63.1,173.8,63.2,173.6Zm1.4-1.1c.4-.4.4-.2-.1-1.5-.5-1.5-.7-1.8-1.3-1.3-.3.3-.2.7.2,1.9.5,1.4.6,1.5,1.2.9Zm65.8-5.2c2.5-1.7,1.5-4.9-1.8-6a5.13,5.13,0,0,1-1-.4c-1.5-.7-2.7-1-2.7-.4,0,.3.5.5,1.9,1.2,2.1,1.1,2.6,2.3,1.6,3.8-.8,1.2.6,2.4,2,1.8Zm2.2-3.8a14.45,14.45,0,0,1,.7-2.2c.2-.8-.1-.6-.6-.5-1.4.7-2.4.3-1.7,1.3C131.8,163.5,132.4,164.5,132.6,163.5Zm-.1-3.1a3.16,3.16,0,0,0,.5-5,7.2,7.2,0,0,0-1.8-1,12.55,12.55,0,0,0-4.8-.5c-.2.2-.2.6,0,.7a9,9,0,0,0,1.3.2c2.4.2,3.6,1,3.5,2.7s-1.5,2.4-4,1.9c-1.4-.3-2-.2-1.4.2a11.82,11.82,0,0,0,3.4,1.2,5.51,5.51,0,0,0,3.3-.4Zm-8.3-.5c1.9-4.4,3-15.9-8.1-24.2l.4,2.3a20.14,20.14,0,0,1,6.7,19.8Zm9.9-7.8a11.61,11.61,0,0,1-2.2,1.3c-.5.2-.5.3.2.7a4.44,4.44,0,0,1,1.1.8c.4.4.8.6,1,.4C134.2,154.7,134.4,152.5,134.1,152.1Zm-3.3.8c2.2-.7,3.4-1.8,3.2-3.6-.4-2.7-2.6-3.2-6.7-2.2-2,.5-2.2,1.4-.3,1,2.4-.6,4.3.3,4,2.1-.1,1.5-1.4,2.4-3.5,2.4-1.1,0-1.5.1-1.3.5A15,15,0,0,0,130.8,152.9Zm-3.7-6.3c3.7-1.3,5.4-3.2,4.5-5.4-1-2.6-4.2-2.6-7.4-.2-1.5,1.1-1.3,1.5.2,1,1.9-.9,3.1-1,3.9-.3,1.4,1.3.5,3.4-1.7,4.2-1,.4-1.4.7-1.4,1s.3.2,1.9-.3Zm6.2-.1c.1-.8-.8-3.4-1.1-2.8a3.78,3.78,0,0,1-.9,1.3c-1.3,1.1-1,.7.2,1.1C132.2,146.3,133.2,146.8,133.3,146.5Zm-9.7-5.6c3.7-2.2,5.1-5.2,3.2-7.3-1.7-1.8-4.6-.8-7.2,2.6-1.2,1.5-.3,1.3,1.3-.1,1.9-1.7,4.3-.9,4.3,1.2,0,.9-1.3,2.4-2.5,3.1a.6.6,0,0,0-.3.8c.2.2.5.1,1.2-.3Zm6.5-2.3c-.2-.6-1.6-3.1-1.9-3-.3.6-.3,1.5-.7,2.2-.5,1-.5.9,1.2.9,1.2-.1,1.4.1,1.4-.1Zm-10.9-2.8c3.1-3.3,3.4-7.1.5-7.9-1.6-.5-4.2.7-4.2,1.9,0,.8.1.9.8.6,2.7-1,4.9,1.6,2.4,4.7-.6.9-.7,1.1-.5,1.3s.3.1,1-.6ZM152.7,108V21.6H134.5L120,44.5v5.6c0,.2.3.3.5.1.8-.6.5,0-.4,1.5s-.7,2.7.4,4.2c2.2,3.3,3.4,9.4,2.4,12.6a3.48,3.48,0,0,0-.2,2.4,2.59,2.59,0,0,0,1.2,1.7,121.74,121.74,0,0,1,15,8.4V40.5l5.6-5.4,5.9,5.7.2,66.8c0,.8,2.1,1.4,2.1.4Zm-3.2-67-4.9-4.6L139.7,41c0,21.8.1,66.4.1,66.4l4.8.4s.4-1-.1-3.7c-.7-4-.6-8.8.5-16.1.7-4.5,0-8.4-1-12.5a20.88,20.88,0,0,1-.8-7.7c.3-3.9,1.4-6.9,1.5-12.5.1-3.2-.1-6.3,0-10.3,0-.5.3-.5.3.1.1,3.6.3,7,.3,10.5-.1,4.5-1.2,9.2-1.3,13.4a15.71,15.71,0,0,0,1.1,7.4c1.9,5.5.6,14,.6,14.1-.8,5.4-1.4,12.4,1.3,17.6l2.6.2ZM115.6,82.1c1.5-.7,1.7-1.9,1-4.7a12.75,12.75,0,0,0-.4-1.4c-.2-.7-.5-.8-.9-.2-.3.3,0,.4.4,2,.6,2.4.2,3.2-.6,3.2s-1.4-.7-1.6-2.2a5.31,5.31,0,0,0-.3-1.1c-.2-.4-.5-.3-.7.1s.2,2.6.9,3.6,1.1,1.2,2.2.7Zm-.4-2.1c.3-.6-.1-2-.3-3-.2-.5-.4-.7-.7-.6-.5.1-.5.7-.3,1.6C114.2,80,114.4,80.2,115.2,80Zm4.4-3.5c1.7-1,1.8-2.6.7-5.6-.5-1.2-1-2.1-1.3-2.1a4.27,4.27,0,0,0-.1,1.5,9.74,9.74,0,0,0,.5,1.1c.9,2.2.7,3.5-.2,4.2s-.4,1.2.4.9ZM65.1,75.4c3.9-.8,7.4-7.2,9.7-12.8,2-5.7,4.2-11.9,4.5-17.1,0,0-1.5.1-1.7.4a9.67,9.67,0,0,0-.4,1.9,70.4,70.4,0,0,1-3.6,12.9,47.9,47.9,0,0,1-5.9,11.4,6.3,6.3,0,0,1-3.9,2.4c-.4.1-1.1,0-1.2.1-.3.2,0,.7.7.9a5.31,5.31,0,0,0,1.8-.1Zm53.8-.8c.6-.6.7-1.4,0-3-.2-.4-.3-.7-.5-.6-.5.1-1,1.4-.7,2.4.4,1.4.7,1.8,1.2,1.2Zm-55.2-1a6.28,6.28,0,0,0,3.6-2.5A39,39,0,0,0,72,62.5a72.22,72.22,0,0,0,2.9-8c.9-3.4,1.4-5.5,1.8-7.9,0-.2.1-.6,0-.7a2.27,2.27,0,0,0-1.8.3,64.15,64.15,0,0,1-2.8,10.9c-1.6,5.5-6.1,14.2-8.5,14.6-1.3.2-2.8-.9-2.6-2.1.1-.7.2-1,.6-1.2.9-.3,1.3.3.4.7-1.1.9.9,2.4,2.1,1.4,2-1.7-1-5-3.4-3.5-2.7,1.7-2,4.6-.3,6a4.32,4.32,0,0,0,3.3.6Zm19.1-3.9a16.56,16.56,0,0,0,3.8-6.8,104.83,104.83,0,0,0,4.2-19.1s-1.4-.1-1.7.2,0,.4-.6,4.5a75.34,75.34,0,0,1-4.7,17.1A16.39,16.39,0,0,1,82,69c-.8,1.6-.4,2,.8.7Zm37.1-13.1c-.2-.1-.1,0-.2,0-.2.2-.1,1,.4,2.2,1.4,2.2,1.5,6.5,1.4,8.1a2.36,2.36,0,0,0,.1,1.2c.1.4.4.9.8.1a17.66,17.66,0,0,0-1.1-9.2,6.92,6.92,0,0,0-1.4-2.4Zm1,9.4a15.16,15.16,0,0,0-.7-5.4c-.2-.5-.6-.5-.6,0,0,1.2-.1,3.4,0,4.1.6,1.3,1.1,2.2,1.3,1.3Zm-3.1-13.7h-.6c0,2.2-1.9,2.8-2.7.2l-.6.1c.8,3.8,4.3,2,3.9-.3ZM113.9,54c-.3-1-.2-1.3-1-.9-.6.3-1,.7-.1,1.1s1.4.4,1.1-.2Zm4.9-.6c.3-.5.2-1-.2-1s-.4.2-.5.8c-.1.9.3,1.1.7.2Zm.4-3.7c.2-.1.2-.4.1-.9-1.1-1.5-3.7-1-4.6-.7a2.16,2.16,0,0,1-2.1-.1c-.6-.1-.7,0-.8.3a5.14,5.14,0,0,0-.2,1.6c0,.7,0,1.1.2.8,1-.9,2.1-2,3.7-2a7,7,0,0,1,3.7,1Zm-7.2,2c0,.3.3.1.9-.3a5.66,5.66,0,0,1,5.7-.5c.4.1.7-.3.2-.7C116.4,48.2,113.5,49.4,112,51.7Zm8.5-9.1,12.8-21.2-71-.1L74.4,43.9a105.8,105.8,0,0,1,46.1-1.3Z"/><path id="path4098-7-2-7" class="cls-3" d="M57.5,208.8c1.5-2.3,9,1.8,9.4,3.4,4.4-3.5,9.8-3.8,14.1.6,4.4-4.9,9.2-4.5,14.1-1.7-.6-1.1,6.3-6,10.5-2.9l11.3,20.2-72.3.2C48.8,222.2,52.6,214.5,57.5,208.8ZM25.9,103.3c-.4-1.1-2-12.3,2-12.6,6.5,2.9,14.8,13.3,18.6,19.6,4.8,7.9,9.6,26,6.9,25.2-.4-.1,8.2,8.6,8.8,9.4,1,1.4-14.5,27.3-17,26.4-.8-.3-5.9-3.4-5.9-3.4l.1-8.7.1-17.5-14.2-1.2.5-3.8c4.8.4,9.6,1.3,14,.3,2.9-5.3,1.8-13.3-1.7-16.5-1.8-1.1-3.6-.8-5.4-.5C25.3,118.6,29.2,105.8,25.9,103.3ZM152.7,109v3.2c-5,1.1-13.8-3.2-16.5,3.7.3,7.4,2,10.7,3.1,13,.9,2,6.9-.3,9.1,1.7,6.1,7.6,4.7,17.7,4.7,26.9l-2.7,1.4C132,148,117.9,114,115.9,104.3c-.1-6.2,16.9-26.2,16.9-26.2l6.2,3.8c.1.1-.1,26.2-.1,26.1C143.9,108.2,148.6,108.7,152.7,109ZM116.3,85.2c-21.5,37.8-12.7,65.8,3.1,89.9a6.8,6.8,0,0,1-1.5.2,9.06,9.06,0,0,0-7.6-2.6c-3.4-.1-4.3,1-6.3,1.2-5,.5-4.5.6-8.7-1a57,57,0,0,0-18-9.5c-4.5.4-11.4,2.6-14,.8,18.2-33.8,15.4-55.4-3.4-90.8,1.6.5,1.8,1.9,3,2.3,3.9,1.5,9.2.9,12.4-.5,5.1-2.3,10.5,3.9,26.1,10.8,1.3.7,2.9-.4,4.3-.7,2.9-.6,5.3-1.8,7.5-1.1a21.51,21.51,0,0,0,3.1,1ZM73,40.9C72.1,39.2,62.6,21,62.6,21l70.3.4L122.3,38.9c-1,.9-6,3.6-11-2.4-.1.9-7.5,6.2-13.9-.2-3.8,3.5-7.7,5.5-14.2,1.6,0,1.2-5.1,6.1-10.2,3Z"/><path id="path4094-0-9-9" class="cls-4" d="M80.7,212.4c-6.8-6.4-13.9-.6-13.7-.3-2.7-2.8-5.3-5-8.9-3.9v-1c10.6,2,26.8,2.5,45.8-1.5l1,2.1c-5.1-1.8-7.7.6-10,3.5C86.7,206.1,84.7,210.6,80.7,212.4Zm15.9-74.9,4.8-.1c.9,14.2,12.6,35.8,12.9,35.8-.8-1.1-8.6-.2-8.5-.1C101.5,161.7,96.9,150.2,96.6,137.5ZM68.4,171.1s-1.6-4.1-2.5-5.8c5.1-8.7,9.2-17.8,11.3-27.8h3.4C79.7,151.4,68.7,172.4,68.4,171.1Zm62.1-1.9c7.6-13.8,6.3-33.8-15.3-44.8,0,0,.6-14.6,2.2-14.6.4.1,9.8-.1,9.8-.1,2.5-6.1,6.4-13.5,12-18.4l.1,16.3c-4.1.4-6.6,1.7-7.8,5l-5.7,1.3c.4,16.4,6.5,31.6,24.7,45.2-4.3,3.8-19.2,11.4-19.1,11.3ZM39.6,158.9l.2-17c2.8-.6,4.9.2,7.2-4.8,0,0,3.8,1.8,5.1,2.5C48.4,146.1,45.4,152.9,39.6,158.9Zm36.1-30.1.2-8.6,8.1.2a16.43,16.43,0,0,0,0,8.8Zm18.5-.1c.6-2.8,1-5.7-.2-8.7l8.8.2-.2,8.6ZM77.5,111.8C76,94.9,64.5,75.7,64.4,76.1c1.4.2,3.7.9,5.1.3,1.6.3,3,.1,3-.1.1-.6,10.7,24.6,9.3,35.5-.2.3-4,.4-4.3,0Zm20.3.1c1.2-7.8,4.4-22.1,12-33.7a42.24,42.24,0,0,0,2.8,6.1c-5.7,8.4-9.2,18-11.4,27.7Zm-52.6-4.2c-3.5-7.1-17.9-18.4-17.1-17.2,6-5.4,12.6-8.8,19.2-12.3,0,0,1.2,1.1,1,1.4-4.1,6.5-6.1,20.2-2.1,28.1,3.8,8.4,10.5,13.4,17.4,17.3a86.54,86.54,0,0,1-2.1,14.3s-4.3-2.3-7.9-3.8c-.5-9.8-2.5-18.7-8.4-27.8ZM83.4,37.9c5.1,3.1,9.6,2.8,14-1.4a10.12,10.12,0,0,0,14,.4c2.3,2.7,5.4,4.1,9.8,3.3l-1.1,2.3c.3-1.2-30.7-3.3-45.8,1a14.17,14.17,0,0,1-.8-1.8c1.5-.2,5.8,1.5,9.9-3.8Z"/><path id="path4092-7-7-9" d="M61.6,20.5,74.1,44.1a3.54,3.54,0,0,1,.6-.1c17.4-3.4,31.1-3.9,45.9-1.3l13.1-21.9C109.8,20.5,61.6,20.5,61.6,20.5Zm1.3,1,69.7.1-3.9,6.5c-2.3-.7-3.7.4-4,2.6a7.35,7.35,0,0,0-.8-.2,2.38,2.38,0,1,0-.7,4.7,2.17,2.17,0,0,0,1,0c-2.9,2.4-4.5.8-5.8,0a3.33,3.33,0,0,1-4.9-.1c3.4.3,3.9-3.1,2.3-4.4a7.68,7.68,0,0,0-.7-.6,2.11,2.11,0,0,0,.5-2.7c-1-2.2-4.3-2-4.8.3a7.21,7.21,0,0,0-.2,1.1,2.7,2.7,0,0,0-2.3,4.1,2.77,2.77,0,0,0,2.7.9c-1.4,2-4.6,1.3-6-.3-2.3,2.7-4.9,2.4-6.1.9a2.65,2.65,0,0,0,2.3-.8,2.52,2.52,0,0,0-1.2-4.2c-.4-.1-.6-.1-.7-.2s.1-.1.1-.8c.5-4-5.4-3.6-4.8.3a3.13,3.13,0,0,0,.2.7,5.13,5.13,0,0,0-1,.1c-3.3,1.5-1,5.7,1.5,4.6a6.89,6.89,0,0,1,1-.4c-3.1,3.9-5.8,1.1-6.5.7-2.1,3.2-5.8,1-5.9.8a3.22,3.22,0,0,0,1.6-.4,2.51,2.51,0,0,0-.1-4.5,3.53,3.53,0,0,0-1.8-.1,3.19,3.19,0,0,0,0-1A2.41,2.41,0,1,0,79,30.5a1.89,1.89,0,0,0,.4.6,7.61,7.61,0,0,0-.9.7,2.42,2.42,0,0,0,2.7,4c.3-.2.7-.6.8-.5-1.2,2.3-3.1,3.1-5.8,1.2a3,3,0,0,1-5.1.2c2.5.2,4.1-4.6-.7-4.8-.4-1.3-.4-3.3-3.4-3ZM97,29.9a1,1,0,0,1,1,1,.94.94,0,0,1-1,1,1,1,0,0,1-1-1A.94.94,0,0,1,97,29.9Zm15.6.1a1.1,1.1,0,1,1-1.1,1.1A1.11,1.11,0,0,1,112.6,30ZM82,31.2a1,1,0,0,1,1,1,1,1,0,1,1-1-1Zm43.8,1.2-.9,1.6C123.9,33.2,124.6,32,125.8,32.4Zm-56,2.2L68.9,33C70.5,33.1,70.1,34.2,69.8,34.6Zm27.1-.9c6,6.9,11.3,4.9,14.9.3,1.5,3.9,4.9,6.6,10.6,4a13.51,13.51,0,0,1-1.2,1.7c-5.1,1.4-7.6-1-9.6-3.3-5.2,4.4-10.1,3.3-14.1-.5-3.4,4.4-9,5.3-14.2,1.7-2.4,3.5-5.7,4.9-10,3.2,0,0-.9-1.4-1-1.5.6.5,8.4,3.8,10.4-4.1,2.7,4.6,11.6,4.8,14.2-1.5Zm.6,2.9c6.7,6.4,13.8.9,14,.5a8.62,8.62,0,0,0,9.5,3.2l-.9,1.6c-10.4-1.8-20-2.9-42,.3a10.2,10.2,0,0,0,5.3-3.9C84.3,39,91.9,43.2,97.5,36.6ZM73.9,41.8s2.9.3,3.2.4-2.5,1-2.5.9Zm5.9,30.4c-.2,0-.4.2-.8.6-.8.8-1,.9-1.7,1a7.14,7.14,0,0,0-2.6,1.5,2.32,2.32,0,0,1-1,.4,6,6,0,0,1-1.2.2,1.17,1.17,0,0,0-.7.2,2.36,2.36,0,0,1-1.7.1,1.82,1.82,0,0,0-1.6.1,3.24,3.24,0,0,1-2.4,0,2.77,2.77,0,0,0-2-.3c-.8.3-2.9-1-2.9-1.8a3.46,3.46,0,0,0-1.5-1.1c-1.1-.2-10.4,3.6-10.4,3.8,11.5,14.3,21.1,36.2,13.9,62.9l-1.3-.6a90.83,90.83,0,0,0,1.8-14.7c-21.6-9.4-23.4-31.3-15-45.1l-1.4-1.5c-5.1,2.7-10.2,4.3-22.8,14.9v47.9c4.5.5,9.5.9,14.5,1.4,0,0-.1,15.4-.2,21.4-.1,5.1.1,4.8.1,4.8L55.2,177c-1.1-4.6,1.7-6.4,4.1-6.2-1-4.4,1.6-6.4,4.5-5.9,2,.4,2.7,1.5,3.9,5.2.2.6.4,1.4.4,1.4h1.1c1.4-3.1,2.4-7.1,5.8-7.6,4.4-.7,6,2.4,6,5.4,4.3-3.8,9.4-.9,9.1,4.8,2.1-1.4,5.8-2.7,8.1,2.7.9-.2,1.3-1.2,2.5-1.5a7.2,7.2,0,0,0,1.5-.7v-.2a20,20,0,0,1,2.2-.5c1.1.4.8.4,1.4-.3a5.34,5.34,0,0,1,2.5-.5,3.44,3.44,0,0,0,1.8-.1c.8-.3,1.5-.4,2,.1.3.4.8.2,1.3.2a3.47,3.47,0,0,1,2.9,1.3,6.79,6.79,0,0,0,2,1.3l1.1-.3.1-.4,9.2-3.6c-18.8-20.8-18.3-48.5-13.9-62.5l1.7.8a57.39,57.39,0,0,0-1.8,14.6c17,7.6,25.4,27.4,15.1,44.7l1.1,1.4c4.3-1.8,15-7.9,18.8-11.2l.8.1s2.3-1.5,3.3-2.3l.1-45.8-.8.2-.1-2.7-14-1.1a.7.7,0,0,0,.4-.5L139.3,82c-.5-.8-12.2-7.7-16.6-9.4-.2,0-.1.3,0,1,.2,2.5-1.4,4.7-3.4,4.7-.7,0-.8.3-.8,1.7a4,4,0,0,1-2.8,4.2c-2.5.9-4.2-.4-5.6-5.6-.4-1.4-1.1-1-1.8.8a34.07,34.07,0,0,1-2.1,4.4,4.52,4.52,0,0,1-2.4,1.8,5.06,5.06,0,0,1-3.8-.2c-1.9-1-2.7-2.2-3.2-5.1-.1-.4-.3-.4-.9.1-3.4,2.6-8.2-.1-8.1-4.6,0-1.3,0-1.4-.8-.7-2.3,1.9-5.4.9-6.7-2.1-.1-.5-.3-.8-.5-.8ZM60.3,73.8c.2,0,1,1,1,1a7.82,7.82,0,0,0,2.6,1.7c.1-.1,11.2,15,13.1,35.9h5.2c-1-20.3-6.5-30-9-36.3l1.9-.6c4.2,8.1,9.3,24.5,9.1,38.8H75.6a78.21,78.21,0,0,0-14.5-39c-.6-.8-1-1.4-.8-1.5ZM57,75.9l.9,2.8a2,2,0,0,1,.4-.9c1.7-1.5,3.3.5,2.6,3.2-.2.8-.5,2.5-.5,2.5a24.52,24.52,0,0,0-2.6-1.2c-2.4-1-3.1-3-1.3-3.2a7.75,7.75,0,0,0,.9-.1c-.8-.6-2.4-2-2.4-2Zm7.9.3c.7.4,2.6.9,3.6.4a6.47,6.47,0,0,1,2.4-.1,10.87,10.87,0,0,0,1.5-.2c5.1,10.8,8.6,23.6,9.1,35.3h-4A85.16,85.16,0,0,0,65.2,77.2c-.2-.3-.5-1-.3-1Zm16.7.2c1.5,0,3.2,1.6,4,4.1.5,1.4.7,1.3,1.3,1.1,1.7-.6,3.5,1.3,1.2,1.6s-1,4.8-1.1,5.1c-.9.2-2.6-3.6-2.5-4.7.1-2.7-2.4-5-4-3.8-.7.5-.7.9-.9.7a2.55,2.55,0,0,1,0-3.2,2.83,2.83,0,0,1,2-.9Zm45.9.9s.1,3.6,0,4.4c-.3,2.4-3.3,2.6-3.5.7a8.25,8.25,0,0,0-1,2.6l-2.2-1.5a10,10,0,0,0,2.2-1.9c-1.6.1-2.5-1.3-1.4-2.5,1.2-1.4,4.5-1.5,5.9-1.8ZM47.3,78.5l1,1.1C39.7,95,42.7,114.7,63.5,125a58.24,58.24,0,0,1-1.9,13.9l-7.7-3.8c.1-17.4-9.7-34-25.3-44.9A92,92,0,0,1,47.3,78.5Zm62.7.1a18.56,18.56,0,0,0,2.4,5.5c0-.1-7.9,10.2-11.4,27.6H98.1A94.87,94.87,0,0,1,110,78.6Zm24.3.5,1.6,1c-8.2,6.9-13.6,15.7-17.6,25.2l-2.1-1c6.2-13.8,12.3-19.9,18.1-25.2Zm2.2,1.5c.4,0,.9.6,1.7,1s.6.7-.9,1.8c-1.7,1.3-1.9,1.3-1.9-.6.1-1.3.4-2.1,1.1-2.2Zm-1.9,2c.1,0,.2,0,.2.1a9.2,9.2,0,0,1-.1,2.8c-.2.7-2.4,2.6-3.2,3.4-.3.2-.5.1-.5-.2,0-.6.1-1.4.1-2.2a1,1,0,0,1,.2-.7c1.1-1.4,2.7-3.2,3.3-3.2Zm4.1.6h0a9.31,9.31,0,0,1,.1,2.9,6.38,6.38,0,0,1-2.8-.3c-.1-.4,2.3-2.6,2.7-2.6ZM61.9,84l.6,2.5a1.47,1.47,0,0,0,.2-.4c1.2-1.8,2.6-.8,2.6,1.8a39,39,0,0,1-.7,4s-4.5-2.2-4.8-3.1.1-1.8,1-1.8a3.33,3.33,0,0,1,1,0l-1.9-2Zm51.1.4,2,.8c-4.2,6.9-8.6,13.8-11.7,29.4H94.8a93.2,93.2,0,0,1,7.9-28.1s1.7-.5,2.6-.8c0,0-7,16.2-7.8,26.6l4.1.1C103.7,102.2,107.8,91.7,113,84.4Zm-16.1.2a1.88,1.88,0,0,1,1.9,2.2c0,1.3-.1,1.5-1.1,1a2.55,2.55,0,0,0-3.2.1l-1.2.8s.5-2.3,1.3-3A3.75,3.75,0,0,1,96.9,84.6ZM92.6,88a9.46,9.46,0,0,1-.5,1.8s.7-.3,1-.4a2.25,2.25,0,0,1,3.1,2.1,2.41,2.41,0,0,1-2.4,2.3,2,2,0,0,1-1.4-.5c.3,1.9.4,2.8-1,3.7A2.34,2.34,0,0,1,88,94.8l.1-1.3-1.2.2a2.28,2.28,0,0,1-.7-4.5,3.56,3.56,0,0,1,2.2.6,3.61,3.61,0,0,1,.2-3.5c1.6-2,4.2-.2,4,1.7Zm28.1-2.5c.2,1.5.8,3.1.6,4.5-.3,1.8-1.8,2.8-2.9,1.7l-.4-.4a9.89,9.89,0,0,0-.9,2.6L115,92.6a10.12,10.12,0,0,0,1.8-1.6,4.71,4.71,0,0,0,.2-.5,1.47,1.47,0,0,1-1.8-1.9c.6-1.7,3.7-2.4,5.5-3.1Zm14.6,1.1c.8,0,2,.2,2.9.3.7.1.3.5-1.3,2.2-1.5,1.5-1.5,1.3-2.6,1.3-2.7,0-3.2,0-1.6-1.7a12,12,0,0,1,2.1-2,.75.75,0,0,1,.5-.1Zm-4.9.3h0c.3.2.2,1,.2,2.1s0,1.2-.5,1.9l-1.8,2.4c-.6.6-.6.6-.9-1s-.1-1.9,1.7-4.1C129.7,87.4,130.1,86.9,130.4,86.9Zm8.4.8v3a51.22,51.22,0,0,0-12,18.6l-2-.8a59.42,59.42,0,0,1,14-20.8ZM90.2,89.6a1.7,1.7,0,1,0,1.7,1.7A1.69,1.69,0,0,0,90.2,89.6Zm0,.5a1.22,1.22,0,0,1,1.2,1.2,1.16,1.16,0,0,1-1.2,1.2,1.2,1.2,0,0,1,0-2.4Zm-62.3.7c17.5,11.3,25.3,28.9,25.3,44l-1-.4c-1-21.3-12.5-34.5-24.9-43Zm103.6.2c.4,0,.9.1,1.7.2,1.4.1,1.6.2.6,1.3-.3.3-.8,1-1.2,1.5a5.82,5.82,0,0,1-1,1.1A23,23,0,0,1,128,95c-.2,0,.1-.3,1.3-2.1.9-1.4,1.1-1.8,1.9-1.9Zm7.3.5s.3,9.7.1,15.9c-4-.1-6.3,1.4-7.3,4.3l-4.2-2.1A53.61,53.61,0,0,1,138.8,91.5Zm-12.4.3c.2,0,.4.5.4,1.4.3,1.7.2,1.9-.5,2.9-.3.5-.8,1.3-1,1.7-.4.7-.7.9-.8.6-.5-1.8-.7-2.9-.5-3.3.3-.6,1.8-2.7,2-3s.3-.3.4-.3Zm-99.8.1c14.1,8.8,24.4,23.8,24.8,42,0,0-3-1.4-4.8-2.5l-.1-1.8h1l.3,2,2.1-.1-.6-5-3.4.3-.7-2.8,1-.2.6,1.8L49,125l-1.2-4.4-3.4.9-1.1-3,1.1-.4.9,1.8,2.1-.7-1.9-4.4-3.1,1.5-1.6-2.9,1.2-.7,1,1.7,1.9-1-2.4-4.1L39.6,111l-1.5-2.2.9-.6,1,1.2,1.7-1.2-2.6-3.5-2.8,2.2-2.1-2.4,1-.8,1.4,1.3,1.6-1.4-3.1-3.4-2.7,2.5-2-1.8,1-1.1,1.2,1,1.3-1.6-3.3-2.8-2.5,2.5-2.4-1.6V96.1A16.27,16.27,0,0,1,28,97.2l1.2-1.9-3.6-2.4Zm39.2.8.5,3.1c.5-.8.9-1.4,2-1.1,1.3.5,1.3,2.5.2,5.6a6.25,6.25,0,0,1-.5,1.1,4.17,4.17,0,0,1-1-.5c-.8-.6-2.2-1.2-2.8-2.3s-.7-2.8.6-2.6a5.38,5.38,0,0,1,.8.1l-2-2.6Zm-40,.9,2.4,1.6-.5.9-1.9-.9Zm61.1.8c.7,1-1.8,3.9,1.5,5.1a1.14,1.14,0,0,1-.6,1.1c-1.6,1.2-3.9-1-3.2-3.2C85.1,96,86.4,94.4,86.9,94.4Zm6.7,0s1,.7,1.2.9c1.8,1.8,1.8,4.3.2,5.1a2,2,0,0,1-2.7-.7.55.55,0,0,1,.5-.8c.8,0,1.4-1.5,1.1-3.1C93.8,95.2,93.6,94.4,93.6,94.4ZM115,95a22.56,22.56,0,0,0,.5,3.1c.9,2.7-.3,4.3-2,3.4-.3-.1-.7-.7-.7-.7l-.2,3.1-2.5-.7c.5-.9,1.3-1.5,1.9-2.5h-.7c-1.5.1-2.1-1.6-.5-3A28.38,28.38,0,0,1,115,95Zm13.2.7h1.2c1.6,0,2-.2,1.3.8a18.58,18.58,0,0,0-1.1,1.9c-.4.8-.5,1-1.2,1.1a16.86,16.86,0,0,1-3.2.1c-.2,0,.3-.8.5-1.4.7-1.3,1.1-2.2,1.7-2.4.2,0,.5-.1.8-.1Zm-5,1c.2,0,.3.3.5,1.1.4,1.7.5,1.7-.2,3.1-.4.7-.9,1.9-1.2,2.4-.6,1.3-.7,1.2-1.1.1-.8-2.2-.8-1.9.4-4.4C122.5,97.5,122.9,96.7,123.2,96.7Zm-92.3.6,2.3,1.8-.6.6-1.3-.9-1.8,2,3,2.8,2.6-2.6,2.2,2.3-.7.6-1.3-1.3-1.9,1.7,2.9,3.5,2.9-2.2L41,108l-.7.5-1.2-1.2-1.9,1.3,2.4,3.4,3-1.7,1.7,2.8-.9.5-1-1.5-2.1,1.2,2,3.9,3.2-1.4,1.3,3-1,.4-.8-1.8-2.2.9,1.4,4.1,3.3-.9.8,3.1-1,.3-.5-1.7-2.1.5.9,4.1,3.3-.2.4,3.3h-1l-.3-2H45.9c0,.7.1,2.1.1,2.1l-1.3-.6A46,46,0,0,0,26,99.7l-.1-1.5,2.5,1.6c-.1.1,2.1-2,2.5-2.5Zm96.7,3c.7,0,.4.5-.5,2.2s-1.1,1.9-2.9,2.3c-2.2.5-2.1.7-.9-1.9a10.22,10.22,0,0,1,1.2-2.2c.5-.4,1.6-.3,2.7-.4ZM26,100.8c10.5,6.8,17.1,20.9,17.9,29.5a9.24,9.24,0,0,0-.9-.5c-.8-.4-1-.6-1.2-1.8A43.57,43.57,0,0,0,26,102.4Zm94.2,1.8c.4-.1,1.2,3.1,1,3.8-.2.5-1.7-.7-2.3-.9a6.36,6.36,0,0,1,1.3-2.9Zm-50.4.1V106a3.29,3.29,0,0,1,.6-.6c.8-.6,2,.2,2,1.2.1,1.4-.1,1.9-1.2,3.8a11.77,11.77,0,0,1-.8,1.3,22,22,0,0,1-2.7-2.3c-1.5-1.5-1.2-3.5.1-3.5a4.25,4.25,0,0,1,1.1.2,23.43,23.43,0,0,0-1.3-2.9Zm40.9,2.5a12.14,12.14,0,0,1,1.5,3.3c.7,2.3-.4,4-2,3.1a4.68,4.68,0,0,1-.6-.5,22,22,0,0,0,.1,3.1l-2.5-.4a17,17,0,0,0,1.5-2.8,2.39,2.39,0,0,1-.9.1c-2.5,0-2-3,.9-4.7a20.55,20.55,0,0,0,2-1.2Zm14.5.1c.5,0,.3.5-.3,1.8s-.5,1.3-1.9.5c-2-1-1.9-1.1.6-1.8A3.79,3.79,0,0,1,125.2,105.3Zm-36,.4c2,0,3.5,2,3.2,4.8-.5,4.8-.2,4.5.3,5,.9.9-.3,1.4-1.5.6-.8-.6-1-1.2-1-3.8,0-3.1-.1-3.8-1.2-3.6-.7.2-.9.7-.8,2.8.1,2.9-.1,3.6-1.2,4.6s-2.4.1-1.4-.5c.5-.6.6-1.3.4-3s-1-7,3.2-6.9Zm49.9,2.4c3.8.1,13.5.9,13.5.9l.1,2.9c-.4.3-7.6-.8-13-.7-1.2,0-2.1.6-3,.1.9.4.8,4.7-3,3.7-3.2-1.2-1.7-5.6,2.5-6.7a14.15,14.15,0,0,1,2.9-.2Zm-22,1.9,8.3,4.1c1.2,15.7,6.5,32.2,24.7,44.8a106.85,106.85,0,0,1-18.8,11l-.7-.8c10.1-17.3,2.5-36.3-15.2-44.9A68.85,68.85,0,0,1,117.1,110Zm29,2.7c1.6-.1,2,.1,2.1.8s.6.8,1.2.6c1.5-.5,2.3,2.1,1.1,3.2-.7.7-.6,1,0,1,1.5,0,1.5,2-.1,3.2-.6.5-.6.7,0,1,1.1.6.9,1.7-.5,2.6-.8.5-.8.6-.2.8,1.6.4,0,2.8-1.8,2.4a2.69,2.69,0,0,0-2.1.4c-1.9.8-2.2,1-4.2.7-1.8-.3-2.6-.9-3.1-2.5-1-3.2-2.2-6.8-2.2-10.3-.2-2.2,3.4-4.1,5.1-4.2,1.7-.3,3.2.2,4.7.3Zm-113,0a3.5,3.5,0,1,1-3.4,3.5A3.46,3.46,0,0,1,33.1,112.7Zm38.2,1-.3,3s.5-.4.6-.5a1.25,1.25,0,0,1,2,1.3,14.94,14.94,0,0,1-2.6,4.8s-2.8-3.1-3.1-3.7c-.7-1.4.2-2.8,1.5-2.2a6.82,6.82,0,0,1,.7.5l-.9-2.9Zm-37.9.3c-1.2,0-2.4.8-2.2,1.8.1.4.8-.2,1.4-.6a1.54,1.54,0,0,1,1.6-.1c.5.2.7.6,1,1s.5.5.7.4a.45.45,0,0,0,0-.5,2.35,2.35,0,0,0-2.5-2Zm92.5.5,1.2.6c1.7,22.2,12.7,35.2,24.4,42.9l-.9.6a54.88,54.88,0,0,1-24.7-44.1Zm1.9.9s3.1,1.6,4.7,2.3l.1,2h-1.1l-.4-1.9-2.2.2.7,4.6,3.6-.4.5,2.8-1.2.3-.6-1.7-2.1.5,1.3,4.5,3.3-1.1,1,2.9-1.1.4-.7-1.7-2.1.8,1.7,4.4,3.4-1.1L138,136l-1,.5-1-1.7-2,1.1,2.4,4.1,3.1-1.6,1.4,2.2-1.1.8-1-1.3-1.7,1.1,2.6,3.6,2.6-2,2,2.3-.9.8-1.3-1.4-1.6,1.4,3.1,3.5,2.7-2.4,1.9,1.8-.6.6-1.3-.8-1.7,1.9,3.3,2.9,2.6-2.9,2.2,1.7v1.2l-2-1-1.3,2,3.3,2.5v1c-18.9-11.6-23.9-29.4-24.9-42.5Zm-38.8.2c.8,0,1.7.8,3.1,2.4,4,4.7,2.9,11.9-2.3,15.7-.8.5-1.1.5-2-.3-5.4-4.6-5.7-10.9-.9-16.3.9-1,1.5-1.5,2.1-1.5Zm19.2.6c1,1.5,2.2,3.1,2.4,4.9-.1,1.8-1.3,2.2-2.6,1.1a7.42,7.42,0,0,0,.4,2.8l-2.3-.2a7.27,7.27,0,0,0,.9-2.6,1.58,1.58,0,0,1-2.6-1.5c.5-1.9,2.1-3.3,3.8-4.5Zm-19.1,1.2c-.2,0-.4.1-.7.4a9.89,9.89,0,0,0-3.1,4,8.6,8.6,0,0,0,2.3,9.3c1.4,1.4,1.9,1.3,4-1.6a8.16,8.16,0,0,0,1-8.1,8.93,8.93,0,0,0-2.6-3.5,2.06,2.06,0,0,0-.9-.5Zm44,.6,1.8.9c2.3,15.1,9.6,24.3,17.8,30.7V151l-2.2-1.7-2.6,2.8-2.1-1.8.8-.8,1.2.8,1.6-1.8-3.1-2.8-2.7,2.3-2.2-2.3.7-.6,1.5,1.4,1.7-1.5-3-3.4-2.7,2-1.9-2.5.8-.5,1,1.4,2.1-1.3-2.2-3.4-3.1,1.6-1.6-2.9.9-.4,1,1.6,1.9-.9-1.9-4-3.2,1.1-1.2-3.1.9-.3.8,1.9,2.1-.7-1.5-4.3-3.3.9-.8-3.2,1-.2.5,1.7,2.3-.5-.8-4.1-3.4.4c-.1-.7-.6-2.6-.6-3.3l1-.1.3,1.8,2.3-.1Zm-43.9.3c1.2.2,2.7,2.6,3.1,3.4a8,8,0,0,1,.1,5.3,10.48,10.48,0,0,1-2.9,4.1c-.7.4-1.4.1-2.4-1.4-2.1-2.9-2.5-6.3-.8-8.7,1.2-1.7,2.2-2.7,2.9-2.7Zm46.3.8.9.4c1.1,8.8,6.2,20.8,16.3,28v1.1c-7.8-5.8-15-15.6-17.2-29.5Zm-46.5.6c-3.5,2.7-3,6.9-.3,9.7C91.6,127.4,92.6,122.3,89,119.7Zm-53.7.1c2,0,3.2.7,3.8,2a16.37,16.37,0,0,1,1.3,3.7c.1.6.3,1.6.4,2.2,1,5.9.3,8.1-3.3,9a7,7,0,0,1-3.5.1,10.93,10.93,0,0,0-2-.1,4.25,4.25,0,0,1-2.8-.8,2.62,2.62,0,0,0-.9-.5c-1.8-.3-2.3-1.9-.9-3.1.8-.7.8-.8.8-.9s-.4-.1-.7-.1c-1.8,0-1.8-1.9,0-3.2.8-.6,1.2-1.2.7-1.1-1.6.4-2.2-2-.5-2.7.9-.5,1.5-.9.7-1a.92.92,0,0,1-1.1-1.1,2.49,2.49,0,0,1,2.6-1.2c.7.2,1.3.4,1.7.1a5.1,5.1,0,0,1,2.3-1.2c.5,0,1-.1,1.4-.1Zm59,.5,8.2.2-.2,8.1-7.7-.1a10.65,10.65,0,0,0-.3-8.2Zm-18.2.2,7.8.1a12,12,0,0,0-.3,7.9l-7.6-.1Zm13,0c2.1,1.2,2.7,5.7-.2,8C86.1,125.7,86.6,122.1,89.1,120.5ZM69.8,124l2.1.2-.7,3s.3-.4.4-.4c2.7-1.3,2.9,1.6.1,4.2-.6.6-1.6,1.4-1.6,1.4s-.8-1.2-1.4-2.2-1.2-2.2-1-2.8c.2-.9,1.2-1.5,1.9-.9l.7.7Zm37.4,2.2s.9.9,1.4,1.5c1.8,2,2.2,4,1.2,4.5-.8.4-1.3.1-2-.4a9.8,9.8,0,0,0,1.1,3.1l-2.8.4a15.11,15.11,0,0,0,.6-3.5s-.6.4-.8.5c-1.8.7-2.7-1.4-1.2-3.5,1.4-1.5,2.5-2.6,2.5-2.6Zm37.7,3.9a3.4,3.4,0,1,1-3.4,3.4A3.44,3.44,0,0,1,144.9,130.1Zm1.7,1.5c-.1,0-.3.4-.3,1.1a1.77,1.77,0,0,1-2.8,1.4c-.6-.3-1-.7-1-.4a2.92,2.92,0,0,0,.8,1.4c1.2,1.1,4,.8,3.9-1.7-.1-1.1-.4-1.8-.6-1.8Zm-60.9,1.3a1.5,1.5,0,0,1,1.1.4c.9.6,1.1,1.4,1.1,4.5.1,2.7,0,2.8.4,3.1,1.1.8,1.7-.4,1.4-3.1s.6-4.5,2.2-4.5c.8,0,.9.5.3,1s-.8,1.4-.6,2.9c.5,3.9.1,5.8-1.6,6.6a2.93,2.93,0,0,1-4.2-2.3,24.25,24.25,0,0,1-.1-4.7c0-1.7,0-1.9-.6-2.8-.2-.8.1-1.1.6-1.1Zm-42.4,1.2a2.77,2.77,0,0,1,2.5,1.8c1.4,2.9-1.6,5.3-4.4,5.5A101.08,101.08,0,0,1,26,140.1l.1-2.8c4.4.3,9.4.6,14.8.9-.7-2.5.8-4.1,2.4-4.1Zm25.3.6,2.7.6-1.7,2.8a1.76,1.76,0,0,1,1.4-.2c1.1.4,1.1,1.8.3,3.1-.6,1-2.4,2.1-3.6,2.8-.7-1.5-2.2-4.1-1.6-5.5a1.4,1.4,0,0,1,2-.7,5.44,5.44,0,0,0,.8.4Zm6.4.1,8.2.1c-1.2,8.4-3.5,19.5-8.1,28.6l-1.9.5a97.3,97.3,0,0,0,8-27H77.1c-2.4,10.2-5.8,19.6-11.2,27.8l-2.4-.8c5.7-9.2,10.2-19.4,11.5-29.2Zm18.6.1h9.1c1.7,17,7.4,28.6,15.8,40.1a2.42,2.42,0,0,1-.9,0,5.21,5.21,0,0,0-3-2.1c-7.1-10.4-11.9-24.8-13-35.9H96.2c.6,13.9,4.4,25.3,9.5,36.4l-2.8.5c-4-9.9-8.4-18.5-9.3-39Zm14.2,2.1c.8.6,1.6,1.2,2.3,1.7,2.1,1.5,2,4.2,0,4.2h-.7s.8,1.8,1.3,2.7c-.8.2-2.6.6-2.6.6s.2-1.8.2-3.2a1.65,1.65,0,0,1-.6.5c-1.3.6-2.4-.6-2.3-2,.3-1.9,2.4-4.5,2.4-4.5Zm-60.9.4,4.5,2.3c-3.1,7-6.6,13.6-11.6,18.6l.1-16.3C42.6,141.9,45.5,141.9,46.9,137.4Zm30.7.2h2.8c-1.2,13-9.7,30.5-11.3,32.7l-.5.4s-1.1-4-2.4-5.4C70.9,158.7,75.9,146.2,77.6,137.6Zm19.4,0h4.2c1.3,10.3,4.5,21.5,12.5,35.1a2.32,2.32,0,0,1-1.4-.3c-1.4-.9-2.3.3-3.1.2a6.66,6.66,0,0,0-2.8.2A95,95,0,0,1,97,137.6Zm-45.1,2.3,1.5.7c-3.2,7.5-6.1,13.4-13.7,20.7v-2.2c5.4-5.1,9-12,12.2-19.2Zm2.2,1.1a22.56,22.56,0,0,1,2.2,1.1c.2.1.2.3.2.5-.3.7-1.5,1-2,1.2a6.29,6.29,0,0,1-1.2.3c-.6.2-.4-.5.3-1.9.2-.8.3-1.2.5-1.2Zm3,1.6a10.53,10.53,0,0,1,2.6,1.3c.1.4-.3,1.1-.8,2.3-.9,1.9-1,2-1.3.4a10.18,10.18,0,0,0-.5-1.8c-.3-1.3-.4-2.1,0-2.2Zm3.2,1.5,1.4.7c-4.7,14.1-17.1,25.8-17,25.6l-1.9-1.2c8.2-7.5,14.3-16.4,17.5-25.1Zm-4.9.2c.5,0,.1.6-.6,1.9s-.8,1.8-1.3,2a21.76,21.76,0,0,1-2.9.5c-.4.1-.2-.3.4-1.6.8-1.6.8-1.9,2-2.2.8-.1,1.7-.6,2.4-.6Zm1.6,2.8c.5,1.8.5,2.1.1,2.7-.6,1.1-1.4,2.5-1.6,2.8-.5.9-.7.7-1-1.5-.2-1.4-.4-2-.2-2.6s1.1-2.2,1.5-3.2C56.5,143.5,56.9,147,57,147.1Zm8.6-1.5,2.5.8-1.9,2.3s.8-.1.9-.1c1.9.1,1.6,2.1.1,3.2a23.85,23.85,0,0,1-3.7,2c-.3-1.7-1-2.8-.8-4.6.1-1,.2-1.8,1.4-1.8.6,0,.9.6,1.3,1.1Zm44.5,2.1a23.14,23.14,0,0,1,2.8,1.8c1.8,1.4,2.1,3,.3,3.6a2.08,2.08,0,0,1-.8,0,15.44,15.44,0,0,0,1.7,2.2,9.91,9.91,0,0,1-2.3,1s-.2-2.2-.4-3a1.79,1.79,0,0,1-.5.7c-1.7,1.1-3.1-1-2.1-3.5a10.25,10.25,0,0,1,1.3-2.8Zm-18.9.4c4.3-.1,1.8,7-.4,6.5,0-.1,1.8-4.2-.7-4.9-1.1-.3-.1-1.7,1.1-1.6Zm-7.1.5c1.3,0,2.3.9,1,1.5-2,.9-.8,3.2-.8,4.5,0,.8-1.8-.7-2.2-2.3-.4-2-.1-3.6,2-3.7Zm-31.7.7c.3,0,.5,0,.6.1a9.35,9.35,0,0,1-2.2,3.8,4.84,4.84,0,0,1-2.4.3c-1.2,0-1,0,.3-2.1a11.28,11.28,0,0,1,1.3-1.9,23.87,23.87,0,0,1,2.4-.2Zm1.5,1.5c0,2.6.9,3.4.2,4.2-.8,1.3-1.8,2.6-2.1,3.1-.6.7-.5.6-.7-1.3a14.72,14.72,0,0,1-.1-2.8,25.8,25.8,0,0,1,1.8-3.2c.6-1.1.9-.9.9,0Zm33.9,1.3c1.2,0,2,1.4,2,2.6l-.1,1.2c1.6-.6,3.6,0,3.7,1.6.2,2.7-1.8,2.4-3.5,2.3a3.87,3.87,0,0,1-.6,3.4c-1.6,1.8-4.5,0-3.7-2.6a2.68,2.68,0,0,0,.2-.9,6.2,6.2,0,0,1-1.4.4c-3.2-.1-2.9-4.7.3-4.1a6,6,0,0,1,1.1.3s-.1-.3-.2-.7c-.5-2,.5-3.5,2.2-3.5Zm63.2.8,1.7,1v1.9l-2.4-1.8ZM48.9,154.2c.7,0,1.2,0,1.1.2a20.09,20.09,0,0,1-2.3,3.4c-.7.8-.8.7-2.7.6-.7,0-1.2,0-1.2-.2.8-1.1,2-2.5,2.8-3.7A6.33,6.33,0,0,1,48.9,154.2Zm1.7.9c.1,0,.2.3.2.9s.1,1.8.1,2.5c.1,1.1.1,1.1-.3,1.8-.6.6-1.1,1.5-1.9,2.2-1.1,1.2-1,1.3-1-1.3,0-2.1-.1-2.1.3-2.5.2-.3.9-1.1,1.4-1.8q.9-1.8,1.2-1.8Zm10.5.3,2.3,1.2-2.3,2.3h.8c1.5.3,1.3,1.8-.1,3a30.44,30.44,0,0,1-4,1.7,24.66,24.66,0,0,1-.3-3.9,2.56,2.56,0,0,1,.6-1.9c.3-.4.9-.6,1.7-.1a3.45,3.45,0,0,1,.6.8Zm26.7.8a1.6,1.6,0,1,0,1.6,1.6A1.58,1.58,0,0,0,87.8,156.2Zm25.3.4a15.05,15.05,0,0,1,4.3,2.4c1.2,1.1.7,2.8-.6,2.8-.1,0-.6-.1-.6-.1.4.6,1.8,2.2,1.8,2.2l-2.3.9s-.4-1.8-.7-2.8c-.8,1.9-2.8.7-2.9-.5-.2-1.6.5-3.3,1-4.9Zm-25.3.2a1.1,1.1,0,1,1-1.1,1.1A1.11,1.11,0,0,1,87.8,156.8ZM44,159.1a13.47,13.47,0,0,1,2.2.1c.3.3-.4,1.1-1.7,2.5-1.1,1.2-1.3,1-2.6,1-2.2,0-2.3,0-1.3-1.1a13.36,13.36,0,0,1,2.3-2.4,3.11,3.11,0,0,1,1.1-.1Zm2.8,1.1c.2,0,.2.6.1,1.9l-.1,2.3-1.7,1.7c-2,1.8-1.8,1.9-1.8.2a7.23,7.23,0,0,1,.3-2.9,39.74,39.74,0,0,1,2.8-3c.2-.1.3-.2.4-.2Zm44.2.6c.5,0,1.7,2.1,2,3.9.7,4.1,3.1,6,4.8,4.4.7-1,.8.1.7.6-.4,5.2-6.2,3-6.8-2.1-2,1.3-3.9-1.4-2.7-1.3,3-1,2.2-3.7,2-5.5Zm-6.7,0c.3,1.8-2.9,4.9-4.7,2.7-.9-1.1-.1-3.4,1.1-2,1.3,1,2.5-.1,3.6-.7Zm-44,2.5c.7,0,1.6.1,2,.1.6.1.2.3-1.1,1.5-1.1,1-1.4,1.5-1.5,1a20.68,20.68,0,0,1,0-2.5c.1-.1.3-.1.6-.1Zm14.9,1.2,2,1.4-1.9,1.8c1.7-.1,1.9,1.6,1.2,2.5-.4.6-2.1,1.3-3.7,1.6-1,.2-1.8.3-1.8.3s0-.8-.1-2.1c-.1-2.6.1-3.7,1.1-4.2a1.83,1.83,0,0,1,2.2.9,5.92,5.92,0,0,0,.4.6Zm-12.5.1h0c.1.2-.3,4.4-.3,4.4l-2.8-1.6s2.8-2.7,3.1-2.8Zm74.9.5c2,1,3.5.8,4.9,2a1.59,1.59,0,0,1,0,2.7,5.13,5.13,0,0,1-1,.1,13.07,13.07,0,0,0,2.3,2l-2.5,1a14.74,14.74,0,0,0-.7-2.6,1.84,1.84,0,0,1-2.9.7c-.6-.5-.9-2.1-.6-3.5.1-.3.5-2.4.5-2.4Zm-13.3,39.8c-24.5,5.9-44.3,2.2-46.3,1.5l-1.6,2.3c-.2.4-.3,1.6-1.4,1.9L53.4,213l.3.3-1.4,1.2.3.4-1,1.5h-.4L48.8,220l.4.4L43.8,229h73.5c-4.2-8-8.8-16-13-24.1Zm-.4,1,.4,1.2c-1.2-.2-2.6-.2-4.1-.3A20,20,0,0,0,103.9,205.9ZM99.6,207a12.83,12.83,0,0,0-4.8,3.8,13.38,13.38,0,0,0-5.1-2.3Zm-41.3.6,1,.1s-.3.3-.6.2S58.3,207.6,58.3,207.6Zm46.8.6.7,1.3c-1.6-.9-8.4-2.8-10.3,4-2-2.8-10.4-6.8-14.7,1.8-1.2-2.3-8.2-9-14.7-.5-2.5-5.3-4.6-5.7-9.3-5,3.3-3.2,7.9.1,9.9,2.9,5.5-4.6,10.2-3.2,14.2.5,5.2-5.7,10.4-4.4,14.1-1.5,2.6-3.8,5.1-5,10.1-3.5Zm-42.8,0c3.3.4,6.6.7,9.9.8-1.9.7-3.9,1.3-5.4,2.7a14,14,0,0,0-4.5-3.5Zm23.8.6a25.59,25.59,0,0,0-5.3,3.5,16.34,16.34,0,0,0-5.3-3.2,92.5,92.5,0,0,0,10.6-.3Zm21.1,2.7a5.07,5.07,0,0,0-.9.2,2.49,2.49,0,0,0,.7,4.9c.3,0,1-.1,1-.1-.1,2.8.8,3.5,3.6,3.3l4.8,8.7-71-.3,4.5-7.3c2.3.3,3.7-1,3.2-3a12.75,12.75,0,0,0,1.8.4c2.6,0,3.2-4,.8-4.7a8.38,8.38,0,0,0-1-.2c1.1-2.8,4.2-1.2,5.1,0a3.06,3.06,0,0,1,5.1,1.2,3.21,3.21,0,0,1-.5-.3c-2.3-1.7-4.5,1.8-2.2,3.5a1.74,1.74,0,0,0,.7.3,1.56,1.56,0,0,0-.5.7,2.6,2.6,0,0,0,3,3.8c1.8-.7,1.8-2,1.8-3.5a8.33,8.33,0,0,1,1.2.1c2.1,0,2.7-2.7,1.4-4a3.27,3.27,0,0,0-2.1-.7c2.5-2.4,4.1-.8,5.8.4.3,0,3-3.3,6.3-.1a2.46,2.46,0,0,0-3.2,2.3c0,1.1.8,2,2.4,2.1a3.65,3.65,0,0,0-.3,1.5,2.55,2.55,0,1,0,5-.6,1.57,1.57,0,0,0-.5-.8,2.39,2.39,0,1,0,.8-4.7,2.31,2.31,0,0,0-2,.9c1.8-3.6,5-2.9,6.2-1.4,1.6-1.2,3.9-2.9,6.6.1a4.29,4.29,0,0,0-1.6,0,2.26,2.26,0,0,0-.5,4.2,4.71,4.71,0,0,0,1.7.4,2.61,2.61,0,0,0,3.8,2.9c1.3-.8,1.6-2.7.2-4.4,2.4-.1,2.6-3.1,1.2-4.1-1.1-.8-2.3-.4-3.2.7-.3-.9,2-3.8,5.3-1.7,1.8-1.7,3.5-2.2,5.5-.7Zm1,2.3.9,1.7A1.05,1.05,0,0,1,108.2,213.8Zm-11.9,1.7a1,1,0,0,1,1,1.1,1.1,1.1,0,0,1-1,1.1,1,1,0,0,1-1-1.1A1,1,0,0,1,96.3,215.5Zm-43.1.1c.1.6.2,1.1-.8,1.2Zm12,1a1,1,0,1,1-1,1A1,1,0,0,1,65.2,216.6Zm15.9.3a1,1,0,1,1-1,1A1.08,1.08,0,0,1,81.1,216.9Z"/><path id="path153-6-3-1-9-0-4-7" d="M48.1,26.6C40.8,37.1,32.9,43.1,32.8,51.3c0,2.7,1.4,7.2,5.9,8,2.9.6,6.9-1.8,7-6.6,0-1,1-.9,1,.4a26.91,26.91,0,0,1-3.3,11.8H53a26.91,26.91,0,0,1-3.3-11.8c0-1.3,1-1.3,1-.4.1,4.8,4.1,7.1,7,6.6,4.5-.9,5.9-5.4,5.9-8-.3-8.2-8.1-14.2-15.5-24.7Z"/><path id="path153-6-3-1-8-6-4-8-4" d="M130.6,223.1c-7.3-10.5-15.2-16.5-15.3-24.7,0-2.7,1.4-7.2,5.9-8,2.9-.6,6.9,1.8,7,6.6,0,1,1,.9,1-.4a26.91,26.91,0,0,0-3.3-11.8h9.6a26.91,26.91,0,0,0-3.3,11.8c0,1.3,1,1.3,1,.4.1-4.8,4.1-7.1,7-6.6,4.5.9,5.9,5.4,5.9,8-.3,8.2-8.2,14.2-15.5,24.7Z"/></g></g></g></svg>