<svg xmlns="http://www.w3.org/2000/svg" viewBox="0 0 178.8 249.6"><defs><style>.cls-1{fill:#fff;stroke:#000;stroke-width:1px;}.cls-2{fill:#d40000;}.cls-3{fill:#e2cf00;}.cls-4{fill:#131f67;}</style></defs><title>Qc</title><g id="Layer_2" data-name="Layer 2"><g id="svg11376"><g id="Qc"><path id="rect6355-6-85-3-5-0-1" class="cls-1" d="M9,.5H169.8A8.49,8.49,0,0,1,178.3,9V240.6a8.49,8.49,0,0,1-8.5,8.5H9a8.49,8.49,0,0,1-8.5-8.5V9A8.49,8.49,0,0,1,9,.5Z"/><path id="path147-6-9-8-7-0-5-6-46-4-5" d="M164.6,209.3c3.1-.1,4.5-3.7,2.2-6.6-.3-.4-.4-.7.2-.3,1.6,1.1,4.6.4,4.7-2.9.2-4.1-5.3-5.3-6.3-.9-.1.5-.4.4-.3-.2a12.48,12.48,0,0,1,1.4-5h-3.7a15,15,0,0,1,1.4,5c.1.7-.3.7-.3.2-1-4.4-6.5-3.2-6.3.9.2,3.3,3.1,4,4.7,2.9.6-.4.6-.2.2.3-2.5,2.9-1.1,6.5,2.1,6.6Z"/><path id="path147-6-9-8-7-4-5-62-9-4-5" d="M14.2,40.4c-3.1.1-4.5,3.7-2.2,6.6.3.4.4.7-.2.3-1.6-1.1-4.6-.4-4.7,2.9-.2,4.1,5.3,5.3,6.3.9.1-.5.4-.4.3.2a12.48,12.48,0,0,1-1.4,5H16a15,15,0,0,1-1.4-5c-.1-.7.3-.7.3-.2,1,4.4,6.5,3.2,6.3-.9-.2-3.3-3.1-4-4.7-2.9-.6.4-.6.2-.2-.3,2.4-2.9,1-6.6-2.1-6.6Z"/><path id="path37-5-2-4" d="M8.4,29.2H6.2v-3H8.4s0-1.6.1-4.5c.1-6.1.3-7,2-8.7,3.5-3.3,9.3-.6,9.2,4.4-.1,7,0,13.7-.2,14.6-.4,1.7-.4,1.8-.3,2.1.3.6,2.9.9,2.9.7v3a5,5,0,0,1-4.4-1.2,6.62,6.62,0,0,1-6.5.8c-1.8-.9-3.2-3.2-2.8-8.2Zm7.4,5.2c-1.1-1.6-2.9-3.7-4.6-4.5-.1,1.8,0,3.3.7,4.1a2.4,2.4,0,0,0,3.9.4Zm.9-17.3c-.8-2.3-2.9-3.1-4.4-1.6-.9.9-1.1,1.8-1.1,6.9v4.5c3,1,5.7,4.4,5.7,4.4l.1-9.5a23.73,23.73,0,0,0-.3-4.7Z"/><path id="path37-3-2-7-4" d="M170.4,220.5h2.2v3h-2.2s0,1.6-.1,4.5c-.1,6.1-.3,7-2,8.7-3.5,3.3-9.3.6-9.2-4.4.1-7,0-13.7.2-14.6.4-1.7.4-1.8.3-2.1-.3-.6-2.9-.9-2.9-.7v-3a5,5,0,0,1,4.4,1.2,6.62,6.62,0,0,1,6.5-.8c1.7.9,3.1,3.1,2.8,8.2Zm-7.5-5.2c1.1,1.6,2.9,3.7,4.6,4.5.1-1.8,0-3.3-.7-4.1a2.39,2.39,0,0,0-3.9-.4Zm-.9,17.3c.8,2.3,2.9,3.1,4.4,1.6.9-.9,1.1-1.8,1.1-6.9v-4.5c-3-1-5.7-4.4-5.7-4.4l-.1,9.5a35.93,35.93,0,0,0,.3,4.7Z"/><g id="g5457-6-3-6"><g id="g3405-1-0-4"><path id="path3391-4-8-9-0" class="cls-2" d="M95.65,228.55c.44-6.51.07-13.5.36-18.8-.2-.37.53-1.4.56-1.4a7.28,7.28,0,0,1,0-4.6c4.25-16.23,11.94-28.87,19.85-40.64,6.44,19.47-13.77,33.13-18,50.14-1.42,5.89-1.21,10-1.75,15.32Zm-33.6.26-24-37.3L43.22,189l24.72,39.71Zm31.09-69.09c.21,1.07,1,1.65,1.94,1.16s1-.51.44.34a1.74,1.74,0,0,0,2.79,2.06,1.43,1.43,0,0,0,.15-2c-.56-.54-.69-.8.15-.4,2.1.86,3.26-2.2,1.22-3.23a2,2,0,0,0-1.93.38c-.46.48-.54.31-.4-.06.07-.22.13-.59.29-1a6.16,6.16,0,0,0,.24-.8l-2.15,0s.18.5.35.92.23.68.31.85c.28.59-.06.37-.64-.07a1.67,1.67,0,0,0-2.44.37A2.25,2.25,0,0,0,93.14,159.72Zm3.11-30.34,4.62-.15L106,143.31c-4.07,6.79-5.16,14.43-.43,22.19l-14.66,0C94.31,153.85,94.84,141.45,96.25,129.38Zm4.83,18.32a1.65,1.65,0,0,0,.13-2.24c-.71-.84-.55-.89.4-.33,1.37.79,2.7-.93,1.87-2.46a1.8,1.8,0,0,0-2.82-.32c-.53.72-.47.06,0-.9.15-.35.36-1,.36-1l-2.24,0s.28.64.44,1.05c.41,1.09.42,1.43-.21.74a1.73,1.73,0,0,0-3,1.33c0,1.28,1.17,2.09,2.17,1.5.62-.36.89-.44.19.39a1.78,1.78,0,0,0,.32,2.28A2,2,0,0,0,101.08,147.7Zm-31,4.39c.19-.13.25-.05.14.13a5,5,0,0,1-.53.6c-1,1.16.31,2.65,2,2.42,1.14-.16,1.82-2,1-2.69-.29-.18-.49-.21-.71-.47,0-.09,0-.17.14-.13s.45.31.61.36a1.65,1.65,0,0,0,2.14-.91,2.18,2.18,0,0,0-.71-2.31,1.63,1.63,0,0,0-2.2.44c-.58.79-.67,0-.19-1a4.88,4.88,0,0,0,.3-1l-2,.12s.11.45.29,1c.46,1.16.79,1.5.19.9-2.52-1.5-3.35.53-3.39,1.34a1.78,1.78,0,0,0,3,1.26Zm10.07-22.84,3.71,0c-2.8,15-8.54,27.48-18.2,36.1l-18.18-.06-8.76-6.15,3.39-4.42C65.23,157.14,75.05,145.65,80.19,129.25ZM63.46,163.92a1.64,1.64,0,0,0,.82-2.54c-.65-.76-.72-1,.29-.41,1.34.78,2.64-.77,2-2.3a1.75,1.75,0,0,0-2.62-.6c-.81.62-.8.34-.38-.63a7.06,7.06,0,0,0,.38-1.25l-2.28,0a7.25,7.25,0,0,0,.34.91c.38.85.52,1.25.34,1.26s-.38-.26-.53-.42a2,2,0,0,0-2.16-.05c-1.36,1.3-.59,3.59,1.14,3.17,1.12-.28,1.37-.7.45.35C60.07,162.76,61.84,164.64,63.46,163.92Zm-14.36-.46a1.54,1.54,0,0,0,.73-2.25c-.53-.7-.79-1.17.15-.53,1.26.64,2.35-.21,2.33-1.64a1.77,1.77,0,0,0-2.92-1.3,1.78,1.78,0,0,1-.51.28c-.15,0,.13-.81.42-1.34.14-.23.36-.7.36-.7l-2.27-.08a10.22,10.22,0,0,0,.3,1.1c.37,1,.45,1.3-.17.74-1.72-1.61-3.54.45-2.82,2.21a1.44,1.44,0,0,0,2.23.5c.63-.48.31.16-.12.67C45.62,162.55,47.34,164.29,49.1,163.46Zm104-37.5.12,2.76-29.43,24.63-1.23-1.9ZM43.63,131.15c4.24-3,9-8.46,13.6-11.29C60.65,127.69,52.67,135.38,43.63,131.15ZM121,129.71c-3-16.59,14.75-13.12,13.81-11.65ZM25.73,119.56,54.86,95.71l1.32,2L25.44,123ZM105.54,95.5c.08.25,1,1.2,1,1.28-.25-.18-1.74-1-2.48-.2a2.77,2.77,0,0,0-.53,1.76,1.73,1.73,0,0,0,2.89.88c.3-.27.56-.58.62-.47a2.56,2.56,0,0,1-.25.92c-.15.37-.74,1.16-.31,1.15h2.07a4.71,4.71,0,0,0-.32-1c-.46-1-.45-1.55.12-.82,1.08,1.41,3.19.23,3-1.47A1.59,1.59,0,0,0,109,96.16c-.09.07-.38.35-.43.37s.2-.47.4-.85c.66-1.28-.33-2.48-1.86-2.34a2,2,0,0,0-1,.4A1.69,1.69,0,0,0,105.54,95.5Zm25.17-12a49.29,49.29,0,0,0,8.75,6.39l-2.75,4.37C118.06,92.57,104.51,100,98.85,120l-3.07.59c1.16-12.52,5.34-24.93,17.69-37.06Zm-17.87,3c0,.59,1.1,1.29.85,1.46-.1.06-.76-.5-1.06-.53-2.15-.22-2.59,3.14-.47,3.5a2.65,2.65,0,0,0,1.55-.41c.33-.28.58-.51.64-.48s-.16.65-.41,1.09-.52,1.26-.52,1.26h2.44a13.15,13.15,0,0,0-.45-1.29c-.28-.68-.33-1.11-.15-1.07s.18.23.35.39a1.81,1.81,0,0,0,3-.91c.39-1.34-1.22-2.72-2.33-2-.38.27-.38.07,0-.52a1.83,1.83,0,0,0,0-1.84A2,2,0,0,0,112.84,86.54Zm17.58,4c-.07-.3,0-.22.32.12a1.81,1.81,0,0,0,3.11-.49c.43-1.35-.89-2.91-2-2.37-.6.27-.6.18-.26-.26A1.7,1.7,0,0,0,130,84.88a1.65,1.65,0,0,0-1.52,2.49c.26.46.19.57-.29.33-1.4-.68-2.73,1.55-1.69,2.88a2,2,0,0,0,2.8.09c.43-.41.42-.22.12.64a12.9,12.9,0,0,1-.58,1.34l2.43,0A12.11,12.11,0,0,1,130.42,90.52Zm-52.11,30c.71-.18-2.5-10.38-4.85-14.93,2.68-6.43,6.34-12.67.17-21.94l15,0c-4.61,10.52-4.72,37.08-5.8,37.14Zm1.33-11.8a4.37,4.37,0,0,1-.78-1.84c-.09-.53,0-.56.32,0,1.33,1.47,3.14.06,3.14-1.26.16-1.2-1.24-2.23-2.13-1.63-.63.43-.8.31-.24-.48A1.61,1.61,0,0,0,78.47,101c-1.84,0-2.54,1.74-1.22,3,1,.91.06.38-.71.06-1.51-.64-2.5.9-1.82,2.46a1.6,1.6,0,0,0,2.64.48c.44-.47.84-.75.6,0a10,10,0,0,1-.8,1.81ZM82,92.54a6.06,6.06,0,0,1-1-2c-.05-.31.17-.23.67.21,1.61,1.38,3.83-1.09,2.33-2.62a1.29,1.29,0,0,0-1.65-.35c-.75.4-.69.21-.31-.2a1.64,1.64,0,0,0-.09-2.22c-1.64-1.46-4.23.72-2.71,2.28.66.68.35.59-.39.16-1.38-.82-2.9,1.45-1.87,2.77,1.24,1.05,2.14.54,3-.12.19-.1.34-.15.34-.07s-.84,2.15-.84,2.15ZM62.32,86.26c-.91-.07-1.56-8.62-.45-11.33C64.25,63.48,71.51,55.15,76,48.14c7.25-10.44,6.35-27.77,6.67-27.07l1,.11s-.8,10.17-.35,14.75c.46,4,.37,4.28.09,4.69-.08.37,0,1.47,0,1.85-3.22,15-10.92,30.32-18.87,41.92Zm74.55-26.12L112.38,21.37l5.89-.53c2.19,3.47,23.46,36.6,23.46,36.6Z"/><path id="path3395-8-0-1-6" class="cls-3" d="M36,229.49c2.78-10.26-4.75-34.1-9.48-37.21,5.54-.23,12.18-.14,12-.65,0,0,23.51,37.13,23.32,37.33s-25.81.53-25.81.53Zm95.3-58.14c-5.7-.81-3.45-5.56.21-6.06-.47.08.4-2.37,3.36-3.35.66-1.22,1.2-3.31,1.8-4.28-1.77.58-3.92,2.08-12,.9.7-3.83,8.4-4.48,11.17-3.89,1.6.37,3.19,2.78,3.67,2.82,4.94-.83,11.23,3.67,9.33,8.22-.3.66-1-.76-2.71-1.38-5.37-2-5.75-4.88-7-6.18-.45-.09-2.83,4.64-2.83,4.64l.75,3.21c1.28-.12,7,3.43-.12,5.84-2,6.83-5.69,2-5.69-.49Zm13.51-30.48c-.29-.3.24-2.44,1-3.66a2.15,2.15,0,0,1,1.83-1c.94.16.79,1.54-.45,5.56C147.13,142.35,145.86,142.42,144.85,140.87ZM31.37,112.64c-1.56,0-.15-4.27.81-5.63.32-.42,1.57.48,1.62,1.1C33.92,109.21,32.23,113.08,31.37,112.64Zm-1.11-29c1.91.46,4.92,2.39,6.37,3.46,1.79,1.34,1.3,4,2.74,4.21,1-.48,2.75-4.8,2.75-4.8s.44-2.21-.82-2.9c-3.15-1.7-3.09-3.54-2.89-3.69.93-2.42,2.78-2,3.78-2.13,0-1.32,0-4.13,2.71-3.83,2.39.22,2.63,3.65,1.62,3.69,0-.06,4.53-.66,4.48,2.36,0,1.63-2.71,3.71-3.55,3,0,0,.45,3.25-3.62,4.36-.95,1-1.73,5.1-1.73,4.74,2.45-2.22,6.3-2.74,12.36-1.94-3.76,7-14.15,3.71-15,2.37C34.27,90.86,29.38,88.8,30.26,83.62ZM75,66.86c5.53.49,11.57-1.24,16.16-.32.53.07,1.1.84,1.41,1,2.38,1.3,4.87.89,8.69-.56.94-.35,18.47-.22,18.47-.22,4,5.92,11.08,17,11.25,16.68,0,0-9.72-.11-14.19.16-3.15.19-1.29.62-3.49.7C98,95.87,95.09,120.83,95.09,120.83s4.86-1.28,6.14.06c6-17.69,17.45-25.75,33.39-24.17,7.37.72,16.14,8,16.14,8L135,117.6c-12.21-6.18-17.44,12.05-13.74,12.09l31.74-26a19.79,19.79,0,0,1,.48,2.2c-2.25,3-40.1,33.82-40.1,33.82l-1.66-1.85s-1,.93-1.59,1.56A3.42,3.42,0,0,0,111.2,142c-7.5,6-7.75,17.12-2.22,23.17,0,0-2.46.16-2.71.21-3.12.54-6.33-14.88-.16-22-3.12-6.14-5-14.47-5.43-14.87.09,1-4.91.66-4.91.66a170,170,0,0,1-4.66,36.45l23,.49-9.78,17s-11-.28-15.69-.6c-4.94-2.88-7.78-.69-12.41.37-6.59.2-16.29-.11-16.29,0a78.74,78.74,0,0,0-11.64-17c-.61-1,19.51-.39,19.51-.39s10.06-15.28,11.88-19.58c1.43-3.38,4.64-15.62,4.64-15.62.15.63-1.83-3.18-6.42-3.1C74.07,152.57,44,161.12,26,144.78l-.17-2.95,39.84-32.44,1.77,2c-.38-.3-24.46,19.8-24.06,19.69,7.13,3.74,15.39.71,14.43-11.6a135.91,135.91,0,0,0,15.58-13.76c.11-.19,5.49,12.13,5.36,14.49,3.1-1,4.93,1.14,4.87.77-1.12-7.13,5.1-34.14,5.22-37.24-3.46-.28-8-.16-15.22-.44,5.78,11.21,3.77,18.8-4.29,25.69l-1.68-2.12c.68.38,11.78-9.25,2.85-23.64-.4,0-4.71-.39-4.71-.39S74.55,68.85,75,66.86ZM117.8,20.55s25.14-.6,25.15.14a59.1,59.1,0,0,0,9.94,37.37s-11.13-.4-10.92-.25Z"/><path id="path3393-8-5-4-3" class="cls-4" d="M154.69,19.58H24.08V230.1H154.69Zm-12.27.92s-1.69,22.27,9.89,36.87c-7.08-1.07-11.12,0-15.25,2.94l.56.58c5.67-3.5,10.49-2.59,15.42-2V87.53c0,1.4-5.9.77-9.52-2a17.2,17.2,0,0,1-4.92-4.76c-.3-.49-.62-1-.71-1.08-.33-.38-2.4-4.24-6.18-11.55-1.93-3.72-4.48-8.79-6.55-12.71-1.34-2.55-3.82-7.35-4-7.74-.36-.8-3.07-6.1-4.12-8-2.78-5.1-7.29-14-8.89-17.19-.35-.84-.9-1.22.06-1.18a2.79,2.79,0,0,1,.56,0c.17.09.38-.3.38-.3ZM25.89,141.1v-2.25L64,107.4,65.16,109ZM62.74,86l-.51.17c-1-4.37-.43-10.2.73-14.59,1.68-6.09,4.8-11,8.29-15.88,8-11.21,11.49-19.65,11.34-34.7l1.13.13c0,2.37-.35,4.16-.46,7.33a57.47,57.47,0,0,0,.28,9.29c.17,1.63.27,2.68,0,2.89a1.11,1.11,0,0,0-.13.87c0,.45-.07,1.35-.07,1.35C81.54,51.81,71.76,74.8,62.74,86Zm4.76,20.37-2-2.48a1.74,1.74,0,0,1-.16-2.67c4-4.1,4-9.3.16-14-.26-.59,1.21-3.6,1.21-3.6l3.07,0C74.52,89.54,75.82,99.84,67.5,106.38Zm2.8-23.14c.09-.41-4.53-.25-4.53-.25,2.87-4.3,5.31-8.73,7.73-13.16,3.73-6.73,8.89-18.5,10.51-27,1.21,10,3,24.79,11.47,25.38,2.79.19,6-1.73,6.54-1.41l17.67-.13a68.7,68.7,0,0,0,12.14,17.17,46.25,46.25,0,0,0,11.26,4.38c2.22.55,2.43.19,6.8.81a9,9,0,0,0,2.89-.33c-3.49,2.77-7.53,2-12,.8-.25-.06-.52-.15-.78-.24l-3.35,5.07C129.23,92.52,105.26,93.78,99,120c0,0,.65.33.49.15,5-22.71,26.22-27.23,36.32-25l-.87,1.33c-16.76-2.07-30.42,8.46-33.67,23.4l.33.29c6.29-22.58,32.73-30.92,49.14-15.28l3-2.13-.09,2.89-40.32,33.91-1.61-1.67s-.29.22-.6.49c-1,.86-1.46,1.08-1.16,1.56s1.43,1.59,1.47,1.71c-6.68,5.47-8.81,16-2.44,23.41.7.78.58,1,.45.12-5.7-6.23-5-17.25,2.13-22.46l1.43,1.88c-3.13,6.9-4.8,17.65,3.42,18.59,3,7.93-.44,17.32-4.22,23.63-4,7.25-8.87,13.28-11.91,21.19-1.48,3.3-3.82,13.08-3.7,20.56h-.89c0-3,.21-6.67.23-9,.12-11.28.11-10.61.36-10.9.07-.09.32-.19.34-.26s-.19-.36-.27-.64a3.41,3.41,0,0,1-.22-1.19c0-.42.41-1,.33-1.17-1.77-6.22-1.91-17.41-7.63-22.53-2.8-2.43-6.53-2.51-11.35-.53-10.63,0-9.06.57-17.65.08A80.16,80.16,0,0,0,47.27,164.8c-2.18-2.45-5.21-3.78-8.06-5.55a13.53,13.53,0,0,1,3.86-4.8,7.59,7.59,0,0,1,.87-1.23c29,2.8,35.24-25.36,33.92-24.65l-.26.22c-7.91,29-36.1,28-50.25,15.42,0,0-2,1.74-2-.17,0-1.74.63-2.24.63-2.24l39.76-32.54c.73.46,1.5,2,1.83,1.84.74-.39,1.81-1.17,1.77-1.63a19.14,19.14,0,0,0-1.45-2.63c10.65-11.08,5.84-16,2.43-23.6ZM85.36,21.12a.62.62,0,0,1,.52.3c.23.39-.73,2.64-1.31,3s-.61-.05-.2-2.23C84.49,21.58,85,21.12,85.36,21.12Zm58.34.06H153V56.66C146.16,47,142.6,35.79,143.7,21.18Zm-55.86.07c.23,0,.43.05.5.22.24.61-1.11,3.18-2.79,5.33-.87,1.11-1.3,1.43-1.58,1.17-.22-.51-.23-1.1.58-2a20.75,20.75,0,0,0,2.24-3.53C87,21.81,87.19,21.28,87.84,21.25Zm9.46.12c.26,0,.54,0,.62.14a18.42,18.42,0,0,0,7.73,7.85c.45.26.24.9.38,1.36-3.48-.52-8-5.47-9.26-9.08C96.77,21.36,97,21.36,97.3,21.37Zm5.44,0c.69.71,1.78,1.57,2,2.37a2.73,2.73,0,0,1,.16,1.34c-.6.38-3.61-3.12-3.49-3.54A1.48,1.48,0,0,1,102.74,21.37Zm-13-.05c.3,0,.75,0,.81.22.37,1.54-3.09,7.48-5.62,9.15-.91.6-1,.45-.89-.56,0-.67.12-.63,1-1.51a17.52,17.52,0,0,0,3.56-4.94C89.61,21.46,89.36,21.32,89.71,21.32Zm2.36,0a1,1,0,0,1,.73.25c.11.2,0,.53-.15.92a26.08,26.08,0,0,1-7.32,10.58c-1.31,1-1.52,1-1.61,0-.06-.6.22-.78.83-1.21A17.73,17.73,0,0,0,91,23c.21-.69.12-1.29.49-1.5A1.22,1.22,0,0,1,92.07,21.34ZM109.64,27c.14.23,1.11,1.76.31,1.17a22.57,22.57,0,0,1-1.86-2c-2.23-2.54-2.3-2.38-2.25-3,0-.82-.57-2.17.71-1.83C107.8,22.76,108.57,25.13,109.64,27ZM99.49,21.39a3.74,3.74,0,0,1,.81.1c1.47,2.77,5,5.21,5,5.2a5,5,0,0,1,0,1.41c-.07.38-5.69-3.91-6.32-6.48C99,21.45,99.25,21.4,99.49,21.39Zm-4,.05c1.31,2.44,4,8,10.43,10.18.47.11.95,1.42.6,1.78a18,18,0,0,1-12-11.92A1,1,0,0,1,95.5,21.44Zm-1.73.47c-.21,0,3,9.38,12.25,12.18.8.26,1.26.59,1.22,1.07s0,.67-.92.23A10.23,10.23,0,0,0,97.21,35c-.46.24-.93.9-.55,1.3.22.21.74,0,1.42-.22,3.48-1.36,8.83-.57,9.76,1.58.67,1.52.79,2.65.42,2.83s-.75-.37-1.59-1.1c-2.66-2.34-5.82-3-8.35-.75-.55.49-1.08.4-1.27.6s0,.64.18,1.06a1,1,0,0,1,0,.95,3.54,3.54,0,0,0-.2,1.66c.06,1.2.84,2.23,3.12,3.8,1.76,1.23,3.15,1.92,1,.18-3.71-3-4.39-4.26-2-3.21s5.74,0,8.1-1.82c.81,0,1.28-.15,1.7.16,1.77,4.14,3.21,9.67,5.54,15C111.71,60.19,102,68,95.06,67.67c-6-.24-8.12-10.08-9.43-15.52a34.73,34.73,0,0,1-.89-7.9.33.33,0,0,1,.26-.06,10.78,10.78,0,0,0,3.61.11c1.59-.37,1.91-.65,2-.42s-.54.91-1.71,1.7c-.51.34-2,1.06-1.81,1.15.36.23,2.12-.71,2.42-1,.46-.39.78-.41,1-.2s.31,0-.55,2.12c-.95,2.36-.85,2.57,1,4A8.55,8.55,0,0,1,92.32,53c.18.29.3.63.38.74.32.41.12-.25-.06-1.34a4.1,4.1,0,0,0-1.54-2c-1-.7-.85-1.39,0-3.79,2.46-7.06,1.84-10.22-.87-11.75-1.21-.68-4.65-.51-5.72.39-.54.44-.45-.43-.38-.49,6.48-4.42,8-8.7,9.65-12.83Zm12.56,3.46a76.76,76.76,0,0,1,5.53,6.11,23,23,0,0,1,1.76,2.91c.11.19.24.39.15.47s-.3-.12-.44-.23c-1.35-1-6.93-7.41-6.93-7.41C106.12,26.18,106,25.83,106.33,25.37Zm1.1,4.34s4.84,5.3,7.61,7.91a32.52,32.52,0,0,1,1.56,3.09c0,.13-.59-.32-.59-.32-3.06-2.84-5.88-6-8.82-9,0,0-.24-1.26-.24-1.75C107,29.34,107.3,29.6,107.43,29.71Zm10.5,13.58c.65,1.07,1.12,2,1.44,2.64.52,1,.34,1-.12.66-3.46-2.85-6.35-6.32-9.62-9.48-.42-.43-1.27-1.41-1.27-1.41s-1.06-2.29-.38-2.24c.55.21.89.8,1.24,1.17C110.92,36.47,114.19,39.62,117.93,43.29ZM87.74,35.72a4.43,4.43,0,0,1,3.54,1.21c.64.8.9,2.07.55,2.43s-1-.42-1-.42c-3.36-1.89-4.51-1-6.35-.43-.26.08-.53-.63-.2-1.32.66-1.15,2.35-1.44,3.47-1.47Zm21.15,1.79c3.6,3.62,7.25,7.64,11.14,10.75.55.46.92.76,1.17,1,.51,1,1.69,3.46,1.69,3.46-4.16-2.92-13.55-13-13.46-12.95S108.65,37.94,108.89,37.51Zm-7,.6a5.66,5.66,0,0,1,1.94.43c1.82.73,3,1.49,1.08,1.23a13.59,13.59,0,0,0-4.45-.21c-1.78.28-1.92.49-2.07.21C97.92,39,99.88,38.14,101.84,38.11ZM87,38.33a5.14,5.14,0,0,1,2.07.44c2.21,1,2.6,1.6.72,1.3a11.81,11.81,0,0,0-4,.18,6.94,6.94,0,0,0-1,.38c-.46.15-.57-.19-.38-.77A2.58,2.58,0,0,1,87,38.33Zm16,2.83.47,0c-.57,3.25-3.81,2.93-4.67.14h.46C101,44,102.28,42.43,103.05,41.16Zm1.82.17c1.5,0,1.4.88-.16,1.49-1.18.46-1.32.37-.88-.52S104.19,41.33,104.87,41.33Zm-15.4.12a2.09,2.09,0,1,1-4.16.27l.39,0c1.33,2.5,2.87,1,3.36-.26Zm1.82.4c.45.32.18.75-.82,1.36s-1.13-.11-.39-1.07A1,1,0,0,1,91.29,41.85Zm7,0c.18-.05.59.74.24.93s-.53-.21-.56-.44A.43.43,0,0,1,98.33,41.85Zm12.16.18A103.37,103.37,0,0,0,123.9,54.55a25,25,0,0,1,1.38,2.8c-.2.23-.29.2-.85-.07a91.48,91.48,0,0,1-13.83-13.5C110.41,43.14,110,42.53,110.49,42Zm-25.83.3a.85.85,0,0,1,.5,1.1c-.2.15-.51-.09-.63-.28a.82.82,0,0,1-.06-.68C84.52,42.36,84.58,42.33,84.66,42.33Zm27,4.14c0-.11,12.6,12.74,14.22,12.5.75.44,2.63,4.1,2.63,4.1s.05.33-.26.18c-2.13-1.07-11.06-8.5-15.61-14A20.23,20.23,0,0,1,111.62,46.47Zm-15,1.89c2.21,1.07,1.26,3.27-1.06,1.86C93.72,49.11,92.28,49,92.29,50a1.11,1.11,0,0,0,1,.93,15.65,15.65,0,0,1,2.62.59c1.38.29,2.43-.08,2.77-.92a2.23,2.23,0,0,0-1.73-2.92c-1,.09-.72.54-.32.72Zm17.43,3.52a89.63,89.63,0,0,0,15,12.79,23.82,23.82,0,0,1,1.33,2.7c0,.19-.23,0-.23,0-4.42-2.57-10.28-7.66-15.81-13.44a13.38,13.38,0,0,1-.69-2.12C113.8,51.74,113.93,51.82,114.05,51.88ZM99.44,54.42c-.2,0-.46.33-.8.51-.67.38-.89.47-2.54,0-.9-.27-1-.25-1.57.14a1,1,0,0,1-1.25.17c-1-.42-1.38-.1-2.26.2s-1.11-.07-1.86-.24a17,17,0,0,0,0,3.12s.78-.46,1.2-.67c.72-.36.61-.31,1.68-.26a8.13,8.13,0,0,0,4.16-.24,3.24,3.24,0,0,1,3.22.45c.55.44,1.28.37.85-.45a5.18,5.18,0,0,1-.44-1.73c.06-.59-.07-1-.29-1Zm16.68,2.36c2.95,2.86,6.61,7.2,15.19,12.24.44.79,1.05,1.84,1.43,2.66,0,.23,0,.43-.24.34a71.16,71.16,0,0,1-15.61-12.3,18.47,18.47,0,0,1-1.32-3C115.65,56.41,116,56.71,116.12,56.78Zm-1.26,1.09,3.29,6.19-11.07,0A43,43,0,0,0,114.86,57.87ZM96.54,58c-1.82.72-2.09.88-3.89.43-1.06-.25-.76.35-.23.61a4.74,4.74,0,0,0,4-.32C97,58.43,97.28,57.71,96.54,58Zm-1.86,1.92c-1.91,0-3.69.69-3.84,1.47,0,.15.13.32.42.13,1.29-.77,4.49-1,6.91-.15.39.13.47-.1.06-.44A5.41,5.41,0,0,0,94.68,59.93Zm24.13,2.63a70.39,70.39,0,0,0,14.74,10.8,20.86,20.86,0,0,0,1.5,2.8C127.83,72.64,120,65.7,120,65.7a25.66,25.66,0,0,1-1.52-3.17C118.4,62.22,118.7,62.49,118.81,62.56Zm2.46,5.18a82.82,82.82,0,0,0,14.1,9.39c.3.3,1.06,2.1,1.31,2.29s-.29.19-.83-.09c-3.94-1.82-12.37-7.64-12.37-7.64C122.67,70.36,121.51,69,121.27,67.74ZM42.4,91.11A40,40,0,0,0,44,87.21a3.69,3.69,0,0,0,3.31-1.46c.92,0,1.61,0,2.85-.07-.05-1.22,0-3,0-3,1.26-1.31,2.11-2.79.16-5.1,0,0-.07-1.07-.11-2.89a21,21,0,0,0-2.91,0,3.14,3.14,0,0,0-5.38,0s-1.3.08-2.18.07c0,.49-.17,2.65-.17,2.65s-3.8,2.59.14,5.65l0,2.56a16.65,16.65,0,0,1,2.23.2S40.4,89.32,39.41,91c-.34.08-.26-.11-.66-1.27A9.06,9.06,0,0,0,36.2,86.1c-1.28-1-3-1.3-4.25-2.16s-2-1.9-2.38-1.69a11.72,11.72,0,0,0,.19,4.34C30.39,89.12,34,90.74,37,92c.23.15.44.38.44.46,0,.42-.4.29-1.39.19a2.12,2.12,0,0,0-2.65,1.55,7.56,7.56,0,0,1-.83,1.22,4.16,4.16,0,0,0-.67.88c-.05.15-.37.93-.67,1.59a3.47,3.47,0,0,0-.52,1.42,31.24,31.24,0,0,0,.17,5.79A2.84,2.84,0,0,0,33,106.92c.74.15.89.91.77,1.53-.58,3.08-2.34,5-2.91,4-.14-.26-.31-1.51-.34-1.51a4,4,0,0,0-.2,1.51,1,1,0,0,0,1.29.59c.86-.32,1.55-1.17,2.09-3.13.22-.8.43-1.25.8-1.3.68.05,1.75,1.45,1.75,1.45-3.54,3-10.35,8.35-10.35,8.35V21.19H81.87A48.84,48.84,0,0,1,78.5,42.32C75.24,49.72,70.16,55.21,66.28,62a36.51,36.51,0,0,0-4.6,25.31A57.89,57.89,0,0,1,49,99.55l-4.46-4.72L46,94.74c3.63-.41,7.57-.92,9.09-4.73.21-.42.13-.61-.13-.67-2.84.39-5.32,0-6.93.11-4,.29-5.66,1.66-5.66,1.66Zm.43,2.81s-4.57-2.19-4.91-2.24c-2-.37-6.79-2.88-7.6-4.58-.11-.22-.38-3.33-.46-4,0-.2.1-.2.31,0,.51.35,2.5,1.65,3.24,2,3,1.48,4.2,2.54,5,4.76a7,7,0,0,0,.5,1.26c.25.26.34.24.65,0A15.22,15.22,0,0,0,42,86.21a1,1,0,0,0,.15-.7c-.24-.81-.83-1.84-.23-2.62-1.9.08-3.71-1.31-3.5-2.72.51-2.58,1.6-2.11,3.66-2.49-.24-6,5.35-4.53,5.33-.37,6.13.52,3.24,6.21-.33,5.35,1.42,3.23-2.83,4.44-3.42,3.89-.24,1-1.85,4.41-2.2,5.41,4.55-3.23,11.85-1.79,12.91-2C51.75,95.5,43.11,94.15,42.83,93.92Zm81.8-20.41c1.15.89,10.94,7,12.73,7.17,0,0,.86,1,1.59,1.87s.9,1,1,1.12-.24.16-.31.16c-4.4-1.93-8.87-3.94-12.68-7.13a4.24,4.24,0,0,1-.88-1C125.73,75.27,124.74,73.68,124.63,73.51Zm3.24,4.95c4.47,2.53,8.27,5,12.35,6.29a6.53,6.53,0,0,1,1.17.44c.29.2,1.53,1,1.82,1.15,1.85,1.09,2,1,1.59,1.22s-3.78-.75-6.53-1.77c-4.89-1.81-6.62-2.85-8.41-4.46C129.47,80.93,127.61,78.7,127.87,78.46ZM38.67,92.54a2.85,2.85,0,0,1,1.6.71,21.07,21.07,0,0,0,3,1.89,4,4,0,0,0,.45.18l4.4,5L36.8,109.58s-.92-.93-1.2-1.26-.19-.54.14-.88a1.49,1.49,0,0,0,.25-1.16,1.25,1.25,0,0,1,.48-1.31,1.34,1.34,0,0,0,.49-1,1.54,1.54,0,0,1,.61-.82,1.76,1.76,0,0,0,.76-2.12c-.11-.35-.17-.43.29-.75A2.11,2.11,0,0,0,39.7,98.4a1.28,1.28,0,0,0,0-.36c-.16-.84.58-.63,1.18.42a8.72,8.72,0,0,1,.59,2.59c.2,1.27.32,1.61.4,1.44.39-1-.07-4.86-1.24-5.38-1.69-.75-3.12-2.31-2.69-2.92.15-.2.17-.14,1.21.35a8.57,8.57,0,0,0,1.26.51c1.21,0,.47-.47.09-.53a5.55,5.55,0,0,1-2-1.22C38.15,92.81,38.3,92.56,38.67,92.54Zm-2.88.67c1.11,0,1.31.28,1.32,1.24,0,.56.22,1,1.1,2.13a2.37,2.37,0,0,1,.58,1c0,.29-.14,0-1.36-.16-.44,0-.65,0-.81.17-.42.62-1.31,0-1.85-.94C33.45,94.43,33.91,93.23,35.79,93.21Zm21.08,1.31,12.05,14.8-1.37,1.05L55.46,95.78Zm-2,.91,1.29,2.19s-3.72,3.2-4.72,4.11c-7.93,6.44-25.82,21.07-25.82,21.07l-.24-2.94Zm-21.74.4c.23,0,.5.31.89.89a12.57,12.57,0,0,0,1.79,2.22c1.47,1.35,1.61,1.24.42,1.36-.48,0-.63,0-.92.73-.87,1.09-3.45-2.82-2.85-4.34C32.69,96.12,32.89,95.83,33.12,95.83Zm4.2,2.11a1.48,1.48,0,0,1,.84.27c.64.26.69.41.59,1s-.55.73-1.43,0c-.67-.63-.55-1.24,0-1.28Zm19.22.38L58,100.15,25.88,126.23v-3C26.67,123.32,47.23,105.35,56.54,98.32Zm-24.9.29c.09,0,.22.28.58.82a9.55,9.55,0,0,0,2.15,2.4c.71.53.79.84.3.85a.92.92,0,0,0-.65.49c-.3.53-.33.41-.8.12a3.6,3.6,0,0,1-1.61-1.77,5.13,5.13,0,0,1-.08-2.67C31.56,98.69,31.59,98.61,31.64,98.61Zm5.06,2.09a1.07,1.07,0,0,1,.87,1.7c-.3.3-.56.44-1.17.07-.8-.47-.94-1.18-.28-1.59A1.06,1.06,0,0,1,36.7,100.7Zm-5.26,2.06c.17,0,.48.25,1,.78a5.76,5.76,0,0,0,1.38.92c.62.35.65.47.31.74-.13.13-.61.13-.75.51-.37,1.07-1.93-.18-2.08-1.72C31.22,103.2,31.22,102.76,31.44,102.76Zm3.91.13a1,1,0,0,1,.69,1.82c-.45.32-1.57-.24-1.68-.83C34.31,103.51,35,102.88,35.35,102.89Zm24,.9a1.07,1.07,0,0,1,1.08,1.07,1.08,1.08,0,1,1-2.15,0A1,1,0,0,1,59.31,103.79Zm-3.21.44A1.08,1.08,0,1,1,55,105.31,1.05,1.05,0,0,1,56.1,104.23Zm-21.55,1.43h.2c1,0,1,1,.45,1.5a.76.76,0,0,1-1.13,0C33.27,106.55,33.57,105.72,34.55,105.66Zm23.93,1.58a1.09,1.09,0,0,1,1.08,1.08,1.07,1.07,0,0,1-1.07,1.08,1.09,1.09,0,0,1-1.08-1.07A1.1,1.1,0,0,1,58.48,107.24Zm94.43.07V110L115,141.75l-1.29-1.68Zm-96.6.24-2.81,6.32-.84-1.64h-2.1l.64-1.89L50,108.83Zm59.75,26.33,5-4c-2.15-10.89,6.44-15.23,14.59-12.06l5.08-4.34C131.31,105.48,109.17,110.89,116.06,133.88Zm-67.6-21.3a1.09,1.09,0,0,1,1.08,1.07,1.08,1.08,0,1,1-2.16,0A1.08,1.08,0,0,1,48.46,112.58Zm-3.27.27a1,1,0,0,1,1.05,1,1.07,1.07,0,0,1-1,1.11,1.08,1.08,0,0,1-1.08-1.09A1.06,1.06,0,0,1,45.19,112.85ZM62.58,115l-5,4c1.28,10.44-3.77,15.75-14.64,12.17l-5.26,4.2C51.91,145.17,70.51,132.54,62.58,115Zm-15.26,1a1.08,1.08,0,1,1-1.07,1.08A1.07,1.07,0,0,1,47.32,116Zm104.22.26a1.08,1.08,0,0,1,1.08,1.07,1.08,1.08,0,1,1-1.08-1.07ZM45.1,116.5l-3.17,6.29-.79-1.9-2.12,0,.68-2.19-1.32-1.14Zm102.18.67,1,1.67,2.07,0-.78,1.58,1.5,1.55-6.77,1.68ZM37.54,121.74a1.08,1.08,0,0,1,1.08,1.07,1.09,1.09,0,1,1-1.08-1.07Zm-3.09.11a1.08,1.08,0,1,1,0,2.16,1.07,1.07,0,0,1-1.08-1.07A1.11,1.11,0,0,1,34.45,121.85Zm107.6.65a1.08,1.08,0,1,1-1.07,1.08A1.06,1.06,0,0,1,142.05,122.5Zm11,.17v2.39l-30.82,25.73-1.3-1.68ZM36.6,125a1.07,1.07,0,0,1,1.08,1.07,1.08,1.08,0,1,1-2.15,0A1.07,1.07,0,0,1,36.6,125Zm107.65.27a1.09,1.09,0,0,1,1.08,1.07,1.1,1.1,0,0,1-1.08,1.09,1.09,1.09,0,0,1-1.07-1.09A1.06,1.06,0,0,1,144.25,125.27Zm-3.05.19a1.08,1.08,0,0,1,0,2.16,1.1,1.1,0,0,1-1.08-1.09A1.06,1.06,0,0,1,141.2,125.46Zm12,.38-.09,3c-9.6,8.22-29.24,24.55-29.17,24.56l-1.48-2.05S144,132.77,153.23,125.84Zm-118.6-.45-3,6.71-1.28-1.8-1.87-.13.45-1.83-1.72-1.17ZM137.35,128l1.88-.36-.34,2,1.34,1.39-7,1.54,3.37-6.26Zm10.4,32.69c1.42,2.13,1.32,4.45.73,4.8a20.77,20.77,0,0,0-1.81-1.24c-3.24-1.41-5.83-2.56-6.3-4.62C138.6,155,146.57,159,147.75,160.72ZM130.68,148.3l10.92-8.93a11,11,0,0,1,2,1.27c.11.43-.2.56-.64,1a1.62,1.62,0,0,0-.35,1.09c0,.61.2.88-.06,1.15-.42,0-.74.52-.72,1s-.42.7-.67.95c-.46.44-.58.54-.87,2.05a1.37,1.37,0,0,1-.23.74c-.63.06-1.09,1.62-1.37,1.71a1.82,1.82,0,0,1-1.38-1.43,7.64,7.64,0,0,1,0-2.28,7.31,7.31,0,0,0,.17-1.74c-.12-.45-.42-.17-.42.45a9.15,9.15,0,0,1-.26,1.76c-.16.73-.6,1.7-.4,2.27.3.85,1.39,1.22,1.87,1.68a7.39,7.39,0,0,1,1.73,2c1,1.9,1,2.22.78,3.64-.15.82-.95.68-1.42.34,0,0-3.07-2.25-4.4-3.35a15,15,0,0,1-4.32-5.33Zm4.16,6.14a35.3,35.3,0,0,1,4.22,2.7l-2.78,5.79a11.66,11.66,0,0,1,.71,3.17c3.51-.28,5.42,5.67-.05,5.12.63,3.68-5.26,6.55-5.1,0-6.14.47-4.08-6.51-.29-5.2-.11-3,1.85-3.35,3.23-4.08a12.71,12.71,0,0,0,1.84-4.21l-.27-.9h0c-1.17,2-6.13,2.63-11.57,1.54,1.44-3.48,5.92-3.37,10.06-3.9ZM124,158.85c-.17.7-.19.68.66.6.42,0,2.14,0,3.33,0,2.2.18,5.65.19,7.36-1.13.34-.32.53-.31.59-.14.15.86-1.54,3.67-1.54,3.67l-2.76,1.54s-1.13.06-2.54,0l0,2.5a3.26,3.26,0,0,0,.05,5.61l-.1,2.74,2.68,0c1.78,1.71,3.22,1.71,4.86.09h3.09v-2.95a3.26,3.26,0,0,0,.17-5l0-3H137.4s-.5-.38-.51-.69a38.32,38.32,0,0,1,2.08-4c.43-.63.32-.27,1,1.17,1,2,2,2.89,4.47,4.11a14.43,14.43,0,0,1,3.7,2.21c.51.49.82.33,1-.4a6,6,0,0,0-.61-4.79c-1.91-3.18-5.22-3.33-5.74-4.06-.06-.17.6-.38,1.34-.69a10.2,10.2,0,0,0,3.33-4,6,6,0,0,1,.47-2.16,4.33,4.33,0,0,0,.27-2.3,5.23,5.23,0,0,1,.08-2.34,5.09,5.09,0,0,0-.88-2.8c-.21-1-.16-.77.51-3.11.1-.37.85-3.63-.11-3.85a1.72,1.72,0,0,1,.13.18,5.52,5.52,0,0,1-.14,3.05c-.74,2.62-.77,2.93-1.45,2.7a16.37,16.37,0,0,1-1.41-1,12.76,12.76,0,0,1,.25-2.44c-.15.4-.24,1.48-.72,1.73-.26.07-.6-.16-1.28-.75-.25-.21-.79-.59-.79-.59s7.75-6.68,10.68-8.88v98.76l-55.67,0c-.7-6.11,1.14-14.21,4.16-22.32,1.88-5,4.58-8.74,7.61-13.22,5.83-8.54,10.22-17.23,8.54-28.24a19.22,19.22,0,0,1-.38-2.85,32.23,32.23,0,0,1,5.57-7.06c3-2.47,7.21-6.15,7.53-5.94a13.65,13.65,0,0,0,3.75,4.7c.29.31.29.57-.34.7-4.18,0-8.46.9-9.86,4.59ZM27.14,130.79a1.09,1.09,0,0,1,1.08,1.07,1.08,1.08,0,1,1-2.16,0A1.08,1.08,0,0,1,27.14,130.79Zm104.28.24a1.1,1.1,0,0,1,1.08,1.08,1.08,1.08,0,1,1-1.08-1.08Zm2.34,3a1.08,1.08,0,1,1-1.07,1.09A1.09,1.09,0,0,1,133.76,134Zm-3.48.46a1.08,1.08,0,0,1,0,2.16,1.08,1.08,0,0,1,0-2.16Zm-3.85,2.47,1.95-.1a15.32,15.32,0,0,0-.52,2.15l1.59,1.16-6.86,1.16,3-6.09Zm-4.66,17.77-11.54-14.95,1.39-1.14,11.63,14.8Zm-1.42-14.52a1.07,1.07,0,0,1,1.08,1.07,1.08,1.08,0,1,1-2.15,0A1.06,1.06,0,0,1,120.35,140.17Zm24.23,1.67c.94.73,0,1.75-.89,1.35a.75.75,0,0,1-.11-1.43A.87.87,0,0,1,144.58,141.84Zm1.25.7c1,0,2,2.29,1.83,3s-.55.81-1.91-.34-1.36-1.18-.81-1.79c.29-.38.44-.83.89-.85ZM123,143a1.08,1.08,0,1,1-1.07,1.07A1.06,1.06,0,0,1,123,143Zm-3.33.41a1.08,1.08,0,1,1-1.08,1.08A1.09,1.09,0,0,1,119.68,143.36Zm23.62.78c1,.16,1.34,1,.85,1.56-.66.81-2.15.07-1.81-.9a1,1,0,0,1,1-.66Zm1.9,1.2c.41,0,1,.55,1.71,1.51s.84,1.42.62,2.07c-.32,1-.52,1.13-1.21.2-.27-.35-.86-1.17-1.3-1.63-.92-1-1.06-.72-.51-1.47C144.77,145.69,145,145.38,145.2,145.34Zm-2.5,1.13c1,.49,1.05,1.14.48,1.6a1.66,1.66,0,0,1-2.06-.72C140.8,146.39,141.81,145.89,142.7,146.47Zm1.61,1.43c.54,0,1,.52,1.64,1.6,1.12,1.82,1.19,2.44.23,3.63-.69.86-.76.91-1.43-.46a10.77,10.77,0,0,0-2.57-3.24c-.41-.34-.55-.78-.26-.82.09,0,.45,0,.81,0a1.13,1.13,0,0,0,1-.37A1,1,0,0,1,144.31,147.9Zm-3.87,1.43a2.23,2.23,0,0,1,1.64.8c.55.59.47,1.11-.59,1.22-.48.19-1.8-.68-1.81-1.25A.72.72,0,0,1,140.44,149.33Zm2.53,2.11h.08c.45,0,.69.46,1.19,1.48.78,1.56.56,2.42-.78,3.11-.91.48-1.6.61-1.73.09,0-.16,0-.61-.11-1a4.51,4.51,0,0,0-.75-2c-.82-1.25-1-1.68-.06-1.32a1.75,1.75,0,0,0,1.55-.11,1.11,1.11,0,0,1,.61-.24ZM138.42,154c-.31,0-.51.2-.42.71.28.13.72,0,1.07.12s.73.91,1.23.8c0-.64-1.2-1.62-1.88-1.63Zm-93.1,10.92c-2.52-1.2-8.74-4-11.74-4-5.56-1.57-5.75-.85-7.7-1.36a20.5,20.5,0,0,1,19.84,5C46.91,165.67,46.27,165.34,45.32,164.88Zm6.59,24.44c5.9,10.3,11.41,21.9,20.65,39.09l-.89.27-35.23.07c1.74-19-8.47-37.08-9.16-36.37,8,.14,14.6-1.39,16-4.36l-1.13-.33c-4.64,4-11.6,4.22-16.24,3,.1-9.89-.31-20.34,0-30.23a14.08,14.08,0,0,1,12.91,5.64C43.91,172.84,47.38,181.45,51.91,189.32ZM35.74,161.91c1.41-.1,9.13,3.09,12.58,5.46a19.63,19.63,0,0,1,2.35,2.89c0,.47-.68-.1-4-2A77.67,77.67,0,0,0,39,164.58a3.62,3.62,0,0,1-.36-.15,4.1,4.1,0,0,0-.52-.48c-.89-.68-2.65-1.92-2.36-2Zm3.76,3.61a57.06,57.06,0,0,1,13.79,7.71,11.28,11.28,0,0,1,1.81,3.09c-.55-1-10.25-6.86-13.66-8.21Zm2.71,3.73c.42-.25,11.73,6.44,13.39,8.18a12.1,12.1,0,0,1,2.52,3.93c0,.5-.55.07-1.56-.87A53.89,53.89,0,0,0,43.78,172Zm2.11,3.89c5.3,2.26,12,7.67,15.33,10.89a6.38,6.38,0,0,1,1.56,2.61c.06.36-.11.33-.18.51-4.36-5-13.94-10.74-15.21-11.2A18.48,18.48,0,0,1,44.32,173.14Zm17.61,15.65c.61.63,1.57,2.81,1.36,3.08-.11.12-.09.06-.36-.12A98.24,98.24,0,0,0,48.4,180.4c-.56-.29-2.45-3.27-2-3.32,3.12,1,12.06,8.19,15.57,11.71ZM49,181.67a2.2,2.2,0,0,1,.61.32c5.49,3,13.47,10.7,15,12.55a5,5,0,0,1,.85,2.24c-.07.5-.26.08-2.48-2.11a78.85,78.85,0,0,0-12-9.76c-.84-.58-.67-.65-1.29-1.71s-.84-1.55-.62-1.53Zm35.15.12c3.94.11,5.47,3.09,7.88,8.59a45.46,45.46,0,0,1,2.88,14.34c0,.26-.47,0-.69,0a7.36,7.36,0,0,0-3.87-.15c-1.11.27-2.18.25-1-.5.37-.24,1.37-1.17,1.9-1.5,1.08-.68.43-.66-.65-.13-.81.39-1.35.9-1.67,1s-.09-.64.12-1.12c1.15-2.83,1.48-4.49-.21-5a4,4,0,0,1-1.37-.85c-.23-.23-.43-1.15-.51-1.18s-.13.83-.13,1a3.21,3.21,0,0,0,1.28,1.86c1.18.86,1.42,1.09.78,3.1-.9,2.82-1.09,3.52-1.26,4.18-.09.37-.28,1-.37,1.43A15.61,15.61,0,0,0,87,211.1c.38,3,3.57,4.43,7.86,2.78.4-.16.57,0,.57,0-3.41,3.49-7.24,5.71-9.47,12.75-2.86-5.81-6.94-10.36-13.69-12.18l-.1-1.21c2.36,1.14,6.93,2.67,9.83.95,1.55-1.06,1.08-1.75-.8-1-2.25.88-6.3.77-8.33-.37a1,1,0,0,0-.94,0c-.1-.68-1.07-3.25-1-4.23-.07-.14.62-.15.76,0a9,9,0,0,0,6.36,2.82,5.47,5.47,0,0,0,4-1.9c.11-.09.63-.16.69-.24s0-.32,0-.39-.22-.38-.35-.69a1.27,1.27,0,0,1-.16-.79c0-.19.12-.28.22-.41a1.09,1.09,0,0,0,0-.73.44.44,0,0,1-.09-.67c.4-.45-3.45-4-4.19-4-.28,0-.12.5.44.88,2,1.3,3.38,3,3.06,3.23s-1.12-.2-2-.41a7,7,0,0,0-6.25,1c-.88.73-3.18.83-3.18.83,0-1.26-5.32-15.31-5.33-14.7,1.92-2.26,8-7.59,14-9.9a12,12,0,0,1,5.15-.78Zm-23,3.14,11,.17c-2.77,1.4-7.81,6.41-7.81,6.41-1.42-2.9-1.85-4.36-3.19-6.58Zm-9.52,1.46c.82,0,9.57,7.15,10.81,8.84.15.2,1,1.14,2,2.08,2.25,2.27,3.2,3.58,3.21,4.53,0,.45-.4.16-1-.52a65,65,0,0,0-13.06-11.66c-.64-.33-2.61-3-1.94-3.27Zm29.89,1.31c-.24,0-.2.24-.07.45,1.39,1.23,5,1.17,6.32.18s-.37-.43-.83-.22a5.56,5.56,0,0,1-3.79,0c-.9-.24-1.38-.4-1.63-.42Zm3.38,2c-1.28,0-2.62.4-2.32.86.11.17.45.5,1.3,0,1.21-.61,3.68.19,3.76.2.25.06-.83-.72-1.19-.87A4,4,0,0,0,84.91,189.7ZM54.06,191c4.69,2.88,10.42,8.66,13.85,12.78a4.14,4.14,0,0,1,1,2.11c0,.74-.15.32-3.26-2.84a88.91,88.91,0,0,0-8.58-7.78c-1.47-1.07-1.73-1.21-2.43-2.49s-.88-1.79-.56-1.78Zm29.25,1a4.37,4.37,0,0,1-3.18-.06c-1-.36-.79-.05-.41,1.08a6.55,6.55,0,0,1,.29,1.35c0,.25,0,.26.73-.13s.77-.48,2.12-.17,1.39.2,2-.13.67-.47,1.06-.32a2.93,2.93,0,0,0,2.59-.08,1.1,1.1,0,0,1,1.33.05c.46.23.65.09.46-.38a5.6,5.6,0,0,1-.22-1.24c0-.48-.12-.91-.32-.8a4.36,4.36,0,0,1-2,.75c-1.28,0-2.42-.8-4.44.08Zm-57.42,1c11.71,14.65,9.84,35.75,9.45,35.58l-9.46,0Zm30.65,3a73.22,73.22,0,0,1,13.33,13c.52.68.1.9.36,1.72.1.31-.42-.15-1.91-1.75-1.84-2-4.9-5-6.9-6.74a24.22,24.22,0,0,1-3.29-3c-.38-.52-1.88-3.11-1.59-3.18Zm26.31,1.34h-.16a1.81,1.81,0,0,0-1.08,3.27c.54.49,1.39.8,1.39.53a1.61,1.61,0,0,0-.46-.47c-1.18-.92-1.06-2.35.29-2.37.46,0,.49.17,1.58.95,1.28.91,2.78.91,2.76,0,0-.69-.26-1.38-1.41-1.26a2.37,2.37,0,0,1-1.8-.39A3.18,3.18,0,0,0,82.85,197.29ZM59.58,201.6c3.57,2.42,8.49,7.86,11,11.08a2,2,0,0,1,.38,2c-.07.09-.5-.18-.5-.18-2.9-3.43-6.2-6.56-9.44-9.73C61,204.8,59.11,201.7,59.58,201.6Zm34.68,5.22-.77.38c-1.16-1.75-2.24-1.79-3.13.27l-.58-.15c-.44-.46,1.52-4.94,4.48-.5Zm-.18-1.5c.32,0,.88.19,1,.51a.43.43,0,0,1-.46.63,4,4,0,0,1-.71-.85C93.77,205.41,93.84,205.3,94.08,205.32ZM81,207.47l-.87,0c-1.65-2.17-2.88-.71-3.62.19l-.93-.12c.16-2.38,4.36-3.22,5.42-.11Zm8.41-1.85a1.16,1.16,0,0,1,.37.07,3.57,3.57,0,0,0-.48,1.42c-.34.14-.81.43-1.17.06-.66-.6.37-1.57,1.28-1.55Zm-13.5.24c.4,0,.27,0,.11.2a4.26,4.26,0,0,0-.57,1c-.05.25-.1.34-.33.36a10.48,10.48,0,0,1-1.38-.14c-.36-.34,1.1-1.41,2.17-1.44Zm5.23.3c.28,0,.2.36.11.51s-.24.27-.34,0a1.31,1.31,0,0,0-.17-.29c-.14-.17-.13-.19,0-.22Zm14.13,1.74c1,0,.33,1.69-1.08,2.11a5.23,5.23,0,0,1-5.12-.44c-1-.6-1.35-1.21-.45-1,3.39.94,4.2.76,6.25-.57A.63.63,0,0,1,95.22,207.9Zm-32.54-.37c3.37,2.87,5.9,6.1,8.59,9.1a2.36,2.36,0,0,1,.69,1.75c-.14.55-1.23-.75-1.23-.75s-6.58-7-6.58-7A20.23,20.23,0,0,1,62.68,207.53Zm10.06,1a11.41,11.41,0,0,1,1.45.31c3.24,1,4.22.95,6.08.09,1.18-.54,1.68-.47,1.16.36-.92,1.52-4.23,1.68-6.7.84a7.26,7.26,0,0,1-1.87-1.1C72.51,208.67,72.43,208.51,72.74,208.52Zm14.93,1a2.67,2.67,0,0,1,1,.46c2.7,1.53,4.71,1.26,6.39.22.3-.28.46-.15.51.12.15.94.19,1.61-.24,2.07A3.41,3.41,0,0,1,94,213c-2.62.89-5.83.25-6.44-1.73-.21-1-.33-1.72.09-1.74Zm-21.52,4.25h0c.19,0,.62.41,1.31,1.2,3.61,4.1,5.61,6.47,5.24,7.66,0,0-.06.25-.22.12a24.23,24.23,0,0,1-4.81-5.56C66.39,215,65.84,213.79,66.15,213.77Zm29.1,2.89c-3,2.33-6.75,7.9-7.07,10.66-.06.53,0,.91-.21,1.1s-.49.16-1,.08c-.28-.06-.21-.09-.28-.4-.26-1.26.94-4.43,3.42-8.15,1.3-2,4.25-4.6,5.09-4.61C95.78,215.57,95.25,216.68,95.25,216.66ZM72.7,215.39a3,3,0,0,1,1,.3c2.73,1.18,3.76,1.6,5.52,3.06,3.3,2.7,7,9.12,5.9,9.72-.48.27-.81.1-1-.5a13.47,13.47,0,0,0-.79-1.76,20,20,0,0,0-9.15-8.88c-1.5-.73-1.65-.65-1.76-1.27-.09-.46,0-.67.27-.67Zm22.52,2.36c.28,0,.34.48.25,1.49-.07.82-.13.81-1,1.76a15,15,0,0,0-4,6.82.73.73,0,0,1-.21.44c-.38.33-.85.16-1.17.15s-.17-.63-.14-.93a20.83,20.83,0,0,1,4.9-8.54c.72-.77,1.15-1.17,1.4-1.19Zm-22,.07c1.46,0,6.61,3.83,8.69,7.21,1.35,2.2,1.73,3.11,1.41,3.43a1.66,1.66,0,0,1-1.28,0c-.34-.13-.49-.66-1.14-1.89a15,15,0,0,0-6.8-6.76,3,3,0,0,1-.92-.55c-.18-.37-.4-1.41,0-1.48Zm.78,2.87a12,12,0,0,1,2.74,1.66c1.84,1.36,4.64,5.49,4.06,6.09a1.46,1.46,0,0,1-1.16.08,21.82,21.82,0,0,0-5.56-6.17C73.8,221.81,73.06,220.54,74,220.69Zm-4.09.62c.09,0,.43.32,1.06,1,1.85,2,3,4.11,2.75,5.2-.22.92-.51.43-2.61-3.63C70.25,222.14,69.82,221.34,70,221.31Zm25.29.06a6.11,6.11,0,0,1-.16,2c-.07.4-.35.59-.59.9a11.77,11.77,0,0,0-1.7,3.25c-.3.89-.16,1.11-1.24,1-.51-.07-.39-.2-.18-.79.66-1.93,2.29-5,3.87-6.33Zm-21,2.11c0-.57,5,4.42,4.28,5-.64.12-1,.14-1.3-.09a17.65,17.65,0,0,0-2.88-3.44ZM95,225.05h0a9.42,9.42,0,0,1-.09,3.37,1.72,1.72,0,0,1-1.37,0,.44.44,0,0,1-.21-.57C93.55,227.24,94.62,225.12,95,225.05Zm-18.62,3.38c-.15.25-1.11.29-1.49,0a4.79,4.79,0,0,1-.1-1.88C75.12,226.31,76.46,228.1,76.34,228.43Z"/><path id="path3389-2-3-5-0" d="M111.45,20l.62.81-3.62,0c.59.5,14,27.57,31.11,58.85,2.83,5.48,8.26,7.47,14.52,7.71l-16.63-26.9c1.77-1,5.3-3.57,7.42-3.08.13.65.76.39.77-.2l.78,0,.26.42h3.24l.26-.38,2.79.4c-7.46-9.22-11.39-23.42-10.1-37.29l-24.71.06-.33-.43Zm-3,.84s0,0,0,0Zm-28.41,18C77.24,47.94,70.3,55.43,66.18,63,61.75,71.22,60.72,78.37,62,86.2l.81.07A135.05,135.05,0,0,0,83.58,42.78c.09-.33-.06-.92,0-1.25a1,1,0,0,1,.09-.94c.24-.26.15-1.23,0-2.86a66.38,66.38,0,0,1,0-13c.3-3.35.29-3.88.29-3.88l-1.61,0a50.49,50.49,0,0,1-2.32,18Zm38.8-17.65,2.64,0c.42,8.14,7.24,9.19,8.29,9.07-1.75,5.51,1.15,11.55,8.09,12.4-1.6,5.1,1.23,11.83,6.78,11.64l.59.37a6.16,6.16,0,0,0-.4,2.27,18,18,0,0,0-2.71.43C134.94,46.55,118.85,21.19,118.85,21.19Zm23.56,0c-.8,9.09,1,21.57,5.26,29a3.34,3.34,0,0,1-.23.62c-.41.61-.6.09-.85-.41-.9-1.68-2.62-1.94-3.37-1-1.66,2.27.14,3.15,1.53,4.44-5.69-.36-7.59-6.64-6.26-9.75a4.16,4.16,0,0,0,.7,2.12c1.61,2.44,3.94.38,3.26-1.54a10.31,10.31,0,0,0-1.29-2.13,7.16,7.16,0,0,0,2-.55,1.6,1.6,0,0,0,.72-1.72,3.48,3.48,0,0,0-.48-1.5,2.31,2.31,0,0,0-1.77-.85c-1.17.08-1.32.89-2.09,1.45-.18-1.45-1.12-2.56-2.64-2.3a2,2,0,0,0-1.28,3c.36.79.86,1,1.37,1.71-8.18-.92-7.29-10.67-6.39-10.49,0,0,.25,0,.18.32-.47,2.38,2.48,3.81,3.78,2.07.82-1.41-1-3.62-1-3.62a8.24,8.24,0,0,0,1.71-.57c2.13-1.23-.15-4.78-2.14-3.92-.69.32-.87,1-1.54,1.31-.46-.51-.48-1.07-1.3-1.52-2.25-1.25-3.65,1.71-2.4,3,.52.52,1.4,1,1.23,1.07-6.95-.89-6.88-8.19-6.72-8.14Zm-59.75.07h1c-.28,4.34-.9,10-.49,14.28.46,4,.48,4.61.19,5s-.19.65-.11,1a2,2,0,0,1,0,1A88,88,0,0,1,80,53.05C75.47,65.44,68.18,78.94,62.46,86c0,0-.27,0-.27,0a36,36,0,0,1,3.53-21.49c3.54-6.86,9.11-12.7,12.4-19.88a49.9,49.9,0,0,0,4.54-23.4Zm35.21,0,23.32,36.4-4.25,2.1L113.08,21.35Zm13.67,7.1a1.11,1.11,0,0,1,1.09,1.11,1.09,1.09,0,0,1-1.09,1.1,1.11,1.11,0,0,1-1.09-1.11A1.09,1.09,0,0,1,131.54,28.32Zm7.73,12.14a1.11,1.11,0,0,1,0,2.22,1.11,1.11,0,0,1,0-2.22ZM83.71,42.64c.41,1.58-7.39,25.38-18.48,40.54l4.84.11.15.54c6.78,10,2.54,18.94-2.94,23.07l1.9,2.54-1.7,1.39-1.71-2c-13.87,10.46-40.94,33.58-40.94,33.58l.15,3.71,2.12-1.67C40.83,157.76,69.94,157,77.59,129.48l2,0C75,149.7,56.23,157.62,42,154.26l-3.32,4.79.89.48c-.16-.27-.31-.34-.07-.58l2.82-3.65c21.23,2.73,34-9.33,38.2-25.67l2.71.05a66.63,66.63,0,0,1-17.87,35.26c-6.59,0-18.18-.19-18.18-.19,4.22,4.1,12.28,16.64,12.61,17.91,0,0,8.29.27,17.19,0,3.26-1.46,7.62-2,9.66-1,3.57,1.81,6.94,8.53,8.46,19.33A42.37,42.37,0,0,0,96,205.5c0,.11.27.17.3.15s-.21.48-.24.9a2.31,2.31,0,0,0,.2,1.28.56.56,0,0,1,.19.57,5.32,5.32,0,0,1-.5.53c-.07,6.28,0,12-.39,19.72h1.22c0-12.44,3.73-24,9.49-31.86,3.5-5.19,7.21-10.8,9.26-16.13A30.6,30.6,0,0,0,116.89,163l-.85,0c-5.07-3.49-7.13-10.94-.89-16.24L112.94,144c-6.23,4.84-7.66,13.75-1.21,21.14h-2.52c-6.29-7.9-4.91-17,2.37-23.43L110,139.59l1.78-1.58,1.59,1.76L154,105.68l0-3.73-3.12,2.54c-18.22-16.92-45.25-5-49.21,15.34l-2.48,0c5.19-21.93,24.34-28.12,38.19-25.2l3.42-5.2a20.14,20.14,0,0,1-7.27-4.36,17.35,17.35,0,0,1-2.3-2.18c-6.56-7-11-16.62-11.22-16.63l-17.82,0C99.51,67.53,95,69,92.57,67c-5.27-4.28-7-12.91-7.77-18.48-.22-1.72-.41-4.73-.57-5.74a.48.48,0,0,0-.52-.16Zm63.22,9.59a1.09,1.09,0,1,1-1.08,1.08A1.08,1.08,0,0,1,146.93,52.23Zm2.32,1.28a13.06,13.06,0,0,1,2.1,3.56,1.75,1.75,0,0,1-1.26-.23A5,5,0,0,0,148.82,54ZM146,55.11c.35.18.65,1.55.39,1.78a1,1,0,0,1-.89-.08C145.29,56.44,145.71,55.18,146,55.11ZM75.09,67H91.64c2.89,2.22,5.7,1.93,9.78.14h18.42l1,1.9H74.2C74.44,68.34,75.09,67,75.09,67Zm-1.38,3h47.64l1.2,2h-50Zm4.6,2.84h5.34l-2,3.38H76.16Zm11.87,0h5.1L93,76.15H88Zm16.51,0-2.15,3.36H99.36l2.22-3.34Zm6.39,0h5.1l-1.91,3.38H111Zm-68.63.52c-3.32,0-2.71,4.38-2.39,4.24-2.07-.47-3.61.51-3.87,2.3A3.06,3.06,0,0,0,41.77,83a3.93,3.93,0,0,0,.32,2.7,11.73,11.73,0,0,1-1.22,3c-1.51,3.16-1.82,3.3-2.49,1.23-.74-2.23-1.86-3.35-4.82-4.79a16.62,16.62,0,0,1-2.48-1.5c-1.32-1-1.34-1-1.27,1,.08,2.63.88,3.78,3.68,5.33A20,20,0,0,0,38,91.78a14.31,14.31,0,0,1,3.38,1.52,8.07,8.07,0,0,0,3.13,1A16,16,0,0,0,52,92.79c1.21-.69,1.67-1.32,2.56-3.12a20.7,20.7,0,0,1-4.46-.21c-2.91-.17-4.35,0-6.55,1.14-1.84,1-1.95,1.13-1.18-.45a26.15,26.15,0,0,0,1-2.43c.32-.85.41-.93,1.21-1a3,3,0,0,0,2.94-3,5,5,0,0,0,0-1c1.21.17,3.67-.42,3.59-2.92-.07-2.25-1.67-2.76-3.63-2.92A3.14,3.14,0,0,0,44.45,73.3Zm0,.7c2.91,0,2.84,2.7,1.57,4.21L44.5,76.94l-1.24,1.15C41.92,77.22,41.92,74,44.48,74Zm79.42,0,1.44,2.11H122.4Zm-54.18,3h5.46L73,80.18H67.82S69,78.19,69.72,77.08Zm17.22,0-2.06,3.21H80.09L82,77.14Zm6.41,0h4.94l-2,3.43H91.45Zm11.62,0h5l-2,3.42H103Zm11.32,0h5.16l-2.13,3.43h-5Zm-71.73.64L47,80.2l-2.38,2.41-2.47-2.37Zm6.23,2.42c-.43,2.89-3.21,2.72-4,1.32l1.13-1.29-1.4-1.37C47.89,76.62,51.12,78,50.79,80.13Zm-8.25-1.38-1.33,1.5,1.46,1.42c-1,1.31-4.55,1.2-3.83-2A2.05,2.05,0,0,1,42.54,78.75Zm84.18-.37,1.53,2.1H125.4ZM67.45,81l61.11.21,1.63,2c-21.33.36-42.22-.35-64-.36ZM46,82.27c2.42,1.49.64,4.63-2,4.09-2-.85-2.34-2.88-.59-4l1.36,1.13Zm21,1.19H65.25l-1.62,1.92c6.13,6.5,5.92,12.13.19,17l2.3,2.58C72.54,99.49,74,90.84,66.92,83.46Zm6.31.26c3.45,5.39,6.43,15.63-3.84,25l-1.24-1.51C77.08,98.45,75,91.08,71,83.77Zm1,.13,13.88,0c-3,11.38-5.06,18.06-5.38,35.85l-4,0c.44-.41-2.09-10.74-5-14.31C79.82,95,76.51,89.05,74.18,83.85Zm-43.65,0a5.81,5.81,0,0,1,1.7.88c.85.52,2,1.17,2.49,1.46a6.48,6.48,0,0,1,3.4,3.63c.4,1.16.15,1.18-1,.09A33.6,33.6,0,0,0,33,86.84c-.81-.57-1.07-.47-.6.21A9.38,9.38,0,0,0,35,89c1.07.65,2.56,2,2.44,2.17s-.29.16-.81-.06c-.23-.11-1-.43-1.71-.72-3-1.22-4.31-2.74-4.5-5.26C30.32,84.27,30.25,83.87,30.53,83.87Zm63.33,0a3.42,3.42,0,0,1,.47.79c.12.49-.37,1-1.9,1.63-.52.24-1,.37-1,.68.07.73,1.46,1.83,1.28,2.82-.31.74-2.24,1.5-2.71,2.39,0,.6,1.26,1.55,1.08,2.38-.09.25-.5.5-1.09,1-1.22,1.05-1.3,1.23-.84,2,1,1.92,1.07,1.78-.34,3.15s-1.41,1.35-.71,2.55.69,1.24-.29,2-.93,1-.41,2,.61,1-.23,1.74-1.16,1-.47,2.08.77,1.09,0,2-.86.92-.45,1.52c.52.76.63,1,.07,1.79s-.59.83,0,1.66a2.58,2.58,0,0,1,.37,1.49H84.94a4,4,0,0,0-.22-1.35c-.48-.88-.47-1.16.11-1.94s.5-.88-.07-1.68-.47-.8.25-1.72.69-1.25.32-1.75c-.9-1.15-.9-1.63,0-2.39.69-.58.75-.83.17-1.83s-.66-1.07.41-2,1.09-1,.35-2.08-.68-1.16.47-2.23,1.16-1.09.4-2.43-.71-1.25.67-2.49,1.84-1.3.48-3c-.77-1.31-.22-1.44,1-2.09,2.2-1.35,1.21-1.27.27-3.28-.77-1.34-.32-1.35,1-2,.34-.15.71-.32,1.1-.53.9-.5.4-1,.4-1Zm2.88,0,6.62.08C95.69,93.87,92,106.47,90.65,119.75l-2.51,0C88,109.34,91.26,96.38,96.74,84Zm34,.23c3.8,3.2,6.6,5,8.59,5.76,0,0-2.67,4.45-2.87,4.28A32.46,32.46,0,0,0,98.7,119.64H96.27a53.44,53.44,0,0,1,6.56-20.59A56.62,56.62,0,0,1,114.9,84.12ZM104.32,84l3.26.06s.62.74.9,1c1.41,1.6,1.53,1.29-1.58,3-2,1.11-2.83,1.64-3,2.1s.86,1.41,1,2c0,.07-2.67,1.86-3.15,2.11-.67.34-.7.62,0,1.78.77,1.34.71,1.29-1,2.44s-1.94,1-1.24,2.15c1,1.56.5,1.92-1.75,3.14-.57.3-.58.61-.18,1.68.56,1.48.7,1.33-.47,2.13-1.37.95-1.61,1-1.31,1.55.88,1.69,1.23,2.1.06,2.66-.91.41-.92.66-.43,1.78s.63,1.08-.26,1.71-1.31.45-.51,1.42c.62.75.57,1.36.06,1.81-.44.2-.65,1-.53,1.07l-1.14,0a1.29,1.29,0,0,1,.32-2c.15-.28,0-.48-.4-1.13-.51-.91-.48-1,.23-1.54s.74-.4.26-1.57c-.56-1.38-.53-1.53.35-2.16s.87-.77.28-2S93.51,108,95,107c1.09-.73,1.11-.68.52-2-.4-.93-.12-1.24,1.37-2.27.84-.58.9-.69.51-1.39-1.09-1.89-1.09-2,.8-3.19,1.55-1,1.54-1.09.93-2.43s-.69-1.35,1.41-2.61c1.75-1,1.85-1,1.12-2.25-.9-1.58-.83-1.31,2.66-3.32,1.26-.87,2.39-.58,1.14-2C105,84.77,104.32,84,104.32,84ZM42.69,86.61c.25,0,.44.29.41.84a6.77,6.77,0,0,1-.76,2.33c-.74,1.58-1.47,2.75-1.86,2.75-.91,0-.88-.19.33-2.58.56-1.09,1.12-2.33,1.21-2.56C42.23,86.86,42.49,86.61,42.69,86.61Zm11.23,3.57c0,3.34-10.42,5-11,3.33,1.83-1.43,7.2-.79,8.33-2.08-1.37-.07-3.23.15-4.51.18-1.59,0-4.16.71-4.18,1-.17-.88,2.72-2.53,5-2.63C49.77,89.87,52.09,90.13,53.92,90.18Zm.89,5.1s-20.35,16.91-30.4,25.08l.05,3.65L56.64,97.56Zm-.07.82L56,97.69,25.82,122.4l-.11-2.59Zm95.51,8.67-1.08,1.17c-29.52-22-56.69,11.43-41.71,35.37a5.85,5.85,0,0,1-1.18,1.07C89.57,114.59,121.53,82.06,150.25,104.77ZM134,100a9.77,9.77,0,0,1,6.07,2.75c1.52,1.83,1.08,2.64-.86.92-2.07-1.51-3.78-1.87-.9-.08a4.8,4.8,0,0,1,1.24,1.24c.11.31-.42,0-2.84-.9A7.88,7.88,0,0,1,133,101C132.64,100.25,133.13,100,134,100Zm-6.2.06a4.86,4.86,0,0,1,1.31.12,9,9,0,0,1,3.56,1.55c.53.41.37.72-.25.45a15.58,15.58,0,0,0-3.45-1c-.6.07,0,.46.86.68,1.91.47,2.86,1,1.5,1a36.12,36.12,0,0,1-4.66,0c-1.41-.17-3.53-1.46-3-1.92S126.23,100,127.8,100Zm-6.06,2c2.51,0,3.86,1,1.13,1.15-4.71.76-5.62,1.78-.4.55,1.22-.28,1.19.16.35.57s-1.55.5-2.25.85a10.24,10.24,0,0,1-5.39.22C113.49,104.69,118.81,102,121.74,102Zm20.15.41c1.27,0,4,1.87,5.16,3.6.79,1.12.39,1.93-.79,1-.24-.18-1.94-1.64-2-1.67s1.41,1.44,1.64,1.86.65,1.17-.2,1.2c-1.33-.17-4.44-3.66-4.46-5.39C141.19,102.61,141.46,102.4,141.89,102.41Zm-15.69,1c.52,0,.25.26-.75,1-1.81,1.28-.87,1,1.25-.08a8.47,8.47,0,0,1,1.68-.64c.28-.05.6-.13.72-.16.58-.18.13.52-.79,1.26a16.83,16.83,0,0,1-5.64,3.17c-1.93.48-2.33.54-1.63-.66,1.14-1.92,2.78-3.46,4.35-3.76C125.75,103.45,126,103.41,126.2,103.4Zm6.48,0a15.86,15.86,0,0,1,3.36.49c1.1.35.81.43-.5.57-2.48.27-1.45.56,1,.52,3.3,0-1.64,1.18-3.25,1.43a14.55,14.55,0,0,1-4.33-.5c-1-.19-.42-1,1.55-1.89A5,5,0,0,1,132.68,103.43Zm20.33.44.09,2.13-39.83,33.42-1.34-1.5Zm-13.55,1.83c1.6,0,3.89,1.09,3.64,1.75-.09.25-.27.23-1.48-.09-.79-.21-2.22-.45-2-.26a12.2,12.2,0,0,0,1.6.59c1.4.34,3.07,1.13,2.71,1.36-.65.4-1.26.1-2,0-1.92-.27-5.08-1.25-5.6-1.74S137.75,105.74,139.46,105.7Zm-18.58.13c.28,0,.39.28.12.65a12.28,12.28,0,0,0-1,1.69,10.29,10.29,0,0,1-3.46,3.69c-1.29.81-1.46.67-1.35-1a5.66,5.66,0,0,1,3.12-4.4c.8-.12,1.26-.33.42.69-1.49,1.8-.47,1.62.93-.43C120.13,106.06,120.61,105.82,120.88,105.83Zm-5.16.25c.87,0,1.15.29,0,.82a16.51,16.51,0,0,0-3.2,2.13c-.09.28.7-.16,2-.87,1.73-1,1.89-.94,1.05.15a12,12,0,0,1-5,3.35c-2.51.7-2.46.22-1-1.66,1.34-2,2.47-3,4.2-3.56A6.84,6.84,0,0,1,115.72,106.08Zm-42.65.3c9.11,15.81,4.06,31.85-6.54,40-11.06,8.56-28.29,8.06-38.44-2.22l1.41-1.34s16,16.4,36.19,1.85c10.24-7.38,14.47-24.81,6-37Zm-40.88,0a.12.12,0,0,0-.08,0,19.93,19.93,0,0,0-1.69,5,1.29,1.29,0,0,0,.37,1.16c.23.23.62.09.74,0,.77-.35,1.2-.88,1.87-2.58a4.47,4.47,0,0,0,.43-2.43,1.69,1.69,0,0,0-.6-.74A2.53,2.53,0,0,0,32.19,106.42Zm.18.71a1.69,1.69,0,0,1,1.17,1c0,.75-.41,2-.74,1.8-.53-.66-1.13-.24-1.23-.48a5,5,0,0,1,.72-2.33Zm98.55.59A16.62,16.62,0,0,1,142,111.55L140.4,113a17.27,17.27,0,0,0-19.84-.17c-4.74,3.32-9,10.68-4.83,21l-1.48,1.35a18.64,18.64,0,0,1,6-24.53,20.07,20.07,0,0,1,10.26-3Zm-60,1.22c.13,0,.32.4.29.9s-.28,1.37-.68,1.54-.74-1.17-.74-1.17A5.8,5.8,0,0,1,70.91,108.94Zm72.65.46H144c.45.06.46.46,0,.85s-.71.45-1.16.11-.44-.52-.07-.79A1.75,1.75,0,0,1,143.56,109.4Zm-77.93.09L67,111.16l-4.67,3.76-.55,0L26.05,144.64V142Zm74.6,4-4.86,4c-9.72-5.06-17.51,4-14.76,12.18l-4.2,3.66c-7.53-20.73,14.47-27.83,23.82-19.87Zm-25.45-3.18h0s.06,0,.1.06a10.33,10.33,0,0,1-.43,3.43,1.34,1.34,0,0,0-.16.53,20.91,20.91,0,0,1-1.61,3.35,8,8,0,0,0-.62,1.38c-.55,2.72-1.78-1.66-1.34-4.2.2-1.2,1.89-3.65,2.37-3.47.25.09.24.27-.2,1.23-1.22,2.65-1.52,4-.25,1.46C114.17,111.16,114.54,110.39,114.78,110.34Zm-82.63.07a.45.45,0,0,1,.41.32,1.2,1.2,0,0,1,0,.75,1.39,1.39,0,0,1-1.29.9.58.58,0,0,1-.52-.46,1.15,1.15,0,0,1,.32-.91,1.57,1.57,0,0,1,1.07-.6Zm37,.16c.57,0,1.18,1.59.8,2.29s-.38.47-.93-.65a12.19,12.19,0,0,1-.51-1.23l.47-.37a.33.33,0,0,1,.13,0Zm-1,.67a7.74,7.74,0,0,1,.75,2c.09.54.09.43-.5.2a2.66,2.66,0,0,1-.85-.81,5.58,5.58,0,0,0-.38-.59Zm3.64.24c.31,0,.64.3.94,1.06,1.13,2.86,1,6.06-.24,7.56-.21.26-.26.27-.51.1a2.84,2.84,0,0,1,0-1.86,6,6,0,0,0,.26-1.4c0-1.1-.26-1.24-.4-.21s-.35,2-.67,1.29a10.91,10.91,0,0,1-.36-1.1C70.2,114.43,70.94,111.5,71.85,111.48Zm-4.92.72s1.08,1.42,1.53,1.91c.16.28.16.34-.1.43-.43.16-1.87-.8-2.44-1.09-.31-.24-.18-.43-.18-.43C66.14,112.72,66.54,112.44,66.93,112.2Zm42.9,0c.59,0,.58.19,0,1.08-3.46,5-2.77,4.26-.56,1.53,1.22-1.52,1.44-1.66,1.56-1.32a18.17,18.17,0,0,1-2.1,4.28,9.41,9.41,0,0,1-2.39,1.83c-1.65.84-1.47.5-.86-1.58C106.22,114.85,108.18,112.27,109.83,112.25ZM64.9,114c9.49,23.67-16.48,34.08-28.19,23.12L38.07,136c16.31,11.09,32.39-6.69,25-20.6C63.09,115.41,63.75,114.86,64.9,114Zm2.21.58c1.56.15,3.87,3,4,4.63.24,1.13-.08,1.34-.63.53-.93-1.73-.83-.62,0,1.09.43.87.52,1.92.09,2-.61-.11-1.9-2.2-2.29-3.06a9.93,9.93,0,0,1-1.54-4.35C66.58,114.84,66.72,114.56,67.11,114.56Zm-4.73.77c7.23,13.91-8.31,30.61-24.12,19.82L43,131.37c8.25,4,17.46-1,14.83-12.37Zm72.07,2.59-13,10.9C118.73,119.79,128.58,114.63,134.45,117.92Zm-24.2,0c.43-.09.79,2.64.86,6.48s.17,4.13-1,2.75a11.87,11.87,0,0,1-1.35-1.61c-.77-1.46-.53-3-.32-5.15s.91-1.69.79.41c-.07,1.35,0,3,.16,3s.09-.13,0-.31a36.18,36.18,0,0,1,.55-5.24C110.08,118,110.17,117.91,110.25,117.9Zm-35.92,1.66c.94.36,1.21,3.52.19,6.57a4.27,4.27,0,0,1-2.12,2.69c-.72.38-.88.26-.56-.4A10.78,10.78,0,0,0,73,124.85c.09-1.35-.6-.27-.55.32-.56,2.52-1.28,2.9-1.19.25a6.39,6.39,0,0,1,1.24-4.13C72.94,120.61,73.44,119.68,74.33,119.56Zm32.69.31c.39,0,.49.53.14,1.54a26.08,26.08,0,0,0-1,3c.06,0,.93-2.06,1.11-2.39.29-.55.41-.66.66-.63a9.61,9.61,0,0,1-.13,3.33c-.53,2.74-2.38,5.55-3.1,4.72-1.17-1.37-.62-6.92.92-8.6C106.24,120.18,106.71,119.86,107,119.87Zm-49.64.42C58.78,130,50.83,134.1,44,131.17,44.11,131.14,57.38,120.29,57.38,120.29Zm32.49.18,1.38,1.82,2.54.12-1.29,1.93,1.29,2.46-2.83,0-1.63,1.88L87.92,127l-2.48-.13,1.44-2.31-1.17-2.21,2.68-.12Zm-21.28.83a7.16,7.16,0,0,1,2,2.83c.47,1.85.29,5.34-.36,5.23-.72-2.51-.44-3.82-.69-3.52-.44.45.28,4.31,0,5.26-.12.25-.5,0-.94-.67-1.15-1.66-1-8.16-.12-9.12C68.56,121.3,68.57,121.3,68.59,121.3Zm84.72,3.91L122,151.26l1.81,2.34,29.56-24.5Zm-45.22.46c.14,0,.45.2,1,.85a16.78,16.78,0,0,1,2.52,4.77,12,12,0,0,0,.54,1.68c.22.53.24.69.1.84-.55.68-2.81-1-3.54-2.63-1-2.27-1-4.32,0-2.33.37.73.83,1.78.83,1.36a12.78,12.78,0,0,0-.8-2.32C108.53,127.44,107.74,125.74,108.09,125.67Zm44.89.63.07,2.16L123.9,152.94l-1.15-1.4S150.21,128.6,153,126.3Zm-45.53,1.34c.14,0,.2.21.16.65-.14,1.43-.48,4.52-.41,4.79s.46-2.06.56-2.45c.5-2,1.25,2.86.8,5.06-.07.34-.22.9-.3,1.24a3.91,3.91,0,0,1-.42,1.08c-.82,1.3-2.76-3.88-2.44-6.53C105.62,129.83,107,127.58,107.45,127.64Zm-33.73,1.14c.38,0,.45.35.38,1.14-.22,2.71-2,5.55-4,6.31s-2.15.59-1-.8c.89-1.07,1.42-2.19,1.26-2.33s-.27.36-1,1.28c-.9,1.15-1,.19-.23-1.51a6.8,6.8,0,0,1,2.67-3.13A5,5,0,0,1,73.72,128.78Zm17.72.82A86.19,86.19,0,0,1,82.55,165l-5.23,0c6.39-9.47,10.49-21.19,11.62-35.32Zm2.31,0A9,9,0,0,1,94.84,131c.35.6.45,1.14-.18,1.58-.73.63-1,.4.16,2,.65.82.43,1-.35,1.65s-.86.76-.11,1.73,1,1.2-.1,2-1,.89-.22,2.05.89,1.06-.43,2.18c-1.12,1-1.15.69-.06,2.44.39.65.36.68-.36,1.34-1.79,1.59-1.7,1.49-1.45,1.91,2,2.84,1.09,2.75-.85,4.09-.38.33-.29.71.58,2.13.74,1.2.64,1.46-1.1,2.65s-1.86,1.42-1,2.68.91,1.17-.53,2.46c-.64.58-1.18,1.12-1.18,1.12H84.51s.68-.61,1.14-1c2.62-1.94,2.61-1.74,1.51-3.14-1-1.24-.88-1.32.1-2,.71-.51,1.68-1.05,2.4-1.57.38-.28.1-.51-.55-1.73-.72-1.38-.75-1.22.58-2.34s1.5-1.16.7-2.71-.82-1.42.19-2.24c1.5-1.23,1.58-1.17.79-2.6-.63-1.14-.63-1.11.43-2.18s.94-1,.3-2-.62-1.14.24-1.9.8-.77,0-1.81-.74-1,.18-1.76c.47-.43,1-.85.93-1.05a5.92,5.92,0,0,0-1-1.93c-.17-.27.19-.35.75-.94s.55-.46.11-1.26c-.24-.43-.69-1.18-.69-1.18Zm-8.56,0,.91,0,.36.43c.58.6.62,1,0,1.28s-.34.73.13,1.42.5.65-.22,1.37-1.12.78-.3,1.92c.47.52.4,1.08-.31,1.55-.55.37-1.46.67-.5,2.06.47,1,.5.93-.48,1.62-1.31.93-1.55.78-1,2.14.66,1.52.73,1.53-.64,2.56-1.59,1.18-1.66,1.27-1,2.68s.69,1.06-1,2.39c-1.25,1-1.53,1-1.16,1.81.68,1.5,1,1.9-1,2.93-2.31,1.19-2.43,1.29-1.31,3.05.9,1.43.71,1.23-.8,2.09-2.15,1.25-3.1,1.79-3.18,2.18s1.69,1.73,1.69,1.73l-3,.08s-1.27-1-1.75-1.52c-1.36-1.33-1.38-.9,3.15-3.09,2.49-1.22,2.29-.94,1.88-1.65-1.2-2.1-1.24-2.32,1-3.46,2-1,1.63-1.06,1.15-2.56-.42-1.3-.36-1.2.69-2,2.5-1.86,2.42-1.67,2-2.58s-.68-1.32-.39-1.77c.9-1.3,2.81-1.57,2-3.12-.37-1-.5-1.22.61-2.08s1-.73.37-1.83-.67-1.17.47-2c.81-.74.8-.72.34-1.45-.63-1-.6-1,.3-1.82.74-.64.86-.67.39-1.38-.61-.94-.51-1.15.29-1.61.49-.28.49-.39.46-.87a4.52,4.52,0,0,1-.32-.59Zm11.3.05h4.19a35,35,0,0,0,5,13.48c-5.29,8.54-4.09,15.62-.85,21.89l-13.26,0A118,118,0,0,0,96.49,129.69Zm-28.77,0c.16,0,.27.24.52.68.84,1.43.24,3.47-1,5.6-.92,1.59-1.08.37-.67-1.92.26-1.45-.46.72-.81,2.48-.19,1-.64,1.71-1.12,1.67s-.33-1.41-.32-1.7c.1-2.1.89-3.58,2.4-5.67C67.32,130.07,67.55,129.73,67.72,129.73Zm42.77,4.09a1.58,1.58,0,0,1,.82.27l1.08.62c1.16.64,1.26.84.69,1.49-.68.8-1.12.49-2.3-.83C110,134.47,110,133.84,110.49,133.82Zm-.39,1.76a1.64,1.64,0,0,1,1,.64c.76.87.66,1.62-.17,1.41-.35-.51-.53-1.28-.86-1.85C110,135.64,110,135.58,110.1,135.58Zm37.42.11a2.91,2.91,0,0,0-2.22,2c-.73,3.05-.73,2.91-.07,3.35a4.15,4.15,0,0,0,.42.29c.37.31.89.77,1,.68.62,0,1.55-3.9,1.53-4.71s.07-.95-.14-1.34A.5.5,0,0,0,147.52,135.69Zm-38,.06s.11,0,.19.08a6.13,6.13,0,0,1,.94,2,1.36,1.36,0,0,1-.12.48c-.43.81-1.07,0-1.15-1.37,0-.78,0-1.13.14-1.17Zm37.87.61h.09c.5,0,.43.54-.26,1.3-.37.39-1.11.58-1.36.34s.39-1.33,1.19-1.57A1.75,1.75,0,0,1,147.4,136.36Zm-84.13.42h.08a.93.93,0,0,1,.65.34,1.75,1.75,0,0,1,0,1.58c-.38,1.39-3,4.09-3.93,4.1-.56-.1,1.76-3.06,1.85-3.56-.17-.17-1.61,1.49-2.29,2.66a5.67,5.67,0,0,1-.84,1.29c-.48.05-1,.37-1,0,.08-1.48,3-4.71,4-5.61a2.48,2.48,0,0,1,1.54-.84Zm7,.14c2.23,0-2.16,4.87-5,5.59a5.62,5.62,0,0,1-2.62.09c-.12-.18,0-.34.38-.42A16.12,16.12,0,0,0,66.47,140c0-.28-1.2.18-2.23.85-.66.42-1,.33-.62-.18a7.87,7.87,0,0,1,6.61-3.7Zm38.64,0c.12,0,.25.26.33.82.4,1.05.43,1.33,0,1.64-.66.54-.82.38-.81-.83,0-1,.21-1.65.43-1.63Zm-73.53,1.39s.81.3.47.7-1.23,0-1.23,0Zm112.11,0c.27,0,.27.23.14.85a6.25,6.25,0,0,1-1,2.53,3.66,3.66,0,0,1-1.13-.67c-.1-.11-.42-.35-.47-.51a1.58,1.58,0,0,1,.41-1.53,1.35,1.35,0,0,1,.63-.21,3.8,3.8,0,0,0,.85-.27A1.25,1.25,0,0,1,147.45,138.36ZM35.63,139.55a5.38,5.38,0,0,1,1.76.24,23,23,0,0,1,5.13,2.29c.67.64-1.09,1.33-3.21,1.36-1.13,0-1.33-.22-2.89-1.17-.2-.14-1.1-.73-.84-1s1.16.08,2.23.64c.36.18,1.21.13,1.21,0a17.13,17.13,0,0,0-3.78-1.51c-1.05-.34-1-.69-.38-.83a7,7,0,0,1,.77,0Zm-2.12.74s.45.39,1,.82A7.79,7.79,0,0,1,36.41,143c.74.9,1.91,3.14,1.78,3.55-.3.93-3.41-.71-5.95-3.26-.83-.83-1.32-1.44-1.32-1.44l1-.89s.86.73,1.84,1.6c1.85,1.64,1.84,1.07,0-.65-.53-.49-1-.92-1-.92C32.71,140.62,33,140.35,33.51,140.29Zm76,.08s1,1,1.37,1.5c-6.07,5.94-8.37,14.25-2.53,23.09l-2.8,0c-5.26-10.38-2.76-18.19,4-24.57Zm-51.19.23c.37,0,0,.43-.64,1.57-1.24,2.13-1.48,2.68-3.52,3.2a9,9,0,0,1-1.58.06c-.86.1-.48,0,.86-.86,1.84-1.2.27-.58-1.43.29-1,.51-2,.49-2.12.23s.39-.53.69-.79c2.6-2.34,3.41-2.24,5.83-3.07A11.65,11.65,0,0,1,58.3,140.6Zm-10.89,2.14A11.67,11.67,0,0,1,50,143c.51.12,1.36.22.64.86a8.75,8.75,0,0,1-4.59,1.87c-.23,0-3.55-.22-2.83-.94a8.92,8.92,0,0,1,1-.14c1.83-.35,1.34-.65-.92-.52-2.83.16-3-.14-.82-.73a17.9,17.9,0,0,1,4.52-.68Zm15.12.22c1.26,0,2.23.21,2.24.69,0,.77-2.37,2.49-3.95,2.84-.37.08-.89.19-1.15.26a19.49,19.49,0,0,1-3.87-.1c-1.42-.51-.43-.72,2.17-1,1.12-.13,1.66-.42,1.66-.64a4.79,4.79,0,0,0-2.07,0c-1.39.17-1.12-.24.6-1.13A10.59,10.59,0,0,1,62.53,143ZM39.23,144a5.14,5.14,0,0,1,1.3.45c1.51.44,3.59.94,5,2.5,1.14,1.12,1.42,1.47,1.18,1.86s-3.85.12-5.35-.53a7.08,7.08,0,0,1-2.7-2.11c-1.3-1.91-.75-2.42.9-1.08,2,1.6,2.3,1.77,2.65,1.69.14,0-.2-.35-.87-.86-1.69-1.25-2.5-1.93-2.11-1.92Zm12.29,2a6.53,6.53,0,0,1,3.66.88c2,.72,1.53,1.36-2.06,2.26a6.66,6.66,0,0,1-4.95-.69c-2.89-1.81-2.71-2.16.53-1.36,1.07.27,2.12.32,2.2.11a9.61,9.61,0,0,0-2.29-.83c-1.13-.37-.15-.34,2.12-.36Zm83.57,7.76-.53.27a12.52,12.52,0,0,1-2.23.28,15.88,15.88,0,0,0-4.94,1,8,8,0,0,0-3.3,3.27c1.48-.09,9.87,1.43,12.2-1.61.49-.64-1.25,4.8-2.14,5-2.22-.27-3.14,3.22-2.92,3.08-2.24.86-4,1.38-3.39,4,.24,1.13,1.39,2.49,3.81,2.15-.66,4.51,4.83,5.68,5.44.23,0,0,1.06-.2,1.48-.25,2.5-.6,3.11-4.27-.57-5.43-1-.3-1.08-.5-1.08-.5a3.32,3.32,0,0,0-.44-2.67c.81-1.93,2.83-5.68,2.83-5.68Zm.4,1.12c.51.68-2.13,1.79-4.94,2a20.45,20.45,0,0,0-2.06.24c-.3.53,5.44.14,7.22-.85.62-.35.67,0,.41.49-2.08,2.68-7.08,2-11,1.55-.21-.23,0-.5.84-1.22a8.4,8.4,0,0,1,5.3-2C132,155.17,135.16,154.57,135.49,155Zm3.1,2.76a50.25,50.25,0,0,1-2.24,4.67c-.23.24-1.06.4-1-.49s1.79-4.88,2.27-5A.85.85,0,0,1,138.59,157.72Zm1.19.28c.56,4,3.6,5,6.52,6.27.77.35,1.42,1,2.2,1.39,1.45-2-.19-5.83-2.72-7.07-1.9-.88-3.61-1.59-4.68-1.52-.62,0-1.31.43-1.32.93Zm1.56-.25a11.77,11.77,0,0,1,2.5.55,6.48,6.48,0,0,1,4.87,5.1c0,.11.14,2-.29,2-.67-.2-1-.88-2.1-1.33a15.71,15.71,0,0,1-4.39-2.36,4.52,4.52,0,0,1-1.56-2.56c-.12-.82.16-.9.83-.24,1.53,1.22,3,1.64,4.55,2.82.42.32,1.93,1.17.9.13a19.3,19.3,0,0,0-3.85-2.47c-1.49-.72-2.32-1.61-1.46-1.62Zm-116.07,4L42.54,188.9c-4.24,2.25-6.35,3.24-13.41,2.68v.36l-3-.17c5.18,8.13,11.58,18.71,9.76,37.2h21l.36.33c.31.22.77-.36.77-.36l9.5-.05.25.31,4.43,0s-20.25-38-30.4-56.91c-4.14-7.61-8.5-11-16.58-10.47Zm109,.9a2.17,2.17,0,0,1,2.27,2.27,4.86,4.86,0,0,1-.66,1.9l-1.55-1.47-1.47,1.48a2.59,2.59,0,0,1-.92-2.4,2.73,2.73,0,0,1,2.33-1.78Zm-17.87.54c1.46,5.72,3.05,13.6-9.64,31.84-7.49,10.79-9.95,21-10.26,33.38h-.76c.36-6.81.41-19.18.41-19.18l.7-.63a4.64,4.64,0,0,1-.46-1.14c-.24-1,0-.7.58-3.49,2.61-13.48,19.43-40.79,19.43-40.79Zm-67.71,2.62,64.26.29-.84,1.69-62.19-.44Zm85.66.49,2.4,2.33-2.34,2.64-2.46-2.58Zm-2,1-1.3,1.4,1.13,1.19c-1.17,2.46-4.25.55-4.15-1.29.12-2.17,2.61-3,4.32-1.3Zm4.12,2.75,1-1.32-1.17-1.29c1.91-1.9,3.72-.23,3.91,1.35S137.81,172.44,136.47,170.08Zm-76.12-1.62,5.27,0-2,3.67-5.34,0Zm11.73,0h4.83l-2,3.74H70Zm11.42,0h5.12l-2.08,3.72H81.28Zm11.48,0h5.25l-1.91,3.74H92.87Zm11.7,0h5.06l-2,3.74h-5.2Zm-55.87,0h3.4L52.82,171Zm84.77,2.36a2.34,2.34,0,0,1-1.44,4.2,2.38,2.38,0,0,1-1.23-4.27l1.46,1.33Zm-71.51,2H69l-1.87,3.36H62.3Zm11,0h5.41l-1.91,3.36H73.41Zm11.6,0h5.4l-1.76,3.36H84.86Zm11.57,0h5.36l-1.67,3.36H96.26ZM54.09,173H57.5L56,175.68Zm2.57,3.89,50.09.45L105.9,179h-48Zm1.76,2.92,47,.11-1.08,2.25-16.21-.07c-3.17-2.37-6.78-1.28-10.91.07,0,0-12.42.13-17.3,0Zm-15.61,9.57L67.57,228.6l-5.48-.06L38.58,191.63Zm-5,2.55L61.21,228.6c-1.07,0-2.08,0-3.14,0a9.33,9.33,0,0,0-8.29-10.22c1.94-8-3.88-11.38-7.76-12,1.57-10.41-7-11.88-7.14-11.77a10.47,10.47,0,0,0-.22-2.19l3.18-.49Zm-3.78.57c-.05.22.44,2.3-.49,1.92l-.07-1.91Zm-4.92.06c.34,1.38,1,1.65,2,2.57,0,0-1.22.22-1.52,0A11.87,11.87,0,0,1,28,192.54Zm3.66,2.34A1.07,1.07,0,1,1,31.73,196,1.05,1.05,0,0,1,32.8,194.9Zm2.13.83c3.07-.21,7.54,3.11,6.35,9.31a10.7,10.7,0,0,0-1-2.06c-2.12-2.86-4.61,1.06-2.93,2.68.83.78,1.21,1.09,1.13,1.16A2.26,2.26,0,0,0,36,210c1.31,2.43,3.14,1.15,4.21-.29,0,0,.64,2.16,1.29,2.44a2.22,2.22,0,0,0,2.82-1.32c.69-1.8-1-2.25-1.37-3.25,3.56.11,8.09,5.33,6,9.86.27-1-.82-3.35-3-2.75-1.06.37-1.44,1.94-.58,3.55a5,5,0,0,0,.43.71,5.09,5.09,0,0,0-1.17.27c-2.78,1.73.79,6.41,2.87,3.48a7.47,7.47,0,0,1,.56-.75c.35.65.45,1.57,1.07,1.88,2.57,1.3,3.7-1.43,2.63-2.77-.61-.76-1.28-1.62-1.28-1.62-.12-.48,7.67,1.56,6.72,9.17l-20.62,0c1.91-11.67-2.73-25-5.08-29.1l1-1.36c.25.51.68,1.78,1.43,2,2.39.76,3.11-.91,2.8-2.63-.18-.93-1.46-1.66-1.86-1.79Zm5.46,11a1,1,0,0,1,0,2,1,1,0,0,1-1-1A1,1,0,0,1,40.39,206.71Zm7.73,12.15a1,1,0,1,1-1,1A1,1,0,0,1,48.12,218.86Z"/></g></g><path id="path147-0-8-1-3-6-7-5-8" d="M130.6,223.1c7.8-.2,11.3-9,5.5-15.8-.8-1-.9-1.6.6-.6,3.9,2.6,11.4.9,11.8-7.1.5-9.8-13.3-12.7-15.8-2.2-.1,1.1-1,1.1-.8-.5a32.78,32.78,0,0,1,3.4-12.1H126a34.21,34.21,0,0,1,3.4,12.1c.2,1.6-.7,1.6-.8.5-2.6-10.4-16.3-7.6-15.8,2.2.4,8,7.9,9.7,11.8,7.1,1.5-1,1.5-.4.6.6-5.9,6.8-2.4,15.6,5.4,15.8Z"/><path id="path147-0-8-1-0-3-83-6-6-4" d="M48.2,26.6c7.8.2,11.3,9,5.5,15.8-.8,1-.9,1.6.6.6,3.9-2.6,11.4-.9,11.8,7.1.5,9.8-13.3,12.7-15.8,2.2-.1-1.1-1-1.1-.8.5a32.78,32.78,0,0,0,3.4,12.1H43.6A34.21,34.21,0,0,0,47,52.8c.2-1.6-.7-1.6-.8-.5-2.6,10.4-16.3,7.6-15.8-2.2.4-8,7.9-9.7,11.8-7.1,1.5,1,1.5.4.6-.6-6-6.8-2.5-15.6,5.4-15.8Z"/></g></g></g></svg>