<svg xmlns="http://www.w3.org/2000/svg" viewBox="0 0 178.7 249.6"><defs><style>.cls-1{fill:#fff;stroke:#000;stroke-width:1px;}.cls-2{fill:#e2cf00;}.cls-3{fill:#d40000;}.cls-4{fill:#131f67;}</style></defs><title>Qd</title><g id="Layer_2" data-name="Layer 2"><g id="svg11376"><g id="Qd"><path id="rect7166-7" class="cls-1" d="M9,.5H169.74A8.46,8.46,0,0,1,178.2,9V240.63a8.45,8.45,0,0,1-8.46,8.47H9A8.45,8.45,0,0,1,.5,240.63V9A8.46,8.46,0,0,1,9,.5Z"/><path id="path6307-8" class="cls-2" d="M112.3,21.43s20.21,29.31,27.08,34.49c.5.2,9-1.39,9-1.39-4.28-10.37-7.07-21.14-4.28-33.2Zm11.25,46.35c-13.94,4-27.78,7.68-42.91,1.2l-16.53,16C64,85.33,84,94,84.32,93c-9.85,26.52,5.48,31.4,15.24,2.2,12.74-1.7,28.07-3.39,40.71-12.26A58.94,58.94,0,0,1,123.55,67.78ZM39.82,72.57a4.39,4.39,0,0,0-5.57,6.78c-.5,2-.6,4.88,1.29,6.18,1.7,1.09,5,0,5.38,0,0,0,.1,3.49-.2,3.49-.5,0-2.39-1.6-3.58-2-3.89-1.19-9.46-1.79-9.36-1.59s-1,1.19,3.38,3.89c1.6,1,6.77-.1,10.85,1.19,2.49.8,4.78,2.09,6.08,1.4,3.58-1,5-5.68,4.78-5.68S42,89,43,89.52V85.43c4.18.5,8.06-2.59,3.88-7.88,3.29-3.09-1.09-10.46-7.07-5ZM57.44,91.11c-10.35,10.47-31.55,30.2-31.55,30.2l.2,14.76,20.7,18.64c1.6-19.74,12.84-38.18,23.5-47.45C71.28,104.47,59.63,92.11,57.44,91.11Zm73.87,3.69c-1.59,12.16-3,28.71-23.49,47.15,3.58,6.08,8.06,12.26,14.63,15.25.5,1,18.82-19.14,30.17-28.61l-.1-12.86ZM38.83,97.39c0,.3-.8,3.49-1,3.39,0,.2,2.09-.8,2.29-1.7s.7-1.79.7-2C40.42,93.9,39.53,96.19,38.83,97.39Zm-7.67,8.47A17.63,17.63,0,0,0,30,113.14c3.68,1.89,4.68-5.88,3.68-6.58A13.48,13.48,0,0,0,31.16,105.86Zm113.49,35.29c-.29,1.49-.29,2,.4,2.29,1.2.5,1.69-.1,2.69-2.59.6-1.49,1.09-3.69.6-4.59-2.19-1.69-3.39,3.69-3.69,4.89ZM80.34,154c-15.13,2.39-30.16,3.89-42.21,13.26,1.4-.2,15.83,13.55,16.63,15.45,22.2-10.87,43.8-2.7,43.8-2.7l16.23-15.74c.6-.3-17.62-7.88-21.11-9.18,12.45-33.49-7.26-28.5-13.34-1.09Zm59.44-3.79a11.46,11.46,0,0,0-2.29,2.59l.79,1.3,2-2.2Zm-14.24,14.15c2.09-1,9.56-4.58,9.86-3.68l-.2,3.59c-1.1-.4-8.47.79-4.18,8.47-2.69,6.08,3.28,9.17,7.46,5.18,8.76,3,7.57-5.78,5.78-7.18,1.39-2.19-.4-7-1.3-7,0,0,7.67,1.69,6.87.4a6.33,6.33,0,0,0-2.49-2.8c-2-1.29-5.37-.79-8.16-1.39-3-.6-4.88-1.7-7.37-1.8-3.78.1-7.27,3.49-6.27,6.18ZM40.62,192.78l-10.55,2.79a78.14,78.14,0,0,1,4.58,15,76,76,0,0,1,.3,18l30.46.2Z"/><path id="path6309-7" class="cls-3" d="M68,228.67c-13.34-19.14-25.79-37.38-42.21-57.52,0,0,0-7.77.1-15.45l50.57,72.77Zm27.08-30.9A84.73,84.73,0,0,0,92.89,186l9.25-8.78c-1.09,7.78-2.58,13.86-7.06,20.54Zm44.1-27.61a2.05,2.05,0,0,1-2.69,3.09C133.8,170.75,137.69,168.16,139.18,170.16ZM47.69,152.81c-1.49,1,2.79-24,14.53-37C69.29,136.46,56.65,148,47.69,152.81Zm57.94,0-7.77-2.09,3.69-11s7.56,1.7,6.87,4c-2,7.38-2.79,9.07-2.79,9.07Zm-36.14-4.28a73.06,73.06,0,0,0,5.18-11.27l7.86-.2-3.88,10.87Zm47.09-15.36c-6.07-12.06,1.09-31.2,14.24-36.48A58.56,58.56,0,0,1,116.58,133.17ZM76,129.69a60.19,60.19,0,0,0-.79-12.76,158.88,158.88,0,0,0,27.47,3.68l1,11.57A132.64,132.64,0,0,0,76,129.69Zm19.91-17.55a56,56,0,0,1,3.59-10.46l9.55-.4c0-.2-4.08,6.38-5,11.06-1.6-.2-8.17-.2-8.17-.2Zm-18-2.89c-2.78-1-6.57-1.29-8.06-3.39l2.89-9.17,8.56,2.59Zm24-87.72,6.67-.1S140.77,62.9,152.82,79c-.4,1.59.1,15.55.1,15.55C136,70.28,101.85,21.53,101.85,21.53ZM40,79.25a1.51,1.51,0,1,1,2.29-1.9C43.31,78.85,41,80.34,40,79.25Zm36.24-6.78c.1-9.57,6.87-21,6.77-20.73-.1,0,1,9.37,2.29,12.36C84.92,64.69,76.56,73.07,76.26,72.47Z"/><path id="path6311-0" class="cls-4" d="M24.39,19.94V229.77h130V19.94Zm119.07,1.59c-1.1,11.67-1.2,20.64,4.78,32.7-1.1,1.09-9.26,1.49-11.85,2.79,0,.3.7.9.7.9,2.69-1.3,13.24-2.4,13.24-2.4-4.38-7.67-8.07-22.62-5.28-34h7.87V77.65s.1,10.67.3,16.75c-4.09-5.28-9.26-12.46-12.75-17.84-4.28-6-9-13.06-13.84-19.64-1.39-2.09-3.48-4.79-5.17-7.18-2.59-3.79-4.78-6.68-7.47-10.66-2.89-4.19-5.67-8-9.06-12.86a35.89,35.89,0,0,1-3.08-4.69Zm-49.78,0c4.88,8.58,13.74,11.57,15.93,12.16l1.3,1.9A28,28,0,0,1,92.39,22.73a3.23,3.23,0,0,1-.2-1.2Zm-4.88,0a25.36,25.36,0,0,1-5.07,7.18l.1-2.09a17.91,17.91,0,0,0,3.58-5.09Zm2.39,0a5.94,5.94,0,0,1-.1,1.1c-1,3.39-7.46,9.77-7.36,8.87l-.1-1.69c0,.1,4.88-4.79,6.17-8.28Zm-4.77,0c-.5.9-2.39,3.89-2.59,3.09l.2-3.09Zm14.83,0c.79,1.2,1.59,2.2,2.39,3.39.2.2.3.5.2.6-.1.3-.5.1-1.6-.9a27.52,27.52,0,0,1-3-3.09Zm-6.57,0h1.59a23.31,23.31,0,0,0,11.25,9.17c.5.6,1.1,1.7,1.39,2C103.34,31.1,97.17,26.32,94.68,21.53Zm3.88,0a27.49,27.49,0,0,0,6.07,5.58c.8.7,1.89,2,1.8,2.3-3.49-1.1-7.47-5-9.36-7.88Zm-6.77,1.6,1,1.49a33.52,33.52,0,0,1-9.06,10.07v-2c4.28-3.19,6.17-6.38,8.06-9.57Zm1.59,2.19A29.18,29.18,0,0,0,111.7,36.58a14.74,14.74,0,0,1,1.3,1.6c1,1.4,1,1.4,1.19,3.69A44.83,44.83,0,0,0,117,55.13c-.2.89-.3,1.29-2,3.58C108.12,68,93.58,76.76,86.42,64.79,84,61,83.83,53.63,83.63,49c0,0,0-.29.1-.39.2-.8.4-.7,1.69-.3,1.29.59,2.69.1,4.08-.3,1.59-.6,1.69-.1.2,1.29-.5.5-1.19,1.3-1.09,1.2s1-.4,1.39-.7c1.19-.9,1.49-.6,1.09.5-1.89,4.39-2.29,4.49.4,5.78a4.89,4.89,0,0,1,1.3.8c1.89,1.69,1.19.8.69,0-.79-1.3-.1-1.89,1.3-1.1a4.31,4.31,0,0,0,2.69.7c1.19-.4,1.59-1.79,1.29-3.29-.3-.8-2-2.29-1.59-.8a1.45,1.45,0,0,1,1,2.4c-.69.89-1.89.39-3.68-.8-1-.8-2.19-.4-2.19.6,0,.59-.9.49-1.4-.3-.29-.4-.09-1.7.5-3,3.79-7.68.6-15.05-6-13l-1.39.4V35.89c3.38-2.89,7.46-7.08,9.35-10.57Zm3.79,13.76c-1,1.19-.6,2.29,1.49,1.19a7.12,7.12,0,0,1,4-1.09c2.79-.1,5.18.79,8.27,2.69,2,1.19,2.29,1.29,1.79.6C111,39.28,101.45,34.59,97.17,39.08Zm-9.26.4c1.89.49,3.68,1.69,3.38,2.29-.1.2-.2.2-.49.1a7.17,7.17,0,0,0-6.77-.4c-.4.2-.6-.1-.5-.5,0-.8,1.39-1.49,2.88-1.59A3.81,3.81,0,0,1,87.91,39.48Zm11,2.39c-1.1.6-1.49.89-2,.6-1.2-.6-.9-.1-.2,1.09.5.9.5,1.1.4,1.6s-.1.6.49,1.29a17.43,17.43,0,0,0,3.79,3.89l1.19.7c.2,0,.1-.1-.2-.4-2.09-2-3.68-3.79-1.59-3,2.49.8,4.78-.2,6.67-.9a16.29,16.29,0,0,1,1.79-.4c1.79,0,2.19-.69,1.1-1.89C106.62,40.27,103.44,39.18,99,41.87Zm9.06.8c.79.69,1.19,1.09,1.09,1.29s-.69-.1-1.69-.7a9.06,9.06,0,0,0-7.27-.5c-2.29.7-1.59-.39.9-1.39a6.65,6.65,0,0,1,7,1.3Zm-21.11-1.5a7,7,0,0,1,4.68,1.59c.8.7.2.9-1.09.3a6.31,6.31,0,0,0-5.48-.2,3.59,3.59,0,0,1-1.29.5.9.9,0,0,1-.2-1.09A6.45,6.45,0,0,1,86.91,41.17Zm28.47.6q.15,0,.6.6c.5.69.5,1.09.1,2.39-.5,1.59-.69,1.29-.89-.9-.1-1.39-.1-2.09.19-2.09Zm1.7,2.39c.2,0,.4.3.79,1,.3.5.2.69-.59,3a12.74,12.74,0,0,1-.7,1.79c-.2.2-.2.2-.3,0-.6-.7-.5-2.19,0-3.89.3-1.19.5-1.89.8-1.89Zm-15.53.2a2.27,2.27,0,0,1,.4.1c0,3.49,2.68,2.79,3,.3,0,0,.7-.1.8.1.3.5-.4,2-1.5,2.49a2.43,2.43,0,0,1-2.58-.3,4.71,4.71,0,0,1-.6-2.19c.1-.4.3-.5.5-.5Zm-1.6.4h0a.55.55,0,0,1,.6.4l.6,1.79c-.4.5-2-.5-2-1.29a.82.82,0,0,1,.79-.9Zm-11,0c.4,0,.6,0,.6.4a2.52,2.52,0,0,1-2.49,2.49,2,2,0,0,1-2.19-2.09c0-.8.7-.9.8-.3.2,1.89,1.89,2,2.59,1C88.61,45.76,88.51,44.76,89,44.76Zm17.72.3a1.09,1.09,0,0,1,.5.1c1.49.5,1.49.69.3,1.19-1.49.5-1.59.6-1.29-.4C106.33,45.36,106.43,45.16,106.72,45.06Zm-15.83.2c1.1.1,1.2,1,.2,1.29-1.39.6-1.89.6-1.39-.3C90.1,45.56,90.4,45.26,90.89,45.26Zm-6.86.4a.39.39,0,0,1,.39.19,9.14,9.14,0,0,0,.7,1.4.9.9,0,0,1-1.09-.1c-.7-.6-.5-1.49,0-1.49Zm34.64,1c.4,0,.9.7,1,1.2-1.5,1.89-1.3,5.48-1.6,6.58-.3.89-.4.1-1.19-2.2-.4-.79,1.29-5.38,1.79-5.58Zm1.49,2a1.88,1.88,0,0,1,.9,1.29,13.12,13.12,0,0,1-.3,1.5,47.51,47.51,0,0,0-.9,5.78c-.09.9-.09,1.79-.09,1.79-.5.9-1.4-1.49-1.3-3.39.3-1.49.5-6.77,1.69-7Zm2.09,2.69a3.1,3.1,0,0,1,.4.79,6,6,0,0,1-.2,2.1,25.48,25.48,0,0,0-.1,9.47c.1.7-.39.3-1.09-.9a6.58,6.58,0,0,1-.8-2.59,27.6,27.6,0,0,1,.7-8c.1-1.09.2-2.09,1.09-.89Zm1.2,1.89,1.19,1.5a47.09,47.09,0,0,0-.49,5.08,78.37,78.37,0,0,0,.79,8.47,29,29,0,0,1-1.89-2.39c-.1,0-.8-7.18-.3-9.87a18.39,18.39,0,0,1,.7-2.79Zm1.89,2.89c.2,0,.5.2.8.7a1.84,1.84,0,0,1,.39,1.3c0,.39-.19.69-.19,1.29a58.11,58.11,0,0,0,1.19,11.27c.2,1.29-.2.79-1-.1a4.29,4.29,0,0,1-1.09-2.1c-.1-.2-.8-7.47-.8-8.07,0-2.29.1-3.49.4-4.09C125.14,56.12,125.24,56.12,125.34,56.12ZM121,64s-1.39.69-1.79.5c-.6-1.6-2.69-6-2.79-6.68,0-.3.9-1.4.9-1.4C118.47,58.91,119.57,61.6,121,64ZM94.68,58.81c-.4.5-.9.3-1.89-.2-.5-.2-.4.1-1.3.5a3,3,0,0,1-1.29.4c-.6,0-.8-.2-.8.2a6.42,6.42,0,0,1-.2,1.79c-.2.7-.4,1-.2,1.2s.5.1,1.2-.5c1-1,1.69-.7,2.89-.3s1.59.6,2.78.2c1.69-.6,2.69-.6,3.39-.2,1.19.7,1.49.7,1-1.29-.2-.7-.2-1.7-.3-1.9s-.39.4-.69.6c-.6.4-.9.4-2.29,0-.8-.4-1.69-1.29-2.29-.5Zm21.5.3c.5,1.2,2.59,5.29,2.49,5.78-.4.4-.9.6-1.29.3-1-1.89-1.3-2.89-2.19-5-.1-.6.59-1.9,1-1.1Zm11.15-.2a1.69,1.69,0,0,1,.7.6c.7,1,.79,1.1.79,2.09A42.77,42.77,0,0,0,130.42,73c.2.7.6,1.49.6,1.59-.3.5-2-.89-2.49-2.89a50.33,50.33,0,0,1-1.3-7.17c-.3-3.19-.3-5.39.1-5.59ZM114.89,61c.59,1.19,1.29,3.09,1.89,4.28.2.5-.9.9-1.2.8-.49-.4-.69-1.3-1-1.89-1-2.2-1.2-2.2-.6-2.89C114.29,60.81,114.69,60.21,114.89,61Zm14.73,1.29q.15,0,.3.3a6.62,6.62,0,0,1,1.19,1.8c.1.39,0,.69.1,1.39.1,1.89.6,4.49,2,9.67.09.5.29,1.1.29,1.3-.1,1-1.49-.6-2-2.2a53.75,53.75,0,0,1-1.59-6.28c-.5-3.49-.8-6-.3-6Zm-15.93,1.4c1.2,2.69,1.3,2.69.5,3s-.8.2-1.69-1.7c-.7-1.39-.8-1.49-.2-2C113.1,61.9,113.29,62.8,113.69,63.7ZM97.37,63c-.1,0-.5.3-.9.5a6.59,6.59,0,0,1-3.68.1c-1.89-.7-1.3.2.3.8,1.29.39,3.78.1,4.18-.7C97.47,63.4,97.56,63,97.37,63Zm14.13,1.5c1,1.59,1.4,2.29,1.2,2.39s-1,.5-1.3.3-.79-1.2-1-2c.1-.4.79-1.09,1.09-.69Zm-26.18.59c.5,0,1.69,1.6,1.39,1.9-.1.2-.49,0-1.59-.3-.4-.1-1.19-.2-.9-.8C84.42,65.79,85.12,65.09,85.32,65.09Zm25.09,2.3c-.1.29-.9.29-1.2.29a2.63,2.63,0,0,1-.4-1.29c.1-.2.7-.9.9-.7a14.73,14.73,0,0,1,.7,1.7Zm21.7-1.6q.3,0,.9.9c.79,1.19.69,1.09,1.29,3.89.7,3.19,1.49,5.38,2.29,8.57,0,.5-.2.4-.8,0-1-.6-1.29-1.2-1.59-3-.5-2.79-1.59-5.39-2-8.77-.3-1-.4-1.6-.1-1.6Zm-24.29,1.1c.6,0,.5.89.3,1-.4.4-1.6.3-1.79.3C105.93,67.49,107.42,67,107.82,66.89Zm27.18,3c.2,0,.59.7,1.49,1.89s.6,1,1.1,2.79c.69,2.59,1.79,4.49,2.48,6.88,0,.3-.29.2-.59.1a9.91,9.91,0,0,1-1.7-1.1c-.39-.39-.39-.89-1.39-4.48-.4-1.3-.5-1.6-1-3.59-.4-1.69-.6-2.49-.4-2.49ZM47.39,77.65c2.79,5.09,1.69,7.28-4.18,8.08-.4-.1,0,2.59,0,3.78,3-1.69,6.57-2.09,9.85-3.18-.89,2.89-2.48,6.18-7.26,5.68-5-3.89-10.85-1.6-14.84-3.09a5,5,0,0,1-3-3.69,44.41,44.41,0,0,0,8.06.6c-2.79-2.1-2-5.09-1.59-6.38-3.19-4.09-.5-8.67,4.18-7.58a6.77,6.77,0,0,1,1.39.6c4.48-4.09,9.66-.3,7.37,5.18Zm91.29-2.49c.2,0,.6.5,1.39,1.6a77.55,77.55,0,0,1,4.58,6.87c-.1.6-2.68-.4-3.28-1.29a31.41,31.41,0,0,1-2.79-6.78C138.58,75.36,138.58,75.16,138.68,75.16Zm-100,14.75c1.29.2,1.59.3,1.59.8s-3.08.5-3.48.2.1-.8.4-.9a4,4,0,0,1,1.49-.1Zm88.4.5c-17.92,8.47-25.28,31.1-16.22,48.35l-1.3.89c-8.86-18.34-2.29-37.87,12.15-47.84.59-.4,1.89-.7,2.49-1.1,0,0-5.88,1.3-7.87,2.09a5,5,0,0,0-2.89,1.8,44.23,44.23,0,0,0-4.48,6l-9.25.4v.3l9-.2c-9.35,15.45-7.06,30.1-1.29,40.47l.1.1c.3.2,1.19-.4,3.09-2.2.79-.69,1.69-1.59,2.09-2a53.17,53.17,0,0,0,3.88-4.09c-6.27-12.85-.1-29.8,14.63-37.38,0-.39-.2-1.69-.2-1.69s-.59-.5-.89-.5c-16.43,7.28-23,25.22-16.33,41.57l-1.09,1.19c-8.37-16.94.59-38.07,16.32-44.15,0-.4-.3-.9-.79-.6a33.54,33.54,0,0,0-16,45.15l-1,.9c-9.45-18.74.5-39.87,16-47.05.7.2-.2-.4-.2-.4Zm-91.19.2s-.1,1,.2,1.3c.2.69-.1.6-.7.5-1.49-.4-.3.49.9,1.19s1,.7,0,1.3c-.7.4-.6.6-.5,1s.2.2.5-.1A2.12,2.12,0,0,1,38,95.1c.8,0,.9.69.8,1.19-.3,1.1-1.4,1-2.29.8-1.49-.4-3.88-3-3.88-4.48C32.46,91.11,34.35,90.51,35.94,90.61Zm6.67.3c.6.2,1.3.5,2.09.8a13,13,0,0,1,2.89,1.39,4.78,4.78,0,0,1,1.89,4.69L38.23,108.55,37,108c-1.9-1-2.39-1.5-1.3-2a1.84,1.84,0,0,0,.8-1.39c.1-.7.1-.6.5-.9.79-.6.79-.8.79-1.79a2.5,2.5,0,0,1,.3-1.3,4.93,4.93,0,0,0,.5-1.8,1.47,1.47,0,0,1,.1-.59c.1-.6.3-.8.5-.9a7.74,7.74,0,0,0,.49-1c.3-.89.3-.79.8-.69.7.09.6.59.6,1.29,0,.3-.3.6-.2.5a2.12,2.12,0,0,1,.7-.3c.2-.1.49,0,.49.4,0,.2-.1.6-.1.9a8.18,8.18,0,0,0,.2,2.29c.8,2.89.7,2.49.4.1a14,14,0,0,1-.1-2.09,6.58,6.58,0,0,1,.4-1.5c.5-.9.5-1-.6-1.49-.4-.2-1.09-.4-1.19-.7a2.66,2.66,0,0,0-1.4-1c-1.59-.4-2.58-2-2.29-2.19s.8,0,1.2.1c1.49.1,1.79,0,2.49-.6.4-.3.5-.6.79-.6.1-.1.5.1.7.2Zm76.76,1.69c-15.14,12.27-17.82,32.2-10.26,47.55l-1.29,1c-9.46-18-3.09-37.48,8.56-48.05ZM32,94.1c.3,0,.6.4,1.59,1.5a13.17,13.17,0,0,0,1.89,1.69c.9.4.7.3,0,1-.79.89-.3,1.59-1.29,1.19-2.39-1.09-4-4.38-2.49-5.18C31.76,94.2,31.86,94.1,32,94.1Zm-1.2,3.49H31c.3.1.6.6,1,1a7.24,7.24,0,0,0,2.39,1.89c.79.4.79.5.3,1.1a2.46,2.46,0,0,0-.4.69c-.1.2-.1.4-.2.4-.9.2-4-1.69-4.08-3S30.27,97.59,30.76,97.59Zm6.48.3c.49,0,.79.5.79,1.19,0,.5-.3.8-.89,1-1.3.5-2.09-.4-1.2-1.49A2.11,2.11,0,0,1,37.24,97.89Zm-.8,3.19c1,0,1.29.8.5,1.49s-2,.7-2-.1a1.93,1.93,0,0,1,1.49-1.39Zm-6.07,1c.69.2,2.29,1.4,3,1.5,0,.4-.4.5.2,1.2.3.29.3.59.1.69-.79.4-3.58-.89-3.78-2.29C29.77,102.47,30,102.07,30.37,102.07Zm3.68,1.6c1,0,2.09.1,1.89.5s-.4,1.19-.89,1.09c-.2-.1-.4-.29-.6-.39C34,104.37,33.85,103.67,34.05,103.67Zm36.34,4.09c2.78,2.59,12.94,29.1-8.27,48.54l-4.48,1.4c20.41-16,17-38.88,11.45-48.65,0-.3-.1-.3-.59.2s-.5.5-.3.6c6.17,9.57,8.56,36.68-15.93,49.74-.4.4.4.4.4.4,0-.4,11-3,10.25-3.09C73.17,147.83,82,126.2,71,107.26c-.19-.3-.59.5-.59.5Zm-3.49,3-.1.59c8.86,17.55.4,39-16.12,46.85.29.2.59.3.89.5,18.72-10.16,24.09-31.5,15.93-48.14Zm-1.49,1.19-.1.6c7.37,14.85,1.49,35.59-16,44-.2.9,0,.6.8.6,20.31-11,22.2-31.7,15.83-45.16Zm-1.3,1.8c-.59.79-1.59,1.19-2,2.09,5.88,15.65-1.69,30.7-14.63,37.08,0,.8-.6,2.69.8,2.39,15.92-7.27,22.89-26.51,15.92-41.66l-.1.1ZM144.16,144a10.17,10.17,0,0,1,1.69.3c2,.3,3.28,1.69,2.39,2.59-.3.3-.7.1-2-.5a1.3,1.3,0,0,1-.8-1.19c-.1-.8-.3-.9-.5-.3s-.4,1-1.09.79C142,145.34,142.66,143.94,144.16,144ZM123.05,157.3c-4.78-2.69-10.65-7.58-13.94-13.16a75.32,75.32,0,0,0-3.58,8.87l-7.47-2.09-.1.2,7.37,2.09-.7,2.49c-.1.3-1.19,3.09-1.19,3.09L115,164.18a17.46,17.46,0,0,1-2.49,2.89,2.13,2.13,0,0,0-.6,1.39l15.93-15.25s2.09,3.09,2.79,3.79.89.8.1,1c-3.79.59-6.67,3.38-5.68,7.27.2.4.5.3,1.2-.2,2.49-2.29,8.56-4.38,8.76-3.79v2.4c-6.57.1-5.88,4.88-5.38,7.57,0,.1-1.89,1.7-1.89,1.7.7.4,1.29.7,2,1.19-.6,3.19,2.19,7.88,7.57,5.49.49.49.89,1,1.39,1.59a8.27,8.27,0,0,0,1.2-2.19c2.68,1.19,8.26-1.5,5.37-7.78l1.59-1.49-1.49-1a7.76,7.76,0,0,0-1.19-4.39,41.58,41.58,0,0,0,4.38.8h0c1.19.1,2.09.1,2-.6a9.82,9.82,0,0,0-.3-1.49c-.6-1.6-3.49-2.79-6.27-3a2.81,2.81,0,0,1-1.1-.1c-.2-.2.1-.5.4-.5a3,3,0,0,0,3.29-2.29,4.51,4.51,0,0,1,.79-1.2c.8-.9.9-.9.9-2.09a2,2,0,0,1,.59-1.7,4,4,0,0,0,.5-3.09,2.49,2.49,0,0,1-.1-1.79c.5-1.5-.59-2.79-1.89-3.59-.1,0-.1.1-.2.2a3.85,3.85,0,0,1-2.69-.5c-.29-.2,1.1-8.07,3.89-7.37a2.32,2.32,0,0,1,.59,1.69,2,2,0,0,0,0-1.4,1.15,1.15,0,0,0-1.49-.89c-.7.1-1.39,1-1.79,1.39-1.29,1.7-1.29,2.79-1.79,4.59-.2.8-.2.8-1.4-.1-.79-.7-1.19-.9-1-1.3a4.38,4.38,0,0,1,.69-.69l10.66-9.87v98.88h-58l.4-13c1.09-8.87-.8-27.61-2.29-29.4,1.09-1.3,4.58-4.29,4.38-4.39l-.5-.3L95,183l-4.48-1.39a19.73,19.73,0,0,0-5.88-3.09c-3.28-.9-9.65,1.89-9.75,1.89a52.29,52.29,0,0,0-18.22,4.89c-.4-.4-1-1.7-1.1-1.7C50.28,176.24,45.1,172.15,38,167.17l9-5L25.79,140l-.2-18,30.76-29.5c.2-.5,9.76,6.77,13.34,12.75.7-2.89,2-5.58,3-8.47.1-.3,6.07,2.19,7.86,2.29a.69.69,0,0,0,.5-.29l-8-2.6,1.6-4.68s.59-1.3-.1-1.5c-3.59-1.19-7-3.19-10.46-5,0,0,1.6-1.79,1.6-1.89s.69-1,.49-1.4c-1.79,1.69-16.12,15-16.12,15a7,7,0,0,0-2.49-4.48,5.36,5.36,0,0,0,2.59-1.3c2.09-1.49,3.28-4.29,3-5.88a61.69,61.69,0,0,1-6.37,1.89,8.47,8.47,0,0,0-3.58,1.6l-.1-2.59s3.38.59,5-1.7c1.39-2,.79-4.18.49-5.38,0-.3,0-.2.5-.8a10.92,10.92,0,0,1,1.1-.9c0-.1-1.8-.79-2.09-1.39.49-4.69-3.29-6.58-6.47-5.68-.6.2-.9.3-1.6-.5l-1-1s-.4.9-.6,1.3c-.6,1.19-.8.89-2.19.89-3.39.2-5,2.9-4.18,6.38.2.8.1.7-.4,1.7-.3.5-.7,1.2-.7,1.2s.6.29,1.1.49a1.09,1.09,0,0,1,.7,1.2A6.29,6.29,0,0,0,34,85.23a18.9,18.9,0,0,1-7.17-1c.4,3.79,3.09,5.09,6.47,5.68,0,0-.4.3-.69.5a1.67,1.67,0,0,0-1.3,1.5,2.56,2.56,0,0,1-.89,1.49,2.34,2.34,0,0,0-.8,2.29,2.8,2.8,0,0,1-.5,1.5,3.09,3.09,0,0,0-.6,2.29,7.58,7.58,0,0,1,.1,2.3c-.1,1.59.4,2.09,1.1,3.19.5.69.4.69.3,1.19-.3,1.2-.5,1.9-.8,2.79-.6,2.1-.6,3.69-.1,4.09a2.19,2.19,0,0,0,2,.3c3-.9,2.49-3.89,2.59-5.78.1-.5.3-.8.4-.7a7.92,7.92,0,0,0,2.89,2.19c-4,4.09-6.47,6.48-11.55,11V21.33H82.63a33.94,33.94,0,0,1-.1,4.39c-.2,7.28-.6,14.85-.1,22.23a62.89,62.89,0,0,0,.4,7.57c.4,2.5.5,5.09,1.69,7.38.5,1.2.5,1.2-1.29,2.79a8,8,0,0,0-1.59,1.8c0,.1,0,.19.09.1l.8-.8c.5-.6,1.3.2,4,.89a12.47,12.47,0,0,1,1.89,1.1c4.09,3.39,9.76,2.39,14,.5a9,9,0,0,1,3.49-.8,71.35,71.35,0,0,0,14.93-4l.9,1.59a.53.53,0,0,1,.59.3c4.18,7.87,17.72,16.84,17.42,16.45l-8.86,4.88c6.48,8,21.31,21.53,21.31,21.53v19.54a124.67,124.67,0,0,0-11.35,10.37c-1,1-1.69,1.59-1.29,1.59.89-.1,1.69.8,2.38,1.4.5.49.4.49-.19,1.19-.4.5-.5.6-.5,1a1.81,1.81,0,0,1-.6,1.69,2.67,2.67,0,0,0-.7,1.4,3,3,0,0,1-.49,1.49c-.7.1-.7,1.1-.6,1.6.7.7.4,1.49.4,1.29-1.3,1.5-2.69,2.7-1.8.7a5.38,5.38,0,0,0,.5-1.39,9.58,9.58,0,0,1-1,1c-.5.5-.7.2-.7-1.29a10.91,10.91,0,0,0-.7-3c-.1-.2-.1.1-.1,1.19a6.28,6.28,0,0,1-.3,3.29c-.69,1.9-1.19,2.2-.09,2.1s1.89-.1,2.38.49c.2.2.4.6.8.8a8.56,8.56,0,0,1,2,1.5c1.5,1.69,1.1,3.19-1.89,2.19-1.59-.5-.5-1.2,1.1-1.1,1,.1,1.19-.3.29-.59-1.69-.3-1.89-.5-3,.79a10.75,10.75,0,0,1-8.46-5.18c-.5-.9-.7-1.1-.3-1.5.1-.19.1-.09-.2.1s-.9.5-1.1.7a15.65,15.65,0,0,1-3.68,4.69ZM143,146.53c.8.1.8.8.1,1.4s-1.09.6-1.49.2C141,147.43,141.77,146.43,143,146.53Zm2.29.4a4.07,4.07,0,0,1,2.39,1.1c1.1,1,1.39,3.29.4,3.69-.4.19-.5,0-1.4-.9a9.2,9.2,0,0,0-2-1.5c-1.39-.69-1.59-.89-.59-1.39a2.62,2.62,0,0,0,.59-.5c.1-.4.2-.5.6-.5ZM143.76,150a1.92,1.92,0,0,1,.79.3c2.29,1.3,3.49,3.29,2.69,4.39-.5.69-1.39.49-2-.6a7.09,7.09,0,0,0-2.39-1.9c-1.19-.59-1.29-.69-.4-1.19a1.85,1.85,0,0,0,.8-.7c.3-.4.3-.3.5-.3Zm.79,4.69c1.8,1.79,1.6,2.69.4,3.38-.79.5-2,.6-2.39.2-.69-.59-.59-1.19.1-1.49.7-.1.4-.4-.2-.6-2.29-.6-3.68-1.89-1.19-1.59a2.41,2.41,0,0,0,1.79-.9c.4-.6,1.2.7,1.49,1Zm-119.06.69,50.87,72.87H35.24c1.5-11.56-1.49-24.42-5.27-32.79a119.31,119.31,0,0,0,12.14-2.9l-.79-1.09a51.65,51.65,0,0,1-13.24,3.09c5.47,9.37,7.46,22.33,5.77,33.69H26V171.75Zm9.16,10.87a3.89,3.89,0,0,1,2.69,2.19,16.24,16.24,0,0,0,1,2.49c0,.2,1.79,3.39,1,3.09-1.6-2.09-4.28-5.68-5-7.47A.27.27,0,0,1,34.65,166.27Zm5.47,3.19a13.12,13.12,0,0,0,1.1,2.79c1.09,2.39,2.79,6.08,2.49,7.18-.2.69,0,.69-.6-.2-.3-.4-1.3-1.8-1.49-2.1-.6-.79-.2-.1-.5-1.29-.8-3.49-2-5.29-2.79-7.28-.4-.9,1.39.5,1.79.9Zm1,.5c.1.1,2.19,1.49,2.39,1.69.69,2.59,3.58,10.77,2.78,12.16a5.38,5.38,0,0,1-1.49-2.19c-.3-3.89-1.59-6.68-2.89-9.67A17.26,17.26,0,0,1,41.12,170Zm3.78,2.89a4.49,4.49,0,0,1,1.69,1.69,4.7,4.7,0,0,1,.6,2c.7,3.29,2.09,6.67,1.49,10.26-.39.5-1.19-.69-1.39-1.89a50.3,50.3,0,0,0-2.09-10.47C44.9,173.55,44.7,172.85,44.9,172.85Zm3.19,3.09a5.06,5.06,0,0,1,.89.7,2.7,2.7,0,0,1,1,2.59c0,2.09.7,4.48.79,6.58a24.52,24.52,0,0,1,.1,4.58c-.29.4-1.39-1-1.39-3,.2-2.49,0-4.29-1-8.57-.4-2-.6-2.89-.4-2.89Zm94.07-12.46c3.69,2.39,2.39,6.68,1.6,7.17,5,6.38-2.79,9.67-5.28,7.38-3.68,3.69-9.95.6-7.56-5.48,0,0-4.58-8.87,4.48-8.27,0,0,.19-3.59-.1-3.69-3.29-.2-7.67,2.89-8.86,3.78-.7.4-.8.2-.8.2-.2-1.89-.2-2.69.6-3.68,1.29-1.8,3.48-2.4,6.27-3.09,3.48,1.09,6.87,2.79,10.15,2.49a11.8,11.8,0,0,1,5.38,1.19c1.19.6,1.79,2.7,1.79,2.7-1.89,1.09-7.67-.7-7.67-.7Zm-1.69-13.06a1.5,1.5,0,0,1,1.4-1.3c1,.1,1.09,1.2.2,1.6-.2.2-1.1-.1-1.1.1.1.4-.3.2-.4.1A.75.75,0,0,1,140.47,150.42Zm-.59,2.49a2.17,2.17,0,0,1,1-.3c.5-.1,1.29,0,1.39.6s-.89.9-1.79.9c-.4,0-1,.1-1.09-.2s.3-.9.5-1ZM29.67,112.64c.7-2.49.3-3.79,1.39-6.88l2.89,1a15.59,15.59,0,0,1-.5,4.58C33,112.94,31.06,114.24,29.67,112.64Zm21.2,66.19c.3,0,1.2,1.19,1.5,2.29s.2,2.29.5,3.39a39.91,39.91,0,0,1,.39,8.47c-.1.6-.39.3-.89-.2-.7-.79-.6-.79-.6-2.89a64.41,64.41,0,0,0-.6-7.27,17.09,17.09,0,0,1-.4-3.59A.35.35,0,0,1,50.87,178.83Zm33.35.5c3.69.59,6.58,3.09,8.27,7.27s2,10,2.29,15.25c0,1.3-.5.9-1.89.2s-1.8-.49-4,0c-1.39.3-1.19-.59,1-2.19.8-.5,1.59-1.2,1.39-1.29s-.79.09-1.29.49c-2.19,1.8-2.79,2.2-2.19.5a22,22,0,0,0,.89-2.19c.8-2.19-.09-3.09-2.78-4.49-.7-.3-1.1-.89-.4.3.6,1-.6,1.8-2,.6a2.76,2.76,0,0,0-3.59.7,2.44,2.44,0,0,0,.9,3.29c1.1.5,1.49.1.4-.6-1.3-.9-1.1-2.49.4-2.49.39,0,1,.4,2.68,1.29,1.2.6,2,.4,2-.59,0-.6.39-.6,1.09-.2,1,.49.9,1,.4,2.39-.4,1-.6,2.19-.9,3.19-.89,3.59-1,7.57,0,8.77,2.59,3.29,5.28,3,7.67.8l-.1,3.69c-2.39,1.89-5.18,3.19-9.46,10.36-1.49-1.89-8-9.67-18.32-11.36l-2.29-3.19c0-.2-1.69-11.86-2.88-15.85A38.07,38.07,0,0,1,64,190.59c4.57-5.68,12.44-12.26,20.2-11.26Zm-13.43,3.29c-.4.1-.5-.7-.3-.8h1.09c.4,0,.4.4-.79.8ZM53.36,182a12.15,12.15,0,0,1,1.8,2.29c.29.5.09,1.3.19,2.19.1,1.2.2,3.09.3,4.29a12.12,12.12,0,0,1-.4,4.88c-.29.8-1,.3-1.19-.89,0-.3.2-3.09.2-4.69-.1-2.69-.8-6-.9-8.07ZM69,182c.2,0,.3,0,.4.2.6.7.8,1.19.3,1.49-.7.6-1.29.4-1.69-.7C67.8,182.32,68.4,182,69,182Zm-2.09.6a3.79,3.79,0,0,1,1.3,2.19c0,.2-.2.4-.6.7s-.5.3-1-.4c-.69-1.1-1-1.8-.89-2.19A1.65,1.65,0,0,1,66.9,182.62Zm24.39.2a16.52,16.52,0,0,1,3,.79L92.79,185A10.38,10.38,0,0,0,91.29,182.82Zm-26.58.69a8.12,8.12,0,0,1,1.5,3.29,1.72,1.72,0,0,1-.6.6c-.2.1-.3-.3-1-1.39-1.09-1.9-1.39-2.5-.79-2.7A1.46,1.46,0,0,1,64.71,183.51Zm-2.19.5a12.68,12.68,0,0,1,2.09,4.19,1.42,1.42,0,0,1-.2.6c-.89,1-.69.79-2-2-1.09-2.29-1.39-2.49-.69-2.79a1,1,0,0,1,.79,0Zm-2.19.7c.4,0,.5.7,1.3,2.19,1.29,2.89,1.79,3.29,1.49,3.59-.4.5-.6.8-.9.2-.79-1.3-1.59-2.89-2.29-4.29-.59-1.09-.59-1.19-.29-1.49a2.4,2.4,0,0,1,.69-.2Zm23,.8c-.5.1-2.39.79-1.2.89a8.32,8.32,0,0,0,1.3-.2c1.19-.09,3.68.1,3.58-.09C86.71,185.31,84,185.41,83.33,185.51Zm-24.69.3.6,1.19c1.79,3.59,2.88,4.89,2.49,5.38-.3.3-.7.8-.9.7-.4-.2-.9-1.29-2.19-4s-1.49-2.9-.8-3.29c.3-.2.6-.3.8,0ZM56.85,187c.79,1.4.69,1.2.69,5.68a12.58,12.58,0,0,1-.79,5.29c-.2.4-.7.1-.9-.6-.1-.3.2-.8.2-1.3.3-3.39.1-6.68.1-9.87C56.45,186.2,56.65,186.8,56.85,187Zm21.7,1.1c.4.6.3,1,.3,1.79,0,1.1.1,1.2.8.6s.69-.5,1.89.3a1.64,1.64,0,0,0,2.09,0c.4-.4.5-.2,1.09-.1.6.3.7.4,2-.2.8-.4.9-.4,1.4-.2.89.8,1,.5.89-.5a6.66,6.66,0,0,1,.2-1.39c.4-1.8-.3-1.8-1.19-.7a1.79,1.79,0,0,1-1.89.3,8,8,0,0,0-4.09-.1,2.86,2.86,0,0,1-2.78-.7c-.3-.3-1.1-.6-1.2-.3s0,.6.5,1.2Zm-20,2.59c.2,0,.5.5.9,1.69.49,1.5-.4,6.78-1,7.68-.3.5-.5.7-1.09-.1-.2-.4-.1-.5.19-1.49a27.54,27.54,0,0,0,.7-5.29c0-1.69.1-2.49.3-2.49Zm1.89,5.08c.1,0,.3.3.5.9a6.44,6.44,0,0,1-.2,3.59,13,13,0,0,1-.8,2.09c-.1.4-.79.2-1-.6-.1-.49.3-1.09.5-1.89s.39-1.79.49-2.29C60.13,196.37,60.23,195.77,60.43,195.77Zm14.74,2.3h0c-.1,0-.1.1,0,0A20.51,20.51,0,0,0,77,200.16c.2.2,2,2.29.89,1.79a7.44,7.44,0,0,0-8,1.3c-.3.2-.5,0-1.2-.1-1.59-.1-2.09.5-1.19,1.3a6.13,6.13,0,0,1,.6.4c.1.19.1.49.2.59,3,4,8.56,4.79,12,2.2a1.19,1.19,0,0,1,1.1-.3c.79.2.89-.4.2-1.4-.3-.4-.7-.9-.5-1,.4-.39.7-1-.1-1.19a2.78,2.78,0,0,1-1.39-1.6,20.92,20.92,0,0,0-4.48-4.08Zm-13.64,1.79c.69,0,.69,3.89,0,5-.4.4-1.2-.39-1.1-1.19.1-.6.8-3.59.9-3.69a.31.31,0,0,1,.2-.1Zm13.34,2.39a2.81,2.81,0,0,1,1.89.8,3.12,3.12,0,0,1,.69,2.09c-.09.3-.69.2-.79.1-.4-2.59-2.39-2.89-3.09-.49,0,0-.4.39-.5-.3.1-1.5.7-2.2,1.8-2.2Zm16.52.2a1.62,1.62,0,0,1,1.6,1,2.93,2.93,0,0,1,.19,1.1.21.21,0,0,1-.29.1c-1-2.9-2.49-1.5-3,0,0,0-.5.19-.6,0s0-.5.2-.9a2.15,2.15,0,0,1,1.89-1.3Zm-13.93.2a2.48,2.48,0,0,1,1.49.8c.5.5.5.8.1,1.1-.2.2-1.1.39-1.2.1l-.69-1.6c-.1-.2.1-.4.3-.4Zm-5.08.1c.4,0,.5.1-.1,1.6-.1.3-1.79-.1-1.5-.8A2.45,2.45,0,0,1,72.38,202.75Zm16.72.1c.2,0,.3,0,.4.1-.1.1-.8,1.7-.8,1.7-.59-.1-1.29,0-1.39-.5s.1-.7,1-1.1A1.51,1.51,0,0,1,89.1,202.85Zm4.88.4c.6.2.8.8.7,1s-.4.2-.6.1a1.62,1.62,0,0,1-.5-.9C93.68,203.15,93.78,203.15,94,203.25Zm-31.46,1.5c.2.39.5,2.49.1,2.39s-.6-.7-.7-1.3C62,205.74,62.32,204.75,62.52,204.75Zm7,1.09a3,3,0,0,1,1.3.5,10.12,10.12,0,0,0,7.06.7c1.4-.4,1.8-.6,2-.3s-.19.8-2.19,1.49c-2.19.7-4.48.6-7.46-1.49-.9-.6-1-.8-.7-.9Zm25.09.6c.4.7-.9,1.4-1.49,1.59a6.6,6.6,0,0,1-4.58-.49c-.1-.1-.2-.1-.3-.2-1-.7-.6-1.2.49-.7a6.3,6.3,0,0,0,4.68.1c.6-.3,1-.7,1.2-.3Zm-28.08,1.3c-.1,0,.1.29.5.79,3.09,3.49,10.46,5.39,14.64,1.8,1.29-1.2,1.09-1.8-1-.8a18.84,18.84,0,0,1-8.26.4,13.29,13.29,0,0,1-4.78-1.5,3.21,3.21,0,0,0-1.1-.69Zm21.31.1a2.82,2.82,0,0,1,1.19.49,7.48,7.48,0,0,0,4.18.1c1.7-.59,2,.2.4,1a4.82,4.82,0,0,1-5.57-.7c-.4-.4-.7-.89-.5-.89S87.81,207.84,87.81,207.84ZM67.3,214c6.07.59,15.33,7,18.92,14.25H84.13C80.54,222.49,75,217.6,68.4,215.81A4.42,4.42,0,0,1,67.3,214Zm27.08,1.29-.3,2a32.69,32.69,0,0,0-7.57,8.87c-.59,0-.89-.7-.79-1.2,2.29-4.39,5-6.78,8.66-9.67Zm-24.69,1.6c1.39-.1,10.45,5.18,13.54,11.36H81.54c-3.49-4.49-7.27-7.78-10.66-9C70.09,218.4,69.19,217,69.69,216.91Zm24.39,1.39V221a23.49,23.49,0,0,0-5,7.18H87.41s-.4-1.1-.2-1.5a23.17,23.17,0,0,1,6.87-8.37Zm-13.84,10H78.65A18.81,18.81,0,0,0,73.37,223c-.79-1-1.59-2.2-1.29-2.3,0-.79,7.17,4.49,8.16,7.58Zm13.84-5.88V224c-1.09,1.4-2,3-2.89,4.29H89.8c1.19-2.79,4.38-6.68,4.28-5.88Zm-18.72,3.09c.5.1,2.39,2.19,2.29,2.79h-.79c-.5-.6-1-1.59-1.4-2.19-.19-.4-.39-.7-.1-.6Zm18.42.4h0v2.29H92.39a5,5,0,0,1,1.39-2.29Z"/><path id="path6313-8" d="M101.35,21.23,153.41,95.4V79L136.69,57.32A58.25,58.25,0,0,1,148.83,55c-4.67-10.47-7.06-20.24-5-33.7C129.32,21,114.69,21.13,101.35,21.23Zm41.71.3c-.4,4.79-.9,10.07-.1,15.95-2.69-1-3.38.7-3.78.9-.5-1.1-2.39-3.09-4.58-.8-1.1,1.2-.6,3.49,2,4.49-3,.2-4.48-2.3-5-4.89-1.59-1-3.28-2-3.48-5.68l.79.1a2.54,2.54,0,0,0,3.89,2.59c1-.8,1.09-1.89.69-3.69a2.63,2.63,0,0,0,2.19-3.29c-.69-3.28-4.08-2.89-5.57-.69-1.3-1.6-3.59-1.9-4.58.59a2.63,2.63,0,0,0,2,3.19c-3,.6-4.58-3.58-4.68-6.37l-1.29-2.2C129.82,21.53,133.4,21.53,143.06,21.53Zm-40.82.1h6.08L152.52,79l.1,14.25Zm15.34,0h1a12.61,12.61,0,0,0,8.56,10.47c.3,4.09,2.19,9.77,9.76,11.66-.2,4.69,2.79,9.07,6,11.27,0,0-.89.19-1.49.29-4.28-3.38-5.38-8.47-5.78-10.46-.1-.3-.59-.4-.89-.4a13.36,13.36,0,0,1-8.07-8l-.79-3.58c0-.5-.1-.2-1.2-.7-2.78-1-5.47-4.09-6.67-7.78a6.13,6.13,0,0,1-.39-2.79Zm-3.89,0h3.39a5.13,5.13,0,0,0,.1,1c.49,3.59,3.68,8.17,7,9.67a5.13,5.13,0,0,1,1.29.7c.9,5.88,3.58,9.47,9.26,12,.1.1.3.2.4.3.79,3.68,2.49,7.87,5.67,10.26l-1.39.1Zm16.53,6.28a1.4,1.4,0,1,1-1.4,1.4A1.36,1.36,0,0,1,130.22,27.91ZM83.43,35.49c.1.2-18.92,16.35-17.12,46.75l-.6.6.2.2c-.6.69-1.2,1.29-1.89,2a70.86,70.86,0,0,0,10.85,5.18l-1.3,3.09L81.84,96l-1.1,2.89-8.06-2.69A57.55,57.55,0,0,0,70,104.27q-.15.3-.6-.3c-4.28-7.28-13-12.56-12.74-12.06l-31.16,29.6-.2,18.34,21.5,22.23a99.67,99.67,0,0,0-9.16,5.09c2.29,1.89,4.88,3.29,7.17,5.08,4.68,3.29,7.87,8.27,11,11.56a52.48,52.48,0,0,1,41.52-2.39c-1.5,1.5-3.09,2.89-4.58,4.59,3.68,9.56,2.49,28.6,2.29,29.2a63,63,0,0,0,17.32-47.94l3.18-3.19a76.14,76.14,0,0,0-11.25-5.39l.9-2.89-7.86-2.49.89-2.29,7.87,2.29c1.49-3.69,3.08-8.87,3.08-8.87,3.19,4.68,6.57,9.07,13.74,13.36l31-29.71-.2-19.14-21.1-21.13,8.76-4.59c-.8-.69-2.09-1.29-2.89-2-.1,0,.2-.2.1-.2-.2-.2-.4-.3-.6-.5-.1,0-.2.2-.29.2a49.77,49.77,0,0,1-8.27-6.68c-.1-.1,0-.29,0-.39-1.19-1.3-2.39-2.5-3.68-3.79a15.85,15.85,0,0,1-1.49-2l-.1-.49-1.3-1.7c-4.28,2.49-22.5,8.87-40.22,1.9l3.39-3.39a24.7,24.7,0,0,1-1.7-6.58c-1.19-7.88-.79-22.13-.79-22.13ZM139.18,40a1.5,1.5,0,0,1,0,3,1.52,1.52,0,0,1-1.49-1.49A1.46,1.46,0,0,1,139.18,40Zm4.58,1.8a65.31,65.31,0,0,0,4,12.56l-2,.2c-1.59-1-3.29-2.5-3.49-4.69-4.28,0-5.57-6.68-4-5.88a2.59,2.59,0,0,0,3.09,3c1.39-.2,2.59-2.09.89-4.28A2.56,2.56,0,0,0,143.76,41.77ZM83,52.53A59.64,59.64,0,0,0,85.12,64.2l-8.46,8A42.51,42.51,0,0,1,83,52.53ZM123.55,68l1.09,1.6c-12.24,7.18-33.15,7.67-45.89,1.59l1.69-1.59C91.69,74.56,109.91,75,123.55,68ZM44.1,70.38A7.34,7.34,0,0,0,39.92,72c-5.57-2.59-9.25,3.39-5.77,7.38-.5,2.89-.9,3.39,1.19,6.28-2.29.3-5.17-.3-7.56-.7.4,4.19,6.47,5.18,9,4.78a9.22,9.22,0,0,1,5.37.8c1.6.4,2.59,1.2,4.18,1.6,2.59.59,6.38-2.4,7-5.39.1-.39.2-.69,0-.79-1.79.49-3.68,1.09-5.47,1.49a10.28,10.28,0,0,0-4.28,1.8l-.1-3.49c8.76.4,5-8,4.48-8.38,1.59-3.19-.4-7-3.79-7Zm79.95.2,1.89,4.58-5.08,1.7-1.29-4.49Zm-80.34.19c3,0,5.67,3.19,2.78,6.68,5.58,4.89-1.59,10.17-5,6.58-4.48,4.19-9.36-.2-6.77-4.68C30,75.06,35.84,69.18,39.92,73A4.55,4.55,0,0,1,43.71,70.77Zm34.74,1.7a1.3,1.3,0,1,1-1.29,1.3A1.32,1.32,0,0,1,78.45,72.47Zm-33.15.1a.37.37,0,0,0-.3.1,17.39,17.39,0,0,0-1.29,1.49,10.42,10.42,0,0,1-1.5,1.6,3.51,3.51,0,0,0-3.38.4,6.14,6.14,0,0,1-2.59-1.5c-.7-.6-1.1-.7-1.19-.4s.19.7,1.49,1.6c1.79,1.29,1.69,1.19,1.69,1.19a5,5,0,0,0,.5,2.8,12,12,0,0,1-1.59,2.49,3.13,3.13,0,0,0-.7,1.19c0,.7.6.2,1.89-1.49.5-.7,1.19-1.6,1.19-1.6a4,4,0,0,0,3.09-.1,8.88,8.88,0,0,0,1.2.9c1.59,1.3,1.89,1.4,2.09,1.2s.2-.3-.4-.7a15.84,15.84,0,0,1-2.39-2,4.25,4.25,0,0,0-.4-3.29s0-.2,1-1.3a12.87,12.87,0,0,0,1.69-2.29C45.6,72.67,45.5,72.57,45.3,72.57Zm36,.3,4.58,1.39-1,4.79L80,77.45ZM114.49,74l1.29,4.69L111,80l-.79-5Zm3.38.1a1.3,1.3,0,1,1-1.29,1.3A1.32,1.32,0,0,1,117.87,74.06Zm10.76.2,4,3.59-4.48,2.29L126,75.46Zm-37.74,1,4.68.6-.2,5L90,80.14Zm-16.12.1,5.17,2.29-1.89,5.19-5.27-2.3Zm13.34.4a1.3,1.3,0,0,1,0,2.59,1.3,1.3,0,1,1,0-2.59Zm16.72,0,.6,5-4.78.3-.1-5.08Zm3.39.6a1.3,1.3,0,1,1-1.3,1.29A1.21,1.21,0,0,1,108.22,76.36Zm-67.2.4a1.3,1.3,0,0,1,0,2.59,1.32,1.32,0,0,1-1.3-1.3A1.2,1.2,0,0,1,41,76.76Zm57.14,0a1.3,1.3,0,1,1-1.29,1.29A1.32,1.32,0,0,1,98.16,76.76Zm22.7.29,1.89,5.19-5.27,1.69L116,78.65Zm3.68.1a1.3,1.3,0,1,1-1.29,1.3A1.32,1.32,0,0,1,124.54,77.15Zm9.16,1.5L137.09,81l-1.69.9C135,80.94,134.2,79.75,133.7,78.65ZM85,79.15l5.08,1.09-.8,5.29-5.47-1.1Zm-15,.3,2.69,1.29-1.8,4.39L66.6,82.84Zm12,.3A1.3,1.3,0,1,1,80.64,81,1.25,1.25,0,0,1,81.94,79.75Zm29.06.3.9,5.28-5.67.8-.4-5.39Zm21.31.09a1.3,1.3,0,1,1-1.3,1.3A1.21,1.21,0,0,1,132.31,80.14Zm-4.08,0,1.89,4.69-5.58,2.29-1.69-4.68Zm-14.14.3a1.3,1.3,0,1,1-1.29,1.3A1.32,1.32,0,0,1,114.09,80.44ZM95.37,81l5.28.1-.1,5.38-5.77-.19Zm42.41.3,2.1,1.5c-21.51,13.85-51.77,15.65-75.27,1.89l1.5-1.5C87.41,96,118.37,94.2,137.78,81.34Zm-45.29.6a1.3,1.3,0,1,1-1.3,1.29A1.26,1.26,0,0,1,92.49,81.94Zm10.85.3a1.3,1.3,0,1,1-1.3,1.29A1.31,1.31,0,0,1,103.34,82.24ZM78.05,83l5.58,1.59L82.73,89l-6.07-1.8Zm-3.68,0a1.3,1.3,0,0,1,0,2.59,1.3,1.3,0,1,1,0-2.59Zm43.11.89,1.29,5-6.17,1.29-.7-4.88Zm3.48.7a1.3,1.3,0,1,1-1.29,1.3A1.32,1.32,0,0,1,121,84.63Zm-80.14.8v3.49c-1-.8-2.19-1.7-3.39-2.69a5.53,5.53,0,0,0,3.39-.8Zm-12.54.1a15.32,15.32,0,0,0,1.69.2c2.49,0,7.17.79,8.56,1.89.5.4,1.19.7,1.49,1.3,0,.3-.4.3-1-.1a14.79,14.79,0,0,0-5.68-1.7c-.49-.1-.49,0-.49.2s.39.4,1.79.7a13.91,13.91,0,0,1,2.49.6c1,.3.39.7-.7.8-4.38.39-7.67-1.5-8.36-3.69,0-.2,0-.2.2-.2Zm60.92.1,5.48.7-.3,4.58-6.07-.7ZM42.41,86c1,.79.3,3.09-.2,3.68a.63.63,0,0,1-1.09-.39c.1-.5,0-2.8.1-3.49a1.38,1.38,0,0,1,1.19.2Zm63.82.2.29,4.78-6,.3V86.62Zm-20.31.29a1.3,1.3,0,1,1-1.3,1.3A1.32,1.32,0,0,1,85.92,86.52Zm-33.45.1c.2,3.49-5.18,5.89-7.17,4.79-.9-.5-.5-.8,1.19-1.1,2.29-.6,3.79-1.19,3.79-1.59s-.3-.2-1.3.1c-1.39.5-2.88.69-4.28,1.29-1,.5-1.39.6-1.69.3-.5-.6,1.79-2.09,4.18-2.49,1.89-.3,3.58-1.2,5.28-1.3Zm57,.4a1.3,1.3,0,1,1,0,2.59,1.3,1.3,0,0,1,0-2.59Zm-12,1a1.3,1.3,0,1,1-1.3,1.3A1.32,1.32,0,0,1,97.47,88Zm28.87,2.19c8.66,8.28,18.21,17.85,26,25.72v12.36l-30,28.61a38.76,38.76,0,0,1-14.23-14.85,14.76,14.76,0,0,0,1.29-1.1l-1.59.9c-5.48-8.87-7.87-26.52,1.49-40.67l-9.46.3,1.6-3.19,10.35-.6L116,93.2s1.3-.2,2.39-.5,3.29-.89,5-1.39a26.14,26.14,0,0,1,3-1.1Zm-70,2.3a37.31,37.31,0,0,1,13.84,14.55c-16,13.85-22,29.9-23.4,46.65-8.66-8.17-13.14-12.66-21-20.63l.3-11.87ZM90,94a132.45,132.45,0,0,0-6.07,16.15l-2.49-.7s1.59-.7,2.29-1.1l-1.3-2.09,2.49-1-1.39-1.79,2.49-1.4-1.2-1.59,2.29-1.1-1.39-1.59,2.39-1.3-1.2-1.59Zm.8,0a2.33,2.33,0,0,0,.69.1,6.47,6.47,0,0,1-.4,1.3c.9.2.9.1,1.2.2l.7-1.4,1.09.2a94.18,94.18,0,0,0-5.87,16.25l-1.3-.3a12.75,12.75,0,0,0,.4-1.4,4.8,4.8,0,0,1-1.09-.4c-.1.2-.5,1.6-.5,1.6h-1A69,69,0,0,1,90.8,94Zm4.18.2,2.29,1.89-2.59,1L96,98.88l-2.69,1,1.6,1.9-2.69,1,1.59,2.2L91,106l1.8,2-2.49,1.19,1.49,1.5s-1.59.5-1.69.5a3.92,3.92,0,0,1-1.3-.2A80.28,80.28,0,0,1,95,94.2Zm-55.16,1c-.59.4-.29,1.29-1.09,2.09-.1.1-.1.4-.2.7s-.7,2.69-.7,2.69a2.39,2.39,0,0,0,.4-1c.2-.7.4-2,.5-2.19.6-.2.7-2.09,1.29-1.8.3.2.3.5.1,1.2-.4,1.5-.59,2.09.1,1.1,1.1-1.3,1.2-2.49,0-2.69,0-.1-.3-.1-.4-.1Zm16.23.5L28.08,122l-.1,9.87,9.75,9.87,6.87,6.68C47.09,133.37,52.87,119,67,106.56a34.34,34.34,0,0,0-11-10.86Zm75.36.29c-16.42,7.78-20.21,23.63-15.13,38.08C124.15,123.9,130.32,114.43,131.41,96ZM73,96.79l7.46,2.39-2.79,9.67-6.77-2.09-.69-1.7Zm57.64.3a59.9,59.9,0,0,1-13.94,35.29A28.1,28.1,0,0,1,130.62,97.09Zm-40.22,0-.5,1.2,1,.3.4-1.2Zm-1,2.89-.4,1.2,1.1.4.4-1.2Zm44,.2c-2.29,17.84-11.94,34.09-22.1,42.36A38.94,38.94,0,0,0,122.15,154l28.58-27.51-.1-9.17Zm-75.56,4.69a4.13,4.13,0,0,0-.2,1,6,6,0,0,1,1.2-.8c5.57-2.79,3.78,1.5,1.19,3.09a13.66,13.66,0,0,0-1.19.7l1.19.2c3.39.7,2.69,2.69-.89,2.39a8,8,0,0,1-1.1-.1,8.11,8.11,0,0,0,.5,1.4c1.19,3-1,3.29-2.49,1.3-.2-.3-.7-1-.7-1s-.1.6-.19,1.1c-1.3,4.78-4.38,4.58-3.19-.2.1-.5.3-1.4.3-1.4s-.7.4-1.49.8c-4.09,1.79-4.68-.1-1-2.79a14.38,14.38,0,0,0,1.39-1.1c-.69-.1-1.29-.2-1.79-.3-3-.7-3.68-2.49,1-2.39a11.29,11.29,0,0,1,1.39.1,13.73,13.73,0,0,0-.5-1.8c-1.09-3.58,1.2-4,3.09-.79.4.69.5.69.5.69a5.42,5.42,0,0,1,.59-2.29c2.19-4.38,3.09-.4,2.39,2.2Zm50.58-3.49a38.54,38.54,0,0,0-4.48,10.56l-7.67-.1a40.13,40.13,0,0,1,3.49-10.06C102.94,101.68,105.73,101.58,108.42,101.38ZM88.31,103l-.4,1.3,1.09.3.4-1.3Zm-57.15,2.39a62.47,62.47,0,0,0-1.59,6.38c-.2,1.1,0,1.6.7,1.8a2.79,2.79,0,0,0,3.08-1.2,9,9,0,0,0,.8-4.09l.1-2a27.87,27.87,0,0,1-3.09-.9Zm56.05.2-.4,1.2,1.1.4.4-1.2Zm49.48.5a3.55,3.55,0,0,1,2.69.9l2.29,2.39a3.25,3.25,0,0,0-1,2.29,3.19,3.19,0,0,0,3.09,3.19,5.25,5.25,0,0,0,2.19-.89l3.58,3.78c-2.09.9-4.18-1.19-4.88-2-.2-.2-.2-.3-.2-.3v.5c-.29,1.69-1.89,6.58-3.48,6.28-1.79-.3,0-7.28.1-7.18-1.19,1.3-7.07,2.69-6.67,1.2.8-2.89,5.28-4,5.77-4.49-2.39-1.59-5.37-5.48-3.48-5.68Zm-105.23.1a4.27,4.27,0,0,1,1.79.4c.2.1.2.3.3.5,0,.8.2,3.29-.6,3.39a4.07,4.07,0,0,0-2.28.6c-.5.39-.6.1-.5-.8s.59-2.69.69-3.49Q31,106.16,31.46,106.16Zm23.3,0a3.13,3.13,0,0,0-3.09,3.19,3.19,3.19,0,0,0,3.09,3.19,3.12,3.12,0,0,0,3.08-3.19A3.06,3.06,0,0,0,54.76,106.16Zm0,1.1a2,2,0,0,1,2,2.09,2,2,0,0,1-4,0A2,2,0,0,1,54.76,107.26Zm16.12.1c7.17,12.46,6.38,29.5-2.09,42l9.06-.6L76.66,151,67,152c-1.49,1.4-2.79,2.9-4.28,4.39v.5a102.21,102.21,0,0,0-10,2.89c-1.8-1.79-5.18-5.28-5.18-5.38l.2-1.1C70.78,141.55,64,117.82,62.42,115.83a68.37,68.37,0,0,1,8.46-8.47Zm64,2.19a1.7,1.7,0,1,1-1.69,1.7A1.75,1.75,0,0,1,134.9,109.55Zm7.56.5,2.79,2.89a2,2,0,0,1-1.39.6,2,2,0,0,1-2-2A1.73,1.73,0,0,1,142.46,110.05Zm-97.36.3A1.7,1.7,0,1,1,43.41,112,1.74,1.74,0,0,1,45.1,110.35Zm-12.54.8c.79.29.59,1-.4,1.69a1.88,1.88,0,0,1-1.89.2C29.17,112.34,31.46,110.75,32.56,111.15Zm13,4.08L35.44,125.1a13.75,13.75,0,0,0,.7-4.88q4.63.45,3.88-4.49a14.21,14.21,0,0,0,5.58-.5Zm16.32,1.2c4.68,13.56.6,27.81-14.13,36.08C48.39,139.55,53.76,127.19,61.92,116.43Zm13.44,1.19a108.5,108.5,0,0,0,26.88,3.09,61.33,61.33,0,0,0,1,11.27A97.93,97.93,0,0,0,76,129a41.62,41.62,0,0,0-.6-11.37Zm60.13,2-8.66,10.17.4-5.59c2.89.4,4-1.19,3.49-4.18A15.42,15.42,0,0,0,135.49,119.62Zm-83.92.5-.7,4.08c-1.69,0-3.38.7-3.38,4.49l-5.18-.1Zm95.07.79a1.7,1.7,0,1,1-1.69,1.7A1.68,1.68,0,0,1,146.64,120.91Zm-102.83.5a1.7,1.7,0,1,1-1.7,1.7A1.69,1.69,0,0,1,43.81,121.41Zm99.05,1.7-.89,6.18c-2.39-.2-4.28.2-3.69,4.28a46.39,46.39,0,0,0-6.57.4Zm-8.36,1.19a1.7,1.7,0,1,1-1.69,1.7A1.62,1.62,0,0,1,134.5,124.3ZM31.36,125.6a1.7,1.7,0,1,1-1.69,1.69A1.68,1.68,0,0,1,31.36,125.6Zm5.58,2c2.19.5,1.19,5.58.69,6.88,0,0,6.08-3.19,6.38-1.79.19,2.89-5,4.88-5,4.88s3.58,3.09,3.68,5c0,1.3-1.49,1-3.38-.59-.8-.8-1.5-1.4-2-2a3,3,0,0,0,1.09-2.39,3.19,3.19,0,0,0-3.09-3.19,3,3,0,0,0-2.39,1.1,12.62,12.62,0,0,1-1.59-1.6c-1.09-1.09-1.89-1.89-1.79-2.29,1.49-1,4.38,1.79,4.68,2C33.85,133.27,35.44,127.89,36.94,127.59Zm-2.89,6.18Zm92.09-2.29c1,0,1,2.29.59,3.59-.29.9-.49,1.69-.49,1.69a12.52,12.52,0,0,1,1.29-.89c2.79-1.3,3.88.2,2.39,1.89-.7.9-1.59,1.1-2.39,1.79a6.85,6.85,0,0,1,3.19.8c.69.4,1.29,1,1.29,1.3,0,.7-1.79,1.09-3.48.89a9.55,9.55,0,0,1-2-.39,8.41,8.41,0,0,1,.79,1.49c.6,1.7.4,3.79-.5,3.79-1.49-.4-2.19-2.09-2.78-3.29a10.76,10.76,0,0,1-2,3.79c-1.1,1-1.6.2-1.6-1.5a18.84,18.84,0,0,1,.5-2.69c-6.27,2.09-5.87-.8-.9-3.29-3-1.49-4.87-2.79.3-3.09-.1-.1-1-2.89-.1-3.59s2.79,1.5,2.89,1.6a8.61,8.61,0,0,1,1.39-3,5.42,5.42,0,0,1,1.6-.9Zm21.8,4.29c-1.1.1-1.79,1.09-2.29,1.89-.1.2-.3.2-.4.5a23.11,23.11,0,0,0-1.09,5.38c.69.3,2.29.8,3,.5.2-.1.1-.6.2-.8a18.49,18.49,0,0,0,1.59-6.08C148.93,136.17,148.64,135.67,147.94,135.77Zm-112.8-.2a2,2,0,0,1,2,2.09,1.94,1.94,0,0,1-.8,1.6l-2.89-2.9A2.49,2.49,0,0,1,35.14,135.57Zm113.1,1c.3.7-.6,1.4-1.79,1.4-.7,0-.9.1-.6-.5s1.89-2.19,2.39-.9Zm-15.33-.49a1.69,1.69,0,1,1-1.7,1.69A1.74,1.74,0,0,1,132.91,136.07Zm-89.2.19A1.7,1.7,0,1,1,42,138,1.75,1.75,0,0,1,43.71,136.26Zm80,.6a3.13,3.13,0,0,0-3.09,3.19,3.19,3.19,0,0,0,3.09,3.19,3.12,3.12,0,0,0,3.08-3.19A3.19,3.19,0,0,0,123.75,136.86Zm-41.81.5a50.77,50.77,0,0,1-3.69,10.47c-3,.2-6.27.3-8.46.6,3.58-6.28,3.68-7.78,5-11.17Zm5.17.5a20.08,20.08,0,0,1,2.59.4,97.11,97.11,0,0,1-6.17,16.45l-1.59-.2-.8-.9,2.49-1-2-2,3.28-1-2-2,3.19-.8-1.7-2.09,2.89-1.1-1.79-2.39,3.09-.9Zm36.64.1a2,2,0,0,1,2,2.09,2,2,0,1,1-2-2.09Zm-33.45.4,1.09.2-.3,1.19,1.2.3.4-1.29a5.08,5.08,0,0,1,1.09.2c-1.29,5.28-5.87,16.24-5.87,16.14l-1.2-.19.3-1.1-1.09-.2h0l-.5,1.2-1.2-.1a129.32,129.32,0,0,0,6.08-16.35Zm57.14.4c.9,0,.8.4.2,2.09-.6,1.5-.8,2.19-1.09,2.39-.7.5-2.19.1-2-.6.4-2.29.5-3.29,1.1-3.58A5.6,5.6,0,0,1,147.44,138.76Zm-52.86.2,2.79.49L95,140.85l1.49,1.79-2.89,1.2,1.8,1.79-2.79,1.1,1.69,2-2.89,1.19,2,1.7-3.28,1,1.19,1.9-1.19.69-1.49-.2a153.62,153.62,0,0,0,6-16Zm6.87,1.39,5.47,1.5,1.1,2-2.59,8.77-7.37-2.19Zm-10.85.8-.5,1.39,1.19.3.5-1.49Zm-1.1,3.29-.5,1.39,1.1.2.5-1.49Zm-1.09,2.89-.5,1.4,1.09.19.5-1.39ZM140.07,150a3.19,3.19,0,0,0-.69.6c.1.3.5.8.4,1.19,0,.2-.3.5-.7.9-1,1.2-1.39,1.1-.8-.2a4.48,4.48,0,0,0,.3-.79,9.71,9.71,0,0,0-.6,1.09,9.73,9.73,0,0,1-.69,1.3,4.55,4.55,0,0,1,1.49,1s.2-.59.4-1.09a2,2,0,0,1,1.09-1.4,4.68,4.68,0,0,0,.6-.5,10.8,10.8,0,0,1-.8-2.09Zm-52.76.3-.6,1.5,1.1.29.6-1.59Zm-62.22,3.89c-.1,6.08.1,10.07-.1,16.54L41.32,192l-2.59.89s0,.3-.2.3c-3.48,1-9.16,1.9-9.16,1.9,4.18,9.67,7,21.73,5.08,33.79l42.31-.1Zm89.4,10.26L113,166c-21.51-11.66-51.08-11.66-72.78,2.49l-1.79-1.29c23.69-15.26,52.76-15.16,76.06-2.7Zm-88.6-8.17,49.77,71.77-5.87.1-43.9-57.62Zm106.82,1.3s-1.4.4-2.69.79c-3.48,1.1-5.08,3.09-4.78,5.89.1.79.3.79,1.69-.1,3.29-2.1,3.49-2.2,7.57-3.39a2,2,0,0,1,.8,0l-.2,3.29c-6.87,0-6.47,5.48-4.48,8.27-.7,1.3-2.19,5.88,2.78,7.67a6.29,6.29,0,0,0,5-1.59c4.58,2.19,9.86-1.5,5.78-7.78,1.59-2.79.49-4.78-1-6.57a23,23,0,0,1,2.39.39,20.92,20.92,0,0,0,4.58.5c0-3-2.49-4.28-7.57-4.68C139,160.69,132.71,157.6,132.71,157.6Zm-55.16.3h.7l-.2,5.08-5.57.3-.4-5.09c2-.1,3.78-.29,5.47-.29Zm6.67.19,6,.7-.9,4.69-5.47-.6Zm48.39,0c.5.1.3.6-.3.8-1.1.2-3.78,1.8-3.78,2.2s.1.19,1.09-.3c.5-.3,1.59-.7,2.29-1s1.69-.7,2-.8c.9-.4,1.4-.1,1.1.7-.2.5-.3.6-2.49,1.3a10.25,10.25,0,0,0-3.49,1.59,15.22,15.22,0,0,1-1.79,1c-1.29.69-1.49.69-1.49-.2-.1-2.59,2.79-4.59,6.77-5.19-.1-.1.1-.1.1-.1Zm-51.57.6a1.42,1.42,0,0,1,1.39,1.4,1.39,1.39,0,1,1-1.39-1.4Zm-14.83.4.39,4.59-5.47,1.39-1.3-4.78c2.19-.5,4.28-.8,6.38-1.2Zm70.38.3c1.49.2,1.39,3.69.6,4.29-1.2.89-1.89-.9-1.4-3.29.2-.7.5-.9.8-1Zm-67.3.2a1.43,1.43,0,0,1,1.4,1.4,1.36,1.36,0,0,1-1.4,1.39A1.43,1.43,0,0,1,67.9,161,1.49,1.49,0,0,1,69.29,159.59Zm26.78.4,6.17,1.69-1.49,4.79L95,164.87Zm-3.38.1a1.43,1.43,0,0,1,1.39,1.39,1.4,1.4,0,1,1-1.39-1.39Zm50.47.4c2.69,0,6.17,1.39,6.17,3.39-.1.59-5.57-.2-8.16-1.2-.9-.4-2-1.49-2-1.89s.5-.3.79,0,1.6.89,4.58,1.59c2.29.6,2.49.6,2.49.2s-1.29-.7-2.78-1c-.7-.1-1.4-.3-2.49-.4-.5,0-.6-.29-.2-.59.4,0,1-.1,1.59-.1Zm-4.68,1.09c.7.3.9.9,1.3,1.3a4.57,4.57,0,0,1-1.4.5,5.74,5.74,0,0,1,.1-1.8Zm-80.84.4a1.43,1.43,0,0,1,1.4,1.4,1.4,1.4,0,1,1-1.4-1.4Zm-3.68.4,1.49,4.69-5.17,2.29-1.89-4.69A33.57,33.57,0,0,1,54,162.38Zm24.19.7h5.58l-.3,5.28H78.25Zm-5.57.3.3,5.28-5,.7-1-5.28Zm31.56.1a1.43,1.43,0,0,1,1.39,1.39,1.36,1.36,0,0,1-1.39,1.4,1.43,1.43,0,0,1-1.4-1.4A1.5,1.5,0,0,1,104.14,163.48Zm36.13.1c3.09,0,6,3.49,3,7.17,5,3.79-.4,10.17-4.78,6.48-6.27,6.18-9.75-2.19-7.17-4.38-3.78-6.28.9-10.27,5.68-7.48A3.87,3.87,0,0,1,140.27,163.58Zm-50.87.1,5.48,1.19-1.1,5.19L88.41,169Zm18.12.2,5,2.49-3.88,3.79-2.89-1.4Zm-32.16.59a1.43,1.43,0,0,1,1.4,1.4,1.37,1.37,0,0,1-1.4,1.4,1.4,1.4,0,0,1,0-2.8Zm10.86.1a1.43,1.43,0,0,1,1.39,1.4,1.36,1.36,0,0,1-1.39,1.4,1.4,1.4,0,0,1,0-2.8Zm-25,.8,1.19,5.18-5.07,1.7-1.8-5.08Zm3.48.4a1.43,1.43,0,0,1,1.4,1.4,1.36,1.36,0,0,1-1.4,1.39,1.43,1.43,0,0,1-1.39-1.39A1.5,1.5,0,0,1,64.71,165.77Zm75.17,2.39c-.4.5-.9,1-.9,1a3.38,3.38,0,0,0-3.29.3s-.89-.7-1.69-1.3c-1.39-1.09-1.79-1.39-1.79-.89a6.7,6.7,0,0,0,1,1.09,9.63,9.63,0,0,1,1.89,1.8,3.28,3.28,0,0,0,.3,3.19s0,.1-.5.69c-1,1.1-2,2.69-1.79,2.89s1.09-.39,2.19-1.79c.69-1,1-1,1-1,1.3.3,2,.7,3.19-.4a3.62,3.62,0,0,1,1.39.9c1.49,1.2,2,1.5,2.19,1.1s-.1-.6-1.29-1.5c-.8-.6-1.7-1.39-1.7-1.39a2.91,2.91,0,0,0-.49-3.09s0,.1,1.39-1.7c.9-1.19,1.1-1.29.8-1.59-.4-.6-1.7,1.49-1.89,1.69Zm-39.13-1.49,5,2.09-1.79,5.18-4.78-2Zm-54.46.3a1.42,1.42,0,0,1,1.4,1.39,1.37,1.37,0,0,1-1.4,1.4,1.43,1.43,0,0,1-1.39-1.4A1.49,1.49,0,0,1,46.29,167Zm50.68.2a1.42,1.42,0,0,1,1.39,1.39A1.36,1.36,0,0,1,97,170a1.43,1.43,0,0,1-1.4-1.4A1.36,1.36,0,0,1,97,167.17Zm-54.16.29,1.59,4-3.68-2.79Zm40.62,1.1,4.88.6-.8,4.68-4.28-.39Zm-5.38,0-.1,4.89-4.68.19-.39-4.88Zm-24.09.9a1.42,1.42,0,0,1,1.39,1.39,1.39,1.39,0,1,1-2.78,0A1.49,1.49,0,0,1,54,169.46Zm-3.68.1,1.89,4.88-3,1.4-4-3.79Zm17.62,0,.79,4.58-4.87,1.2-1.2-4.69Zm69.79.1a1.9,1.9,0,0,1,0,3.79,2,2,0,0,1-1.9-1.9A1.83,1.83,0,0,1,137.69,169.66Zm-57.15.1a1.42,1.42,0,0,1,1.39,1.39,1.36,1.36,0,0,1-1.39,1.4,1.42,1.42,0,0,1-1.39-1.4A1.36,1.36,0,0,1,80.54,169.76Zm13.24.5L99,172l-1.79,4.19-4.48-1.2Zm-23,.2a1.42,1.42,0,0,1,1.39,1.39,1.36,1.36,0,0,1-1.39,1.4,1.43,1.43,0,0,1-1.4-1.4A1.36,1.36,0,0,1,70.79,170.46ZM90.6,171a1.43,1.43,0,0,1,1.39,1.4A1.4,1.4,0,1,1,90.6,171Zm-33.06,1.6,1.8,4.19-4.88,2.09-2.09-4.19Zm3.39.3a1.42,1.42,0,0,1,1.39,1.39,1.36,1.36,0,0,1-1.39,1.4,1.42,1.42,0,0,1-1.39-1.4A1.48,1.48,0,0,1,60.93,172.85ZM79.05,174a55.66,55.66,0,0,1,21.1,4.09l-1.69,1.6c-18.91-6.48-31.26-3.59-43.9,2l-1.3-1.6A58,58,0,0,1,79.05,174Zm21.3.1a1.43,1.43,0,0,1,1.4,1.4,1.4,1.4,0,0,1-2.79,0A1.43,1.43,0,0,1,100.35,174.14ZM51.17,177c1.1.1,1.2,2.1.7,1.5l-1.19-1.4A3.7,3.7,0,0,1,51.17,177Zm50.48.9c0,1.5-1.5,11.86-6.37,18.94a55.46,55.46,0,0,0-2.1-10.76s5.28-4.89,8.47-8.18ZM38.93,193.58l25.48,34.49H61.73a18.06,18.06,0,0,0-3-7.08A11.52,11.52,0,0,0,54,217.21c-1.39-.6-1.59-.5-1.69-1.6-.4-6.08-5.28-9.87-9.06-11.26a14,14,0,0,0-6.07-10.27Zm-2.49.8c2.29,1.59,4.88,3,6.27,9.37.1,1.29.2,1.19,1.2,1.59,4.08,1.2,7.56,6.08,8,10.37,0,1.3.4,1.4,2,2.09a12,12,0,0,1,5.08,4.29,15.63,15.63,0,0,1,2.19,6h-1.4c-1-6.28-5-8.87-9.15-10.07.29-8.87-6.57-11.66-9-12.16.1-6.38-4-9.07-6.67-11.26.49-.1,1.49-.2,1.49-.2Zm-4.08.9c2.09.69,3.68,3.58,3.48,5,2.79.3,5.68,3,5,5.78a.68.68,0,0,1-.8-.2c.7-5.38-7.26-2.69-4.08,1.2l-1.39.9a75.58,75.58,0,0,0-4.08-12.37C31,195.48,32.36,195.28,32.36,195.28Zm6.57,11.26a1.3,1.3,0,1,1-1.3,1.3A1.32,1.32,0,0,1,38.93,206.54Zm7,5.88a5.6,5.6,0,0,1,4,5.08h-.7c-1.09-5-6.67-2.29-4.38,1.7-3,1.1-2.79,3.89-1.89,5a3.19,3.19,0,0,0,5.28-.89c2.88,3.78,7-.5,3.38-4,2.89,1.09,3.39,5,2.89,6.18a5.86,5.86,0,0,1,2.69,2.59H35.34s1.1-8.77-.1-15.45c1.5.4,2.39.7,4.09-1.3,2.68,2.2,4.68.6,4.48-1.39a3.41,3.41,0,0,0-2.09-2.69c2.58-.5,4.28,3.59,4.18,5.18Zm2.39,6.18a1.3,1.3,0,1,1-1.3,1.3A1.32,1.32,0,0,1,48.29,218.6Z"/><path id="path7198-0" class="cls-3" d="M14.54,56.32a41.61,41.61,0,0,0-5.78-8,42,42,0,0,0,5.78-8,41.94,41.94,0,0,0,5.77,8A38.67,38.67,0,0,0,14.54,56.32Z"/><path id="path7202-9" class="cls-3" d="M164.27,209.33a42,42,0,0,0-5.78-8,42.43,42.43,0,0,0,5.78-8,41.94,41.94,0,0,0,5.77,8A38.67,38.67,0,0,0,164.27,209.33Z"/><path id="path7204-2" class="cls-3" d="M48.39,64.89C44.3,58,39.92,51.44,34.45,45.76c5.47-5.69,9.75-12.27,13.94-19.14,4.08,6.87,8.46,13.45,13.93,19.14C56.85,51.34,52.47,58,48.39,64.89Z"/><path id="path7222-2" class="cls-3" d="M130.42,223.09c-4.08-6.88-8.46-13.46-13.94-19.14,5.48-5.68,9.76-12.26,13.94-19.14,4.08,6.88,8.46,13.46,13.94,19.14C138.88,209.63,134.6,216.31,130.42,223.09Z"/><path id="path37-2-1-6-5" class="cls-3" d="M8.76,29.11H6.57v-3H8.76s0-1.6.1-4.49c.1-6.08.3-7,2.09-8.67,3.49-3.29,9.26-.6,9.16,4.39-.1,7,0,13.65-.2,14.65-.39,1.69-.39,1.79-.3,2.09.3.6,2.89.9,2.89.7v3A5.28,5.28,0,0,1,18,36.58a6.61,6.61,0,0,1-6.47.8c-1.79-.9-3.19-3.19-2.79-8.27Zm7.37,5.28c-1.1-1.59-2.89-3.69-4.68-4.48-.1,1.79,0,3.29.7,4.18a2.66,2.66,0,0,0,4,.3ZM17,17.05c-.8-2.3-2.89-3.09-4.38-1.6-1,.9-1.1,1.8-1.1,7v4.49c3,1,5.68,4.38,5.68,4.38l.09-9.47A25.38,25.38,0,0,0,17,17.05Z"/><path id="path37-3-27-1-5" class="cls-3" d="M170,220.49h2.19v3H170s0,1.59-.1,4.48c-.1,6.08-.3,7-2.09,8.67-3.48,3.29-9.26.6-9.16-4.38.1-7,0-13.66.2-14.66.4-1.69.4-1.79.3-2.09-.3-.6-2.89-.9-2.89-.7v-3a5.28,5.28,0,0,1,4.48,1.2,6.61,6.61,0,0,1,6.47-.8c1.79,1,3.19,3.19,2.79,8.27Zm-7.47-5.18c1.1,1.6,2.89,3.69,4.68,4.49.1-1.8,0-3.29-.69-4.19a2.54,2.54,0,0,0-4-.3Zm-.89,17.25c.79,2.29,2.88,3.09,4.38,1.59,1-.9,1.09-1.79,1.09-7v-4.48c-3-1-5.67-4.39-5.67-4.39l-.1,9.47a35.13,35.13,0,0,0,.3,4.79Z"/></g></g></g></svg>