<svg xmlns="http://www.w3.org/2000/svg" viewBox="0 0 178.8 249.6"><defs><style>.cls-1{fill:#fff;stroke:#000;stroke-width:1px;}.cls-2{fill:#d40000;}.cls-3{fill:#131f67;}.cls-4{fill:#e2cf00;}</style></defs><title>Qh</title><g id="Layer_2" data-name="Layer 2"><g id="svg11376"><g id="Qh"><path id="rect10414-2-6" class="cls-1" d="M9,.5H169.8A8.49,8.49,0,0,1,178.3,9V240.6a8.49,8.49,0,0,1-8.5,8.5H9a8.49,8.49,0,0,1-8.5-8.5V9A8.49,8.49,0,0,1,9,.5Z"/><path id="path10446-4-8" class="cls-2" d="M14.2,56.3s-1.8-2.5-4.2-5.5c-1.6-2-2.9-4.2-3-6-.1-2.1,1.2-4.3,3.5-4.4s3.3,1.6,3.7,3.1c.4-1.4,1.3-3.2,3.7-3.1s3.6,2.2,3.5,4.4c-.1,1.9-1.4,4-3,6-2.4,2.9-4.2,5.5-4.2,5.5Z"/><path id="path10448-8-7" class="cls-2" d="M164.6,193.3s-1.8,2.5-4.2,5.5c-1.6,2-2.9,4.2-3,6-.1,2.1,1.2,4.3,3.5,4.4s3.3-1.6,3.7-3.1c.4,1.4,1.3,3.2,3.7,3.1s3.6-2.2,3.5-4.4c-.1-1.9-1.4-4-3-6A58.35,58.35,0,0,1,164.6,193.3Z"/><path id="path37-2-5-5-0" class="cls-2" d="M8.4,29.1H6.2v-3H8.4s0-1.6.1-4.5c.1-6.1.3-7,2-8.7,3.5-3.3,9.3-.6,9.2,4.4-.1,7,0,13.7-.2,14.6-.4,1.7-.4,1.8-.3,2.1.3.6,2.9.9,2.9.7v3a5,5,0,0,1-4.4-1.2,6.62,6.62,0,0,1-6.5.8c-1.8-.9-3.2-3.1-2.8-8.2Zm7.4,5.2c-1.1-1.6-2.9-3.7-4.6-4.5-.1,1.8,0,3.3.7,4.1a2.4,2.4,0,0,0,3.9.4ZM16.7,17c-.8-2.3-2.9-3.1-4.4-1.6-.9.9-1.1,1.8-1.1,6.9v4.5c3,1,5.7,4.4,5.7,4.4l.1-9.5a24.23,24.23,0,0,0-.3-4.7Z"/><path id="path37-3-27-3-0-9" class="cls-2" d="M170.4,220.5h2.2v3h-2.2s0,1.6-.1,4.5c-.1,6.1-.3,7-2,8.7-3.5,3.3-9.3.6-9.2-4.4.1-7,0-13.7.2-14.6.4-1.7.4-1.8.3-2.1-.3-.6-2.9-.9-2.9-.7v-3a5,5,0,0,1,4.4,1.2,6.62,6.62,0,0,1,6.5-.8c1.7.9,3.1,3.1,2.8,8.2Zm-7.5-5.3c1.1,1.6,2.9,3.7,4.6,4.5.1-1.8,0-3.3-.7-4.1a2.5,2.5,0,0,0-3.9-.4Zm-.9,17.4c.8,2.3,2.9,3.1,4.4,1.6.9-.9,1.1-1.8,1.1-6.9v-4.5c-3-1-5.7-4.4-5.7-4.4l-.1,9.5a37.08,37.08,0,0,0,.3,4.7Z"/><path id="path3054-4-0-3" class="cls-3" d="M154.7,19.5H24.1V230H154.7Zm-16.1,1.7h14v81.2s-1.2,0-1.1-.6A4.42,4.42,0,0,0,151,99c-.2-.3-.6-.6-.7-.9a5.06,5.06,0,0,0-1.4-1.7c-.2-.1-.5-.2-.5-.3a6.53,6.53,0,0,0-.2-1.1c-.3-1.2-.5-1.1.3-2.3,2.5-4,3.5-7.7,3.2-11.4a16.15,16.15,0,0,0-.5-2.8c-2.5,2.5-4.2,5.6-5.9,7.8-.4-3.2-.3-5.7-.4-8.3a3.81,3.81,0,0,0,2.7-2.9s1.4,1.1,2.3,1l-.6-2.1c3.8-1.2,4.3-6.1-.2-7.2l.4-2.6s-1.3.5-1.9.7c-.3.1-.4,0-.6-.4-2.1-3.3-5.3-2.6-6.7.6l-1.7-.7a8.31,8.31,0,0,1,.3,2.7c-3.6,1.6-2.7,6.1.2,6.7l-.3,2.1,2.2-.7a3.43,3.43,0,0,0,1.9,2.7c0,4.4-.1,7.1,0,11a17.93,17.93,0,0,0-8.3-5.2,20.16,20.16,0,0,0,.2,2.4c.1.5.1.4-.2.4-.5,0-2.8-3.7-2.8-3.7a.78.78,0,0,0-.5.2c-.3.3.3.8,1.2,2.1,1,1.5.9,1.4.1,2.1-4.5,3.9-11.1,18.6-10,20-2.9.2-14,5.7-16,17a7.69,7.69,0,0,1-.4,1.2l-3.2-.8c1.9-9.3,6.3-28.2,6.3-28.2a39.21,39.21,0,0,1,4.9-1.1v-.7l-4.2,1,.2-1.6,4-.8v-.4l-4.2.6.7-2.7s-9.5,1.4-12.9,1.3c.2,10.5-.6,19.2-.2,30.5l-4.7-2.8c-.4-7.9-.5-27.7-.5-27.7L79.5,90l.4,3.1c-10.7-4.3-21.3-8.2-29.2-16.5,4.8-3.7,12.9-7.5,12.9-7.5l-.3-.6C43.4,78.8,36.2,86,26.2,94.9V21.3H80l-.2,13.5a4.71,4.71,0,0,1-.2.5c-.7,3.2,1.2,9,.9,11.8a11.83,11.83,0,0,1,.1,2.5,40.85,40.85,0,0,0-6.4,13.9,16.67,16.67,0,0,1-2,.8L72,65a48.24,48.24,0,0,1,4.9-1.9c16.1,7.9,27.9,6,40.5.1-2,7.1,2.4,16.2,9.6,18.1a7.62,7.62,0,0,0,3,.2c.8-.2-1.8-6.3-3-6.5-3.5-1.5-4.9-5.1-4.5-9.2l-.6-1c-1.2,5,1.7,10,5.6,11.2l1.1,2.3c-7.1-2.1-10.1-8.8-7.8-15.5,0-4.1-2.6-6-3.8-7.7-6.2-2.4-7.3-8.1-6.2-12.8,2.9,1.2-1.9-4.1-1.9-4.1-2.1,4.6-3,10.5,1.8,16.4A41.36,41.36,0,0,1,99,64.9c-6.6,3.5-11.6,1.1-14.7-6.6a35.84,35.84,0,0,1-2.6-14c0-3,0-3.1,1.2-2.6a6.43,6.43,0,0,0,4.7-.2c1.8-1,1.8-.4-.3,1.7-.5.6-1.1,1.1-1.1,1.2,0,.6.9.1,2.1-1.1.4-.4.8-.9.9-.9s.1.6,0,1.2a19.77,19.77,0,0,0-.5,2.2c-.2,1-.5,2.1-.6,2.6-.5,1.7-.4,2.5,1.2,3.3a11.2,11.2,0,0,1,2.3,1.8,5.89,5.89,0,0,1-.2-2.1c.2-.6.9-.2,1.6.2,1.6.8,2.5.8,3.4.1a2.37,2.37,0,0,0-.6-3.8c-1.1-.4-1.3,0-.2.7,1.6,1.1-.2,2.9-1.6,1.8-1.1-.8-2.9-.9-3.1-.2s-.4.5-1.1.1c-1.2-.7-1.2-.8-.2-4.5,1.8-7.1,1.6-9.7-.8-11.8a6.6,6.6,0,0,0-7.8-.6V31c4.5-1.8,7.8-4.9,10.4-9.9h.5c2.6,5.7,6.9,9.9,14.9,13,3.1,3.1-4-8.9-1.7-4a19.73,19.73,0,0,1-10.1-9h1.2a21.14,21.14,0,0,0,8.1,7.3c1.9,0-2.8-5.8-3.5-7.3h36.9c-1.2,9-2.8,18.7,3.7,36.3-3-1.6-15.2,1.8-13.1,2.5,1.1-1.3,8.8-3.1,14.6-1.7-.8-.3-9.1-19.7-4.3-37Zm3.9,37.1ZM114.1,93.2v1.4l.3-.1-.2-1.4Zm-33.3-72h1.6A4.21,4.21,0,0,1,80.7,23Zm2.8,0h1.7a13.23,13.23,0,0,1-4.5,4.6V24.1a25.43,25.43,0,0,0,2.8-2.9Zm2.8,0H88c-2.2,3.4-4.4,5.7-7.3,7.2V27A24.21,24.21,0,0,0,86.4,21.2Zm2.5,0h1.3a18.65,18.65,0,0,1-9.4,9v-1A20,20,0,0,0,88.9,21.2Zm3.5,0H94a21.82,21.82,0,0,0,11.5,10.2l.7,1.7c-6.4-2.3-10.7-5.7-13.8-11.9Zm4.6,0h1.1a17.17,17.17,0,0,0,4.3,4.2l1,2A19.86,19.86,0,0,1,97,21.2Zm2,0h1.2l1.6,2.9c-1-.6-1.8-1.9-2.8-2.9ZM97.6,32.4a7,7,0,0,0-4.4,1.4c-1.2,1-.3,2,1.4,1.2,2.9-1.4,6.3-.7,9.9,1.2,3,1.7,2-.1-.9-1.9A12,12,0,0,0,97.6,32.4ZM83.8,34.6c2.4,0,5.3,1.1,5.3,2.6-1.6-1.4-4.9-2-8-.6-.2-.1-.3-.9-.1-1.2A4.23,4.23,0,0,1,83.8,34.6Zm14.9,1c-1.5,0-3,.4-3.6,1.3-.3.4-.4.5-.8.4-.7-.1-.7.3.1,1.4a1.54,1.54,0,0,1-.2,1.9c-.6.9-.5.9,1.3,1.8,1.4.7,2.5,1.7,3.8,2.5.9.5,1.1.1.3-.6-.3-.2-1.1-.8-1.9-1.3-1.3-.8-2.2-1.7-1.2-1.3a4.51,4.51,0,0,0,1.1.3,8.23,8.23,0,0,0,3.8.2,7.78,7.78,0,0,0,2.7-1.4c.2-.1.4,0,1,0,2,.1,1.6-.5-1.3-2.1s-5.2-1.9-7-1c-.8.4-1.2.5-1.1.2a1.54,1.54,0,0,1,.7-.7c3-1.8,5.4-.3,8,1,1.1.7,1.4.9,1.6.6s-1.3-1.3-3.2-2.3a10.13,10.13,0,0,0-4.1-.9Zm-9.6,2.1c.5.2.3.8-.2.6-2.8-1.2-3.3-1.9-6.6-.7-1.1.4-1.5,0-.2-.5C85,35.8,87.1,36.6,89.1,37.7Zm-1.9,1.4c-.7,3.8-4.5,2.6-4.1,0h.7c.1,2.3,2.4,2.3,2.7,0Zm22,0,1,2.2c-2.2,5.5.8,13,7.4,14.8,0,0,1.1,1.6.9,1.9C106.1,55.2,107.1,43.3,109.2,39.1Zm-11.7.2h.3c1.1,2.7,2.6,1.1,2.9,0h.8c-.2,2.8-4.3,3.3-4,0Zm-9.5.1c.5-.1.7.7.5.8,0,0-1,.9-1.1.4-.1-.8.4-1.2.6-1.2Zm-5.8,0h.1a1.44,1.44,0,0,1,.3,1.3c-.2.2-.9-.1-1.1-.4s.1-.9.7-.9Zm20.1.3c.2,0,.9.3.8.6,0,.1-1,.8-1.2.7-.4-.2.2-1.2.4-1.3Zm-5.5.1h0a.69.69,0,0,1,.2,1.1s-.7-.2-.7-.3C96.2,40.2,96.7,39.8,96.8,39.8Zm15,4.9c-.2,3.2.7,6.3,4.1,8.2l-.7-1.4a6.41,6.41,0,0,1-2.5-5.1Zm-31,5.6.4,2.1a49.25,49.25,0,0,0-4.5,9.9l-1.8.7A39.3,39.3,0,0,1,80.8,50.3Zm.8,3.3.5,1.8a27.76,27.76,0,0,0-2.5,6l-2,.7A28.83,28.83,0,0,1,81.6,53.6Zm6.3.7h0a13.46,13.46,0,0,0,0,3c0,.3.3.2,1.2-.3.7-.4.7-.4,1.4-.2a5,5,0,0,0,3.6.2,2.45,2.45,0,0,1,2.3.2,4.91,4.91,0,0,0,1,.4c.5.2.3,0,0-1.5-.4-1.7-.2-1.8-.9-1.4a5.94,5.94,0,0,1-.8.4c-.6.1-1.5-.6-2.1-.4a3.2,3.2,0,0,1-2.7.1c-.6-.2-1.3.2-1.8.3S88.3,54.3,87.9,54.3Zm23.5.9c2.3,2.2,4.7,2.9,7.3,3.7-.3,1.1-.9,2.3-1.2,3.7-13.5,7.2-27.2,7-40,.4l6.7-2.6c3.6,6.3,8.3,8,13.6,6A36.63,36.63,0,0,0,111.4,55.2Zm-29,1.3.6,1.6-.9,2.3-1.6.7A12.17,12.17,0,0,1,82.4,56.5Zm12.3,1.8a14.26,14.26,0,0,1-2.4.3,8.09,8.09,0,0,0-1.6,0c-.6.1.1.4,1.5.8s3-.2,3.2-.8c-.1-.2-.2-.4-.7-.3ZM83.4,59l.4.8-.6.2Zm36,.5,1,2.3c-1.8,3.8-2.9,14.3,8.8,17.5l.5,1.5c-8,.2-15.9-10-10.3-21.3Zm-26.8.8a5.38,5.38,0,0,0-3.1.9c-.7.6.2.9,1.1.5a5,5,0,0,1,4.3.2c.9.6,1.3.5.7-.4a3.51,3.51,0,0,0-3-1.2Zm51.1,2.6c3.1-.1,3.4,4.4,2.8,4.7a3.71,3.71,0,0,1,1.4-.2c2.2.1,3.4,1.3,3.5,3.1s-1.2,2.8-3.3,2.7c-.7,0-1.3-.1-1.2,0,.4,1.5-.1,3.7-2,4.2-.2.1-.5.4-.5.5-.1,2.3.5,10.3.5,10.3s3.6-6.1,4.4-7c1.6-2.2,2.2-2,1.9,1.6-.4,5-1.1,6.2-4,10.4-1.3,1.8-4.2.9-4,2.1a3.31,3.31,0,0,0,1,1.2,1.67,1.67,0,0,0,1.4.5c1.3,0,1.8-.3,1,.8-.6.9-2.7,1.1-3,1.5-.6,1.1-.2.8-1.1,1.8-.7.8-.5.4-.1,1,.5.8.3,2.5-.2,3.7a4.35,4.35,0,0,0-.4,1.6,5.44,5.44,0,0,0,1.5-2.7c.3-1.2.6-1.9.6-1.2,0,.9.1,2.1.9,2.5.6.4.7.7.6,1.2s.4.9.9,1.2c.1.1.5.3.4.5-.1.8.2,1.7.7,1.8.2.1,1.8,0,2.1-.9,0-.3,0-1.5-.6-1.5-.4-.2-.4-.3.3-.7a8.69,8.69,0,0,1,2.2-1.1,2.54,2.54,0,0,0,1.3-.8l.1,48a139.56,139.56,0,0,1-21,18.2,103.72,103.72,0,0,0-16.2-11.6l-2-1.2.7-.9-3.5-4.6,3.9-3.2,1,1.3-1.8,1.8,2.8,3.1,6.2-6.1-4.1-3.9,2.1-4,1.4.7-1,2.6,3.1,2,3.9-7.8-4.9-2.3,1.3-5.2,1.5.2-.5,3.8,3.9.8,1.6-8.9-5.7-1,.5-5.1h1.6l-.2,2.8,4,.6.8-7.8-5.5-.9.7-6,1.3.2-.2,3.7,4.1.7a76.74,76.74,0,0,1,1.5-8.1l-5.2-2,1.9-5,1.2.4-1,2.7,3.9,1.7,3.3-6.5-4.6-3.2a19.84,19.84,0,0,1,3.5-4.7l.9.8a8.73,8.73,0,0,0-.8,1c-.6.9-.8,1.3-.7,1.5a22.59,22.59,0,0,0,3.1,2.3,8,8,0,0,0,1.7-1.4c.5-.6.8-.7,1.3-.3.1.1.3.2.4.4s.2.3.2.4v.2a1.09,1.09,0,0,1,.4-.2c.4-.2-.7-1.2-1.7-1.7-2.7-1.6-6-4.5-6.7-8.1-.3-1.6,3.9.3,6.9,3.3.4.4,2.1,2,2.1,2-.2-4.2-.6-8.5-.4-12.8l-.6-.4a3.51,3.51,0,0,1-1.3-2.7c-.1-.7.6-1.1-.8-1-2.9,0-4.6-2.7-2.8-5.1.6-.9,3.3-1.3,3.3-1.3-1.5-3.4.6-4.9,2.1-5Zm2.8,4.7ZM50.1,76.8c8.1,6.9,13.2,11.5,29.7,16.6l.4,2.5c-9.5-2.2-19.8-6.7-32.1-17.7Zm-2.5,1.5A85.66,85.66,0,0,0,63.3,89.9L65.2,91l-1,1,3.1,4.5-4,3.3-1-1,2.1-2.1-3-3-6.1,6.2,4.2,3.7-2.4,3.7-.9-.4,1.3-2.6-3.9-2.1-4.3,8,5.5,2.5-1.2,4.9-1.3-.1.4-3.9-4.1-.7-1.4,9,5.3.8-.1,5.2H51l.1-2.9-4.2-.2-.4,7.6,5.2.7-.5,6.1-1.3-.3.1-4-4-.4L44.6,143l5.3,1.5L48,149.8l-1.2-.6.8-2.7c-1-.4-3.7-1.6-3.7-1.6l-3.5,6.6,4.5,3.1-2.8,4.9-1.1-.7,1.9-2.9-3.8-2.4L37,156.4c-.9-.8-2.5-1.9-3.2-2.6a1.92,1.92,0,0,0-2-.5c-.7.2-1.3.3-1.2,0,.1-.1,1.4-1,3.3-2.2.5-.3,1-.7,1-1a1.27,1.27,0,0,1,.7-.8c.4-.3.3-.5.3-.8a8.88,8.88,0,0,1,.6-5.3c.5-1,.6-1.2.3-1.2-1,.1-2.1,3.6-2.3,4.6a4.44,4.44,0,0,1-.2-1.3c-.1-.6-.2-1-.7-1.2s-.4-.4-.5-.9a1.92,1.92,0,0,0-1.1-1.5c-.6-.3-.7-.4-.6-1a2.6,2.6,0,0,0-.9-1.6l-2.1.8a1.72,1.72,0,0,0,.4,1.6c1.1,1-.5,1-1.6,1.7-.3.2-.6.6-.9.5-.7-.2-.6,1.8-1.3,1.6l.2-48.8c5.9-5.8,22.4-18.2,22.4-18.2ZM133.3,87l.8.9a53.53,53.53,0,0,0-6.4,9.4,40,40,0,0,0-4,12.1c-.6,2.9-.7,5.8-1.1,8.7-.4,3.2-.5,7.4-1.1,10.8-1.1,9.2-3.7,14-9.2,19.2-2.4,2.3-10,6.6-10.2,6.6l-1.8-.4c15.6-8,19.5-13.6,21.1-32.5.4-24,11.2-33.2,11.9-34.8Zm1.5,1.6.8.8-4.5,6.5,4.5,3.2-1.8,4.2-1.4-.5,1-2.8-3.8-1.6-3,8.3,5.4,1.7-.9,5.4-1.1-.3v-3.7l-4-.8-1.2,9.3,5.9.8-.4,4.8-1.4-.1-.1-2.8-4.1-.2-.9,8,5.8,1-1,5.7-1.2-.3.3-3.8-3.9-.5-2.2,7.7,4.9,2.5-2.4,4.9-1-.7,1.3-2.9-3.8-1.9-3.7,6.4,4,3.9-3.9,4.1-.9-1.1,2-2.2-3-3-6.2,5,3.2,4.2-.4.5-3.3-1.3-1.6-2.1-1.9.8-1.5-.6c9.2-4.8,15.1-10.5,17.6-18.9,1.4-4.7,1.8-9.8,2.2-14.9.2-2.7.5-5.4.8-8a43.37,43.37,0,0,1,2.8-12.1,49.39,49.39,0,0,1,8-12.6ZM85.4,91.8l6.3,3.3-.1,2.2-5.8-2.9Zm1.8,0,4.5.6v1.8Zm-20.3.1,2.6,1.2,2.2,2.6,1.7-1.1,1.8.7c-5.7,3-10.8,6.5-14.7,12.6-4.4,6.8-4.9,15.7-5.4,24.3-.9,11.8-3,20.2-10.8,29.8l-1.2-.7,4.2-6.8-4.8-3.1,2.2-4,1.1.4-.8,2.4,3.9,2.1,3-8.5-5.6-1.7.9-5.3,1.4.1-.4,3.8,4,.6,1.1-9-5.3-.8.1-4.8,1.3.1v2.9l4.2.2.3-8.2-5.2-.6.6-5.8,1.5.2-.3,3.5,4,.6,1.9-7.5-5.2-2.4,2.8-5.1,1.3.6L54,108l3.6,1.8,3.8-5.9L57.3,100l4-4.2,1,1-2.2,2.5,3,2.8,5.9-5-2.9-4.4Zm37.8.3-.2,2.1-6.3,3.6V95.8Zm33.9,0,1.4.9-1,1.2-1.2-.8Zm-36.6.3-3.8,2.2V92.5Zm44.6,2.1a.68.68,0,0,1,.4,1.3c-.6.4-2.1.4-2.2,0-.2-.6,1-1.3,1.8-1.3Zm-60.4.9,5.4,2.9v2.1l-5.2-2.9Zm17.7,0-.3,2.7-5.6,3V98.9Zm-27,.1,2.2.6c-8.2,3.7-16.4,9.1-19.6,18.4a40.75,40.75,0,0,0-2.1,9.9c-.2,4.2-.7,8.4-.9,11.9-.4,7.2-2.7,16.8-10.8,27.1l-.8-.6A45,45,0,0,0,54,145.3c2.5-9.4,1.3-19.7,4-29.2a31.45,31.45,0,0,1,10.1-15.3,53.64,53.64,0,0,1,8.8-5.2Zm3.7.8h0c2,6.8,4.5,19.2,4.5,19.2C79.8,113,71,113.5,71,113.5s-5-6.4-5.9-7c4-5.5,14.7-10.1,15.5-10.1Zm68.1,1c1.2,0,1.1,1.8-.4,3.1-.8.6-1.2.6-1.7,0a1.78,1.78,0,0,0-1-.4c-.9,0,.8-1.8,2.4-2.5a1.85,1.85,0,0,1,.7-.2ZM86.9,98.9l4.8,2.5v2.1l-4.5-2.4Zm16.4.3-.3,2.3-5,2.6V102Zm47.1.9c.2,0,.3,0,.4.2.7.8-.6,3.1-2.1,3.8a1.08,1.08,0,0,1-1.4-.2c-.2-.2-.6-.5-.8-.4-.8.1-.4-.9.3-.9a11.16,11.16,0,0,0,2.3-1.7c.7-.6,1.1-.8,1.3-.8Zm-5.1.9c1.1,0,1.5.9.2,1.3-.9.3-1.4.1-1.4-.5a1.06,1.06,0,0,1,1.2-.8Zm-57.8,1.2,4.3,2.2v2.2l-3.9-2.1Zm15.4.3-.3,2.1L98,107v-1.7Zm48.5.9c.3,0,.4.3.4.9a2.47,2.47,0,0,1-1.6,2.3c-.7.3-1.2.3-1.5-.1a.91.91,0,0,0-.5-.3c-1.5-.1-1.3-.4.2-1a21.16,21.16,0,0,0,2-1.2c.4-.5.7-.6,1-.6Zm-5.5.7c.7,0,1.4.5,1,.9a2.1,2.1,0,0,1-1.7.2C144.7,104.6,145.1,104.1,145.9,104.1Zm-57.7,1.5,3.7,2v2.1l-3.5-2Zm14.1.1-.1,2.2L98,110v-2.1Zm45.2.9c.7.1.6.7,0,1.1a.9.9,0,0,1-1.2-.2C145.8,106.5,147,106.6,147.5,106.6Zm1.4,2.2c.1.2.1.7-.2.8s-1.1,0-1.2-.2-.1-.3.1-.5S148.7,108.4,148.9,108.8Zm-60.1.1,3.1,1.7v2.1L89,111Zm13,0-.2,2L98,112.7v-1.9Zm-38.1,1.3c.8,0,1.4.5.9,1.4-.3.6-.5.8-1.7,1.6a10.27,10.27,0,0,1-1,.7,5.92,5.92,0,0,1-.6.4c-1.1.8-.7-.8.7-3.2A2.09,2.09,0,0,1,63.7,110.2Zm37.8,1.8-.3,2.2-3.3,1.7v-2.1Zm-12.2.2,2.6,1.3v2.1l-2.4-1.3Zm31.6.1c.1,0,.2,0,.2.1a3.84,3.84,0,0,1,0,2.4c-.4.9-1.1-1.3-1-1.9a2.41,2.41,0,0,1,.8-.6Zm-55.3.4c1.1,0,1.8.7,1.5,1.8s-2.8,1.7-3.9,2.4c-.7.4-.9,0-.7-.6.1-.3.2-.5-.4-.6-1.3-.2-.5-.8,1.9-2.5a3.32,3.32,0,0,1,1.6-.5Zm52.7.7a1.88,1.88,0,0,1,1.3.7c.8.9,1.4,2.8,1,3.3-.3,0-.5.5-.5.7-.1.6-1.1-.5-2.2-2.2-.8-1.4-.4-2.5.4-2.5Zm-44.3.3c3.2,0,9.4.7,18,6.1,1.1.7,2.2,1.4,3.4,2.1a29,29,0,0,0,10.1,3.7l-.1,2.2c0,.7,1.1,4.7.6,6.9-.8,0,.7.7.7.7l1,2a52.33,52.33,0,0,1-7.5-.5c-3.8-.6-10.6-3.8-14-6.4A35.48,35.48,0,0,0,73.1,125l-.1-1.9s-.4-6.4-.8-7.3l-.8-2a12.9,12.9,0,0,0,2.6-.1Zm27.1,1.5-.3,2.2-2.9,1.3v-1.8Zm14.2.1c.8,0,2,.9,3.4,2.8a2.84,2.84,0,0,1,.6,1c0,.2-.1.4-.3.3-.5-.1-.7-.3-.9.4,0,.2.1.5-.1.4-1-.3-3.7-3.1-3.6-4q.15-.9.9-.9Zm-25.4.1,2.1,1.1.1,2.1-1.8-.8Zm-22.4.6a1.13,1.13,0,0,1,1.2.7c.5,1.2-.4,1.9-2.9,2.5-2.2.5-2.2.6-1.9-.3.2-.6-.5-.6-.9-.8-.7-.2-.1-.3,1.8-1.3A21.88,21.88,0,0,1,67.5,116Zm-7.4.6c.1,0,.1.1.2.2a8.68,8.68,0,0,1-1.7,12.6c-.5.3-.5,0-.4-.6l.1-1.2c0-.2,4.7-3.1,1.2-9.6l.3-.9c.1-.3.2-.5.3-.5Zm53.1,1.2c1.3,0,4.9,3.3,3.3,3.4-.2,0-.1.2-.1.4v.5c-.1.3-.5.2-1.2-.2a19.66,19.66,0,0,1-2.6-1.8c-1.1-1-.8-2.3.6-2.3Zm-12.7.6v1.8l-2.6,1.3v-1.6ZM68,119.7c1.7-.1,2.7,1.7,1,2.6-.7.4-3,.1-4,0-1.2-.1-.5-.5-.4-.6.2-.3.3-.3-.3-.7s-.8-.7.5-.8a20.24,20.24,0,0,0,2.6-.4C67.5,119.7,67.7,119.7,68,119.7Zm52.5.4c.1,0,.1.2.1.8l-.1,1.2c-.8.1-4.7,5-1.5,10.7l-.3,1c-.1.5-.2.6-.6.3-2.4-1.7-3.1-10.1,1.8-13.6C120.2,120.2,120.4,120.1,120.5,120.1Zm-9.2,1a4.12,4.12,0,0,1,1.7.4c1.5.7,2.5,1.2,2.7,1.6.1.2-.1.4-.4.5s-.4.3-.3.7.1.5-.3.5a8.53,8.53,0,0,1-3.2-1.1C109.3,122.6,109.6,121.1,111.3,121.1Zm-11.3,0v2.2l-2.1-1ZM64.7,123a3.44,3.44,0,0,1,.9.1,9.15,9.15,0,0,0,1.6.1c2.4,0,3.4,1.6,1.4,2.5-.5.2-.8.2-2.2-.2-.7-.2-1.6-.4-1.9-.5-.7-.2-1-.4-.5-.6a.53.53,0,0,0,.2-.9c-.1-.4,0-.5.5-.5Zm55.8,0c-.3,3.3-.6,5.9-1.1,9.2C119,132,116.4,125.9,120.5,123Zm-10.1,1.6a10.82,10.82,0,0,1,3.4.8c1.1.4,1.3.5.5.9-.5.2-.4.4-.3.7s.6.7,0,.6a17.22,17.22,0,0,1-3.3-.2c-1.8-.3-2.3-2-.8-2.7A.75.75,0,0,1,110.4,124.6Zm-46.5.8a3.26,3.26,0,0,1,1,.3c3.2,1,4.6,2.3,3,3.5-.5.4-1.2.2-2.5-.6a9.38,9.38,0,0,1-2.3-1.5c-.3-.3-.1-.6.3-.6s.5-.2.4-.7C63.7,125.6,63.7,125.4,63.9,125.4Zm8.8.3,2.5.6L69,153.7a22.18,22.18,0,0,0-4.8,1.7l4.3-.7-.4,2-3.9.7-.1.6,4.5-.8s-.2,1.9-.3,2.6c4.3-.3,8.5-1.5,12.8-1.6,0,0,.1-21.6.1-24v-5.6l4.3,2.4.7,27.2,13.5,2.2c-.1-.5-.5-2.6-.5-2.6,10,3,20.1,7.4,29.1,16.4-4.2,2.3-8.1,4.5-12.2,6.7l-.6.9a149.63,149.63,0,0,0,37.2-26v72.3H99V215.4c-.2-3.9.4-8.1-.7-11.4l-.2-3.4c3.3-3.9,5.1-8.8,6.7-13.8l2.4-.9.3-1c-1.5.8-5.1,2.1-5.1,2.1.4-.3-7.6-3.7-12.5-4.5a48.34,48.34,0,0,0-27.7,4.4c-.4.3-.6.3-.5-.1A13.67,13.67,0,0,0,52,169.9a10.78,10.78,0,0,0-2.9-.5l.1.6c12.2,1.4,15,14.3,10.3,20.4-1.2,2-1.4,2.6,1.2,2.5,10.4-.1,14.1,11.6,9.3,18.1a5.94,5.94,0,0,1,.4.8,13,13,0,0,0-1.5-16.7c3.9-4.4,11.3-11.3,17.8-10.9,2.3.1,4.7,3,6.2,5.3,3.3,4.8,4.1,11.6,4.3,15.4.1,1,.2,1.7.2,2.3,0,1.5-.3,1.4-1.3,1.1a8.56,8.56,0,0,0-4.2.1c-2,.6-1.7.3.1-2,1.1-1.3,1.2-1.7.8-1.8-.1,0-.6.4-1.2,1.3-1.8,2.7-1.6,1.6-.4-2.7.8-2.8.7-3-1.5-4.7a17.81,17.81,0,0,1-1.8-1.3c-.4-.9-.6.2-.2,1s-.4,1.1-1.8.3c-3.3-1.8-5.4,1.9-2.5,3.5.7.4,1.1.1.5-.4-1.8-1.7-.5-3.1,1.9-1.6,1.4.9,1.9.6,2.4-.5.3-.4,2.5,1.1,2.4,1.8a22.42,22.42,0,0,1-.5,2.6,41.36,41.36,0,0,0-1.2,4.8c-.6,2.9-.5,4.3.1,5.6a6,6,0,0,0,7.5,3,4.91,4.91,0,0,1,1.2-.3v2.1c-5.7,2.2-9.8,8.9-9.6,9.2h-2a24.13,24.13,0,0,0-13.5-11.7c-1.2-1,.3,2.8,1.6,3.6a20.18,20.18,0,0,1,8.7,8.1H81.5a23.84,23.84,0,0,0-6.2-6.1c-.5-.1.4,4.9,2.4,6.4l-37.1.7c2.5-10,3-21-2.9-35.6A29,29,0,0,0,51,191.2l-.4-1A27.08,27.08,0,0,1,36,192.3c3.8,7.1,7.1,21.8,3.9,36H25.8V150.8a9.82,9.82,0,0,1,1,.7,3.68,3.68,0,0,1,.8,1.5c.2.6.3.6,1.2,1.3a1.49,1.49,0,0,1,.6.7,2.56,2.56,0,0,0,.2,1.1c.7.9.6,1.5.1,2.1-2.6,2.7-4.2,8.5-2.9,14.5,3.1-2.1,6.3-7.6,6.4-7.6l.3,7.5a3.15,3.15,0,0,0-2.2,2.5c-.9.3-1.9-.2-2.8-.4l.6,2.2a3.61,3.61,0,0,0,.3,6.9,24.55,24.55,0,0,1-.6,2.6l2.4-.4c1.4,4.2,6.7,2.8,6.7-.1,0,0,1.6.6,2.2.9l-.6-2.8c6.1-3,1.5-7,.1-7,0-.8.4-1,.7-2l-2.4.2c-.4-1.5-2.1-2.7-2.2-2.5L35.4,162a36.08,36.08,0,0,0,6.1,4.6c2.3,1.2,2.5.9,2.2-1.1a4.32,4.32,0,0,1-.1-1.5c.8.2,3,3,2.9,4.4.8,1,1.5-1.7-.5-4.1,5.4-5.7,9.5-15.1,10.3-21.5l7.2-2.9.1-.9a21.74,21.74,0,0,0,9.1-13.3Zm5.9,1.7,1.6.7-1.9.9Zm-15.8.4a9.27,9.27,0,0,1,1.5,1c1.4,1,2.2,1.7,2.2,2.4a1.07,1.07,0,0,1-.6.9c-.8.5-1.7.1-3.5-1.8a12.94,12.94,0,0,1-1.2-1.2c-.2-.3-.1-.6.3-.5,1.6.7.3-1.2,1.3-.8Zm50.4.4h.7c.4.1.5.3.3.5a.49.49,0,0,0,.1.9c.3.1.2.4-.2.6a4.65,4.65,0,0,1-.9.3c-2.2.7-3.9.5-4.3-.6s.5-1.8,3.2-1.8a4.48,4.48,0,0,0,1.1.1Zm-32.7.8v1.6l-2.3,1.1.3-1.6Zm-19.8.5c.2,0,.5.3,1,.9,2.2,2.8,2.6,3.3,1.8,4-.9.9-2.1,0-3.4-2.4a9,9,0,0,1-.5-.9c-.5-.6-.3-.7.3-.7.3,0,.5-.1.5-.4s.1-.6.3-.5Zm53.8,1.4c.4,0,.4.1.2.6s-.4.6.2.8c.1,0,.3.3.1.4a25.21,25.21,0,0,1-3.3,1.5c-1.5.5-2.4-.7-1.5-1.9a9.78,9.78,0,0,1,4.1-1.5.31.31,0,0,0,.2.1Zm-55,1.6c1.5,2.2,1.7,3.3.7,3.9-.6.5-1.9-.2-2.3-1.7a6.91,6.91,0,0,1,0-3.2c.6-1.3,1.5.7,1.6,1Zm21-1v1.8l-2.8,1.4.3-1.9Zm5.8.1,2.7,1.7.2,1.5-2.8-1.5Zm29.7,1.7c.1,0,.1,0,.1.1s-.1.9.3,1c.8.1.6.4-.1,1a10.59,10.59,0,0,1-2.3,1.9c-2.3.9-3-1.6-.8-2.9.8-.4,1.4-.7,1.9-.9A6.37,6.37,0,0,0,116,133.3Zm-29.7.9,3.1,1.8.1,1.8-3.1-1.6Zm-5.9.2V136l-3,1.7.3-1.8Zm12.4,1.3c.9.4,11.8,3.5,15.4,2.4,0,0,3.1,4.5,5.4,6.1C110,149.5,98,154.6,98,154.6Zm24.7.1c.2,0,.2.2.2.6,0,1.1-1.8,5.1-3.2,3-.4-.8,0-1.6,1.2-2.5,1-.7,1.5-1.1,1.8-1.1Zm-59.6.7c.3.3.1,1.2-.4,1.1-.2,0-.2-.9-.1-1.4C57.5,136.1,57.8,136.4,57.9,136.5Zm22.5.5v2l-3.6,2,.4-2.3Zm5.9.3,3.5,1.9.4,2.2-3.9-2ZM80.4,140v2.1l-4,2.1.3-2Zm6,.2,4,2.3.5,2.1-4.4-2.3Zm-56.1.1a.61.61,0,0,1,.4,1.1,1.21,1.21,0,0,1-1.3,0C28.9,141,29.5,140.3,30.3,140.3Zm1.2,2.1h.3a.82.82,0,0,1,.5,1.2c-.5.7-1.9.2-1.7-.7C30.5,142.7,31.1,142.5,31.5,142.4Zm48.8.7v1.8l-4.4,2.3.3-2.1Zm6.2.3,4.5,2.4.3,2.1-4.8-2.5Zm-57.2,0c.2,0,.4,0,.5.2s.2.5.5.7c.6.3.6.4-.5.9a7.12,7.12,0,0,0-1.7,1.1c-1,.7-1.4.4-1.5-.3,0-1,1.8-2.5,2.7-2.6Zm3.4,1.5a1.27,1.27,0,0,1,.6.1.57.57,0,0,1,0,1c-.8.5-2.1-.2-1.4-.8a6.89,6.89,0,0,1,.8-.3Zm47.6,1v2.4l-4.9,2.6.3-2.4Zm-50,.3a1.61,1.61,0,0,1,.9.3,1,1,0,0,0,.8.5c.8,0,.6.3-.3.7a10.83,10.83,0,0,0-2.9,2.1c-.9.8-1,1-1.3.7-1.1-1.3,1.1-4.2,2.8-4.3Zm56.3,0,5.1,2.8.4,2.4-5.5-3.1Zm-52.9,1.7a.73.73,0,0,1,.6.2c.4.3.2.9-.3,1.1a1.43,1.43,0,0,1-1.3-.1c-.7-.4.2-1.2,1-1.2Zm-2.5,1.2c.3,0,.6.4.8.8.1.1.4.1.7.1,1,0,1.1.4.2.9-.3.2-1.2.8-1.8,1.3-1.6,1.5-2.5,1.2-2.3-.4a3.52,3.52,0,0,1,2.4-2.7Zm55.4.2,5.6,3.1.5,2.6-6.2-3.4v-2.3Zm-6.2,0v2.4l-5.3,2.8.4-2.4Zm6.3,3,6.3,3.8.2,2.5-6.5-3.8Zm-6.3.4V155l-5.9,3,.3-2.2Zm-47.7,1.6a.6.6,0,0,1,.4.1c.7.3.5.9-.5,1.4s-1.4.5-1.6-.2S31.9,154.3,32.7,154.3Zm65.9.3c11,2.5,21.7,8,32.2,17.6l-2.2,1.6s-9.1-10.5-29.5-16.7Zm-11.9,1.1,3,1.8v.5l-3.1-.3Zm-51.8,0c.2,0,.4.1,1.5.7,4.4,3.2,6.1,5.1,7.2,8.6.7,2.1.6,2-1.5.9a20.71,20.71,0,0,1-6.5-5.2,102.25,102.25,0,0,0,.3,12.2c2.7,1.4,1.8,4.9,1.8,4.9,7-1.9,5.5,7.4.3,5.4,1.2,7-6.7,6.4-5.9.4-6.3-.2-5.2-7.2,0-6.2a3.57,3.57,0,0,1,2.1-4.5l-.3-9.2s-5.2,7.5-6,7.3c-.5-.1-1.3-.9,0-7.5.7-3.4,4.3-7.6,6.3-7.7a2.25,2.25,0,0,1,.7-.1Zm5,.1.9.6-.9,1.6-1-.7Zm40.4.4v1.4l-2.8.2ZM50.6,172.7c6.7,1,10.8,9.3,7.7,15.3-.4.3.2,1.6.6,1.1,3.3-4.7.8-16.1-8.7-17.2-2-.3-.2.2.4.8Zm1.1,2.1c-.5,1.5-.7,1.8.7,1.2,2.4.9,5.1,4.9,4.2,8.9-.3.5.2-.3.5,1C58.3,183.1,57.1,176.7,51.7,174.8Zm30.9,7.5a38.45,38.45,0,0,1,19,4.6c-1.8,1-7.7,2.5-7.7,2.5-3.3-3.7-5-7.4-10.9-5.5-6.2,1.6-11.8,7-15,10.6-3.2-1.9-4.9-2.4-7.7-2.5-.2,0-.4.7-.2-.4a19.17,19.17,0,0,0,1.9-4.1A42,42,0,0,1,82.6,182.3Zm21.3,4.8a40.19,40.19,0,0,1-6.1,12.7l-.4-1.9a43.87,43.87,0,0,0,4.7-10Zm-2.6,1.1c.2.3-2.7,7.2-4.2,8.5l-.6-1.8a32.9,32.9,0,0,0,2.8-6.1Zm-17.7.1c-.1,0-.1.1-.1.3,0,.6.7,1.1,1.9,1.4,1.6.4,3.9-.2,3.9-1,0-.4-.3-.5-1.2,0a3.87,3.87,0,0,1-3.7-.4c-.5-.2-.7-.4-.8-.3Zm14.5,1.1a13.62,13.62,0,0,1-2,4.2l-.3-.9c.6-1,1-2.1,1.5-3.1Zm-1.7.5a4.6,4.6,0,0,1-1,1.8l-.7-1.4Zm-10.3,1.3c-1.1,0-2.2.4-2.3,1,0,.3.4.2,2.4-.1,1.1-.1,1.6.5,2.6.4.5-.1,0-.5-.1-.7A5.26,5.26,0,0,0,86.1,191.2Zm-4.8,1.3c-.1,0,0,.3.4,1a4.67,4.67,0,0,1,.3,1.7c-.1,1.2,0,1.2.6.5.4-.4,1.1-.3,2.3,0,.8.2.9.3,1.5-.1s.7-.2,1.3-.1a2.7,2.7,0,0,0,1.5-.3,2.23,2.23,0,0,1,1.4,0c.9.4.8.4.8-1.1s0-1.6-.9-1.1a2.74,2.74,0,0,1-2.7.3,3,3,0,0,0-2.6-.1c-1.2.4-1.8.5-2.7-.1a6.22,6.22,0,0,0-1.2-.6Zm-19.6,2.3.5.9c4.9,1.7,8.1,5.7,6.2,12.5l.5.7c2.5-6.8-.3-12.4-7.2-14.1Zm1.5,2.8.7,1.4c3.7,1.8,3.4,6.7,3.2,6.5l.6,1.3c.9-3.2-.8-7.9-4.5-9.2Zm15.3,7.3c-.1,0-.2.1-.3.2s.2.4,1.9,1.6a13.41,13.41,0,0,1,2.5,1.9,4.41,4.41,0,0,1-1.6-.3,7.14,7.14,0,0,0-5.5,1.1,1.81,1.81,0,0,1-1.4-.2,2.48,2.48,0,0,0-.9-.1c-1,.3,0,1.3,2.5,2.6,3.1,1.6,4.8,1.7,6.7.8,1.3-.7,1.7-.2.3.6-2.4,1.3-4.7.9-8.5-1.7-1.8-1.2-2.5-1-1,.1,2.7,2.1,7.8,4.7,10.9,1.5h.5c.7,0,.7-.2,0-1.3-.4-.7-1.2-1.3-.2-2.1.8-.6.7-.9-.2-1.2-.2-.1-.2.1-.6-.2-2.2-1.9-4.3-3.3-5.1-3.3Zm1,3.6a2.51,2.51,0,0,1,2.2,2.1.76.76,0,0,0,.1.4H81c-.7-2.7-2.7-1.8-2.8-.2l-.7-.1c.1-1.5,1-2.2,2-2.2ZM96,210.8l-.5.1c-.3-1-1.9-2.3-2.7.1h-.7c.5-3.3,3.4-2.8,3.9-.2Zm-4.1-1.4c.2.3-.2.8-.4,1.1s-.7,0-.9-.2,0-.7.2-.8c.4-.1.9-.3,1.1-.1Zm-9.3.1c.2.5-.4.9-.5.7-.1,0-.3-.9-.2-.9a1.45,1.45,0,0,1,.7.2Zm14,0a.84.84,0,0,1,.8.6.56.56,0,0,1-.6.5,1,1,0,0,1-.6-1C96.3,209.4,96.4,209.4,96.6,209.5Zm-19.5.1a1.08,1.08,0,0,1-.2.8h-.7a1.23,1.23,0,0,1,.1-.8c.2-.1.6-.2.8,0Zm13,1.8a.37.37,0,0,1,.3.1c2,1.3,4.6,1.9,6.4,1,.4-.2.7-.2.7,0s-.5.7-1.3.9c-1.9.6-5.1-.2-6.2-1.4-.2-.3-.2-.6.1-.6Zm-17.6,1.3c-.2,0-.3.1-.2.3.1.8,5.5,3.9,7.7,4.3a6.24,6.24,0,0,0,4.4-.5c2.7-1.6,2-3.8-.6-2.1-1.8,1.1-6.3.6-9.1-1a8.26,8.26,0,0,0-2.2-1Zm24.2,1.2c.7-.3,1-.4,1.1-.3.7.6-.4,1.5-2.5,1.8a4.77,4.77,0,0,1-4.5-1.1c-1.5-1.1-.8-1.6.1-1.1a5.89,5.89,0,0,0,5.8.7ZM73,217.2c4.7,1.7,10.1,5.8,12.5,10.8H84a22.22,22.22,0,0,0-10.1-9,4.35,4.35,0,0,1-.9-1.8Zm24.9,2.4v1.6a17.65,17.65,0,0,0-7.2,6.9H89a19.36,19.36,0,0,1,8.9-8.5Zm0,2.4v1.9a13,13,0,0,0-4.5,4.2h-2a15.26,15.26,0,0,1,6.5-6.1Zm-21.7,1.5a14.78,14.78,0,0,1,4.6,4.7H80a28.32,28.32,0,0,0-3-3,5,5,0,0,1-.8-1.7Zm21.7,1.2h0v1.6a11.6,11.6,0,0,0-2,1.8H94.3a9,9,0,0,1,3.6-3.4Zm0,2.5v.9h-1a4.67,4.67,0,0,1,1-.9Zm-19.5.2a1.79,1.79,0,0,1,.5.7h-.3Z"/><path id="path3052-2-5-5" class="cls-4" d="M37.9,193.7c3.3.1,10.2-1.1,10.1-1s21.6,36.1,20.7,35.7c-.3.4-27.6.4-27.6.4C40.5,228.8,46.9,215.4,37.9,193.7Zm9.8-25.5c10.5-8.8,21.5-8.8,33.3-10l.3-29.8,4.3,2.6.1,27.3a67.78,67.78,0,0,1,40.6,17c.1.2-16.7,9.3-24.1,11.7-5.7-4.2-20.9-6.9-30.9-3.7-2.8.9-6.1,2.3-9.4,3.4,2.4-14.4-8.8-16.5-12.7-17.2C48.6,169.5,48,168.4,47.7,168.2Zm-13.5,4.7a72.58,72.58,0,0,0-.2-9.3c-.1-.7-6.1,9.3-6.5,6.9-.9-6.1,2.2-13.9,6.9-14.8.5-.6,9.8,5.2,9.4,10.2-.1,1.6-8.3-5.5-8.4-5.1-.2.8.2,12.1.5,12.1,2.4,1.3,1.8,3.1,2.1,4.5,6.3-.9,6,6.1,0,5.9.4,8.4-7.3,4.6-5.8.1-7.8-.4-3.9-7.7-.1-6.1-.3-1.8.2-3.7,2.1-4.4Zm8.9-35.5c-.4-.2-16.6-1-16.6-1l.8-39.5c8.2-19,39.2-10.1,34.3-6.1C46.8,100.6,44.6,118.4,43.1,137.4Zm29.7-16.2-.5-4.4c-1.3-2.7,32.9,13.2,33.3,13.5l1,4.7C106.9,137.1,84.9,126.7,72.8,121.2Zm62.3-7.8c-2.6,19.7-2.4,39.5-16.9,46.4,10.9,10.6,20,2.4,33.7-4.4.4,0-.5-42.2-.7-42.1C145.8,113.5,140.4,113.6,135.1,113.4Zm7.5-19.2c-2.7-.4-9-7-7.7-8.9,0-1.5,7.8,4.2,8.6,5.7-.4-.5-.5-13.9-.6-13.4-.3.2-2.4-1.3-1.8-4.1-6,1.3-5.6-6.5-.4-6.1-.7-7.1,7.9-4.5,5.6.3,7.4-1.4,6.1,6.9.5,5.6.5,3.2-.8,4-2.6,4.7.1,1.3.6,10.1.6,10.1s5.4-8.4,5.8-7.7c1.5,1.9-.7,15.8-8,13.8Zm-25.2-31c-2.5,8.5,4.3,18.2,10.6,18.2,1.3-.2,3.7.5,2.9,1.2-10,8.2-33.4,9.9-33.4,9.5.2,10-.2,20.2-.4,30.2l-4.3-2.6c-.1-9.1-.4-18.5-.6-27.7-15-2-28.4-6.8-39.1-17.2,7.1-5.3,15.5-8.6,23.6-11.9,10.3,5.5,24.5,8.5,40.7.3Zm-7.3-40.4c-.5-.2,1.6-1.8,1.6-1.8s17.4.2,26,.1c-3.1,13-.9,24.6,3.1,35.8-1.1-.3-8.2.3-10,1.1C130.6,58.4,110.3,23.1,110.1,22.8Z"/><path id="path3050-3-4-7" class="cls-2" d="M69.3,228.3l-21-35.8,3.2-1.4,21.7,37.2ZM31.8,180.5l3-3.1,3,3.1-3.2,3Zm67.6-20.1-.4-2.6a66,66,0,0,1,29.2,16.1l-1.7,1.3c.5-.1-17.3-13.5-27.1-14.8Zm-34.9-2.3,3.5-.7-.1,2.1-3.4.7Zm70.6-1.9-2.1-1.7,1.5-1.8,2,1.6ZM63.9,138.9c5.2-2.5,9.3-12.5,8.8-13.2l2.8.7-6.6,27.4-4.5,1C64.4,149.6,63.9,144.1,63.9,138.9Zm34.3,15.5c-1.8-5.8-5.2-18.8-5.2-18.8.1.4,11.3,3.6,15.3,2.5a56.41,56.41,0,0,0,5.5,6.3A49.86,49.86,0,0,1,98.2,154.4Zm46.8-21-2-1.7,1.8-2.2,2.2,1.7Zm-25.7-1.2c-1.6-2.9-1.7-6.2,1.3-9.4Zm-61.2-5a30,30,0,0,1,1-8.5C60.9,121.9,60.9,125,58.1,127.2Zm45-2.7s4.3-20.2,6.2-28.1l4.8-1.1-.2,16.3c-4.8,3.9-8.1,13.2-7.9,13.2Zm-69.5-3.4-2.1-2,1.8-1.9,1.8,1.9ZM71,113.3a66.31,66.31,0,0,0-5.7-6.8c3.6-5,9.4-7.9,15.7-10.1l4.2,19c-4.8-1.5-9.9-3.1-14.2-2.1ZM41.7,96.4l1.5-1.8,1.9,1.5-1.5,2Zm69.2-5.6,3-.7.1,2.3-3.6.7ZM50.6,76.4,52.9,75A67.42,67.42,0,0,0,79.3,90l.3,2.7c-10.8-3.4-20.7-8.1-29-16.3Zm93.2-2.9-3-2.9,2.7-3,3.2,2.7A21.35,21.35,0,0,1,143.8,73.5ZM127.5,59.2l-22.1-38h3.2l21.8,36.6Z"/><path id="path3048-5-8-9" d="M105.2,20.6H99.9l30,60.7a7.36,7.36,0,0,1-2.4-.3c-7.2-1.9-11.6-9.6-10-17.1a3.86,3.86,0,0,0,.2-1.1c-18.6,8.5-30.1,5.3-40.8,0l-4.6,1.8c.3-2.8,3.7-13.2,8.8-18.1V41.2L81,38.7l-.4-4.5C73,41.4,64.1,52.7,63,68.9c0,0-6.9,3.6-12.8,7.5.3,0,9.2,10.9,30.5,17.1L79.8,90A97,97,0,0,0,92,92.2l.6,27.5,5.1,3,.2-30.4A72.94,72.94,0,0,0,110.3,91l-.6,2.9,4.2-.8v2.1l-4.6,1.1-6.6,28.5,3.9.9c1.1-5.7,4-10.4,8.1-13.2v-1.1c2.6-1.9,8.1-3.4,8.2-3.4,1.9-9.2,6.2-15.6,10.9-21.7l-2.2-3,8.5-3.1L128.3,60c4.5-3.1,13.5-2,13.5-2-3.8-10.5-7.2-21.2-3.4-37.1H105.7Zm10.7.7c0,2.6-3.4,2.4-3.9,0Zm21-.1c-2.1,12.1-1.4,23.9,3.4,35.2h-.8c-.1,0,.1-.6,0-.8-.1-.4-.8-.2-1.4.2-.3.2-.5.4-.7.5a17.22,17.22,0,0,1-3.6.3c1-.7,2.4-2.6,1.6-3.7-.2-.2-.3-.1-.5.2-.9,1.5-1.3,1.8-2.4,1.8-1.8,0-3.1-1.1-3-2.8s2.6-2.5,2.2-.9c-.1,1.4,1.3,1.7,1.6.3.1-.5,0-.3.1-.9,2.8-1.5,1.3-4.6-1.4-3.9-.6.2-.7.2-1.1,0-.8-.4-1.5-.3-1.8.3s.1.9.7.9.7.3.7.7c0,.9-1.5,1.3-2.5.8-2.6-1.3-1.7-4.9,1.4-4.8.9,0,1.3.1,1.4-.1.1-.6-1.3-1.5-2.1-1.4s-1.1.3-.7-.6a3.73,3.73,0,0,0,0-2.1c-.5-1-.5-.5-.8.3-1,1.7-2.5,2-3.8,1.1a2.25,2.25,0,0,1,0-3.6c.8-.8,1.7-.3,1.2.6a.63.63,0,0,0,.3.9c.7.2,1.2-.2,1.2-1.1,0-.5-.1-.6.7-1.1a2.11,2.11,0,0,0-2-3.7c-.6.2-.7.5-.9.4-1.1-1-2.6.3-1.7.9a3.26,3.26,0,0,0,1,.3c.2.1.1.4-.2.8-1,1.2-3.4.6-4-1.1-.7-2,1.4-4.2,3-3,.5.4.9.4.9-.1a2,2,0,0,0-2.3-1.6c-1.3.1-1.2.3-.5-.9a2.58,2.58,0,0,0,0-2.7c-.4-.5-.7-.6-.7-.1a2.23,2.23,0,0,1-3,2.4,2.82,2.82,0,0,1-1.5-3.7c.7-1.3,2.2-1.4,2,0-.1.9.5,1.4,1.2.8a1.08,1.08,0,0,0,.3-.9c0-.6-.2-.8.2-1.2,1.1-.1,1.1-2.4,1-2.5l17.3-.4Zm-19.2.1c.7,0,1.2.2,1.2.9a1.2,1.2,0,0,1-2.4,0C116.5,21.6,117,21.3,117.7,21.3Zm-12.1,0h2.7l21.6,36.3-2.6,1.3Zm4.5,1.3a8.5,8.5,0,0,0,4.2,1.5,9.19,9.19,0,0,0-1,3.9Zm4.4,7.3c1.3.5,2.5,1.2,4.7.5a8.23,8.23,0,0,0-2.3,3.6Zm11.3,4.4a1.1,1.1,0,1,1-1.1,1.1A1.11,1.11,0,0,1,125.8,34.3Zm-7,2.9a6.55,6.55,0,0,0,3.1.5,6.18,6.18,0,0,0-.8,3.3Zm3.3,5.7a6.24,6.24,0,0,0,3.8.9,6.31,6.31,0,0,0-1.1,3.6Zm10.8,4.2a1.2,1.2,0,1,1-1.2,1.2A1.22,1.22,0,0,1,132.9,47.1Zm-6.7,2.7a4.93,4.93,0,0,0,2.4.6,7,7,0,0,0-.5,2.6ZM130,56a7.14,7.14,0,0,0,3.2.7,21.72,21.72,0,0,0-2.4.7Zm13.7,6.8c-2.8.2-3.4,2.3-3.1,4.5a3.55,3.55,0,0,0-3.9,4.2c.6,2.4,2.8,2.4,4.3,2.3a3.88,3.88,0,0,0,1.9,4.1l.3,12.3s-1-.9-1.7-1.6c-2.9-2.9-7.3-5-7-3.4a11.48,11.48,0,0,0,.2,1.4c.5,2.8,4.2,5.8,6.7,7.3a10.67,10.67,0,0,1,1.5,1c-4.7,5.1-7.3,10.5-7.9,15.9-.6,5-1.1,9.5-1.5,14.1-1.9,23-11.8,28.8-12.2,30l-.2,3.1-2.7-.2-3.2,2.8c10.4,5.4,16.4,11.9,16.3,12a157.74,157.74,0,0,0,22.1-17.8l-.1-51.3a6.37,6.37,0,0,1-.7.2c-.5,0-.6.2-.8,1.2a5.91,5.91,0,0,1-.6,1.4c-.5.7-.3.3.3.6,1.3.5-.4,3-2.3,3.3-1.4.2-2.1.5-2.3.8-2.9,2.5-5.7,2.9-7.9,2a4.41,4.41,0,0,1-2.6-2.2c-.9-2.5,1-6.1,2-8.2a26.79,26.79,0,0,1,5.3-6.7l-.5-.6h.8c2.8-1,3-1.1,3.5-1.8s1.8-2.9,2.1-3.6c1.5-3.8,1.7-4.1,1.7-6.6,0-2-.1-3.4-.5-3.5-2.2,1.7-4.5,5.8-5.8,8.1-.5-3.5-.6-9.7-.6-9.7.5-.5,3.2-.2,2.6-4.6a3.28,3.28,0,0,0,4.8-2.9c-.2-3.6-2.9-3.5-5.1-3,.8-2.5-1.2-5.1-3.2-4.9Zm-.1.3c2.9.1,3.5,3.3,1.7,5.2,0,0-1.2-.9-1.8-1.4a16.61,16.61,0,0,1-1.4,1.3,3.17,3.17,0,0,1-1.2-2.5,2.79,2.79,0,0,1,2.7-2.6Zm-66.7.1c11.8,6.7,26.6,7.1,40.2.3l-.2,1.1-1.5.8.8,1.6.5-.2v1c-11.2,6.1-29.9,7.3-44.6-2.8l1.3-.6.6.4a12.81,12.81,0,0,0,2,1.1l.9-1.3s-1.4-.8-1.2-.9l1.2-.5Zm1,2-.7,1.5,1.7.9.6-1.6Zm-6.4.2c18.2,11.5,35.2,8.1,45.3,3.4l.1,1.2c-13.1,5.6-30.4,7.1-46.8-4Zm42.9.7-1.6.7.6,1.5,1.7-.7Zm-45.1.3C84.1,76,100,77.9,117.1,70.8l.7,1.8c-16.7,6.7-34.2,6-50.3-5.5Zm11.4.1L80,68.1l1.8.7.5-1.6Zm31.1.6-1.6.5.5,1.5,1.7-.6Zm-28.3.5-.4,1.6,1.9.5.3-1.6Zm67.8,2.6c.3,2.8-3.8,4.1-5.3,1.5l1.3-1.6L146.1,69a2.78,2.78,0,0,1,5.2,1.2ZM67.1,67.7l4.4,3.1-3.2,5-4.8-3.2Zm76.4.1,2.8,2.4-2.6,3-2.6-2.7Zm-1.7.8-1.6,1.8,1.7,1.8a2.79,2.79,0,0,1-5-1.8c0-1.9,3.1-3.9,4.9-1.8Zm-32.7-.7-1.7.5.4,1.5,1.7-.5Zm-22.7.5L86.1,70l1.9.4.3-1.6Zm20,.3-1.8.4.3,1.6,1.8-.4Zm37.3.3-1.5,1.5,1.5,1.5,1.5-1.5Zm-54.2.1-.2,1.6,2,.3.2-1.6Zm13.7.2-1.8.2.2,1.6,1.9-.2Zm-10.8.2v1.7l1.8.1V69.7Zm7.8.1-1.8.1v1.6l1.8-.1V69.6Zm-32.5.1a2,2,0,0,0-1.9,1.9,1.84,1.84,0,0,0,1.9,1.9,1.9,1.9,0,0,0,1.9-1.9A2,2,0,0,0,67.7,69.7Zm29.6,0H95.5v1.6h1.8V69.7Zm46.4,0,.8.8-.8.8-.8-.8Zm-76,.6a1.24,1.24,0,0,1,1.2,1.3,1.31,1.31,0,0,1-1.2,1.3,1.24,1.24,0,0,1-1.2-1.3A1.18,1.18,0,0,1,67.7,70.3Zm-6.8.1,2.5,2.1a56.58,56.58,0,0,1-3.3,4.8l-4.7-3.8,2.4-1.4a2.39,2.39,0,0,0-.2.9,1.9,1.9,0,0,0,3.8,0,1.94,1.94,0,0,0-1.7-1.9Zm-1.4,1.4a1.3,1.3,0,1,1-1.3,1.3A1.32,1.32,0,0,1,59.5,71.8Zm85.9.5a4.38,4.38,0,0,1,.9.5,2.81,2.81,0,0,1-2.3,4.5,2.66,2.66,0,0,1-1.5-4.8l1.5,1.4Zm-69,.9,5.2,2-2,5.7-5.7-2.4Zm-21.5.6a63,63,0,0,0,73.7,7.9h1.3l.7.7c-25.1,14.9-56.3,11.7-77.3-7.5ZM113.7,75l1.7,5.7-5.8,1.5-1.3-5.7Zm-61,.2A63.25,63.25,0,0,0,79.1,90.1l.3,2.3C68,88.9,59.4,84.3,51,76.3Zm25.1,0a1.9,1.9,0,0,0-1.9,1.9A1.84,1.84,0,0,0,77.8,79a1.9,1.9,0,1,0,0-3.8Zm-9.3.5,5.4,2.9L71.2,84l-5.7-3.1Zm9.3.2a1.3,1.3,0,1,1-1.3,1.3A1.32,1.32,0,0,1,77.8,75.9Zm8.9.7,5.2.8-.2,5.8-6-.7A44.12,44.12,0,0,1,86.7,76.6Zm25,.2a1.9,1.9,0,0,0,0,3.8,1.9,1.9,0,0,0,0-3.8Zm0,.6a1.3,1.3,0,1,1-1.3,1.3A1.4,1.4,0,0,1,111.7,77.4Zm-42.1.1a1.9,1.9,0,1,0,1.9,1.9A2,2,0,0,0,69.6,77.5Zm33.1,0,.7,5.8-5.7.3-.3-5.8Zm40.6.5h.8c.1,5,.5,10.8,1,15.1a5.1,5.1,0,0,1,.1.9c-.6,1-1.2-.3-1.5-3.1-.1-.8-.2-1.9-.3-2.7-.2-2.2-.1-10.2-.1-10.2Zm-95.7.1C39.1,83.4,24.9,96.2,25,96.5l.1,49.1,1.1.1.9-1.8c-1.4-.4-1-3,1.7-3.6a11.26,11.26,0,0,0,2.2-.8c2.1-1.6,5.4-2.5,7.7-1.9,3.4.9,4.1,3.4,2.5,7.8-1.3,3.5-3.9,7.9-6.3,9.2l-.6.3a8.11,8.11,0,0,0,.8.6c6.6-3.9,10-17.7,9.8-26.4.3-8.8,1.8-17.7,5.3-24.2,5.9-10.7,13.6-15,13.6-15S53.4,83.5,47.6,78.1Zm22,0a1.3,1.3,0,1,1-1.3,1.3A1.32,1.32,0,0,1,69.6,78.1Zm51.6.2,2,5.4L117.6,86l-2-5.7ZM89,78.3a1.9,1.9,0,1,0,1.9,1.9A2,2,0,0,0,89,78.3Zm11.4.5a1.9,1.9,0,1,0,1.9,1.9A1.9,1.9,0,0,0,100.4,78.8ZM89,78.9a1.3,1.3,0,1,1-1.3,1.3A1.32,1.32,0,0,1,89,78.9Zm11.4.5a1.3,1.3,0,1,1-1.3,1.3A1.32,1.32,0,0,1,100.4,79.4Zm19,.7a1.9,1.9,0,0,0,0,3.8,1.9,1.9,0,0,0,0-3.8Zm0,.6a1.3,1.3,0,1,1-1.3,1.3A1.32,1.32,0,0,1,119.4,80.7Zm-39.6.1,5.6,1.4-1.3,5.9-6.3-1.7Zm70.9-.2c.9,2.9-.8,6.6-.9,6.8-1,2.9-2.2,5.3-2.7,5.4s-.5.1-.5-.3a60.13,60.13,0,0,1,2.2-6.7,24.62,24.62,0,0,0,.8-2.7c0-.4-.4.3-.9,1.4-.9,2.2-2.2,4.6-2.5,6.8-.2,1.8-.5,1.5-.8-.6-.3-2.9.3-4.4,3.6-8.5.8-.8,1.6-1.8,1.7-1.6Zm-41.2,1.5,1.6,5.8L104.5,89l-1-5.9Zm-27.7.6a1.9,1.9,0,1,0,0,3.8,1.84,1.84,0,0,0,1.9-1.9A1.9,1.9,0,0,0,81.8,82.7Zm9.9.4,6,.3.1,6-6.5-.3Zm-9.9.2a1.3,1.3,0,1,1-1.3,1.3A1.32,1.32,0,0,1,81.8,83.3Zm25.2.6a1.9,1.9,0,0,0-1.9,1.9,1.84,1.84,0,0,0,1.9,1.9,1.9,1.9,0,1,0,0-3.8Zm-12.5.4a1.9,1.9,0,1,0,1.9,1.9A1.9,1.9,0,0,0,94.5,84.3Zm12.4.2a1.3,1.3,0,1,1-1.3,1.3A1.32,1.32,0,0,1,106.9,84.5ZM94.5,85a1.3,1.3,0,1,1-1.3,1.3A1.32,1.32,0,0,1,94.5,85Zm40.9.3h.3c1.3,0,5.9,3.2,7,5.2,1,1.7.5,2.4-.6.9-1.5-1.7-4.3-4.2-4.7-4.2s.1.6,1.9,2.3,3.7,4,3.7,4.4-.4.2-.9-.1a17.64,17.64,0,0,1-2.6-1.9c-.3-.3-.9-.8-1.3-1.2-1.7-1.5-3.5-4.8-3-5.5.1.1.1.1.2.1Zm-83.6.5a2.27,2.27,0,0,1,2.5,2.1c0,1,.1,1,1,1s3.2.3,3.2.3v2.7s-1.1,0-2.5-.1c-2.2-.1-2.2-.1-2.5.9a1.5,1.5,0,0,1-.7.9c-2,1.3-4-1.1-2.7-3.4.4-.8.5-1.1.2-1.5a1.9,1.9,0,0,1,1.5-2.9Zm.4,1.4a1.2,1.2,0,0,0-.8.4,1.9,1.9,0,0,0,0,1.8c.3.5.3.7-.1,1a1.52,1.52,0,0,0,0,2.3c.6.4,1.2-.1,1.2-1s.6-.9.6-.9l4.2.1v-.7L54.2,90a1.68,1.68,0,0,1-1.2-.3.93.93,0,0,1-.4-1.2c.8-.7.3-1.3-.4-1.3Zm-9.1,1.6,2,3.4,2.3.1.2,2.1,2.8,1.8-2.9,1.7-.1,2.1-2.2.3-2,2.6-2-2.6H39V98.2l-3-1.9,3.2-1.8V92l2.3-.2,1.6-3Zm70.6,1.5.1,2.1-3.3.6.4-2.1ZM92.8,92.4l4.4.1-.3,29h-1v-1.1H94.5l-1.4-.9Zm-49.7.7-2.6,3.3,3.1,2.8L46.4,96Zm51,.5v1.3h1.8V93.6ZM43.2,94.7,45,96l-1.4,1.8-1.8-1.5Zm70.6.8-.1,15.9c-6.1,4.8-7.9,13.2-7.9,13.2l-2.5-.1,6.3-28ZM81,95.8c-5.5,2.6-10.9,4.6-16.4,10.8a29.92,29.92,0,0,1,6.3,7.1c4.5-.7,9.5.1,15,2.3Zm13.1.4v1.4h1.8V96.2Zm-61.3,2c.1.4.2.9.2.9,4-.3,3,4.3.4,4.5-.3,0,.2.8.8,1.1a2.77,2.77,0,0,0,3.6-1.1c.8-1,.8-1.2.8-1.2l2.5,1.3s.1,0-.4,1.1c-.8,2.1.4,4.6,1.3,2.8a2.24,2.24,0,0,1,2.8-1.1c1.1.5,1.5,2.5.7,3.8-.2.4-.2.5-.1.8a3.94,3.94,0,0,1,.1,2.4c-.3.6-.7.7-1.3.2a8.17,8.17,0,0,0-3.1-1.4c-2.8-.5-3.4-1.5-4.5-3.9-3.4,1-8.4-1.1-7.7-6.1.3-1.1.4-3.2-.2-3.7-1.1-.9.1-2.1,1.8-2.3,1.4-.2,2,1.1,2.3,1.9Zm47.7-1.5,4.4,18.5c-4.8-1.8-9.5-3.2-13.7-2.1a26.89,26.89,0,0,0-5.7-6.6c4.1-5,9.4-7.8,15-9.8Zm-49.6.9a1.22,1.22,0,0,0-.9.4,1.67,1.67,0,0,1,.5.6c.3.5.3.5,0,1.7-1.3,4.8,1.8,8,6.3,6.6,1.1-.3,1.1-.3,1.4,1,.5,2.2,2,3.3,5,3.7a1.85,1.85,0,0,1,.7.2c1.3.9.8-.3.4-.7l-.7-.7a5.92,5.92,0,0,1,.6-.4c.8-.5,1.2-2.2.5-2.6s-1.7.2-1.7.8c0,1.2-1.5,1.3-2.8.3-1.7-1.3-.2-4.5-.2-4.5l-1-.4c.1.1-2,3.2-4.6,2.1-1.8-.7-3.1-2.9-2.3-3.5.6-.2,1.4.2,1.8-.2.9-.7.2-2-1.2-2a7.75,7.75,0,0,0-.9.1,8.75,8.75,0,0,0,.2-1.6c-.2-.4-.6-.9-1.1-.9ZM94.1,99v1.1h1.8V99Zm0,2.4v1.2h1.8v-1.2Zm0,2.5v1.2h1.8v-1.2Zm0,2.4v1.3h1.8v-1.3Zm0,2.3v1.2h1.8v-1.2Zm0,2.4v1.2h1.8V111ZM34,112.2l1.6,2.6,1.8.1.1,1.8,3.1,2.4-2.7,2-.2,2-2.2.1-1.8,3-2.2-2.6-1.7-.3-.2-2.4-2.7-2,2.5-2,.2-2.1,2.1.2Zm102.3,1.3a.76.76,0,0,1,.5.2,5.71,5.71,0,0,0,2.6.5c2,.1,2.7.3,3.6.9.6.4.6.4,1.3,0,2.8-1.8,5.9-.2,6.2,3.3a5.87,5.87,0,0,0,.5,2c.2.5.5.9.3,1.3-.4,1-2.6,1.1-3.7-.4a.91.91,0,0,0-.7-.3c-.6.2-2.1-1-2-1-.1.8-.2,1.5-.3,2.6H142a19.23,19.23,0,0,1-.2-2.1c-.1-1.9-.6-2.5-1.2-1.4-1,1.8-3.8,1-4-1.1-.1-.7-.1-.8-.5-1.1-1.4-1.3-1-3.4.2-3.4Zm-42.2.1v1.1h1.8v-1.1Zm42.5,1.1c-.5,0-.2,1,.6,1.4.5.3.5.3.4,1.1-.1,1.5,1.3,2.3,2,1a.88.88,0,0,0,.1-.7c-.3-1.1,2.1-.8,2.7.3a5.79,5.79,0,0,1,.3,1.7,11.31,11.31,0,0,1,.1,1.4h.8V120c.2-1.9,1-3.1,2.1-3.1.5,0,.5.1.2.7-.6,1.1,0,1.8,1.3,1.8.8,0,.8,0,1.1.6s.6.9.9.7.2,0-.1-2.2c-.4-3.4-2.4-4.3-5.1-2.4-.8.5-.9.5-1.6-.1-1-1-1.6-1.2-3.6-1.3a8.44,8.44,0,0,1-2.1-.2c.1.2,0,.2-.1.2Zm-63.5,1c-.4,0-.9.1-1.4.1a69,69,0,0,1,.9,7.8c2.3-.4,5.2,0,9,1.8a58.54,58.54,0,0,1,8.3,5.1,29.07,29.07,0,0,0,10.4,4.4c4,.9,7.2.8,7.1.6a39.23,39.23,0,0,1-1.3-7.7,33.25,33.25,0,0,1-14.9-5.3C85.8,118.8,79.6,115.6,73.1,115.7Zm21,.2V117h1.8v-1.1Zm-60.7.2-2.9,3.1,3.2,3,2.7-3.1Zm-.1,1.4,1.7,1.6-1.3,1.7-1.9-1.6Zm41.3.2c.4,0,.8.3,2.1,1,1.1.8,1.9,1.2,1.6,0,.2-.3,1.4.8,2.9,1.5,1.7,1.4,1.7,1,1.9.4s.5-.2,1.9,1.1c1.8,1.7,1.6,1.7,2,1.3.4-.8.5-.8,2,.9s1.8,2.1,2.2,1.3c.5-.4.8,0,2.8,1.9,1,1,1.2.9,1.4.2s.3-.5,2,.8c2,1.6,2.2,1.7,2.3,1.2.1-.9.7-.6,2.8.9,1.2.9,1.7,1.1,2,.9.3-.5-.7-1.4,1.3-.5l.5,2.9-.7-.2c-.4-.1-1.3-.4-1,.5.2.5-.3.5-1.8-.5-2.2-1.3-2.6-1.6-2.8-1.4-.3,1-.3,1.1-1.7-.1-1.7-1.3-2.1-1.7-2.3-1.2,0,1-.5.8-2.1-.6-1.4-1.2-1.7-1.8-2.3-.9-.2.3-.3.2-.6.1a24.57,24.57,0,0,1-2.8-2.8c-.4-.4-.6-.3-.8.1s-.3.2-1.2-.6c-2.1-1.9-2.5-2.4-2.8-2.2-.2.5,0,1.1-1.6-.2-2-1.5-2.9-2.1-2.8-1.2-.3.4-.1.5-2.1-.6s-2.2-1.4-2.5-1c-.2.6-.8.4-.8.3l-.4-3h.7c-.3,0,.4-.3.7-.3Zm-15.5.3c-.2.5-1.2,3.1-1.2,9.8.1.2,2.6-2.4,2.8-4.8A12,12,0,0,0,59.1,118Zm35,.2v1.2h1.8v-1.2Zm-34.9,1c2.4,3.8-.2,7.3-.9,7.5A32.08,32.08,0,0,1,59.2,119.2Zm61.7,3.1c-3.9,2.5-3.2,9.1-1.3,10.8A70.11,70.11,0,0,0,120.9,122.3Zm-.5.8-1,8.5C118,130.2,117.7,125.7,120.4,123.1Zm24.3,1.5,2,2.6,1.8.1.4,1.9,2.6,2.2-2.7,1.8-.2,2.1-2,.2-2,3.1-1.9-3-1.8-.2-.1-2-2.9-2.1,2.7-1.7.1-2.2h2.1Zm-72.3.8c-1.3,6.2-4.4,10.5-8.8,13.3v.6l-7.4,3a46,46,0,0,1-10.6,21.9l1.7,3.5-8.2,2.8,11.8,20.3c.8,0-5.7,3.1-13.6,2.3,5,12.3,6,25,3.2,36.1L79,229,49.6,170.8l-.5-.9c-.4-.8,15.7,2.3,12.2,17.3,0,.3.1.4.3.2,3.1-2.7,23.9-10.2,40.4-.3l4.9-2.1c-2.3,8.3-5,13.9-9.5,18.9l.8,11.7a49.94,49.94,0,0,0,17.7-34.5c3.6-1.8,6.7-3.7,10-5.6l.4.1,2.2-1.3c-6.9-7.6-21-14.9-30.1-16.8l.5,2.6A76.67,76.67,0,0,0,86.3,158l-.6-27.3-5-3-.2,30.2c-3.8,0-12.4,1.5-12.4,1.5l.4-2.6-4,.8-.1-2.5,4.5-1.3,6.5-27.7Zm.6.6,2.1.4-6.4,27.2a35.44,35.44,0,0,1-3.8.9c-.3-5.1-.4-15.5-.4-15.5,6.2-5.4,7.2-9.1,8.5-13Zm-44.1,2a2.22,2.22,0,0,1,2.1,1.3c.2.4.3.6.6.6,1.6.2,1.7.7,1.7,1.6-.2,1.8,1,.3,1.3-1.5v-1.6h2s.1,1.4.1,1.7c.2,1.4.8,2.5,1.2,1.8,1.4-2.5,4.6-1.2,4.1,1.2-.1.6-.1.6.3,1a2.35,2.35,0,0,1,.7,2.1c-.2.6-.7.7-1.6.4a8.9,8.9,0,0,0-2.5-.3c-2.1-.1-2.2-.1-3-.9l-.5-.5-.9.5a4,4,0,0,1-4.3.1c-1-.5-1.6-1.8-1.7-3.7,0-1-.3-1.8-.9-2-.3-.3,0-1,.6-1.6,0-.1.4-.2.7-.2Zm115.7.3-2.7,3.4,3.2,2.9,3-3.6Zm-63.2.5,3.8,2.2.5,27-4.3-.1V128.8Zm-52.4.3c-.3,0-.1.5.1,1.2a4.14,4.14,0,0,1,.2,1.5c-.4,3,3,4.5,5.4,2.4.6-.7.8-.7,1.3.1.7.8,1.6,1.1,3.7,1,.9-.1,1.5.4,1.9.1s0-.8-.6-1.1c-.3-.2-.4-.2-.3-.9.2-1.7-1.3-2.2-2.3-.7-.8,1.2-2.1.4-2.5-1.6-.2-1.5-.4-1.5-.6-.2-.2,1.6-2.3,3.4-3.2,2.6-.2-.2-.2-.2,0-1,.3-1.1.1-1.5-1.1-1.7a.85.85,0,0,1-.5-.3c-.6-1-.5-1.4-1.5-1.4Zm115.8.7,1.7,1.5-1.5,1.8-1.8-1.4Zm-62.2.9v1.2h1.6v-1.3H82.6Zm0,2.6v1.3h1.6v-1.3Zm9.7,1.5c1.8,6.8,3.6,13.5,5.5,20.3,1.7-.7,11.7-5.1,16.4-10.8a30.41,30.41,0,0,1-5.7-6.6c-4.8.8-10.1-.2-16.2-2.9Zm-9.7.8v1.2h1.6v-1.3H82.6Zm10.7.4c4.3,1.3,9.7,3.1,14.8,2.2a22,22,0,0,0,5.3,6.1c-3.8,4.2-9.3,7.4-15,9.8Zm40.6.5a.86.86,0,0,1,.6.3,4.18,4.18,0,0,0,2.6,1,5.38,5.38,0,0,1,4.4,3.6c.2.8.3.8,1.4.5,4.2-1.1,7.4,2.4,6.4,7.1-.3,1.6-.5,1.8,0,2.5,1.1,1.2,1.3,1.2.1,2.2a2.26,2.26,0,0,1-3.6-1.1c-.4-.9-.4-.9-1.1-1a2.38,2.38,0,0,1,0-4.7h.5c.7-.3-.8-2.1-2.1-1.8-1.6.3-2.3,1.3-2.9,2.9l-2.4-1.4c.6-1.3,1.1-2.9.5-3.9-.4-.9-1-.9-1.1-.1a2.44,2.44,0,0,1-4.3.9,2.28,2.28,0,0,1-.3-3.1c.4-.8.4-.9.3-1.2-.8-1.2.1-2.7,1-2.7ZM82.6,138v1.3h1.6V138Zm51.6.2c-.5,0-.5.5,0,1.1.4.4.5.6-.1,1a1.88,1.88,0,0,0-.4,2.4,1.19,1.19,0,0,0,2.2-.8c-.1-.9.6-1.4,1.8-1a3.14,3.14,0,0,1,1.8,4.3c-.1.4-.4,1.2-.4,1.2l.5.3a12.25,12.25,0,0,1,.8-1.2c1.9-2.4,6.5-1.2,6,1.8-.1.9-.1,1.1-1.1.8-.7-.3-1.3.4-1.3,1.3a1.35,1.35,0,0,0,1.7,1.3c.8-.1,1-.1.9.9a1.87,1.87,0,0,0,.8,1.5c1.2.5,1.7-.2.8-1.1a2.11,2.11,0,0,1-.2-2.3,7.12,7.12,0,0,0-.4-4.5c-.9-1.8-3.5-2.6-5.7-1.7-1,.5-1.1.7-1.2-.3a5.07,5.07,0,0,0-4.4-4.2,14.46,14.46,0,0,0-2.1-.8Zm-51.6,2.3v1.2h1.6v-1.2Zm0,2.4v1.3h1.6v-1.3Zm0,2.6v1.3h1.6v-1.3Zm52.7,2.1,1.8,2.6,2,.1.2,2.1,3,1.9-2.6,1.6V158l-2.5.2-2.2,2.9-1.8-2.6h-1.8l-.4-2.3-3.3-1.7,3.4-1.9-.1-2.4h2.3l2-2.6Zm-52.7.3v1.4h1.6v-1.4Zm0,2.5v1.3h1.6v-1.3Zm51.7,1-2.5,3.4,3.4,2.8,2.7-3.4Zm-51.7,1.4v1.5h1.6v-1.5Zm52,.1,1.8,1.4-1.3,1.6-1.7-1.3Zm-52,2.6v1.2h1.6v-1.2Zm-48.1.1c-3.1,0-6.1,5.1-6.8,7.5-.8,3.1-1,8.7-.2,8.8,2.8-2,4.1-5.4,6.2-8,.3,3,.3,8.7.3,8.7a6.9,6.9,0,0,0-1.9,1.7,3.28,3.28,0,0,0-.2,2.9c-1.6-.5-4.4.1-4.5,2.9.1,4.1,4.5,3.5,4.5,3.4s-.9,4.3,3,4.8c1.4.2,3.9-.9,3.1-4.8,2.5.4,4.6-1,4.6-3.3a3.16,3.16,0,0,0-3.3-3.1,11.28,11.28,0,0,0-1.4.2,4,4,0,0,0-2-4.6l-.4-11.8s1,1.1,1.4,1.5a19.2,19.2,0,0,0,5.3,3.8c2.1,1.1,1.9.9,1.5-1.3-1-3.2-3.1-5.7-7.6-8.7a2.27,2.27,0,0,0-1.6-.6Zm.4.3.6,16.6h-.9l-.8-16.6Zm91.6.5h.3a2.14,2.14,0,0,1,1.6,3.4c-.4.4-.5.5-.3.7.9,1.1.4,2.8-.5,3.1-2.7.9-3.1-.6-3.1-2.4l-4.2-.2v-2.5l4.6.1a1.72,1.72,0,0,1,1.6-2.2Zm-93.6.1h0c.5,0,0,1.2-1.2,3a25.85,25.85,0,0,0-2.3,4.2c-.7,1.9-1.3,5.2-.7,4.6.5-1.4.5-2,.9-3a36.92,36.92,0,0,1,3.4-6.1c.4-.4.5-.1.5,1.1,0,2.8-1.3,5.6-4.4,9a12,12,0,0,1-1.2,1.2c-.3,0-.3-.6-.3-1.9,0-5.2,1.9-9.8,4.9-11.8a.54.54,0,0,1,.4-.3Zm3.1.2c1.4.4,3.8,2.6,4.8,3.7,1.2,1.3,2.7,4.8,2.4,5.3-.1.2-.3.2-1-.2-4.3-2.4-7.4-5.5-6.6-6.4.2-.3,1.2.3,2.4,1.4.8.8,1.7,1.5,2.5,2.3,1.2,1.2,1.5,1.4.8,0a19.42,19.42,0,0,0-4.8-4.9c-.8-.6-1.1-1.2-.5-1.2Zm90.7.7h-.2c-.8.4-.5,1.5-.6,2.3l-4.7-.2v.7l4.4.2c.1.7-.3,2.1.3,2.3,1.2.5,1.9-1.1.9-2-.4-.3-.8-.5.3-.9a1.5,1.5,0,0,0,.2-2.2,1.42,1.42,0,0,0-.6-.2Zm-58.9.2-.2,1.7-2.7.7-.1-1.9Zm31.8.6A70.53,70.53,0,0,1,127.9,174l-1.4,1a69.16,69.16,0,0,0-26.4-14.9Zm-17.1.3c16.4,0,31.4,6.4,43.5,16.8l-2,1.3c-11-9.2-23.2-15.3-39.7-16-10.7-.5-23,2.3-35.1,9l-.9-1.6c11.8-6.6,23.3-9.5,34.2-9.5ZM81.2,161l6.5.2-.4,6-5.9-.2Zm-7,.4.9,5.8-5.6,1.1-1.6-5.8Zm20.5.8,6.4,1.7L99,169.8l-5.6-1.6Zm-10.3.1a1.82,1.82,0,0,0-1.8,1.9,1.88,1.88,0,0,0,1.8,1.9,1.9,1.9,0,0,0,0-3.8Zm0,.6a1.16,1.16,0,0,1,1.2,1.2,1.2,1.2,0,1,1-1.2-1.2Zm-12.8,0a1.9,1.9,0,1,0,1.8,1.9A1.76,1.76,0,0,0,71.6,162.9Zm0,.7a1.16,1.16,0,0,1,1.2,1.2,1.22,1.22,0,0,1-1.2,1.2,1.16,1.16,0,0,1-1.2-1.2A1.22,1.22,0,0,1,71.6,163.6Zm25.5.7a1.82,1.82,0,0,0-1.8,1.9,1.88,1.88,0,0,0,1.8,1.9,1.9,1.9,0,0,0,0-3.8Zm-35.8.2,1.9,5.7-5.4,2.2-2-5.6Zm35.8.5a1.16,1.16,0,0,1,1.2,1.2,1.22,1.22,0,0,1-1.2,1.2,1.16,1.16,0,0,1-1.2-1.2A1.1,1.1,0,0,1,97.1,165Zm10.6,1.3,5.8,3.1-3,5.4-5.4-2.8Zm-48.4.5a1.82,1.82,0,0,0-1.8,1.9,1.88,1.88,0,0,0,1.8,1.9,1.82,1.82,0,0,0,1.8-1.9A1.71,1.71,0,0,0,59.3,166.8Zm21.9.2.3,5.7-5.1.4-.9-5.7Zm6.1.3,5.8.8-1.4,5.5-5.3-.9.9-5.4Zm-28,.2a1.16,1.16,0,0,1,1.2,1.2,1.22,1.22,0,0,1-1.2,1.2,1.16,1.16,0,0,1-1.2-1.2A1.22,1.22,0,0,1,59.3,167.5Zm19.2.7a1.82,1.82,0,0,0-1.8,1.9,1.88,1.88,0,0,0,1.8,1.9,1.9,1.9,0,0,0,0-3.8Zm-9.4.2,1.5,5.6L65,175.6l-1.7-5.4Zm20.5.1a1.82,1.82,0,0,0-1.8,1.9,1.88,1.88,0,0,0,1.8,1.9,1.82,1.82,0,0,0,1.8-1.9A1.88,1.88,0,0,0,89.6,168.5Zm-11.1.3a1.16,1.16,0,0,1,1.2,1.2,1.22,1.22,0,0,1-1.2,1.2,1.2,1.2,0,0,1,0-2.4Zm11.1.4a1.16,1.16,0,0,1,1.2,1.2,1.2,1.2,0,1,1-2.4,0A1.1,1.1,0,0,1,89.6,169.2Zm19.7,0a1.82,1.82,0,0,0-1.8,1.9,1.88,1.88,0,0,0,1.8,1.9,1.9,1.9,0,0,0,0-3.8Zm-10,.5,5.6,1.9-2.2,5.3-5.4-2.1Zm10,.1a1.16,1.16,0,0,1,1.2,1.2,1.22,1.22,0,0,1-1.2,1.2,1.16,1.16,0,0,1-1.2-1.2A1.22,1.22,0,0,1,109.3,169.8Zm-42.4.2a1.82,1.82,0,0,0-1.8,1.9,1.88,1.88,0,0,0,1.8,1.9,1.9,1.9,0,0,0,0-3.8Zm0,.7a1.16,1.16,0,0,1,1.2,1.2,1.22,1.22,0,0,1-1.2,1.2,1.2,1.2,0,0,1,0-2.4Zm34.1,1a1.82,1.82,0,0,0-1.8,1.9,1.88,1.88,0,0,0,1.8,1.9,1.82,1.82,0,0,0,1.8-1.9A1.76,1.76,0,0,0,101,171.7Zm0,.7a1.16,1.16,0,0,1,1.2,1.2,1.22,1.22,0,0,1-1.2,1.2,1.16,1.16,0,0,1-1.2-1.2A1.22,1.22,0,0,1,101,172.4ZM35,173a2.82,2.82,0,0,1,2.6,2.8c.1,1.1-1.3,2.4-1.3,2.4l-1.6-1.4-1.5,1.4c-.3.1-1.4-1.9-1.1-2.9A3.26,3.26,0,0,1,35,173Zm83.8,0,4.5,3.7s-2,1.2-2.3,1.4c0-.2.1-.3.1-.5a1.88,1.88,0,0,0-1.8-1.9,1.88,1.88,0,0,0-.4,3.7c-.5.3-1.1.6-1.1.6l-2.4-2Zm-7,9.9-2,.8c-12.2-8-28.8-12.4-47.8-4.3l-.7-1.6C75.4,171.8,93.2,170,111.8,182.9Zm-1.1-8.1,4.8,3-3,4.7-4.7-3Zm-1.5,9.1-2,.8c-14.8-9.6-30.6-9.1-44.8-3.3l-.2-1.3a48.5,48.5,0,0,1,47,3.8Zm10-7.5a1.16,1.16,0,0,1,1.2,1.2,1.2,1.2,0,0,1-2.4,0A1.1,1.1,0,0,1,119.2,176.4Zm-86.3,2.2-1.6,1.7,1.5,1.7s-.5.4-.8.6a2.71,2.71,0,0,1-4-2.5,2.63,2.63,0,0,1,4.9-1.5Zm78.5-1.3a1.9,1.9,0,1,0,1.8,1.9A1.82,1.82,0,0,0,111.4,177.3Zm-71.9.1a2.65,2.65,0,0,1,2.7,2.5,2.8,2.8,0,0,1-1.6,2.7c-1.6,1-3.4-.6-3.4-.7l1.3-1.3L36.9,179C37,178.9,38.1,177.4,39.5,177.4Zm-4.6.3,2.7,2.7-2.9,2.7L32,180.4Zm71.7,7.3-1.5.7-2.1-1.3-.6,1.2,1.2.7-1.2.5c-13.9-7.8-29.5-5.6-39.9-.4l.1-.8,1.1-.6-.4-1.4-.6.2v-1.6a46,46,0,0,1,43.9,2.8Zm4.8-7a1.16,1.16,0,0,1,1.2,1.2,1.22,1.22,0,0,1-1.2,1.2,1.16,1.16,0,0,1-1.2-1.2A1.1,1.1,0,0,1,111.4,178Zm-76.5.9-1.4,1.5,1.4,1.5,1.4-1.5Zm45.4.4-1.9.1.1,1.6h1.9Zm1.3,0v1.6h1.7v-1.5l-1.7-.1Zm3,0-.1,1.6,1.7.1.1-1.5Zm-7.4.2-1.9.2.2,1.6,1.8-.2Zm10.6,0-.1,1.6,1.8.2.2-1.5Zm-52.9,0,.8.9-.8.8-.9-.9Zm39,.5-1.9.3.2,1.6,1.8-.4ZM91,180l-.3,1.5,1.7.4.3-1.5Zm-20.1.7-1.6.4.3,1.6,1.7-.4Zm23.1,0-.3,1.5,1.8.5.4-1.5Zm-25.7.8-1.6.6.4,1.5,1.7-.6Zm28.7.1-.5,1.5,1.5.6.7-1.3Zm-31.5.9-1.6.6.6,1.4,1.5-.7Zm-32.2,0,1.6,1.6,1.9-1.7c1.6,1.5,1.6,4.9-1.3,5.5-2.6.5-4.9-3.4-2.2-5.4Zm66.6.3-.6,1.3,1.7.8.6-1.3Zm-48.6,8.6,21.5,36.8-3.4-.1L48.6,192.6Zm-3.6,1.4,1.2,1.9c-2.3-1.9-5.7-.3-5.6,2.1.1,1,1,1.7,1,.7s1.4-2,2.5-1.9c2,0,3.2,2.6,1.8,3.9-.9.8-2.1.8-1.7-.3a.57.57,0,0,0-.2-.7.91.91,0,0,0-1.4.9c.2.5.2.6-.4,1-2.3,1.6-.7,4.8,2.1,3.3.6-.2.8-.2,1-.1,1.1.4,1.9-.6.8-1.1-.6-.3-.6-.8,0-1.2,1.3-.9,3.3.5,3.3,2.2,0,1.2-1.6,2.2-3.2,1.8-.9-.2-1,.4-.2,1.1,1.6,1.3,4.1.2,4.8-2.1a4.27,4.27,0,0,0,.2-.9l2.2,3.6s-.7-.3-1.1-.5c-2.1-.6-4.4.7-4.4,2.6,0,.9.5,1.2.8.5a2.71,2.71,0,0,1,5.1,1.8c-.6,1.3-2.4,1.7-2.2.5.1-.6-.3-.9-.9-.9-.2,0-.5.7-.5,1.1s0,.4-.8,1c-1.9,1.5-.4,4,1.9,3.2a.94.94,0,0,1,.9.1c.9.4,1.8.2,1.8-.5,0-.5-.2-.6-.7-.6-.8,0-.6-.9.3-1.4,2.3-1.1,4.6,1.7,3.2,4-.6,1-1,1.1-3.1.8-.3,0-.5.2-.3.5.6.9,2.5,1.2,3.6.7a3.79,3.79,0,0,0,2-3.3l2.4,4.2a3.2,3.2,0,0,0-5.6,1.6c0,.7.6,1.1.9.5a2.44,2.44,0,0,1,4.7,1,1.67,1.67,0,0,1-.4,1.1c-.7,1.3-2.4,1.6-2.1.5a.71.71,0,0,0-.6-.9c-.5-.1-.8.3-.8,1v.7a2.7,2.7,0,0,0-1.6,2.2H41.6c2-11.7,1.5-22.4-2.3-32.4-.3-.9-.8-2.1-.8-2.1l3,.1c.7.6,3.4.4,4.5-.6Zm2.9,4.7,1.7,3.1a6.14,6.14,0,0,0-2.6-.8A5.19,5.19,0,0,0,50.6,197.5ZM46,200.8a1.2,1.2,0,1,1-1.1,1.2A1.13,1.13,0,0,1,46,200.8Zm12,9.4,1.7,3a6.74,6.74,0,0,0-2.8-.7A6.14,6.14,0,0,0,58,210.2Zm-4.8,3.2a1.1,1.1,0,1,1-1.1,1.1A1.11,1.11,0,0,1,53.2,213.4Zm12.1,9.4,2.5,4.4a4.88,4.88,0,0,0-3.3-1.1A6.15,6.15,0,0,0,65.3,222.8ZM62,228.3H59.3C59.9,225.9,62.1,226.5,62,228.3Zm2.5-1.2a2.66,2.66,0,0,1,2.2,1.1H63.4c0,.1,0-1.1,1.1-1.1Z"/><path id="path163-0-2-5-8-7-5-8-8-7" class="cls-2" d="M48.2,64.8s-3.7-6.1-8.7-13.3c-3.4-4.8-6-10-6.3-14.5-.3-5.1,2.4-10.3,7.3-10.5s6.9,3.9,7.7,7.4c.8-3.5,2.8-7.7,7.7-7.4s7.6,5.4,7.3,10.5c-.2,4.5-2.9,9.7-6.3,14.5-5,7.2-8.7,13.3-8.7,13.3Z"/><path id="path163-0-2-5-8-7-7-8-4-8-6" class="cls-2" d="M130.6,184.8s-3.7,6.1-8.7,13.3c-3.4,4.8-6,10-6.3,14.5-.3,5.1,2.4,10.3,7.3,10.5s6.9-3.9,7.7-7.4c.8,3.5,2.8,7.7,7.7,7.4s7.6-5.4,7.3-10.5c-.2-4.5-2.9-9.7-6.3-14.5C134.3,190.9,130.6,184.8,130.6,184.8Z"/></g></g></g></svg>