<svg xmlns="http://www.w3.org/2000/svg" viewBox="0 0 178.8 249.6"><defs><style>.cls-1{fill:#fff;stroke:#000;stroke-width:1px;}.cls-2{fill:#e2cf00;}.cls-3{fill:#131f67;}.cls-4{fill:#d40000;}</style></defs><title>Qs</title><g id="Layer_2" data-name="Layer 2"><g id="svg11376"><g id="Qs"><path id="rect7399-8-3" class="cls-1" d="M9,.5H169.8A8.49,8.49,0,0,1,178.3,9V240.6a8.49,8.49,0,0,1-8.5,8.5H9a8.49,8.49,0,0,1-8.5-8.5V9A8.49,8.49,0,0,1,9,.5Z"/><path id="path7431-0-1" d="M14.2,40.4C10.8,44.8,7.1,47.3,7,50.7A3.21,3.21,0,0,0,9.7,54,2.93,2.93,0,0,0,13,51.3c0-.4.5-.4.5.2a10.15,10.15,0,0,1-1.6,4.9h4.5a11.33,11.33,0,0,1-1.6-4.9c0-.5.5-.6.5-.2A2.77,2.77,0,0,0,18.6,54a3.18,3.18,0,0,0,2.7-3.3C21.3,47.2,17.6,44.7,14.2,40.4Z"/><path id="path7435-3-6" d="M164.6,209.3c-3.4-4.4-7.1-6.9-7.2-10.3a3.21,3.21,0,0,1,2.7-3.3,2.93,2.93,0,0,1,3.3,2.7c0,.4.5.4.5-.2a10.15,10.15,0,0,0-1.6-4.9h4.5a11.33,11.33,0,0,0-1.6,4.9c0,.5.5.6.5.2a2.77,2.77,0,0,1,3.3-2.7,3.18,3.18,0,0,1,2.7,3.3c0,3.4-3.7,5.9-7.1,10.3Z"/><path id="path37-0-2-9" d="M8.4,29.2H6.2v-3H8.4s0-1.6.1-4.5c.1-6.1.3-7,2-8.7,3.5-3.3,9.3-.6,9.2,4.4-.1,7,0,13.7-.2,14.6-.4,1.7-.4,1.8-.3,2.1.3.6,2.9.9,2.9.7v3a5,5,0,0,1-4.4-1.2,6.62,6.62,0,0,1-6.5.8c-1.8-.9-3.2-3.2-2.8-8.2Zm7.4,5.2c-1.1-1.6-2.9-3.7-4.6-4.5-.1,1.8,0,3.3.7,4.1a2.51,2.51,0,0,0,3.9.4Zm.9-17.3c-.8-2.3-2.9-3.1-4.4-1.6-.9.9-1.1,1.8-1.1,6.9v4.5c3,1,5.7,4.4,5.7,4.4l.1-9.5a23.73,23.73,0,0,0-.3-4.7Z"/><path id="path37-0-5-5-3" d="M170.4,220.5h2.2v3h-2.2s0,1.6-.1,4.5c-.1,6.1-.3,7-2,8.7-3.5,3.3-9.3.6-9.2-4.4.1-7,0-13.7.2-14.6.4-1.7.4-1.8.3-2.1-.3-.6-2.9-.9-2.9-.7v-3a5,5,0,0,1,4.4,1.2,6.62,6.62,0,0,1,6.5-.8c1.7.9,3.1,3.1,2.8,8.2Zm-7.5-5.2c1.1,1.6,2.9,3.7,4.6,4.5.1-1.8,0-3.3-.7-4.1a2.39,2.39,0,0,0-3.9-.4Zm-.9,17.3c.8,2.3,2.9,3.1,4.4,1.6.9-.9,1.1-1.8,1.1-6.9v-4.5c-3-1-5.7-4.4-5.7-4.4l-.1,9.5a35.93,35.93,0,0,0,.3,4.7Z"/><path id="path4075-4-3-9" class="cls-2" d="M81.8,228.7l18.7-34.2a84.81,84.81,0,0,0,9.7,3.1c-5.1,13.2,0,30.7,0,30.7ZM30.6,170.4c-1.1-14.5.6-26.8,1.3-40.1,0-.2-6.1-4-6.1-4l14.4-8.1c1.4.7,2.3.6,2.6-.8-1.4-4.9-1.7-9.7,1.6-13.8,2.5-3,8.2-1.5,9.8-1.5,1.3,0,4.3-10.2-.8-13.2-1.1-.6-1.6,6-2.4,8.7-3.3-2-9.5-3.6-10.3-7-.4-1.9,5.6-5.6,4.4-7.7-1.7-3.1-6.2-7.8-8.1-6.5-1.8,1.6-6.1,5-6.1,7.3,1.3,4.1,4.8,4.4,6.6,8.3a50.58,50.58,0,0,0,3.8,4.4c-1.2,1.9.8,5.2.9,4.7L26.5,94.2s3.6,27.1-.2,31.1c-.4.4,3.4-1.1,3.4-.8,1.1,1.5,13.8,9.5,17.4,12.4,6.4-9,8.8-13,17.1-21,1.8-1.5,5.9-4.3,8.2-7.6a11.82,11.82,0,0,0,2.3-8c-.4-3-.7-5.1-2.6-7.5C67.8,87.3,61,82,61.1,81.9L63.4,80s8.4,7,11.9,12.1c2.4,3.4,1.3,7.4,3.4,8.1.5.2,3.9-.1,5,.1.1,0,24.7,17.4,20.2,18.4-6.2,1.4-16,.5-16,.5-7-6.9-10.4-9.1-14.6-7,0,0-10.6,9.3-16.7,16.6a151.06,151.06,0,0,0-9,12.8c-.4-.2-12.5-9.8-12-8.7,0,0,2.9,26.3,1.6,36-.9,8.2-2.1,17-2.6,24.5,1.7-.4,4.3-.9,4.7,1.8.4,3.6-4.2,2.8-4.3,2.4l2.6,5.5s-4,6.9-3.9,6.6-3.6-6.1-3.6-6.1,2.7-5,3.2-6c.3-.7-4.2,1.8-4.4-1.8-.2-3.8,4.7-2.9,4.4-2.4-.5-8-1.9-16.3-2.7-23Zm60.1,18c.1-.1-10.6-4.3-20.5-3.9-3.5-1.4-9.1-2.8-12.9-.2-4.2-2.9-7.9-6.1-11.6-9.2,1,0,5.5-25.9,7.5-34-1.1-10.9,9.3-10.9,10.3-2.2,11.3,11.7,25.1,23.8,39.4,35.7-2.4,4.7-10.6,8.3-12.2,13.8Zm24.7-77.1C102.5,98.1,75.6,74.6,75.6,74.6L88.2,62.3A74.54,74.54,0,0,0,109.3,66s8.4,3.8,12.9,0l11.6,9.2s-4.8,25.5-7.7,34.4c.1,3.5-1.3,7.8-4.7,8.4-2.9.5-5.2-3.7-6-6.7Zm26-30.5c1.3-8.3,1.6-14.3,2.6-24-5.8,1.7-5.7-6.1,0-4.1l-2.6-5.8,3.9-6.6,3.6,6.2L145.8,52c6.4.3,4.9,6.3-.7,4.9,1,9.3,3.3,18.6,3.2,27.7,2,14.7-2.4,35.1-1.7,35.6l6.3,4.3-1.1,31.9-9.9-4.4-2.9,2c.9,1.9,2.2,3.7,2.6,5.7,0,0,6.8,5.6,5.9,7.4.4.3-4.9,7.3-6.4,7.1-3-.3-6.4-4.2-7.4-6.9-.8-2.7,6.1-5.4,5.2-7.5-1.1-2.4-3.7-3.6-6.1-4.3a11.39,11.39,0,0,1-4.9-3.5s-1.3,10.2-2.5,9.4c-4.9-3.3-1.5-13.7-.6-13.4a33.92,33.92,0,0,0,4.6.7c8.9.9,8.3-10,6.5-15.3-.6-2.1,2-1.4,3.1-1.7,4.3-1.3,11-5.7,11-5.7a174.8,174.8,0,0,1-18.5-12.4,88.52,88.52,0,0,1-11.1,14.8c-4.4,4.4-5.1,5.9-12.5,11.6-.1.1-5.6,6.6-3,14.2,2.2,6.5,12.9,13.6,12.8,14l-2.1,2c.1.1-15.1-9.4-14.7-19.7,0-.4-6.9-.5-6.9-.5L74,131.5l16.9-.1,8.7,7.1,5.4.3c.4.3.6-1.4,5.3-5,9.1-6.8,20.4-24.4,20.4-24.4l12,8.4c-.5-12.5-2.6-26.1-1.3-37ZM97.8,20.9S85.4,44.3,78.6,55.3l-9.7-2.8c4-10.8.2-31.3-.8-31.8Z"/><path id="path4073-4-2-4" class="cls-3" d="M24.1,19.6V230.1H154.7V19.6Zm90.3,152.7a114.78,114.78,0,0,1,18-14c2.2-1.3,2.9-1.5,3.8-.7,1.4,1.3,2.3,2.4,1.8,3.3a2.74,2.74,0,0,1-.4.5l-3.4-1.3,1.1,3.9c-3.1,1.3-3,4.6-.1,6.4l-2,4.7,4.7-2.1a3.18,3.18,0,0,0,5.7,0l4.3,2.1-1.5-5.3c1.4-1.3,2.2-3.5,0-5.5l1-4.1-3.9,1.3c-1-1.3-1.5-1.2-1.8-1.6a7.11,7.11,0,0,0-.7-2.7,15.64,15.64,0,0,0-1.7-2.5c-.3-.5-.1-.6,1.5-1.4.7-.4,1.3-.8,1.3-.8s7.6,3.8,10.7,5.3v70.5H111.2c-4.7-14.1-1.3-26.3-.1-31.4-2.2-.2-13.5-3.9-13.8-5.1,4.5-7.1,10.6-13.6,17.1-19.5ZM33,192.8c-5.5-1.8-5.5,4.8-2.7,5.3a5.86,5.86,0,0,0,2.6-.1c.3.1-3.3,5.5-3.3,5.5s2.8,5.2,4.2,7.4l4.3-7.6L35.3,198c4.4,2.2,6.7-4.4,2.1-5.3a4.27,4.27,0,0,0-2.3.4l2.4-22.9c2,1.3,5.5,4,5.5,4,.8,12.6.2,23.1,7.2,41.5l.1,12.7H25.8V161.8l4.5,3c.1.4-.7.1-.3,4.8.4,4.2,1.7,11.4,3,23.2ZM119.7,21.5a3.5,3.5,0,0,1,.3,1.2c1,3.3,4.4,7.2,7.1,8.2.9.4,1.3.9.8,1.5-.7.7-3.5-1.2-5.6-3.7-1.9-2.2-3.2-4.1-3.5-5.5a2.86,2.86,0,0,1-.1-1.8c.3-.4.7-.2,1,.1Zm3.3-.3c.4,0,.8.4,1.1,1.2a9.33,9.33,0,0,0,3.5,4.4.81.81,0,0,1,.4,1.1c-.1.1-.2.2-.3.2-1.3.4-4.8-3.7-5.1-6.2,0-.6.2-.7.4-.7Zm4.4,0c.7,0,1,1.5.6,2.2-.3.2-.9-.1-1.4-1.1C126.2,21.5,126.4,21.2,127.4,21.2Zm-2.4.1c.2,0,.5-.1.7.1a7.19,7.19,0,0,0,2.3,3.5.9.9,0,0,1-.1,1.1c-.8.4-3.2-2.4-3.2-4,0-.5.1-.7.3-.7Zm-3,.9a11.35,11.35,0,0,0,4.7,6.2c1.3.8,1.8,1.3,1.2,1.7a1.24,1.24,0,0,0-.3.2c-3.1-1.2-6.9-5.6-7-8.8.6-.8,1.2.2,1.4.7ZM111.3,34.3a13.87,13.87,0,0,0-5.2,1.1c-2.2,1-2.8,1.7-2.5,1.9s1.7-.4,2.4-.5c3.9-1,6.6-1.2,9.1-.1,2,.9,2,.5.7-1a6.4,6.4,0,0,0-4.5-1.4ZM125,36.5a4.42,4.42,0,0,1,3.1.9c.4,2-.6,1.1-1.4.7a6.56,6.56,0,0,0-3.6-.8c-.8.1-.8.1-.4-.2a4.93,4.93,0,0,1,2.3-.6Zm-15.2.7c-3.7.3-5,2.2-7.3,4.1-1,.7-.8,1.3.4,1.1a6.91,6.91,0,0,1,4.1.5c2.2.8,3.8,1.1,5,.6,2.3-.9,2.1-.7-1.2,2.4-1.7,1.4-1,1.3.7.1a9.63,9.63,0,0,0,2.5-2.3c.1-.3.1-1.3.4-1.3.8,0,.4-1-.4-1.5-.5-.4-.4-.7.3-1.4,1-1.1.7-1.5-.4-.9-.2.1-.3-.2-1-.6a7.14,7.14,0,0,0-3.1-.8Zm2.6,1.4c.9.8.5,1-1.4.9a16.16,16.16,0,0,0-5,.8c-2.2.7-2.4.8-1.1-.4C106.7,38.5,110.4,36.9,112.4,38.6Zm11.5-.6a4.34,4.34,0,0,1,2.3.5c1.9,1,2.3,1.9.2,1.2a7.86,7.86,0,0,0-4.3-.1c-1.3.3-1.5.5-1.3-.2S122.5,38,123.9,38Zm-14.6,3c.4,2.2,2.1,1.5,2.3.2h.6c-.3,1.8-2.7,3.3-3.6-.2.2,0,1.1.1.7,0Zm13.4,0h.5c.3,1.7,1.9,2.3,2.6.1h.5c-.5,3.6-4.2,1.9-3.6-.1Zm-14.6.2c.3.1.4.9.4,1.2-.1.5-1.6,0-1.9-.5C106.9,41.6,107.6,41,108.1,41.2Zm20.1.4v.6c-.7.2-1,.5-1.6.4a2.54,2.54,0,0,1,.3-1.4,1.25,1.25,0,0,1,1.3.4Zm-14.9.7a2.6,2.6,0,0,1-.7.3c-.1-.6-.2-1.3.6-1.3C113.6,41.4,113.6,42,113.3,42.3Zm8.5-1c.3,0,.6.7.6,1-.1.6-1.6.4-1.6-.2,0-.3.6-.8,1-.8ZM107.9,64.7c-1.2-.6-10.1-6-12.3-15.6l-.5,1c1,2.3,2.4,6,2.4,6-.1-.3.4,2.5,1.3,7.3a4,4,0,0,1-1.5-.3c-1.2-4.4-1.5-7.8-2.4-12.1l-.4,1.2s1.2,7.7,2.1,10.7a8.79,8.79,0,0,1-1.4-.2c-.7-3.2-1.2-5.4-1.9-8.7l-.6.8a44.92,44.92,0,0,1,1.6,7.6,4.07,4.07,0,0,1-1.8-.5s-.9-4.7-1-4.7a2.8,2.8,0,0,0-.5.8,15,15,0,0,1,.7,3.7c-.6-.1-1.6-.4-2.3-.6a2,2,0,0,0-.8,1c.3,1.5,20.7,4.7,19.5,3.5,0,.1,9,4,14,.7,0,0,8.7,6.5,12.2,9.1a7.31,7.31,0,0,0,2.4,2.5l3.5,2.7c1,.8,1.4.2,1.6-1.3s1.4-12.7,1.6-15.1c1-8,1-7.9-.2-7.5-1.8.6-3.5-.2-3.5-2.1a2.54,2.54,0,0,1,1.8-2.6,4.89,4.89,0,0,1,1.3-.1,5.64,5.64,0,0,1,.7.1c.6,0-2.3-5.2-2.3-5.2s2.7-4.9,4-6.7l3.5,6.4-2.9,5.7c5.6-.4,5.1,6.7-.4,4.3v2c.1-.6,0-1.1.2-1.2,5.3,2,6.4-5.8.7-5.4.9-1.7,2-3.4,3-5.2l-4.2-7.6-4.7,7.8,2.4,4.9a3.79,3.79,0,0,0-1.5,0c-3.5.7-2.7,6.3,1.2,5.6a5.34,5.34,0,0,0,1.1-.4L141,80s-.3.2-1.3-.5c-1.2-.9-3.7-2.7-3.8-2.9a92.74,92.74,0,0,0-7-39.8c-.3-.7-.1-15.3-.1-15.3h23.9V89.3c-1.2-.8-2.7-1.8-4-2.7a1.23,1.23,0,0,1-.5-1.3c-.4.9-.2,1.3-.2,1.3l5.2,4.2-.2,66.6s-8.5-4.4-13.7-6.5c-2.3-1-2.5-.7-2.5-.7s1.7,3.7,1.2,4.4c1.1,1.1,3,3.3,3.1,5.5a7,7,0,0,1,2,2.2l3.1-1.1-.7,3.3c3.3,2.3.1,5.5-.5,5.2a33.67,33.67,0,0,1,1.8,4.6,32.55,32.55,0,0,1-3.9-1.8c-1.9,3.8-5.2.6-5.2.1l-3.6,1.6,1.3-4.1c-2.3-1.4-3.9-3.5-.1-5.8l-.9-3.2,3.1,1.2s.6-.9,1-1.6c-1.2-5-8.7-4.1-11.1-8.6a71.91,71.91,0,0,1-1.2,7.7c-.2,5.4-4-.1-4-5.8,0-1.3,1.6-5.6,2.2-5.8s6,2.5,9.6-.1c1.7-1.7,4.5-6.6,1.8-14.2-.9-1.8,1.7-2,2.6-1.4,0,0,7.9-4.1,11.5-6.1-6-3.3-18.4-12.1-18.4-12.5-1.7,2.6-3.6,4.9-6.2,8.6-4.3,5.1-7.7,10-13.2,14.1-7.7,5.6-9.5,11.3-7.4,18,.9,2.9,2.6,5.8,5.5,6.8,1.5,1.5,7.3,7.1,7.3,7.1-9.8,9-16.5,16.3-21.3,24.5,4,2.1,13.6,5.1,13.6,5.1-3.6,11.9-1.9,21.4.4,30.9,0,0-27.9,0-42.4-.4a4.73,4.73,0,0,1-1.7-.1c-.1-1.1,2.6-4,3.4-3.6.4-.4,1.2-.6,1.1-1.1-2-.2-5,3.2-5.1,4.7H64.3c-.2-.2,2.2-5.8,7-6.3-.1.2.6-.4.1-.7-5.6.7-8.2,6.9-8.1,7h-.9a11.5,11.5,0,0,1,9.8-8.4s.9-.3.7-.9c-6.4,1.1-9.5,3.9-11.1,9.2H60.7c.8-5.4,6.4-10.2,12.7-10,.2-.1.4-.3.3-.9-7,.8-10.5,3.1-13.4,9.2-2.6-6.7-9.7-9.9-9.8-9.9s-.2-1.9.2-1.8c6.1,2.2,8.4-3.1,8.2-6.2a21,21,0,0,0-.6-5.1,18.83,18.83,0,0,1-.8-4.6c0-.9.3-1.1,1-1.5,1.3-.6,2.1-2.7,1.8-3-.7,1.6-2.4,1.8-3.3,2.9-.7.9-.4,2.2.8,7,.7,2.9-.1,1.6-1.8.7l-1.1-.6a23.91,23.91,0,0,0,2.3,2.2c.7.6.3,1-.7.6a5.67,5.67,0,0,0-5.1.5c-.4.3-.5.3-.6,0-.5-7.4.3-12,2.8-17.6,1.6-3.8,3.9-6.6,7.1-6.8s7.7.9,11.9,3.7c4.9,3.3,9.6,8.4,10.1,14.5,0,.1.4-.5.5-.8.2-.7-.6-2.9-1.9-5.5-.2-1.9-.9-5.3-1.4-7.6a1.6,1.6,0,0,1,1.5.2c.9,3.8,1.5,6.7,2.3,11.8,0,.5.6-.7.6-1.1-.1-.8-2.2-10.7-2.2-10.4,0-.3,2,.1,1.7.4,0,0,1.5,8.3,1.6,8l.5-.7s-1.4-6.1-1.3-7.2c.1-.2,1.2.2,1.6.4a16.72,16.72,0,0,1,.9,4.2c.5.4.6-.7.6-1-.4-.6-.8-2.8-.5-2.9a4.76,4.76,0,0,1,1.8.6c.3.3,1.4-1.3,1.1-1.6a61.8,61.8,0,0,0-19.4-3.8,10,10,0,0,1-3.9-.9c-5.2-1.9-9.5,0-10.1.6-6.3-4.4-13.4-10.6-19.1-14.5a2.65,2.65,0,0,0-1-.3c-.9,6.9-1.5,14.8-2.3,21.1-.3,2.5-.3,2.7-.2,2.8s.3,0,.4-.1a3.31,3.31,0,0,1,4.4,1.4c.4,2.4-1.6,4-3.9,2.8-.8-.4-.9-.3-.6.5.6,1.4,2.5,5.2,2.5,5.2s-2.5,5.2-3.8,6.6c-1.2-2-2.8-4-3.5-6.2,1-1.9,2.8-4.4,3.4-6.3-.1-.1-.6,0-.9.2-3.2,1.5-3.7-1.4-3.7-2.4.1-2.1,1.9-2.6,4.6-1.6-2.9-19.1-3.5-30-2.7-28.8a54.4,54.4,0,0,1-5.2-4.2l.2-139.2H66.4c4.2,11.4,3.1,25,.5,32.2A41.38,41.38,0,0,1,81,58.4C72.3,71.1,58.8,84.9,44.1,93.7c-.8.4-3.6-1.3-3.9-3-.1-.4.1-1.2.6-1.2,1.1.4,2.1.8,3.2,1.3,0,0-1.5-3.7-.8-4.3a5.31,5.31,0,0,0,1.1-.9,3,3,0,0,0-.1-4.1,5.08,5.08,0,0,0-1.2-.9s1-2.9,1.6-4.2l-4.1,1.4c-1.3-1.8-3.8-3.3-5.5-.5-.3.7-.3.6-2.8-.5l-2.3-1c.5,1.6,1.2,3.1,1.9,5-2.8,1.8-2.2,4.8.2,5.7l-1.2,4.1s2.7-1,4.1-1.4a6.88,6.88,0,0,1,1.6,2.5,9.68,9.68,0,0,0,3,4.4,19.79,19.79,0,0,1-4,2.3l6,2.4c-.4-1.3-1.2-2.2-1.2-3.8-.1-1.4-.1-1.4-1-2.3-1.6-1.4-1.8-3.1-2.3-4.2a4.31,4.31,0,0,1-1.6-1.9c-.4-.8-3,1.1-3.4.7s.8-3.1.7-3.4c-1-.1-4-2.4-.5-4.9l-1.1-4.2S33.8,78,35,78.6c.9-4.2,4.9-2.2,5.6-.4,0,0,3.2-1.1,3-.2s-.6,2.7-.6,2.7c2.9,2.6,2.3,3.8-.1,5.5a19.27,19.27,0,0,0,.5,3.5,25.06,25.06,0,0,0-2.7-1c-.4.4-.9,1.2-.8,1.6.7,3.2,4.7,4.1,10.6,7.4.2-2.1,1.6-5,1.8-7.5.1-1.8.2-1.9,1.4-1.3,3.4,2.4,2.3,9.2,1.1,11.9-.7,1.6-.8,1.5-2.3,1.1a13.9,13.9,0,0,0-7.3.3c-2.6,1.1-3.9,7-3.9,8.8a12.88,12.88,0,0,0,1,5.5c.4,1.3-.3,2.4-1.5,2l-.9-.3-11.4,5.9,2.1,1.3s-1.6-.9-.6-1.5l9.8-5.1c1.8.7,1.6.9,2.8-.4a2.2,2.2,0,0,1,2-.7c5.8.6,8.3-.3,9.3-2.7.1-.4.1-.4.7-.6a2.44,2.44,0,0,0,1.7-2.2c0-.6.3-.7.8-1.2a2.19,2.19,0,0,0,.5-2.9c-.3-.5-.5-.7-.4-1.2a2.85,2.85,0,0,0-1-2.7c-1-1.1-1-.9.9-2.6,3.5-3.4,6.7-6,10.1-9,2.4-2.1,2.1-1.9,3-1a14.28,14.28,0,0,1,3.2,13.9c-.1.2-.1.2.1,0,1-1.1,1-6.6.2-9-1-3-2-4.5-5.3-7.5-2.1-1.9-7.7-7.2-7.7-7.2,8.1-7.1,16.9-15.9,21.8-24-2.5-2.7-14.2-5.2-14.2-5.2,1.5-3,4.3-16.7-.6-31.8,14.5.7,29.1-.4,43.6.6a1,1,0,0,1,.3-.1c.4-.1.6.2.5.6-.3,1.2-2,3.9-3.2,3.6-.5-.2-.4.8-.6,1.2,1.9-.2,4.1-2.6,4.6-5,.3-.5.5-.6.8-.5s.3.4-.1,1.6c-1.2,2.9-3.6,5.5-6.3,5.2l-.4,1c3.7-.1,6.6-3.6,7.5-6.2.6-1.6.6-1.8,1.2-1.6.5.5.2,1.1,0,1.7-1.9,6-7,7.6-9.6,7.4-.3,0-.4.3-.3.7,5.5.4,9.9-4.4,10.5-8.5.3-1.1.8-1.5,1.1-1a2.23,2.23,0,0,1,0,1.4c-1.5,6.5-8.4,10.1-12.6,9.1-.2-.2-.5.7-.1,1,8.5-.3,11.1-4.7,13-8.6,2.3,3.5,4.2,7.1,9.7,9.2,0,0,.6,1.2.1,1.5a2,2,0,0,1-1.1,0c-6.7-1.1-9,5.2-6.1,14.6.8,2.6.4,2.2-1.2,3.8-.8.8-1.2,2.1-1,2.2.3-.2.4-.6,1.1-1.2a8.7,8.7,0,0,1,1.4-.8c1.2-.7,1.2-1.2.8-2.9-.3-1.3-1.2-5.1-1.2-5.5,0-.7.2-.7,1.1,0,1.3,1,2,.9.5-.3a6.93,6.93,0,0,1-1.2-1.1c-.2-.4-.1-.6.4-.4a7.42,7.42,0,0,0,6.6-.7c.3,6.2-.6,15.6-5.8,22.4-3.4,4.4-11,1-13.8-.5ZM114,50.5a3,3,0,0,0-1.1.3c-1.5.9-1.2,4,.5,4.4a2.7,2.7,0,0,0,2.4-.3,4.41,4.41,0,0,1,1.9-.5c.6.2.7-.3.8-.8.3-1.2-1.8-1.3-3.4,0-2,1.6-3.6-.8-1.7-2.6.8-.3.7-.5.6-.5ZM98.2,57.1l1.7,2,1.1,4.7a2.52,2.52,0,0,1-1.4-.3A45.56,45.56,0,0,1,98.2,57.1Zm23.2,1.2h0a3,3,0,0,1-.9.2c-.3,0-.6-.2-.9-.1a9.11,9.11,0,0,0-1.6.3.85.85,0,0,1-.7,0,4.14,4.14,0,0,0-2.7.1,2,2,0,0,1-1.7,0c-.2-.1-.4-.4-.5-.3a12.38,12.38,0,0,0-.5,1.9,2,2,0,0,1-.1.5,5.44,5.44,0,0,0,.8-.4c.8-.4,1.6-.4,3.2,0a4.5,4.5,0,0,0,3.7-.2,2.28,2.28,0,0,1,2-.4c.1,0,.5.2.6.2s-.2-.7-.4-1.2-.1-.6-.3-.6Zm-20.2,2.1a16.58,16.58,0,0,0,2.6,2.2l-.1,1.5a8.44,8.44,0,0,1-1.9-.2c-.2-.5-1.1-3.4-.6-3.5Zm13.5,1.1a.76.76,0,0,0,.5.2c2.6,1-.1.7-.4,1.7,0,.1.1.1.2,0a9.43,9.43,0,0,1,4.1-.4c1.3.4,1.4.1.1-.5-.9-.4.2-.6.6-.9.8-.5.2-.7-.7-.2a4.5,4.5,0,0,1-3.6,0c-.4-.2-.7-.3-.9-.4s0,.4.1.5Zm-10.3,1.7,1.5,1.2-1.6-.2ZM69.5,93.5a.6.6,0,1,0,.6.6A.65.65,0,0,0,69.5,93.5Zm2.1.5-7.1,3.4,1.9.6v1.9l1.7-.5.7,1.8Zm.3,1.6a.6.6,0,1,0,.6.6A.65.65,0,0,0,71.9,95.6ZM63,99.1a.6.6,0,0,0,0,1.2.6.6,0,0,0,0-1.2Zm2.1,1-7.9,3.7,2.3.7-.6,2.4,1.9-.8,1.1,1.6Zm.3,1.8a.6.6,0,1,0,.6.6A.65.65,0,0,0,65.4,101.9Zm-15.8.3c3,0,6.3,1.1,7.5,3.7.3,1.3-.9,2-3.6,1.3-4.4-1.2-5.2-1.4-4.5-.6a2.82,2.82,0,0,0,1,.6,21.38,21.38,0,0,0,5.8,1.1c1.2-.2,2,.4,1.7,1.4s-1.9,1.6-4.2,1.3a21,21,0,0,1-4.5-.9c-1-.3-1.1-.3-.6.4.3.4.3.7.7.7a23.52,23.52,0,0,1,4.7.4c2.6.2,3,1,1.1,2.1-.9.5-3.6.4-5.2-.2-1.1-.4-3.6-1-2.7-.2.2.2.2.6.6.8,1.3.2,5.1.5,5.7,1,.4.3-.5,1.2-2.2,1.7-2.7.5-6.7.3-7.7-.4-1.9-4-.9-10.5,2.2-13a6.2,6.2,0,0,1,4.2-1.2Zm17.5,2.1a.65.65,0,0,0-.6.6.6.6,0,1,0,.6-.6Zm2.4.6L61.3,109l2.1.6-.5,2.4,1.9-.8,1.2,1.6Zm0,2a.6.6,0,1,0,.6.6A.65.65,0,0,0,69.5,106.9Zm4.8,4.8c-3.6,3.5-7.7,6.3-11.5,9.8h.8l2-1.8,57.3-.2-1.3,2,.6.2a17.49,17.49,0,0,0,1.6-2.7c-12.6,0-22.3,0-36.1.1-2.5-2.5-5.2-4.8-7.8-7.2ZM56.9,114a.6.6,0,1,0,.6.6A.65.65,0,0,0,56.9,114Zm74.8.4c5,3.7,10.8,8.2,15.7,10.9,1.9.8,1.8,1.1-.2,2.1-1.9,1.2-5.2,2.8-7.9,4.1-1.2.4-1.7-.1-2.5,0a1.77,1.77,0,0,0-1.1.7c-.6.8-.4.7-3.6.6s-4.5-.1-5.1.3-1.8,1.5-1.8,1.9a1.36,1.36,0,0,1-1,1.2,1.91,1.91,0,0,0-1.6,1.7,3,3,0,0,1-1,1.4,2.25,2.25,0,0,0-.6,2.5,2,2,0,0,1,.2,1.4c-.2,2.6-.4,2.4,2.3,4.3l-14,12.2c-.3.3-.4.2-.7,0a11.54,11.54,0,0,1-3.6-5.5c-2.4-6.5.5-11.9,4.4-15.2,1.3-1.1,3.1-2.5,3.6-2.8,7.2-6,13.5-14.7,18.5-21.8Zm-72.8.5-8,3.8,2.6.4-.5,2.2,1.9-.7,1,1.9Zm.5,1.8a.6.6,0,1,0,.6.6A.58.58,0,0,0,59.4,116.7Zm73.3,2.5-.9-2.2s-2.5,6.2-3.1,8.4c2.1-1.1,8.4-4.3,8.4-4.3l-2.7-.5.3-2.4Zm-91.3.3a.6.6,0,1,0,.6.6A.65.65,0,0,0,41.4,119.5Zm2.4.6-8.6,4,2.5.5-.4,2.4,2.3-.9.9,2.4Zm.3,1.8a.6.6,0,1,0,.6.6A.65.65,0,0,0,44.1,121.9Zm84.3.4a.6.6,0,1,0,.6.6C128.9,122.6,128.7,122.3,128.4,122.3Zm9.7.5-2.8,7.9,7.7-3.9-2.1-.6v-2l-1.7.5Zm-90.6,1.9a.6.6,0,1,0,.6.6A.58.58,0,0,0,47.5,124.7Zm83.8.2a.65.65,0,0,0-.6.6.6.6,0,0,0,1.2,0A.53.53,0,0,0,131.3,124.9Zm-81.4.5-8.1,4,2.5.6-.3,2.5,2-1.2,1.1,2.3Zm.5,1.7a.56.56,0,0,0-.5.6.6.6,0,0,0,1.2,0A.86.86,0,0,0,50.4,127.1Zm84.4.5a.6.6,0,1,0,.6.6A.65.65,0,0,0,134.8,127.6Zm-11.2,2.6-.8-2.1-3,7.8,8.1-3.7-2.6-.6v-2Zm-8.2-1.7c-.1,0-.2,0-.2.1a22.33,22.33,0,0,1-2.1,2.2l-23.8.2,2,.5c3.1,2.5,8,7,8,7l5.9-.2c3.3-3.2,8.2-5.7,10.4-9.7a.35.35,0,0,0-.2-.1Zm22.4,1.6a.6.6,0,0,0,0,1.2.6.6,0,0,0,0-1.2Zm-18.4,2.8a.58.58,0,0,0-.6.6.53.53,0,0,0,.6.6.6.6,0,0,0,0-1.2Zm12.1.8a10.61,10.61,0,0,1,3.8.4c2.6,2.2,1.4,12.7-1.9,14-3.7.8-6.2,1-9.4-1.1-.9-.4-2.7-1.8-2.3-2.9.5-1.3,1.8-1.3,5.5-.1a3.5,3.5,0,0,0,2.5.1c.3-.2-.1-.5-.8-.5a16.37,16.37,0,0,1-2.5-.6,8.82,8.82,0,0,0-2.8-.6c-1.6-.1-2-.2-2-1.1,0-1.8,2.5-2,7-1a16.76,16.76,0,0,0,1.8.3c.2.1-.3-.6-.4-1a2.53,2.53,0,0,0-1.2-.2c-2.9-.3-5.3-.5-5.4-.9-.3-1.9,3.5-2.4,7.4-.9,1,.4,1,.2,1-.1,0-.5-1.7-1.5-4.2-1.5s-2.1-1.2-.1-2.1c.6-.4,2.3-.2,4-.2Zm-9.3,2a.65.65,0,0,0-.6.6.6.6,0,1,0,1.2,0C122.7,136,122.5,135.7,122.2,135.7Zm-8.7,3.9-.5-2.1-3.3,8.2,8.3-4.2-2.7-.5.2-1.7Zm-4.3,3.3a.6.6,0,1,0,.6.6A.53.53,0,0,0,109.2,142.9Zm8.3,2.3-.7-2-2.8,7.1,7.1-3.2-2.1-.6.3-2.2Zm-5.6,0a.6.6,0,1,0,.6.6C112.4,145.5,112.2,145.2,111.9,145.2Zm1.8,2.8a.6.6,0,1,0,.6.6Q114.15,148,113.7,148Zm-3.6,1.6-2.4,6.8,6.6-3.2-1.9-.6s.1-1.5-.1-1.4-1.4.4-1.4.4Zm5.9.8a.6.6,0,0,0,0,1.2.65.65,0,0,0,.6-.6A.58.58,0,0,0,116,150.4Zm-8.8,3.3a.6.6,0,1,0,.6.6A.65.65,0,0,0,107.2,153.7Zm2.6,2.6a.6.6,0,1,0,0,1.2.6.6,0,1,0,0-1.2ZM74.7,187.4a2.34,2.34,0,0,1-1.2-1,1.55,1.55,0,0,1,1.2.2C74.9,186.8,75,187.3,74.7,187.4Zm2.4-.5c-.1.8.4,2.3.3,2.7-.3.1-1.6-1.3-1.9-1.6a5.48,5.48,0,0,1,0-1.3,2.13,2.13,0,0,1,1.6.2Zm2.4.5c.3,1.8,1.1,4.8,1,5.8a20.54,20.54,0,0,1-1.9-2.2,11.42,11.42,0,0,1-.6-3.9A1.63,1.63,0,0,1,79.5,187.4Zm-15.9-.2a6.2,6.2,0,0,1-2.9.7c-.9,0-2.5-.5-2.4-.4.4.8,1.5.4,1.6.9-.3.5-1,.4-1.4.9-.1.1.1.2.6.2a8,8,0,0,1,5.5-.1c.4.1.1-.3,0-.4a1.53,1.53,0,0,0-1-.4c-1.6-.3-.9-.5.2-1,.8-.3,1-1-.2-.4Zm3.5,2.3a13,13,0,0,0-1.4.5,4.72,4.72,0,0,1-3.3-.1,3.16,3.16,0,0,0-2.8.4,2.44,2.44,0,0,1-2.3.3c-.8-.5-.8-.3-.4.8.1.3-.1,1.1.3,1.3s.6-.3.8-.4,1.5.5,2.2-.1c1.3-.5,1.7.3,2.6.2,1.4-.5,2.3-1,3.6-.1a19,19,0,0,1,.7-2.8Zm-2.6,5.8c-1,0-1.6.7-2.9.5a1,1,0,0,0-1,1.6c.3.5.7.6,2.2-.1.6-.3,1.4-.9,1.9-.8,1.4.1,1.8,1.5.6,2.7-.6.3-.6.7-.4.7a1.93,1.93,0,0,0,1.6-1.2c.6-1.8-.4-3.5-2-3.4Zm4.7,8.2a8.33,8.33,0,0,0-4,2.8c-.6,1-1.2,2.1-.8,2.6s.9.9.9,1.1-.3.4-.5.7c-1.2,1.3-.9,1.4.8.5a2.75,2.75,0,0,1,1.8-.5,9.35,9.35,0,0,0,5-.4c.6-.2,1.2-.5,1.3-.4-2.5,2.7-5.6,2-6.7,1.9-.2-.1-.3,0-.3,0s.3.4,1,.7c1.1.5,3.9,0,5.6-1.3,3.4-2.2,5.2-4.3,2.6-3.5-1.2.4-1.7.3-3.2-.3-2.2-1-3.9-1.3-5.8-.7-2.3.8-.5-1.1,2.1-2.8.4.1.5-.4.2-.4Zm-12.6,5.8h-.8c-.6-1.9-1.9-1.9-2.5,0h-.7c.7-2.4,3.1-2.8,4,0Zm13.8.2h-.6c-.4-1.1-1.6-2.1-2.5-.3l-.4-.1c.8-2.9,3.6-1.3,3.5.4Zm-3.9-1.7c.4,0,.5.4,0,1.1-.3.5-.6.4-1,.1s-.3-.4,0-.7A1.75,1.75,0,0,1,66.5,207.8Zm4.3,0a3.09,3.09,0,0,1,.8.2c.9.3,1.1.5.7.9a1.15,1.15,0,0,1-1.3.3c0-.4-.5-.8-.5-1.2C70.5,207.8,70.7,207.8,70.8,207.8Zm-13.9,0c.6,0,1.4.3,1.4.7s-.7.6-1.2.7c-.3,0-.3-.1-.4-.3a1.85,1.85,0,0,1-.2-.7c-.1-.5.1-.4.4-.4Zm-4.2.1a13,13,0,0,1-.5,1.4c-1.3-.1-1.2-.6-.6-1A2.46,2.46,0,0,1,52.7,207.9Zm-1,2.5a9.2,9.2,0,0,1,.9.3,9.73,9.73,0,0,0,4.5,0c.7-.2,1-.4,1.2-.3s0,.9-1,1.4a6.39,6.39,0,0,1-4.9,0c-1.3-.7-1.4-1.5-.7-1.4Zm-.3,1.4a5.32,5.32,0,0,0,3.9.9c2.2-.1,2.6-.4.7.6-1.7.9-4.4.8-4.9-.2C50.8,212.6,51,211.9,51.4,211.8Zm10.8,1.4h0c.2,1.2,2.2,2.3,3.2,2.6,2.1.9,5.3,0,7.8-1.1,1.8-.8,2.4-2,.3-1.3-3.5,1.1-7.8,1.2-10,.3a8.73,8.73,0,0,0-1.3-.5Zm-11.4,4.5c4.3,1,9.5,7.7,9.5,10.6H58.9c-2.1-7.4-7.6-9-8.2-9.5a1.5,1.5,0,0,1,.1-1.1Zm0,1.9a13.61,13.61,0,0,1,7.7,8.7H57a11.69,11.69,0,0,0-6.2-7.2,3.56,3.56,0,0,1,0-1.5Zm0,2.3c2.6.8,4.9,4.3,5.6,6.4H55.1a7.83,7.83,0,0,0-4.3-4.9,2,2,0,0,1,0-1.5Zm-.1,2.3a5.81,5.81,0,0,1,3.6,4.1H53.1a6.47,6.47,0,0,0-2.4-2.9Zm.2,2c.1-.1,2,1.6,1.7,2H50.9a6.56,6.56,0,0,1,0-2Z"/><path id="path4071-9-6-8" class="cls-4" d="M97.9,21.3c-3.1,6.1-19.2,33.5-19.4,34.4l4.1,1.8,20-36.1S98.5,21.3,97.9,21.3Zm47.2,22.9-1.7,2.5,1.4,2.8,1.7-2.7ZM71.7,71.6s-5.8,5.7-8,8.4c4.8,4.8,14.1,10.9,14.2,20.3h6.4l20.6,18.5,19,.1c.4-.1,7-9.6,7-9.6l11.8,8.7s-.6-9.3-1-15c-.1-3.8-.3-6.2,2.5-7.9-3.8-1.8-3.6-5.2-.8-7.7-.9-1.3-2.3-1.5-2.5-6.1a9.68,9.68,0,0,0-1.9-1.5l-.8.7c-2.5,2.2-4.1,4.5-4.4,5.9-.5,2.8,2.3,4.7,3.9,2.7.5-.6.9-.4.9.3,0,1.5-1.9,2.4-3.5,1.6a6,6,0,0,0-.7-.3,39.6,39.6,0,0,0,2.1,5,12.55,12.55,0,0,1,1.2,4.6c.1,1.7,0,1.9-.8,4.8-.7,2.7-.4,4.4.9,4.4.7,0,.7.7,0,1-1.6.6-2.6-.6-2.6-3.1,0-1.5-.1-1.6-.8-1.2-2.7,1.3-5.7-1-4.4-3.4.3-.5.6-.3.8.4.3,1.4,1,2,2.3,1.9,2.9,0,4.2-4.2,2.5-8.4-.3-.8-.5-.8-1,.3-.7,1.7-1.9,2.2-2.9,1.2-.3-.3-.5-.9-.3-.9h.7c1.7-.1,2.3-1.7,1.5-4.2a21.54,21.54,0,0,1-1-3.8,7.62,7.62,0,0,1,.8-5.1c.2-.3,1.2-1.4,2.4-2.7s2.4-2.3,2.4-2.3c-1.2-1-2.3-1.8-3.7-2.9,0,0-8.8,24.2-8.2,33.6-1.1,12.4-10.2,9-10.9.4Zm-.4,3.6c3-.1,5,3.9,6.1,12.2.4,2.7,2,6.6,3.2,7.5,3,2.3,7.8.5,7.8-2.9,0-4.3-5.9-4.9-6-.6,0,1-.5,1.1-1,.1a3.32,3.32,0,0,1,.8-3.2c.5-.5.5-.6-.5-1.2-3.6-2-5.2-5-3.2-6.3.8-.6,2,.1,1.5.9-.8,1.2-.8,1.4-.1,2.3.8,1.1,1.7,1.7,3.9,2.3,1.9.6,2.2.7,3,1a4.81,4.81,0,0,1,2.8,6.1,12.76,12.76,0,0,0-.4,1.3c-.1.3.1.3,1.8,0a8.85,8.85,0,0,1,7.5,2.4A8.9,8.9,0,0,1,100,102a14.93,14.93,0,0,0,.2,1.7c.1.6.3,1.6.4,2.3.7,6.1,5.8,9.3,8,5,1.4-2.7-1.8-5.5-3.5-2.9-.6.9-1.2.5-.8-.6.6-2,3.2-2.4,4.9-.7a4.84,4.84,0,0,1,.9,4.4c-.2.7-.2.7.3.6a4.37,4.37,0,0,1,3.9.8c1.7,1.8,1.4,4-.7,4.7a1.81,1.81,0,0,1-2.4-1.1c-.2-.8.4-1,.8-.3.8,1.3,2.5.2,2.1-1.3-.5-1.7-1.9-2.1-4.6-1.2-4.3,1.5-5.7,1.4-7.8-.7-1.5-1.5-2-2.7-2.4-5.5-.4-3.1-.5-3.2-1.2-2.5-3.6,3.1-8.5-1.6-5.4-4.7,1-1,1.7-.1.8.9-1.3,1.6.4,3.7,2.4,3.2,3.7-.9,3-6.4-1.1-7.7-1.2-.4-4.6-.2-7.2.3-7.3,1.6-10.5-1.5-12-11.6a43.89,43.89,0,0,0-1.1-4.6c-.8-3-3.6-4.6-5.1-3-1.2,1.3-.6,3.1,1.1,3.1s1.2,1.2-.6,1.3c-3,.3-3.6-4.8-.7-6.3a9.54,9.54,0,0,1,2.1-.4ZM31.5,77.1l1,3.7,3.8,1.1-1.2-3.4Zm9.7,1.1-1,3.3,2.8-1,1-3.1Zm30.9,5.3A1.1,1.1,0,1,1,71,84.6,1.18,1.18,0,0,1,72.1,83.5ZM36.2,85.4l-3.3,1.1-.6,2.6,3-.7ZM43,86.6l-2.3-.7.6,2.7,2.6,1.1Zm105.1-.5-1.6,1.2c4.5,4-.4,7.8-.5,7.5,3.3,2.2,2.7,5.6,2.3,8.8-.8,5.6-1.1,10.9-1.9,16.7a52,52,0,0,0,6.6,3.8V90.3Zm-56,5.1A1.1,1.1,0,1,1,91,92.3,1.11,1.11,0,0,1,92.1,91.2ZM25.7,94l.1,31.5,6.5-11.7-4.5-5.2,3.9-4.1C29.5,101.1,27.6,97.5,25.7,94ZM89,98.8a1.1,1.1,0,1,1-1.1,1.1A1.11,1.11,0,0,1,89,98.8Zm14.8,3.2a1.1,1.1,0,1,1-1.1,1.1A1.11,1.11,0,0,1,103.8,102ZM146,137.1l4.8,4.9-3.8,4.7,5.9,10-.1-30.9ZM25.6,126.7l.2,33.9,5.1,3.7,1.3-1.2c-3.3-3.5-1.3-6.2,1.2-7.7-4.4-1-3.1-6.9-2.8-9.6-.1-5,1.7-10.7,1.2-15.6Zm29.5,4.8-7.3,10.2s-8-6.1-12.1-8.9c.4,4.4.8,10,1.4,14.8,1.3,6.9-2.1,7.1-2.1,7.7,5.4,4.1.9,8,.1,7.8,2.9,1.6,2.7,6.4,2.7,6.4l1.4.8a5.92,5.92,0,0,1,.6-.4,11.53,11.53,0,0,0,4.4-5.5c.9-3.2-1.8-5.8-3.5-3.4-.8,1.2-1.5.4-.8-1a2.72,2.72,0,0,1,3.4-1.3c.6.3.5-.5-.5-3a34.54,34.54,0,0,1-1.1-3.6,10.09,10.09,0,0,1,.5-6.1c1.1-3.2.7-5.1-1.1-5.3-1-.1-1.1-.4-.3-.8,1.8-1,3.5.4,3.4,2.8,0,1.3,0,1.3.7,1,3.5-1.4,6.2,2.2,3.8,5-.7.8-1.2.3-.7-.8.8-1.8,0-3-1.7-3-2.6,0-4,3.5-3,7.4.3,1.2.4,1.2,1.2.4s1.3-.9,1.9-.8c1.2.4,1.5,1.7.4,1.5-2-.3-2.5,1.8-1.4,5.5,1.5,4.9,0,8.9-4.4,11.8a5.92,5.92,0,0,0-.6.4,34.42,34.42,0,0,0,5,3.8l8-32.6a23.19,23.19,0,0,0-.3-2.7c0-8.7,8.1-9.6,10.7-1.6a14.37,14.37,0,0,0,1.5,2.7l42.3,37.7s7.9-7.7,7.8-7.9c-6-6.1-14.1-10.4-14.4-20H94.8L74.2,131.6c-6.7.1-12.4-.3-19.1-.1Zm11.5.7c1.1,0,2.3.6,2.3,1.5s-.5,1-1,.3c-.6-.9-1.4-1-2.1-.2-2.1,2.2,1.1,4.2,4.8,3,2.3-.7,3.4-.9,4.2-.7,3.5.7,5.2,3.1,5.5,7.7.2,2.3.1,2.3,1.2,1.4a3.78,3.78,0,0,1,6.5,2.3,3.15,3.15,0,0,1-2.7,3.2c-.6,0-.5-.6.1-.9,1.5-.7,1.5-3,.1-4-1.9-1.2-4.4.7-4.4,3.3,0,3.2,2.4,4.6,7,4.3.7,0,2.4-.1,3.8-.2,2.2-.1,4.6-.5,6.9,1.2,2.4,1.9,3.9,5.6,4.6,11.1,1.1,6.7,1.9,8.5,4.1,8.6a2.31,2.31,0,0,0,2.4-2.4,1.75,1.75,0,0,0-2.2-1.4c-1.1.4-1.3-.8-.2-1.3,1.5-.6,3.4.6,3.8,2.5a4.42,4.42,0,0,1-2.3,3.8c-3.5,1.4-5.9-1.5-6.7-7.9a40.14,40.14,0,0,0-1.7-7.4c-1.7-4.6-4.4-6.5-7.4-5.2-3.4,1.6-2.7,6.7.9,6.6,2,.2,2.4-1.3,2.4-2.9,0-1.2,1.3-.1,1.5.7a3.55,3.55,0,0,1-1.5,2.7c-1.2.8-.8.8.5,1.1,3.4.6,5.9,5.1,3.9,6.6-1,.6-2.2-.3-1.4-1.2,1.2-1.5-.8-3.8-4.4-4.6-4.7-1-6.5-4.5-4.8-8.1.6-1.2.6-1.2-1.7-1-5,.3-6.8-.4-8.5-3.3-.5-.9-.7-2.1-.8-4.4-.2-4.2-.6-6.8-1.1-7.5-2.6-3.6-8-2.5-7.3,1.5a2.23,2.23,0,0,0,4,1.2c1.1-1.2,1.6-.1.5,1.1-2.6,2.9-7.2-.5-5.8-4.3.3-.9.4-.9-1.3-.9-3.7-.1-5.5-3.3-3.1-5.6a3.66,3.66,0,0,1,1.4-.3Zm9,13.7a1.1,1.1,0,1,1-1.1,1.1A1.11,1.11,0,0,1,75.6,145.9Zm15,3.8a1.1,1.1,0,1,1-1.1,1.1A1.11,1.11,0,0,1,90.6,149.7Zm-3.3,7.1a1.1,1.1,0,1,1-1.1,1.1A1.11,1.11,0,0,1,87.3,156.8Zm47.6,4.2.7,3.2,2.5.7-.4-2.7Zm8.7,1.1-.1,1.9,2.2.3.8-3.3Zm-37,2.9a1.1,1.1,0,1,1-1.1,1.1A1.11,1.11,0,0,1,106.6,165Zm31.7,4.4-2.6.7-1.2,3.6,3.3-1.2Zm5,.4.3,2.7,3.2,1.4-1.1-3.8ZM96.2,192.6l-19.8,36,5.4-.1,18.7-33.9Zm-62.4,8.7L32,203.7l1.7,2.7,1.9-2.8Z"/><path id="path4069-2-6-0" d="M67.5,20.4A52.77,52.77,0,0,1,68.3,53c1.8.1,9.7,2.1,14,4.8C81.5,59.9,69.2,75,60.8,81.9c2.4,2.4,5,4.7,7.7,7.3,4.2,4,5.6,6.7,5.9,11.8a13.83,13.83,0,0,1-2.5,7.7,19,19,0,0,1-5,4.6c-2.3,1.6-5.7,4.9-10,9.8-1.6,1.9-4.4,5.3-6.7,8.6-.9,1.2-3.4,4.9-3.4,4.9A129.19,129.19,0,0,0,29,124.3l11.1-5.9c1.5,1,3.5.1,2.5-2a14.17,14.17,0,0,1,1.7-13.1c.5-.8,1.9-1.3,4-1.5a28,28,0,0,1,2.9,0,4.21,4.21,0,0,1,1.8.4c1.7,1,2.1-.3,3.2-4.4s-.7-9.3-3.1-9.3c-.6,0-.9.2-.8,1.7a4.29,4.29,0,0,1-.5,2.4,17.57,17.57,0,0,0-1.1,5c.4.1-2.3-2.7-6.5-3.7-2.7-.3-4.1-3.7-4-3.7a5.52,5.52,0,0,1,.8-1.3,19.46,19.46,0,0,0,2.9,1.3s-.3-1.4-.4-1.7c-.5-1.9-.5-2.2.3-2.6,1.8-1,2-2.7.6-4.3a4.36,4.36,0,0,0-1.1-.9l.9-3.6s-.8.2-1.5.4c-1.9.6-1.8.6-2.6-.3-1.8-2-4.4-1.6-4.8.7a2,2,0,0,1-.2.7l-4-2a41.13,41.13,0,0,0,1.2,4.2c-3.5,2.8-.5,5.2.4,5.4,0,0-.8,2.6-1.1,3.7l4-1.1a3.59,3.59,0,0,0,1.6,1.9,8.28,8.28,0,0,0,3.1,5.1,3.81,3.81,0,0,1,.1,1.3c-.3,1.3,1.1,3.4,1.3,3.5C36.2,98.4,30.5,95.7,25,93l.3,67.8a44.33,44.33,0,0,0,3.8,3c1.2.9,1.2.9,1,1.9-.3,1.3-.3,2.3.9,11.1.6,4.6,1.3,9.4,1.8,13.8.2,1.6.3,2.6.3,2.6a3.46,3.46,0,0,0-3.9.4,2.75,2.75,0,0,0,2,4.6,2.11,2.11,0,0,0,1.3-.5.56.56,0,0,1,.6,0l-3.5,6.1,4,6.8,4-7.2-2.9-5.7a1.73,1.73,0,0,1,.7.2,6.47,6.47,0,0,0,1.3.4c2,0,2.4-.9,2.7-2.6,0-2.2-1.7-3.1-4.1-2.3l-.8.2L37,170l1.3,1,.4-.2-1.2-1c.3-3.8-1-5.1-2.3-6,4.5-2.6,2.5-6.6-.4-7.9,0,0,1.9-1.1,2.3-2.3s.2-2.8-.2-5.8c-.3-4.6-1.3-14.2-1.3-14.2,3.9,3,8,6.2,11.8,9.2L55,132.2l18.3.1,21,19.2,6.1.1a8,8,0,0,1,.1,1.1c.6,6.3,4.8,10.6,8.6,13.6,1.6,1.4,5.4,5.1,5.4,5.1l-7.1,7.2L63.8,139.5l-.3-.9c-1-4.1-3.7-5.9-6.2-5.6s-4.8,2.9-4.7,7.3a10.5,10.5,0,0,0,.3,1.9l-8,33.3s-3.2-2.4-4.9-3.6l-.4.2,4.7,3.5.3-.2,1.3,1,.1.7c4.1,2.8,11,8,11,8,3.3-2.4,6.7-1.6,10.1-.7a17.69,17.69,0,0,0,3.8.8,61.05,61.05,0,0,1,19,3.7L67,229.6l43.6.1c-2.2-8.5-4.4-17.2-.4-31.7-4.3-.9-13.9-4.7-13.9-4.7s0-.2.4-.7c1.8-2.5,6.2-9.4,10.4-13.4.5-.4,7.8-7.5,7.9-7.7a1.46,1.46,0,0,1,.5-.8c.7-.5,2.5-2.1,2.5-2.1l-9.1-8s-.4,0-.5-.1c-1.3-.7-3.6-4.7-4.1-7.4-1.3-6.2,1.1-11,7.9-16,6.6-4.6,19.2-22.3,19.3-22.7,6.8,5.6,12.1,8.6,18.1,12.3-3.6,2.1-6.6,3.5-9.1,4.8-1.6.9-1.9,1.1-3.2.7-1.6,0-2.1.6-1.7,2,2.4,3.8,1.4,12.5-1.9,14.2a8.71,8.71,0,0,1-7.7.2c-1.7-.6-1.7-.6-2.5,1a10.94,10.94,0,0,0-.2,10.1c1.3,2.8,3.2,4.1,3.4.3.1-2.2,1.1-4.8,1.1-7.2a10.92,10.92,0,0,0,6.4,4c2.1.3,4.4,3,4.3,4.1-.6.6-.8,1.4-.9,1.3-1-.3-3.3-1.3-3.3-1.3l1,3.4a2.48,2.48,0,0,1-.6.4,2.91,2.91,0,0,0,.2,5.2c.5.2.5.4.3,1-.3,1.4-.9,2.3-1.2,3.7a15.3,15.3,0,0,0,2.9-1.2l1-.5.6.6a2.73,2.73,0,0,0,4.3,0l.6-.7,1.8.9,2.1,1s-1-3.7-1.1-4.2c-.1-.2-.3-.5-.4-.5s-.2-.1.4-.6c1.6-1.3,1.8-3,.4-4.4l-.6-.6.8-3.5-3.4,1.1a3.26,3.26,0,0,0-2-1.9c-.1-1.6-.3-3.2-2.9-5.6.9-.8-.2-2.8-1.1-4,1.5.5,5.3,2.1,5.3,2.1h.6l1.8.9.2.3s5.7,2.7,8.3,3.9V90.2a10.61,10.61,0,0,0-1.3-1.1,30.15,30.15,0,0,0-3-2.1c-1.2-.8-1.1-.8-.9-1.7a13.4,13.4,0,0,0-.1-5.3c-.3-2-1.3-9.2-2-15-.5-4.1-.6-5-.7-5.6a7.26,7.26,0,0,1,0-2.4c5.7,2.5,6.1-5.7.4-4.6,1.1-2.2,2-3.2,2.9-5.6-1.2-2.6-3.8-6.9-3.8-6.9l-4.2,7.3,2.5,5c-2.8-.5-4.3,1.6-3.8,3.4a2.4,2.4,0,0,0,3.5,1.4c1.1-.4,1.1-.5.1,7.5-.3,2.4-1.5,13.4-1.7,15-.1,1.1-.2,1.4-.6,1.2a14,14,0,0,1-1.6-1l-.3.3a23.2,23.2,0,0,1,1.8,1.6c-.1,2.9-.1,4.6,2.3,6-4.4,2.8-1.8,7,.8,7.6-1.5.4-3.1,2.4-2.7,6.3l1.2,16.3-11.9-8.9-7,10H105.1L84.3,100.1s-4.6-.1-6.4-.1c.2-.1-.4-5.8-3.4-9.6A131.91,131.91,0,0,0,63.8,80.1l7.8-8,43.9,39.6s.2,1.1.3,1.6c1.5,6.3,8.6,6.6,10.1.3a20.3,20.3,0,0,0,.4-3.7c0-.1.2-1.1.5-2.3,2.4-9.3,4.4-17.3,6.7-26.2.3-1.2.7-2.6.8-3,.4-1.8.3-1.8,2.2-.4l1.6,1.2.4-.4c-1.3-1-3.5-2.6-3.5-2.6v-.7c-7.1-5.1-8.6-6.5-12.8-9.8-3.3,2.9-7.9,1.7-10.9.7-.8-.3-2.6-.8-2.6-.8a62.22,62.22,0,0,1-19.8-3.4l23.4-41.7h-9l-.3.4H98.3v-.4Zm26.6.9,3.2.1L78.4,55.2l-2-.8s.2-.1.2-1.5a4.29,4.29,0,0,0-1-3.1c-.6-.8-.8-.8.9-.6A4.43,4.43,0,0,0,81,43c-.5-1.1-.5-1.2.9-1.3A4.51,4.51,0,0,0,84.5,34c-.6-.5-.3-.8.7-.6,3.3.7,5.9-3,4.6-5.9-.4-.8,0-.9.6-1a4.71,4.71,0,0,0,3.7-5.2Zm-25.4,0H83.5c-2,3.1,1.5,4.9,2,4.6-3.2,1.7-2.3,4.2-.7,5.1s4,.1,3.4-3.5l.8-.3c.8.9,1.5,6.3-4.3,5.5-1-.1-1.6.8-.7,1.4,4.6,5.3-2.6,7.7-2.9,6.8V40c2,.4,4.5-2.2,2.3-4.4-1.3-1.3-4.9-.7-4.3,3.2-2.1-3.2-4.5-2.2-5.1-.5a2.51,2.51,0,0,0,2.3,3.4c-2.4,2-1.2,4.3.4,4.7,1.8.5,3.7-.2,3.2-3.5,0-.3.7-.2.7-.2,1.9,4.7-2.6,6.4-5,5.5-.9-.4-1.4,1-.4,1.7,1.4,1.1,1,4.2.8,4.2a37.67,37.67,0,0,0-6.4-1.7,60.88,60.88,0,0,0-.9-31.1Zm23.6,0h1.3c0,1.9-.8,4.3-4.1,4.6a3.89,3.89,0,0,0-.2-1.5c1.3-.3,2.9.1,3-3.1Zm5.8.1h4.3L82.3,57.1l-3.2-1.7ZM87.6,24.1a1.4,1.4,0,1,1-1.4,1.4A1.37,1.37,0,0,1,87.6,24.1ZM79,39.7A1.3,1.3,0,1,1,77.7,41,1.32,1.32,0,0,1,79,39.7Zm66.1,1,3.4,5.9-3.9,6.9-3.2-6.6Zm-.1,2-2.4,4,2.2,4.1,2.5-3.9Zm.1,1.7,1.2,2.4-1.5,2.4-1.2-2.6Zm-3.3,8.1a2.35,2.35,0,0,1,.8.2c2.3,1,1.6,4.5-.9,4.2a3,3,0,0,1-1.1-.4C139,55.1,140,52.5,141.8,52.5Zm5.6,0a2.2,2.2,0,0,1,1.1,4.1,2.24,2.24,0,1,1-2.2-3.9A3.59,3.59,0,0,1,147.4,52.5Zm-2.8,4c.2,0,.4,1,.6,2.7.1.6.3,2.1.4,3.4.3,2.7.6,5.2.9,7.8.1.5.2,1.6.3,2.4,1.2,8.4,1.4,11.1,1.1,11.9-.7,2.5-4.2,2.7-5.6,1.2-1.1-1.1-1.2-2.3-.8-5.5.2-1.8.3-2.7,1.1-9.7.2-1.6.4-3.8.5-4.8.3-2.7.6-5.3,1-8C144.3,57,144.5,56.5,144.6,56.5ZM88.5,62.8s11,3.6,19.3,3.5a7.2,7.2,0,0,1,3,.5c.9.3,2.3.7,3.2.9a11,11,0,0,0,6.8-.5c.3-.1.8-.5,1.2-.4s.7.7.7.7c-7.3,1.9-24.4,1.6-35.1-2.9ZM144.9,64a.35.35,0,0,0-.1.2c-.2.3,0,2.1.6,8.1,1.3,11.3,1.3,11.5-.3,12.7-.8.6-.9.8-.5,1s.2.2.8,0c1.3-.4,1.8-1.4,1.8-3.5a33.36,33.36,0,0,0-.5-5.7c-.2-1.4-.4-3.3-.5-4.3-.9-7.1-1.1-8.6-1.3-8.5ZM87.4,65.1c10.9,3.9,22.3,5,36.1,2.9,0,0,1.3.9,2,1.3l-.5.1.2,1.9,2.3-.4s1.3,1,2.2,1.6c-12.3,3.8-32.1,3.1-44.3-2.3a4,4,0,0,1-.7-.5,8.51,8.51,0,0,1,.9-1.4l2.2.6.6-2-1.7-.6Zm2.9,2.5-.7,2,3.1.9.5-2.1ZM95,68.8l-.4,2.3,3.1.6.4-2.2Zm5.2,1.1-.2,2.2,3.3.4.2-2.2Zm22.8,0-2.8.3.2,1.9,2.9-.3Zm-4.9.6-2.8.2.1,2,2.8-.2Zm-12.7,0v2.2l2.9.1V70.6Zm7.9.3h-2.6v2.1h2.7Zm-30.7.4c.3,0,.9.6,1.2,1.3.5,1.4.3,3-.5,3.5-1.1.7-2.5-.4-1.7-1.4a.89.89,0,0,1,.5-.4c.6-.2.7-1.1.4-2.7C82.4,71.3,82.5,71.2,82.6,71.2Zm4.2.5A75.21,75.21,0,0,0,125.9,74s-6.6,26.8-6.7,26.8Zm-5.7.1c.6,0,.7,1.1.2,1.6-.7.7-2.1.1-1.8-.8C79.5,72.4,80.6,71.8,81.1,71.8Zm3.3.6c.1,0,.4.2.8.8,1.3,1.8,1.4,3.8.2,4.7-1.4,1.1-2.4-.6-1.3-2,.3-.4.3-1.1.2-2.6,0-.6,0-.9.1-.9Zm45.9.7a2.67,2.67,0,0,1,1,.4c.8.4,1.1,1,.7,1.5-.6.7-2.2-.7-1.9-1.7a.22.22,0,0,1,.2-.2ZM129,74c.2,0,.6.4.9,1.2.3.5.4.7.8.8,1,.4,1.2,1.4.3,1.7s-1.7-.4-2.1-2.1c-.2-1-.1-1.6.1-1.6Zm-42.3.8c.1,0,.4.3.9,1,1.3,2,.9,5.7-.8,6.6a1.29,1.29,0,0,1-1.8-.3c-.9-.9-.6-1.5.6-2s1.4-1.6,1.1-3.9c-.1-1-.1-1.4,0-1.4Zm6.3.6c8.1,6.7,15.4,13.8,24.8,22.2,2.2-6.9,5.5-21.2,5.5-21.2A86.45,86.45,0,0,1,93,75.4Zm35.3,0a5.67,5.67,0,0,1,.7,1.9,5.34,5.34,0,0,0,1.3,2.3c1.6.3,2.3,1.2,1.5,1.9a1.66,1.66,0,0,1-2.4-.6c-1.1-1.7-1.9-5.5-1.1-5.5Zm-90.1.9a2.06,2.06,0,0,1,2.1,1.9c.3,1.5-.5,2.5-1.2,2.3s-1-1.5-1-1.5a6.14,6.14,0,0,1-.5,1.5c-.7,1-2.1-.5-1.8-2a2.45,2.45,0,0,1,2.4-2.2Zm57.5.4a95.6,95.6,0,0,0,26.9.5l-4.9,19.3Zm-6.7,0c.1,0,.4.2.8.7,1.4,1.4,1.8,3.5.9,4.5-.5.6-.9.7-1.5.3s-.8-1.3-.1-1.6.7-1,.2-2.4q-.6-1.5-.3-1.5Zm-57.4.5,3.2,1.3L36,81.2l-3.2-.8Zm12.2.4-1,2.7-2.5.9,1-2.9Zm83.8.6c.1,0,.3.3.5,1,.5,1.8.8,2.2,1.2,2.4a.93.93,0,0,1,.1,1.7c-.5.2-.6.2-1-.3a7.11,7.11,0,0,1-1-3.2c0-1.1.1-1.6.2-1.6ZM91.8,79.4c.1,0,.2.1.4.4,1.2,1.5,1.4,3.8.3,4.5s-2.6-.7-1.7-1.5c.1-.1.3-.2.4-.3.3-.2.3-.3.3-1.6.1-1.1.2-1.5.3-1.5Zm9.5.1,15.4,14,3.5-13.9A99.63,99.63,0,0,1,101.3,79.5Zm-37.8.7c4.9,5.1,11.2,9.3,12.7,14.4a17.08,17.08,0,0,1-5.6,19.9,62.91,62.91,0,0,0-9.8,8.8c-4.7,5-7.8,10.5-10.9,14.4-.5.7-1.9,2.8-1.9,2.8s-.7.8-3-1.1a114.5,114.5,0,0,0-18.9-13.1l2.7-1.5A130.89,130.89,0,0,1,47,137.4s4.8-7,6.3-9.1a74.45,74.45,0,0,1,5.9-7c5.3-6.6,10.8-8.7,13-12a14.31,14.31,0,0,0,.7-15.5c-2.7-4.7-8-7.9-11.4-11.8Zm46.2.4h6s-.9.7-1.6,1.2c-.4.3-.9.2-1.9-.1l-2.5-1.1Zm6.8,0h1.4a18.44,18.44,0,0,1-3.5,3.3c-.2.1-.3.1-.7,0-2.9-1-5.5-2.2-8.3-3.3h2.5s1.2.4,3,1.1c2.1.9,2.6,1.1,3.4.6s1.4-1.2,2.2-1.7Zm2.9,0-.5,1.8a24.32,24.32,0,0,1-4,3.5c-.3.2-.3.2-1.8-.4-5.3-2.1-7.9-3.4-7.9-3.4l-1.1-1a21.89,21.89,0,0,1,2.3.8c.6.2,1.7.7,2.4.9s2.2.9,3.2,1.3c2.3.9,2.2.9,4.4-1,2.4-2.1,3-2.5,3-2.5Zm-81,.2,2.3,2.7-3.1,2.6-2.3-2.8Zm88.5,0a9.23,9.23,0,0,0,1.8,3c.7.6.8,1.1.4,1.5-1,.6-1.2-.4-1.5-1.1-.5-1.1-1.2-2.7-.7-3.4Zm-84.3.3h.2c2.5,0,3.1,3.7.7,4.6a2.3,2.3,0,0,1-2.3-.3c-.5-.5-.6-.9-.2-1.2a3.86,3.86,0,0,1,1.8-.4,12.25,12.25,0,0,1-1.7-.7c-1.1-.7-.2-2,1.5-2Zm51.2,0c.1,0,.4.3.7.9,1.3,2.1,1.2,6-.1,7a1.55,1.55,0,0,1-2.1-.2c-.8-.8-.5-1.7.6-2.2s1.3-1.5.9-4.2C93.6,81.5,93.6,81.1,93.8,81.1Zm-60.4,0a2,2,0,0,1,1.8.9c.3.4.1.8-.4,1s-1.8.5-1.8.5a10.41,10.41,0,0,1,1.8.5c.8.4.8,1.1-.5,1.6-2.4,1.1-4.6-2-2.7-3.7a4,4,0,0,1,1.8-.8Zm62.4,1.5h0c.3,0,.7.3,1.1.9,1.4,1.9,1.7,4.7.5,5.3s-2.2-.6-1.3-1.7c.6-.7.6-1.8-.3-4-.1-.3-.1-.5,0-.5Zm30.6.1c.1,0,.3.4.6,1.4.7,2,1.3,2.9,2.1,2.9s1.4,1.3.7,1.8c-1.4,1-3.3-1.5-3.5-4.6-.1-1-.1-1.5.1-1.5Zm-7.7,1-.4,1.6s-1,1-1.7,1.6c-1.1,1-1.4,1.2-2.3.9-1.4-.5-2.7-.9-4.1-1.3l-3.3-2.7,7.5,2.9s.6.2.9,0a37.66,37.66,0,0,1,3.4-3Zm7.1,1.6c.1,0,.2.1.3.4.3,1.5.8,2.7,1.2,2.8a.81.81,0,0,1,.5,1.1c-.6,1.3-2.3-1-2.3-3.3,0-.6.1-1,.3-1Zm-27.1.1c.1,0,.2.1.5.4,1,1,1.4,3.9.5,4.7-1.2,1.2-2.5-.6-1.3-1.8.3-.3.3-.4.2-1.8C98.6,85.8,98.5,85.4,98.7,85.4Zm-62.8.3-.8,2.7-2.6.7.6-2.2Zm3.1.2a2.54,2.54,0,0,1,.7.2,2.26,2.26,0,0,1,.6,3,2.29,2.29,0,0,1-2.4,1.1,2.22,2.22,0,0,1-2.1-2.3,2.41,2.41,0,0,1,.7-1.7c.3-.2.6-.1.8.3l.7,1.4a5.42,5.42,0,0,1,.2-1.5c.2-.2.5-.5.8-.5Zm2,.3,1.9.6.7,2.6-2.1-.8Zm107,.4a21,21,0,0,1,3.1,2.3c.6.5,1.7,1.5,1.7,1.5l-.1,33.4-6.1-3.8.3-2.9s.8-8.8,1.5-13.4c.4-5.2,1.4-6.6-2-8.8,3.7-2.3,2.7-6,.3-7.5Zm-30.2.2-.3,1.5c-1.2,2.1-2.3,2-4.2,1l-2.2-1.9c1.4.3,2.2.8,3.6,1.2a1.24,1.24,0,0,0,1.5-.4,11.43,11.43,0,0,1,1.6-1.4Zm-16.6.8c.8.8,1,1.6.9,3.7-.1,1.4-.1,2.5-1.3,3.3a1.81,1.81,0,0,1-2,0c-1.1-.7-.5-2.1.9-2.2.9,0,1.2-2.9.7-4.7-.1-.3-.1-.5.1-.5s.4.1.7.4Zm23.8-.1c.2,0,.5.4.7,1.2.3,1,.6,1.6,1.2,1.9s1,1.1.5,1.5c-.9.8-1.9-.2-2.2-2.3C125.1,89.5,124.7,87.5,125,87.5Zm20,.3a3.15,3.15,0,0,1,3.3,3.3,3.26,3.26,0,0,1-2,3.1c-3.1.9-4.7-1.2-4.7-3.1A3.29,3.29,0,0,1,145,87.8ZM103,89c1.8,1.8,1.8,5.5.1,5.5-2.1-.7-.5-1.9-.4-2.2a7.34,7.34,0,0,0-.4-3.3C102.1,88.2,102.8,88.8,103,89Zm42.1-.2c-.4,0-.3.4.3.9a1.67,1.67,0,0,1-.9,3c-.7,0-.9.5-.3.7,2.4,1,4-2.7,1.9-4.2A3.38,3.38,0,0,0,145.1,88.8Zm-91.8.5c1.9.7,2.6,4.4,2.7,5.7.1,2.3-1,6-1.9,6.7-2.4,1.9-3.6-4.9-1.5-9.2a2.58,2.58,0,0,0,.3-1.7c-.1-1,.1-1.5.4-1.5Zm63.9.4a8.17,8.17,0,0,1-.5,1.7c-.3.7-.5.7-1.2.1a8.79,8.79,0,0,1-1-1c.6.1,1.1.4,1.7.2Zm7.3,0c.1,0,.3.4.5,1.2.6,2.1,1.2,2.9,2,2.9a1.07,1.07,0,0,1,.4,2.1,1.47,1.47,0,0,1-1.3,0c-.9-.2-2.2-3.4-2-5,.2-.8.3-1.2.4-1.2Zm-85,1.2c.5,0,.7.2,1,.9a4.81,4.81,0,0,0,2,2c1.8.9,3.7,1.6,5.5,2.5,2.3,1.2,4.4,4.8,3,5.1a8.6,8.6,0,0,1-1.6.1,2.33,2.33,0,0,1-.7-.9,10,10,0,0,0-6.1-4.2c-2.2-.6-4.1-3.2-4.5-4.5-.1-.3-.1-.6.2-.7a2.66,2.66,0,0,1,1.2-.3Zm65.5.2c.1,0,.2.1.5.3,1.3,1.4,1.4,3.9.3,4.6-1.3.8-2.3-.5-1.4-1.6.4-.5.4-.5.4-1.9,0-.9,0-1.3.2-1.4Zm18.7,1.6c.2,0,.4.4.7,1.3.4,1.2.5,1.3.9,1.5.8.4.9,1,.3,1.6-1,1.1-2.1-.6-2.1-3.4,0-.6.1-1,.2-1Zm-16.8.2a1.18,1.18,0,0,1,.6.5c1.6,1.9,1.3,6.2-.5,6.9a1.48,1.48,0,0,1-1.1.1c-1.3-.6-1.1-2,.5-2.8C107.5,96.9,106.7,93,106.9,92.9ZM26.5,94.3,33,97.5s1.8,3.8,2.6,5.2c.6,1,1.7,1.9.5,2.6-2,1.3-3.1,2.1-3,2.9s.8,1.3,2,2.7c1.6,1.9,1.6,1.5.1,4.3a34.16,34.16,0,0,0-2.1,6.6l-6.6,3.4c2-4.7,4.2-8.7,6.8-11.5a29.74,29.74,0,0,1-5.2-4.9,37.33,37.33,0,0,1,4.4-4.5,29.83,29.83,0,0,1-6-10Zm82.1.1h0c.3,0,.9.7,1.5,1.8.7,1.4.8,3.2.1,3.8-1.1,1.1-2.5-.3-1.5-1.5.7-.5.5-1.8,0-3.2-.2-.6-.2-.9-.1-.9ZM25.8,95a67.16,67.16,0,0,0,5.5,9.3l-4.2,4.4a49,49,0,0,0,5.1,5c-2.7,3-4.5,7.3-6.3,11.3Zm97.2.1c.1,0,.4.4.6,1.3.3,1.1.5,1.4,1.1,1.7,1,.4,1,1.4,0,1.8a1.28,1.28,0,0,1-1.3-.7,5.14,5.14,0,0,1-.6-2.5C122.7,95.6,122.8,95.1,123,95.1Zm23.4.6c1.6.4,2.2,2.1,1.9,5-.4,4-.9,8.4-1.3,12.1-.5,4.2-.8,6.9-.8,6.9l-.4-.3s.1-2.3.3-3.7c.4-3.1.6-5.9.9-9,.7-7,.5-9.2-.7-9.9-1-.5-1.4-.2-.7.5,1.4,1.1,1.3,1.5-.1,18.7-.2,1.8-.2,3-.2,3l-1.9-1.2s-.1-1.5-.3-3.7c-.4-4.2-.7-8.7-.9-12.7-.3-4.3.5-5.8,3.2-5.9a5.63,5.63,0,0,0,1,.2Zm-34.3,2.5c.2.6,1.1,4.8-1.2,3.6a.89.89,0,0,1-.2-1.5,3.28,3.28,0,0,0,.4-2.7c-.2-.8-.4-1.4-.4-1.4.5.2,1.4,1.9,1.4,2ZM41.6,96.9a11.77,11.77,0,0,1,5.6,3c.9.9.8,1.7-.5,1.8s-1.4.4-2-.1a3.5,3.5,0,0,0-1.5-.9C41.3,100.4,40.3,96.7,41.6,96.9Zm81,1.1a15.46,15.46,0,0,1,.4,1.5c.3,1.3,1.2,2.3,2,2.2.6-.1,1.3.1,1.4.8a1,1,0,0,1-.7,1.3,1.84,1.84,0,0,1-2-.4c-1.3-1.2-2-5-1.1-5.4Zm-9.7.1c.7.3,1.6,2.6,1.7,4.4,0,1.3-.2,3-1.3,3.6a1.26,1.26,0,0,1-1.8-.4,1.3,1.3,0,0,1,.7-1.9c1-.5,1.3-2.5.7-4.5.1-.4-.4-1.4,0-1.2ZM36.3,99l5.3,2.7a12.43,12.43,0,0,0-1.8,3.1A24.9,24.9,0,0,1,36.3,99Zm78.6,1c.1,0,.4.3.7.5,1.3,1.3,1.9,3.6,1.1,4.5-.6.7-1.8.6-1.9-.1-.1-.4.3-1,.5-1.3a4.52,4.52,0,0,0-.1-2.8C115,100.3,114.8,100,114.9,100Zm-36.7.5,6,.2,20,18.1h-1.9L83.9,102H78.2Zm-34.5,3.2A14.41,14.41,0,0,0,42.2,116c1.1,2.9-1.3,3.1-2.2,1.2a12.47,12.47,0,0,1-.9-6.5c.3-4.3,2.3-8.6,3.8-9.1s1.3,1.6.8,2.1Zm82.1,8.8c-.6,2.8-1.7,4.3-3.3,4.9-6.5,2.4-9.4-10.8-3.3-14,5.7-1.9,7.4,5.3,6.6,9.1Zm-48-8.6,5.6.1c5.1,4.7,10.7,9.1,16.2,14.8H96.9s-.8-.7-1-.9c-5-4.5-8.7-8.1-13.4-12.2l-5-.1Zm43,.8c-3,.1-3.3,4.3-3.2,5.8.2,2.3,1.1,5.6,4,5.3,2.1-.2,3.1-2.7,2.9-5.7-.2-2.7-1.3-5.4-3.7-5.4Zm-43.5,1.4,4.9.1c4.4,3.8,9,8,13.5,12.5H93.5a4.51,4.51,0,0,1-.7-.7c-3.7-3.4-7.5-7.1-11.1-10.1l-5.1-.2Zm43.6.2c.9.3,1,2.4.3,3.3-.5.6-1.7-.5-1.8-2A1.16,1.16,0,0,1,120.9,106.3Zm-81.8.2a21,21,0,0,0-.8,4.6l-2.1-2.6Zm83.4,2.6a.9.9,0,1,1-.9.9A.9.9,0,0,1,122.5,109.1Zm-41.6.4,9.9,9.3H88l-8.1-7.4-5.1-.2,1-1.8Zm38.4.2a.9.9,0,1,1-.9.9A.84.84,0,0,1,119.3,109.7Zm11.7,0a186.71,186.71,0,0,0,21.6,14.7,7.45,7.45,0,0,1-2.6,1.4,128.13,128.13,0,0,1-18.6-12.5c-4.4,6.5-12.9,18.4-20.4,23.8-4.8,3.4-7.2,7.6-7.1,12.5,0,5.1,1.8,8.4,6.8,12.6,3.2,2.7,6.7,6.1,6.7,6.1l-1.8,1.6c-.3,0-5.4-4.4-10.5-9.6-2.8-2.8-4.1-9.1-3.6-12.5a16.29,16.29,0,0,1,6.5-11.4,44.52,44.52,0,0,0,4.8-3.8c13.4-14.3,18.2-22.9,18.2-22.9Zm-9,2.4c.5,1.1.8,2.4-.8,2.5-.9.1-1.5-1.5-.7-2.9.6-1.1,1.2-.2,1.5.4Zm-47.5-.3,5.3.2s5.2,4.6,7.9,7.1h17.8c9.8,0,17.9,0,17.9.1a13.73,13.73,0,0,1-1.3,2H63.3s3.6-3.2,4.9-4.1a29.52,29.52,0,0,0,6.3-5.3ZM38.4,114a20.72,20.72,0,0,0,1.4,4.2l-4.1,2.2a51.07,51.07,0,0,1,2.7-6.4Zm113.4,11.9a45.69,45.69,0,0,1-5.5,10.2c-.5.7-.9,1.2-.9,1.2l5,4.8-4.3,4.6a28.72,28.72,0,0,1,5.6,9.5,43.72,43.72,0,0,1-5.5-2.6c-.7-1.7-1.4-3.6-2.2-5.1-1.8-3.6-1.7-3.2-.3-4.3,2.1-1.6,2.7-1.9,2.2-2.7-.4-.5-2.9-3.5-3-3.6s-.1-.6.3-1.3a49.15,49.15,0,0,0,3.4-8Zm.9.1.1,30.3c-1.8-3.6-3.7-7.3-5.7-9.6-.1-.2,4.5-4.7,4.5-4.7-1.7-1.6-2.7-2.5-5-4.7C148.9,134,150.8,129.7,152.7,126ZM25.9,127.1l5.7,3.3c-.3,4.3-.7,9.9-1.3,15.6-.5,4.4-.7,6.5.1,7.7a10.5,10.5,0,0,0,2.5,1.9c-3,1.2-4.2,4.8-.8,7.5a14.73,14.73,0,0,0-1.2,1l-4.7-3.5Zm89.8,1.5a32.39,32.39,0,0,1-5.4,5.1,32.78,32.78,0,0,0-5.4,4.5s-3.4,0-5.7-.1L91.3,131s.3-.1-10.5,0c-13.9.1-25.1,0-25.1,0l1.6-2.2Zm28.1,1.4a27,27,0,0,1-3.5,7c-.4-1.5-.5-3.2-1.3-4.5Zm-111.4.8.7.5s-.4,5.2-.5,6.8c-.2,2.8-.4,5.4-.6,8.2-.5,5.7-.4,6.6.7,7.4.9.6,1.4.4.7-.5a2.39,2.39,0,0,1-.7-1.6,21.51,21.51,0,0,1,.1-4.3c.9-15.1,1-15.6,1-15.6l1.7,1.1c-.1.2,1.6,15.2,1.4,18.9-.2,4.4-6,3.4-6.3.2-.1-.7,1-13,1-13Zm47.6.9,2.3.1,14.2,13,4.8.1-.4,1.6H96.2Zm8.8,0H91l8.1,7.4,5,.1-.9,1.4-5-.1Zm-2.8,0,12,10.8,4.1.2-.6,1.5-4.8-.1L83.2,131.7Zm-11.5,0H77l18.7,16.9,4.9.1-.1,1.5H94.6Zm63,.5c1,.2,1.5,1.2,2.2,4.8.8,4.2-.9,10.9-3.2,12.2-1.1.9-2.4-.1-1.6-1.2,2.6-3.8,3-10.1,1.4-13.6C135.9,133.2,136.4,132,137.5,132.2Zm-79.4.6c6,.1,7.5,12.4,1.6,14.1-3.8.6-5.8-2.9-6.3-6C52.7,137,54.4,132.8,58.1,132.8Zm-3.3,7.4c.4,2.5,1.9,5.3,4.1,5.1,2.9-.3,3.3-4.2,3-6.2-.3-2.4-1.7-4.5-3.7-4.6C55,134.3,54.5,138.3,54.8,140.2Zm3.2-4.8c.8,0,1.4,1.1,1.2,2.5-.1.9-.5,2-1.5,1.3a3.54,3.54,0,0,1-.8-2.6,1.2,1.2,0,0,1,1.1-1.2Zm82.5,2.9,2.8,3.3-3.2,2.2A16.65,16.65,0,0,0,140.5,138.3Zm-80.5.3a.9.9,0,1,1-.9.9A.9.9,0,0,1,60,138.6Zm-3.2.5a.9.9,0,1,1-.9.9C55.8,139.6,56.3,139.1,56.8,139.1Zm1.8,1.2c.5.1.8.6,1,.9.6.9.7,2.1.3,2.5-.9,1-2.3-.1-2.1-1.7.1-1.1.4-1.8.8-1.7Zm7.9,3.6a1.22,1.22,0,0,1,.6,2.3c-.7.5-.9,2.1-.4,4.3.4,1.6.2,1.9-.8.4-1.7-2.6-1.3-7,.6-7Zm-3.1.9c1.2,0,1.5.8.8,1.5a2.48,2.48,0,0,0,.1,2.5c.6,1.4.5,1.8-.7.5-1.6-1.7-1.5-4.5-.2-4.5Zm76.1.6A27.1,27.1,0,0,1,143,152l-5.7-2.6Zm-82.8,7a19.85,19.85,0,0,1-.9-2.6c-.3-.8-.5-1.2-.9-1.2-2.4.2-2.3-2.1-.9-2.5,2.8-.9,3.9,6,2.7,6.3Zm11.9-2.3c-.4,1.2-.1,1.9,0,3.2.1.6.1.7-.4.3-1.1-1-1.7-4.4-.7-5C68.9,147.8,69.3,149.2,68.6,150.1Zm56.8-1.6a1.65,1.65,0,0,1,1.5,1.2,16.51,16.51,0,0,1,.2,5.5c-.3,2.3-.9,4.4-1.1,6-.8,1-2.8-2.4-3-5.1-.3-2.1.4-6.5,2-7.4a.52.52,0,0,1,.4-.2Zm7.6.4c.5,0,.4.1.8.5a3.36,3.36,0,0,0,1.6,1c1.6.5,3.4,2.8,2.7,3.5-.5.4-2-.4-2.5-.6s-1.2-.4-1.5-.5c-1.4-.5-3.3-3-2.7-3.5.2-.3,1.2-.4,1.6-.4Zm-3.9.4c1,0,1.3.3,1.9,1.3a7.49,7.49,0,0,0,4.7,3.4c2.9.9,5.5,2.6,5.4,5.8a7.61,7.61,0,0,0-2.1.3,6.3,6.3,0,0,0-4.6-4c-4-.9-7.7-5-6.7-6.6a2.2,2.2,0,0,1,1.4-.2Zm-69.4.2,34.7,30.3c-14.7-5.5-28.1-5.3-41.1-3.3Zm14.8,2c-.1.9-1.4,1.1-1.6,1.4-.6.6-.6,2.2-.3,4.1.2,1.1-.1,1.1-.7.2-1.1-1.6-1-4.3-.3-6,.9-2.1,3-1,2.9.3ZM54.6,150c1.3.1,1.7,2,1.8,3.2,0,1.7-.5,1.6-.7,0-.1-.7-.3-1-.9-1.2C53.4,151.6,53.3,150,54.6,150Zm16.1,1.9a6,6,0,0,0,0,3.3c.2.7-.1.7-.6.2-1.4-1.7-1.6-4.6-.2-5.1,1-.3,1.3,1,.8,1.6Zm-15,3.4c0,1.7-.4,1.8-.9.2a2.37,2.37,0,0,0-.5-.9c-.9-.6-1.1-1.2-.6-1.7C55.1,151.8,55.7,154.8,55.7,155.3Zm5-1.5L56,173.9c11.6-1,16.9-1.2,29.2,1.2Zm14.1.3c.7.2,1,1.1.1,2-.3.3-.5.9-.2,2.3.5,1.9-.3,1.3-1.2-.5C72.9,156.7,73.2,153.7,74.8,154.1Zm-22.2.1c1.3,0,2.4,2,2.4,4.3,0,1.8-.2,1.7-.9-.1-.5-1.1-.9-1.6-1.7-1.9-1.5-.5-1.4-2.3.2-2.3Zm8.5.6,21.8,19.1a96.13,96.13,0,0,0-26.2-.5Zm18.2.7c1.7,0,2.4,2.1.3,2.9-1.3.4-.7,3-.5,4.5.1.6-.1.6-.5.1-1.3-2-2-6.9.7-7.5ZM77,157.9a2.57,2.57,0,0,0-.1,2c.6,2,.7,2.4-.5,1.4-1.2-1.3-1.8-3.9-.7-4.6,1.1-1,2.1,0,1.3,1.2Zm-43.1-1.6c2,0,3.5,1.3,3.4,3.1a3.27,3.27,0,0,1-3.2,3.4,3.23,3.23,0,0,1-3.4-3.3,3,3,0,0,1,3.2-3.2Zm-.1.8a2.48,2.48,0,0,0-1.3,4.5c.8.6,1.5.4.8-.2a2.06,2.06,0,0,1,.9-3.6c.9-.2.6-.7-.4-.7Zm28.3.5-2.8,13.6c5.7-.9,12.6-.6,17.9-.1Zm-9.4.5c1.4-.1,1.8,2,1.8,2.9,0,1.1-.1,1.6-.3,1.1-.5-1.4-.9-2.1-1.4-2.1a1.61,1.61,0,0,1-.7-.4.88.88,0,0,1,.6-1.5Zm9.6.6,1.8,1.6c-1.2-.5-2.2.8-2.2.8Zm18.9,2.5c-.5.7-.5,2.1-.1,3.7.1.5-.3.1-.7-.4a4.87,4.87,0,0,1-1.1-3.3c.2-2.4,3.4-1.9,1.9,0ZM52.1,160c1.2.1,1.6,2.6,1.6,3.4s-.2,1.3-.4.8a6.6,6.6,0,0,0-1.5-2.9c-.8-.5-.6-1.2.3-1.3Zm91.1,2.8a2.34,2.34,0,0,1-.9,2.1c-.6.3-.9-.1-1.2-1.1-.2-.7-.3-1-.3-1a9.68,9.68,0,0,1-.3,1.1c-.4,1.3-1.8,1.3-2.4-.1a2.63,2.63,0,0,1,2.5-3.3,2.29,2.29,0,0,1,2.6,2.3Zm-79.4-1.9a11.15,11.15,0,0,1,2,.7l1.6,1.4-2-.8c-1.3-.4-1.2-.4-2.2.4a18.64,18.64,0,0,1-1.9,1.5l.3-1.8s1.5-1.4,2.2-1.4Zm-10.6,4.6c.2,1.9-.3,2.1-.8.3-.5-1.6-.9-2.2-1.7-2.2a1.2,1.2,0,0,1-.6-2.3C52.5,160.6,53.1,164.7,53.2,165.5Zm81.9-4.3,2.2,1,.5,2.3-2-.5Zm-49.4.2a1.32,1.32,0,1,1,.8,2.5c-1,.2-1,1.8-.7,4,.1.5.2,1.1.2,1.2-.2.4-.7-.2-1.3-1.7-1.1-2.6-.8-5.5,1-6Zm60.7,0-.6,2.6-1.9-.1-.1-1.6Zm-62.9,1.7c-1,1.5-.1,2.9.1,4,0,.7-.8,0-1.3-1-1-2.1-1.1-3.7-.2-4.4C83.5,160.9,84.1,162.3,83.5,163.1Zm-19.1-.4a6.19,6.19,0,0,1,1.9.6l2.6,1,2.4,2.1s-2.1-.8-3.5-1.4c-3.3-1.4-2.8-1.4-5.4.5-.7.6-1.5,1.2-1.5,1.2l.3-1.7a23.25,23.25,0,0,1,2.2-1.9c.4-.2.6-.4,1-.4Zm-30.5.8a3.41,3.41,0,0,1,3.2,2.8,10.44,10.44,0,0,1,0,2.5c-1.2,8.9-1.7,17.2-2.7,25.4-.1.4-.3.2-.4-.5-1.2-7.5-2-15.7-3.1-23.1-.2-2.8-.9-6.4,2.5-7.1Zm-.1,1a2.24,2.24,0,0,0-1.9,1.2c-.6,1.3-.5,4.1.7,12.3.1.7.2,1.8.3,2.5a17.31,17.31,0,0,0,.7,4.2c.4.6.4,0,.2-2.2-.1-1.1-.3-2.7-.4-3.7-.5-3.9-.7-6.6-1-10.2-.2-1.7.5-3,1.8-3.4.7-.2.7-.5.1-.7Zm111,.1a2.47,2.47,0,0,1,1,4.7,2.35,2.35,0,0,1-2.8-.5.76.76,0,0,1,.5-1.1,5.84,5.84,0,0,1,1.3-.5,3.45,3.45,0,0,1-1.7-.9c-.7-1.4.7-1.7,1.7-1.7Zm-92.3,3.7c0,.6-.4.4-.4,0a5.14,5.14,0,0,0-1.3-2.2c-.6-.5-.7-1.1-.3-1.4,1.4-1.2,2,3.2,2,3.6Zm83.2-3.7a3.06,3.06,0,0,1,2,.7c.7.7.7,1-.5,1.4a8.41,8.41,0,0,0-1,.4,8.49,8.49,0,0,0,.9.3q1.65.6,0,1.8a2.43,2.43,0,0,1-3.6-2.2,2.33,2.33,0,0,1,2.2-2.4Zm5.2,0,2.2,2.5-2.6,2.7-2.5-2.7Zm-76.1.2h0c.8,0,1.9.5,4.6,1.6l3.2,1.3,2.4,2.2s-3.3-1.1-4.5-1.6c-.3-.1-.8-.4-1.2-.5s-1.5-.6-2.4-.9c-1.9-.8-1.9-.8-2.5-.2-.3.2-.9.7-1.5,1.1s-1.3,1-1.7,1.3l-1.1.9.4-2.1s.4-.3,1-.8l1.9-1.5a2.92,2.92,0,0,1,1.4-.8Zm24,1.9c.1.4,0,.5-.5,1s-.7,1.7-.3,3.1c.1.4.3.8.2.9-.7.7-2.4-3.6-2-4.8.7-1.6,2.3-1.6,2.6-.2Zm-38.4.2c.5,0,1,.3,1.3,1.1.7,2,.3,4.5-.5,2.2a4.11,4.11,0,0,0-.8-1.3c-.3-.3-.8-.6-.8-1,0-.7.4-1,.8-1Zm15,0a8.15,8.15,0,0,1,1.4.4c.6.3,2.4.9,3.4,1.3,1.6.6,3.2,1.4,3.2,1.4l-3.6-.2s-1.2-.4-1.9-.7c-2.6-1.1-2.5-1.1-3.8-.1l-1.1.9-1.8.1a21.84,21.84,0,0,1,2.1-1.8,6.34,6.34,0,0,0,1.2-1,1.9,1.9,0,0,1,.9-.3Zm28,.7c1-.2,1.5.8,1.5,1.4a1.92,1.92,0,0,1-1.6,1.5,10.22,10.22,0,0,0-.4,4.9c.3,1.2-.2,1.2-.7.1-.9-1.9-2.1-7.3,1.2-7.9Zm-2.8,2a3.76,3.76,0,0,0-.3,2.8c.3,1.3.3,1.6-.4.8-1.4-1.9-1.6-4.8-.3-5.2S91,169,90.6,169.6Zm-41.8-1.4c2.2.3,2.8,4.1,2.5,5.7-.6,1.9-.5.6-.7-.2-.5-1.9-1.2-3-1.8-3.1-1.9-.3-1.6-2.6,0-2.4Zm16.6.8h.1c.7.1,2.6.7,1.8.9H64.5c-.5,0,.4-.9.9-.9Zm76.3.6c.3,0,.6.3,1.1.7a2.24,2.24,0,0,1-.8,3.5,2.46,2.46,0,0,1-3.4-3.3c.6-1.2,1.4-1,2.1.7.1.2,0-.2.2-.7s.5-.9.8-.9Zm-3.6.1-.6,2.6-2.6,1.3,1-3.2Zm5.4.4,2.1.2,1.2,3.4-3-1.3Zm-49,1.9c1.5.1,1.7,1.5.8,2.1a2.45,2.45,0,0,0-.6,2.2,8,8,0,0,0,.1,1.1c0,.2-.2.2-.5-.1C92.8,175.7,93,172,94.5,172Zm-45.6.6c1,0,2,2.7,1.5,3.8-.3.6-.7.5-.8-.3a1.68,1.68,0,0,0-1.2-1.4C47.3,174.4,47.7,172.6,48.9,172.6Zm48.4,1.6a1,1,0,0,1,.1,1.7c-.5.4-.6.7-.7,1.7.2,2.3-1.1.8-1.2-1.2C95.4,175.3,96,173.6,97.3,174.2Zm-49.2.7c.7,0,1.5,1.2,1.3,2-.1.6-.4.5-.8,0a2.12,2.12,0,0,0-.7-.3.86.86,0,0,1,.2-1.7Zm19.5,1c9.3,0,18.9,1.4,26.9,4.6l-.7,1.2-2.1-.7-.7,1.9,1.7.7-.8,1.8c-9.5-3.1-19.7-5.4-36.6-2.9-.8-.6-2.4-1.7-2.4-1.7l1.4-.3-.2-1.9-3.4.6-1-1a67.44,67.44,0,0,1,17.9-2.3Zm31.1.4c.9,0,1.4,1,.8,1.4s-1.5.4-1.7.1C97.4,177.4,98,176.3,98.7,176.3Zm-32.4,1.2v2l2.8-.1.1-1.9Zm4.8,0v1.9l2.7.1.1-1.9Zm-7.1.1-2.7.2.1,1.8,2.7-.1Zm12.3.3-.1,1.9,2.8.3.2-1.9Zm-17.4.1-2.8.4.2,1.8,2.7-.3Zm22.8.6-.3,1.9,2.6.4.3-1.8Zm5.1,1.1-.3,2,2.6.6.4-1.8ZM68.2,182a66.85,66.85,0,0,1,23.3,4,12,12,0,0,1-1.2,2.1,62.14,62.14,0,0,0-18.5-3.8c-2-.1-2.5-.1-3.2-.4-4.2-1.4-7.9-2-11.3.1l-1.4-1a76.37,76.37,0,0,1,12.3-1ZM31.5,193.2c2,0,2.9,3.1.8,4.4a2.12,2.12,0,0,1-1.9,0,2.29,2.29,0,0,1,.2-4.2,1,1,0,0,1,.9-.2Zm65,.1c.7.4,3.3,1.6,3.3,1.6L81.3,228.4H76.8Zm-59.6,0a2.28,2.28,0,0,1,2.2,1.6,2.22,2.22,0,0,1-2.3,2.9c-2.2-.1-3.2-4.1.1-4.5Zm63.5,1.8c.5.3,2.3.6,2.4.9s-.1.5-.1,1a5.29,5.29,0,0,0,.8,3.2c1.1,1.5-.1.8-1.1.8-2.4-.6-5.4,2.6-4.2,6,.3.7.2.8-1.1,1.2a4.7,4.7,0,0,0-2.8,6.7c.7,1.4.7,1.4-.5,1.5-3.5.3-5.6,3.4-4.1,6.7.2.5.1.6-.7.8-2.4.4-3.5,2.5-3.8,4.7H82Zm3.1,1.2,6.1,1.7c-2.5,8.7-2.9,18.8.2,30.4H95.7c2-1.8,1.2-4.2-1.1-4.7,2.2-1.3,2.2-4.7-.4-5.1-2.3-.4-3.5,1.9-2.5,4.1l-1,.3-.6-.9c-.9-2.6,1-5.1,4.1-5.1,1.9,0,2.3-.5,1.3-1.7a3.89,3.89,0,0,1,1.2-6.3,2.32,2.32,0,0,1,1.8-.2l.1,1.4a3.22,3.22,0,0,0-.8.1c-2.8.4-2.3,4.9.6,4.8a2.74,2.74,0,0,0,2.7-2.9V211c1.4,2.4,3.9,2.6,4.9.6,1.2-2.3-1-3.8-3.2-3.6,0,0,.5-.3.8-.5a2.46,2.46,0,0,0-1.1-4.7c-1.8,0-2.8,1.7-2.3,3.5a6.66,6.66,0,0,0,.3.7l-1.1.3-.4-.4c-1.8-2.9,1.1-6,4.8-5.3,1.4.4,1.3-.5.6-1.4-.9-1.2-1.5-2.6-.9-3.9Zm-69.3,1.2,3.2,5.7-3.6,6.6-3.6-6.1Zm-.3,3-2.2,3.1,2.2,3.5,2.1-3.6Zm-.1,1.1,1.5,2L33.8,206l-1.4-2.3Zm66.5,6.2a1.16,1.16,0,0,1,1.2,1.2,1.22,1.22,0,0,1-1.2,1.2,1.2,1.2,0,0,1,0-2.4Zm-8.7,15.4a1.3,1.3,0,1,1-1.3,1.3A1.4,1.4,0,0,1,91.6,223.2Zm-1.9.9a2.7,2.7,0,0,0,.3,1.6c-1.8.1-2.3,1.5-2.5,2.7H85.9c.2-4,3.7-4.1,3.8-4.3Z"/><path id="path153-6-3-1-9-55-1-6" d="M48.2,26.6C40.9,37.1,33,43.1,32.9,51.3c0,2.7,1.4,7.2,5.9,8,2.9.6,6.9-1.8,7-6.6,0-1,1-.9,1,.4a26.91,26.91,0,0,1-3.3,11.8h9.6a26.91,26.91,0,0,1-3.3-11.8c0-1.3,1-1.3,1-.4.1,4.8,4.1,7.1,7,6.6,4.5-.9,5.9-5.4,5.9-8-.3-8.2-8.2-14.2-15.5-24.7Z"/><path id="path153-6-3-1-8-6-8-8-0" d="M130.6,223.1c-7.3-10.5-15.2-16.5-15.3-24.7,0-2.7,1.4-7.2,5.9-8,2.9-.6,6.9,1.8,7,6.6,0,1,1,.9,1-.4a26.91,26.91,0,0,0-3.3-11.8h9.6a26.91,26.91,0,0,0-3.3,11.8c0,1.3,1,1.3,1,.4.1-4.8,4.1-7.1,7-6.6,4.5.9,5.9,5.4,5.9,8-.3,8.2-8.1,14.2-15.5,24.7Z"/></g></g></g></svg>