<svg xmlns="http://www.w3.org/2000/svg" viewBox="0 0 178.8 249.6"><defs><style>.cls-1{fill:#fff;stroke:#000;stroke-width:1px;}</style></defs><title>Tc</title><g id="Layer_2" data-name="Layer 2"><g id="svg11376"><g id="Tc"><path id="rect6355-6-85-3-6-8-7" class="cls-1" d="M9,.5H169.8A8.49,8.49,0,0,1,178.3,9V240.6a8.49,8.49,0,0,1-8.5,8.5H9a8.49,8.49,0,0,1-8.5-8.5V9A8.49,8.49,0,0,1,9,.5Z"/><path id="path147-0-8-1-6-13-2-22-1-5" d="M130.7,26.9c-7.8.2-11.3,9-5.5,15.8.8,1,.9,1.6-.6.6-3.9-2.6-11.4-.9-11.8,7.1-.5,9.8,13.3,12.7,15.8,2.2.1-1.1,1-1.1.8.5A32.78,32.78,0,0,1,126,65.2h9.3a34.21,34.21,0,0,1-3.4-12.1c-.2-1.6.7-1.6.8-.5,2.6,10.4,16.3,7.6,15.8-2.2-.4-8-7.9-9.7-11.8-7.1-1.5,1-1.5.4-.6-.6,5.9-6.8,2.4-15.6-5.4-15.8Z"/><path id="path147-0-8-1-6-75-2-83-21-1-8" d="M48.2,26.9c-7.8.2-11.3,9-5.5,15.8.8,1,.9,1.6-.6.6-3.9-2.6-11.4-.9-11.8,7.1-.5,9.8,13.3,12.7,15.8,2.2.1-1.1,1-1.1.8.5a32.78,32.78,0,0,1-3.4,12.1h9.3a34.21,34.21,0,0,1-3.4-12.1c-.2-1.6.7-1.6.8-.5C52.8,63,66.5,60.2,66,50.4c-.4-8-7.9-9.7-11.8-7.1-1.5,1-1.5.4-.6-.6,5.9-6.8,2.4-15.6-5.4-15.8Z"/><path id="path147-0-8-1-6-7-5-5-7-3-5-5" d="M130.7,223.4c-7.8-.2-11.3-9-5.5-15.8.8-1,.9-1.6-.6-.6-3.9,2.6-11.4.9-11.8-7.1-.5-9.8,13.3-12.7,15.8-2.2.1,1.1,1,1.1.8-.5a32.78,32.78,0,0,0-3.4-12.1h9.3a34.21,34.21,0,0,0-3.4,12.1c-.2,1.6.7,1.6.8.5,2.6-10.4,16.3-7.6,15.8,2.2-.4,8-7.9,9.7-11.8,7.1-1.5-1-1.5-.4-.6.6,5.9,6.9,2.4,15.7-5.4,15.8Z"/><path id="path147-0-8-1-6-75-6-1-2-7-9-3" d="M48.2,223.4c-7.8-.2-11.3-9-5.5-15.8.8-1,.9-1.6-.6-.6-3.9,2.6-11.4.9-11.8-7.1-.5-9.8,13.3-12.7,15.8-2.2.1,1.1,1,1.1.8-.5a32.78,32.78,0,0,0-3.4-12.1h9.3a34.21,34.21,0,0,0-3.4,12.1c-.2,1.6.7,1.6.8.5,2.6-10.4,16.3-7.6,15.8,2.2-.4,8-7.9,9.7-11.8,7.1-1.5-1-1.5-.4-.6.6,5.9,6.9,2.4,15.7-5.4,15.8Z"/><path id="path147-0-8-1-6-2-00-7-1-1-4" d="M89.4,53.3c-7.8.2-11.3,9-5.5,15.8.8,1,.9,1.6-.6.6-3.9-2.6-11.4-.9-11.8,7.1C71,86.6,84.8,89.5,87.3,79c.1-1.1,1-1.1.8.5a32.78,32.78,0,0,1-3.4,12.1H94a34.21,34.21,0,0,1-3.4-12.1c-.2-1.6.7-1.6.8-.5,2.6,10.4,16.3,7.6,15.8-2.2-.4-8-7.9-9.7-11.8-7.1-1.5,1-1.5.4-.6-.6,6-6.8,2.5-15.6-5.4-15.8Z"/><path id="path147-0-8-1-6-2-0-8-6-8-1-8" d="M89.4,197.1c-7.8-.2-11.3-9-5.5-15.8.8-1,.9-1.6-.6-.6-3.9,2.6-11.4.9-11.8-7.1-.5-9.8,13.3-12.7,15.8-2.2.1,1.1,1,1.1.8-.5a32.78,32.78,0,0,0-3.4-12.1H94a34.21,34.21,0,0,0-3.4,12.1c-.2,1.6.7,1.6.8.5,2.6-10.4,16.3-7.6,15.8,2.2-.4,8-7.9,9.7-11.8,7.1-1.5-1-1.5-.4-.6.6,6,6.8,2.5,15.6-5.4,15.8Z"/><path id="path147-6-9-8-7-0-5-6-83-3-7" d="M164.6,209.3c3.1-.1,4.5-3.7,2.2-6.6-.3-.4-.4-.7.2-.3,1.6,1.1,4.6.4,4.7-2.9.2-4.1-5.3-5.3-6.3-.9-.1.5-.4.4-.3-.2a12.48,12.48,0,0,1,1.4-5h-3.7a15,15,0,0,1,1.4,5c.1.7-.3.7-.3.2-1-4.4-6.5-3.2-6.3.9.2,3.3,3.1,4,4.7,2.9.6-.4.6-.2.2.3-2.4,2.9-1,6.5,2.1,6.6Z"/><path id="path147-0-8-1-6-75-2-9-77-44-0-7" d="M48.2,79.7c-7.8.2-11.3,9-5.5,15.8.8,1,.9,1.6-.6.6-3.9-2.6-11.4-.9-11.8,7.1-.5,9.8,13.3,12.7,15.8,2.2.1-1.1,1-1.1.8.5A32.78,32.78,0,0,1,43.5,118h9.3a34.21,34.21,0,0,1-3.4-12.1c-.2-1.6.7-1.6.8-.5,2.6,10.4,16.3,7.6,15.8-2.2-.4-8-7.9-9.7-11.8-7.1-1.5,1-1.5.4-.6-.6,5.9-6.9,2.4-15.7-5.4-15.8Z"/><path id="path147-0-8-1-6-75-2-8-0-3-9-3" d="M48.2,170.7c-7.8-.2-11.3-9-5.5-15.8.8-1,.9-1.6-.6-.6-3.9,2.6-11.4.9-11.8-7.1-.5-9.8,13.3-12.7,15.8-2.2.1,1.1,1,1.1.8-.5a32.78,32.78,0,0,0-3.4-12.1h9.3a34.21,34.21,0,0,0-3.4,12.1c-.2,1.6.7,1.6.8.5,2.6-10.4,16.3-7.6,15.8,2.2-.4,8-7.9,9.7-11.8,7.1-1.5-1-1.5-.4-.6.6,5.9,6.8,2.4,15.6-5.4,15.8Z"/><path id="path147-0-8-1-6-75-2-9-7-1-9-7-9" d="M130.7,79.7c-7.8.2-11.3,9-5.5,15.8.8,1,.9,1.6-.6.6-3.9-2.6-11.4-.9-11.8,7.1-.5,9.8,13.3,12.7,15.8,2.2.1-1.1,1-1.1.8.5A32.78,32.78,0,0,1,126,118h9.3a34.21,34.21,0,0,1-3.4-12.1c-.2-1.6.7-1.6.8-.5,2.6,10.4,16.3,7.6,15.8-2.2-.4-8-7.9-9.7-11.8-7.1-1.5,1-1.5.4-.6-.6,5.9-6.9,2.4-15.7-5.4-15.8Z"/><path id="path147-0-8-1-6-75-2-8-5-1-52-2-8" d="M130.7,170.7c-7.8-.2-11.3-9-5.5-15.8.8-1,.9-1.6-.6-.6-3.9,2.6-11.4.9-11.8-7.1-.5-9.8,13.3-12.7,15.8-2.2.1,1.1,1,1.1.8-.5a32.78,32.78,0,0,0-3.4-12.1h9.3a34.21,34.21,0,0,0-3.4,12.1c-.2,1.6.7,1.6.8.5,2.6-10.4,16.3-7.6,15.8,2.2-.4,8-7.9,9.7-11.8,7.1-1.5-1-1.5-.4-.6.6,5.9,6.8,2.4,15.6-5.4,15.8Z"/><path id="path147-6-9-8-7-4-5-62-52-8-0" d="M14.2,40.4c-3.1.1-4.5,3.7-2.2,6.6.3.4.4.7-.2.3-1.6-1.1-4.6-.4-4.7,2.9-.2,4.1,5.3,5.3,6.3.9.1-.5.4-.4.3.2a12.48,12.48,0,0,1-1.4,5H16a15,15,0,0,1-1.4-5c-.1-.7.3-.7.3-.2,1,4.4,6.5,3.2,6.3-.9-.2-3.3-3.1-4-4.7-2.9-.6.4-.6.2-.2-.3,2.5-2.9,1.1-6.6-2.1-6.6Z"/><path id="path31-6-7-6" d="M6.3,37.9V11.6H8.8V37.9Z"/><path id="path33-9-3-6" d="M16.4,11.6c-2.5,0-4.4,2.2-4.4,5V32.9a4.72,4.72,0,0,0,4.4,5h1.4c2.5,0,4.4-2.2,4.4-5V16.6a4.72,4.72,0,0,0-4.4-5Zm.7,2.4a2.56,2.56,0,0,1,2.6,2.5V33a2.6,2.6,0,0,1-5.2,0V16.5A2.63,2.63,0,0,1,17.1,14Z"/><path id="path31-1-4-0-7" d="M172.6,211.8v26.3h-2.5V211.8Z"/><path id="path33-5-7-4-0" d="M162.5,238.1c2.5,0,4.4-2.2,4.4-5V216.8a4.72,4.72,0,0,0-4.4-5h-1.4c-2.5,0-4.4,2.2-4.4,5v16.3a4.72,4.72,0,0,0,4.4,5Zm-.8-2.5a2.56,2.56,0,0,1-2.6-2.5V216.6a2.6,2.6,0,0,1,5.2,0v16.5a2.44,2.44,0,0,1-2.6,2.5Z"/></g></g></g></svg>