<svg xmlns="http://www.w3.org/2000/svg" viewBox="0 0 178.7 249.6"><defs><style>.cls-1{fill:#fff;stroke:#000;stroke-width:1px;}.cls-2{fill:#d40000;}</style></defs><title>Th</title><g id="Layer_2" data-name="Layer 2"><g id="svg11376"><g id="Th"><g id="g10276-9-9"><path id="rect10278-0-6" class="cls-1" d="M9,.5H169.74A8.46,8.46,0,0,1,178.2,9V240.63a8.46,8.46,0,0,1-8.46,8.47H9A8.46,8.46,0,0,1,.5,240.63V9A8.46,8.46,0,0,1,9,.5Z"/></g><path id="path10308-5-1" class="cls-2" d="M48.12,117.6s-3.68-6.08-8.76-13.26c-3.39-4.78-6.08-10-6.27-14.45-.3-5.08,2.39-10.27,7.36-10.47s6.87,4,7.67,7.38c.79-3.49,2.79-7.68,7.66-7.38s7.57,5.39,7.37,10.47c-.3,4.48-2.89,9.67-6.27,14.45C51.9,111.52,48.12,117.6,48.12,117.6Z"/><path id="path10310-7-8" class="cls-2" d="M14.17,56.3S12.38,53.71,10,50.71c-1.59-2-2.89-4.18-3-6.08-.1-2.09,1.2-4.28,3.49-4.38s3.28,1.59,3.68,3.09c.4-1.4,1.29-3.19,3.68-3.09s3.59,2.29,3.49,4.38c-.1,1.9-1.4,4-3,6.08C16,53.8,14.17,56.3,14.17,56.3Z"/><path id="path10312-3-5" class="cls-2" d="M164.6,193.36s-1.8,2.59-4.18,5.58c-1.6,2-2.89,4.19-3,6.08-.1,2.09,1.19,4.29,3.48,4.39s3.29-1.6,3.69-3.09c.39,1.39,1.29,3.19,3.68,3.09s3.58-2.3,3.48-4.39c-.1-1.89-1.39-4-3-6.08C166.29,195.85,164.6,193.36,164.6,193.36Z"/><path id="path10314-8-8" class="cls-2" d="M89.33,98.86s-3.68-6.08-8.76-13.26c-3.38-4.78-6.07-10-6.27-14.45-.3-5.08,2.39-10.27,7.37-10.47s6.87,4,7.66,7.38c.8-3.49,2.79-7.68,7.67-7.38s7.57,5.39,7.37,10.47c-.3,4.48-2.89,9.67-6.28,14.45C93.12,92.78,89.33,98.86,89.33,98.86Z"/><path id="path10318-3-7" class="cls-2" d="M48.12,64.87s-3.68-6.08-8.76-13.26c-3.39-4.78-6.08-10-6.27-14.45-.3-5.09,2.39-10.27,7.36-10.47s6.87,4,7.67,7.38c.79-3.49,2.79-7.68,7.66-7.38s7.57,5.38,7.37,10.47c-.3,4.48-2.89,9.67-6.27,14.45C51.9,58.79,48.12,64.87,48.12,64.87Z"/><path id="path10322-4-6" class="cls-2" d="M130.55,117.6s-3.68-6.08-8.76-13.26c-3.39-4.78-6.07-10-6.27-14.45-.3-5.08,2.39-10.27,7.36-10.47s6.87,4,7.67,7.38c.8-3.49,2.79-7.68,7.66-7.38s7.57,5.39,7.37,10.47c-.3,4.48-2.89,9.67-6.27,14.45C134.33,111.52,130.55,117.6,130.55,117.6Z"/><path id="path10324-9-8" class="cls-2" d="M130.55,64.87s-3.68-6.08-8.76-13.26c-3.39-4.78-6.07-10-6.27-14.45-.3-5.09,2.39-10.27,7.36-10.47s6.87,4,7.67,7.38c.8-3.49,2.79-7.68,7.66-7.38s7.57,5.38,7.37,10.47c-.3,4.48-2.89,9.67-6.27,14.45C134.33,58.79,130.55,64.87,130.55,64.87Z"/><path id="path10332-8-6" class="cls-2" d="M89.33,150.79s-3.68,6.08-8.76,13.26c-3.38,4.79-6.07,10-6.27,14.45-.3,5.09,2.39,10.27,7.37,10.47s6.87-4,7.66-7.38c.8,3.49,2.79,7.68,7.67,7.38s7.57-5.38,7.37-10.47c-.3-4.48-2.89-9.66-6.28-14.45C93.12,156.87,89.33,150.79,89.33,150.79Z"/><path id="path10334-5-0" class="cls-2" d="M130.55,132.05s-3.68,6.08-8.76,13.26c-3.39,4.79-6.07,10-6.27,14.45-.3,5.09,2.39,10.27,7.36,10.47s6.87-4,7.67-7.38c.8,3.49,2.79,7.68,7.66,7.38s7.57-5.38,7.37-10.47c-.3-4.48-2.89-9.66-6.27-14.45C134.33,138.13,130.55,132.05,130.55,132.05Z"/><path id="path10336-3-5" class="cls-2" d="M48.12,132.05s-3.68,6.08-8.76,13.26c-3.39,4.79-6.08,10-6.27,14.45-.3,5.09,2.39,10.27,7.36,10.47s6.87-4,7.67-7.38c.79,3.49,2.79,7.68,7.66,7.38s7.57-5.38,7.37-10.47c-.3-4.48-2.89-9.66-6.27-14.45C51.9,138.13,48.12,132.05,48.12,132.05Z"/><path id="path10338-2-9" class="cls-2" d="M130.55,184.78s-3.68,6.09-8.76,13.26c-3.39,4.79-6.07,10-6.27,14.46-.3,5.08,2.39,10.26,7.36,10.46s6.87-4,7.67-7.37c.8,3.48,2.79,7.67,7.66,7.37s7.57-5.38,7.37-10.46c-.3-4.49-2.89-9.67-6.27-14.46C134.33,190.87,130.55,184.78,130.55,184.78Z"/><path id="path10340-9-7" class="cls-2" d="M48.12,184.78s-3.68,6.09-8.76,13.26c-3.39,4.79-6.08,10-6.27,14.46-.3,5.08,2.39,10.26,7.36,10.46s6.87-4,7.67-7.37c.79,3.48,2.79,7.67,7.66,7.37s7.57-5.38,7.37-10.46c-.3-4.49-2.89-9.67-6.27-14.46C51.9,190.87,48.12,184.78,48.12,184.78Z"/><g id="g7724-24-8-9-7"><g id="g8345-9-7-5-1"><path id="path31-8-2-9-8" class="cls-2" d="M6.22,37.83V11.51H8.81V37.83Z"/><path id="path33-2-3-1-6" class="cls-2" d="M16.28,11.51c-2.49,0-4.38,2.29-4.38,5V32.74c0,2.79,2,5,4.38,5h1.39c2.49,0,4.38-2.2,4.38-5V16.5c0-2.8-2-5-4.38-5ZM17.07,14a2.49,2.49,0,0,1,2.59,2.5V32.94a2.54,2.54,0,0,1-2.59,2.49,2.49,2.49,0,0,1-2.59-2.49V16.5A2.45,2.45,0,0,1,17.07,14Z"/></g></g><g id="g7724-2-5-0-2-7"><g id="g8345-5-0-9-6-9"><g id="g10963-5-1"><path id="path31-1-3-2-1-5" class="cls-2" d="M172.57,211.76v26.32H170V211.76Z"/><path id="path33-5-5-3-3-1" class="cls-2" d="M162.42,238.08c2.49,0,4.38-2.29,4.38-5V216.85c0-2.79-2-5-4.38-5H161c-2.49,0-4.38,2.2-4.38,5V233.1a4.7,4.7,0,0,0,4.38,5Zm-.7-2.49a2.5,2.5,0,0,1-2.59-2.49V216.65a2.55,2.55,0,0,1,2.59-2.49,2.48,2.48,0,0,1,2.59,2.49V233.1a2.55,2.55,0,0,1-2.59,2.49Z"/></g></g></g></g></g></g></svg>