<svg xmlns="http://www.w3.org/2000/svg" viewBox="0 0 178.7 249.6"><defs><style>.cls-1{fill:#fff;stroke:#000;stroke-width:1px;}</style></defs><title>Ts</title><g id="Layer_2" data-name="Layer 2"><g id="svg11376"><g id="Ts"><g id="g8587-4-9"><path id="rect7263-6-4" class="cls-1" d="M9,.5H169.74A8.46,8.46,0,0,1,178.2,9V240.63a8.46,8.46,0,0,1-8.46,8.47H9A8.46,8.46,0,0,1,.5,240.63V9A8.46,8.46,0,0,1,9,.5Z"/><path id="path7293-3-2" d="M48.19,26.62C40.82,37.08,33,43.16,32.86,51.34c0,2.69,1.39,7.17,5.87,8,2.89.6,6.87-1.79,7-6.58,0-1,1-.89,1,.4a25.68,25.68,0,0,1-3.38,11.76H53a28.26,28.26,0,0,1-3.39-11.76c0-1.29,1-1.29,1-.4.1,4.79,4.08,7.18,7,6.58,4.48-.9,5.88-5.38,5.88-8C63.42,43.16,55.55,37.08,48.19,26.62Z"/><path id="path7295-4-8" d="M14.24,40.37c-3.39,4.39-7.07,6.88-7.17,10.27A3.46,3.46,0,0,0,9.86,54a2.93,2.93,0,0,0,3.28-2.79c0-.4.5-.4.5.2a10.17,10.17,0,0,1-1.59,4.88h4.48a11.24,11.24,0,0,1-1.59-4.88c0-.5.49-.6.49-.2A2.89,2.89,0,0,0,18.72,54a3.39,3.39,0,0,0,2.79-3.39c-.2-3.39-3.89-5.88-7.27-10.27Z"/><path id="path7297-5-1" d="M48.19,170.36C40.82,159.89,33,153.81,32.86,145.63c0-2.69,1.39-7.17,5.87-8,2.89-.6,6.87,1.79,7,6.58,0,1,1,.9,1-.4a25.72,25.72,0,0,0-3.38-11.76H53a28.3,28.3,0,0,0-3.39,11.76c0,1.3,1,1.3,1,.4.1-4.79,4.08-7.18,7-6.58,4.48.9,5.88,5.38,5.88,8C63.42,153.81,55.55,159.89,48.19,170.36Z"/><path id="path7299-3-5" d="M164.56,209.33c-3.38-4.39-7.06-6.88-7.16-10.27a3.46,3.46,0,0,1,2.78-3.39,2.93,2.93,0,0,1,3.29,2.8c0,.39.5.39.5-.2a10.11,10.11,0,0,0-1.6-4.89h4.48a11.41,11.41,0,0,0-1.59,4.89c0,.49.5.59.5.2a2.88,2.88,0,0,1,3.28-2.8,3.39,3.39,0,0,1,2.79,3.39c-.2,3.39-3.78,5.88-7.27,10.27Z"/><path id="path7301-4-0" d="M130.62,26.62c-7.37,10.46-15.23,16.54-15.33,24.72,0,2.69,1.39,7.17,5.87,8,2.89.6,6.87-1.79,7-6.58,0-1,1-.89,1,.4a25.68,25.68,0,0,1-3.38,11.76h9.66A28.26,28.26,0,0,1,132,53.13c0-1.29,1-1.29,1-.4.1,4.79,4.08,7.18,7,6.58,4.48-.9,5.87-5.38,5.87-8C145.85,43.16,138,37.08,130.62,26.62Z"/><path id="path7303-7-8" d="M48.19,79.35C40.82,89.81,33,95.89,32.86,104.07c0,2.69,1.39,7.17,5.87,8,2.89.6,6.87-1.79,7-6.58,0-1,1-.89,1,.4a25.68,25.68,0,0,1-3.38,11.76H53a28.26,28.26,0,0,1-3.39-11.76c0-1.29,1-1.29,1-.4.1,4.79,4.08,7.18,7,6.58,4.48-.89,5.88-5.38,5.88-8C63.42,95.89,55.55,89.81,48.19,79.35Z"/><path id="path7305-6-7" d="M89.4,60.61C82,71.07,74.17,77.15,74.07,85.33c0,2.69,1.39,7.18,5.87,8,2.89.6,6.87-1.79,7-6.58,0-1,1-.89,1,.4a25.7,25.7,0,0,1-3.39,11.76h9.66A28.24,28.24,0,0,1,90.8,87.12c0-1.29,1-1.29,1-.4.1,4.79,4.08,7.18,7,6.58,4.48-.89,5.87-5.38,5.87-8C104.63,77.15,96.77,71.07,89.4,60.61Z"/><path id="path7309-8-5" d="M130.62,79.35c-7.37,10.46-15.23,16.54-15.33,24.72,0,2.69,1.39,7.17,5.87,8,2.89.6,6.87-1.79,7-6.58,0-1,1-.89,1,.4a25.68,25.68,0,0,1-3.38,11.76h9.66A28.26,28.26,0,0,1,132,105.86c0-1.29,1-1.29,1-.4.1,4.79,4.08,7.18,7,6.58,4.48-.89,5.87-5.38,5.87-8C145.85,95.89,138,89.81,130.62,79.35Z"/><path id="path7313-6-8" d="M48.19,223.09C40.82,212.62,33,206.54,32.86,198.37c0-2.7,1.39-7.18,5.87-8,2.89-.6,6.87,1.8,7,6.58,0,1,1,.9,1-.4a25.72,25.72,0,0,0-3.38-11.76H53a28.3,28.3,0,0,0-3.39,11.76c0,1.3,1,1.3,1,.4.1-4.78,4.08-7.18,7-6.58,4.48.9,5.88,5.38,5.88,8,0,8.17-7.87,14.25-15.23,24.72Z"/><path id="path7315-7-3" d="M130.62,223.09c-7.37-10.47-15.23-16.55-15.33-24.72,0-2.7,1.39-7.18,5.87-8,2.89-.6,6.87,1.8,7,6.58,0,1,1,.9,1-.4a25.72,25.72,0,0,0-3.38-11.76h9.66A28.3,28.3,0,0,0,132,196.57c0,1.3,1,1.3,1,.4.1-4.78,4.08-7.18,7-6.58,4.48.9,5.87,5.38,5.87,8,0,8.17-7.87,14.25-15.23,24.72Z"/><path id="path7317-0-2" d="M89.4,189.1C82,178.63,74.17,172.55,74.07,164.37c0-2.69,1.39-7.17,5.87-8,2.89-.6,6.87,1.79,7,6.58,0,1,1,.9,1-.4a25.73,25.73,0,0,0-3.39-11.76h9.66a28.28,28.28,0,0,0-3.38,11.76c0,1.3,1,1.3,1,.4.1-4.79,4.08-7.18,7-6.58,4.48.9,5.87,5.38,5.87,8C104.63,172.55,96.77,178.63,89.4,189.1Z"/><path id="path7319-5-6" d="M130.62,170.36c-7.37-10.47-15.23-16.55-15.33-24.73,0-2.69,1.39-7.17,5.87-8,2.89-.6,6.87,1.79,7,6.58,0,1,1,.9,1-.4a25.72,25.72,0,0,0-3.38-11.76h9.66A28.3,28.3,0,0,0,132,143.84c0,1.3,1,1.3,1,.4.1-4.79,4.08-7.18,7-6.58,4.48.9,5.87,5.38,5.87,8C145.85,153.81,138,159.89,130.62,170.36Z"/><path id="path31-5-4-7" d="M6.27,37.88V11.56H8.86V37.88Z"/><path id="path33-4-6-8" d="M16.33,11.56c-2.49,0-4.38,2.3-4.38,5V32.8a4.7,4.7,0,0,0,4.38,5h1.39c2.49,0,4.38-2.19,4.38-5V16.55c0-2.79-2-5-4.38-5Zm.7,2.5a2.48,2.48,0,0,1,2.58,2.49V33a2.59,2.59,0,0,1-5.17,0V16.55A2.54,2.54,0,0,1,17,14.06Z"/><g id="g8583-6-9"><path id="path31-5-5-6-7" d="M172.57,211.82v26.32H170V211.82Z"/><path id="path33-4-3-7-9" d="M162.41,238.14c2.49,0,4.38-2.29,4.38-5V216.91c0-2.8-2-5-4.38-5H161c-2.49,0-4.38,2.19-4.38,5v16.24c0,2.79,2,5,4.38,5Zm-.69-2.49a2.49,2.49,0,0,1-2.59-2.5V216.71a2.59,2.59,0,0,1,5.17,0v16.44a2.49,2.49,0,0,1-2.58,2.5Z"/></g></g></g></g></g></svg>